<?xml version="1.0" encoding="utf-8"?>
<svg xmlns="http://www.w3.org/2000/svg" width="128" height="128" viewBox="0 0 128 128">
 <g fill="#f37b2d">
  <path d="M62.69 114.04 c-0.96 -0.51 -3.26 -1.74 -5.13 -2.71 -6.07 -3.21 -9.24 -5.19 -12.63 -7.91 -2.14 -1.70 -5.54 -5 -7.09 -6.85 -6.19 -7.41 -10.24 -16.09 -12.15 -26 -0.66 -3.49 -0.70 -4 -0.70 -10.82 0 -4.16 0.04 -6.38 0.13 -6.34 0.06 0.03 2.36 1.70 5.09 3.72 2.74 2.03 5.96 4.41 7.16 5.30 1.20 0.89 3.04 2.25 4.06 3.01 1.04 0.76 4.18 3.09 6.97 5.18 2.80 2.08 7.64 5.66 10.75 7.97 3.11 2.31 7.96 5.93 10.77 8.02 13.55 10.07 17.89 13.31 18.06 13.46 0.15 0.15 0.04 0.29 -0.75 1.02 -2.01 1.85 -3.99 3.44 -6.26 5.03 -1.24 0.86 -1.35 0.93 -2 1.30 -0.24 0.13 -0.56 0.35 -0.74 0.47 -0.17 0.14 -0.47 0.32 -0.69 0.43 -0.20 0.10 -0.57 0.29 -0.81 0.44 -1.11 0.68 -3.69 2.11 -4.94 2.75 -4.53 2.31 -6.96 3.49 -7.18 3.47 -0.11 -0.01 -0.99 -0.44 -1.95 -0.95z"/>
  <path d="M81.18 89.34 c-5.45 -4.07 -10.59 -7.91 -11.44 -8.54 -0.85 -0.64 -3.58 -2.65 -6.05 -4.50 -5.38 -4 -10.63 -7.90 -20.38 -15.13 -3.99 -2.96 -8.07 -6 -9.07 -6.75 -1.01 -0.75 -3.50 -2.60 -5.54 -4.11 -3.70 -2.74 -3.70 -2.74 -3.70 -13.01 0 -10.26 0 -10.26 1.16 -10.68 0.63 -0.22 3.42 -1.25 6.20 -2.28 2.79 -1.01 5.14 -1.85 5.22 -1.85 0.15 0 7.93 5.84 27.98 21 6.81 5.15 11.10 8.39 30.70 23.16 7.09 5.32 7.09 5.32 6.85 6.43 -1.44 6.51 -4.31 13.26 -8 18.73 -1.27 1.90 -3.69 4.94 -3.90 4.94 -0.09 -0.01 -4.60 -3.34 -10.04 -7.41z"/>
  <path d="M95.38 60.22 c-8.74 -6.55 -15.02 -11.29 -24.38 -18.35 -2.79 -2.10 -8.59 -6.47 -12.90 -9.73 -12.69 -9.55 -15.10 -11.40 -15.10 -11.54 0 -0.19 0.63 -0.44 7.13 -2.84 11.55 -4.28 14.43 -5.30 14.69 -5.24 0.14 0.04 0.95 0.32 1.81 0.64 0.86 0.32 2.86 1.06 4.44 1.64 1.59 0.57 3.41 1.24 4.06 1.48 1.88 0.70 24.19 8.85 26.79 9.79 2.34 0.84 2.34 0.84 2.34 20.69 0 10.91 -0.04 19.88 -0.10 19.91 -0.05 0.03 -4 -2.88 -8.77 -6.45z"/>
 </g>
 <g fill="#535353">
  <path d="M61.01 125.88 c-13.60 -6.75 -19.25 -10.18 -25.06 -15.16 -4.95 -4.24 -9.56 -9.76 -13.20 -15.77 -1.24 -2.06 -3.54 -6.71 -4.47 -9.09 -1.66 -4.19 -3 -8.79 -3.76 -12.99 -0.80 -4.34 -0.76 -2.67 -0.76 -29.29 0 -22.95 0.01 -24.31 0.21 -24.56 0.29 -0.34 -0.25 -0.14 18.91 -7.14 11.89 -4.34 17.10 -6.25 23.88 -8.75 3.95 -1.46 7.34 -2.70 7.51 -2.76 0.25 -0.10 0.55 -0.04 1.38 0.28 0.57 0.21 2.04 0.74 3.24 1.17 2.14 0.76 14.20 5.16 24.69 9 1.38 0.50 6.74 2.46 11.93 4.36 5.19 1.89 9.51 3.53 9.61 3.61 0.14 0.15 0.17 3.89 0.24 23.29 0.08 24.77 0.04 26.55 -0.52 29.80 -1.84 10.69 -6.03 20.51 -12.24 28.77 -3.31 4.41 -7.10 8.31 -11.45 11.80 -3.70 2.95 -7.76 5.55 -13.50 8.61 -2.14 1.15 -11.84 6.01 -12.65 6.35 -0.47 0.20 -0.47 0.20 -3.96 -1.54z m7.40 -4.89 c8.70 -4.36 14.02 -7.43 17.94 -10.31 13.06 -9.69 21.30 -23.20 24.30 -39.84 0.41 -2.28 0.41 -2.28 0.45 -25.60 0.03 -23.34 0.03 -23.34 -0.31 -23.46 -0.20 -0.06 -3.25 -1.19 -6.79 -2.50 -12.69 -4.69 -22.20 -8.18 -30.73 -11.27 -8.68 -3.15 -8.68 -3.15 -10.88 -2.33 -1.23 0.44 -7.28 2.66 -13.46 4.94 -15.89 5.81 -28.02 10.27 -29.56 10.85 -1.31 0.50 -1.31 0.50 -1.35 23.05 -0.03 24.56 -0.06 23.16 0.68 27.11 2.80 14.91 10.55 28.08 21.95 37.29 3.91 3.16 7.99 5.70 15.04 9.38 3.71 1.92 8.86 4.59 8.91 4.59 0.01 0 1.73 -0.85 3.81 -1.89z"/>
 </g>
</svg>
