<svg xmlns="http://www.w3.org/2000/svg" xmlns:xlink="http://www.w3.org/1999/xlink" width="505" viewBox="0 0 378.75 41.25" height="55" preserveAspectRatio="xMidYMid meet"><defs><g></g><clipPath id="a3263ff026"><path d="M 159.128906 2.148438 L 236.46875 2.148438 L 236.46875 37.503906 L 159.128906 37.503906 Z M 159.128906 2.148438 " clip-rule="nonzero"></path></clipPath><clipPath id="d3fdb236d8"><path d="M 176.679688 2.148438 L 219.089844 2.148438 C 223.746094 2.148438 228.210938 3.996094 231.503906 7.289062 C 234.792969 10.582031 236.644531 15.046875 236.644531 19.699219 C 236.644531 24.355469 234.792969 28.820312 231.503906 32.109375 C 228.210938 35.402344 223.746094 37.253906 219.089844 37.253906 L 176.679688 37.253906 C 172.023438 37.253906 167.558594 35.402344 164.269531 32.109375 C 160.976562 28.820312 159.128906 24.355469 159.128906 19.699219 C 159.128906 15.046875 160.976562 10.582031 164.269531 7.289062 C 167.558594 3.996094 172.023438 2.148438 176.679688 2.148438 Z M 176.679688 2.148438 " clip-rule="nonzero"></path></clipPath></defs><g clip-path="url(#a3263ff026)"><g clip-path="url(#d3fdb236d8)"><path stroke-linecap="butt" transform="matrix(0.736607, 0, 0, 0.736607, 159.12721, 2.148182)" fill="none" stroke-linejoin="miter" d="M 23.828818 0.000347122 L 81.403818 0.000347122 C 87.72503 0.000347122 93.786393 2.50868 98.256848 6.979135 C 102.721999 11.449589 105.235636 17.510953 105.235636 23.826862 C 105.235636 30.148074 102.721999 36.209438 98.256848 40.674589 C 93.786393 45.145044 87.72503 47.65868 81.403818 47.65868 L 23.828818 47.65868 C 17.507606 47.65868 11.446243 45.145044 6.981091 40.674589 C 2.510637 36.209438 0.00230335 30.148074 0.00230335 23.826862 C 0.00230335 17.510953 2.510637 11.449589 6.981091 6.979135 C 11.446243 2.50868 17.507606 0.000347122 23.828818 0.000347122 Z M 23.828818 0.000347122 " stroke="#000000" stroke-width="16" stroke-opacity="1" stroke-miterlimit="4"></path></g></g><g fill="#000000" fill-opacity="1"><g transform="translate(83.472754, 36.309676)"><g><path d="M 2.640625 -33.53125 L 2.640625 0 L 9 0 L 9 -33.53125 Z M 2.640625 -33.53125 "></path></g></g></g><g fill="#000000" fill-opacity="1"><g transform="translate(95.115444, 36.309676)"><g><path d="M 22.375 -33.53125 L 22.375 -11.78125 L 8.859375 -33.53125 L 2.640625 -33.53125 L 2.640625 0 L 9 0 L 9 -21.75 L 22.46875 0 L 28.75 0 L 28.75 -33.53125 Z M 22.375 -33.53125 "></path></g></g></g><g fill="#000000" fill-opacity="1"><g transform="translate(126.498008, 36.309676)"><g><path d="M 22.375 -33.53125 L 22.375 -11.78125 L 8.859375 -33.53125 L 2.640625 -33.53125 L 2.640625 0 L 9 0 L 9 -21.75 L 22.46875 0 L 28.75 0 L 28.75 -33.53125 Z M 22.375 -33.53125 "></path></g></g></g><g fill="#000000" fill-opacity="1"><g transform="translate(236.740817, 36.309676)"><g><path d="M 24.140625 -33.53125 L 15.859375 -9.578125 L 7.5625 -33.53125 L 0.484375 -33.53125 L 12.59375 0 L 19.109375 0 L 31.234375 -33.53125 Z M 24.140625 -33.53125 "></path></g></g></g><g fill="#000000" fill-opacity="1"><g transform="translate(268.458761, 36.309676)"><g><path d="M 19.734375 -18.59375 C 21.796875 -20.125 23.234375 -22.46875 23.234375 -24.953125 C 23.234375 -30.234375 19.359375 -33.828125 13.65625 -33.828125 C 8 -33.828125 4.078125 -30.234375 4.078125 -24.953125 C 4.078125 -22.46875 5.515625 -20.125 7.5625 -18.59375 C 4.546875 -17.390625 2.15625 -13.9375 2.15625 -10.390625 C 2.15625 -4.21875 6.421875 0.328125 13.65625 0.328125 C 20.9375 0.328125 25.15625 -4.21875 25.15625 -10.390625 C 25.15625 -13.9375 22.796875 -17.390625 19.734375 -18.59375 Z M 13.65625 -28.453125 C 16.140625 -28.453125 17.53125 -26.78125 17.53125 -24.71875 C 17.53125 -22.65625 16.09375 -20.984375 13.65625 -20.984375 C 11.203125 -20.984375 9.765625 -22.65625 9.765625 -24.71875 C 9.765625 -26.78125 11.15625 -28.453125 13.65625 -28.453125 Z M 13.65625 -5.078125 C 10.203125 -5.078125 8.28125 -7.5625 8.28125 -10.4375 C 8.28125 -13.21875 10.15625 -15.671875 13.65625 -15.671875 C 17.203125 -15.671875 19.015625 -13.21875 19.015625 -10.4375 C 19.015625 -7.5625 17.15625 -5.078125 13.65625 -5.078125 Z M 13.65625 -5.078125 "></path></g></g></g></svg>