<svg xmlns="http://www.w3.org/2000/svg" xmlns:xlink="http://www.w3.org/1999/xlink" width="500" viewBox="0 0 375 374.999991" height="500" preserveAspectRatio="xMidYMid meet"><defs><filter x="0%" y="0%" width="100%" height="100%" id="d2eda3fa7c"></filter><clipPath id="80110f2ce5"><path d="M 12.699219 20.402344 L 347 20.402344 L 347 354.902344 L 12.699219 354.902344 Z M 12.699219 20.402344 " clip-rule="nonzero"></path></clipPath><clipPath id="7e7831ebf2"><path d="M 179.355469 20.839844 C 182.082031 20.839844 184.808594 20.90625 187.53125 21.039062 C 190.257812 21.171875 192.976562 21.375 195.691406 21.640625 C 198.402344 21.910156 201.109375 22.242188 203.808594 22.644531 C 206.507812 23.042969 209.191406 23.507812 211.867188 24.042969 C 214.542969 24.574219 217.203125 25.171875 219.847656 25.832031 C 222.496094 26.496094 225.121094 27.222656 227.730469 28.015625 C 230.34375 28.808594 232.929688 29.664062 235.5 30.582031 C 238.066406 31.5 240.613281 32.480469 243.132812 33.523438 C 245.652344 34.570312 248.144531 35.671875 250.609375 36.839844 C 253.074219 38.007812 255.511719 39.230469 257.914062 40.519531 C 260.320312 41.804688 262.695312 43.148438 265.03125 44.550781 C 267.371094 45.953125 269.675781 47.410156 271.945312 48.925781 C 274.210938 50.441406 276.441406 52.011719 278.632812 53.636719 C 280.820312 55.261719 282.972656 56.9375 285.082031 58.667969 C 287.1875 60.398438 289.253906 62.179688 291.273438 64.011719 C 293.292969 65.84375 295.269531 67.722656 297.199219 69.652344 C 299.125 71.578125 301.007812 73.554688 302.839844 75.574219 C 304.671875 77.597656 306.453125 79.660156 308.179688 81.769531 C 309.910156 83.878906 311.589844 86.027344 313.214844 88.21875 C 314.839844 90.410156 316.410156 92.636719 317.925781 94.90625 C 319.4375 97.171875 320.898438 99.476562 322.300781 101.816406 C 323.703125 104.15625 325.046875 106.527344 326.332031 108.933594 C 327.617188 111.339844 328.84375 113.773438 330.011719 116.242188 C 331.175781 118.707031 332.28125 121.199219 333.324219 123.71875 C 334.367188 126.238281 335.351562 128.78125 336.269531 131.351562 C 337.1875 133.917969 338.042969 136.507812 338.835938 139.117188 C 339.625 141.726562 340.351562 144.355469 341.015625 147 C 341.679688 149.648438 342.277344 152.308594 342.808594 154.980469 C 343.339844 157.65625 343.804688 160.34375 344.207031 163.042969 C 344.605469 165.738281 344.941406 168.445312 345.207031 171.160156 C 345.476562 173.875 345.675781 176.59375 345.808594 179.316406 C 345.945312 182.042969 346.011719 184.765625 346.011719 187.496094 C 346.011719 190.222656 345.945312 192.949219 345.808594 195.671875 C 345.675781 198.398438 345.476562 201.117188 345.207031 203.832031 C 344.941406 206.542969 344.605469 209.25 344.207031 211.949219 C 343.804688 214.644531 343.339844 217.332031 342.808594 220.007812 C 342.277344 222.683594 341.679688 225.34375 341.015625 227.988281 C 340.351562 230.632812 339.625 233.261719 338.835938 235.871094 C 338.042969 238.484375 337.1875 241.070312 336.269531 243.640625 C 335.351562 246.207031 334.367188 248.75 333.324219 251.269531 C 332.28125 253.792969 331.175781 256.285156 330.011719 258.75 C 328.84375 261.214844 327.617188 263.652344 326.332031 266.054688 C 325.046875 268.460938 323.703125 270.832031 322.300781 273.171875 C 320.898438 275.511719 319.4375 277.816406 317.925781 280.085938 C 316.410156 282.351562 314.839844 284.582031 313.214844 286.773438 C 311.589844 288.960938 309.910156 291.113281 308.179688 293.21875 C 306.449219 295.328125 304.671875 297.394531 302.839844 299.414062 C 301.007812 301.433594 299.125 303.410156 297.199219 305.339844 C 295.269531 307.265625 293.292969 309.148438 291.273438 310.980469 C 289.253906 312.808594 287.1875 314.589844 285.082031 316.320312 C 282.972656 318.050781 280.820312 319.730469 278.632812 321.355469 C 276.441406 322.980469 274.210938 324.550781 271.945312 326.0625 C 269.675781 327.578125 267.371094 329.039062 265.03125 330.441406 C 262.695312 331.84375 260.320312 333.1875 257.914062 334.472656 C 255.511719 335.757812 253.074219 336.984375 250.609375 338.148438 C 248.144531 339.316406 245.652344 340.421875 243.132812 341.464844 C 240.613281 342.507812 238.066406 343.488281 235.5 344.410156 C 232.929688 345.328125 230.34375 346.183594 227.730469 346.976562 C 225.121094 347.765625 222.496094 348.492188 219.847656 349.15625 C 217.203125 349.820312 214.542969 350.417969 211.867188 350.949219 C 209.191406 351.480469 206.507812 351.945312 203.808594 352.347656 C 201.109375 352.746094 198.402344 353.082031 195.691406 353.347656 C 192.976562 353.617188 190.257812 353.816406 187.53125 353.949219 C 184.808594 354.082031 182.082031 354.152344 179.355469 354.152344 C 176.628906 354.152344 173.902344 354.082031 171.175781 353.949219 C 168.453125 353.816406 165.734375 353.617188 163.019531 353.347656 C 160.304688 353.082031 157.597656 352.746094 154.902344 352.347656 C 152.203125 351.945312 149.515625 351.480469 146.839844 350.949219 C 144.167969 350.417969 141.507812 349.820312 138.859375 349.15625 C 136.214844 348.492188 133.585938 347.765625 130.976562 346.976562 C 128.367188 346.183594 125.777344 345.328125 123.210938 344.410156 C 120.640625 343.488281 118.097656 342.507812 115.578125 341.464844 C 113.058594 340.421875 110.566406 339.316406 108.101562 338.148438 C 105.632812 336.984375 103.199219 335.757812 100.792969 334.472656 C 98.386719 333.1875 96.015625 331.84375 93.675781 330.441406 C 91.335938 329.039062 89.035156 327.578125 86.765625 326.0625 C 84.496094 324.550781 82.269531 322.980469 80.078125 321.355469 C 77.886719 319.730469 75.738281 318.050781 73.628906 316.320312 C 71.519531 314.589844 69.457031 312.808594 67.433594 310.980469 C 65.414062 309.148438 63.441406 307.265625 61.511719 305.339844 C 59.582031 303.410156 57.703125 301.433594 55.871094 299.414062 C 54.039062 297.394531 52.257812 295.328125 50.527344 293.21875 C 48.796875 291.113281 47.121094 288.960938 45.496094 286.773438 C 43.871094 284.582031 42.300781 282.351562 40.785156 280.085938 C 39.269531 277.816406 37.8125 275.511719 36.410156 273.171875 C 35.007812 270.832031 33.664062 268.460938 32.378906 266.054688 C 31.089844 263.652344 29.867188 261.214844 28.699219 258.75 C 27.535156 256.285156 26.429688 253.792969 25.386719 251.269531 C 24.339844 248.75 23.359375 246.207031 22.441406 243.640625 C 21.523438 241.070312 20.667969 238.484375 19.875 235.871094 C 19.082031 233.261719 18.355469 230.632812 17.691406 227.988281 C 17.03125 225.34375 16.433594 222.683594 15.902344 220.007812 C 15.367188 217.332031 14.902344 214.644531 14.503906 211.949219 C 14.101562 209.25 13.769531 206.542969 13.5 203.832031 C 13.234375 201.117188 13.035156 198.398438 12.898438 195.671875 C 12.765625 192.949219 12.699219 190.222656 12.699219 187.496094 C 12.699219 184.765625 12.765625 182.042969 12.898438 179.316406 C 13.035156 176.59375 13.234375 173.875 13.5 171.160156 C 13.769531 168.445312 14.101562 165.738281 14.503906 163.042969 C 14.902344 160.34375 15.367188 157.65625 15.902344 154.980469 C 16.433594 152.308594 17.03125 149.648438 17.691406 147 C 18.355469 144.355469 19.082031 141.726562 19.875 139.117188 C 20.667969 136.507812 21.523438 133.917969 22.441406 131.351562 C 23.359375 128.78125 24.339844 126.238281 25.386719 123.71875 C 26.429688 121.199219 27.535156 118.707031 28.699219 116.242188 C 29.867188 113.773438 31.089844 111.339844 32.378906 108.933594 C 33.664062 106.527344 35.007812 104.15625 36.410156 101.816406 C 37.8125 99.476562 39.269531 97.171875 40.785156 94.90625 C 42.300781 92.636719 43.871094 90.410156 45.496094 88.21875 C 47.121094 86.027344 48.796875 83.878906 50.527344 81.769531 C 52.257812 79.660156 54.039062 77.597656 55.871094 75.574219 C 57.703125 73.554688 59.582031 71.578125 61.511719 69.652344 C 63.441406 67.722656 65.414062 65.84375 67.433594 64.011719 C 69.457031 62.179688 71.519531 60.398438 73.628906 58.667969 C 75.738281 56.9375 77.886719 55.261719 80.078125 53.636719 C 82.269531 52.011719 84.496094 50.441406 86.765625 48.925781 C 89.035156 47.410156 91.335938 45.953125 93.675781 44.550781 C 96.015625 43.148438 98.386719 41.804688 100.792969 40.519531 C 103.199219 39.230469 105.632812 38.007812 108.101562 36.839844 C 110.566406 35.671875 113.058594 34.570312 115.578125 33.523438 C 118.097656 32.480469 120.640625 31.5 123.210938 30.582031 C 125.777344 29.664062 128.367188 28.808594 130.976562 28.015625 C 133.585938 27.222656 136.214844 26.496094 138.859375 25.832031 C 141.507812 25.171875 144.167969 24.574219 146.839844 24.042969 C 149.515625 23.507812 152.203125 23.042969 154.902344 22.644531 C 157.597656 22.242188 160.304688 21.910156 163.019531 21.640625 C 165.734375 21.375 168.453125 21.171875 171.175781 21.039062 C 173.902344 20.90625 176.628906 20.839844 179.355469 20.839844 Z M 179.355469 20.839844 " clip-rule="nonzero"></path></clipPath><radialGradient gradientTransform="matrix(0.478109, 0.8783, -0.8783, 0.478109, 246.048889, -38.558679)" gradientUnits="userSpaceOnUse" r="348.644091" cx="166.655875" id="7aec22fabf" cy="166.655875" fx="166.655875" fy="166.655875"><stop stop-opacity="1" stop-color="rgb(99.804688%, 47.201538%, 92.887878%)" offset="0"></stop><stop stop-opacity="1" stop-color="rgb(99.414062%, 47.409058%, 92.868042%)" offset="0.00390625"></stop><stop stop-opacity="1" stop-color="rgb(99.023438%, 47.615051%, 92.848206%)" offset="0.0078125"></stop><stop stop-opacity="1" stop-color="rgb(98.632812%, 47.822571%, 92.828369%)" offset="0.0117188"></stop><stop stop-opacity="1" stop-color="rgb(98.242188%, 48.028564%, 92.808533%)" offset="0.015625"></stop><stop stop-opacity="1" stop-color="rgb(97.851562%, 48.236084%, 92.788696%)" offset="0.0195312"></stop><stop stop-opacity="1" stop-color="rgb(97.460938%, 48.442078%, 92.76886%)" offset="0.0234375"></stop><stop stop-opacity="1" stop-color="rgb(97.070312%, 48.648071%, 92.749023%)" offset="0.0273438"></stop><stop stop-opacity="1" stop-color="rgb(96.679688%, 48.855591%, 92.729187%)" offset="0.03125"></stop><stop stop-opacity="1" stop-color="rgb(96.289062%, 49.061584%, 92.709351%)" offset="0.0351562"></stop><stop stop-opacity="1" stop-color="rgb(95.898438%, 49.269104%, 92.689514%)" offset="0.0390625"></stop><stop stop-opacity="1" stop-color="rgb(95.507812%, 49.475098%, 92.669678%)" offset="0.0429688"></stop><stop stop-opacity="1" stop-color="rgb(95.117188%, 49.681091%, 92.649841%)" offset="0.046875"></stop><stop stop-opacity="1" stop-color="rgb(94.726562%, 49.888611%, 92.630005%)" offset="0.0507812"></stop><stop stop-opacity="1" stop-color="rgb(94.335938%, 50.094604%, 92.610168%)" offset="0.0546875"></stop><stop stop-opacity="1" stop-color="rgb(93.945312%, 50.302124%, 92.590332%)" offset="0.0585938"></stop><stop stop-opacity="1" stop-color="rgb(93.554688%, 50.508118%, 92.570496%)" offset="0.0625"></stop><stop stop-opacity="1" stop-color="rgb(93.164062%, 50.715637%, 92.549133%)" offset="0.0664062"></stop><stop stop-opacity="1" stop-color="rgb(92.773438%, 50.921631%, 92.529297%)" offset="0.0703125"></stop><stop stop-opacity="1" stop-color="rgb(92.382812%, 51.127625%, 92.50946%)" offset="0.0742188"></stop><stop stop-opacity="1" stop-color="rgb(91.992188%, 51.335144%, 92.489624%)" offset="0.078125"></stop><stop stop-opacity="1" stop-color="rgb(91.601562%, 51.541138%, 92.469788%)" offset="0.0820312"></stop><stop stop-opacity="1" stop-color="rgb(91.210938%, 51.748657%, 92.449951%)" offset="0.0859375"></stop><stop stop-opacity="1" stop-color="rgb(90.820312%, 51.954651%, 92.430115%)" offset="0.0898438"></stop><stop stop-opacity="1" stop-color="rgb(90.429688%, 52.16217%, 92.410278%)" offset="0.09375"></stop><stop stop-opacity="1" stop-color="rgb(90.039062%, 52.368164%, 92.390442%)" offset="0.0976562"></stop><stop stop-opacity="1" stop-color="rgb(89.648438%, 52.574158%, 92.370605%)" offset="0.101562"></stop><stop stop-opacity="1" stop-color="rgb(89.257812%, 52.781677%, 92.350769%)" offset="0.105469"></stop><stop stop-opacity="1" stop-color="rgb(88.867188%, 52.987671%, 92.330933%)" offset="0.109375"></stop><stop stop-opacity="1" stop-color="rgb(88.476562%, 53.19519%, 92.311096%)" offset="0.113281"></stop><stop stop-opacity="1" stop-color="rgb(88.085938%, 53.401184%, 92.29126%)" offset="0.117188"></stop><stop stop-opacity="1" stop-color="rgb(87.695312%, 53.608704%, 92.271423%)" offset="0.121094"></stop><stop stop-opacity="1" stop-color="rgb(87.304688%, 53.814697%, 92.251587%)" offset="0.125"></stop><stop stop-opacity="1" stop-color="rgb(86.914062%, 54.020691%, 92.23175%)" offset="0.128906"></stop><stop stop-opacity="1" stop-color="rgb(86.523438%, 54.22821%, 92.211914%)" offset="0.132812"></stop><stop stop-opacity="1" stop-color="rgb(86.132812%, 54.434204%, 92.190552%)" offset="0.136719"></stop><stop stop-opacity="1" stop-color="rgb(85.742188%, 54.641724%, 92.170715%)" offset="0.140625"></stop><stop stop-opacity="1" stop-color="rgb(85.351562%, 54.847717%, 92.150879%)" offset="0.144531"></stop><stop stop-opacity="1" stop-color="rgb(84.960938%, 55.053711%, 92.131042%)" offset="0.148438"></stop><stop stop-opacity="1" stop-color="rgb(84.570312%, 55.26123%, 92.111206%)" offset="0.152344"></stop><stop stop-opacity="1" stop-color="rgb(84.179688%, 55.467224%, 92.09137%)" offset="0.15625"></stop><stop stop-opacity="1" stop-color="rgb(83.789062%, 55.674744%, 92.071533%)" offset="0.160156"></stop><stop stop-opacity="1" stop-color="rgb(83.398438%, 55.880737%, 92.051697%)" offset="0.164062"></stop><stop stop-opacity="1" stop-color="rgb(83.007812%, 56.088257%, 92.03186%)" offset="0.167969"></stop><stop stop-opacity="1" stop-color="rgb(82.617188%, 56.29425%, 92.012024%)" offset="0.171875"></stop><stop stop-opacity="1" stop-color="rgb(82.226562%, 56.500244%, 91.992188%)" offset="0.175781"></stop><stop stop-opacity="1" stop-color="rgb(81.835938%, 56.707764%, 91.972351%)" offset="0.179688"></stop><stop stop-opacity="1" stop-color="rgb(81.445312%, 56.913757%, 91.952515%)" offset="0.183594"></stop><stop stop-opacity="1" stop-color="rgb(81.054688%, 57.121277%, 91.932678%)" offset="0.1875"></stop><stop stop-opacity="1" stop-color="rgb(80.664062%, 57.327271%, 91.912842%)" offset="0.191406"></stop><stop stop-opacity="1" stop-color="rgb(80.273438%, 57.53479%, 91.893005%)" offset="0.195312"></stop><stop stop-opacity="1" stop-color="rgb(79.882812%, 57.740784%, 91.873169%)" offset="0.199219"></stop><stop stop-opacity="1" stop-color="rgb(79.492188%, 57.946777%, 91.853333%)" offset="0.203125"></stop><stop stop-opacity="1" stop-color="rgb(79.101562%, 58.154297%, 91.83197%)" offset="0.207031"></stop><stop stop-opacity="1" stop-color="rgb(78.710938%, 58.360291%, 91.812134%)" offset="0.210938"></stop><stop stop-opacity="1" stop-color="rgb(78.320312%, 58.56781%, 91.792297%)" offset="0.214844"></stop><stop stop-opacity="1" stop-color="rgb(77.929688%, 58.773804%, 91.772461%)" offset="0.21875"></stop><stop stop-opacity="1" stop-color="rgb(77.539062%, 58.981323%, 91.752625%)" offset="0.222656"></stop><stop stop-opacity="1" stop-color="rgb(77.148438%, 59.187317%, 91.732788%)" offset="0.226562"></stop><stop stop-opacity="1" stop-color="rgb(76.757812%, 59.393311%, 91.712952%)" offset="0.230469"></stop><stop stop-opacity="1" stop-color="rgb(76.367188%, 59.60083%, 91.693115%)" offset="0.234375"></stop><stop stop-opacity="1" stop-color="rgb(75.976562%, 59.806824%, 91.673279%)" offset="0.238281"></stop><stop stop-opacity="1" stop-color="rgb(75.585938%, 60.014343%, 91.653442%)" offset="0.242188"></stop><stop stop-opacity="1" stop-color="rgb(75.195312%, 60.220337%, 91.633606%)" offset="0.246094"></stop><stop stop-opacity="1" stop-color="rgb(74.804688%, 60.427856%, 91.61377%)" offset="0.25"></stop><stop stop-opacity="1" stop-color="rgb(74.414062%, 60.63385%, 91.593933%)" offset="0.253906"></stop><stop stop-opacity="1" stop-color="rgb(74.023438%, 60.839844%, 91.574097%)" offset="0.257812"></stop><stop stop-opacity="1" stop-color="rgb(73.632812%, 61.047363%, 91.55426%)" offset="0.261719"></stop><stop stop-opacity="1" stop-color="rgb(73.242188%, 61.253357%, 91.534424%)" offset="0.265625"></stop><stop stop-opacity="1" stop-color="rgb(72.851562%, 61.460876%, 91.514587%)" offset="0.269531"></stop><stop stop-opacity="1" stop-color="rgb(72.460938%, 61.66687%, 91.494751%)" offset="0.273438"></stop><stop stop-opacity="1" stop-color="rgb(72.070312%, 61.872864%, 91.473389%)" offset="0.277344"></stop><stop stop-opacity="1" stop-color="rgb(71.679688%, 62.080383%, 91.453552%)" offset="0.28125"></stop><stop stop-opacity="1" stop-color="rgb(71.289062%, 62.286377%, 91.433716%)" offset="0.285156"></stop><stop stop-opacity="1" stop-color="rgb(70.898438%, 62.493896%, 91.413879%)" offset="0.289062"></stop><stop stop-opacity="1" stop-color="rgb(70.507812%, 62.69989%, 91.394043%)" offset="0.292969"></stop><stop stop-opacity="1" stop-color="rgb(70.117188%, 62.90741%, 91.374207%)" offset="0.296875"></stop><stop stop-opacity="1" stop-color="rgb(69.726562%, 63.113403%, 91.35437%)" offset="0.300781"></stop><stop stop-opacity="1" stop-color="rgb(69.335938%, 63.319397%, 91.334534%)" offset="0.304688"></stop><stop stop-opacity="1" stop-color="rgb(68.945312%, 63.526917%, 91.314697%)" offset="0.308594"></stop><stop stop-opacity="1" stop-color="rgb(68.554688%, 63.73291%, 91.294861%)" offset="0.3125"></stop><stop stop-opacity="1" stop-color="rgb(68.164062%, 63.94043%, 91.275024%)" offset="0.316406"></stop><stop stop-opacity="1" stop-color="rgb(67.773438%, 64.146423%, 91.255188%)" offset="0.320312"></stop><stop stop-opacity="1" stop-color="rgb(67.382812%, 64.353943%, 91.235352%)" offset="0.324219"></stop><stop stop-opacity="1" stop-color="rgb(66.992188%, 64.559937%, 91.215515%)" offset="0.328125"></stop><stop stop-opacity="1" stop-color="rgb(66.601562%, 64.76593%, 91.195679%)" offset="0.332031"></stop><stop stop-opacity="1" stop-color="rgb(66.210938%, 64.97345%, 91.175842%)" offset="0.335938"></stop><stop stop-opacity="1" stop-color="rgb(65.820312%, 65.179443%, 91.156006%)" offset="0.339844"></stop><stop stop-opacity="1" stop-color="rgb(65.429688%, 65.386963%, 91.136169%)" offset="0.34375"></stop><stop stop-opacity="1" stop-color="rgb(65.039062%, 65.592957%, 91.114807%)" offset="0.347656"></stop><stop stop-opacity="1" stop-color="rgb(64.648438%, 65.800476%, 91.094971%)" offset="0.351562"></stop><stop stop-opacity="1" stop-color="rgb(64.257812%, 66.00647%, 91.075134%)" offset="0.355469"></stop><stop stop-opacity="1" stop-color="rgb(63.867188%, 66.212463%, 91.055298%)" offset="0.359375"></stop><stop stop-opacity="1" stop-color="rgb(63.476562%, 66.419983%, 91.035461%)" offset="0.363281"></stop><stop stop-opacity="1" stop-color="rgb(63.085938%, 66.625977%, 91.015625%)" offset="0.367188"></stop><stop stop-opacity="1" stop-color="rgb(62.695312%, 66.833496%, 90.995789%)" offset="0.371094"></stop><stop stop-opacity="1" stop-color="rgb(62.304688%, 67.03949%, 90.975952%)" offset="0.375"></stop><stop stop-opacity="1" stop-color="rgb(61.914062%, 67.247009%, 90.956116%)" offset="0.378906"></stop><stop stop-opacity="1" stop-color="rgb(61.523438%, 67.453003%, 90.936279%)" offset="0.382812"></stop><stop stop-opacity="1" stop-color="rgb(61.132812%, 67.658997%, 90.916443%)" offset="0.386719"></stop><stop stop-opacity="1" stop-color="rgb(60.742188%, 67.866516%, 90.896606%)" offset="0.390625"></stop><stop stop-opacity="1" stop-color="rgb(60.351562%, 68.07251%, 90.87677%)" offset="0.394531"></stop><stop stop-opacity="1" stop-color="rgb(59.960938%, 68.280029%, 90.856934%)" offset="0.398438"></stop><stop stop-opacity="1" stop-color="rgb(59.570312%, 68.486023%, 90.837097%)" offset="0.402344"></stop><stop stop-opacity="1" stop-color="rgb(59.179688%, 68.692017%, 90.817261%)" offset="0.40625"></stop><stop stop-opacity="1" stop-color="rgb(58.789062%, 68.899536%, 90.797424%)" offset="0.410156"></stop><stop stop-opacity="1" stop-color="rgb(58.398438%, 69.10553%, 90.777588%)" offset="0.414062"></stop><stop stop-opacity="1" stop-color="rgb(58.007812%, 69.313049%, 90.756226%)" offset="0.417969"></stop><stop stop-opacity="1" stop-color="rgb(57.617188%, 69.519043%, 90.736389%)" offset="0.421875"></stop><stop stop-opacity="1" stop-color="rgb(57.226562%, 69.726562%, 90.716553%)" offset="0.425781"></stop><stop stop-opacity="1" stop-color="rgb(56.835938%, 69.932556%, 90.696716%)" offset="0.429688"></stop><stop stop-opacity="1" stop-color="rgb(56.445312%, 70.13855%, 90.67688%)" offset="0.433594"></stop><stop stop-opacity="1" stop-color="rgb(56.054688%, 70.346069%, 90.657043%)" offset="0.4375"></stop><stop stop-opacity="1" stop-color="rgb(55.664062%, 70.552063%, 90.637207%)" offset="0.441406"></stop><stop stop-opacity="1" stop-color="rgb(55.273438%, 70.759583%, 90.617371%)" offset="0.445312"></stop><stop stop-opacity="1" stop-color="rgb(54.882812%, 70.965576%, 90.597534%)" offset="0.449219"></stop><stop stop-opacity="1" stop-color="rgb(54.492188%, 71.173096%, 90.577698%)" offset="0.453125"></stop><stop stop-opacity="1" stop-color="rgb(54.101562%, 71.379089%, 90.557861%)" offset="0.457031"></stop><stop stop-opacity="1" stop-color="rgb(53.710938%, 71.585083%, 90.538025%)" offset="0.460938"></stop><stop stop-opacity="1" stop-color="rgb(53.320312%, 71.792603%, 90.518188%)" offset="0.464844"></stop><stop stop-opacity="1" stop-color="rgb(52.929688%, 71.998596%, 90.498352%)" offset="0.46875"></stop><stop stop-opacity="1" stop-color="rgb(52.539062%, 72.206116%, 90.478516%)" offset="0.472656"></stop><stop stop-opacity="1" stop-color="rgb(52.148438%, 72.412109%, 90.458679%)" offset="0.476562"></stop><stop stop-opacity="1" stop-color="rgb(51.757812%, 72.619629%, 90.438843%)" offset="0.480469"></stop><stop stop-opacity="1" stop-color="rgb(51.367188%, 72.825623%, 90.419006%)" offset="0.484375"></stop><stop stop-opacity="1" stop-color="rgb(50.976562%, 73.031616%, 90.397644%)" offset="0.488281"></stop><stop stop-opacity="1" stop-color="rgb(50.585938%, 73.239136%, 90.377808%)" offset="0.492188"></stop><stop stop-opacity="1" stop-color="rgb(50.195312%, 73.445129%, 90.357971%)" offset="0.496094"></stop><stop stop-opacity="1" stop-color="rgb(49.804688%, 73.652649%, 90.338135%)" offset="0.5"></stop><stop stop-opacity="1" stop-color="rgb(49.414062%, 73.858643%, 90.318298%)" offset="0.503906"></stop><stop stop-opacity="1" stop-color="rgb(49.023438%, 74.066162%, 90.298462%)" offset="0.507812"></stop><stop stop-opacity="1" stop-color="rgb(48.632812%, 74.272156%, 90.278625%)" offset="0.511719"></stop><stop stop-opacity="1" stop-color="rgb(48.242188%, 74.478149%, 90.258789%)" offset="0.515625"></stop><stop stop-opacity="1" stop-color="rgb(47.851562%, 74.685669%, 90.238953%)" offset="0.519531"></stop><stop stop-opacity="1" stop-color="rgb(47.460938%, 74.891663%, 90.219116%)" offset="0.523438"></stop><stop stop-opacity="1" stop-color="rgb(47.070312%, 75.099182%, 90.19928%)" offset="0.527344"></stop><stop stop-opacity="1" stop-color="rgb(46.679688%, 75.305176%, 90.179443%)" offset="0.53125"></stop><stop stop-opacity="1" stop-color="rgb(46.289062%, 75.511169%, 90.159607%)" offset="0.535156"></stop><stop stop-opacity="1" stop-color="rgb(45.898438%, 75.718689%, 90.139771%)" offset="0.539062"></stop><stop stop-opacity="1" stop-color="rgb(45.507812%, 75.924683%, 90.119934%)" offset="0.542969"></stop><stop stop-opacity="1" stop-color="rgb(45.117188%, 76.132202%, 90.100098%)" offset="0.546875"></stop><stop stop-opacity="1" stop-color="rgb(44.726562%, 76.338196%, 90.080261%)" offset="0.550781"></stop><stop stop-opacity="1" stop-color="rgb(44.335938%, 76.545715%, 90.058899%)" offset="0.554688"></stop><stop stop-opacity="1" stop-color="rgb(43.945312%, 76.751709%, 90.039062%)" offset="0.558594"></stop><stop stop-opacity="1" stop-color="rgb(43.554688%, 76.957703%, 90.019226%)" offset="0.5625"></stop><stop stop-opacity="1" stop-color="rgb(43.164062%, 77.165222%, 89.99939%)" offset="0.566406"></stop><stop stop-opacity="1" stop-color="rgb(42.773438%, 77.371216%, 89.979553%)" offset="0.570312"></stop><stop stop-opacity="1" stop-color="rgb(42.382812%, 77.578735%, 89.959717%)" offset="0.574219"></stop><stop stop-opacity="1" stop-color="rgb(41.992188%, 77.784729%, 89.93988%)" offset="0.578125"></stop><stop stop-opacity="1" stop-color="rgb(41.601562%, 77.992249%, 89.920044%)" offset="0.582031"></stop><stop stop-opacity="1" stop-color="rgb(41.210938%, 78.198242%, 89.900208%)" offset="0.585938"></stop><stop stop-opacity="1" stop-color="rgb(40.820312%, 78.404236%, 89.880371%)" offset="0.589844"></stop><stop stop-opacity="1" stop-color="rgb(40.429688%, 78.611755%, 89.860535%)" offset="0.59375"></stop><stop stop-opacity="1" stop-color="rgb(40.039062%, 78.817749%, 89.840698%)" offset="0.597656"></stop><stop stop-opacity="1" stop-color="rgb(39.648438%, 79.025269%, 89.820862%)" offset="0.601562"></stop><stop stop-opacity="1" stop-color="rgb(39.257812%, 79.231262%, 89.801025%)" offset="0.605469"></stop><stop stop-opacity="1" stop-color="rgb(38.867188%, 79.438782%, 89.781189%)" offset="0.609375"></stop><stop stop-opacity="1" stop-color="rgb(38.476562%, 79.644775%, 89.761353%)" offset="0.613281"></stop><stop stop-opacity="1" stop-color="rgb(38.085938%, 79.850769%, 89.741516%)" offset="0.617188"></stop><stop stop-opacity="1" stop-color="rgb(37.695312%, 80.058289%, 89.72168%)" offset="0.621094"></stop><stop stop-opacity="1" stop-color="rgb(37.304688%, 80.264282%, 89.700317%)" offset="0.625"></stop><stop stop-opacity="1" stop-color="rgb(36.914062%, 80.471802%, 89.680481%)" offset="0.628906"></stop><stop stop-opacity="1" stop-color="rgb(36.523438%, 80.677795%, 89.660645%)" offset="0.632812"></stop><stop stop-opacity="1" stop-color="rgb(36.132812%, 80.883789%, 89.640808%)" offset="0.636719"></stop><stop stop-opacity="1" stop-color="rgb(35.742188%, 81.091309%, 89.620972%)" offset="0.640625"></stop><stop stop-opacity="1" stop-color="rgb(35.351562%, 81.297302%, 89.601135%)" offset="0.644531"></stop><stop stop-opacity="1" stop-color="rgb(34.960938%, 81.504822%, 89.581299%)" offset="0.648438"></stop><stop stop-opacity="1" stop-color="rgb(34.570312%, 81.710815%, 89.561462%)" offset="0.652344"></stop><stop stop-opacity="1" stop-color="rgb(34.179688%, 81.918335%, 89.541626%)" offset="0.65625"></stop><stop stop-opacity="1" stop-color="rgb(33.789062%, 82.124329%, 89.52179%)" offset="0.660156"></stop><stop stop-opacity="1" stop-color="rgb(33.398438%, 82.330322%, 89.501953%)" offset="0.664062"></stop><stop stop-opacity="1" stop-color="rgb(33.007812%, 82.537842%, 89.482117%)" offset="0.667969"></stop><stop stop-opacity="1" stop-color="rgb(32.617188%, 82.743835%, 89.46228%)" offset="0.671875"></stop><stop stop-opacity="1" stop-color="rgb(32.226562%, 82.951355%, 89.442444%)" offset="0.675781"></stop><stop stop-opacity="1" stop-color="rgb(31.835938%, 83.157349%, 89.422607%)" offset="0.679688"></stop><stop stop-opacity="1" stop-color="rgb(31.445312%, 83.364868%, 89.402771%)" offset="0.683594"></stop><stop stop-opacity="1" stop-color="rgb(31.054688%, 83.570862%, 89.382935%)" offset="0.6875"></stop><stop stop-opacity="1" stop-color="rgb(30.664062%, 83.776855%, 89.363098%)" offset="0.691406"></stop><stop stop-opacity="1" stop-color="rgb(30.273438%, 83.984375%, 89.341736%)" offset="0.695312"></stop><stop stop-opacity="1" stop-color="rgb(29.882812%, 84.190369%, 89.321899%)" offset="0.699219"></stop><stop stop-opacity="1" stop-color="rgb(29.492188%, 84.397888%, 89.302063%)" offset="0.703125"></stop><stop stop-opacity="1" stop-color="rgb(29.101562%, 84.603882%, 89.282227%)" offset="0.707031"></stop><stop stop-opacity="1" stop-color="rgb(28.710938%, 84.811401%, 89.26239%)" offset="0.710938"></stop><stop stop-opacity="1" stop-color="rgb(28.320312%, 85.017395%, 89.242554%)" offset="0.714844"></stop><stop stop-opacity="1" stop-color="rgb(27.929688%, 85.223389%, 89.222717%)" offset="0.71875"></stop><stop stop-opacity="1" stop-color="rgb(27.539062%, 85.430908%, 89.202881%)" offset="0.722656"></stop><stop stop-opacity="1" stop-color="rgb(27.148438%, 85.636902%, 89.183044%)" offset="0.726562"></stop><stop stop-opacity="1" stop-color="rgb(26.757812%, 85.844421%, 89.163208%)" offset="0.730469"></stop><stop stop-opacity="1" stop-color="rgb(26.367188%, 86.050415%, 89.143372%)" offset="0.734375"></stop><stop stop-opacity="1" stop-color="rgb(25.976562%, 86.257935%, 89.123535%)" offset="0.738281"></stop><stop stop-opacity="1" stop-color="rgb(25.585938%, 86.463928%, 89.103699%)" offset="0.742188"></stop><stop stop-opacity="1" stop-color="rgb(25.195312%, 86.669922%, 89.083862%)" offset="0.746094"></stop><stop stop-opacity="1" stop-color="rgb(24.804688%, 86.877441%, 89.064026%)" offset="0.75"></stop><stop stop-opacity="1" stop-color="rgb(24.414062%, 87.083435%, 89.044189%)" offset="0.753906"></stop><stop stop-opacity="1" stop-color="rgb(24.023438%, 87.290955%, 89.024353%)" offset="0.757812"></stop><stop stop-opacity="1" stop-color="rgb(23.632812%, 87.496948%, 89.004517%)" offset="0.761719"></stop><stop stop-opacity="1" stop-color="rgb(23.242188%, 87.702942%, 88.983154%)" offset="0.765625"></stop><stop stop-opacity="1" stop-color="rgb(22.851562%, 87.910461%, 88.963318%)" offset="0.769531"></stop><stop stop-opacity="1" stop-color="rgb(22.460938%, 88.116455%, 88.943481%)" offset="0.773438"></stop><stop stop-opacity="1" stop-color="rgb(22.070312%, 88.323975%, 88.923645%)" offset="0.777344"></stop><stop stop-opacity="1" stop-color="rgb(21.679688%, 88.529968%, 88.903809%)" offset="0.78125"></stop><stop stop-opacity="1" stop-color="rgb(21.289062%, 88.737488%, 88.883972%)" offset="0.785156"></stop><stop stop-opacity="1" stop-color="rgb(20.898438%, 88.943481%, 88.864136%)" offset="0.789062"></stop><stop stop-opacity="1" stop-color="rgb(20.507812%, 89.149475%, 88.844299%)" offset="0.792969"></stop><stop stop-opacity="1" stop-color="rgb(20.117188%, 89.356995%, 88.824463%)" offset="0.796875"></stop><stop stop-opacity="1" stop-color="rgb(19.726562%, 89.562988%, 88.804626%)" offset="0.800781"></stop><stop stop-opacity="1" stop-color="rgb(19.335938%, 89.770508%, 88.78479%)" offset="0.804688"></stop><stop stop-opacity="1" stop-color="rgb(18.945312%, 89.976501%, 88.764954%)" offset="0.808594"></stop><stop stop-opacity="1" stop-color="rgb(18.554688%, 90.184021%, 88.745117%)" offset="0.8125"></stop><stop stop-opacity="1" stop-color="rgb(18.164062%, 90.390015%, 88.725281%)" offset="0.816406"></stop><stop stop-opacity="1" stop-color="rgb(17.773438%, 90.596008%, 88.705444%)" offset="0.820312"></stop><stop stop-opacity="1" stop-color="rgb(17.382812%, 90.803528%, 88.685608%)" offset="0.824219"></stop><stop stop-opacity="1" stop-color="rgb(16.992188%, 91.009521%, 88.665771%)" offset="0.828125"></stop><stop stop-opacity="1" stop-color="rgb(16.601562%, 91.217041%, 88.645935%)" offset="0.832031"></stop><stop stop-opacity="1" stop-color="rgb(16.210938%, 91.423035%, 88.624573%)" offset="0.835938"></stop><stop stop-opacity="1" stop-color="rgb(15.820312%, 91.630554%, 88.604736%)" offset="0.839844"></stop><stop stop-opacity="1" stop-color="rgb(15.429688%, 91.836548%, 88.5849%)" offset="0.84375"></stop><stop stop-opacity="1" stop-color="rgb(15.039062%, 92.042542%, 88.565063%)" offset="0.847656"></stop><stop stop-opacity="1" stop-color="rgb(14.648438%, 92.250061%, 88.545227%)" offset="0.851562"></stop><stop stop-opacity="1" stop-color="rgb(14.257812%, 92.456055%, 88.525391%)" offset="0.855469"></stop><stop stop-opacity="1" stop-color="rgb(13.867188%, 92.663574%, 88.505554%)" offset="0.859375"></stop><stop stop-opacity="1" stop-color="rgb(13.476562%, 92.869568%, 88.485718%)" offset="0.863281"></stop><stop stop-opacity="1" stop-color="rgb(13.085938%, 93.077087%, 88.465881%)" offset="0.867188"></stop><stop stop-opacity="1" stop-color="rgb(12.695312%, 93.283081%, 88.446045%)" offset="0.871094"></stop><stop stop-opacity="1" stop-color="rgb(12.304688%, 93.489075%, 88.426208%)" offset="0.875"></stop><stop stop-opacity="1" stop-color="rgb(11.914062%, 93.696594%, 88.406372%)" offset="0.878906"></stop><stop stop-opacity="1" stop-color="rgb(11.523438%, 93.902588%, 88.386536%)" offset="0.882812"></stop><stop stop-opacity="1" stop-color="rgb(11.132812%, 94.110107%, 88.366699%)" offset="0.886719"></stop><stop stop-opacity="1" stop-color="rgb(10.742188%, 94.316101%, 88.346863%)" offset="0.890625"></stop><stop stop-opacity="1" stop-color="rgb(10.351562%, 94.522095%, 88.327026%)" offset="0.894531"></stop><stop stop-opacity="1" stop-color="rgb(9.960938%, 94.729614%, 88.30719%)" offset="0.898438"></stop><stop stop-opacity="1" stop-color="rgb(9.570312%, 94.935608%, 88.287354%)" offset="0.902344"></stop><stop stop-opacity="1" stop-color="rgb(9.179688%, 95.143127%, 88.265991%)" offset="0.90625"></stop><stop stop-opacity="1" stop-color="rgb(8.789062%, 95.349121%, 88.246155%)" offset="0.910156"></stop><stop stop-opacity="1" stop-color="rgb(8.398438%, 95.556641%, 88.226318%)" offset="0.914062"></stop><stop stop-opacity="1" stop-color="rgb(8.007812%, 95.762634%, 88.206482%)" offset="0.917969"></stop><stop stop-opacity="1" stop-color="rgb(7.617188%, 95.968628%, 88.186646%)" offset="0.921875"></stop><stop stop-opacity="1" stop-color="rgb(7.226562%, 96.176147%, 88.166809%)" offset="0.925781"></stop><stop stop-opacity="1" stop-color="rgb(6.835938%, 96.382141%, 88.146973%)" offset="0.929688"></stop><stop stop-opacity="1" stop-color="rgb(6.445312%, 96.589661%, 88.127136%)" offset="0.933594"></stop><stop stop-opacity="1" stop-color="rgb(6.054688%, 96.795654%, 88.1073%)" offset="0.9375"></stop><stop stop-opacity="1" stop-color="rgb(5.664062%, 97.003174%, 88.087463%)" offset="0.941406"></stop><stop stop-opacity="1" stop-color="rgb(5.273438%, 97.209167%, 88.067627%)" offset="0.945312"></stop><stop stop-opacity="1" stop-color="rgb(4.882812%, 97.415161%, 88.047791%)" offset="0.949219"></stop><stop stop-opacity="1" stop-color="rgb(4.492188%, 97.622681%, 88.027954%)" offset="0.953125"></stop><stop stop-opacity="1" stop-color="rgb(4.101562%, 97.828674%, 88.008118%)" offset="0.957031"></stop><stop stop-opacity="1" stop-color="rgb(3.710938%, 98.036194%, 87.988281%)" offset="0.960938"></stop><stop stop-opacity="1" stop-color="rgb(3.320312%, 98.242188%, 87.968445%)" offset="0.964844"></stop><stop stop-opacity="1" stop-color="rgb(2.929688%, 98.449707%, 87.948608%)" offset="0.96875"></stop><stop stop-opacity="1" stop-color="rgb(2.539062%, 98.655701%, 87.928772%)" offset="0.972656"></stop><stop stop-opacity="1" stop-color="rgb(2.148438%, 98.861694%, 87.90741%)" offset="0.976562"></stop><stop stop-opacity="1" stop-color="rgb(1.757812%, 99.069214%, 87.887573%)" offset="0.980469"></stop><stop stop-opacity="1" stop-color="rgb(1.367188%, 99.275208%, 87.867737%)" offset="0.984375"></stop><stop stop-opacity="1" stop-color="rgb(0.976562%, 99.482727%, 87.8479%)" offset="0.988281"></stop><stop stop-opacity="1" stop-color="rgb(0.585938%, 99.688721%, 87.828064%)" offset="0.992188"></stop><stop stop-opacity="1" stop-color="rgb(0.195312%, 99.89624%, 87.808228%)" offset="0.996094"></stop><stop stop-opacity="1" stop-color="rgb(0%, 100%, 87.799072%)" offset="1"></stop></radialGradient><mask id="8d33182c4d"><g filter="url(#d2eda3fa7c)"><rect x="-37.5" width="450" fill="#000000" y="-37.499999" height="449.999989" fill-opacity="0.696"></rect></g></mask><clipPath id="592fd5b36d"><rect x="0" width="189" y="0" height="144"></rect></clipPath></defs><g clip-path="url(#80110f2ce5)"><g clip-path="url(#7e7831ebf2)"><path fill="url(#7aec22fabf)" d="M 269.820312 -119.125 L -127.265625 97.03125 L 88.890625 494.117188 L 485.976562 277.960938 Z M 269.820312 -119.125 " fill-rule="nonzero"></path></g></g><path fill="#ffffff" d="M 154.402344 204.132812 C 153.84375 205.167969 153.203125 206.148438 152.480469 207.074219 C 151.757812 208 150.960938 208.859375 150.09375 209.652344 C 149.226562 210.441406 148.296875 211.15625 147.308594 211.789062 C 146.320312 212.421875 145.285156 212.96875 144.203125 213.429688 C 143.121094 213.886719 142.007812 214.253906 140.863281 214.523438 C 139.722656 214.792969 138.5625 214.96875 137.390625 215.042969 C 136.21875 215.117188 135.050781 215.09375 133.878906 214.96875 C 132.710938 214.847656 131.5625 214.625 130.429688 214.308594 L 63.800781 195.632812 C 62.765625 195.34375 61.761719 194.976562 60.785156 194.53125 C 59.808594 194.089844 58.871094 193.570312 57.976562 192.980469 C 57.078125 192.394531 56.234375 191.738281 55.4375 191.019531 C 54.644531 190.296875 53.90625 189.519531 53.230469 188.6875 C 52.554688 187.855469 51.949219 186.972656 51.410156 186.046875 C 50.871094 185.117188 50.40625 184.15625 50.015625 183.15625 C 49.625 182.15625 49.3125 181.132812 49.082031 180.085938 C 48.847656 179.039062 48.699219 177.980469 48.628906 176.910156 C 48.558594 175.839844 48.574219 174.769531 48.671875 173.699219 C 48.765625 172.632812 48.945312 171.578125 49.203125 170.535156 C 49.464844 169.496094 49.800781 168.480469 50.21875 167.492188 C 50.632812 166.503906 51.125 165.550781 51.6875 164.640625 C 52.25 163.726562 52.878906 162.863281 53.574219 162.046875 C 54.273438 161.230469 55.027344 160.472656 55.839844 159.773438 C 56.65625 159.074219 57.519531 158.441406 58.429688 157.875 C 59.339844 157.308594 60.289062 156.816406 61.277344 156.398438 L 160.792969 114.15625 C 161.777344 113.738281 162.792969 113.398438 163.832031 113.136719 C 164.871094 112.875 165.925781 112.695312 166.996094 112.59375 C 168.0625 112.496094 169.132812 112.480469 170.203125 112.542969 C 171.273438 112.609375 172.332031 112.757812 173.378906 112.988281 C 174.429688 113.21875 175.453125 113.527344 176.453125 113.914062 C 177.453125 114.300781 178.417969 114.765625 179.34375 115.300781 C 180.273438 115.835938 181.15625 116.441406 181.992188 117.117188 C 182.824219 117.789062 183.605469 118.519531 184.328125 119.316406 C 185.046875 120.109375 185.707031 120.953125 186.296875 121.847656 C 186.890625 122.742188 187.40625 123.675781 187.855469 124.652344 C 188.300781 125.625 188.671875 126.628906 188.964844 127.660156 C 189.257812 128.691406 189.46875 129.742188 189.597656 130.804688 C 189.730469 131.871094 189.777344 132.9375 189.742188 134.011719 C 189.707031 135.082031 189.589844 136.144531 189.390625 137.199219 C 189.191406 138.253906 188.914062 139.285156 188.554688 140.296875 C 188.195312 141.308594 187.761719 142.285156 187.253906 143.230469 Z M 154.402344 204.132812 " fill-opacity="1" fill-rule="nonzero"></path><g mask="url(#8d33182c4d)"><g transform="matrix(1, 0, 0, 1, 136, 126)"><g clip-path="url(#592fd5b36d)"><path fill="#ffffff" d="M 69.3125 42.570312 C 69.941406 41.578125 70.648438 40.644531 71.433594 39.773438 C 72.222656 38.898438 73.074219 38.097656 73.996094 37.367188 C 74.917969 36.640625 75.894531 35.992188 76.925781 35.429688 C 77.957031 34.867188 79.027344 34.394531 80.136719 34.011719 C 81.246094 33.628906 82.382812 33.34375 83.542969 33.152344 C 84.703125 32.960938 85.867188 32.871094 87.042969 32.875 C 88.21875 32.882812 89.382812 32.988281 90.542969 33.195312 C 91.699219 33.398438 92.828125 33.699219 93.9375 34.09375 L 159.101562 57.371094 C 160.113281 57.730469 161.089844 58.167969 162.03125 58.679688 C 162.976562 59.191406 163.875 59.773438 164.726562 60.421875 C 165.582031 61.074219 166.378906 61.785156 167.121094 62.558594 C 167.863281 63.332031 168.542969 64.160156 169.160156 65.039062 C 169.777344 65.917969 170.320312 66.835938 170.792969 67.800781 C 171.265625 68.761719 171.664062 69.757812 171.984375 70.78125 C 172.304688 71.804688 172.542969 72.847656 172.699219 73.90625 C 172.859375 74.96875 172.9375 76.035156 172.929688 77.109375 C 172.925781 78.179688 172.835938 79.246094 172.664062 80.304688 C 172.496094 81.367188 172.242188 82.40625 171.910156 83.425781 C 171.582031 84.445312 171.171875 85.433594 170.6875 86.390625 C 170.203125 87.347656 169.648438 88.265625 169.023438 89.136719 C 168.398438 90.007812 167.710938 90.824219 166.957031 91.589844 C 166.207031 92.355469 165.398438 93.058594 164.539062 93.699219 C 163.679688 94.339844 162.773438 94.910156 161.824219 95.414062 C 160.878906 95.914062 159.894531 96.339844 158.882812 96.6875 L 56.664062 131.882812 C 55.648438 132.234375 54.613281 132.5 53.558594 132.691406 C 52.503906 132.878906 51.4375 132.984375 50.367188 133.011719 C 49.292969 133.035156 48.226562 132.976562 47.164062 132.835938 C 46.097656 132.695312 45.054688 132.472656 44.023438 132.171875 C 42.996094 131.871094 41.996094 131.492188 41.023438 131.035156 C 40.054688 130.578125 39.125 130.046875 38.234375 129.449219 C 37.347656 128.847656 36.507812 128.183594 35.722656 127.453125 C 34.9375 126.722656 34.210938 125.9375 33.546875 125.097656 C 32.878906 124.253906 32.285156 123.367188 31.757812 122.433594 C 31.226562 121.5 30.777344 120.53125 30.398438 119.527344 C 30.019531 118.523438 29.71875 117.496094 29.5 116.445312 C 29.28125 115.398438 29.144531 114.335938 29.089844 113.265625 C 29.03125 112.195312 29.058594 111.125 29.167969 110.058594 C 29.277344 108.992188 29.46875 107.9375 29.742188 106.902344 C 30.011719 105.863281 30.363281 104.855469 30.789062 103.871094 C 31.21875 102.886719 31.71875 101.941406 32.292969 101.035156 Z M 69.3125 42.570312 " fill-opacity="1" fill-rule="nonzero"></path></g></g></g></svg>