<svg xmlns="http://www.w3.org/2000/svg" width="27.435" height="32.77" viewBox="0 0 27.435 32.77"><path d="M2264.9,3864.935a1.872,1.872,0,0,1-1.383.969H2239.9a1.869,1.869,0,0,1-1.385-.969c-1.349-2.566.236-3.989,1.087-4.754a3.907,3.907,0,0,0,.838-.915c.015-.023.023-.041.033-.057.608-1,.83-3.413.961-4.856.02-.214.038-.418.057-.611,0-.016,0-.034.006-.052a17.656,17.656,0,0,1,2.864-7.749,9.087,9.087,0,0,1,4.739-3.535,2.616,2.616,0,0,1,5.215,0,9.1,9.1,0,0,1,4.74,3.536,17.631,17.631,0,0,1,2.862,7.741c0,.026.005.044.007.062.019.191.039.4.058.609.133,1.444.353,3.859.958,4.851.015.025.028.047.038.067a3.967,3.967,0,0,0,.838.911C2264.668,3860.946,2266.251,3862.37,2264.9,3864.935Zm-16,3.641h5.515a.691.691,0,0,1,.562.263.927.927,0,0,1,.13.764c0,.013-.005.025-.007.036a3.405,3.405,0,0,1-6.775.124l0-.023a1.173,1.173,0,0,1,.116-.935A.588.588,0,0,1,2248.9,3868.575Z" transform="translate(-2237.991 -3839.995)"></path></svg>