<svg xmlns="http://www.w3.org/2000/svg" xmlns:xlink="http://www.w3.org/1999/xlink" width="122" viewBox="0 0 91.5 30.000001" height="40" preserveAspectRatio="xMidYMid meet"><defs><g></g><clipPath id="fd4e93da12"><path d="M 33.050781 7.023438 L 64.980469 7.023438 L 64.980469 21.539062 L 33.050781 21.539062 Z M 33.050781 7.023438 " clip-rule="nonzero"></path></clipPath><clipPath id="699ec2e94c"><path d="M 40.308594 7.023438 L 57.847656 7.023438 C 59.773438 7.023438 61.621094 7.789062 62.980469 9.148438 C 64.339844 10.511719 65.105469 12.355469 65.105469 14.28125 C 65.105469 16.207031 64.339844 18.050781 62.980469 19.414062 C 61.621094 20.773438 59.773438 21.539062 57.847656 21.539062 L 40.308594 21.539062 C 38.386719 21.539062 36.539062 20.773438 35.179688 19.414062 C 33.816406 18.050781 33.050781 16.207031 33.050781 14.28125 C 33.050781 12.355469 33.816406 10.511719 35.179688 9.148438 C 36.539062 7.789062 38.386719 7.023438 40.308594 7.023438 Z M 40.308594 7.023438 " clip-rule="nonzero"></path></clipPath></defs><g clip-path="url(#fd4e93da12)"><g clip-path="url(#699ec2e94c)"><path stroke-linecap="butt" transform="matrix(0.725806, 0, 0, 0.725806, 33.052008, 7.023506)" fill="none" stroke-linejoin="miter" d="M 9.997962 -0.0000939949 L 34.162893 -0.0000939949 C 36.816191 -0.0000939949 39.361851 1.054767 41.234768 2.927684 C 43.107685 4.805982 44.162546 7.34626 44.162546 9.999559 C 44.162546 12.652857 43.107685 15.193135 41.234768 17.071434 C 39.361851 18.944351 36.816191 19.999212 34.162893 19.999212 L 9.997962 19.999212 C 7.350045 19.999212 4.804386 18.944351 2.931469 17.071434 C 1.05317 15.193135 -0.00169077 12.652857 -0.00169077 9.999559 C -0.00169077 7.34626 1.05317 4.805982 2.931469 2.927684 C 4.804386 1.054767 7.350045 -0.0000939949 9.997962 -0.0000939949 Z M 9.997962 -0.0000939949 " stroke="#ffffff" stroke-width="6" stroke-opacity="1" stroke-miterlimit="4"></path></g></g><g fill="#ffffff" fill-opacity="1"><g transform="translate(1.740472, 21.158252)"><g><path d="M 1.09375 -13.875 L 3.734375 -13.875 L 3.734375 0 L 1.09375 0 Z M 1.09375 -13.875 "></path></g></g></g><g fill="#ffffff" fill-opacity="1"><g transform="translate(6.557782, 21.158252)"><g><path d="M 9.265625 -13.875 L 11.890625 -13.875 L 11.890625 0 L 9.296875 0 L 3.734375 -9 L 3.734375 0 L 1.09375 0 L 1.09375 -13.875 L 3.671875 -13.875 L 9.265625 -4.875 Z M 9.265625 -13.875 "></path></g></g></g><g fill="#ffffff" fill-opacity="1"><g transform="translate(19.542713, 21.158252)"><g><path d="M 9.265625 -13.875 L 11.890625 -13.875 L 11.890625 0 L 9.296875 0 L 3.734375 -9 L 3.734375 0 L 1.09375 0 L 1.09375 -13.875 L 3.671875 -13.875 L 9.265625 -4.875 Z M 9.265625 -13.875 "></path></g></g></g><g fill="#ffffff" fill-opacity="1"><g transform="translate(65.157071, 21.158252)"><g><path d="M 10 -13.875 L 12.921875 -13.875 L 7.90625 0 L 5.21875 0 L 0.203125 -13.875 L 3.140625 -13.875 L 6.5625 -3.96875 Z M 10 -13.875 "></path></g></g></g><g fill="#ffffff" fill-opacity="1"><g transform="translate(78.280771, 21.158252)"><g><path d="M 8.171875 -7.6875 C 8.585938 -7.53125 8.960938 -7.273438 9.296875 -6.921875 C 9.640625 -6.578125 9.910156 -6.175781 10.109375 -5.71875 C 10.304688 -5.257812 10.40625 -4.785156 10.40625 -4.296875 C 10.40625 -3.453125 10.21875 -2.691406 9.84375 -2.015625 C 9.46875 -1.347656 8.925781 -0.820312 8.21875 -0.4375 C 7.507812 -0.0507812 6.65625 0.140625 5.65625 0.140625 C 4.65625 0.140625 3.796875 -0.0507812 3.078125 -0.4375 C 2.367188 -0.820312 1.828125 -1.347656 1.453125 -2.015625 C 1.078125 -2.691406 0.890625 -3.453125 0.890625 -4.296875 C 0.890625 -4.785156 0.988281 -5.257812 1.1875 -5.71875 C 1.382812 -6.175781 1.65625 -6.578125 2 -6.921875 C 2.34375 -7.273438 2.722656 -7.53125 3.140625 -7.6875 C 2.710938 -8.007812 2.363281 -8.398438 2.09375 -8.859375 C 1.820312 -9.328125 1.6875 -9.816406 1.6875 -10.328125 C 1.6875 -11.054688 1.851562 -11.691406 2.1875 -12.234375 C 2.53125 -12.785156 3 -13.21875 3.59375 -13.53125 C 4.1875 -13.84375 4.875 -14 5.65625 -14 C 6.445312 -14 7.140625 -13.84375 7.734375 -13.53125 C 8.328125 -13.21875 8.785156 -12.785156 9.109375 -12.234375 C 9.441406 -11.691406 9.609375 -11.054688 9.609375 -10.328125 C 9.609375 -9.816406 9.472656 -9.328125 9.203125 -8.859375 C 8.929688 -8.398438 8.585938 -8.007812 8.171875 -7.6875 Z M 5.65625 -11.78125 C 5.132812 -11.78125 4.734375 -11.625 4.453125 -11.3125 C 4.179688 -11.007812 4.046875 -10.648438 4.046875 -10.234375 C 4.046875 -9.804688 4.1875 -9.441406 4.46875 -9.140625 C 4.75 -8.835938 5.144531 -8.6875 5.65625 -8.6875 C 6.15625 -8.6875 6.546875 -8.835938 6.828125 -9.140625 C 7.109375 -9.441406 7.25 -9.804688 7.25 -10.234375 C 7.25 -10.648438 7.109375 -11.007812 6.828125 -11.3125 C 6.554688 -11.625 6.164062 -11.78125 5.65625 -11.78125 Z M 5.65625 -2.109375 C 6.375 -2.109375 6.921875 -2.328125 7.296875 -2.765625 C 7.679688 -3.210938 7.875 -3.734375 7.875 -4.328125 C 7.875 -4.898438 7.6875 -5.398438 7.3125 -5.828125 C 6.945312 -6.265625 6.394531 -6.484375 5.65625 -6.484375 C 4.925781 -6.484375 4.375 -6.265625 4 -5.828125 C 3.625 -5.398438 3.4375 -4.898438 3.4375 -4.328125 C 3.4375 -3.734375 3.625 -3.210938 4 -2.765625 C 4.382812 -2.328125 4.9375 -2.109375 5.65625 -2.109375 Z M 5.65625 -2.109375 "></path></g></g></g></svg>