<svg xmlns="http://www.w3.org/2000/svg" xmlns:xlink="http://www.w3.org/1999/xlink" width="106" viewBox="0 0 79.5 30.000001" height="40" preserveAspectRatio="xMidYMid meet"><defs><filter x="0%" y="0%" width="100%" height="100%" id="1cd4a5abcd"></filter><g></g><clipPath id="fc4f18247c"><path d="M 1.039062 0 L 77.976562 0 L 77.976562 29.03125 L 1.039062 29.03125 Z M 1.039062 0 " clip-rule="nonzero"></path></clipPath><clipPath id="639af90236"><path d="M 6.492188 3.199219 L 30 3.199219 L 30 26.425781 L 6.492188 26.425781 Z M 6.492188 3.199219 " clip-rule="nonzero"></path></clipPath><clipPath id="120a698247"><path d="M 17.925781 3.226562 C 18.679688 3.226562 19.421875 3.300781 20.15625 3.445312 C 20.894531 3.59375 21.609375 3.808594 22.304688 4.097656 C 22.996094 4.382812 23.65625 4.734375 24.28125 5.152344 C 24.902344 5.570312 25.480469 6.042969 26.011719 6.574219 C 26.542969 7.105469 27.015625 7.683594 27.433594 8.308594 C 27.851562 8.929688 28.203125 9.589844 28.492188 10.285156 C 28.777344 10.976562 28.996094 11.691406 29.140625 12.429688 C 29.289062 13.164062 29.359375 13.910156 29.359375 14.660156 C 29.359375 15.410156 29.289062 16.152344 29.140625 16.890625 C 28.996094 17.625 28.777344 18.339844 28.492188 19.035156 C 28.203125 19.730469 27.851562 20.386719 27.433594 21.011719 C 27.015625 21.636719 26.542969 22.214844 26.011719 22.746094 C 25.480469 23.273438 24.902344 23.75 24.28125 24.167969 C 23.65625 24.582031 22.996094 24.9375 22.304688 25.222656 C 21.609375 25.511719 20.894531 25.726562 20.15625 25.875 C 19.421875 26.019531 18.679688 26.09375 17.925781 26.09375 C 17.175781 26.09375 16.433594 26.019531 15.695312 25.875 C 14.960938 25.726562 14.246094 25.511719 13.550781 25.222656 C 12.859375 24.9375 12.199219 24.582031 11.574219 24.167969 C 10.949219 23.75 10.375 23.273438 9.84375 22.746094 C 9.3125 22.214844 8.835938 21.636719 8.421875 21.011719 C 8.003906 20.386719 7.652344 19.730469 7.363281 19.035156 C 7.078125 18.339844 6.859375 17.625 6.714844 16.890625 C 6.566406 16.152344 6.492188 15.410156 6.492188 14.660156 C 6.492188 13.910156 6.566406 13.164062 6.714844 12.429688 C 6.859375 11.691406 7.078125 10.976562 7.363281 10.285156 C 7.652344 9.589844 8.003906 8.929688 8.421875 8.308594 C 8.835938 7.683594 9.3125 7.105469 9.84375 6.574219 C 10.375 6.042969 10.949219 5.570312 11.574219 5.152344 C 12.199219 4.734375 12.859375 4.382812 13.550781 4.097656 C 14.246094 3.808594 14.960938 3.59375 15.695312 3.445312 C 16.433594 3.300781 17.175781 3.226562 17.925781 3.226562 Z M 17.925781 3.226562 " clip-rule="nonzero"></path></clipPath><radialGradient gradientTransform="matrix(0.478109, 0.8783, -0.8783, 0.478109, 22.503015, -0.849382)" gradientUnits="userSpaceOnUse" r="23.919456" cx="11.433774" id="31cc61f87c" cy="11.433774" fx="11.433774" fy="11.433774"><stop stop-opacity="1" stop-color="rgb(99.804688%, 47.201538%, 92.887878%)" offset="0"></stop><stop stop-opacity="1" stop-color="rgb(99.414062%, 47.409058%, 92.868042%)" offset="0.00390625"></stop><stop stop-opacity="1" stop-color="rgb(99.023438%, 47.615051%, 92.848206%)" offset="0.0078125"></stop><stop stop-opacity="1" stop-color="rgb(98.632812%, 47.822571%, 92.828369%)" offset="0.0117188"></stop><stop stop-opacity="1" stop-color="rgb(98.242188%, 48.028564%, 92.808533%)" offset="0.015625"></stop><stop stop-opacity="1" stop-color="rgb(97.851562%, 48.236084%, 92.788696%)" offset="0.0195312"></stop><stop stop-opacity="1" stop-color="rgb(97.460938%, 48.442078%, 92.76886%)" offset="0.0234375"></stop><stop stop-opacity="1" stop-color="rgb(97.070312%, 48.648071%, 92.749023%)" offset="0.0273438"></stop><stop stop-opacity="1" stop-color="rgb(96.679688%, 48.855591%, 92.729187%)" offset="0.03125"></stop><stop stop-opacity="1" stop-color="rgb(96.289062%, 49.061584%, 92.709351%)" offset="0.0351562"></stop><stop stop-opacity="1" stop-color="rgb(95.898438%, 49.269104%, 92.689514%)" offset="0.0390625"></stop><stop stop-opacity="1" stop-color="rgb(95.507812%, 49.475098%, 92.669678%)" offset="0.0429688"></stop><stop stop-opacity="1" stop-color="rgb(95.117188%, 49.681091%, 92.649841%)" offset="0.046875"></stop><stop stop-opacity="1" stop-color="rgb(94.726562%, 49.888611%, 92.630005%)" offset="0.0507812"></stop><stop stop-opacity="1" stop-color="rgb(94.335938%, 50.094604%, 92.610168%)" offset="0.0546875"></stop><stop stop-opacity="1" stop-color="rgb(93.945312%, 50.302124%, 92.590332%)" offset="0.0585938"></stop><stop stop-opacity="1" stop-color="rgb(93.554688%, 50.508118%, 92.570496%)" offset="0.0625"></stop><stop stop-opacity="1" stop-color="rgb(93.164062%, 50.715637%, 92.549133%)" offset="0.0664062"></stop><stop stop-opacity="1" stop-color="rgb(92.773438%, 50.921631%, 92.529297%)" offset="0.0703125"></stop><stop stop-opacity="1" stop-color="rgb(92.382812%, 51.127625%, 92.50946%)" offset="0.0742188"></stop><stop stop-opacity="1" stop-color="rgb(91.992188%, 51.335144%, 92.489624%)" offset="0.078125"></stop><stop stop-opacity="1" stop-color="rgb(91.601562%, 51.541138%, 92.469788%)" offset="0.0820312"></stop><stop stop-opacity="1" stop-color="rgb(91.210938%, 51.748657%, 92.449951%)" offset="0.0859375"></stop><stop stop-opacity="1" stop-color="rgb(90.820312%, 51.954651%, 92.430115%)" offset="0.0898438"></stop><stop stop-opacity="1" stop-color="rgb(90.429688%, 52.16217%, 92.410278%)" offset="0.09375"></stop><stop stop-opacity="1" stop-color="rgb(90.039062%, 52.368164%, 92.390442%)" offset="0.0976562"></stop><stop stop-opacity="1" stop-color="rgb(89.648438%, 52.574158%, 92.370605%)" offset="0.101562"></stop><stop stop-opacity="1" stop-color="rgb(89.257812%, 52.781677%, 92.350769%)" offset="0.105469"></stop><stop stop-opacity="1" stop-color="rgb(88.867188%, 52.987671%, 92.330933%)" offset="0.109375"></stop><stop stop-opacity="1" stop-color="rgb(88.476562%, 53.19519%, 92.311096%)" offset="0.113281"></stop><stop stop-opacity="1" stop-color="rgb(88.085938%, 53.401184%, 92.29126%)" offset="0.117188"></stop><stop stop-opacity="1" stop-color="rgb(87.695312%, 53.608704%, 92.271423%)" offset="0.121094"></stop><stop stop-opacity="1" stop-color="rgb(87.304688%, 53.814697%, 92.251587%)" offset="0.125"></stop><stop stop-opacity="1" stop-color="rgb(86.914062%, 54.020691%, 92.23175%)" offset="0.128906"></stop><stop stop-opacity="1" stop-color="rgb(86.523438%, 54.22821%, 92.211914%)" offset="0.132812"></stop><stop stop-opacity="1" stop-color="rgb(86.132812%, 54.434204%, 92.190552%)" offset="0.136719"></stop><stop stop-opacity="1" stop-color="rgb(85.742188%, 54.641724%, 92.170715%)" offset="0.140625"></stop><stop stop-opacity="1" stop-color="rgb(85.351562%, 54.847717%, 92.150879%)" offset="0.144531"></stop><stop stop-opacity="1" stop-color="rgb(84.960938%, 55.053711%, 92.131042%)" offset="0.148438"></stop><stop stop-opacity="1" stop-color="rgb(84.570312%, 55.26123%, 92.111206%)" offset="0.152344"></stop><stop stop-opacity="1" stop-color="rgb(84.179688%, 55.467224%, 92.09137%)" offset="0.15625"></stop><stop stop-opacity="1" stop-color="rgb(83.789062%, 55.674744%, 92.071533%)" offset="0.160156"></stop><stop stop-opacity="1" stop-color="rgb(83.398438%, 55.880737%, 92.051697%)" offset="0.164062"></stop><stop stop-opacity="1" stop-color="rgb(83.007812%, 56.088257%, 92.03186%)" offset="0.167969"></stop><stop stop-opacity="1" stop-color="rgb(82.617188%, 56.29425%, 92.012024%)" offset="0.171875"></stop><stop stop-opacity="1" stop-color="rgb(82.226562%, 56.500244%, 91.992188%)" offset="0.175781"></stop><stop stop-opacity="1" stop-color="rgb(81.835938%, 56.707764%, 91.972351%)" offset="0.179688"></stop><stop stop-opacity="1" stop-color="rgb(81.445312%, 56.913757%, 91.952515%)" offset="0.183594"></stop><stop stop-opacity="1" stop-color="rgb(81.054688%, 57.121277%, 91.932678%)" offset="0.1875"></stop><stop stop-opacity="1" stop-color="rgb(80.664062%, 57.327271%, 91.912842%)" offset="0.191406"></stop><stop stop-opacity="1" stop-color="rgb(80.273438%, 57.53479%, 91.893005%)" offset="0.195312"></stop><stop stop-opacity="1" stop-color="rgb(79.882812%, 57.740784%, 91.873169%)" offset="0.199219"></stop><stop stop-opacity="1" stop-color="rgb(79.492188%, 57.946777%, 91.853333%)" offset="0.203125"></stop><stop stop-opacity="1" stop-color="rgb(79.101562%, 58.154297%, 91.83197%)" offset="0.207031"></stop><stop stop-opacity="1" stop-color="rgb(78.710938%, 58.360291%, 91.812134%)" offset="0.210938"></stop><stop stop-opacity="1" stop-color="rgb(78.320312%, 58.56781%, 91.792297%)" offset="0.214844"></stop><stop stop-opacity="1" stop-color="rgb(77.929688%, 58.773804%, 91.772461%)" offset="0.21875"></stop><stop stop-opacity="1" stop-color="rgb(77.539062%, 58.981323%, 91.752625%)" offset="0.222656"></stop><stop stop-opacity="1" stop-color="rgb(77.148438%, 59.187317%, 91.732788%)" offset="0.226562"></stop><stop stop-opacity="1" stop-color="rgb(76.757812%, 59.393311%, 91.712952%)" offset="0.230469"></stop><stop stop-opacity="1" stop-color="rgb(76.367188%, 59.60083%, 91.693115%)" offset="0.234375"></stop><stop stop-opacity="1" stop-color="rgb(75.976562%, 59.806824%, 91.673279%)" offset="0.238281"></stop><stop stop-opacity="1" stop-color="rgb(75.585938%, 60.014343%, 91.653442%)" offset="0.242188"></stop><stop stop-opacity="1" stop-color="rgb(75.195312%, 60.220337%, 91.633606%)" offset="0.246094"></stop><stop stop-opacity="1" stop-color="rgb(74.804688%, 60.427856%, 91.61377%)" offset="0.25"></stop><stop stop-opacity="1" stop-color="rgb(74.414062%, 60.63385%, 91.593933%)" offset="0.253906"></stop><stop stop-opacity="1" stop-color="rgb(74.023438%, 60.839844%, 91.574097%)" offset="0.257812"></stop><stop stop-opacity="1" stop-color="rgb(73.632812%, 61.047363%, 91.55426%)" offset="0.261719"></stop><stop stop-opacity="1" stop-color="rgb(73.242188%, 61.253357%, 91.534424%)" offset="0.265625"></stop><stop stop-opacity="1" stop-color="rgb(72.851562%, 61.460876%, 91.514587%)" offset="0.269531"></stop><stop stop-opacity="1" stop-color="rgb(72.460938%, 61.66687%, 91.494751%)" offset="0.273438"></stop><stop stop-opacity="1" stop-color="rgb(72.070312%, 61.872864%, 91.473389%)" offset="0.277344"></stop><stop stop-opacity="1" stop-color="rgb(71.679688%, 62.080383%, 91.453552%)" offset="0.28125"></stop><stop stop-opacity="1" stop-color="rgb(71.289062%, 62.286377%, 91.433716%)" offset="0.285156"></stop><stop stop-opacity="1" stop-color="rgb(70.898438%, 62.493896%, 91.413879%)" offset="0.289062"></stop><stop stop-opacity="1" stop-color="rgb(70.507812%, 62.69989%, 91.394043%)" offset="0.292969"></stop><stop stop-opacity="1" stop-color="rgb(70.117188%, 62.90741%, 91.374207%)" offset="0.296875"></stop><stop stop-opacity="1" stop-color="rgb(69.726562%, 63.113403%, 91.35437%)" offset="0.300781"></stop><stop stop-opacity="1" stop-color="rgb(69.335938%, 63.319397%, 91.334534%)" offset="0.304688"></stop><stop stop-opacity="1" stop-color="rgb(68.945312%, 63.526917%, 91.314697%)" offset="0.308594"></stop><stop stop-opacity="1" stop-color="rgb(68.554688%, 63.73291%, 91.294861%)" offset="0.3125"></stop><stop stop-opacity="1" stop-color="rgb(68.164062%, 63.94043%, 91.275024%)" offset="0.316406"></stop><stop stop-opacity="1" stop-color="rgb(67.773438%, 64.146423%, 91.255188%)" offset="0.320312"></stop><stop stop-opacity="1" stop-color="rgb(67.382812%, 64.353943%, 91.235352%)" offset="0.324219"></stop><stop stop-opacity="1" stop-color="rgb(66.992188%, 64.559937%, 91.215515%)" offset="0.328125"></stop><stop stop-opacity="1" stop-color="rgb(66.601562%, 64.76593%, 91.195679%)" offset="0.332031"></stop><stop stop-opacity="1" stop-color="rgb(66.210938%, 64.97345%, 91.175842%)" offset="0.335938"></stop><stop stop-opacity="1" stop-color="rgb(65.820312%, 65.179443%, 91.156006%)" offset="0.339844"></stop><stop stop-opacity="1" stop-color="rgb(65.429688%, 65.386963%, 91.136169%)" offset="0.34375"></stop><stop stop-opacity="1" stop-color="rgb(65.039062%, 65.592957%, 91.114807%)" offset="0.347656"></stop><stop stop-opacity="1" stop-color="rgb(64.648438%, 65.800476%, 91.094971%)" offset="0.351562"></stop><stop stop-opacity="1" stop-color="rgb(64.257812%, 66.00647%, 91.075134%)" offset="0.355469"></stop><stop stop-opacity="1" stop-color="rgb(63.867188%, 66.212463%, 91.055298%)" offset="0.359375"></stop><stop stop-opacity="1" stop-color="rgb(63.476562%, 66.419983%, 91.035461%)" offset="0.363281"></stop><stop stop-opacity="1" stop-color="rgb(63.085938%, 66.625977%, 91.015625%)" offset="0.367188"></stop><stop stop-opacity="1" stop-color="rgb(62.695312%, 66.833496%, 90.995789%)" offset="0.371094"></stop><stop stop-opacity="1" stop-color="rgb(62.304688%, 67.03949%, 90.975952%)" offset="0.375"></stop><stop stop-opacity="1" stop-color="rgb(61.914062%, 67.247009%, 90.956116%)" offset="0.378906"></stop><stop stop-opacity="1" stop-color="rgb(61.523438%, 67.453003%, 90.936279%)" offset="0.382812"></stop><stop stop-opacity="1" stop-color="rgb(61.132812%, 67.658997%, 90.916443%)" offset="0.386719"></stop><stop stop-opacity="1" stop-color="rgb(60.742188%, 67.866516%, 90.896606%)" offset="0.390625"></stop><stop stop-opacity="1" stop-color="rgb(60.351562%, 68.07251%, 90.87677%)" offset="0.394531"></stop><stop stop-opacity="1" stop-color="rgb(59.960938%, 68.280029%, 90.856934%)" offset="0.398438"></stop><stop stop-opacity="1" stop-color="rgb(59.570312%, 68.486023%, 90.837097%)" offset="0.402344"></stop><stop stop-opacity="1" stop-color="rgb(59.179688%, 68.692017%, 90.817261%)" offset="0.40625"></stop><stop stop-opacity="1" stop-color="rgb(58.789062%, 68.899536%, 90.797424%)" offset="0.410156"></stop><stop stop-opacity="1" stop-color="rgb(58.398438%, 69.10553%, 90.777588%)" offset="0.414062"></stop><stop stop-opacity="1" stop-color="rgb(58.007812%, 69.313049%, 90.756226%)" offset="0.417969"></stop><stop stop-opacity="1" stop-color="rgb(57.617188%, 69.519043%, 90.736389%)" offset="0.421875"></stop><stop stop-opacity="1" stop-color="rgb(57.226562%, 69.726562%, 90.716553%)" offset="0.425781"></stop><stop stop-opacity="1" stop-color="rgb(56.835938%, 69.932556%, 90.696716%)" offset="0.429688"></stop><stop stop-opacity="1" stop-color="rgb(56.445312%, 70.13855%, 90.67688%)" offset="0.433594"></stop><stop stop-opacity="1" stop-color="rgb(56.054688%, 70.346069%, 90.657043%)" offset="0.4375"></stop><stop stop-opacity="1" stop-color="rgb(55.664062%, 70.552063%, 90.637207%)" offset="0.441406"></stop><stop stop-opacity="1" stop-color="rgb(55.273438%, 70.759583%, 90.617371%)" offset="0.445312"></stop><stop stop-opacity="1" stop-color="rgb(54.882812%, 70.965576%, 90.597534%)" offset="0.449219"></stop><stop stop-opacity="1" stop-color="rgb(54.492188%, 71.173096%, 90.577698%)" offset="0.453125"></stop><stop stop-opacity="1" stop-color="rgb(54.101562%, 71.379089%, 90.557861%)" offset="0.457031"></stop><stop stop-opacity="1" stop-color="rgb(53.710938%, 71.585083%, 90.538025%)" offset="0.460938"></stop><stop stop-opacity="1" stop-color="rgb(53.320312%, 71.792603%, 90.518188%)" offset="0.464844"></stop><stop stop-opacity="1" stop-color="rgb(52.929688%, 71.998596%, 90.498352%)" offset="0.46875"></stop><stop stop-opacity="1" stop-color="rgb(52.539062%, 72.206116%, 90.478516%)" offset="0.472656"></stop><stop stop-opacity="1" stop-color="rgb(52.148438%, 72.412109%, 90.458679%)" offset="0.476562"></stop><stop stop-opacity="1" stop-color="rgb(51.757812%, 72.619629%, 90.438843%)" offset="0.480469"></stop><stop stop-opacity="1" stop-color="rgb(51.367188%, 72.825623%, 90.419006%)" offset="0.484375"></stop><stop stop-opacity="1" stop-color="rgb(50.976562%, 73.031616%, 90.397644%)" offset="0.488281"></stop><stop stop-opacity="1" stop-color="rgb(50.585938%, 73.239136%, 90.377808%)" offset="0.492188"></stop><stop stop-opacity="1" stop-color="rgb(50.195312%, 73.445129%, 90.357971%)" offset="0.496094"></stop><stop stop-opacity="1" stop-color="rgb(49.804688%, 73.652649%, 90.338135%)" offset="0.5"></stop><stop stop-opacity="1" stop-color="rgb(49.414062%, 73.858643%, 90.318298%)" offset="0.503906"></stop><stop stop-opacity="1" stop-color="rgb(49.023438%, 74.066162%, 90.298462%)" offset="0.507812"></stop><stop stop-opacity="1" stop-color="rgb(48.632812%, 74.272156%, 90.278625%)" offset="0.511719"></stop><stop stop-opacity="1" stop-color="rgb(48.242188%, 74.478149%, 90.258789%)" offset="0.515625"></stop><stop stop-opacity="1" stop-color="rgb(47.851562%, 74.685669%, 90.238953%)" offset="0.519531"></stop><stop stop-opacity="1" stop-color="rgb(47.460938%, 74.891663%, 90.219116%)" offset="0.523438"></stop><stop stop-opacity="1" stop-color="rgb(47.070312%, 75.099182%, 90.19928%)" offset="0.527344"></stop><stop stop-opacity="1" stop-color="rgb(46.679688%, 75.305176%, 90.179443%)" offset="0.53125"></stop><stop stop-opacity="1" stop-color="rgb(46.289062%, 75.511169%, 90.159607%)" offset="0.535156"></stop><stop stop-opacity="1" stop-color="rgb(45.898438%, 75.718689%, 90.139771%)" offset="0.539062"></stop><stop stop-opacity="1" stop-color="rgb(45.507812%, 75.924683%, 90.119934%)" offset="0.542969"></stop><stop stop-opacity="1" stop-color="rgb(45.117188%, 76.132202%, 90.100098%)" offset="0.546875"></stop><stop stop-opacity="1" stop-color="rgb(44.726562%, 76.338196%, 90.080261%)" offset="0.550781"></stop><stop stop-opacity="1" stop-color="rgb(44.335938%, 76.545715%, 90.058899%)" offset="0.554688"></stop><stop stop-opacity="1" stop-color="rgb(43.945312%, 76.751709%, 90.039062%)" offset="0.558594"></stop><stop stop-opacity="1" stop-color="rgb(43.554688%, 76.957703%, 90.019226%)" offset="0.5625"></stop><stop stop-opacity="1" stop-color="rgb(43.164062%, 77.165222%, 89.99939%)" offset="0.566406"></stop><stop stop-opacity="1" stop-color="rgb(42.773438%, 77.371216%, 89.979553%)" offset="0.570312"></stop><stop stop-opacity="1" stop-color="rgb(42.382812%, 77.578735%, 89.959717%)" offset="0.574219"></stop><stop stop-opacity="1" stop-color="rgb(41.992188%, 77.784729%, 89.93988%)" offset="0.578125"></stop><stop stop-opacity="1" stop-color="rgb(41.601562%, 77.992249%, 89.920044%)" offset="0.582031"></stop><stop stop-opacity="1" stop-color="rgb(41.210938%, 78.198242%, 89.900208%)" offset="0.585938"></stop><stop stop-opacity="1" stop-color="rgb(40.820312%, 78.404236%, 89.880371%)" offset="0.589844"></stop><stop stop-opacity="1" stop-color="rgb(40.429688%, 78.611755%, 89.860535%)" offset="0.59375"></stop><stop stop-opacity="1" stop-color="rgb(40.039062%, 78.817749%, 89.840698%)" offset="0.597656"></stop><stop stop-opacity="1" stop-color="rgb(39.648438%, 79.025269%, 89.820862%)" offset="0.601562"></stop><stop stop-opacity="1" stop-color="rgb(39.257812%, 79.231262%, 89.801025%)" offset="0.605469"></stop><stop stop-opacity="1" stop-color="rgb(38.867188%, 79.438782%, 89.781189%)" offset="0.609375"></stop><stop stop-opacity="1" stop-color="rgb(38.476562%, 79.644775%, 89.761353%)" offset="0.613281"></stop><stop stop-opacity="1" stop-color="rgb(38.085938%, 79.850769%, 89.741516%)" offset="0.617188"></stop><stop stop-opacity="1" stop-color="rgb(37.695312%, 80.058289%, 89.72168%)" offset="0.621094"></stop><stop stop-opacity="1" stop-color="rgb(37.304688%, 80.264282%, 89.700317%)" offset="0.625"></stop><stop stop-opacity="1" stop-color="rgb(36.914062%, 80.471802%, 89.680481%)" offset="0.628906"></stop><stop stop-opacity="1" stop-color="rgb(36.523438%, 80.677795%, 89.660645%)" offset="0.632812"></stop><stop stop-opacity="1" stop-color="rgb(36.132812%, 80.883789%, 89.640808%)" offset="0.636719"></stop><stop stop-opacity="1" stop-color="rgb(35.742188%, 81.091309%, 89.620972%)" offset="0.640625"></stop><stop stop-opacity="1" stop-color="rgb(35.351562%, 81.297302%, 89.601135%)" offset="0.644531"></stop><stop stop-opacity="1" stop-color="rgb(34.960938%, 81.504822%, 89.581299%)" offset="0.648438"></stop><stop stop-opacity="1" stop-color="rgb(34.570312%, 81.710815%, 89.561462%)" offset="0.652344"></stop><stop stop-opacity="1" stop-color="rgb(34.179688%, 81.918335%, 89.541626%)" offset="0.65625"></stop><stop stop-opacity="1" stop-color="rgb(33.789062%, 82.124329%, 89.52179%)" offset="0.660156"></stop><stop stop-opacity="1" stop-color="rgb(33.398438%, 82.330322%, 89.501953%)" offset="0.664062"></stop><stop stop-opacity="1" stop-color="rgb(33.007812%, 82.537842%, 89.482117%)" offset="0.667969"></stop><stop stop-opacity="1" stop-color="rgb(32.617188%, 82.743835%, 89.46228%)" offset="0.671875"></stop><stop stop-opacity="1" stop-color="rgb(32.226562%, 82.951355%, 89.442444%)" offset="0.675781"></stop><stop stop-opacity="1" stop-color="rgb(31.835938%, 83.157349%, 89.422607%)" offset="0.679688"></stop><stop stop-opacity="1" stop-color="rgb(31.445312%, 83.364868%, 89.402771%)" offset="0.683594"></stop><stop stop-opacity="1" stop-color="rgb(31.054688%, 83.570862%, 89.382935%)" offset="0.6875"></stop><stop stop-opacity="1" stop-color="rgb(30.664062%, 83.776855%, 89.363098%)" offset="0.691406"></stop><stop stop-opacity="1" stop-color="rgb(30.273438%, 83.984375%, 89.341736%)" offset="0.695312"></stop><stop stop-opacity="1" stop-color="rgb(29.882812%, 84.190369%, 89.321899%)" offset="0.699219"></stop><stop stop-opacity="1" stop-color="rgb(29.492188%, 84.397888%, 89.302063%)" offset="0.703125"></stop><stop stop-opacity="1" stop-color="rgb(29.101562%, 84.603882%, 89.282227%)" offset="0.707031"></stop><stop stop-opacity="1" stop-color="rgb(28.710938%, 84.811401%, 89.26239%)" offset="0.710938"></stop><stop stop-opacity="1" stop-color="rgb(28.320312%, 85.017395%, 89.242554%)" offset="0.714844"></stop><stop stop-opacity="1" stop-color="rgb(27.929688%, 85.223389%, 89.222717%)" offset="0.71875"></stop><stop stop-opacity="1" stop-color="rgb(27.539062%, 85.430908%, 89.202881%)" offset="0.722656"></stop><stop stop-opacity="1" stop-color="rgb(27.148438%, 85.636902%, 89.183044%)" offset="0.726562"></stop><stop stop-opacity="1" stop-color="rgb(26.757812%, 85.844421%, 89.163208%)" offset="0.730469"></stop><stop stop-opacity="1" stop-color="rgb(26.367188%, 86.050415%, 89.143372%)" offset="0.734375"></stop><stop stop-opacity="1" stop-color="rgb(25.976562%, 86.257935%, 89.123535%)" offset="0.738281"></stop><stop stop-opacity="1" stop-color="rgb(25.585938%, 86.463928%, 89.103699%)" offset="0.742188"></stop><stop stop-opacity="1" stop-color="rgb(25.195312%, 86.669922%, 89.083862%)" offset="0.746094"></stop><stop stop-opacity="1" stop-color="rgb(24.804688%, 86.877441%, 89.064026%)" offset="0.75"></stop><stop stop-opacity="1" stop-color="rgb(24.414062%, 87.083435%, 89.044189%)" offset="0.753906"></stop><stop stop-opacity="1" stop-color="rgb(24.023438%, 87.290955%, 89.024353%)" offset="0.757812"></stop><stop stop-opacity="1" stop-color="rgb(23.632812%, 87.496948%, 89.004517%)" offset="0.761719"></stop><stop stop-opacity="1" stop-color="rgb(23.242188%, 87.702942%, 88.983154%)" offset="0.765625"></stop><stop stop-opacity="1" stop-color="rgb(22.851562%, 87.910461%, 88.963318%)" offset="0.769531"></stop><stop stop-opacity="1" stop-color="rgb(22.460938%, 88.116455%, 88.943481%)" offset="0.773438"></stop><stop stop-opacity="1" stop-color="rgb(22.070312%, 88.323975%, 88.923645%)" offset="0.777344"></stop><stop stop-opacity="1" stop-color="rgb(21.679688%, 88.529968%, 88.903809%)" offset="0.78125"></stop><stop stop-opacity="1" stop-color="rgb(21.289062%, 88.737488%, 88.883972%)" offset="0.785156"></stop><stop stop-opacity="1" stop-color="rgb(20.898438%, 88.943481%, 88.864136%)" offset="0.789062"></stop><stop stop-opacity="1" stop-color="rgb(20.507812%, 89.149475%, 88.844299%)" offset="0.792969"></stop><stop stop-opacity="1" stop-color="rgb(20.117188%, 89.356995%, 88.824463%)" offset="0.796875"></stop><stop stop-opacity="1" stop-color="rgb(19.726562%, 89.562988%, 88.804626%)" offset="0.800781"></stop><stop stop-opacity="1" stop-color="rgb(19.335938%, 89.770508%, 88.78479%)" offset="0.804688"></stop><stop stop-opacity="1" stop-color="rgb(18.945312%, 89.976501%, 88.764954%)" offset="0.808594"></stop><stop stop-opacity="1" stop-color="rgb(18.554688%, 90.184021%, 88.745117%)" offset="0.8125"></stop><stop stop-opacity="1" stop-color="rgb(18.164062%, 90.390015%, 88.725281%)" offset="0.816406"></stop><stop stop-opacity="1" stop-color="rgb(17.773438%, 90.596008%, 88.705444%)" offset="0.820312"></stop><stop stop-opacity="1" stop-color="rgb(17.382812%, 90.803528%, 88.685608%)" offset="0.824219"></stop><stop stop-opacity="1" stop-color="rgb(16.992188%, 91.009521%, 88.665771%)" offset="0.828125"></stop><stop stop-opacity="1" stop-color="rgb(16.601562%, 91.217041%, 88.645935%)" offset="0.832031"></stop><stop stop-opacity="1" stop-color="rgb(16.210938%, 91.423035%, 88.624573%)" offset="0.835938"></stop><stop stop-opacity="1" stop-color="rgb(15.820312%, 91.630554%, 88.604736%)" offset="0.839844"></stop><stop stop-opacity="1" stop-color="rgb(15.429688%, 91.836548%, 88.5849%)" offset="0.84375"></stop><stop stop-opacity="1" stop-color="rgb(15.039062%, 92.042542%, 88.565063%)" offset="0.847656"></stop><stop stop-opacity="1" stop-color="rgb(14.648438%, 92.250061%, 88.545227%)" offset="0.851562"></stop><stop stop-opacity="1" stop-color="rgb(14.257812%, 92.456055%, 88.525391%)" offset="0.855469"></stop><stop stop-opacity="1" stop-color="rgb(13.867188%, 92.663574%, 88.505554%)" offset="0.859375"></stop><stop stop-opacity="1" stop-color="rgb(13.476562%, 92.869568%, 88.485718%)" offset="0.863281"></stop><stop stop-opacity="1" stop-color="rgb(13.085938%, 93.077087%, 88.465881%)" offset="0.867188"></stop><stop stop-opacity="1" stop-color="rgb(12.695312%, 93.283081%, 88.446045%)" offset="0.871094"></stop><stop stop-opacity="1" stop-color="rgb(12.304688%, 93.489075%, 88.426208%)" offset="0.875"></stop><stop stop-opacity="1" stop-color="rgb(11.914062%, 93.696594%, 88.406372%)" offset="0.878906"></stop><stop stop-opacity="1" stop-color="rgb(11.523438%, 93.902588%, 88.386536%)" offset="0.882812"></stop><stop stop-opacity="1" stop-color="rgb(11.132812%, 94.110107%, 88.366699%)" offset="0.886719"></stop><stop stop-opacity="1" stop-color="rgb(10.742188%, 94.316101%, 88.346863%)" offset="0.890625"></stop><stop stop-opacity="1" stop-color="rgb(10.351562%, 94.522095%, 88.327026%)" offset="0.894531"></stop><stop stop-opacity="1" stop-color="rgb(9.960938%, 94.729614%, 88.30719%)" offset="0.898438"></stop><stop stop-opacity="1" stop-color="rgb(9.570312%, 94.935608%, 88.287354%)" offset="0.902344"></stop><stop stop-opacity="1" stop-color="rgb(9.179688%, 95.143127%, 88.265991%)" offset="0.90625"></stop><stop stop-opacity="1" stop-color="rgb(8.789062%, 95.349121%, 88.246155%)" offset="0.910156"></stop><stop stop-opacity="1" stop-color="rgb(8.398438%, 95.556641%, 88.226318%)" offset="0.914062"></stop><stop stop-opacity="1" stop-color="rgb(8.007812%, 95.762634%, 88.206482%)" offset="0.917969"></stop><stop stop-opacity="1" stop-color="rgb(7.617188%, 95.968628%, 88.186646%)" offset="0.921875"></stop><stop stop-opacity="1" stop-color="rgb(7.226562%, 96.176147%, 88.166809%)" offset="0.925781"></stop><stop stop-opacity="1" stop-color="rgb(6.835938%, 96.382141%, 88.146973%)" offset="0.929688"></stop><stop stop-opacity="1" stop-color="rgb(6.445312%, 96.589661%, 88.127136%)" offset="0.933594"></stop><stop stop-opacity="1" stop-color="rgb(6.054688%, 96.795654%, 88.1073%)" offset="0.9375"></stop><stop stop-opacity="1" stop-color="rgb(5.664062%, 97.003174%, 88.087463%)" offset="0.941406"></stop><stop stop-opacity="1" stop-color="rgb(5.273438%, 97.209167%, 88.067627%)" offset="0.945312"></stop><stop stop-opacity="1" stop-color="rgb(4.882812%, 97.415161%, 88.047791%)" offset="0.949219"></stop><stop stop-opacity="1" stop-color="rgb(4.492188%, 97.622681%, 88.027954%)" offset="0.953125"></stop><stop stop-opacity="1" stop-color="rgb(4.101562%, 97.828674%, 88.008118%)" offset="0.957031"></stop><stop stop-opacity="1" stop-color="rgb(3.710938%, 98.036194%, 87.988281%)" offset="0.960938"></stop><stop stop-opacity="1" stop-color="rgb(3.320312%, 98.242188%, 87.968445%)" offset="0.964844"></stop><stop stop-opacity="1" stop-color="rgb(2.929688%, 98.449707%, 87.948608%)" offset="0.96875"></stop><stop stop-opacity="1" stop-color="rgb(2.539062%, 98.655701%, 87.928772%)" offset="0.972656"></stop><stop stop-opacity="1" stop-color="rgb(2.148438%, 98.861694%, 87.90741%)" offset="0.976562"></stop><stop stop-opacity="1" stop-color="rgb(1.757812%, 99.069214%, 87.887573%)" offset="0.980469"></stop><stop stop-opacity="1" stop-color="rgb(1.367188%, 99.275208%, 87.867737%)" offset="0.984375"></stop><stop stop-opacity="1" stop-color="rgb(0.976562%, 99.482727%, 87.8479%)" offset="0.988281"></stop><stop stop-opacity="1" stop-color="rgb(0.585938%, 99.688721%, 87.828064%)" offset="0.992188"></stop><stop stop-opacity="1" stop-color="rgb(0.195312%, 99.89624%, 87.808228%)" offset="0.996094"></stop><stop stop-opacity="1" stop-color="rgb(0%, 100%, 87.799072%)" offset="1"></stop></radialGradient><mask id="b11344bb20"><g filter="url(#1cd4a5abcd)"><rect x="-7.95" width="95.4" fill="#000000" y="-3" height="36.000001" fill-opacity="0.696"></rect></g></mask><clipPath id="8678d4d2f5"><rect x="0" width="14" y="0" height="11"></rect></clipPath></defs><g clip-path="url(#fc4f18247c)"><path fill="#ffffff" d="M 1.039062 0 L 77.976562 0 L 77.976562 29.03125 L 1.039062 29.03125 Z M 1.039062 0 " fill-opacity="1" fill-rule="nonzero"></path><path fill="#ffffff" d="M 1.039062 0 L 77.976562 0 L 77.976562 29.03125 L 1.039062 29.03125 Z M 1.039062 0 " fill-opacity="1" fill-rule="nonzero"></path></g><g clip-path="url(#639af90236)"><g clip-path="url(#120a698247)"><path fill="url(#31cc61f87c)" d="M 24.132812 -6.375 L -3.109375 8.453125 L 11.722656 35.695312 L 38.964844 20.867188 Z M 24.132812 -6.375 " fill-rule="nonzero"></path></g></g><path fill="#fefeff" d="M 16.214844 15.800781 C 16.058594 16.09375 15.824219 16.308594 15.515625 16.4375 C 15.207031 16.570312 14.894531 16.589844 14.570312 16.5 L 10 15.21875 C 9.707031 15.136719 9.464844 14.976562 9.273438 14.742188 C 9.082031 14.503906 8.976562 14.234375 8.957031 13.933594 C 8.9375 13.628906 9.007812 13.351562 9.167969 13.089844 C 9.328125 12.832031 9.546875 12.644531 9.828125 12.527344 L 16.652344 9.628906 C 16.933594 9.507812 17.222656 9.484375 17.515625 9.546875 C 17.8125 9.613281 18.0625 9.757812 18.269531 9.980469 C 18.472656 10.207031 18.59375 10.46875 18.628906 10.769531 C 18.667969 11.070312 18.613281 11.355469 18.46875 11.621094 Z M 16.214844 15.800781 " fill-opacity="1" fill-rule="nonzero"></path><g mask="url(#b11344bb20)"><g transform="matrix(1, 0, 0, 1, 14, 10)"><g clip-path="url(#8678d4d2f5)"><path fill="#fefeff" d="M 5.707031 3.359375 C 5.886719 3.078125 6.132812 2.882812 6.449219 2.773438 C 6.765625 2.664062 7.082031 2.667969 7.398438 2.78125 L 11.867188 4.375 C 12.15625 4.480469 12.382812 4.652344 12.558594 4.902344 C 12.734375 5.152344 12.820312 5.425781 12.816406 5.730469 C 12.816406 6.035156 12.726562 6.308594 12.550781 6.554688 C 12.371094 6.800781 12.140625 6.976562 11.851562 7.074219 L 4.839844 9.488281 C 4.554688 9.585938 4.265625 9.59375 3.972656 9.507812 C 3.683594 9.421875 3.441406 9.261719 3.253906 9.023438 C 3.066406 8.785156 2.964844 8.515625 2.949219 8.210938 C 2.933594 7.910156 3.007812 7.628906 3.167969 7.371094 Z M 5.707031 3.359375 " fill-opacity="1" fill-rule="nonzero"></path></g></g></g><g fill="#1a1a1a" fill-opacity="1"><g transform="translate(31.613911, 20.058256)"><g><path d="M 6.828125 0.171875 C 5.972656 0.171875 5.175781 0.015625 4.4375 -0.296875 C 3.695312 -0.617188 3.046875 -1.054688 2.484375 -1.609375 C 1.921875 -2.160156 1.476562 -2.800781 1.15625 -3.53125 C 0.832031 -4.269531 0.671875 -5.0625 0.671875 -5.90625 C 0.671875 -6.75 0.832031 -7.535156 1.15625 -8.265625 C 1.476562 -8.992188 1.921875 -9.632812 2.484375 -10.1875 C 3.046875 -10.75 3.695312 -11.1875 4.4375 -11.5 C 5.175781 -11.8125 5.972656 -11.96875 6.828125 -11.96875 C 7.359375 -11.96875 7.867188 -11.910156 8.359375 -11.796875 C 8.859375 -11.691406 9.316406 -11.523438 9.734375 -11.296875 C 9.898438 -11.203125 10.023438 -11.078125 10.109375 -10.921875 C 10.191406 -10.773438 10.234375 -10.625 10.234375 -10.46875 C 10.234375 -10.195312 10.140625 -9.953125 9.953125 -9.734375 C 9.773438 -9.523438 9.546875 -9.421875 9.265625 -9.421875 C 9.179688 -9.421875 9.085938 -9.429688 8.984375 -9.453125 C 8.890625 -9.472656 8.800781 -9.507812 8.71875 -9.5625 C 8.4375 -9.6875 8.132812 -9.78125 7.8125 -9.84375 C 7.5 -9.914062 7.171875 -9.953125 6.828125 -9.953125 C 6.097656 -9.953125 5.429688 -9.765625 4.828125 -9.390625 C 4.222656 -9.023438 3.742188 -8.535156 3.390625 -7.921875 C 3.035156 -7.316406 2.859375 -6.644531 2.859375 -5.90625 C 2.859375 -5.175781 3.035156 -4.5 3.390625 -3.875 C 3.742188 -3.257812 4.222656 -2.769531 4.828125 -2.40625 C 5.429688 -2.039062 6.097656 -1.859375 6.828125 -1.859375 C 7.160156 -1.859375 7.53125 -1.890625 7.9375 -1.953125 C 8.34375 -2.023438 8.675781 -2.113281 8.9375 -2.21875 L 8.78125 -1.71875 L 8.78125 -4.609375 L 9.0625 -4.34375 L 7.203125 -4.34375 C 6.910156 -4.34375 6.664062 -4.4375 6.46875 -4.625 C 6.269531 -4.820312 6.171875 -5.066406 6.171875 -5.359375 C 6.171875 -5.648438 6.269531 -5.890625 6.46875 -6.078125 C 6.664062 -6.273438 6.910156 -6.375 7.203125 -6.375 L 9.96875 -6.375 C 10.257812 -6.375 10.5 -6.273438 10.6875 -6.078125 C 10.875 -5.878906 10.96875 -5.632812 10.96875 -5.34375 L 10.96875 -1.765625 C 10.96875 -1.546875 10.914062 -1.363281 10.8125 -1.21875 C 10.707031 -1.070312 10.585938 -0.953125 10.453125 -0.859375 C 9.929688 -0.546875 9.363281 -0.296875 8.75 -0.109375 C 8.144531 0.078125 7.503906 0.171875 6.828125 0.171875 Z M 6.828125 0.171875 "></path></g></g></g><g fill="#1a1a1a" fill-opacity="1"><g transform="translate(43.337256, 20.058256)"><g><path d="M 2.109375 0 C 1.816406 0 1.570312 -0.0976562 1.375 -0.296875 C 1.1875 -0.492188 1.09375 -0.738281 1.09375 -1.03125 L 1.09375 -7.984375 C 1.09375 -8.273438 1.1875 -8.519531 1.375 -8.71875 C 1.570312 -8.914062 1.816406 -9.015625 2.109375 -9.015625 C 2.398438 -9.015625 2.640625 -8.914062 2.828125 -8.71875 C 3.023438 -8.519531 3.125 -8.273438 3.125 -7.984375 L 3.125 -6.40625 L 3 -7.53125 C 3.125 -7.800781 3.285156 -8.039062 3.484375 -8.25 C 3.679688 -8.457031 3.898438 -8.628906 4.140625 -8.765625 C 4.390625 -8.910156 4.65625 -9.015625 4.9375 -9.078125 C 5.21875 -9.148438 5.5 -9.1875 5.78125 -9.1875 C 6.113281 -9.1875 6.394531 -9.085938 6.625 -8.890625 C 6.863281 -8.703125 6.984375 -8.484375 6.984375 -8.234375 C 6.984375 -7.859375 6.882812 -7.585938 6.6875 -7.421875 C 6.5 -7.265625 6.289062 -7.1875 6.0625 -7.1875 C 5.851562 -7.1875 5.660156 -7.222656 5.484375 -7.296875 C 5.304688 -7.378906 5.109375 -7.421875 4.890625 -7.421875 C 4.679688 -7.421875 4.472656 -7.367188 4.265625 -7.265625 C 4.066406 -7.171875 3.878906 -7.023438 3.703125 -6.828125 C 3.523438 -6.628906 3.382812 -6.378906 3.28125 -6.078125 C 3.175781 -5.773438 3.125 -5.425781 3.125 -5.03125 L 3.125 -1.03125 C 3.125 -0.738281 3.023438 -0.492188 2.828125 -0.296875 C 2.640625 -0.0976562 2.398438 0 2.109375 0 Z M 2.109375 0 "></path></g></g></g><g fill="#1a1a1a" fill-opacity="1"><g transform="translate(50.647506, 20.058256)"><g><path d="M 9.84375 -4.5 C 9.84375 -3.582031 9.632812 -2.769531 9.21875 -2.0625 C 8.8125 -1.363281 8.265625 -0.816406 7.578125 -0.421875 C 6.890625 -0.0234375 6.117188 0.171875 5.265625 0.171875 C 4.410156 0.171875 3.632812 -0.0234375 2.9375 -0.421875 C 2.25 -0.816406 1.695312 -1.363281 1.28125 -2.0625 C 0.875 -2.769531 0.671875 -3.582031 0.671875 -4.5 C 0.671875 -5.425781 0.875 -6.238281 1.28125 -6.9375 C 1.695312 -7.632812 2.25 -8.179688 2.9375 -8.578125 C 3.632812 -8.984375 4.410156 -9.1875 5.265625 -9.1875 C 6.117188 -9.1875 6.890625 -8.984375 7.578125 -8.578125 C 8.265625 -8.179688 8.8125 -7.632812 9.21875 -6.9375 C 9.632812 -6.238281 9.84375 -5.425781 9.84375 -4.5 Z M 7.828125 -4.5 C 7.828125 -5.070312 7.707031 -5.566406 7.46875 -5.984375 C 7.238281 -6.410156 6.929688 -6.738281 6.546875 -6.96875 C 6.160156 -7.207031 5.734375 -7.328125 5.265625 -7.328125 C 4.785156 -7.328125 4.351562 -7.207031 3.96875 -6.96875 C 3.582031 -6.738281 3.273438 -6.410156 3.046875 -5.984375 C 2.816406 -5.566406 2.703125 -5.070312 2.703125 -4.5 C 2.703125 -3.9375 2.816406 -3.441406 3.046875 -3.015625 C 3.273438 -2.597656 3.582031 -2.269531 3.96875 -2.03125 C 4.351562 -1.800781 4.785156 -1.6875 5.265625 -1.6875 C 5.734375 -1.6875 6.160156 -1.800781 6.546875 -2.03125 C 6.929688 -2.269531 7.238281 -2.597656 7.46875 -3.015625 C 7.707031 -3.441406 7.828125 -3.9375 7.828125 -4.5 Z M 7.828125 -4.5 "></path></g></g></g><g fill="#1a1a1a" fill-opacity="1"><g transform="translate(61.158098, 20.058256)"><g><path d="M 11.484375 -9.015625 C 11.742188 -9.015625 11.96875 -8.914062 12.15625 -8.71875 C 12.34375 -8.519531 12.4375 -8.269531 12.4375 -7.96875 C 12.4375 -7.894531 12.429688 -7.828125 12.421875 -7.765625 C 12.410156 -7.703125 12.394531 -7.644531 12.375 -7.59375 L 9.796875 -0.640625 C 9.710938 -0.410156 9.566406 -0.238281 9.359375 -0.125 C 9.160156 -0.0078125 8.953125 0.03125 8.734375 0 C 8.347656 -0.0195312 8.0625 -0.234375 7.875 -0.640625 L 6.203125 -5.453125 L 6.640625 -5.421875 L 5.078125 -0.640625 C 4.878906 -0.234375 4.59375 -0.0195312 4.21875 0 C 4 0.03125 3.785156 -0.0078125 3.578125 -0.125 C 3.367188 -0.238281 3.226562 -0.410156 3.15625 -0.640625 L 0.578125 -7.59375 C 0.523438 -7.707031 0.5 -7.832031 0.5 -7.96875 C 0.5 -8.238281 0.585938 -8.476562 0.765625 -8.6875 C 0.953125 -8.90625 1.203125 -9.015625 1.515625 -9.015625 C 1.734375 -9.015625 1.925781 -8.960938 2.09375 -8.859375 C 2.257812 -8.765625 2.375 -8.601562 2.4375 -8.375 L 4.484375 -2.84375 L 4.0625 -2.890625 L 5.59375 -7.046875 C 5.769531 -7.460938 6.082031 -7.671875 6.53125 -7.671875 C 6.769531 -7.671875 6.953125 -7.613281 7.078125 -7.5 C 7.210938 -7.394531 7.320312 -7.242188 7.40625 -7.046875 L 8.9375 -2.890625 L 8.421875 -2.8125 L 10.5 -8.375 C 10.632812 -8.800781 10.960938 -9.015625 11.484375 -9.015625 Z M 11.484375 -9.015625 "></path></g></g></g></svg>