<svg xmlns="http://www.w3.org/2000/svg" width="67.026" height="73.433" viewBox="0 0 67.026 73.433"><path d="M22.426,68.528A136.71,136.71,0,0,0,2.825,65a2.449,2.449,0,0,0-2.8,2.165,2.485,2.485,0,0,0,2.1,2.795,129.442,129.442,0,0,1,18.9,3.383,2.54,2.54,0,0,0,3.1-1.725A2.49,2.49,0,0,0,22.426,68.528Z" fill-rule="evenodd"></path><path d="M41.825,43.065c-10.3-10.511-21.9-19.669-32-30.462a2.48,2.48,0,1,0-3.6,3.413c10.1,10.824,21.7,20.012,32,30.554a2.579,2.579,0,0,0,3.6.03A2.549,2.549,0,0,0,41.825,43.065Z" fill-rule="evenodd"></path><path d="M61.126,2.636q.45,9.024.9,18.049a2.433,2.433,0,0,0,2.6,2.375,2.553,2.553,0,0,0,2.4-2.62q-.45-9.039-.9-18.076A2.564,2.564,0,0,0,63.426,0,2.489,2.489,0,0,0,61.126,2.636Z" fill-rule="evenodd"></path></svg>