<svg xmlns="http://www.w3.org/2000/svg" width="19.25" height="19.25" viewBox="0 0 19.25 19.25"><path d="M-5.581-5.711V-7.733H-7.6A2.027,2.027,0,0,0-9.625-5.711,2.027,2.027,0,0,0-7.6-3.688,2.027,2.027,0,0,0-5.581-5.711Zm1.019,0V-.647A2.027,2.027,0,0,0-2.539,1.375,2.027,2.027,0,0,0-.517-.647V-5.711A2.027,2.027,0,0,0-2.539-7.733,2.027,2.027,0,0,0-4.562-5.711Zm2.022-8.12H-.517v-2.022a2.027,2.027,0,0,0-2.022-2.022,2.027,2.027,0,0,0-2.022,2.022A2.027,2.027,0,0,0-2.539-13.831Zm0,1.019H-7.6a2.027,2.027,0,0,0-2.022,2.022A2.027,2.027,0,0,0-7.6-8.767h5.063A2.027,2.027,0,0,0-.517-10.789,2.027,2.027,0,0,0-2.539-12.812Zm8.12,2.022v2.022H7.6a2.027,2.027,0,0,0,2.022-2.022A2.027,2.027,0,0,0,7.6-12.812,2.027,2.027,0,0,0,5.581-10.789Zm-1.019,0v-5.063a2.027,2.027,0,0,0-2.022-2.022A2.027,2.027,0,0,0,.517-15.853v5.063A2.027,2.027,0,0,0,2.539-8.767,2.027,2.027,0,0,0,4.562-10.789ZM2.539-2.669H.517V-.647A2.027,2.027,0,0,0,2.539,1.375,2.027,2.027,0,0,0,4.562-.647,2.027,2.027,0,0,0,2.539-2.669Zm0-1.019H7.6A2.027,2.027,0,0,0,9.625-5.711,2.027,2.027,0,0,0,7.6-7.733H2.539A2.027,2.027,0,0,0,.517-5.711,2.027,2.027,0,0,0,2.539-3.688Z" transform="translate(9.625 17.875)" fill="#fff"></path></svg>