<svg xmlns="http://www.w3.org/2000/svg" width="34.36" height="34.36" viewBox="0 0 34.36 34.36"><rect width="34.36" height="34.36" fill="none"></rect><path d="M27.265,18.588l-1,5.991,0,.021A1.432,1.432,0,0,1,24.6,25.752L8.322,22.793A1.432,1.432,0,0,1,7.2,21.778L4.589,12.634a1.432,1.432,0,0,1,1.377-1.825H25.617l.878-3.762A1.689,1.689,0,0,1,28.14,5.741H31.1a1.689,1.689,0,0,1,0,3.378H29.48Z" transform="translate(-1.289 -1.632)" fill-rule="evenodd" opacity="0.3"></path><path d="M12.147,40.295a2.147,2.147,0,1,1,2.147-2.147A2.147,2.147,0,0,1,12.147,40.295Zm12.885,0a2.147,2.147,0,1,1,2.147-2.147A2.147,2.147,0,0,1,25.032,40.295Z" transform="translate(-2.842 -10.23)" fill-rule="evenodd"></path></svg>