<svg xmlns="http://www.w3.org/2000/svg" width="30" height="31" viewBox="0 0 30 31" fill="currentColor"><path d="M0.849693 17.8006C0.177714 16.8119 0.0433879 15.5532 0.491625 14.4451C1.49339 12.4015 3.17154 10.7677 5.2412 9.82101C6.73965 9.07584 8.36275 8.6137 10.0289 8.45764C9.30292 9.35098 8.57612 10.3041 7.84851 11.3173C6.36768 13.5597 5.10009 15.9358 4.0624 18.4146L3.61573 19.4162C2.49684 19.3236 1.47995 18.7297 0.849693 17.8006ZM2.55143 22.998C1.48238 24.4742 0.715077 26.1467 0.293555 27.9199C0.030755 29.072 0.751701 30.2191 1.90391 30.4819C2.21747 30.5534 2.54309 30.5534 2.85665 30.4817C4.62711 30.0595 6.29704 29.2927 7.77115 28.225C9.21455 26.7823 9.21513 24.4426 7.77237 22.9992C6.32966 21.5558 3.98996 21.5553 2.54656 22.998H2.55143ZM12.3176 26.6648L11.3087 27.1127V27.4745C11.3111 28.3411 11.6582 29.1712 12.2733 29.7816C12.8585 30.3507 13.6424 30.6694 14.4587 30.67C17.3588 30.6282 19.7103 27.9876 20.9445 25.5292C21.7005 24.0077 22.1642 22.3578 22.3115 20.6652C21.4092 21.4034 20.4416 22.1417 19.4088 22.88C17.1673 24.3612 14.7915 25.6284 12.3127 26.6649L12.3176 26.6648ZM29.7656 4.64075C29.602 9.99694 25.7457 15.3089 17.9753 20.8829C15.8607 22.2536 13.63 23.4361 11.3087 24.4168V23.7241C11.2972 21.3504 9.37576 19.4289 7.00205 19.4175H6.30932C7.29226 17.0961 8.4768 14.8653 9.84938 12.7508C15.4098 4.99882 20.7131 1.13761 26.0607 0.962891C28.7258 0.962891 29.7656 2.04816 29.7656 4.64075ZM22.3828 11.4194C22.3828 9.72047 21.0056 8.34319 19.3066 8.34319C17.6077 8.34319 16.2305 9.72041 16.2305 11.4194C16.2305 13.1183 17.6077 14.4955 19.3066 14.4955C21.0056 14.4955 22.3828 13.1183 22.3828 11.4194Z"></path></svg>