<svg xmlns="http://www.w3.org/2000/svg" width="32" height="32" viewBox="0 0 32 32" fill="currentColor"><path d="M16 31.9999C12.8353 31.9999 9.74165 31.0615 7.11028 29.3034C4.47891 27.5453 2.42803 25.0464 1.21695 22.1228C0.00586413 19.1992 -0.311051 15.9823 0.306355 12.8786C0.923761 9.77492 2.44778 6.92396 4.68557 4.68633C6.92336 2.4487 9.77441 0.924793 12.8783 0.307431C15.9822 -0.30993 19.1995 0.00696226 22.1233 1.21796C25.0472 2.42896 27.5463 4.47969 29.3045 7.11087C31.0627 9.74204 32.0011 12.8354 32.0011 15.9999C32.0073 18.1028 31.5975 20.1861 30.7956 22.1301C29.9936 24.074 28.8151 25.8404 27.3281 27.3273C25.841 28.8143 24.0747 29.9926 22.1306 30.7946C20.1865 31.5965 18.103 32.006 16 31.9999ZM23.7882 7.56274C23.7234 7.56274 23.6576 7.62849 23.5928 7.62849L11.9102 11.5228C11.8184 11.5508 11.735 11.601 11.6672 11.6689C11.5994 11.7369 11.5493 11.8204 11.5215 11.9123L7.62693 23.5932C7.60225 23.6189 7.58368 23.6498 7.57247 23.6836C7.56126 23.7174 7.55775 23.7531 7.56219 23.7885C7.55707 23.8749 7.57031 23.9615 7.60105 24.0424C7.6318 24.1233 7.67937 24.1967 7.74058 24.258C7.80179 24.3192 7.87522 24.3666 7.95614 24.3974C8.03706 24.4281 8.12359 24.4413 8.21 24.4362C8.27571 24.4362 8.33963 24.3716 8.40534 24.3716L20.0879 20.4773C20.1798 20.4493 20.2635 20.3991 20.3314 20.3312C20.3994 20.2632 20.4495 20.1795 20.4776 20.0876L24.3712 8.40594C24.396 8.3805 24.4146 8.34966 24.4258 8.31602C24.437 8.28237 24.4405 8.24659 24.436 8.21141C24.4411 8.12471 24.4279 8.03794 24.397 7.95678C24.3661 7.87561 24.3183 7.80188 24.2568 7.74055C24.1953 7.67923 24.1215 7.63182 24.0402 7.60115C23.959 7.57048 23.872 7.55735 23.7853 7.56274H23.7882ZM16.2916 18.0361C15.8312 18.0361 15.3811 17.8994 14.9983 17.6436C14.6156 17.3879 14.3172 17.0244 14.1411 16.5991C13.9649 16.1738 13.9188 15.7058 14.0087 15.2543C14.0985 14.8028 14.3201 14.3882 14.6456 14.0627C14.9711 13.7372 15.3859 13.5156 15.8374 13.4258C16.2889 13.336 16.757 13.3821 17.1823 13.5582C17.6076 13.7344 17.9711 14.0327 18.2269 14.4154C18.4826 14.7982 18.6192 15.2481 18.6192 15.7085C18.6192 16.0144 18.5589 16.3172 18.4418 16.5998C18.3246 16.8824 18.153 17.1392 17.9365 17.3553C17.7201 17.5715 17.4631 17.7428 17.1804 17.8596C16.8976 17.9764 16.5947 18.0364 16.2888 18.0361H16.2916Z"></path></svg>