<svg xmlns="http://www.w3.org/2000/svg" width="80" height="23" viewBox="0 0 80 23" fill="none"><path d="M5.262 6.88781C1.537 6.88781 0 8.21281 0 11.3628C0 14.7628 1.35 16.0248 5.137 16.0248C7.875 16.0248 8.912 15.4248 9.574 13.4748H9.699L9.537 15.8628H14.324V6.32481C14.3207 5.31675 14.1518 4.31608 13.824 3.36281C12.975 1.62481 11.212 0.99981 7.088 0.99981C3.688 0.99981 2.238 1.37481 1.325 2.47481C0.788001 3.13681 0.637998 3.78681 0.599998 5.52481H5.425C5.512 4.23781 5.9 3.92481 7.312 3.92481C8.949 3.92481 9.55 4.43681 9.55 5.84981V8.71281H9.45C8.887 7.23781 8.037 6.88781 5.262 6.88781ZM7.4 12.8998C5.287 12.8998 4.812 12.5878 4.825 11.2868C4.825 10.1498 5.425 9.77481 7.063 9.77481C8.975 9.77481 9.513 10.0878 9.513 11.2248C9.512 12.5248 9.037 12.8998 7.4 12.8998ZM17.125 1.03681V22.1618H22.062V13.3748H22.162C22.737 15.3378 23.837 16.0248 26.387 16.0248C28.487 16.0248 29.687 15.6748 30.537 14.7618C31.675 13.5378 32.05 11.8998 32.05 8.14981C32.05 4.68681 31.675 3.21281 30.45 2.13681C29.3228 1.28444 27.92 0.879427 26.512 0.99981C23.812 0.99981 22.962 1.47481 21.825 3.61281H21.725L21.913 1.03781L17.125 1.03681ZM27.238 8.62481C27.238 11.6368 26.763 12.3378 24.713 12.3378C22.5 12.3378 22.063 11.6508 22.063 8.15081C22.063 5.18781 22.538 4.56281 24.651 4.56281C26.825 4.56281 27.238 5.18781 27.238 8.62481ZM34.463 1.03681V22.1618H39.4V13.3748H39.5C40.075 15.3378 41.175 16.0248 43.725 16.0248C45.838 16.0248 47.037 15.6748 47.887 14.7618C49.025 13.5378 49.4 11.8998 49.4 8.14981C49.4 4.68681 49.025 3.21281 47.8 2.13681C46.6728 1.28444 45.27 0.879427 43.862 0.99981C41.162 0.99981 40.312 1.47481 39.175 3.61281H39.075L39.262 1.03781L34.463 1.03681ZM44.587 8.62481C44.587 11.6368 44.112 12.3378 42.062 12.3378C39.849 12.3378 39.412 11.6508 39.412 8.15081C39.412 5.18781 39.887 4.56281 42 4.56281C44.175 4.56281 44.587 5.18781 44.587 8.62481ZM51.312 8.14981C51.312 11.8368 51.662 13.4368 52.724 14.4998C53.849 15.6248 55.612 16.0368 59.049 16.0368C62.136 16.0368 63.674 15.5618 64.586 14.3368C65.1785 13.4186 65.4752 12.3409 65.436 11.2488V10.9618H60.75C60.75 12.3238 60.25 12.6988 58.512 12.6988C56.562 12.6988 56 12.0738 56 9.96181C55.9978 9.76118 56.0102 9.56065 56.037 9.36181H65.45V7.97381C65.45 2.61181 63.838 1.01081 58.488 1.01081C55.625 1.01081 53.95 1.41081 52.85 2.42381C51.725 3.42481 51.312 4.97481 51.312 8.14981ZM60.862 6.69981H56.075L56.113 6.28781C56.238 4.77581 56.575 4.40081 58.375 4.40081C60.412 4.40081 60.825 4.68781 60.825 6.22581C60.8242 6.38456 60.8366 6.54311 60.862 6.69981ZM67.8 1.03781V15.8498H72.587V7.34981C72.5326 6.83416 72.575 6.31289 72.712 5.81281C72.8206 5.46669 73.0395 5.16562 73.3353 4.95562C73.631 4.74561 73.9874 4.6382 74.35 4.64981C75.387 4.64981 75.637 5.14981 75.637 7.07481C75.6388 7.24222 75.6264 7.40949 75.6 7.57481H79.975C79.95 7.03781 79.95 6.59981 79.95 6.41281C79.95 3.96281 79.763 3.07481 79.1 2.16281C78.7391 1.75154 78.2858 1.43171 77.7774 1.22954C77.2689 1.02738 76.7198 0.948647 76.175 0.99981C74.262 0.99981 73.312 1.66181 72.462 3.52481H72.374L72.599 1.03681L67.8 1.03781Z" fill="black"></path></svg>