<svg xmlns="http://www.w3.org/2000/svg" height="34.872" viewBox="0 0 35.35 34.872" width="35.35"><g fill="#00cb99"><path d="m16.169 18.979-9.511-9.491-3.644-.793-3.014-5.852 2.849-2.843 5.864 3.008.795 3.636 9.511 9.492.486-.485a2.679 2.679 0 0 1 3.779 0l8.582 8.564a2.667 2.667 0 0 1 0 3.772l-3.819 3.813a2.679 2.679 0 0 1 -3.779 0l-8.582-8.564a2.667 2.667 0 0 1 0-3.772l.486-.485z" opacity=".191" transform="translate(0 2.29)"></path><path d="m14.8 14.256a10.021 10.021 0 0 1 13.311-13.325l-5.575 4.92a3.826 3.826 0 0 0 -1.1 3.276l.29 1.454a2.142 2.142 0 0 0 1.562 1.559l1.457.29a3.845 3.845 0 0 0 3.283-1.1l4.93-5.564a10.021 10.021 0 0 1 -13.358 13.279 3.946 3.946 0 0 1 -.312.371l-12.575 13.213a3.788 3.788 0 0 1 -5.444.073l-.149-.149a3.771 3.771 0 0 1 .073-5.433l13.239-12.553a3.947 3.947 0 0 1 .368-.311z" transform="translate(1.464)"></path></g></svg>