<svg xmlns="http://www.w3.org/2000/svg" width="27.388" height="40.486" viewBox="0 0 27.388 40.486"><g transform="translate(-16.075 -10.122)"><path d="M4.763,10.717c2.484,0,4.763-6.974,4.763-8.335C9.526,1.08,7.512,0,4.763,0,2.543,0,0,1.08,0,2.382,0,3.743,2.279,10.717,4.763,10.717Z" transform="translate(25.006 39.891)" fill="rgba(0,203,153,0.14)"></path><path d="M26.319,16.056l-4.851-.6a3.1,3.1,0,0,1-2.654-2.992V1.271c0-1.475.706-1.7,1.578-.506L25.81,8.172a9.534,9.534,0,0,1,1.578,4.82v2.134a.917.917,0,0,1-.935.937A1.078,1.078,0,0,1,26.319,16.056ZM0,15.114v-2.1A9.591,9.591,0,0,1,1.582,8.165L6.991.772C7.865-.423,8.574-.19,8.574,1.29V12.442a3.112,3.112,0,0,1-2.654,3.01l-4.851.6a1.076,1.076,0,0,1-.133.008A.921.921,0,0,1,0,15.114Z" transform="translate(16.075 28.234)" fill="#00cb99"></path><path d="M.3,9.989a12.916,12.916,0,0,1,5.577-8.9A5.223,5.223,0,0,1,8.336,0a5.223,5.223,0,0,1,2.458,1.091A12.958,12.958,0,0,1,16.374,10s.405,1.709.27,9.372a106.118,106.118,0,0,1-1.112,13.661,1.217,1.217,0,0,1-1.718.992,12.129,12.129,0,0,0-5.479-.964,12.129,12.129,0,0,0-5.479.964A1.21,1.21,0,0,1,1.139,33.02,107.386,107.386,0,0,1,.027,19.372C-.107,11.791.3,9.989.3,9.989Z" transform="translate(21.433 10.122)" fill="#00cb99" opacity="0.14"></path><path d="M2.857,25.826V14.675a1.143,1.143,0,1,1,2.285,0V25.826a1.143,1.143,0,1,1-2.285,0ZM0,4.109A4.055,4.055,0,0,1,4,0,4.056,4.056,0,0,1,8,4.109,4.056,4.056,0,0,1,4,8.218,4.056,4.056,0,0,1,0,4.109Z" transform="translate(26 17.538)" fill="#00cb99"></path></g></svg>