<svg xmlns="http://www.w3.org/2000/svg" width="53" height="53" viewBox="0 0 53 53" fill="currentColor"><path d="M17.3594 52.4375C15.0677 52.4375 12.9453 52.0339 10.9922 51.2266C9.03906 50.4193 7.25521 49.2083 5.64063 47.5938C4.02604 45.9792 2.8151 44.1953 2.00781 42.2422C1.20052 40.2891 0.796875 38.1667 0.796875 35.875C0.796875 32.5938 1.66927 29.5469 3.41406 26.7344C5.15885 23.9219 7.75 21.8385 11.1875 20.4844C11.9688 18.401 13.2057 16.513 14.8984 14.8203C16.5911 13.1276 18.5312 11.8385 20.7188 10.9531C22.1771 7.67188 24.2344 5.11979 26.8906 3.29688C29.5469 1.47396 32.6198 0.5625 36.1094 0.5625C38.401 0.5625 40.5234 0.966146 42.4766 1.77344C44.4297 2.58073 46.2135 3.79167 47.8281 5.40625C49.4427 7.02083 50.6536 8.80469 51.4609 10.7578C52.2682 12.7109 52.6719 14.8333 52.6719 17.125C52.6719 20.4063 51.8255 23.4141 50.1328 26.1484C48.4401 28.8828 45.8229 31.0052 42.2812 32.5156C41.3958 34.7552 40.1198 36.6953 38.4531 38.3359C36.7865 39.9766 34.8854 41.2135 32.75 42.0469C31.3438 45.3281 29.2865 47.8802 26.5781 49.7031C23.8698 51.526 20.7969 52.4375 17.3594 52.4375ZM17.5156 50.875C20.0156 50.875 22.6198 50.1589 25.3281 48.7266C28.0365 47.2943 30.0677 45.25 31.4219 42.5938C28.349 43.4271 25.4062 43.401 22.5938 42.5156C19.7812 41.6302 17.3073 40.1458 15.1719 38.0625C13.0365 35.9271 11.5391 33.4792 10.6797 30.7188C9.82031 27.9583 9.80729 25.0417 10.6406 21.9688C8.03646 23.375 6.00521 25.3932 4.54688 28.0234C3.08854 30.6536 2.35938 33.2708 2.35938 35.875C2.35938 37.9063 2.72396 39.8203 3.45313 41.6172C4.18229 43.4141 5.27604 45.0417 6.73438 46.5C8.24479 47.9583 9.91146 49.0521 11.7344 49.7812C13.5573 50.5104 15.4844 50.875 17.5156 50.875ZM26.7344 41.5C30.1719 41.5 33.0885 40.6276 35.4844 38.8828C37.8802 37.138 39.625 35.25 40.7188 33.2188C37.75 34.0521 34.8464 34.0521 32.0078 33.2188C29.1693 32.3854 26.6563 30.901 24.4688 28.7656C22.2812 26.5781 20.7839 24.1172 19.9766 21.3828C19.1693 18.6484 19.1823 15.7708 20.0156 12.75C17.8281 13.9479 15.9271 15.7448 14.3125 18.1406C12.6979 20.5365 11.8906 23.3229 11.8906 26.5C11.8906 28.5313 12.2552 30.4323 12.9844 32.2031C13.7135 33.974 14.7813 35.5885 16.1875 37.0469C17.6458 38.5052 19.2604 39.612 21.0313 40.3672C22.8021 41.1224 24.7031 41.5 26.7344 41.5ZM36.0313 32.0469C36.9167 32.0469 37.7891 31.9818 38.6484 31.8516C39.5078 31.7214 40.3021 31.526 41.0313 31.2656C41.9688 28.5052 42.125 25.7578 41.5 23.0234C40.875 20.2891 39.5469 17.9063 37.5156 15.875C35.4844 13.8438 33.1016 12.5156 30.3672 11.8906C27.6328 11.2656 24.8854 11.4219 22.125 12.3594C21.8646 13.0885 21.6693 13.8828 21.5391 14.7422C21.4089 15.6016 21.3438 16.474 21.3438 17.3594C21.3438 19.2865 21.7214 21.1354 22.4766 22.9063C23.2318 24.6771 24.2865 26.2396 25.6406 27.5938C27.0469 29 28.6615 30.0938 30.4844 30.875C32.3073 31.6563 34.1563 32.0469 36.0313 32.0469ZM42.9844 30.875C45.4323 29.5729 47.3984 27.8021 48.8828 25.5625C50.3672 23.3229 51.1094 20.5104 51.1094 17.125C51.1094 15.1458 50.7318 13.2448 49.9766 11.4219C49.2214 9.59896 48.1146 7.95833 46.6563 6.5C45.1979 5.04167 43.5833 3.94792 41.8125 3.21875C40.0417 2.48958 38.1406 2.125 36.1094 2.125C33.2448 2.125 30.6276 2.88021 28.2578 4.39063C25.888 5.90104 23.9219 7.90625 22.3594 10.4062C25.4844 9.57292 28.4141 9.5599 31.1484 10.3672C33.8828 11.1745 36.3437 12.6458 38.5312 14.7813C40.7188 16.9688 42.2161 19.4167 43.0234 22.125C43.8307 24.8333 43.8177 27.75 42.9844 30.875Z"></path></svg>