<svg xmlns="http://www.w3.org/2000/svg" width="42" height="53" viewBox="0 0 42 53" fill="none"><path d="M20.7102 35.7188C23.7971 35.7188 26.4214 34.6411 28.5828 32.4859C30.7438 30.3307 31.8242 27.7135 31.8242 24.6344C31.8242 21.5552 30.7456 18.9349 28.5883 16.7734C26.4315 14.612 23.8122 13.5312 20.7305 13.5312V14.7813C23.4909 14.7813 25.8216 15.7383 27.7227 17.6523C29.6237 19.5664 30.5742 21.8906 30.5742 24.625C30.5742 27.3594 29.6172 29.6836 27.7031 31.5977C25.7891 33.5117 23.4648 34.4688 20.7305 34.4688C19.107 34.4688 17.6206 34.0911 16.2711 33.3359C14.9211 32.5807 13.7513 31.6042 12.7617 30.4062L11.9023 31.3438C12.9961 32.5938 14.2794 33.6354 15.7523 34.4688C17.2258 35.3021 18.8784 35.7188 20.7102 35.7188ZM10.2617 27.75C10.6992 27.75 11.0951 27.5729 11.4492 27.2188C11.8034 26.8646 11.9805 26.4688 11.9805 26.0312C11.9805 25.5938 11.8034 25.1979 11.4492 24.8438C11.0951 24.4896 10.6862 24.3125 10.2227 24.3125C9.75912 24.3125 9.36328 24.4742 9.03516 24.7977C8.70703 25.1206 8.54297 25.5294 8.54297 26.0242C8.54297 26.5185 8.70521 26.9297 9.02969 27.2578C9.35469 27.5859 9.76537 27.75 10.2617 27.75ZM11.5117 21.5C11.9492 21.5 12.3451 21.3359 12.6992 21.0078C13.0534 20.6797 13.2305 20.2839 13.2305 19.8203C13.2305 19.3568 13.0682 18.9479 12.7437 18.5938C12.4187 18.2396 12.0081 18.0625 11.5117 18.0625C11.0154 18.0625 10.6047 18.2396 10.2797 18.5938C9.95521 18.9479 9.79297 19.3568 9.79297 19.8203C9.79297 20.2839 9.97005 20.6797 10.3242 21.0078C10.6784 21.3359 11.0742 21.5 11.5117 21.5ZM15.8867 16.9688C16.3242 16.9688 16.7201 16.7917 17.0742 16.4375C17.4284 16.0833 17.6055 15.6875 17.6055 15.25C17.6055 14.8125 17.4284 14.4167 17.0742 14.0625C16.7201 13.7083 16.3112 13.5312 15.8477 13.5312C15.3841 13.5312 14.9883 13.693 14.6602 14.0164C14.332 14.3393 14.168 14.7482 14.168 15.243C14.168 15.7372 14.3302 16.1484 14.6547 16.4766C14.9797 16.8047 15.3904 16.9688 15.8867 16.9688ZM20.7305 52.2813C14.9492 50.5104 10.1185 46.9859 6.23828 41.7078C2.35807 36.4292 0.417969 30.4484 0.417969 23.7656V8.6875L20.7305 0.875L41.043 8.6875V23.7656C41.043 30.4484 39.1029 36.4292 35.2227 41.7078C31.3424 46.9859 26.5117 50.5104 20.7305 52.2813ZM20.7305 50.6406C26.1471 48.9609 30.6263 45.6016 34.168 40.5625C37.7096 35.5234 39.4805 29.9245 39.4805 23.7656V9.70312L20.7305 2.59375L1.98047 9.70312V23.7656C1.98047 29.9245 3.7513 35.5234 7.29297 40.5625C10.8346 45.6016 15.3138 48.9609 20.7305 50.6406Z" fill="currentColor"></path></svg>