<svg xmlns="http://www.w3.org/2000/svg" width="21" height="20" viewBox="0 0 21 20" fill="currentColor"><mask id="mask0_1_198" style="mask-type:alpha" maskUnits="userSpaceOnUse" x="0" y="0" width="21" height="20"><rect x="0.898804" width="20" height="20"></rect></mask><g mask="url(#mask0_1_198)"><path d="M9.82026 12.7115L14.5061 8.04646L13.7321 7.27251L9.82026 11.1635L8.04943 9.41355L7.27547 10.1875L9.82026 12.7115ZM10.9003 17.5833C9.86082 17.5833 8.88019 17.386 7.95838 16.9913C7.03658 16.5965 6.22977 16.0534 5.53797 15.3619C4.84616 14.6704 4.30276 13.8639 3.90776 12.9425C3.5129 12.0211 3.31547 11.0408 3.31547 10.0015C3.31547 8.94813 3.51283 7.96403 3.90755 7.04917C4.30227 6.13431 4.8454 5.33098 5.53693 4.63917C6.22845 3.94737 7.03491 3.40396 7.9563 3.00896C8.87769 2.6141 9.85804 2.41667 10.8973 2.41667C11.9507 2.41667 12.9348 2.61403 13.8496 3.00875C14.7645 3.40348 15.5678 3.9466 16.2596 4.63813C16.9514 5.32966 17.4948 6.13264 17.8898 7.04709C18.2847 7.96153 18.4821 8.94535 18.4821 9.99855C18.4821 11.038 18.2848 12.0186 17.8901 12.9404C17.4953 13.8622 16.9522 14.669 16.2607 15.3608C15.5691 16.0526 14.7662 16.596 13.8517 16.991C12.9373 17.3859 11.9535 17.5833 10.9003 17.5833ZM10.8988 16.5C12.7044 16.5 14.2391 15.8681 15.503 14.6042C16.7669 13.3403 17.3988 11.8056 17.3988 10C17.3988 8.19445 16.7669 6.65973 15.503 5.39584C14.2391 4.13195 12.7044 3.50001 10.8988 3.50001C9.09325 3.50001 7.55852 4.13195 6.29463 5.39584C5.03075 6.65973 4.3988 8.19445 4.3988 10C4.3988 11.8056 5.03075 13.3403 6.29463 14.6042C7.55852 15.8681 9.09325 16.5 10.8988 16.5Z"></path></g></svg>