<svg xmlns="http://www.w3.org/2000/svg" width="76" height="75" viewBox="0 0 76 75" fill="none"><mask id="mask0_404_64" style="mask-type:alpha" maskUnits="userSpaceOnUse" x="0" y="0" width="76" height="75"><rect x="0.230469" width="75" height="75" fill="#D9D9D9"></rect></mask><g mask="url(#mask0_404_64)"><path d="M18.9898 69.2188C16.9523 69.2188 15.2174 68.5057 13.7852 67.0797C12.3529 65.6537 11.6367 63.9219 11.6367 61.8844C11.6367 59.8469 12.351 58.112 13.7797 56.6797C15.2078 55.2474 16.9422 54.5313 18.9828 54.5313C19.5542 54.5313 20.232 54.6367 21.0164 54.8477C21.8003 55.0581 22.5279 55.3432 23.1992 55.7031L32.0273 44.6875C30.9336 43.5938 30.1393 42.3828 29.6445 41.0547C29.1497 39.7266 29.0846 38.3073 29.4492 36.7969L16.5586 32.7344C16.0378 34.1406 15.1188 35.2604 13.8016 36.0938C12.4849 36.9271 11.0862 37.3438 9.60547 37.3438C7.56536 37.3438 5.83151 36.6307 4.40391 35.2047C2.97578 33.7786 2.26172 32.0469 2.26172 30.0094C2.26172 27.9198 2.96172 26.1719 4.36172 24.7656C5.76172 23.3594 7.50651 22.6563 9.59609 22.6563C11.6857 22.6563 13.4336 23.3573 14.8398 24.7594C16.2461 26.1609 16.9492 27.9078 16.9492 30C16.9492 30.3516 16.9362 30.625 16.9102 30.8203C16.8841 31.0156 16.8711 31.2109 16.8711 31.4063L29.6836 35.625C30.2565 34.1667 31.194 32.9167 32.4961 31.875C33.7982 30.8333 35.3346 30.1823 37.1055 29.9219V16.7969C34.9701 16.6406 33.3164 15.8073 32.1445 14.2969C30.9727 12.7865 30.3867 11.1352 30.3867 9.34297C30.3867 7.33308 31.0997 5.61198 32.5258 4.17969C33.9518 2.7474 35.6836 2.03125 37.7211 2.03125C39.7586 2.03125 41.4935 2.74531 42.9258 4.17344C44.3581 5.60104 45.0742 7.3349 45.0742 9.375C45.0742 11.1458 44.5013 12.7865 43.3555 14.2969C42.2096 15.8073 40.543 16.6406 38.3555 16.7969V29.9195C40.1784 30.1294 41.7148 30.7552 42.9648 31.7969C44.2148 32.8385 45.1523 34.1146 45.7773 35.625L58.5898 31.4063C58.5378 31.1589 58.5117 30.9505 58.5117 30.7813V30C58.5117 27.9599 59.2247 26.226 60.6508 24.7984C62.0768 23.3703 63.8086 22.6563 65.8461 22.6563C67.8836 22.6563 69.6185 23.3693 71.0508 24.7953C72.4831 26.2214 73.1992 27.9531 73.1992 29.9906C73.1992 32.0281 72.4852 33.763 71.057 35.1953C69.6294 36.6276 67.8956 37.3438 65.8555 37.3438C64.3914 37.3438 63.0099 36.9401 61.7109 36.1328C60.4115 35.3255 59.4753 34.1927 58.9023 32.7344L46.0117 36.7969C46.3763 38.3073 46.3112 39.7396 45.8164 41.0938C45.3216 42.4479 44.5273 43.6198 43.4336 44.6094L52.2617 55.7031C52.9388 55.3906 53.668 55.1172 54.4492 54.8828C55.2305 54.6484 55.9068 54.5313 56.4781 54.5313C58.5188 54.5313 60.2531 55.2443 61.6813 56.6703C63.1099 58.0964 63.8242 59.8281 63.8242 61.8656C63.8242 63.9031 63.1112 65.638 61.6852 67.0703C60.2591 68.5026 58.5273 69.2188 56.4898 69.2188C54.4523 69.2188 52.7175 68.5047 51.2852 67.0766C49.8529 65.649 49.1367 63.9151 49.1367 61.875C49.1367 60.9276 49.306 60.0135 49.6445 59.1328C49.9831 58.2526 50.569 57.3958 51.4023 56.5625L42.5742 45.4688C41.2721 46.4583 39.6836 46.9531 37.8086 46.9531C35.9336 46.9531 34.319 46.4583 32.9648 45.4688L24.0586 56.5625C24.8398 57.3958 25.4128 58.2521 25.7773 59.1313C26.1419 60.0099 26.3242 60.9245 26.3242 61.875C26.3242 63.9151 25.6112 65.649 24.1852 67.0766C22.7591 68.5047 21.0273 69.2188 18.9898 69.2188ZM9.60547 35.7813C11.1888 35.7813 12.5482 35.2135 13.6836 34.0781C14.819 32.9427 15.3867 31.5833 15.3867 30C15.3867 28.4167 14.819 27.0573 13.6836 25.9219C12.5482 24.7865 11.1888 24.2188 9.60547 24.2188C8.02214 24.2188 6.66276 24.7865 5.52734 25.9219C4.39193 27.0573 3.82422 28.4167 3.82422 30C3.82422 31.5833 4.39193 32.9427 5.52734 34.0781C6.66276 35.2135 8.02214 35.7813 9.60547 35.7813ZM18.9805 67.6563C20.5638 67.6563 21.9232 67.0885 23.0586 65.9531C24.194 64.8177 24.7617 63.4583 24.7617 61.875C24.7617 60.2917 24.194 58.9323 23.0586 57.7969C21.9232 56.6615 20.5638 56.0938 18.9805 56.0938C17.3971 56.0938 16.0378 56.6615 14.9023 57.7969C13.7669 58.9323 13.1992 60.2917 13.1992 61.875C13.1992 63.4583 13.7669 64.8177 14.9023 65.9531C16.0378 67.0885 17.3971 67.6563 18.9805 67.6563ZM37.7305 15.1563C39.3138 15.1563 40.6732 14.5885 41.8086 13.4531C42.944 12.3177 43.5117 10.9583 43.5117 9.375C43.5117 7.79167 42.944 6.43229 41.8086 5.29687C40.6732 4.16146 39.3138 3.59375 37.7305 3.59375C36.1471 3.59375 34.7878 4.16146 33.6523 5.29687C32.5169 6.43229 31.9492 7.79167 31.9492 9.375C31.9492 10.9583 32.5169 12.3177 33.6523 13.4531C34.7878 14.5885 36.1471 15.1563 37.7305 15.1563ZM37.7305 45.3125C39.6242 45.3125 41.2435 44.6401 42.5883 43.2953C43.9331 41.9505 44.6055 40.3313 44.6055 38.4375C44.6055 36.5438 43.9331 34.9245 42.5883 33.5797C41.2435 32.2349 39.6242 31.5625 37.7305 31.5625C35.8367 31.5625 34.2175 32.2349 32.8727 33.5797C31.5279 34.9245 30.8555 36.5438 30.8555 38.4375C30.8555 40.3313 31.5279 41.9505 32.8727 43.2953C34.2175 44.6401 35.8367 45.3125 37.7305 45.3125ZM56.4805 67.6563C58.0638 67.6563 59.4232 67.0885 60.5586 65.9531C61.694 64.8177 62.2617 63.4583 62.2617 61.875C62.2617 60.2917 61.694 58.9323 60.5586 57.7969C59.4232 56.6615 58.0638 56.0938 56.4805 56.0938C54.8971 56.0938 53.5378 56.6615 52.4023 57.7969C51.2669 58.9323 50.6992 60.2917 50.6992 61.875C50.6992 63.4583 51.2669 64.8177 52.4023 65.9531C53.5378 67.0885 54.8971 67.6563 56.4805 67.6563ZM65.8555 35.7813C67.4388 35.7813 68.7982 35.2135 69.9336 34.0781C71.069 32.9427 71.6367 31.5833 71.6367 30C71.6367 28.4167 71.069 27.0573 69.9336 25.9219C68.7982 24.7865 67.4388 24.2188 65.8555 24.2188C64.2721 24.2188 62.9128 24.7865 61.7773 25.9219C60.6419 27.0573 60.0742 28.4167 60.0742 30C60.0742 31.5833 60.6419 32.9427 61.7773 34.0781C62.9128 35.2135 64.2721 35.7813 65.8555 35.7813Z" fill="#1C1B1F"></path></g></svg>