<svg xmlns="http://www.w3.org/2000/svg" width="76" height="20" viewBox="0 0 76 20" fill="none"><path d="M9.265 19.2651C14.3819 19.2651 18.53 15.117 18.53 10.0001C18.53 4.88319 14.3819 0.735107 9.265 0.735107C4.14808 0.735107 0 4.88319 0 10.0001C0 15.117 4.14808 19.2651 9.265 19.2651Z" fill="url(#paint0_linear_2_44)"></path><path opacity="0.316" d="M18.53 19.2651C23.6469 19.2651 27.795 15.117 27.795 10.0001C27.795 4.88319 23.6469 0.735107 18.53 0.735107C13.4131 0.735107 9.265 4.88319 9.265 10.0001C9.265 15.117 13.4131 19.2651 18.53 19.2651Z" fill="url(#paint1_linear_2_44)"></path><path d="M36.6309 1.40649V17.2663H40.0781V10.4857C40.0781 8.76154 41.0431 7.42898 42.6753 7.42898C43.917 7.42898 44.5143 8.16419 44.5143 9.45179V17.2663H47.9616V9.19807C48.0151 8.61242 47.9399 8.02214 47.7412 7.46864C47.5424 6.91515 47.225 6.41183 46.8112 5.99399C46.3973 5.57615 45.8971 5.25391 45.3455 5.04986C44.794 4.84582 44.2044 4.76491 43.6183 4.81281C42.9399 4.79151 42.2659 4.93025 41.6511 5.21781C41.0362 5.50537 40.4977 5.93366 40.0791 6.46802V1.40649H36.6309ZM55.3406 17.542C58.8798 17.542 60.9026 15.8639 60.9026 12.7382V5.08452H57.4553V12.8531C57.4776 13.1365 57.4381 13.4213 57.3397 13.688C57.2413 13.9546 57.0863 14.1968 56.8853 14.3978C56.6843 14.5988 56.4421 14.7538 56.1755 14.8522C55.9088 14.9506 55.624 14.9901 55.3406 14.9678C55.0586 14.9892 54.7753 14.9489 54.5103 14.8499C54.2454 14.7508 54.0052 14.5953 53.8064 14.3941C53.6076 14.1929 53.4549 13.9508 53.359 13.6848C53.2631 13.4187 53.2262 13.1349 53.2509 12.8531V5.08452H49.8036V12.7382C49.8006 15.8639 51.8234 17.542 55.3406 17.542ZM62.8565 1.40649V17.2663H66.0281V15.5192C66.4323 16.1807 67.0099 16.7189 67.6982 17.0755C68.3865 17.4321 69.1593 17.5934 69.9328 17.542C72.7368 17.542 75.0353 15.749 75.0353 11.1749C75.0353 6.60088 72.7398 4.81281 69.9328 4.81281C69.2416 4.77791 68.5519 4.90769 67.9207 5.19146C67.2894 5.47523 66.7345 5.90489 66.3018 6.44505V1.40649H62.8565ZM68.901 14.9678C67.4026 14.9678 66.2348 14.0488 66.2348 11.1719C66.2348 8.29505 67.4066 7.37604 68.901 7.37604C70.5991 7.37604 71.5211 8.40992 71.5211 11.1719C71.5211 13.9559 70.5792 14.9678 68.901 14.9678Z" fill="#2E2E2E"></path><defs><linearGradient id="paint0_linear_2_44" x1="0" y1="10.0001" x2="18.53" y2="10.0001" gradientUnits="userSpaceOnUse"><stop stop-color="#70B4AF"></stop><stop offset="1" stop-color="#EE704A"></stop></linearGradient><linearGradient id="paint1_linear_2_44" x1="9.265" y1="10.0001" x2="27.795" y2="10.0001" gradientUnits="userSpaceOnUse"><stop stop-color="#70B4AF"></stop><stop offset="1" stop-color="#EE704A"></stop></linearGradient></defs></svg>