<svg xmlns="http://www.w3.org/2000/svg" width="82" height="87" viewBox="0 0 82 87" fill="none"><path d="M3.22051 50.9436C6.18594 55.8391 13.2292 57.7895 18.8038 55.8186C21.8559 54.7395 24.4176 52.6774 26.0122 49.8602C27.7531 49.8856 29.661 49.848 31.4019 49.8733C32.1495 48.9219 32.8989 48.0008 33.6474 47.0652C33.6547 47.077 33.6625 47.0887 33.6697 47.1004C34.7131 48.788 34.9656 49.1114 34.8712 48.9778C35.1759 49.409 35.8244 49.5587 36.298 49.1876C36.8027 48.7898 37.2448 48.4083 37.6644 48.0276C37.1208 50.4034 31.3483 76.1168 31.4864 76.8782C31.3147 78.0097 31.4768 78.7493 32.4347 79.6544C34.7058 81.7994 51.9906 85.66 54.7609 86.1011C56.7324 86.4216 58.2516 86.9268 59.8623 85.3745C61.7047 84.9107 63.8466 84.2898 65.0679 82.8343C65.6136 82.1841 65.7101 81.5777 65.8805 80.7751C69.5387 63.5433 72.3773 58.9309 79.9484 17.7846C80.6549 13.9444 82.2907 9.31215 80.4821 5.58136C80.2186 5.03798 79.9394 4.50242 79.6577 3.96832C79.6771 2.44803 79.2564 1.47613 78.6235 0.737772C77.1606 -0.885926 72.2758 0.600402 69.4887 1.631C59.3121 5.46299 51.7771 9.61841 48.5942 10.8452C46.3156 11.7065 45.7635 14.2156 45.2758 16.4298C44.841 18.4036 43.0283 25.2946 40.2833 36.8614L26.2467 35.9207C25.0219 32.9469 22.7375 30.4364 19.951 29.0223C11.5118 24.7423 2.15115 31.2612 1.04318 39.7009C0.26076 42.8769 0.73149 46.8343 3.22051 50.9436ZM55.0786 84.1264C52.7869 83.7616 35.4916 79.7895 33.8077 78.2007C33.3794 77.7957 33.3344 77.7534 33.5402 76.7553C33.5519 76.6991 33.3421 77.3878 34.4535 72.0696L60.5927 77.9501C60.4301 78.6369 60.2674 79.3348 60.0936 80.0867C58.8749 85.3129 57.7445 84.5609 55.0786 84.1264ZM47.229 16.8595C47.6255 15.0581 48.0363 13.1948 49.3071 12.7137C52.1015 11.6372 54.7024 10.1737 57.3872 8.95782C63.1112 6.35141 64.8726 5.50612 70.188 3.5047C73.2231 2.38165 76.5506 1.71368 77.1203 2.05678C77.9604 3.03245 77.6628 4.73493 77.3735 6.00665C77.1563 6.93774 61.2878 74.9774 61.0514 76.0028L34.8615 70.1108C36.455 62.542 38.1022 55.0574 39.7802 47.7424L41.0011 49.5698C41.3402 50.0773 42.0605 50.2385 42.6867 49.562L44.9743 47.0924L47.007 50.2781C47.4526 50.9763 48.5537 50.7568 48.9165 50.3511L50.2815 48.8221C50.3439 50.5748 50.693 53.1733 52.4503 53.1733C54.9642 53.1733 56.2849 46.6618 56.6691 44.1727C56.9119 42.5932 57.9803 34.6922 55.1176 34.2443C53.5197 34.0132 52.3623 36.3934 51.6013 38.9816C51.5912 38.9707 51.705 39.0935 50.8225 38.1386C50.6832 37.7942 50.3643 37.5372 49.9692 37.5106L42.3083 36.9971C45.1652 24.9783 46.753 19.0113 47.229 16.8595ZM3.08184 39.4572C4.29199 32.8268 11.8638 27.1615 19.046 30.8061C21.4458 32.0236 23.4152 34.2052 24.4484 36.7918C24.6724 37.3502 24.9764 37.8404 25.5493 37.879L49.3677 39.4753C49.7593 39.9614 50.2165 40.3195 51.9068 42.3687L51.6159 44.324L48.096 48.2667L46.0558 45.0691C45.6363 44.4104 44.5975 44.5556 44.2081 44.9761L41.9594 47.4036L39.9985 44.4695C39.621 43.9052 38.8236 43.7948 38.1463 44.6284C37.471 45.4625 36.7856 46.166 35.9174 46.9109C34.6256 44.8583 34.565 44.7518 34.1893 44.1863C33.7299 43.4937 32.7376 43.7801 32.4191 44.0998C31.5678 44.9538 30.6372 45.7374 29.6672 46.4624C29.3185 46.3112 29.5477 46.4172 25.1679 46.0777C24.7188 45.9262 24.2186 46.0915 23.9803 46.5203C22.2778 49.5802 19.0825 51.7912 15.6411 52.2905C12.173 52.7951 8.49785 51.5633 6.05775 49.0802C3.59616 46.5757 2.45553 42.8882 3.08184 39.4572Z" fill="white"></path><path d="M47.0998 77.5158L43.8387 76.7684C43.301 76.6427 42.7645 76.9819 42.6408 77.5197C42.5171 78.0574 42.8537 78.5945 43.3921 78.7176L46.6545 79.465C47.1754 79.5873 47.7263 79.2642 47.8518 78.7137C47.9748 78.1753 47.6382 77.6388 47.0998 77.5158Z" fill="white"></path><path d="M58.1726 13.2007L63.1121 10.8615C63.6108 10.6252 63.8237 10.0288 63.5873 9.52948C63.351 9.03078 62.7586 8.81789 62.2553 9.05422L57.3159 11.3934C56.8172 11.6297 56.6043 12.2261 56.8406 12.7254C57.0774 13.2262 57.6763 13.4361 58.1726 13.2007Z" fill="white"></path><path d="M14.1971 45.3681C17.2166 43.4038 17.6382 38.7082 14.4803 36.3974C12.0997 34.6586 8.69166 35.1785 6.97181 37.706C5.65957 38.1045 4.88337 42.4037 7.50436 44.8115C9.27933 46.4425 12.1554 46.6965 14.1971 45.3681ZM7.85136 39.9221C8.05254 39.8154 8.2166 39.6402 8.30709 39.4195C9.1212 37.4426 11.589 36.7605 13.2999 38.012C15.3383 39.5036 14.9416 42.4974 13.1059 43.6923C11.837 44.5185 9.97246 44.3609 8.85722 43.3388C7.94967 42.5048 7.57402 41.1259 7.85136 39.9221Z" fill="white"></path><path d="M6.84719 26.6902C7.19696 27.1216 7.82639 27.1845 8.25344 26.8386C8.68312 26.491 8.74953 25.8614 8.40187 25.4324L2.73651 18.4311C2.39015 18.002 1.75929 17.9363 1.33026 18.2826C0.90057 18.6303 0.834163 19.2598 1.18182 19.6889L6.84719 26.6902Z" fill="white"></path><path d="M13.4912 23.5881L14.5745 13.2288C14.6318 12.6793 14.2333 12.1877 13.6839 12.1298C13.1468 12.0881 12.6428 12.4716 12.5849 13.0204L11.5016 23.3798C11.4443 23.9293 11.8427 24.4208 12.3922 24.4788C12.9713 24.5324 13.4358 24.1147 13.4912 23.5881Z" fill="white"></path><path d="M19.7673 24.9819L24.0869 16.9747C24.3493 16.489 24.1677 15.8822 23.6813 15.6199C23.195 15.3582 22.5882 15.5378 22.3265 16.0255L18.0069 24.0326C17.7445 24.5183 17.9261 25.1251 18.4125 25.3875C18.8975 25.6488 19.5044 25.4688 19.7673 24.9819Z" fill="white"></path></svg>