<svg xmlns="http://www.w3.org/2000/svg" width="552" height="562" viewBox="0 0 552 562" fill="none"><path fill-rule="evenodd" clip-rule="evenodd" d="M36.8988 198C17.0166 198 0.898804 214.118 0.898804 234L0.898804 525.399C0.898804 545.281 17.0166 561.399 36.8988 561.399H286.5C306.382 561.399 322.5 545.281 322.5 525.399V474.601C322.5 454.719 338.618 438.601 358.5 438.601H515.101C534.983 438.601 551.101 422.483 551.101 402.601V36.6011C551.101 16.7188 534.983 0.601074 515.101 0.601074H214C194.118 0.601074 178 16.7188 178 36.6011V162C178 181.882 161.882 198 142 198H36.8988Z" fill="black"></path></svg>