<svg xmlns="http://www.w3.org/2000/svg" width="84" height="86" viewBox="0 0 84 86" fill="none"><path fill-rule="evenodd" clip-rule="evenodd" d="M82.0143 36.9256C81.9942 31.3388 76.1114 29.4163 71.7033 28.7916C71.8269 36.5939 71.811 44.5956 71.8715 52.3975C76.259 48.1621 81.3308 43.2762 82.0143 36.9256ZM69.4942 64.6445C69.4855 62.3163 69.5052 59.9914 69.5137 57.6654C67.3219 59.4647 65.6212 60.8059 63.3052 62.4675C63.3236 66.6547 62.98 70.161 62.2793 73.9907C62.892 73.9555 67.1279 74.0951 67.6261 73.9539C68.747 73.6932 69.4599 72.734 69.4615 71.6256L69.4942 64.6445ZM59.8561 73.9798C60.3511 73.9808 60.8451 73.984 61.3413 73.9862C60.9106 70.9353 61.0082 67.4062 60.7627 64.2521C55.6714 67.7021 50.5348 70.923 45.1494 73.8846L59.8561 73.9798ZM30.8998 77.599C31.599 77.3138 32.2959 77.0199 32.9918 76.7206C9.01457 76.7586 12.5629 79.6857 12.2721 56.0826C-7.7463 79.2504 6.01037 88.4607 30.8998 77.599ZM47.4856 41.1002C51.4525 37.1079 49.1956 29.5754 43.423 28.9592C38.5387 28.093 34.2947 33.256 35.7535 37.8982C36.4005 40.0689 38.053 41.7818 39.9622 42.9552C41.5354 42.7383 43.7522 42.7702 45.3489 42.9942C45.7778 42.8805 47.1146 41.5736 47.4856 41.1002ZM48.2358 68.9237C45.3981 70.5621 42.048 72.4004 39.1005 73.8923C34.4826 73.9032 28.0119 73.98 23.4537 73.928C23.4907 71.5305 23.6681 66.3854 23.7663 64.2438C23.9303 61.3022 24.2694 58.6942 25.6326 56.0006C33.6148 39.8318 57.7035 43.4347 60.4489 61.3387C56.5491 64.0255 52.3021 66.5743 48.2358 68.9237ZM15.1358 22.358C15.063 19.5551 18.6701 19.8155 20.5401 19.8441C22.091 19.7779 23.6626 19.7872 25.1918 19.7056C32.6553 19.5917 40.252 19.7032 47.6692 19.0391C48.6375 20.7338 49.1688 22.7504 49.3953 24.6612C49.6412 26.1568 51.6991 26.1404 51.9575 24.7012C52.2497 22.8571 52.768 20.9309 53.7541 19.3307C56.7431 19.6341 59.8833 19.3487 62.8983 19.6149C64.095 19.7335 67.3395 19.2057 68.3642 19.9205C69.4171 20.5458 69.8019 21.4201 69.7777 22.5458C69.7469 23.7039 69.7507 26.2614 69.7385 27.3795C69.5106 35.1418 69.5898 46.6165 69.5181 54.4759C67.3324 56.3255 65.3261 57.9231 62.9644 59.5893C61.6345 51.8213 55.3716 45.2437 47.6597 43.4541C55.4443 38.7582 51.6045 26.0162 42.5637 26.0937C33.1113 25.7332 28.5288 38.6885 37.0631 43.5403C29.7118 45.5048 23.7602 51.5446 22.1774 58.9604C21.0568 63.1494 22.2596 69.6565 22.5638 73.9309C20.4144 73.6562 15.0104 75.117 15.2621 71.4061C15.1411 56.5441 15.3083 37.1358 15.1358 22.358ZM54.072 18.808C54.0133 18.9052 53.9547 19.0025 53.8928 19.1009C54.1468 19.089 54.4009 19.0783 54.6613 19.0664C53.9689 19.0102 54.4308 19.0019 54.7459 18.8698C54.5919 18.8188 54.3163 18.822 54.072 18.808ZM71.6913 28.2255C71.6945 28.3303 71.6957 28.4361 71.6978 28.54C71.8628 28.5432 72.0257 28.5486 72.194 28.5573C71.7696 28.4295 71.9285 28.5113 72.2711 28.3671C72.1441 28.2871 71.8715 28.2784 71.6913 28.2255ZM83.5309 40.1277C81.6076 46.3432 76.5701 51.2663 71.8867 55.6007L71.9778 71.4085C72.184 74.0967 69.827 76.641 67.0731 76.579C59.0419 76.5528 47.681 76.6493 39.7744 76.697C29.7171 81.3814 6.96888 92.4866 0.535101 78.1517C-2.13039 69.139 5.69317 60.1308 12.2686 54.8661C12.3258 48.2776 12.215 33.392 12.3555 27.022C12.321 22.6789 11.6555 17.6744 17.5555 17.2923C24.5537 17.3 31.4608 17.5833 38.4587 17.8996C40.764 18.0571 45.2523 18.1775 47.4823 18.7164C47.1615 17.6641 46.0911 16.6137 45.4078 15.7735C45.0137 15.3262 44.281 15.0959 44.2364 14.8877C43.564 14.1915 42.1485 14.0623 41.8079 13.0555C42.0986 13.2148 42.2258 13.396 42.6417 13.5567C42.4093 13.353 42.5495 13.483 42.7991 13.4196C42.7732 13.3354 42.6114 13.2942 42.5755 13.2294C46.2979 13.7296 49.2828 16.6476 50.5904 20.0627C51.6161 17.3351 53.4794 14.7867 55.8784 13.0944C53.5088 11.5609 51.7665 9.60287 50.6339 7.01206C49.2792 9.92985 46.5979 12.6996 43.2452 13.0318C43.2056 13.0314 42.7872 12.7087 42.0716 13.0557C42.4785 12.6643 42.2118 12.744 42.5373 12.5566C43.1218 12.2199 42.8864 12.2317 43.2103 12.064C43.8912 11.7116 43.8498 11.4727 44.0799 11.3489L45.0082 10.6856C46.4114 9.42433 47.3989 7.76579 48.0607 6.06585C48.358 5.07925 49.1659 2.77159 49.1802 1.75207H49.2126C49.2481 -0.28031 52.1125 -0.274453 52.1448 1.75207H52.1773C52.6371 5.56336 54.7364 9.39525 58.224 11.1913C58.7005 11.3616 58.8219 11.4458 59.4214 11.6365C60.6886 12.0392 60.9325 13.8946 59.4214 14.4767C57.2233 15.249 55.3992 16.7688 54.1312 18.7139C57.4372 18.6436 65.0355 17.959 68.3798 18.3235C72.6214 19.4549 71.3729 24.9003 71.6909 28.179C78.3814 27.7299 85.9774 32.6972 83.5309 40.1277ZM18.0256 35.5049C18.3886 36.5091 19.3853 36.4665 19.7396 37.2465L20.2705 37.6755C21.7366 39.7492 22.3885 42.2453 22.6458 44.7226C22.8098 46.2244 25.0101 46.265 25.2133 44.7475C25.3925 43.4086 25.5981 42.3041 26.1621 41.0408C26.9113 39.2344 28.1499 37.5862 29.9204 36.7593C31.0494 36.1987 31.0252 34.5197 29.8011 34.0379L29.0607 33.6943C26.7794 31.9996 25.65 29.165 25.4337 26.3801H25.3815C25.3572 24.3958 22.5096 24.3779 22.4808 26.3801H22.4299C22.3838 27.5778 22.0063 29.0691 21.6483 30.1842C21.5193 31.1629 20.9003 32.243 20.3075 33.0902C20.1218 33.4146 19.8245 33.6204 19.5617 33.8714C19.4224 34.0043 19.4204 34.2705 19.0515 34.5034C18.7629 34.6858 19.0896 34.6373 18.6226 34.9356C18.4063 35.0737 18.5295 35.0372 18.2849 35.4292C18.8313 35.0996 19.1819 35.4191 19.2576 35.4163C21.279 35.1858 22.9661 33.4992 23.8574 31.7484C24.5781 33.2294 25.4453 34.4188 26.7474 35.4724C25.4822 36.721 24.4135 38.3535 23.814 39.9958C23.0063 37.9669 20.9322 35.8864 18.6975 35.5954C18.716 35.6602 18.8473 35.696 18.857 35.778C18.6283 35.8604 18.5321 35.7119 18.7127 35.9216C18.3401 35.7634 18.2486 35.5778 18.0213 35.429C18.0223 35.4607 18.0181 35.4791 18.0256 35.5049Z" fill="white"></path></svg>