<svg xmlns="http://www.w3.org/2000/svg" width="665" height="207" viewBox="0 0 665 207" fill="none"><path d="M373.601 7.8106C250.407 22.2869 177.299 77.8194 210.309 131.846C243.318 185.872 369.946 217.934 493.139 203.458C616.332 188.981 689.441 133.449 656.431 79.4224C623.422 25.3959 496.794 -6.66574 373.601 7.8106Z" fill="url(#paint0_linear_11_15)"></path><path d="M287.591 203.097C446.423 203.097 575.182 157.732 575.182 101.773C575.182 45.8127 446.423 0.448242 287.591 0.448242C128.759 0.448242 0 45.8127 0 101.773C0 157.732 128.759 203.097 287.591 203.097Z" fill="url(#paint1_linear_11_15)"></path><defs><linearGradient id="paint0_linear_11_15" x1="223.911" y1="127.798" x2="637.76" y2="206.04" gradientUnits="userSpaceOnUse"><stop stop-color="#001AFF"></stop><stop offset="1" stop-color="#6EE5C2"></stop></linearGradient><linearGradient id="paint1_linear_11_15" x1="39.0143" y1="119.886" x2="350.965" y2="-101.528" gradientUnits="userSpaceOnUse"><stop stop-color="#FFC83A"></stop><stop offset="0.504191" stop-color="#FF008A"></stop><stop offset="1" stop-color="#6100FF"></stop></linearGradient></defs></svg>