<svg xmlns="http://www.w3.org/2000/svg" xmlns:xlink="http://www.w3.org/1999/xlink" width="500" zoomAndPan="magnify" viewBox="0 0 375 374.999991" height="500" preserveAspectRatio="xMidYMid meet" version="1.0"><path fill="#ffffff" d="M 302.820312 209.851562 C 299.769531 217.667969 303.671875 226.335938 311.367188 229.386719 C 319.179688 232.441406 327.851562 228.535156 330.902344 220.84375 L 368.507812 124.753906 C 371.4375 117.0625 367.65625 108.394531 359.957031 105.339844 C 352.148438 102.285156 343.476562 106.074219 340.425781 113.886719 Z M 34.578125 289.703125 C 31.527344 297.519531 22.859375 301.300781 15.167969 298.25 C 7.355469 295.195312 3.570312 286.527344 6.621094 278.835938 L 72.429688 110.222656 C 77.191406 98.257812 86.347656 89.222656 97.335938 84.339844 C 108.324219 79.578125 121.144531 78.847656 133.109375 83.609375 L 133.355469 83.609375 C 145.320312 88.371094 154.355469 97.527344 159.117188 108.394531 C 163.878906 119.378906 164.609375 132.078125 159.972656 144.042969 L 159.847656 144.289062 L 116.628906 254.050781 L 116.507812 254.171875 L 116.382812 254.660156 C 114.917969 258.691406 115.285156 263.085938 116.871094 266.871094 C 118.582031 270.53125 121.511719 273.707031 125.539062 275.417969 C 126.027344 275.664062 126.519531 275.90625 127.003906 276.03125 C 131.035156 277.371094 135.308594 277.003906 139.09375 275.417969 C 142.757812 273.832031 145.929688 270.898438 147.640625 266.996094 C 147.882812 266.382812 148.128906 265.648438 148.371094 265.039062 L 199.652344 133.421875 L 200.996094 130.003906 C 200.996094 129.761719 201.117188 129.515625 201.242188 129.273438 C 211.863281 101.679688 225.902344 66.636719 269.367188 83.488281 L 269.488281 83.488281 C 269.734375 83.609375 269.976562 83.730469 270.34375 83.855469 C 281.945312 88.617188 290.734375 97.648438 295.375 108.394531 C 300.257812 119.378906 300.867188 132.078125 296.226562 144.167969 L 296.347656 144.167969 L 296.226562 144.167969 C 296.226562 144.410156 296.105469 144.65625 295.980469 144.902344 L 266.316406 220.84375 C 263.261719 228.535156 254.472656 232.441406 246.78125 229.386719 C 239.089844 226.335938 235.179688 217.667969 238.230469 209.851562 L 268.023438 133.910156 L 268.148438 133.421875 L 268.148438 133.300781 C 269.855469 129.027344 269.613281 124.507812 267.902344 120.480469 C 266.191406 116.695312 263.140625 113.519531 258.988281 111.8125 L 258.746094 111.6875 L 258.621094 111.566406 C 242.871094 105.464844 235.179688 124.753906 229.199219 140.136719 C 229.199219 140.382812 229.074219 140.625 228.957031 140.867188 L 227.730469 144.289062 L 175.964844 277.003906 C 171.328125 289.089844 162.167969 298.125 151.179688 303.011719 C 140.433594 307.652344 127.984375 308.386719 116.140625 304.109375 C 115.894531 303.988281 115.527344 303.867188 115.285156 303.742188 L 115.164062 303.742188 C 103.199219 298.984375 94.160156 289.828125 89.402344 278.960938 C 84.640625 268.335938 83.90625 255.882812 88.179688 244.164062 C 88.300781 243.796875 88.421875 243.550781 88.546875 243.183594 L 88.546875 243.0625 L 131.890625 133.300781 C 133.597656 129.027344 133.230469 124.507812 131.523438 120.480469 C 129.8125 116.574219 126.640625 113.277344 122.367188 111.6875 L 122.246094 111.566406 C 117.972656 109.976562 113.453125 110.222656 109.425781 111.933594 C 105.515625 113.644531 102.21875 116.941406 100.511719 121.210938 L 34.578125 289.703125 " fill-opacity="1" fill-rule="nonzero"/></svg>