<svg xmlns="http://www.w3.org/2000/svg" xmlns:xlink="http://www.w3.org/1999/xlink" width="500" viewBox="0 0 375 374.999991" height="500" preserveAspectRatio="xMidYMid meet"><defs><g></g><clipPath id="24546846a6"><path d="M 186.96875 268.6875 L 228 268.6875 L 228 278.410156 L 186.96875 278.410156 Z M 186.96875 268.6875 " clip-rule="nonzero"></path></clipPath><clipPath id="03e78570ec"><path d="M 186.96875 203.421875 L 228 203.421875 L 228 213.148438 L 186.96875 213.148438 Z M 186.96875 203.421875 " clip-rule="nonzero"></path></clipPath><clipPath id="b709fdd9f4"><path d="M 186.96875 138.160156 L 228 138.160156 L 228 147.886719 L 186.96875 147.886719 Z M 186.96875 138.160156 " clip-rule="nonzero"></path></clipPath><clipPath id="80c66cf352"><path d="M 186.96875 246.933594 L 228 246.933594 L 228 256.65625 L 186.96875 256.65625 Z M 186.96875 246.933594 " clip-rule="nonzero"></path></clipPath><clipPath id="57e215d8d0"><path d="M 186.96875 181.667969 L 228 181.667969 L 228 191.394531 L 186.96875 191.394531 Z M 186.96875 181.667969 " clip-rule="nonzero"></path></clipPath><clipPath id="0e729e9945"><path d="M 186.96875 116.40625 L 228 116.40625 L 228 126.128906 L 186.96875 126.128906 Z M 186.96875 116.40625 " clip-rule="nonzero"></path></clipPath><clipPath id="02b5a9dd96"><path d="M 186.96875 225.179688 L 228 225.179688 L 228 234.902344 L 186.96875 234.902344 Z M 186.96875 225.179688 " clip-rule="nonzero"></path></clipPath><clipPath id="47395db46c"><path d="M 186.96875 159.914062 L 228 159.914062 L 228 169.640625 L 186.96875 169.640625 Z M 186.96875 159.914062 " clip-rule="nonzero"></path></clipPath><clipPath id="43e8ae40d5"><path d="M 186.96875 94.652344 L 228 94.652344 L 228 104.375 L 186.96875 104.375 Z M 186.96875 94.652344 " clip-rule="nonzero"></path></clipPath></defs><g clip-path="url(#24546846a6)"><path fill="#000000" d="M 186.96875 268.6875 L 227.992188 268.6875 L 227.992188 278.410156 L 186.96875 278.410156 Z M 186.96875 268.6875 " fill-opacity="1" fill-rule="nonzero"></path></g><g clip-path="url(#03e78570ec)"><path fill="#000000" d="M 186.96875 203.421875 L 227.992188 203.421875 L 227.992188 213.148438 L 186.96875 213.148438 Z M 186.96875 203.421875 " fill-opacity="1" fill-rule="nonzero"></path></g><g clip-path="url(#b709fdd9f4)"><path fill="#000000" d="M 186.96875 138.160156 L 227.992188 138.160156 L 227.992188 147.886719 L 186.96875 147.886719 Z M 186.96875 138.160156 " fill-opacity="1" fill-rule="nonzero"></path></g><g clip-path="url(#80c66cf352)"><path fill="#000000" d="M 186.96875 246.933594 L 227.992188 246.933594 L 227.992188 256.65625 L 186.96875 256.65625 Z M 186.96875 246.933594 " fill-opacity="1" fill-rule="nonzero"></path></g><g clip-path="url(#57e215d8d0)"><path fill="#000000" d="M 186.96875 181.667969 L 227.992188 181.667969 L 227.992188 191.394531 L 186.96875 191.394531 Z M 186.96875 181.667969 " fill-opacity="1" fill-rule="nonzero"></path></g><g clip-path="url(#0e729e9945)"><path fill="#000000" d="M 186.96875 116.40625 L 227.992188 116.40625 L 227.992188 126.128906 L 186.96875 126.128906 Z M 186.96875 116.40625 " fill-opacity="1" fill-rule="nonzero"></path></g><g clip-path="url(#02b5a9dd96)"><path fill="#000000" d="M 186.96875 225.179688 L 227.992188 225.179688 L 227.992188 234.902344 L 186.96875 234.902344 Z M 186.96875 225.179688 " fill-opacity="1" fill-rule="nonzero"></path></g><g clip-path="url(#47395db46c)"><path fill="#000000" d="M 186.96875 159.914062 L 227.992188 159.914062 L 227.992188 169.640625 L 186.96875 169.640625 Z M 186.96875 159.914062 " fill-opacity="1" fill-rule="nonzero"></path></g><g clip-path="url(#43e8ae40d5)"><path fill="#000000" d="M 186.96875 94.652344 L 227.992188 94.652344 L 227.992188 104.375 L 186.96875 104.375 Z M 186.96875 94.652344 " fill-opacity="1" fill-rule="nonzero"></path></g><g fill="#000000" fill-opacity="1"><g transform="translate(80.239782, 148.607049)"><g><path d="M 43.671875 -54.0625 L 43.671875 -43.515625 L 29.34375 -43.515625 L 29.34375 0 L 16.171875 0 L 16.171875 -43.515625 L 1.84375 -43.515625 L 1.84375 -54.0625 Z M 43.671875 -54.0625 "></path></g></g></g><g fill="#000000" fill-opacity="1"><g transform="translate(125.756417, 148.607049)"><g><path d="M 51.59375 -54.0625 L 51.59375 0 L 38.4375 0 L 38.4375 -22.25 L 17.9375 -22.25 L 17.9375 0 L 4.78125 0 L 4.78125 -54.0625 L 17.9375 -54.0625 L 17.9375 -32.890625 L 38.4375 -32.890625 L 38.4375 -54.0625 Z M 51.59375 -54.0625 "></path></g></g></g><g fill="#000000" fill-opacity="1"><g transform="translate(24.595568, 215.200673)"><g><path d="M 38.6875 -28.59375 C 41.914062 -27.90625 44.507812 -26.300781 46.46875 -23.78125 C 48.425781 -21.269531 49.40625 -18.398438 49.40625 -15.171875 C 49.40625 -10.515625 47.773438 -6.820312 44.515625 -4.09375 C 41.265625 -1.363281 36.726562 0 30.90625 0 L 4.921875 0 L 4.921875 -55.765625 L 30.03125 -55.765625 C 35.695312 -55.765625 40.128906 -54.46875 43.328125 -51.875 C 46.535156 -49.28125 48.140625 -45.757812 48.140625 -41.3125 C 48.140625 -38.019531 47.273438 -35.289062 45.546875 -33.125 C 43.828125 -30.957031 41.539062 -29.445312 38.6875 -28.59375 Z M 18.515625 -33.203125 L 27.40625 -33.203125 C 29.632812 -33.203125 31.34375 -33.691406 32.53125 -34.671875 C 33.71875 -35.648438 34.3125 -37.09375 34.3125 -39 C 34.3125 -40.90625 33.71875 -42.359375 32.53125 -43.359375 C 31.34375 -44.367188 29.632812 -44.875 27.40625 -44.875 L 18.515625 -44.875 Z M 28.515625 -10.96875 C 30.796875 -10.96875 32.554688 -11.484375 33.796875 -12.515625 C 35.046875 -13.546875 35.671875 -15.039062 35.671875 -17 C 35.671875 -18.957031 35.019531 -20.492188 33.71875 -21.609375 C 32.425781 -22.722656 30.640625 -23.28125 28.359375 -23.28125 L 18.515625 -23.28125 L 18.515625 -10.96875 Z M 28.515625 -10.96875 "></path></g></g></g><g fill="#000000" fill-opacity="1"><g transform="translate(74.71855, 215.200673)"><g><path d="M 39.640625 -9.84375 L 18.828125 -9.84375 L 15.484375 0 L 1.265625 0 L 21.453125 -55.765625 L 37.171875 -55.765625 L 57.359375 0 L 42.96875 0 Z M 36.140625 -20.34375 L 29.234375 -40.75 L 22.40625 -20.34375 Z M 36.140625 -20.34375 "></path></g></g></g><g fill="#000000" fill-opacity="1"><g transform="translate(131.037428, 215.200673)"><g><path d="M 25.109375 0.5625 C 21.023438 0.5625 17.367188 -0.0976562 14.140625 -1.421875 C 10.910156 -2.753906 8.328125 -4.71875 6.390625 -7.3125 C 4.460938 -9.90625 3.445312 -13.03125 3.34375 -16.6875 L 17.796875 -16.6875 C 18.003906 -14.613281 18.71875 -13.035156 19.9375 -11.953125 C 21.15625 -10.867188 22.742188 -10.328125 24.703125 -10.328125 C 26.710938 -10.328125 28.300781 -10.789062 29.46875 -11.71875 C 30.632812 -12.644531 31.21875 -13.925781 31.21875 -15.5625 C 31.21875 -16.945312 30.753906 -18.085938 29.828125 -18.984375 C 28.898438 -19.890625 27.757812 -20.628906 26.40625 -21.203125 C 25.0625 -21.785156 23.144531 -22.453125 20.65625 -23.203125 C 17.050781 -24.304688 14.109375 -25.414062 11.828125 -26.53125 C 9.554688 -27.644531 7.597656 -29.285156 5.953125 -31.453125 C 4.316406 -33.628906 3.5 -36.460938 3.5 -39.953125 C 3.5 -45.140625 5.378906 -49.203125 9.140625 -52.140625 C 12.898438 -55.085938 17.796875 -56.5625 23.828125 -56.5625 C 29.972656 -56.5625 34.925781 -55.085938 38.6875 -52.140625 C 42.445312 -49.203125 44.457031 -45.113281 44.71875 -39.875 L 30.03125 -39.875 C 29.925781 -41.675781 29.265625 -43.09375 28.046875 -44.125 C 26.828125 -45.15625 25.265625 -45.671875 23.359375 -45.671875 C 21.710938 -45.671875 20.382812 -45.234375 19.375 -44.359375 C 18.375 -43.492188 17.875 -42.238281 17.875 -40.59375 C 17.875 -38.789062 18.71875 -37.382812 20.40625 -36.375 C 22.101562 -35.375 24.753906 -34.289062 28.359375 -33.125 C 31.960938 -31.90625 34.890625 -30.738281 37.140625 -29.625 C 39.390625 -28.519531 41.332031 -26.90625 42.96875 -24.78125 C 44.613281 -22.664062 45.4375 -19.941406 45.4375 -16.609375 C 45.4375 -13.429688 44.628906 -10.539062 43.015625 -7.9375 C 41.398438 -5.34375 39.054688 -3.273438 35.984375 -1.734375 C 32.910156 -0.203125 29.285156 0.5625 25.109375 0.5625 Z M 25.109375 0.5625 "></path></g></g></g><g fill="#000000" fill-opacity="1"><g transform="translate(111.137817, 279.197666)"><g><path d="M 66.90625 -54.8125 L 66.90625 0 L 53.5625 0 L 53.5625 -32.875 L 41.296875 0 L 30.53125 0 L 18.1875 -32.953125 L 18.1875 0 L 4.84375 0 L 4.84375 -54.8125 L 20.609375 -54.8125 L 36 -16.859375 L 51.21875 -54.8125 Z M 66.90625 -54.8125 "></path></g></g></g><g fill="#000000" fill-opacity="1"><g transform="translate(232.805248, 278.720009)"><g><path d="M 53.875 0 L 40.515625 0 L 18.1875 -33.8125 L 18.1875 0 L 4.84375 0 L 4.84375 -54.8125 L 18.1875 -54.8125 L 40.515625 -20.84375 L 40.515625 -54.8125 L 53.875 -54.8125 Z M 53.875 0 "></path></g></g></g><g fill="#000000" fill-opacity="1"><g transform="translate(287.996006, 278.720009)"><g><path d="M 44.265625 -54.8125 L 44.265625 -44.109375 L 29.75 -44.109375 L 29.75 0 L 16.390625 0 L 16.390625 -44.109375 L 1.875 -44.109375 L 1.875 -54.8125 Z M 44.265625 -54.8125 "></path></g></g></g></svg>