<svg xmlns="http://www.w3.org/2000/svg" xmlns:xlink="http://www.w3.org/1999/xlink" width="500" viewBox="0 0 375 374.999991" height="500" preserveAspectRatio="xMidYMid meet"><defs><g></g><clipPath id="e1fd51d8ee"><path d="M 160.289062 147.144531 L 227.90625 147.144531 L 227.90625 214.761719 L 160.289062 214.761719 Z M 160.289062 147.144531 " clip-rule="nonzero"></path></clipPath><clipPath id="e1a3115717"><path d="M 194.097656 147.144531 C 175.425781 147.144531 160.289062 162.28125 160.289062 180.953125 C 160.289062 199.625 175.425781 214.761719 194.097656 214.761719 C 212.769531 214.761719 227.90625 199.625 227.90625 180.953125 C 227.90625 162.28125 212.769531 147.144531 194.097656 147.144531 Z M 194.097656 147.144531 " clip-rule="nonzero"></path></clipPath><clipPath id="d4b686aab8"><path d="M 160.289062 130.238281 L 194.097656 130.238281 L 194.097656 164.046875 L 160.289062 164.046875 Z M 160.289062 130.238281 " clip-rule="nonzero"></path></clipPath><clipPath id="dc7fe97f37"><path d="M 177.191406 130.238281 C 167.855469 130.238281 160.289062 137.808594 160.289062 147.144531 C 160.289062 156.480469 167.855469 164.046875 177.191406 164.046875 C 186.527344 164.046875 194.097656 156.480469 194.097656 147.144531 C 194.097656 137.808594 186.527344 130.238281 177.191406 130.238281 Z M 177.191406 130.238281 " clip-rule="nonzero"></path></clipPath><clipPath id="24e9acd04f"><path d="M 140.277344 127.003906 L 234.777344 127.003906 L 234.777344 220.753906 L 140.277344 220.753906 Z M 140.277344 127.003906 " clip-rule="nonzero"></path></clipPath></defs><g clip-path="url(#e1fd51d8ee)"><g clip-path="url(#e1a3115717)"><path fill="#fab713" d="M 160.289062 147.144531 L 227.90625 147.144531 L 227.90625 214.761719 L 160.289062 214.761719 Z M 160.289062 147.144531 " fill-opacity="1" fill-rule="nonzero"></path></g></g><g clip-path="url(#d4b686aab8)"><g clip-path="url(#dc7fe97f37)"><path fill="#ffffff" d="M 160.289062 130.238281 L 194.097656 130.238281 L 194.097656 164.046875 L 160.289062 164.046875 Z M 160.289062 130.238281 " fill-opacity="1" fill-rule="nonzero"></path></g></g><g clip-path="url(#24e9acd04f)"><path fill="#333632" d="M 200.664062 180.535156 C 200.664062 176.898438 197.882812 174.128906 194.398438 174.128906 C 190.925781 174.128906 187.964844 176.898438 187.964844 180.535156 C 187.964844 184.003906 190.925781 186.773438 194.398438 186.773438 C 197.882812 186.773438 200.664062 184.003906 200.664062 180.535156 Z M 210.9375 197.164062 C 209.546875 198.554688 207.289062 198.554688 205.886719 197.164062 C 204.492188 195.78125 204.492188 193.355469 205.886719 191.972656 C 207.453125 190.582031 208.679688 188.679688 209.367188 186.773438 C 210.238281 184.867188 210.757812 182.621094 210.757812 180.535156 C 210.757812 178.289062 210.238281 176.210938 209.546875 174.304688 C 208.679688 172.230469 207.453125 170.496094 205.886719 168.933594 C 204.492188 167.550781 204.492188 165.296875 205.886719 163.910156 C 207.453125 162.527344 209.714844 162.527344 211.117188 163.910156 C 213.195312 165.984375 214.945312 168.585938 216.15625 171.527344 C 217.382812 174.304688 217.894531 177.25 217.894531 180.535156 C 217.894531 183.65625 217.382812 186.773438 216.15625 189.542969 C 214.945312 192.316406 213.195312 194.914062 210.9375 197.164062 Z M 223.125 208.773438 C 221.554688 210.15625 219.296875 210.15625 217.894531 208.773438 C 216.503906 207.382812 216.503906 205.132812 217.894531 203.746094 C 220.855469 200.628906 223.289062 196.992188 225.039062 193.011719 C 226.597656 189.199219 227.476562 184.867188 227.476562 180.535156 C 227.476562 176.03125 226.597656 171.707031 225.039062 167.894531 C 223.289062 163.910156 220.855469 160.277344 217.726562 157.15625 C 216.335938 155.765625 216.335938 153.515625 217.894531 152.132812 C 219.296875 150.746094 221.554688 150.746094 222.945312 152.132812 C 226.597656 155.765625 229.734375 160.277344 231.648438 165.117188 C 233.742188 169.796875 234.777344 174.992188 234.777344 180.535156 C 234.777344 185.90625 233.742188 191.105469 231.648438 195.78125 C 229.734375 200.628906 226.773438 205.132812 223.125 208.773438 Z M 189.183594 147.109375 C 189.183594 143.648438 187.792969 140.355469 185.351562 138.105469 C 183.089844 135.679688 179.785156 134.296875 176.304688 134.296875 C 172.648438 134.296875 169.515625 135.679688 167.078125 138.105469 C 164.816406 140.355469 163.25 143.648438 163.25 147.109375 C 163.25 150.746094 164.640625 153.867188 166.90625 156.117188 C 167.078125 156.289062 167.253906 156.46875 167.425781 156.632812 C 169.691406 158.710938 172.820312 160.097656 176.304688 160.097656 C 179.785156 160.097656 183.089844 158.710938 185.351562 156.289062 C 187.792969 154.035156 189.183594 150.746094 189.183594 147.109375 Z M 156.289062 150.746094 L 143.933594 150.746094 C 141.84375 150.746094 140.277344 149.191406 140.277344 147.109375 C 140.277344 145.203125 141.84375 143.46875 143.933594 143.46875 L 156.289062 143.46875 C 157.160156 139.488281 159.074219 135.851562 161.859375 132.90625 C 165.6875 129.269531 170.734375 127.019531 176.304688 127.019531 C 181.871094 127.019531 186.917969 129.269531 190.574219 132.90625 C 194.234375 136.546875 196.492188 141.566406 196.492188 147.109375 C 196.492188 152.824219 194.234375 157.847656 190.574219 161.488281 C 186.917969 165.121094 181.871094 167.375 176.304688 167.375 C 172.300781 167.375 168.644531 166.164062 165.511719 164.253906 C 164.46875 166.164062 163.597656 168.242188 162.902344 170.316406 C 161.859375 173.4375 161.160156 176.898438 161.160156 180.535156 C 161.160156 189.546875 164.992188 197.859375 170.90625 203.746094 C 177 209.8125 185.179688 213.449219 194.398438 213.449219 C 196.3125 213.449219 198.0625 215.007812 198.0625 217.085938 C 198.0625 218.992188 196.3125 220.722656 194.398438 220.722656 C 183.265625 220.722656 173.171875 216.21875 165.859375 208.945312 C 158.550781 201.667969 154.027344 191.621094 154.027344 180.535156 C 154.027344 176.210938 154.722656 171.878906 155.941406 168.070312 C 156.984375 164.953125 158.378906 162.011719 160.117188 159.234375 C 158.203125 156.8125 156.984375 153.867188 156.289062 150.746094 Z M 182.046875 147.109375 C 182.046875 143.992188 179.433594 141.394531 176.304688 141.394531 C 172.996094 141.394531 170.386719 143.992188 170.386719 147.109375 C 170.386719 150.402344 172.996094 153 176.304688 153 C 179.433594 153 182.046875 150.402344 182.046875 147.109375 Z M 182.046875 147.109375 " fill-opacity="1" fill-rule="evenodd"></path></g><g fill="#333632" fill-opacity="1"><g transform="translate(86.605014, 258.519236)"><g><path d="M 25.421875 -28.375 C 25.421875 -30.375 24.0625 -31.40625 21.578125 -31.40625 L 4.984375 -31.40625 C 2.5 -31.40625 1.140625 -30.328125 1.140625 -28.375 C 1.140625 -26.421875 2.5 -25.296875 5.03125 -25.296875 C 6.390625 -25.34375 7.703125 -25.34375 8.96875 -25.34375 C 8.96875 -22.171875 9.015625 -18.953125 9.015625 -15.734375 C 9.015625 -11.734375 8.96875 -7.796875 8.921875 -3.859375 C 8.921875 -1.359375 10.296875 0 12.78125 0 L 13.59375 0 C 16.09375 0 17.453125 -1.359375 17.40625 -3.859375 C 17.40625 -7.84375 17.40625 -11.734375 17.40625 -15.734375 L 17.40625 -25.34375 C 18.765625 -25.34375 20.078125 -25.34375 21.53125 -25.296875 C 24.0625 -25.296875 25.421875 -26.421875 25.421875 -28.375 Z M 25.421875 -28.375 "></path></g></g></g><g fill="#333632" fill-opacity="1"><g transform="translate(113.163583, 258.519236)"><g><path d="M 28.109375 -15.734375 C 28.109375 -19.671875 28.109375 -23.609375 28.109375 -27.5625 C 28.15625 -30.046875 26.78125 -31.40625 24.296875 -31.40625 L 23.4375 -31.40625 C 20.9375 -31.40625 19.578125 -30.046875 19.625 -27.5625 C 19.671875 -24.5625 19.671875 -21.578125 19.671875 -18.578125 L 11.875 -18.578125 C 11.875 -21.578125 11.875 -24.5625 11.875 -27.5625 C 11.921875 -30.046875 10.5625 -31.40625 8.0625 -31.40625 L 7.25 -31.40625 C 4.765625 -31.40625 3.40625 -30.046875 3.4375 -27.5625 C 3.4375 -23.609375 3.484375 -19.671875 3.484375 -15.734375 C 3.484375 -11.78125 3.4375 -7.84375 3.4375 -3.859375 C 3.40625 -1.359375 4.765625 0 7.25 0 L 8.0625 0 C 10.5625 0 11.921875 -1.359375 11.875 -3.859375 C 11.875 -6.703125 11.875 -9.515625 11.875 -12.328125 L 19.671875 -12.328125 C 19.671875 -9.515625 19.671875 -6.703125 19.625 -3.859375 C 19.578125 -1.359375 20.9375 0 23.4375 0 L 24.296875 0 C 26.78125 0 28.15625 -1.359375 28.109375 -3.859375 C 28.109375 -7.84375 28.0625 -11.78125 28.109375 -15.734375 Z M 28.109375 -15.734375 "></path></g></g></g><g fill="#333632" fill-opacity="1"><g transform="translate(144.707556, 258.519236)"><g><path d="M 11.875 -6.03125 L 11.875 -12.515625 C 13.78125 -12.46875 15.6875 -12.46875 17.5 -12.421875 C 19.984375 -12.421875 21.34375 -13.5 21.34375 -15.5 C 21.34375 -17.453125 19.984375 -18.546875 17.5 -18.546875 C 15.6875 -18.5 13.78125 -18.5 11.875 -18.453125 L 11.875 -25.390625 C 14.375 -25.34375 16.90625 -25.34375 19.3125 -25.296875 C 21.796875 -25.296875 23.15625 -26.375 23.15625 -28.375 C 23.15625 -30.328125 21.796875 -31.40625 19.3125 -31.40625 L 7.25 -31.40625 C 4.765625 -31.40625 3.40625 -30.046875 3.4375 -27.5625 C 3.4375 -23.609375 3.484375 -19.671875 3.484375 -15.734375 C 3.484375 -11.78125 3.4375 -7.84375 3.4375 -3.859375 C 3.40625 -1.359375 4.765625 0 7.25 0 L 19.765625 0 C 22.25 0 23.609375 -1.09375 23.609375 -3.078125 C 23.609375 -5.03125 22.25 -6.125 19.765625 -6.125 C 17.21875 -6.078125 14.546875 -6.078125 11.875 -6.03125 Z M 11.875 -6.03125 "></path></g></g></g><g fill="#333632" fill-opacity="1"><g transform="translate(170.314367, 258.519236)"><g></g></g></g><g fill="#333632" fill-opacity="1"><g transform="translate(181.644813, 258.519236)"><g><path d="M 7.25 0 L 16.40625 0 C 24.0625 0 27.921875 -4.171875 27.921875 -9.421875 C 27.921875 -13.09375 25.96875 -15.8125 21.71875 -16.234375 L 21.71875 -16.40625 C 24.890625 -17.453125 27.0625 -20.265625 27.0625 -24.296875 C 27.0625 -28.828125 24.109375 -31.40625 15.5 -31.40625 L 7.34375 -31.40625 C 4.84375 -31.40625 3.484375 -30 3.484375 -27.421875 C 3.484375 -15.1875 3.4375 -7.984375 3.40625 -3.859375 C 3.40625 -1.359375 4.765625 0 7.25 0 Z M 11.46875 -18.765625 C 11.46875 -22.03125 11.46875 -24.0625 11.515625 -25.96875 L 14.09375 -25.96875 C 17.359375 -25.96875 19.03125 -25.0625 19.03125 -22.890625 C 19.03125 -20.671875 17.546875 -18.765625 12.875 -18.765625 Z M 11.515625 -5.390625 C 11.46875 -7.296875 11.46875 -9.203125 11.46875 -11.109375 L 11.46875 -14.546875 L 14.78125 -14.546875 C 18.359375 -14.546875 20.078125 -12.78125 20.078125 -10.15625 C 20.078125 -7.109375 17.90625 -5.390625 14.09375 -5.390625 Z M 11.515625 -5.390625 "></path></g></g></g><g fill="#333632" fill-opacity="1"><g transform="translate(211.602516, 258.519236)"><g><path d="M 7.25 0 L 8.0625 0 C 10.5625 0 11.921875 -1.359375 11.921875 -3.859375 L 11.921875 -27.5625 C 11.921875 -30.046875 10.5625 -31.40625 8.0625 -31.40625 L 7.25 -31.40625 C 4.765625 -31.40625 3.40625 -30.046875 3.40625 -27.5625 L 3.40625 -3.859375 C 3.40625 -1.359375 4.765625 0 7.25 0 Z M 7.25 0 "></path></g></g></g><g fill="#333632" fill-opacity="1"><g transform="translate(226.921286, 258.519236)"><g><path d="M 7.25 0 L 8.0625 0 C 10.5625 0 11.921875 -1.359375 11.921875 -3.859375 C 11.875 -6.34375 11.875 -8.84375 11.875 -11.328125 L 13.546875 -11.328125 C 17.21875 -11.328125 18.453125 -7.984375 19.078125 -3.671875 C 19.453125 -1.21875 20.765625 0 23.15625 0 L 24.609375 0 C 27.28125 0 28.6875 -1.625 28.109375 -4.34375 C 26.828125 -9.96875 24.96875 -12.78125 21.984375 -13.6875 L 21.984375 -13.875 C 25.84375 -14.828125 28.1875 -17.90625 28.1875 -21.984375 C 28.1875 -28.609375 24.25 -31.40625 15.046875 -31.40625 L 7.25 -31.40625 C 4.765625 -31.40625 3.40625 -30.046875 3.40625 -27.5625 C 3.4375 -23.609375 3.484375 -19.671875 3.484375 -15.734375 C 3.484375 -11.734375 3.4375 -7.796875 3.40625 -3.859375 C 3.40625 -1.359375 4.765625 0 7.25 0 Z M 11.875 -16.3125 C 11.875 -20.578125 11.875 -22.890625 11.921875 -25.15625 L 14.09375 -25.15625 C 17.859375 -25.15625 19.453125 -23.984375 19.453125 -21.171875 C 19.453125 -17.71875 17.671875 -16.3125 13.421875 -16.3125 Z M 11.875 -16.3125 "></path></g></g></g><g fill="#333632" fill-opacity="1"><g transform="translate(257.830746, 258.519236)"><g><path d="M 13.734375 0.046875 C 24.03125 0 28.28125 -5.125 28.28125 -16.140625 C 28.28125 -27.203125 24.03125 -31.40625 13.734375 -31.40625 L 7.34375 -31.40625 C 4.84375 -31.40625 3.484375 -30 3.484375 -27.375 C 3.484375 -13.640625 3.4375 -7.890625 3.40625 -3.765625 C 3.40625 -1.3125 4.765625 0 7.25 0 Z M 11.921875 -6.25 C 11.875 -7.796875 11.875 -9.46875 11.875 -11.109375 C 11.875 -18.859375 11.875 -22.03125 11.921875 -25.15625 L 13.546875 -25.15625 C 18.453125 -25.15625 19.90625 -22.671875 19.90625 -15.734375 C 19.90625 -9.65625 18.265625 -6.25 13.546875 -6.25 Z M 11.921875 -6.25 "></path></g></g></g><g fill="#373435" fill-opacity="1"><g transform="translate(137.172564, 274.807072)"><g><path d="M 7.3125 -3.0625 C 6.9375 -2.265625 6.03125 -1.71875 5.109375 -1.71875 C 3.640625 -1.71875 2.484375 -2.96875 2.484375 -4.515625 C 2.484375 -6.03125 3.640625 -7.296875 5.109375 -7.296875 C 6.015625 -7.296875 6.921875 -6.796875 7.296875 -5.984375 L 9.515625 -5.984375 C 8.90625 -7.828125 7.15625 -9.15625 5.109375 -9.15625 C 2.546875 -9.15625 0.46875 -7.078125 0.46875 -4.515625 C 0.46875 -1.953125 2.546875 0.125 5.109375 0.125 C 7.15625 0.125 8.921875 -1.203125 9.53125 -3.0625 Z M 7.3125 -3.0625 "></path></g></g></g><g fill="#373435" fill-opacity="1"><g transform="translate(152.802555, 274.807072)"><g><path d="M 7.765625 -4.53125 C 7.765625 -3.125 6.5 -1.859375 5.109375 -1.859375 C 3.71875 -1.859375 2.453125 -3.125 2.453125 -4.53125 C 2.453125 -5.921875 3.71875 -7.171875 5.109375 -7.171875 C 6.5 -7.171875 7.765625 -5.921875 7.765625 -4.53125 Z M 9.75 -4.515625 C 9.75 -7 7.59375 -9.15625 5.109375 -9.15625 C 2.609375 -9.15625 0.46875 -7 0.46875 -4.515625 C 0.46875 -2.015625 2.609375 0.125 5.109375 0.125 C 7.59375 0.125 9.75 -2.015625 9.75 -4.515625 Z M 9.75 -4.515625 "></path></g></g></g><g fill="#373435" fill-opacity="1"><g transform="translate(168.790402, 274.807072)"><g><path d="M 12.046875 0 L 10.296875 -9.015625 L 7.9375 -9.015625 L 6.0625 -2.6875 L 4.171875 -9.015625 L 1.8125 -9.015625 L 0.0625 0 L 2.25 0 L 3.3125 -6.21875 L 5.078125 0 L 7.03125 0 L 8.796875 -6.21875 L 9.859375 0 Z M 12.046875 0 "></path></g></g></g><g fill="#373435" fill-opacity="1"><g transform="translate(186.673551, 274.807072)"><g><path d="M 2.78125 -3.21875 L 4.171875 -3.21875 C 5.640625 -3.21875 6.9375 -4.296875 6.9375 -6.125 C 6.9375 -7.84375 5.640625 -9.015625 4.171875 -9.015625 L 0.796875 -9.015625 L 0.796875 0 L 2.78125 0 Z M 3.84375 -7.453125 C 4.4375 -7.453125 5.046875 -6.953125 5.046875 -6.125 C 5.046875 -5.265625 4.4375 -4.78125 3.84375 -4.78125 L 2.78125 -4.78125 L 2.78125 -7.453125 Z M 3.84375 -7.453125 "></path></g></g></g><g fill="#373435" fill-opacity="1"><g transform="translate(199.586508, 274.807072)"><g><path d="M 5.703125 -3.453125 L 3.421875 -3.453125 L 4.5625 -6.65625 Z M 9.078125 0 L 5.40625 -9.015625 L 3.734375 -9.015625 L 0.0625 0 L 2.203125 0 L 2.859375 -1.8125 L 6.28125 -1.8125 L 6.9375 0 Z M 9.078125 0 "></path></g></g></g><g fill="#373435" fill-opacity="1"><g transform="translate(214.500797, 274.807072)"><g><path d="M 7.875 0 L 7.875 -9.015625 L 5.890625 -9.015625 L 5.890625 -3.390625 L 2.78125 -9.015625 L 0.796875 -9.015625 L 0.796875 0 L 2.78125 0 L 2.78125 -5.625 L 5.890625 0 Z M 7.875 0 "></path></g></g></g><g fill="#373435" fill-opacity="1"><g transform="translate(228.951199, 274.807072)"><g><path d="M 3.4375 0 L 5.421875 0 L 5.421875 -4.3125 L 8.75 -9.015625 L 6.375 -9.015625 L 4.4375 -5.90625 L 2.484375 -9.015625 L 0.109375 -9.015625 L 3.4375 -4.3125 Z M 3.4375 0 "></path></g></g></g></svg>