<svg xmlns="http://www.w3.org/2000/svg" xmlns:xlink="http://www.w3.org/1999/xlink" width="98" viewBox="0 0 73.5 32.249999" height="43" preserveAspectRatio="xMidYMid meet"><defs><g></g><clipPath id="7d04aaee9b"><path d="M 21.78125 1.035156 L 51.230469 1.035156 L 51.230469 30.484375 L 21.78125 30.484375 Z M 21.78125 1.035156 " clip-rule="nonzero"></path></clipPath><clipPath id="8f3e85d5fd"><path d="M 37.148438 22.371094 L 40.488281 22.371094 L 40.488281 23.164062 L 37.148438 23.164062 Z M 37.148438 22.371094 " clip-rule="nonzero"></path></clipPath><clipPath id="191a4977a5"><path d="M 37.148438 17.054688 L 40.488281 17.054688 L 40.488281 17.847656 L 37.148438 17.847656 Z M 37.148438 17.054688 " clip-rule="nonzero"></path></clipPath><clipPath id="7cf5f50c08"><path d="M 37.148438 11.742188 L 40.488281 11.742188 L 40.488281 12.53125 L 37.148438 12.53125 Z M 37.148438 11.742188 " clip-rule="nonzero"></path></clipPath><clipPath id="53e439d443"><path d="M 37.148438 20.597656 L 40.488281 20.597656 L 40.488281 21.390625 L 37.148438 21.390625 Z M 37.148438 20.597656 " clip-rule="nonzero"></path></clipPath><clipPath id="055fd3165b"><path d="M 37.148438 15.285156 L 40.488281 15.285156 L 40.488281 16.074219 L 37.148438 16.074219 Z M 37.148438 15.285156 " clip-rule="nonzero"></path></clipPath><clipPath id="13410ea702"><path d="M 37.148438 9.96875 L 40.488281 9.96875 L 40.488281 10.761719 L 37.148438 10.761719 Z M 37.148438 9.96875 " clip-rule="nonzero"></path></clipPath><clipPath id="24ecf970d8"><path d="M 37.148438 18.828125 L 40.488281 18.828125 L 40.488281 19.617188 L 37.148438 19.617188 Z M 37.148438 18.828125 " clip-rule="nonzero"></path></clipPath><clipPath id="0b9510d595"><path d="M 37.148438 13.511719 L 40.488281 13.511719 L 40.488281 14.304688 L 37.148438 14.304688 Z M 37.148438 13.511719 " clip-rule="nonzero"></path></clipPath><clipPath id="fc442b476b"><path d="M 37.148438 8.195312 L 40.488281 8.195312 L 40.488281 8.988281 L 37.148438 8.988281 Z M 37.148438 8.195312 " clip-rule="nonzero"></path></clipPath></defs><g clip-path="url(#7d04aaee9b)"><path fill="#181617" d="M 21.78125 1.035156 L 51.230469 1.035156 L 51.230469 30.484375 L 21.78125 30.484375 Z M 21.78125 1.035156 " fill-opacity="1" fill-rule="nonzero"></path></g><g clip-path="url(#8f3e85d5fd)"><path fill="#ffffff" d="M 37.148438 22.371094 L 40.488281 22.371094 L 40.488281 23.164062 L 37.148438 23.164062 Z M 37.148438 22.371094 " fill-opacity="1" fill-rule="nonzero"></path></g><g clip-path="url(#191a4977a5)"><path fill="#ffffff" d="M 37.148438 17.054688 L 40.488281 17.054688 L 40.488281 17.847656 L 37.148438 17.847656 Z M 37.148438 17.054688 " fill-opacity="1" fill-rule="nonzero"></path></g><g clip-path="url(#7cf5f50c08)"><path fill="#ffffff" d="M 37.148438 11.742188 L 40.488281 11.742188 L 40.488281 12.53125 L 37.148438 12.53125 Z M 37.148438 11.742188 " fill-opacity="1" fill-rule="nonzero"></path></g><g clip-path="url(#53e439d443)"><path fill="#ffffff" d="M 37.148438 20.597656 L 40.488281 20.597656 L 40.488281 21.390625 L 37.148438 21.390625 Z M 37.148438 20.597656 " fill-opacity="1" fill-rule="nonzero"></path></g><g clip-path="url(#055fd3165b)"><path fill="#ffffff" d="M 37.148438 15.285156 L 40.488281 15.285156 L 40.488281 16.074219 L 37.148438 16.074219 Z M 37.148438 15.285156 " fill-opacity="1" fill-rule="nonzero"></path></g><g clip-path="url(#13410ea702)"><path fill="#ffffff" d="M 37.148438 9.96875 L 40.488281 9.96875 L 40.488281 10.761719 L 37.148438 10.761719 Z M 37.148438 9.96875 " fill-opacity="1" fill-rule="nonzero"></path></g><g clip-path="url(#24ecf970d8)"><path fill="#ffffff" d="M 37.148438 18.828125 L 40.488281 18.828125 L 40.488281 19.617188 L 37.148438 19.617188 Z M 37.148438 18.828125 " fill-opacity="1" fill-rule="nonzero"></path></g><g clip-path="url(#0b9510d595)"><path fill="#ffffff" d="M 37.148438 13.511719 L 40.488281 13.511719 L 40.488281 14.304688 L 37.148438 14.304688 Z M 37.148438 13.511719 " fill-opacity="1" fill-rule="nonzero"></path></g><g clip-path="url(#fc442b476b)"><path fill="#ffffff" d="M 37.148438 8.195312 L 40.488281 8.195312 L 40.488281 8.988281 L 37.148438 8.988281 Z M 37.148438 8.195312 " fill-opacity="1" fill-rule="nonzero"></path></g><g fill="#ffffff" fill-opacity="1"><g transform="translate(28.455378, 12.591173)"><g><path d="M 3.546875 -4.40625 L 3.546875 -3.546875 L 2.390625 -3.546875 L 2.390625 0 L 1.3125 0 L 1.3125 -3.546875 L 0.15625 -3.546875 L 0.15625 -4.40625 Z M 3.546875 -4.40625 "></path></g></g></g><g fill="#ffffff" fill-opacity="1"><g transform="translate(32.162145, 12.591173)"><g><path d="M 4.203125 -4.40625 L 4.203125 0 L 3.125 0 L 3.125 -1.8125 L 1.453125 -1.8125 L 1.453125 0 L 0.390625 0 L 0.390625 -4.40625 L 1.453125 -4.40625 L 1.453125 -2.671875 L 3.125 -2.671875 L 3.125 -4.40625 Z M 4.203125 -4.40625 "></path></g></g></g><g fill="#ffffff" fill-opacity="1"><g transform="translate(23.923844, 18.0144)"><g><path d="M 3.15625 -2.328125 C 3.414062 -2.273438 3.625 -2.144531 3.78125 -1.9375 C 3.945312 -1.726562 4.03125 -1.492188 4.03125 -1.234375 C 4.03125 -0.859375 3.894531 -0.554688 3.625 -0.328125 C 3.363281 -0.109375 2.992188 0 2.515625 0 L 0.40625 0 L 0.40625 -4.546875 L 2.4375 -4.546875 C 2.90625 -4.546875 3.269531 -4.4375 3.53125 -4.21875 C 3.789062 -4.007812 3.921875 -3.722656 3.921875 -3.359375 C 3.921875 -3.097656 3.847656 -2.878906 3.703125 -2.703125 C 3.566406 -2.523438 3.382812 -2.398438 3.15625 -2.328125 Z M 1.5 -2.703125 L 2.234375 -2.703125 C 2.410156 -2.703125 2.546875 -2.738281 2.640625 -2.8125 C 2.742188 -2.894531 2.796875 -3.015625 2.796875 -3.171875 C 2.796875 -3.328125 2.742188 -3.445312 2.640625 -3.53125 C 2.546875 -3.613281 2.410156 -3.65625 2.234375 -3.65625 L 1.5 -3.65625 Z M 2.328125 -0.890625 C 2.503906 -0.890625 2.644531 -0.929688 2.75 -1.015625 C 2.851562 -1.097656 2.90625 -1.222656 2.90625 -1.390625 C 2.90625 -1.546875 2.851562 -1.664062 2.75 -1.75 C 2.644531 -1.84375 2.5 -1.890625 2.3125 -1.890625 L 1.5 -1.890625 L 1.5 -0.890625 Z M 2.328125 -0.890625 "></path></g></g></g><g fill="#ffffff" fill-opacity="1"><g transform="translate(28.005741, 18.0144)"><g><path d="M 3.234375 -0.796875 L 1.53125 -0.796875 L 1.265625 0 L 0.109375 0 L 1.75 -4.546875 L 3.03125 -4.546875 L 4.671875 0 L 3.5 0 Z M 2.9375 -1.65625 L 2.375 -3.3125 L 1.828125 -1.65625 Z M 2.9375 -1.65625 "></path></g></g></g><g fill="#ffffff" fill-opacity="1"><g transform="translate(32.592218, 18.0144)"><g><path d="M 2.046875 0.046875 C 1.710938 0.046875 1.410156 -0.00390625 1.140625 -0.109375 C 0.878906 -0.222656 0.671875 -0.382812 0.515625 -0.59375 C 0.359375 -0.800781 0.273438 -1.054688 0.265625 -1.359375 L 1.453125 -1.359375 C 1.460938 -1.191406 1.515625 -1.0625 1.609375 -0.96875 C 1.710938 -0.882812 1.847656 -0.84375 2.015625 -0.84375 C 2.171875 -0.84375 2.296875 -0.878906 2.390625 -0.953125 C 2.492188 -1.023438 2.546875 -1.128906 2.546875 -1.265625 C 2.546875 -1.378906 2.503906 -1.472656 2.421875 -1.546875 C 2.347656 -1.617188 2.253906 -1.675781 2.140625 -1.71875 C 2.035156 -1.769531 1.882812 -1.828125 1.6875 -1.890625 C 1.382812 -1.984375 1.140625 -2.070312 0.953125 -2.15625 C 0.773438 -2.25 0.617188 -2.382812 0.484375 -2.5625 C 0.347656 -2.738281 0.28125 -2.96875 0.28125 -3.25 C 0.28125 -3.675781 0.429688 -4.007812 0.734375 -4.25 C 1.046875 -4.488281 1.445312 -4.609375 1.9375 -4.609375 C 2.4375 -4.609375 2.835938 -4.488281 3.140625 -4.25 C 3.453125 -4.007812 3.617188 -3.675781 3.640625 -3.25 L 2.4375 -3.25 C 2.4375 -3.394531 2.382812 -3.507812 2.28125 -3.59375 C 2.1875 -3.675781 2.0625 -3.71875 1.90625 -3.71875 C 1.769531 -3.71875 1.660156 -3.679688 1.578125 -3.609375 C 1.492188 -3.535156 1.453125 -3.4375 1.453125 -3.3125 C 1.453125 -3.15625 1.519531 -3.035156 1.65625 -2.953125 C 1.800781 -2.878906 2.019531 -2.796875 2.3125 -2.703125 C 2.601562 -2.597656 2.835938 -2.5 3.015625 -2.40625 C 3.203125 -2.320312 3.363281 -2.191406 3.5 -2.015625 C 3.632812 -1.847656 3.703125 -1.628906 3.703125 -1.359375 C 3.703125 -1.097656 3.632812 -0.859375 3.5 -0.640625 C 3.375 -0.429688 3.1875 -0.265625 2.9375 -0.140625 C 2.6875 -0.015625 2.390625 0.046875 2.046875 0.046875 Z M 2.046875 0.046875 "></path></g></g></g><g fill="#ffffff" fill-opacity="1"><g transform="translate(30.971641, 23.226165)"><g><path d="M 5.453125 -4.46875 L 5.453125 0 L 4.359375 0 L 4.359375 -2.671875 L 3.359375 0 L 2.484375 0 L 1.484375 -2.6875 L 1.484375 0 L 0.390625 0 L 0.390625 -4.46875 L 1.671875 -4.46875 L 2.9375 -1.375 L 4.171875 -4.46875 Z M 5.453125 -4.46875 "></path></g></g></g><g fill="#ffffff" fill-opacity="1"><g transform="translate(40.879948, 23.187264)"><g><path d="M 4.390625 0 L 3.296875 0 L 1.484375 -2.75 L 1.484375 0 L 0.390625 0 L 0.390625 -4.46875 L 1.484375 -4.46875 L 3.296875 -1.703125 L 3.296875 -4.46875 L 4.390625 -4.46875 Z M 4.390625 0 "></path></g></g></g><g fill="#ffffff" fill-opacity="1"><g transform="translate(45.374553, 23.187264)"><g><path d="M 3.609375 -4.46875 L 3.609375 -3.59375 L 2.421875 -3.59375 L 2.421875 0 L 1.328125 0 L 1.328125 -3.59375 L 0.15625 -3.59375 L 0.15625 -4.46875 Z M 3.609375 -4.46875 "></path></g></g></g></svg>