<svg xmlns="http://www.w3.org/2000/svg" xmlns:xlink="http://www.w3.org/1999/xlink" width="98" viewBox="0 0 73.5 32.249999" height="43" preserveAspectRatio="xMidYMid meet"><defs><g></g><clipPath id="9719d817a1"><path d="M 30.679688 4.753906 L 45.15625 4.753906 L 45.15625 19.230469 L 30.679688 19.230469 Z M 30.679688 4.753906 " clip-rule="nonzero"></path></clipPath><clipPath id="150f6666fa"><path d="M 37.917969 4.753906 C 33.921875 4.753906 30.679688 7.996094 30.679688 11.992188 C 30.679688 15.988281 33.921875 19.230469 37.917969 19.230469 C 41.914062 19.230469 45.15625 15.988281 45.15625 11.992188 C 45.15625 7.996094 41.914062 4.753906 37.917969 4.753906 Z M 37.917969 4.753906 " clip-rule="nonzero"></path></clipPath><clipPath id="281da39208"><path d="M 30.679688 1.132812 L 37.917969 1.132812 L 37.917969 8.371094 L 30.679688 8.371094 Z M 30.679688 1.132812 " clip-rule="nonzero"></path></clipPath><clipPath id="e10f7d8e95"><path d="M 34.300781 1.132812 C 32.300781 1.132812 30.679688 2.753906 30.679688 4.753906 C 30.679688 6.753906 32.300781 8.371094 34.300781 8.371094 C 36.296875 8.371094 37.917969 6.753906 37.917969 4.753906 C 37.917969 2.753906 36.296875 1.132812 34.300781 1.132812 Z M 34.300781 1.132812 " clip-rule="nonzero"></path></clipPath><clipPath id="22288558d0"><path d="M 26.394531 0.441406 L 46.625 0.441406 L 46.625 20.511719 L 26.394531 20.511719 Z M 26.394531 0.441406 " clip-rule="nonzero"></path></clipPath></defs><g clip-path="url(#9719d817a1)"><g clip-path="url(#150f6666fa)"><path fill="#fab713" d="M 30.679688 4.753906 L 45.15625 4.753906 L 45.15625 19.230469 L 30.679688 19.230469 Z M 30.679688 4.753906 " fill-opacity="1" fill-rule="nonzero"></path></g></g><g clip-path="url(#281da39208)"><g clip-path="url(#e10f7d8e95)"><path fill="#ffffff" d="M 30.679688 1.132812 L 37.917969 1.132812 L 37.917969 8.371094 L 30.679688 8.371094 Z M 30.679688 1.132812 " fill-opacity="1" fill-rule="nonzero"></path></g></g><g clip-path="url(#22288558d0)"><path fill="#333632" d="M 39.324219 11.902344 C 39.324219 11.125 38.730469 10.53125 37.984375 10.53125 C 37.238281 10.53125 36.605469 11.125 36.605469 11.902344 C 36.605469 12.644531 37.238281 13.238281 37.984375 13.238281 C 38.730469 13.238281 39.324219 12.644531 39.324219 11.902344 Z M 41.523438 15.460938 C 41.226562 15.761719 40.742188 15.761719 40.441406 15.460938 C 40.144531 15.167969 40.144531 14.648438 40.441406 14.351562 C 40.777344 14.054688 41.039062 13.644531 41.1875 13.238281 C 41.375 12.832031 41.484375 12.347656 41.484375 11.902344 C 41.484375 11.421875 41.375 10.976562 41.226562 10.570312 C 41.039062 10.125 40.777344 9.753906 40.441406 9.417969 C 40.144531 9.125 40.144531 8.640625 40.441406 8.34375 C 40.777344 8.046875 41.261719 8.046875 41.5625 8.34375 C 42.007812 8.789062 42.382812 9.34375 42.640625 9.972656 C 42.902344 10.570312 43.011719 11.199219 43.011719 11.902344 C 43.011719 12.570312 42.902344 13.238281 42.640625 13.832031 C 42.382812 14.425781 42.007812 14.980469 41.523438 15.460938 Z M 44.132812 17.949219 C 43.796875 18.242188 43.3125 18.242188 43.011719 17.949219 C 42.714844 17.652344 42.714844 17.167969 43.011719 16.871094 C 43.644531 16.203125 44.167969 15.425781 44.542969 14.574219 C 44.875 13.757812 45.0625 12.832031 45.0625 11.902344 C 45.0625 10.9375 44.875 10.011719 44.542969 9.195312 C 44.167969 8.34375 43.644531 7.566406 42.976562 6.898438 C 42.679688 6.601562 42.679688 6.117188 43.011719 5.824219 C 43.3125 5.523438 43.796875 5.523438 44.09375 5.824219 C 44.875 6.601562 45.546875 7.566406 45.957031 8.601562 C 46.40625 9.601562 46.625 10.714844 46.625 11.902344 C 46.625 13.050781 46.40625 14.164062 45.957031 15.167969 C 45.546875 16.203125 44.914062 17.167969 44.132812 17.949219 Z M 36.867188 4.746094 C 36.867188 4.003906 36.566406 3.300781 36.046875 2.820312 C 35.5625 2.300781 34.855469 2.003906 34.109375 2.003906 C 33.324219 2.003906 32.65625 2.300781 32.132812 2.820312 C 31.648438 3.300781 31.3125 4.003906 31.3125 4.746094 C 31.3125 5.523438 31.613281 6.195312 32.097656 6.675781 C 32.132812 6.710938 32.171875 6.75 32.207031 6.785156 C 32.691406 7.230469 33.363281 7.527344 34.109375 7.527344 C 34.855469 7.527344 35.5625 7.230469 36.046875 6.710938 C 36.566406 6.230469 36.867188 5.523438 36.867188 4.746094 Z M 29.824219 5.523438 L 27.179688 5.523438 C 26.730469 5.523438 26.394531 5.191406 26.394531 4.746094 C 26.394531 4.339844 26.730469 3.96875 27.179688 3.96875 L 29.824219 3.96875 C 30.011719 3.113281 30.417969 2.335938 31.015625 1.707031 C 31.835938 0.925781 32.917969 0.445312 34.109375 0.445312 C 35.300781 0.445312 36.382812 0.925781 37.164062 1.707031 C 37.945312 2.484375 38.429688 3.558594 38.429688 4.746094 C 38.429688 5.96875 37.945312 7.046875 37.164062 7.824219 C 36.382812 8.601562 35.300781 9.085938 34.109375 9.085938 C 33.25 9.085938 32.46875 8.824219 31.796875 8.417969 C 31.574219 8.824219 31.386719 9.269531 31.238281 9.714844 C 31.015625 10.382812 30.867188 11.125 30.867188 11.902344 C 30.867188 13.832031 31.6875 15.613281 32.953125 16.871094 C 34.257812 18.171875 36.007812 18.949219 37.984375 18.949219 C 38.394531 18.949219 38.765625 19.28125 38.765625 19.726562 C 38.765625 20.136719 38.394531 20.507812 37.984375 20.507812 C 35.597656 20.507812 33.4375 19.542969 31.871094 17.984375 C 30.308594 16.425781 29.339844 14.277344 29.339844 11.902344 C 29.339844 10.976562 29.488281 10.050781 29.75 9.234375 C 29.972656 8.566406 30.269531 7.9375 30.644531 7.34375 C 30.234375 6.824219 29.972656 6.191406 29.824219 5.523438 Z M 35.339844 4.746094 C 35.339844 4.078125 34.777344 3.523438 34.109375 3.523438 C 33.402344 3.523438 32.839844 4.078125 32.839844 4.746094 C 32.839844 5.453125 33.402344 6.007812 34.109375 6.007812 C 34.777344 6.007812 35.339844 5.453125 35.339844 4.746094 Z M 35.339844 4.746094 " fill-opacity="1" fill-rule="evenodd"></path></g><g fill="#333632" fill-opacity="1"><g transform="translate(14.905291, 28.598002)"><g><path d="M 5.4375 -6.078125 C 5.4375 -6.5 5.15625 -6.71875 4.625 -6.71875 L 1.0625 -6.71875 C 0.53125 -6.71875 0.25 -6.484375 0.25 -6.078125 C 0.25 -5.65625 0.53125 -5.421875 1.078125 -5.421875 C 1.375 -5.421875 1.65625 -5.421875 1.921875 -5.421875 C 1.921875 -4.75 1.9375 -4.0625 1.9375 -3.359375 C 1.9375 -2.515625 1.921875 -1.671875 1.90625 -0.828125 C 1.90625 -0.296875 2.203125 0 2.734375 0 L 2.90625 0 C 3.4375 0 3.734375 -0.296875 3.71875 -0.828125 C 3.71875 -1.671875 3.71875 -2.515625 3.71875 -3.359375 L 3.71875 -5.421875 C 4.015625 -5.421875 4.296875 -5.421875 4.609375 -5.421875 C 5.15625 -5.421875 5.4375 -5.65625 5.4375 -6.078125 Z M 5.4375 -6.078125 "></path></g></g></g><g fill="#333632" fill-opacity="1"><g transform="translate(20.591158, 28.598002)"><g><path d="M 6.015625 -3.359375 C 6.015625 -4.21875 6.015625 -5.0625 6.015625 -5.90625 C 6.03125 -6.4375 5.734375 -6.71875 5.203125 -6.71875 L 5.015625 -6.71875 C 4.484375 -6.71875 4.1875 -6.4375 4.203125 -5.90625 C 4.21875 -5.265625 4.21875 -4.625 4.21875 -3.984375 L 2.546875 -3.984375 C 2.546875 -4.625 2.546875 -5.265625 2.546875 -5.90625 C 2.546875 -6.4375 2.265625 -6.71875 1.734375 -6.71875 L 1.546875 -6.71875 C 1.015625 -6.71875 0.734375 -6.4375 0.734375 -5.90625 C 0.734375 -5.0625 0.75 -4.21875 0.75 -3.359375 C 0.75 -2.515625 0.734375 -1.671875 0.734375 -0.828125 C 0.734375 -0.296875 1.015625 0 1.546875 0 L 1.734375 0 C 2.265625 0 2.546875 -0.296875 2.546875 -0.828125 C 2.546875 -1.4375 2.546875 -2.03125 2.546875 -2.640625 L 4.21875 -2.640625 C 4.21875 -2.03125 4.21875 -1.4375 4.203125 -0.828125 C 4.1875 -0.296875 4.484375 0 5.015625 0 L 5.203125 0 C 5.734375 0 6.03125 -0.296875 6.015625 -0.828125 C 6.015625 -1.671875 6 -2.515625 6.015625 -3.359375 Z M 6.015625 -3.359375 "></path></g></g></g><g fill="#333632" fill-opacity="1"><g transform="translate(27.34434, 28.598002)"><g><path d="M 2.546875 -1.296875 L 2.546875 -2.671875 C 2.953125 -2.671875 3.359375 -2.671875 3.75 -2.65625 C 4.28125 -2.65625 4.5625 -2.890625 4.5625 -3.3125 C 4.5625 -3.734375 4.28125 -3.96875 3.75 -3.96875 C 3.359375 -3.953125 2.953125 -3.953125 2.546875 -3.953125 L 2.546875 -5.4375 C 3.078125 -5.421875 3.625 -5.421875 4.140625 -5.421875 C 4.671875 -5.421875 4.953125 -5.640625 4.953125 -6.078125 C 4.953125 -6.484375 4.671875 -6.71875 4.140625 -6.71875 L 1.546875 -6.71875 C 1.015625 -6.71875 0.734375 -6.4375 0.734375 -5.90625 C 0.734375 -5.0625 0.75 -4.21875 0.75 -3.359375 C 0.75 -2.515625 0.734375 -1.671875 0.734375 -0.828125 C 0.734375 -0.296875 1.015625 0 1.546875 0 L 4.234375 0 C 4.765625 0 5.0625 -0.234375 5.0625 -0.65625 C 5.0625 -1.078125 4.765625 -1.3125 4.234375 -1.3125 C 3.6875 -1.296875 3.109375 -1.296875 2.546875 -1.296875 Z M 2.546875 -1.296875 "></path></g></g></g><g fill="#333632" fill-opacity="1"><g transform="translate(32.826448, 28.598002)"><g></g></g></g><g fill="#333632" fill-opacity="1"><g transform="translate(35.252159, 28.598002)"><g><path d="M 1.546875 0 L 3.515625 0 C 5.15625 0 5.984375 -0.890625 5.984375 -2.015625 C 5.984375 -2.796875 5.5625 -3.390625 4.640625 -3.46875 L 4.640625 -3.515625 C 5.328125 -3.734375 5.796875 -4.34375 5.796875 -5.203125 C 5.796875 -6.171875 5.15625 -6.71875 3.3125 -6.71875 L 1.578125 -6.71875 C 1.03125 -6.71875 0.75 -6.421875 0.75 -5.875 C 0.75 -3.25 0.734375 -1.703125 0.734375 -0.828125 C 0.734375 -0.296875 1.015625 0 1.546875 0 Z M 2.453125 -4.015625 C 2.453125 -4.71875 2.453125 -5.15625 2.46875 -5.5625 L 3.015625 -5.5625 C 3.71875 -5.5625 4.078125 -5.359375 4.078125 -4.90625 C 4.078125 -4.421875 3.75 -4.015625 2.75 -4.015625 Z M 2.46875 -1.15625 C 2.453125 -1.5625 2.453125 -1.96875 2.453125 -2.375 L 2.453125 -3.109375 L 3.15625 -3.109375 C 3.9375 -3.109375 4.296875 -2.734375 4.296875 -2.171875 C 4.296875 -1.515625 3.828125 -1.15625 3.015625 -1.15625 Z M 2.46875 -1.15625 "></path></g></g></g><g fill="#333632" fill-opacity="1"><g transform="translate(41.66574, 28.598002)"><g><path d="M 1.546875 0 L 1.734375 0 C 2.265625 0 2.546875 -0.296875 2.546875 -0.828125 L 2.546875 -5.90625 C 2.546875 -6.4375 2.265625 -6.71875 1.734375 -6.71875 L 1.546875 -6.71875 C 1.015625 -6.71875 0.734375 -6.4375 0.734375 -5.90625 L 0.734375 -0.828125 C 0.734375 -0.296875 1.015625 0 1.546875 0 Z M 1.546875 0 "></path></g></g></g><g fill="#333632" fill-opacity="1"><g transform="translate(44.945303, 28.598002)"><g><path d="M 1.546875 0 L 1.734375 0 C 2.265625 0 2.546875 -0.296875 2.546875 -0.828125 C 2.546875 -1.359375 2.546875 -1.890625 2.546875 -2.421875 L 2.90625 -2.421875 C 3.6875 -2.421875 3.953125 -1.703125 4.078125 -0.78125 C 4.15625 -0.265625 4.4375 0 4.953125 0 L 5.265625 0 C 5.84375 0 6.140625 -0.34375 6.015625 -0.9375 C 5.75 -2.140625 5.34375 -2.734375 4.703125 -2.9375 L 4.703125 -2.96875 C 5.53125 -3.171875 6.03125 -3.828125 6.03125 -4.703125 C 6.03125 -6.125 5.1875 -6.71875 3.21875 -6.71875 L 1.546875 -6.71875 C 1.015625 -6.71875 0.734375 -6.4375 0.734375 -5.90625 C 0.734375 -5.0625 0.75 -4.21875 0.75 -3.359375 C 0.75 -2.515625 0.734375 -1.671875 0.734375 -0.828125 C 0.734375 -0.296875 1.015625 0 1.546875 0 Z M 2.546875 -3.5 C 2.546875 -4.40625 2.546875 -4.90625 2.546875 -5.390625 L 3.015625 -5.390625 C 3.828125 -5.390625 4.15625 -5.140625 4.15625 -4.53125 C 4.15625 -3.796875 3.78125 -3.5 2.875 -3.5 Z M 2.546875 -3.5 "></path></g></g></g><g fill="#333632" fill-opacity="1"><g transform="translate(51.562643, 28.598002)"><g><path d="M 2.9375 0.015625 C 5.140625 0 6.0625 -1.09375 6.0625 -3.453125 C 6.0625 -5.828125 5.140625 -6.71875 2.9375 -6.71875 L 1.578125 -6.71875 C 1.03125 -6.71875 0.75 -6.421875 0.75 -5.859375 C 0.75 -2.921875 0.734375 -1.6875 0.734375 -0.8125 C 0.734375 -0.28125 1.015625 0 1.546875 0 Z M 2.546875 -1.34375 C 2.546875 -1.671875 2.546875 -2.03125 2.546875 -2.375 C 2.546875 -4.03125 2.546875 -4.71875 2.546875 -5.390625 L 2.90625 -5.390625 C 3.953125 -5.390625 4.265625 -4.859375 4.265625 -3.359375 C 4.265625 -2.0625 3.90625 -1.34375 2.90625 -1.34375 Z M 2.546875 -1.34375 "></path></g></g></g></svg>