<svg xmlns="http://www.w3.org/2000/svg" xmlns:xlink="http://www.w3.org/1999/xlink" width="512" zoomAndPan="magnify" viewBox="0 0 384 383.999986" height="512" preserveAspectRatio="xMidYMid meet" version="1.0"><path fill="#ffffff" d="M 302.976562 213.507812 C 300.039062 221.027344 303.796875 229.371094 311.199219 232.308594 C 318.71875 235.246094 327.0625 231.484375 329.996094 224.085938 L 366.1875 131.617188 C 369.003906 124.214844 365.363281 115.871094 357.960938 112.9375 C 350.441406 109.996094 342.097656 113.640625 339.164062 121.160156 Z M 44.84375 290.347656 C 41.90625 297.871094 33.566406 301.511719 26.160156 298.574219 C 18.644531 295.636719 15 287.292969 17.9375 279.890625 L 81.265625 117.632812 C 85.847656 106.121094 94.660156 97.425781 105.234375 92.726562 C 115.808594 88.144531 128.144531 87.441406 139.660156 92.023438 L 139.894531 92.023438 C 151.410156 96.601562 160.101562 105.414062 164.683594 115.871094 C 169.269531 126.445312 169.972656 138.664062 165.507812 150.179688 L 165.390625 150.414062 L 123.796875 256.042969 L 123.679688 256.15625 L 123.5625 256.628906 C 122.152344 260.507812 122.503906 264.734375 124.035156 268.378906 C 125.675781 271.902344 128.5 274.957031 132.375 276.601562 C 132.84375 276.839844 133.316406 277.070312 133.785156 277.191406 C 137.664062 278.480469 141.773438 278.128906 145.417969 276.601562 C 148.941406 275.078125 151.996094 272.253906 153.640625 268.496094 C 153.875 267.90625 154.113281 267.203125 154.347656 266.613281 L 203.691406 139.957031 L 204.988281 136.667969 C 204.988281 136.433594 205.101562 136.199219 205.222656 135.964844 C 215.445312 109.410156 228.953125 75.6875 270.78125 91.90625 L 270.898438 91.90625 C 271.132812 92.023438 271.371094 92.136719 271.722656 92.257812 C 282.886719 96.839844 291.34375 105.535156 295.808594 115.871094 C 300.507812 126.445312 301.09375 138.664062 296.628906 150.300781 L 296.746094 150.300781 L 296.628906 150.300781 C 296.628906 150.53125 296.511719 150.769531 296.394531 151.003906 L 267.84375 224.085938 C 264.90625 231.484375 256.449219 235.246094 249.046875 232.308594 C 241.644531 229.371094 237.882812 221.027344 240.820312 213.507812 L 269.488281 140.425781 L 269.609375 139.957031 L 269.609375 139.839844 C 271.25 135.730469 271.015625 131.378906 269.371094 127.503906 C 267.726562 123.863281 264.789062 120.808594 260.792969 119.164062 L 260.5625 119.042969 L 260.441406 118.925781 C 245.285156 113.054688 237.882812 131.617188 232.128906 146.417969 C 232.128906 146.65625 232.007812 146.890625 231.894531 147.125 L 230.714844 150.414062 L 180.902344 278.128906 C 176.4375 289.757812 167.625 298.453125 157.046875 303.15625 C 146.707031 307.621094 134.726562 308.328125 123.328125 304.214844 C 123.09375 304.097656 122.742188 303.976562 122.503906 303.863281 L 122.386719 303.863281 C 110.875 299.28125 102.179688 290.46875 97.597656 280.011719 C 93.015625 269.785156 92.3125 257.804688 96.421875 246.523438 C 96.539062 246.171875 96.65625 245.9375 96.777344 245.582031 L 96.777344 245.46875 L 138.484375 139.839844 C 140.128906 135.730469 139.777344 131.378906 138.132812 127.503906 C 136.488281 123.746094 133.433594 120.574219 129.320312 119.042969 L 129.203125 118.925781 C 125.089844 117.398438 120.742188 117.632812 116.867188 119.28125 C 113.105469 120.925781 109.933594 124.097656 108.289062 128.207031 L 44.84375 290.347656 " fill-opacity="1" fill-rule="nonzero"/></svg>