<svg xmlns="http://www.w3.org/2000/svg" xmlns:xlink="http://www.w3.org/1999/xlink" width="98" viewBox="0 0 73.5 32.249999" height="43" preserveAspectRatio="xMidYMid meet"><defs><g></g><clipPath id="21d42d8594"><path d="M 40 16 L 51.191406 16 L 51.191406 27.804688 L 40 27.804688 Z M 40 16 " clip-rule="nonzero"></path></clipPath><clipPath id="79bd36e885"><path d="M 29.203125 5.8125 L 50 5.8125 L 50 26 L 29.203125 26 Z M 29.203125 5.8125 " clip-rule="nonzero"></path></clipPath></defs><g fill="#000000" fill-opacity="1"><g transform="translate(5.180541, 21.11667)"><g><path d="M 9.890625 -5.484375 C 9.890625 -3.375 8.53125 -1.453125 6.390625 -1.453125 C 4.265625 -1.453125 2.8125 -3.328125 2.8125 -5.328125 C 2.8125 -7.375 4.296875 -9.1875 6.34375 -9.1875 C 8.359375 -9.1875 9.859375 -7.40625 9.890625 -5.484375 Z M 6.546875 4.5 C 9.6875 4.5 11.4375 2.578125 11.4375 -0.0625 L 11.4375 -10 C 11.4375 -10.40625 11.109375 -10.75 10.6875 -10.75 C 10.296875 -10.75 9.96875 -10.4375 9.9375 -10.0625 L 9.859375 -8.96875 C 9.1875 -9.828125 7.8125 -10.859375 6.015625 -10.859375 C 3.03125 -10.859375 1.03125 -8.09375 1.03125 -5.25 C 1.03125 -2.296875 3.1875 0.21875 6.03125 0.21875 C 7.515625 0.21875 8.765625 -0.453125 9.671875 -1.59375 L 9.671875 -0.515625 C 9.671875 2.078125 8.359375 2.890625 6.625 2.890625 C 4.359375 2.890625 3.28125 1.515625 2.59375 1.515625 C 2.28125 1.515625 1.875 1.84375 1.875 2.34375 C 1.875 2.515625 1.9375 2.671875 2.140625 2.875 C 3.171875 3.96875 4.9375 4.5 6.546875 4.5 Z M 6.546875 4.5 "></path></g></g></g><g fill="#000000" fill-opacity="1"><g transform="translate(19.712966, 21.11667)"><g><path d="M 6.09375 -10.84375 C 4.671875 -10.84375 3.875 -9.71875 3.25 -8.546875 L 3.15625 -10 C 3.140625 -10.40625 2.796875 -10.71875 2.390625 -10.71875 C 1.953125 -10.71875 1.625 -10.390625 1.625 -9.9375 L 1.625 -0.78125 C 1.625 -0.296875 2.015625 0.125 2.515625 0.125 C 3.015625 0.125 3.390625 -0.28125 3.390625 -0.78125 L 3.390625 -5.46875 C 3.390625 -7.609375 4.09375 -9.171875 6.078125 -9.171875 C 6.703125 -9.171875 6.84375 -9.546875 6.84375 -10.25 C 6.84375 -10.78125 6.453125 -10.84375 6.09375 -10.84375 Z M 6.09375 -10.84375 "></path></g></g></g><g fill="#000000" fill-opacity="1"><g transform="translate(27.919842, 21.11667)"><g></g></g></g><g fill="#000000" fill-opacity="1"><g transform="translate(35.805008, 21.11667)"><g></g></g></g><g fill="#000000" fill-opacity="1"><g transform="translate(43.690174, 21.11667)"><g></g></g></g><g fill="#000000" fill-opacity="1"><g transform="translate(51.578434, 21.11667)"><g><path d="M 4.71875 -2.796875 L 2.140625 -10.171875 C 2.015625 -10.5 1.71875 -10.71875 1.3125 -10.71875 C 0.84375 -10.71875 0.5 -10.328125 0.5 -9.890625 C 0.5 -9.796875 0.5 -9.703125 0.546875 -9.625 L 3.734375 -0.484375 C 3.859375 -0.125 4.1875 0.125 4.65625 0.125 C 5.015625 0.125 5.359375 -0.09375 5.484375 -0.4375 L 8.125 -6.890625 L 10.765625 -0.4375 C 10.90625 -0.09375 11.21875 0.125 11.609375 0.125 C 12.046875 0.125 12.375 -0.125 12.5 -0.484375 L 15.703125 -9.640625 C 15.71875 -9.71875 15.734375 -9.828125 15.734375 -9.90625 C 15.734375 -10.328125 15.375 -10.71875 14.921875 -10.71875 C 14.53125 -10.71875 14.21875 -10.5 14.125 -10.1875 L 11.546875 -2.796875 L 8.84375 -9.3125 C 8.703125 -9.625 8.421875 -9.78125 8.125 -9.78125 C 7.8125 -9.78125 7.53125 -9.625 7.40625 -9.3125 Z M 4.71875 -2.796875 "></path></g></g></g><g clip-path="url(#21d42d8594)"><path fill="#00abff" d="M 51.054688 21.015625 C 51.054688 21.226562 50.917969 21.40625 50.726562 21.46875 L 46.304688 22.914062 L 44.855469 27.335938 C 44.792969 27.527344 44.613281 27.664062 44.40625 27.664062 C 44.203125 27.664062 44.03125 27.535156 43.964844 27.359375 L 40.164062 17.386719 C 40.140625 17.332031 40.128906 17.277344 40.128906 17.214844 C 40.128906 16.953125 40.34375 16.738281 40.605469 16.738281 C 40.667969 16.738281 40.722656 16.75 40.777344 16.773438 L 50.753906 20.574219 C 50.925781 20.640625 51.054688 20.808594 51.054688 21.015625 Z M 51.054688 21.015625 " fill-opacity="1" fill-rule="nonzero"></path></g><g clip-path="url(#79bd36e885)"><path fill="#000000" d="M 39.21875 25.84375 C 33.699219 25.84375 29.203125 21.351562 29.203125 15.828125 C 29.203125 10.308594 33.699219 5.8125 39.21875 5.8125 C 44.742188 5.8125 49.234375 10.308594 49.234375 15.828125 C 49.234375 16.277344 49.207031 16.714844 49.148438 17.132812 C 49.078125 17.632812 48.617188 17.976562 48.121094 17.910156 C 47.621094 17.84375 47.273438 17.382812 47.34375 16.882812 C 47.390625 16.546875 47.414062 16.191406 47.414062 15.828125 C 47.414062 11.3125 43.738281 7.636719 39.21875 7.636719 C 34.699219 7.636719 31.023438 11.3125 31.023438 15.828125 C 31.023438 20.347656 34.699219 24.023438 39.21875 24.023438 C 39.578125 24.023438 39.933594 24 40.277344 23.953125 C 40.773438 23.882812 41.234375 24.234375 41.300781 24.730469 C 41.367188 25.230469 41.019531 25.6875 40.519531 25.757812 C 40.101562 25.816406 39.660156 25.84375 39.21875 25.84375 Z M 39.21875 25.84375 " fill-opacity="1" fill-rule="nonzero"></path></g><path fill="#000000" d="M 38.785156 21.277344 C 38.757812 21.277344 38.730469 21.277344 38.703125 21.273438 C 35.875 21.011719 33.742188 18.671875 33.742188 15.828125 C 33.742188 12.808594 36.199219 10.351562 39.21875 10.351562 C 42.070312 10.351562 44.410156 12.488281 44.664062 15.324219 C 44.710938 15.824219 44.339844 16.265625 43.839844 16.3125 C 43.324219 16.347656 42.894531 15.984375 42.851562 15.484375 C 42.683594 13.597656 41.121094 12.171875 39.21875 12.171875 C 37.203125 12.171875 35.5625 13.8125 35.5625 15.828125 C 35.5625 17.722656 36.984375 19.285156 38.871094 19.460938 C 39.371094 19.507812 39.738281 19.949219 39.691406 20.453125 C 39.648438 20.925781 39.253906 21.277344 38.785156 21.277344 Z M 38.785156 21.277344 " fill-opacity="1" fill-rule="nonzero"></path></svg>