<svg xmlns="http://www.w3.org/2000/svg" xmlns:xlink="http://www.w3.org/1999/xlink" width="122" viewBox="0 0 91.5 30.000001" height="40" preserveAspectRatio="xMidYMid meet"><defs><g></g><clipPath id="34a6486c07"><path d="M 3 10 L 22 10 L 22 19 L 3 19 Z M 3 10 " clip-rule="nonzero"></path></clipPath><clipPath id="42f00e1bd7"><path d="M 12.324219 3.421875 L 23.617188 14.714844 L 12.324219 26.003906 L 1.035156 14.714844 Z M 12.324219 3.421875 " clip-rule="nonzero"></path></clipPath><clipPath id="32d3d0c177"><path d="M 12.324219 3.421875 L 23.617188 14.714844 L 12.324219 26.003906 L 1.035156 14.714844 Z M 12.324219 3.421875 " clip-rule="nonzero"></path></clipPath></defs><g clip-path="url(#34a6486c07)"><g clip-path="url(#42f00e1bd7)"><g clip-path="url(#32d3d0c177)"><path fill="#000000" d="M 17.273438 18.46875 L 13.316406 18.46875 C 11.128906 18.46875 9.359375 16.699219 9.359375 14.511719 C 9.359375 14.167969 9.417969 13.839844 9.496094 13.523438 L 11.335938 13.523438 C 11.425781 13.523438 11.503906 13.550781 11.585938 13.574219 C 11.429688 13.855469 11.335938 14.171875 11.335938 14.511719 C 11.335938 15.605469 12.226562 16.492188 13.316406 16.492188 L 17.273438 16.492188 C 18.363281 16.492188 19.25 15.605469 19.25 14.511719 C 19.25 13.421875 18.363281 12.535156 17.273438 12.535156 L 15.863281 12.535156 C 15.515625 11.742188 14.960938 11.066406 14.273438 10.554688 L 17.273438 10.554688 C 19.457031 10.554688 21.230469 12.328125 21.230469 14.511719 C 21.230469 16.699219 19.457031 18.46875 17.273438 18.46875 Z M 8.789062 16.492188 L 7.378906 16.492188 C 6.289062 16.492188 5.402344 15.605469 5.402344 14.511719 C 5.402344 13.421875 6.289062 12.535156 7.378906 12.535156 L 11.335938 12.535156 C 12.429688 12.535156 13.316406 13.421875 13.316406 14.511719 C 13.316406 14.855469 13.222656 15.171875 13.066406 15.453125 C 13.148438 15.472656 13.226562 15.503906 13.316406 15.503906 L 15.152344 15.503906 C 15.238281 15.183594 15.292969 14.855469 15.292969 14.511719 C 15.292969 12.328125 13.523438 10.554688 11.335938 10.554688 L 7.378906 10.554688 C 5.195312 10.554688 3.421875 12.328125 3.421875 14.511719 C 3.421875 16.699219 5.195312 18.46875 7.378906 18.46875 L 10.378906 18.46875 C 9.691406 17.960938 9.136719 17.285156 8.789062 16.492188 Z M 8.789062 16.492188 " fill-opacity="1" fill-rule="nonzero"></path></g></g></g><g fill="#000000" fill-opacity="1"><g transform="translate(23.420723, 17.861066)"><g><path d="M 4.625 0.09375 C 4.113281 0.09375 3.632812 0.0390625 3.1875 -0.0625 C 2.75 -0.164062 2.351562 -0.320312 2 -0.53125 C 1.65625 -0.738281 1.359375 -0.988281 1.109375 -1.28125 C 0.859375 -1.582031 0.664062 -1.929688 0.53125 -2.328125 C 0.40625 -2.722656 0.34375 -3.160156 0.34375 -3.640625 C 0.34375 -4.117188 0.40625 -4.550781 0.53125 -4.9375 C 0.664062 -5.332031 0.859375 -5.679688 1.109375 -5.984375 C 1.359375 -6.285156 1.65625 -6.535156 2 -6.734375 C 2.351562 -6.941406 2.75 -7.097656 3.1875 -7.203125 C 3.632812 -7.304688 4.113281 -7.359375 4.625 -7.359375 C 5.175781 -7.359375 5.6875 -7.300781 6.15625 -7.1875 C 6.625 -7.070312 7.039062 -6.894531 7.40625 -6.65625 C 7.769531 -6.425781 8.070312 -6.140625 8.3125 -5.796875 C 8.550781 -5.453125 8.722656 -5.054688 8.828125 -4.609375 L 6.765625 -4.609375 C 6.660156 -4.867188 6.507812 -5.082031 6.3125 -5.25 C 6.113281 -5.425781 5.867188 -5.554688 5.578125 -5.640625 C 5.296875 -5.722656 4.976562 -5.765625 4.625 -5.765625 C 4.269531 -5.765625 3.953125 -5.722656 3.671875 -5.640625 C 3.390625 -5.554688 3.148438 -5.425781 2.953125 -5.25 C 2.753906 -5.082031 2.597656 -4.863281 2.484375 -4.59375 C 2.378906 -4.320312 2.328125 -4.003906 2.328125 -3.640625 C 2.328125 -3.265625 2.378906 -2.941406 2.484375 -2.671875 C 2.597656 -2.398438 2.753906 -2.175781 2.953125 -2 C 3.148438 -1.832031 3.390625 -1.707031 3.671875 -1.625 C 3.953125 -1.539062 4.269531 -1.5 4.625 -1.5 C 5.03125 -1.5 5.390625 -1.550781 5.703125 -1.65625 C 6.023438 -1.769531 6.285156 -1.941406 6.484375 -2.171875 C 6.679688 -2.398438 6.816406 -2.695312 6.890625 -3.0625 L 8.890625 -3.0625 C 8.835938 -2.65625 8.734375 -2.285156 8.578125 -1.953125 C 8.421875 -1.617188 8.21875 -1.320312 7.96875 -1.0625 C 7.71875 -0.8125 7.421875 -0.597656 7.078125 -0.421875 C 6.742188 -0.253906 6.367188 -0.125 5.953125 -0.03125 C 5.546875 0.0507812 5.101562 0.09375 4.625 0.09375 Z M 4.625 0.09375 "></path></g></g></g><g fill="#000000" fill-opacity="1"><g transform="translate(32.588878, 17.861066)"><g><path d="M 4.625 0.09375 C 4.113281 0.09375 3.632812 0.0390625 3.1875 -0.0625 C 2.75 -0.164062 2.351562 -0.320312 2 -0.53125 C 1.65625 -0.738281 1.359375 -0.988281 1.109375 -1.28125 C 0.859375 -1.582031 0.664062 -1.929688 0.53125 -2.328125 C 0.40625 -2.722656 0.34375 -3.160156 0.34375 -3.640625 C 0.34375 -4.117188 0.40625 -4.550781 0.53125 -4.9375 C 0.664062 -5.332031 0.859375 -5.679688 1.109375 -5.984375 C 1.359375 -6.285156 1.65625 -6.535156 2 -6.734375 C 2.351562 -6.941406 2.75 -7.097656 3.1875 -7.203125 C 3.632812 -7.304688 4.113281 -7.359375 4.625 -7.359375 C 5.144531 -7.359375 5.625 -7.304688 6.0625 -7.203125 C 6.507812 -7.097656 6.90625 -6.941406 7.25 -6.734375 C 7.601562 -6.535156 7.90625 -6.285156 8.15625 -5.984375 C 8.40625 -5.679688 8.59375 -5.332031 8.71875 -4.9375 C 8.851562 -4.550781 8.921875 -4.117188 8.921875 -3.640625 C 8.921875 -3.160156 8.851562 -2.722656 8.71875 -2.328125 C 8.59375 -1.929688 8.40625 -1.582031 8.15625 -1.28125 C 7.90625 -0.988281 7.601562 -0.738281 7.25 -0.53125 C 6.90625 -0.320312 6.507812 -0.164062 6.0625 -0.0625 C 5.625 0.0390625 5.144531 0.09375 4.625 0.09375 Z M 4.625 -1.5 C 4.976562 -1.5 5.296875 -1.539062 5.578125 -1.625 C 5.867188 -1.707031 6.113281 -1.832031 6.3125 -2 C 6.507812 -2.175781 6.660156 -2.398438 6.765625 -2.671875 C 6.878906 -2.941406 6.9375 -3.265625 6.9375 -3.640625 C 6.9375 -4.003906 6.878906 -4.320312 6.765625 -4.59375 C 6.660156 -4.863281 6.507812 -5.082031 6.3125 -5.25 C 6.113281 -5.425781 5.867188 -5.554688 5.578125 -5.640625 C 5.296875 -5.722656 4.976562 -5.765625 4.625 -5.765625 C 4.269531 -5.765625 3.953125 -5.722656 3.671875 -5.640625 C 3.390625 -5.554688 3.148438 -5.425781 2.953125 -5.25 C 2.753906 -5.082031 2.597656 -4.863281 2.484375 -4.59375 C 2.378906 -4.320312 2.328125 -4.003906 2.328125 -3.640625 C 2.328125 -3.265625 2.378906 -2.941406 2.484375 -2.671875 C 2.597656 -2.398438 2.753906 -2.175781 2.953125 -2 C 3.148438 -1.832031 3.390625 -1.707031 3.671875 -1.625 C 3.953125 -1.539062 4.269531 -1.5 4.625 -1.5 Z M 4.625 -1.5 "></path></g></g></g><g fill="#000000" fill-opacity="1"><g transform="translate(41.852734, 17.861066)"><g><path d="M 6.328125 -7.265625 L 8.375 -7.265625 L 8.375 0 L 5.625 0 L 2.875 -4.828125 L 2.875 0 L 0.828125 0 L 0.828125 -7.265625 L 3.609375 -7.265625 L 6.328125 -2.484375 Z M 6.328125 -7.265625 "></path></g></g></g><g fill="#000000" fill-opacity="1"><g transform="translate(51.063954, 17.861066)"><g><path d="M 6.328125 -7.265625 L 8.375 -7.265625 L 8.375 0 L 5.625 0 L 2.875 -4.828125 L 2.875 0 L 0.828125 0 L 0.828125 -7.265625 L 3.609375 -7.265625 L 6.328125 -2.484375 Z M 6.328125 -7.265625 "></path></g></g></g><g fill="#000000" fill-opacity="1"><g transform="translate(60.275175, 17.861066)"><g><path d="M 2.90625 -1.65625 L 7.3125 -1.65625 L 7.3125 0 L 0.828125 0 L 0.828125 -7.265625 L 7.078125 -7.265625 L 7.078125 -5.625 L 2.90625 -5.625 L 2.90625 -4.453125 L 5.390625 -4.453125 L 5.390625 -3.015625 L 2.90625 -3.015625 Z M 2.90625 -1.65625 "></path></g></g></g><g fill="#000000" fill-opacity="1"><g transform="translate(67.959964, 17.861066)"><g><path d="M 4.625 0.09375 C 4.113281 0.09375 3.632812 0.0390625 3.1875 -0.0625 C 2.75 -0.164062 2.351562 -0.320312 2 -0.53125 C 1.65625 -0.738281 1.359375 -0.988281 1.109375 -1.28125 C 0.859375 -1.582031 0.664062 -1.929688 0.53125 -2.328125 C 0.40625 -2.722656 0.34375 -3.160156 0.34375 -3.640625 C 0.34375 -4.117188 0.40625 -4.550781 0.53125 -4.9375 C 0.664062 -5.332031 0.859375 -5.679688 1.109375 -5.984375 C 1.359375 -6.285156 1.65625 -6.535156 2 -6.734375 C 2.351562 -6.941406 2.75 -7.097656 3.1875 -7.203125 C 3.632812 -7.304688 4.113281 -7.359375 4.625 -7.359375 C 5.175781 -7.359375 5.6875 -7.300781 6.15625 -7.1875 C 6.625 -7.070312 7.039062 -6.894531 7.40625 -6.65625 C 7.769531 -6.425781 8.070312 -6.140625 8.3125 -5.796875 C 8.550781 -5.453125 8.722656 -5.054688 8.828125 -4.609375 L 6.765625 -4.609375 C 6.660156 -4.867188 6.507812 -5.082031 6.3125 -5.25 C 6.113281 -5.425781 5.867188 -5.554688 5.578125 -5.640625 C 5.296875 -5.722656 4.976562 -5.765625 4.625 -5.765625 C 4.269531 -5.765625 3.953125 -5.722656 3.671875 -5.640625 C 3.390625 -5.554688 3.148438 -5.425781 2.953125 -5.25 C 2.753906 -5.082031 2.597656 -4.863281 2.484375 -4.59375 C 2.378906 -4.320312 2.328125 -4.003906 2.328125 -3.640625 C 2.328125 -3.265625 2.378906 -2.941406 2.484375 -2.671875 C 2.597656 -2.398438 2.753906 -2.175781 2.953125 -2 C 3.148438 -1.832031 3.390625 -1.707031 3.671875 -1.625 C 3.953125 -1.539062 4.269531 -1.5 4.625 -1.5 C 5.03125 -1.5 5.390625 -1.550781 5.703125 -1.65625 C 6.023438 -1.769531 6.285156 -1.941406 6.484375 -2.171875 C 6.679688 -2.398438 6.816406 -2.695312 6.890625 -3.0625 L 8.890625 -3.0625 C 8.835938 -2.65625 8.734375 -2.285156 8.578125 -1.953125 C 8.421875 -1.617188 8.21875 -1.320312 7.96875 -1.0625 C 7.71875 -0.8125 7.421875 -0.597656 7.078125 -0.421875 C 6.742188 -0.253906 6.367188 -0.125 5.953125 -0.03125 C 5.546875 0.0507812 5.101562 0.09375 4.625 0.09375 Z M 4.625 0.09375 "></path></g></g></g><g fill="#000000" fill-opacity="1"><g transform="translate(77.128119, 17.861066)"><g><path d="M 7.046875 -7.265625 L 7.046875 -5.625 L 4.625 -5.625 L 4.625 0 L 2.578125 0 L 2.578125 -5.625 L 0.171875 -5.625 L 0.171875 -7.265625 Z M 7.046875 -7.265625 "></path></g></g></g></svg>