<svg xmlns="http://www.w3.org/2000/svg" xmlns:xlink="http://www.w3.org/1999/xlink" width="122" viewBox="0 0 91.5 30.000001" height="40" preserveAspectRatio="xMidYMid meet"><defs><g></g><clipPath id="8eec84d5ba"><path d="M 74.578125 10.933594 L 75.699219 10.933594 L 75.699219 12.054688 L 74.578125 12.054688 Z M 74.578125 10.933594 " clip-rule="nonzero"></path></clipPath><clipPath id="cba9f30c6e"><path d="M 75.136719 10.933594 C 74.828125 10.933594 74.578125 11.183594 74.578125 11.492188 C 74.578125 11.804688 74.828125 12.054688 75.136719 12.054688 C 75.445312 12.054688 75.699219 11.804688 75.699219 11.492188 C 75.699219 11.183594 75.445312 10.933594 75.136719 10.933594 Z M 75.136719 10.933594 " clip-rule="nonzero"></path></clipPath></defs><g fill="#ffffff" fill-opacity="1"><g transform="translate(19.599854, 22.655221)"><g><path d="M 31.90625 -11.8125 C 31.675781 -11.75 31.441406 -11.6875 31.203125 -11.625 C 30.984375 -11.570312 30.765625 -11.515625 30.546875 -11.453125 C 28.953125 -11.015625 27.367188 -10.53125 25.796875 -10 C 23.992188 -9.414062 22.203125 -8.765625 20.421875 -8.046875 C 20.117188 -7.929688 19.84375 -7.753906 19.59375 -7.515625 C 17.632812 -5.703125 15.582031 -4.019531 13.4375 -2.46875 C 11.289062 -0.914062 9.066406 0.519531 6.765625 1.84375 C 5.753906 2.425781 4.71875 2.957031 3.65625 3.4375 C 3.164062 3.65625 2.65625 3.820312 2.125 3.9375 C 2.050781 3.945312 1.976562 3.957031 1.90625 3.96875 C 1.675781 4.019531 1.445312 4.023438 1.21875 3.984375 C 0.851562 3.898438 0.710938 3.664062 0.796875 3.28125 C 0.867188 3.03125 0.984375 2.796875 1.140625 2.578125 C 1.484375 2.109375 1.867188 1.703125 2.296875 1.359375 C 3.390625 0.453125 4.523438 -0.367188 5.703125 -1.109375 C 6.878906 -1.847656 8.078125 -2.554688 9.296875 -3.234375 C 9.335938 -3.242188 9.367188 -3.265625 9.390625 -3.296875 C 9.429688 -3.316406 9.476562 -3.335938 9.53125 -3.359375 C 9.707031 -3.429688 9.804688 -3.578125 9.828125 -3.796875 C 9.890625 -4.109375 9.960938 -4.410156 10.046875 -4.703125 C 10.046875 -4.765625 10.054688 -4.828125 10.078125 -4.890625 C 10.234375 -5.585938 10.390625 -6.289062 10.546875 -7 C 10.867188 -8.332031 11.175781 -9.675781 11.46875 -11.03125 C 11.6875 -11.882812 11.828125 -12.738281 11.890625 -13.59375 C 11.890625 -13.675781 11.898438 -13.757812 11.921875 -13.84375 C 11.972656 -13.945312 12.050781 -13.988281 12.15625 -13.96875 C 12.195312 -14 12.242188 -14.007812 12.296875 -14 C 12.335938 -14 12.375 -13.984375 12.40625 -13.953125 C 12.4375 -13.929688 12.457031 -13.898438 12.46875 -13.859375 C 12.5 -13.734375 12.515625 -13.613281 12.515625 -13.5 C 12.472656 -12.738281 12.363281 -11.976562 12.1875 -11.21875 C 11.863281 -9.882812 11.546875 -8.539062 11.234375 -7.1875 C 11.109375 -6.625 10.976562 -6.066406 10.84375 -5.515625 C 10.8125 -5.410156 10.789062 -5.304688 10.78125 -5.203125 C 10.695312 -4.878906 10.613281 -4.535156 10.53125 -4.171875 C 10.53125 -4.160156 10.53125 -4.148438 10.53125 -4.140625 C 10.519531 -4.109375 10.515625 -4.078125 10.515625 -4.046875 C 10.515625 -4.015625 10.53125 -3.984375 10.5625 -3.953125 C 10.570312 -3.953125 10.582031 -3.953125 10.59375 -3.953125 C 10.613281 -3.953125 10.632812 -3.957031 10.65625 -3.96875 C 10.65625 -3.96875 10.660156 -3.972656 10.671875 -3.984375 C 10.984375 -4.140625 11.296875 -4.300781 11.609375 -4.46875 C 12.140625 -4.75 12.671875 -5.023438 13.203125 -5.296875 C 15.128906 -6.242188 17.078125 -7.113281 19.046875 -7.90625 C 19.285156 -8.007812 19.5 -8.144531 19.6875 -8.3125 C 20.195312 -8.8125 20.695312 -9.328125 21.1875 -9.859375 C 21.6875 -10.390625 22.15625 -10.941406 22.59375 -11.515625 C 23.070312 -12.109375 23.492188 -12.753906 23.859375 -13.453125 C 24.078125 -13.847656 24.222656 -14.269531 24.296875 -14.71875 C 24.367188 -15.414062 24.148438 -15.984375 23.640625 -16.421875 C 23.453125 -16.585938 23.242188 -16.722656 23.015625 -16.828125 C 22.785156 -16.929688 22.554688 -17.007812 22.328125 -17.0625 C 21.503906 -17.269531 20.671875 -17.347656 19.828125 -17.296875 C 19.097656 -17.273438 18.375 -17.207031 17.65625 -17.09375 C 17 -16.988281 16.347656 -16.847656 15.703125 -16.671875 C 14.023438 -16.273438 12.394531 -15.753906 10.8125 -15.109375 C 9.726562 -14.679688 8.671875 -14.195312 7.640625 -13.65625 C 6.617188 -13.113281 5.644531 -12.484375 4.71875 -11.765625 C 4.363281 -11.503906 4.03125 -11.226562 3.71875 -10.9375 C 3.40625 -10.65625 3.101562 -10.351562 2.8125 -10.03125 C 2.625 -9.757812 2.441406 -9.484375 2.265625 -9.203125 C 2.128906 -9.015625 2.046875 -8.796875 2.015625 -8.546875 C 1.953125 -8.203125 2.078125 -7.925781 2.390625 -7.71875 C 2.566406 -7.582031 2.769531 -7.5 3 -7.46875 C 3.375 -7.363281 3.757812 -7.332031 4.15625 -7.375 C 4.351562 -7.394531 4.5625 -7.421875 4.78125 -7.453125 C 5.0625 -7.484375 5.335938 -7.515625 5.609375 -7.546875 C 5.835938 -7.566406 6.066406 -7.582031 6.296875 -7.59375 C 6.328125 -7.59375 6.351562 -7.582031 6.375 -7.5625 C 6.394531 -7.539062 6.421875 -7.519531 6.453125 -7.5 C 6.460938 -7.445312 6.445312 -7.40625 6.40625 -7.375 C 6.375 -7.34375 6.34375 -7.332031 6.3125 -7.34375 L 6.25 -7.328125 C 6.226562 -7.328125 6.207031 -7.328125 6.1875 -7.328125 C 5.976562 -7.296875 5.773438 -7.265625 5.578125 -7.234375 C 5.523438 -7.222656 5.46875 -7.21875 5.40625 -7.21875 C 5.300781 -7.195312 5.195312 -7.175781 5.09375 -7.15625 L 5.078125 -7.15625 C 4.796875 -7.113281 4.515625 -7.070312 4.234375 -7.03125 C 3.953125 -7 3.664062 -6.992188 3.375 -7.015625 C 3.039062 -7.035156 2.710938 -7.082031 2.390625 -7.15625 C 2.222656 -7.21875 2.0625 -7.285156 1.90625 -7.359375 C 1.425781 -7.648438 1.253906 -8.078125 1.390625 -8.640625 C 1.472656 -9.003906 1.628906 -9.335938 1.859375 -9.640625 C 2.160156 -10.066406 2.5 -10.46875 2.875 -10.84375 C 3.914062 -11.820312 5.046875 -12.660156 6.265625 -13.359375 C 7.265625 -13.941406 8.285156 -14.460938 9.328125 -14.921875 C 10.367188 -15.378906 11.429688 -15.78125 12.515625 -16.125 C 14.171875 -16.71875 15.867188 -17.15625 17.609375 -17.4375 C 17.660156 -17.445312 17.71875 -17.457031 17.78125 -17.46875 C 18.4375 -17.570312 19.097656 -17.644531 19.765625 -17.6875 C 20.429688 -17.726562 21.097656 -17.707031 21.765625 -17.625 C 22.316406 -17.570312 22.851562 -17.445312 23.375 -17.25 C 23.632812 -17.144531 23.878906 -17.003906 24.109375 -16.828125 C 24.867188 -16.253906 25.15625 -15.492188 24.96875 -14.546875 C 24.875 -14.117188 24.71875 -13.710938 24.5 -13.328125 C 24.113281 -12.597656 23.671875 -11.921875 23.171875 -11.296875 C 22.535156 -10.515625 21.863281 -9.757812 21.15625 -9.03125 C 21.144531 -9.007812 21.125 -8.984375 21.09375 -8.953125 C 21.050781 -8.929688 21.007812 -8.898438 20.96875 -8.859375 C 20.9375 -8.816406 20.914062 -8.765625 20.90625 -8.703125 C 20.945312 -8.691406 20.976562 -8.6875 21 -8.6875 C 21.039062 -8.6875 21.070312 -8.695312 21.09375 -8.71875 C 21.132812 -8.75 21.171875 -8.765625 21.203125 -8.765625 C 23.203125 -9.515625 25.210938 -10.203125 27.234375 -10.828125 C 28.222656 -11.109375 29.207031 -11.378906 30.1875 -11.640625 C 30.519531 -11.722656 30.851562 -11.8125 31.1875 -11.90625 C 31.300781 -11.9375 31.421875 -11.960938 31.546875 -11.984375 C 31.660156 -12.015625 31.78125 -12.023438 31.90625 -12.015625 C 31.925781 -12.015625 31.941406 -12.003906 31.953125 -11.984375 C 31.960938 -11.972656 31.972656 -11.960938 31.984375 -11.953125 C 31.992188 -11.921875 31.988281 -11.890625 31.96875 -11.859375 C 31.957031 -11.835938 31.9375 -11.820312 31.90625 -11.8125 Z M 9.328125 -0.265625 C 9.328125 -0.265625 9.332031 -0.265625 9.34375 -0.265625 C 9.375 -0.296875 9.410156 -0.332031 9.453125 -0.375 C 9.492188 -0.414062 9.519531 -0.46875 9.53125 -0.53125 C 9.507812 -0.53125 9.5 -0.53125 9.5 -0.53125 C 9.351562 -0.5 9.253906 -0.5 9.203125 -0.53125 C 9.160156 -0.570312 9.148438 -0.65625 9.171875 -0.78125 C 9.179688 -0.851562 9.195312 -0.929688 9.21875 -1.015625 C 9.21875 -1.035156 9.222656 -1.050781 9.234375 -1.0625 C 9.265625 -1.21875 9.296875 -1.367188 9.328125 -1.515625 C 9.398438 -1.835938 9.472656 -2.160156 9.546875 -2.484375 C 9.546875 -2.492188 9.550781 -2.515625 9.5625 -2.546875 C 9.570312 -2.585938 9.578125 -2.628906 9.578125 -2.671875 C 9.578125 -2.722656 9.5625 -2.773438 9.53125 -2.828125 C 9.519531 -2.828125 9.507812 -2.828125 9.5 -2.828125 C 9.46875 -2.804688 9.4375 -2.789062 9.40625 -2.78125 C 9.382812 -2.769531 9.375 -2.753906 9.375 -2.734375 C 8.53125 -2.265625 7.703125 -1.78125 6.890625 -1.28125 C 6.078125 -0.78125 5.28125 -0.257812 4.5 0.28125 C 3.863281 0.726562 3.265625 1.203125 2.703125 1.703125 C 2.347656 1.992188 2.050781 2.320312 1.8125 2.6875 C 1.65625 2.851562 1.554688 3.054688 1.515625 3.296875 C 1.492188 3.367188 1.503906 3.4375 1.546875 3.5 C 1.585938 3.5625 1.648438 3.59375 1.734375 3.59375 C 1.835938 3.601562 1.9375 3.597656 2.03125 3.578125 C 2.144531 3.566406 2.25 3.539062 2.34375 3.5 C 3.007812 3.269531 3.648438 2.992188 4.265625 2.671875 C 5.640625 1.984375 6.976562 1.234375 8.28125 0.421875 C 8.632812 0.203125 8.984375 -0.0234375 9.328125 -0.265625 Z M 18.21875 -6.953125 C 18.207031 -6.972656 18.210938 -6.984375 18.234375 -6.984375 C 18.265625 -7.015625 18.28125 -7.039062 18.28125 -7.0625 C 18.289062 -7.082031 18.285156 -7.113281 18.265625 -7.15625 C 18.234375 -7.132812 18.195312 -7.117188 18.15625 -7.109375 C 17.9375 -7.003906 17.710938 -6.898438 17.484375 -6.796875 C 16.867188 -6.523438 16.257812 -6.25 15.65625 -5.96875 C 14 -5.195312 12.351562 -4.375 10.71875 -3.5 C 10.582031 -3.4375 10.46875 -3.351562 10.375 -3.25 C 10.289062 -3.144531 10.238281 -3.007812 10.21875 -2.84375 C 10.195312 -2.769531 10.175781 -2.6875 10.15625 -2.59375 C 10.144531 -2.5625 10.132812 -2.53125 10.125 -2.5 C 10.09375 -2.375 10.050781 -2.21875 10 -2.03125 C 9.925781 -1.820312 9.851562 -1.601562 9.78125 -1.375 C 9.71875 -1.144531 9.679688 -0.953125 9.671875 -0.796875 C 9.660156 -0.648438 9.695312 -0.566406 9.78125 -0.546875 C 9.863281 -0.585938 9.941406 -0.644531 10.015625 -0.71875 C 10.054688 -0.738281 10.101562 -0.765625 10.15625 -0.796875 C 11.90625 -1.941406 13.609375 -3.164062 15.265625 -4.46875 C 15.898438 -5 16.539062 -5.53125 17.1875 -6.0625 C 17.46875 -6.3125 17.742188 -6.554688 18.015625 -6.796875 C 18.023438 -6.796875 18.03125 -6.796875 18.03125 -6.796875 C 18.09375 -6.847656 18.15625 -6.898438 18.21875 -6.953125 Z M 18.21875 -6.953125 "></path></g></g><g transform="translate(40.67446, 19.232204)"><g><path d="M 3.0625 -3 C 3.144531 -2.96875 3.171875 -2.859375 3.140625 -2.671875 C 3.066406 -2.546875 2.984375 -2.421875 2.890625 -2.296875 C 2.796875 -2.171875 2.695312 -2.054688 2.59375 -1.953125 C 2.582031 -1.953125 2.578125 -1.953125 2.578125 -1.953125 C 2.503906 -1.878906 2.425781 -1.816406 2.34375 -1.765625 C 1.625 -1.359375 1.210938 -1.453125 1.109375 -2.046875 C 0.835938 -1.734375 0.648438 -1.535156 0.546875 -1.453125 C 0.328125 -1.265625 0.0703125 -1.15625 -0.21875 -1.125 C -0.445312 -1.101562 -0.609375 -1.144531 -0.703125 -1.25 C -0.796875 -1.363281 -0.816406 -1.523438 -0.765625 -1.734375 C -0.671875 -2.078125 -0.515625 -2.394531 -0.296875 -2.6875 C -0.0351562 -3.019531 0.257812 -3.300781 0.59375 -3.53125 C 0.78125 -3.664062 0.988281 -3.734375 1.21875 -3.734375 C 1.425781 -3.765625 1.570312 -3.664062 1.65625 -3.4375 C 1.6875 -3.375 1.679688 -3.316406 1.640625 -3.265625 C 1.578125 -3.179688 1.492188 -3.148438 1.390625 -3.171875 C 1.378906 -3.171875 1.367188 -3.171875 1.359375 -3.171875 C 1.347656 -3.171875 1.335938 -3.175781 1.328125 -3.1875 C 1.222656 -3.28125 1.125 -3.304688 1.03125 -3.265625 C 0.945312 -3.234375 0.859375 -3.1875 0.765625 -3.125 C 0.316406 -2.75 0.015625 -2.285156 -0.140625 -1.734375 C -0.140625 -1.710938 -0.140625 -1.6875 -0.140625 -1.65625 C -0.148438 -1.632812 -0.140625 -1.613281 -0.109375 -1.59375 C -0.046875 -1.59375 0.015625 -1.609375 0.078125 -1.640625 C 0.140625 -1.679688 0.195312 -1.734375 0.25 -1.796875 C 0.3125 -1.859375 0.363281 -1.90625 0.40625 -1.9375 C 0.414062 -1.957031 0.421875 -1.96875 0.421875 -1.96875 C 0.628906 -2.195312 0.828125 -2.4375 1.015625 -2.6875 C 1.097656 -2.800781 1.210938 -2.878906 1.359375 -2.921875 C 1.566406 -2.960938 1.664062 -2.878906 1.65625 -2.671875 C 1.644531 -2.597656 1.632812 -2.53125 1.625 -2.46875 C 1.59375 -2.144531 1.617188 -1.960938 1.703125 -1.921875 C 1.785156 -1.890625 1.90625 -1.910156 2.0625 -1.984375 C 2.21875 -2.066406 2.359375 -2.191406 2.484375 -2.359375 C 2.609375 -2.523438 2.710938 -2.679688 2.796875 -2.828125 C 2.890625 -2.972656 2.976562 -3.03125 3.0625 -3 Z M 3.0625 -3 "></path></g></g><g transform="translate(43.842101, 18.717704)"><g><path d="M 1.8125 -3.296875 C 1.820312 -3.078125 1.742188 -2.921875 1.578125 -2.828125 C 1.410156 -2.734375 1.332031 -2.8125 1.34375 -3.0625 C 1.363281 -3.3125 1.242188 -3.351562 0.984375 -3.1875 C 0.734375 -3.03125 0.53125 -2.84375 0.375 -2.625 C 0.15625 -2.289062 -0.0351562 -1.941406 -0.203125 -1.578125 C -0.222656 -1.546875 -0.242188 -1.519531 -0.265625 -1.5 C -0.304688 -1.394531 -0.351562 -1.296875 -0.40625 -1.203125 C -0.4375 -1.140625 -0.476562 -1.097656 -0.53125 -1.078125 C -0.59375 -1.054688 -0.648438 -1.046875 -0.703125 -1.046875 C -0.753906 -1.035156 -0.796875 -1.046875 -0.828125 -1.078125 C -0.859375 -1.109375 -0.867188 -1.148438 -0.859375 -1.203125 C -0.835938 -1.296875 -0.8125 -1.394531 -0.78125 -1.5 C -0.582031 -2.070312 -0.375 -2.648438 -0.15625 -3.234375 C -0.15625 -3.234375 -0.15625 -3.238281 -0.15625 -3.25 C -0.125 -3.332031 -0.0859375 -3.414062 -0.046875 -3.5 C -0.00390625 -3.570312 0.0546875 -3.609375 0.140625 -3.609375 C 0.234375 -3.617188 0.300781 -3.582031 0.34375 -3.5 C 0.394531 -3.394531 0.429688 -3.335938 0.453125 -3.328125 C 0.484375 -3.316406 0.546875 -3.332031 0.640625 -3.375 C 0.816406 -3.476562 0.992188 -3.5625 1.171875 -3.625 C 1.347656 -3.6875 1.492188 -3.703125 1.609375 -3.671875 C 1.734375 -3.640625 1.800781 -3.515625 1.8125 -3.296875 Z M 1.8125 -3.296875 "></path></g></g><g transform="translate(46.230971, 18.329695)"><g><path d="M 3.0625 -3 C 3.144531 -2.96875 3.171875 -2.859375 3.140625 -2.671875 C 3.066406 -2.546875 2.984375 -2.421875 2.890625 -2.296875 C 2.796875 -2.171875 2.695312 -2.054688 2.59375 -1.953125 C 2.582031 -1.953125 2.578125 -1.953125 2.578125 -1.953125 C 2.503906 -1.878906 2.425781 -1.816406 2.34375 -1.765625 C 1.625 -1.359375 1.210938 -1.453125 1.109375 -2.046875 C 0.835938 -1.734375 0.648438 -1.535156 0.546875 -1.453125 C 0.328125 -1.265625 0.0703125 -1.15625 -0.21875 -1.125 C -0.445312 -1.101562 -0.609375 -1.144531 -0.703125 -1.25 C -0.796875 -1.363281 -0.816406 -1.523438 -0.765625 -1.734375 C -0.671875 -2.078125 -0.515625 -2.394531 -0.296875 -2.6875 C -0.0351562 -3.019531 0.257812 -3.300781 0.59375 -3.53125 C 0.78125 -3.664062 0.988281 -3.734375 1.21875 -3.734375 C 1.425781 -3.765625 1.570312 -3.664062 1.65625 -3.4375 C 1.6875 -3.375 1.679688 -3.316406 1.640625 -3.265625 C 1.578125 -3.179688 1.492188 -3.148438 1.390625 -3.171875 C 1.378906 -3.171875 1.367188 -3.171875 1.359375 -3.171875 C 1.347656 -3.171875 1.335938 -3.175781 1.328125 -3.1875 C 1.222656 -3.28125 1.125 -3.304688 1.03125 -3.265625 C 0.945312 -3.234375 0.859375 -3.1875 0.765625 -3.125 C 0.316406 -2.75 0.015625 -2.285156 -0.140625 -1.734375 C -0.140625 -1.710938 -0.140625 -1.6875 -0.140625 -1.65625 C -0.148438 -1.632812 -0.140625 -1.613281 -0.109375 -1.59375 C -0.046875 -1.59375 0.015625 -1.609375 0.078125 -1.640625 C 0.140625 -1.679688 0.195312 -1.734375 0.25 -1.796875 C 0.3125 -1.859375 0.363281 -1.90625 0.40625 -1.9375 C 0.414062 -1.957031 0.421875 -1.96875 0.421875 -1.96875 C 0.628906 -2.195312 0.828125 -2.4375 1.015625 -2.6875 C 1.097656 -2.800781 1.210938 -2.878906 1.359375 -2.921875 C 1.566406 -2.960938 1.664062 -2.878906 1.65625 -2.671875 C 1.644531 -2.597656 1.632812 -2.53125 1.625 -2.46875 C 1.59375 -2.144531 1.617188 -1.960938 1.703125 -1.921875 C 1.785156 -1.890625 1.90625 -1.910156 2.0625 -1.984375 C 2.21875 -2.066406 2.359375 -2.191406 2.484375 -2.359375 C 2.609375 -2.523438 2.710938 -2.679688 2.796875 -2.828125 C 2.890625 -2.972656 2.976562 -3.03125 3.0625 -3 Z M 3.0625 -3 "></path></g></g><g transform="translate(49.398612, 17.815195)"><g><path d="M 1.5625 -2.3125 C 1.425781 -2.09375 1.253906 -1.878906 1.046875 -1.671875 C 0.835938 -1.460938 0.59375 -1.304688 0.3125 -1.203125 C 0.03125 -1.097656 -0.195312 -1.082031 -0.375 -1.15625 C -0.550781 -1.226562 -0.617188 -1.441406 -0.578125 -1.796875 C -0.503906 -2.191406 -0.382812 -2.578125 -0.21875 -2.953125 C -0.175781 -3.003906 -0.109375 -3.054688 -0.015625 -3.109375 C 0.046875 -3.140625 0.101562 -3.140625 0.15625 -3.109375 C 0.21875 -3.085938 0.242188 -3.039062 0.234375 -2.96875 C 0.210938 -2.851562 0.1875 -2.734375 0.15625 -2.609375 C 0.125 -2.484375 0.0976562 -2.398438 0.078125 -2.359375 C -0.00390625 -2.128906 -0.046875 -1.90625 -0.046875 -1.6875 C -0.0234375 -1.550781 0.140625 -1.566406 0.453125 -1.734375 C 0.773438 -1.898438 1.070312 -2.160156 1.34375 -2.515625 C 1.613281 -2.867188 1.753906 -2.976562 1.765625 -2.84375 C 1.773438 -2.71875 1.707031 -2.539062 1.5625 -2.3125 Z M 0.46875 -3.78125 C 0.457031 -3.769531 0.425781 -3.75 0.375 -3.71875 C 0.332031 -3.6875 0.28125 -3.664062 0.21875 -3.65625 C 0.164062 -3.644531 0.125 -3.648438 0.09375 -3.671875 C 0.0625 -3.691406 0.0546875 -3.738281 0.078125 -3.8125 C 0.0976562 -3.957031 0.125 -4.082031 0.15625 -4.1875 C 0.195312 -4.289062 0.253906 -4.410156 0.328125 -4.546875 C 0.390625 -4.617188 0.453125 -4.660156 0.515625 -4.671875 C 0.578125 -4.691406 0.632812 -4.679688 0.6875 -4.640625 C 0.738281 -4.609375 0.757812 -4.554688 0.75 -4.484375 C 0.726562 -4.234375 0.632812 -4 0.46875 -3.78125 Z M 0.46875 -3.78125 "></path></g></g><g transform="translate(51.26193, 17.512548)"><g><path d="M 3.0625 -3 C 3.144531 -2.96875 3.171875 -2.859375 3.140625 -2.671875 C 3.066406 -2.546875 2.984375 -2.421875 2.890625 -2.296875 C 2.796875 -2.171875 2.695312 -2.054688 2.59375 -1.953125 C 2.582031 -1.953125 2.578125 -1.953125 2.578125 -1.953125 C 2.503906 -1.878906 2.425781 -1.816406 2.34375 -1.765625 C 1.625 -1.359375 1.210938 -1.453125 1.109375 -2.046875 C 0.835938 -1.734375 0.648438 -1.535156 0.546875 -1.453125 C 0.328125 -1.265625 0.0703125 -1.15625 -0.21875 -1.125 C -0.445312 -1.101562 -0.609375 -1.144531 -0.703125 -1.25 C -0.796875 -1.363281 -0.816406 -1.523438 -0.765625 -1.734375 C -0.671875 -2.078125 -0.515625 -2.394531 -0.296875 -2.6875 C -0.0351562 -3.019531 0.257812 -3.300781 0.59375 -3.53125 C 0.78125 -3.664062 0.988281 -3.734375 1.21875 -3.734375 C 1.425781 -3.765625 1.570312 -3.664062 1.65625 -3.4375 C 1.6875 -3.375 1.679688 -3.316406 1.640625 -3.265625 C 1.578125 -3.179688 1.492188 -3.148438 1.390625 -3.171875 C 1.378906 -3.171875 1.367188 -3.171875 1.359375 -3.171875 C 1.347656 -3.171875 1.335938 -3.175781 1.328125 -3.1875 C 1.222656 -3.28125 1.125 -3.304688 1.03125 -3.265625 C 0.945312 -3.234375 0.859375 -3.1875 0.765625 -3.125 C 0.316406 -2.75 0.015625 -2.285156 -0.140625 -1.734375 C -0.140625 -1.710938 -0.140625 -1.6875 -0.140625 -1.65625 C -0.148438 -1.632812 -0.140625 -1.613281 -0.109375 -1.59375 C -0.046875 -1.59375 0.015625 -1.609375 0.078125 -1.640625 C 0.140625 -1.679688 0.195312 -1.734375 0.25 -1.796875 C 0.3125 -1.859375 0.363281 -1.90625 0.40625 -1.9375 C 0.414062 -1.957031 0.421875 -1.96875 0.421875 -1.96875 C 0.628906 -2.195312 0.828125 -2.4375 1.015625 -2.6875 C 1.097656 -2.800781 1.210938 -2.878906 1.359375 -2.921875 C 1.566406 -2.960938 1.664062 -2.878906 1.65625 -2.671875 C 1.644531 -2.597656 1.632812 -2.53125 1.625 -2.46875 C 1.59375 -2.144531 1.617188 -1.960938 1.703125 -1.921875 C 1.785156 -1.890625 1.90625 -1.910156 2.0625 -1.984375 C 2.21875 -2.066406 2.359375 -2.191406 2.484375 -2.359375 C 2.609375 -2.523438 2.710938 -2.679688 2.796875 -2.828125 C 2.890625 -2.972656 2.976562 -3.03125 3.0625 -3 Z M 3.0625 -3 "></path></g></g><g transform="translate(54.429571, 16.998048)"><g></g></g><g transform="translate(58.041542, 16.411378)"><g><path d="M 27.71875 -0.546875 C 27.738281 -0.523438 27.753906 -0.492188 27.765625 -0.453125 L 27.765625 -0.421875 C 27.773438 -0.410156 27.78125 -0.398438 27.78125 -0.390625 C 27.769531 -0.347656 27.75 -0.3125 27.71875 -0.28125 C 27.6875 -0.257812 27.648438 -0.242188 27.609375 -0.234375 C 27.585938 -0.234375 27.566406 -0.234375 27.546875 -0.234375 C 27.523438 -0.234375 27.503906 -0.234375 27.484375 -0.234375 C 27.328125 -0.347656 27.148438 -0.414062 26.953125 -0.4375 C 26.753906 -0.457031 26.5625 -0.460938 26.375 -0.453125 C 26.28125 -0.441406 26.171875 -0.441406 26.046875 -0.453125 C 23.578125 -0.523438 21.113281 -0.492188 18.65625 -0.359375 C 17.394531 -0.285156 16.140625 -0.191406 14.890625 -0.078125 C 13.929688 0.015625 12.960938 0.128906 11.984375 0.265625 C 11.359375 0.359375 10.734375 0.445312 10.109375 0.53125 C 9.640625 0.582031 9.175781 0.65625 8.71875 0.75 C 8.5625 0.769531 8.414062 0.789062 8.28125 0.8125 C 7.851562 0.894531 7.425781 0.972656 7 1.046875 C 5.84375 1.253906 4.6875 1.472656 3.53125 1.703125 C 2.5625 1.890625 1.582031 2.109375 0.59375 2.359375 C -0.382812 2.609375 -1.347656 2.90625 -2.296875 3.25 C -2.941406 3.457031 -3.566406 3.722656 -4.171875 4.046875 C -4.191406 4.046875 -4.21875 4.0625 -4.25 4.09375 C -4.3125 4.132812 -4.378906 4.164062 -4.453125 4.1875 C -4.523438 4.21875 -4.601562 4.226562 -4.6875 4.21875 C -4.769531 4.226562 -4.828125 4.191406 -4.859375 4.109375 C -4.878906 4.078125 -4.882812 4.046875 -4.875 4.015625 C -4.875 3.984375 -4.867188 3.957031 -4.859375 3.9375 C -4.742188 3.820312 -4.625 3.703125 -4.5 3.578125 C -3.425781 2.535156 -2.390625 1.457031 -1.390625 0.34375 C 0.378906 -1.59375 2.046875 -3.609375 3.609375 -5.703125 C 4.585938 -7.003906 5.578125 -8.285156 6.578125 -9.546875 C 7.222656 -10.347656 7.863281 -11.164062 8.5 -12 C 8.8125 -12.40625 9.125 -12.8125 9.4375 -13.21875 C 9.46875 -13.28125 9.5 -13.335938 9.53125 -13.390625 C 9.550781 -13.398438 9.566406 -13.410156 9.578125 -13.421875 C 9.597656 -13.472656 9.625 -13.519531 9.65625 -13.5625 C 9.6875 -13.601562 9.695312 -13.648438 9.6875 -13.703125 C 9.601562 -13.753906 9.523438 -13.78125 9.453125 -13.78125 C 9.378906 -13.78125 9.300781 -13.773438 9.21875 -13.765625 C 9.175781 -13.753906 9.132812 -13.75 9.09375 -13.75 C 8.195312 -13.664062 7.304688 -13.5625 6.421875 -13.4375 C 5.535156 -13.3125 4.648438 -13.15625 3.765625 -12.96875 C 3.015625 -12.820312 2.269531 -12.65625 1.53125 -12.46875 C 0.800781 -12.289062 0.0703125 -12.070312 -0.65625 -11.8125 C -0.6875 -11.789062 -0.71875 -11.78125 -0.75 -11.78125 C -0.875 -11.726562 -0.992188 -11.671875 -1.109375 -11.609375 C -1.234375 -11.554688 -1.347656 -11.484375 -1.453125 -11.390625 C -1.398438 -11.242188 -1.328125 -11.132812 -1.234375 -11.0625 C -1.140625 -10.988281 -1.035156 -10.929688 -0.921875 -10.890625 C -0.847656 -10.859375 -0.78125 -10.816406 -0.71875 -10.765625 C -0.351562 -10.566406 0.0195312 -10.414062 0.40625 -10.3125 C 0.414062 -10.3125 0.429688 -10.300781 0.453125 -10.28125 C 0.472656 -10.269531 0.484375 -10.253906 0.484375 -10.234375 C 0.492188 -10.191406 0.488281 -10.160156 0.46875 -10.140625 C 0.445312 -10.128906 0.421875 -10.117188 0.390625 -10.109375 C 0.234375 -10.035156 0.078125 -10.023438 -0.078125 -10.078125 C -0.390625 -10.171875 -0.691406 -10.28125 -0.984375 -10.40625 C -1.273438 -10.53125 -1.550781 -10.691406 -1.8125 -10.890625 C -2.238281 -11.179688 -2.226562 -11.460938 -1.78125 -11.734375 C -1.53125 -11.878906 -1.269531 -12.003906 -1 -12.109375 C -0.613281 -12.265625 -0.21875 -12.398438 0.1875 -12.515625 C 0.59375 -12.640625 1 -12.753906 1.40625 -12.859375 C 1.445312 -12.867188 1.488281 -12.882812 1.53125 -12.90625 C 2.570312 -13.164062 3.625 -13.390625 4.6875 -13.578125 C 5.757812 -13.765625 6.835938 -13.925781 7.921875 -14.0625 C 8.503906 -14.132812 9.09375 -14.191406 9.6875 -14.234375 C 9.832031 -14.234375 9.96875 -14.257812 10.09375 -14.3125 C 10.226562 -14.363281 10.347656 -14.453125 10.453125 -14.578125 C 10.460938 -14.609375 10.492188 -14.632812 10.546875 -14.65625 C 10.597656 -14.6875 10.644531 -14.71875 10.6875 -14.75 C 10.707031 -14.757812 10.722656 -14.765625 10.734375 -14.765625 C 10.796875 -14.785156 10.851562 -14.78125 10.90625 -14.75 C 10.957031 -14.726562 10.984375 -14.679688 10.984375 -14.609375 C 10.984375 -14.535156 11 -14.476562 11.03125 -14.4375 C 11.0625 -14.40625 11.113281 -14.390625 11.1875 -14.390625 C 11.226562 -14.390625 11.265625 -14.390625 11.296875 -14.390625 C 11.441406 -14.398438 11.585938 -14.398438 11.734375 -14.390625 C 11.828125 -14.378906 11.875 -14.328125 11.875 -14.234375 C 11.875 -14.191406 11.863281 -14.15625 11.84375 -14.125 C 11.832031 -14.101562 11.8125 -14.09375 11.78125 -14.09375 C 11.625 -14.050781 11.46875 -14.015625 11.3125 -13.984375 C 11.125 -13.953125 10.976562 -13.925781 10.875 -13.90625 C 10.75 -13.894531 10.65625 -13.878906 10.59375 -13.859375 C 10.53125 -13.835938 10.472656 -13.800781 10.421875 -13.75 C 10.378906 -13.695312 10.320312 -13.613281 10.25 -13.5 C 10.1875 -13.414062 10.109375 -13.316406 10.015625 -13.203125 C 9.265625 -12.179688 8.5 -11.175781 7.71875 -10.1875 C 7.457031 -9.84375 7.191406 -9.503906 6.921875 -9.171875 C 5.785156 -7.703125 4.648438 -6.222656 3.515625 -4.734375 C 2.023438 -2.796875 0.453125 -0.9375 -1.203125 0.84375 C -1.566406 1.238281 -1.941406 1.640625 -2.328125 2.046875 C -2.554688 2.285156 -2.785156 2.523438 -3.015625 2.765625 C -3.035156 2.773438 -3.050781 2.796875 -3.0625 2.828125 C -3.101562 2.859375 -3.132812 2.890625 -3.15625 2.921875 C -3.1875 2.960938 -3.195312 3.015625 -3.1875 3.078125 C -3.039062 3.035156 -2.898438 2.992188 -2.765625 2.953125 C -2.421875 2.835938 -2.070312 2.722656 -1.71875 2.609375 C -0.632812 2.253906 0.472656 1.953125 1.609375 1.703125 C 3.035156 1.378906 4.460938 1.085938 5.890625 0.828125 C 7.328125 0.566406 8.769531 0.328125 10.21875 0.109375 C 12.414062 -0.242188 14.625 -0.503906 16.84375 -0.671875 C 20.15625 -0.898438 23.46875 -0.921875 26.78125 -0.734375 C 26.800781 -0.734375 26.828125 -0.726562 26.859375 -0.71875 C 27.054688 -0.71875 27.25 -0.703125 27.4375 -0.671875 C 27.539062 -0.660156 27.632812 -0.617188 27.71875 -0.546875 Z M 27.71875 -0.546875 "></path></g></g><g transform="translate(63.760495, 15.482484)"><g><path d="M 0.375 -4.234375 C 0.289062 -4.097656 0.203125 -4.023438 0.109375 -4.015625 C 0.0234375 -4.015625 -0.00390625 -4.101562 0.015625 -4.28125 C 0.0234375 -4.539062 0.0976562 -4.796875 0.234375 -5.046875 C 0.273438 -5.078125 0.316406 -5.097656 0.359375 -5.109375 C 0.410156 -5.128906 0.460938 -5.140625 0.515625 -5.140625 C 0.535156 -5.117188 0.554688 -5.097656 0.578125 -5.078125 C 0.609375 -5.054688 0.625 -5.035156 0.625 -5.015625 C 0.632812 -4.710938 0.550781 -4.453125 0.375 -4.234375 Z M 1.8125 -2.828125 C 1.832031 -2.828125 1.851562 -2.820312 1.875 -2.8125 C 1.894531 -2.8125 1.910156 -2.800781 1.921875 -2.78125 C 1.921875 -2.769531 1.921875 -2.753906 1.921875 -2.734375 C 1.921875 -2.710938 1.910156 -2.695312 1.890625 -2.6875 C 1.828125 -2.59375 1.753906 -2.515625 1.671875 -2.453125 C 1.523438 -2.328125 1.382812 -2.203125 1.25 -2.078125 C 0.875 -1.765625 0.492188 -1.460938 0.109375 -1.171875 C -0.179688 -0.941406 -0.363281 -0.65625 -0.4375 -0.3125 C -0.601562 0.394531 -0.789062 1.097656 -1 1.796875 C -1.09375 2.109375 -1.191406 2.421875 -1.296875 2.734375 C -1.410156 3.054688 -1.550781 3.363281 -1.71875 3.65625 C -2.050781 4.257812 -2.519531 4.648438 -3.125 4.828125 C -3.625 4.984375 -4.132812 5.035156 -4.65625 4.984375 C -5.050781 4.941406 -5.429688 4.84375 -5.796875 4.6875 C -5.921875 4.625 -6.046875 4.550781 -6.171875 4.46875 C -6.742188 4.125 -6.765625 3.65625 -6.234375 3.0625 C -6.066406 2.882812 -5.878906 2.722656 -5.671875 2.578125 C -5.359375 2.316406 -5.046875 2.070312 -4.734375 1.84375 C -4.316406 1.550781 -3.910156 1.269531 -3.515625 1 C -2.828125 0.53125 -2.15625 0.0625 -1.5 -0.40625 C -1.363281 -0.488281 -1.25 -0.554688 -1.15625 -0.609375 C -1.039062 -0.691406 -0.957031 -0.753906 -0.90625 -0.796875 C -0.851562 -0.847656 -0.816406 -0.90625 -0.796875 -0.96875 C -0.773438 -1.03125 -0.753906 -1.128906 -0.734375 -1.265625 C -0.710938 -1.367188 -0.675781 -1.503906 -0.625 -1.671875 C -0.539062 -1.953125 -0.46875 -2.238281 -0.40625 -2.53125 C -0.363281 -2.726562 -0.316406 -2.921875 -0.265625 -3.109375 C -0.234375 -3.234375 -0.1875 -3.347656 -0.125 -3.453125 C -0.0625 -3.554688 0.0195312 -3.585938 0.125 -3.546875 C 0.207031 -3.515625 0.242188 -3.457031 0.234375 -3.375 C 0.222656 -3.289062 0.195312 -3.140625 0.15625 -2.921875 C 0.125 -2.734375 0.0859375 -2.535156 0.046875 -2.328125 C 0.015625 -2.128906 -0.00390625 -1.957031 -0.015625 -1.8125 C -0.0234375 -1.675781 -0.0234375 -1.597656 -0.015625 -1.578125 C -0.00390625 -1.566406 0.0351562 -1.582031 0.109375 -1.625 C 0.179688 -1.664062 0.289062 -1.75 0.4375 -1.875 C 0.445312 -1.875 0.453125 -1.875 0.453125 -1.875 C 0.703125 -2.050781 0.941406 -2.234375 1.171875 -2.421875 C 1.253906 -2.492188 1.335938 -2.570312 1.421875 -2.65625 C 1.429688 -2.65625 1.4375 -2.65625 1.4375 -2.65625 C 1.5 -2.695312 1.554688 -2.734375 1.609375 -2.765625 C 1.671875 -2.804688 1.738281 -2.828125 1.8125 -2.828125 Z M -1.046875 0.0625 C -1.015625 -0.03125 -1.03125 -0.109375 -1.09375 -0.171875 C -1.1875 -0.160156 -1.257812 -0.125 -1.3125 -0.0625 C -1.332031 -0.0625 -1.351562 -0.0507812 -1.375 -0.03125 C -1.644531 0.15625 -1.910156 0.34375 -2.171875 0.53125 C -2.890625 1.007812 -3.597656 1.5 -4.296875 2 C -4.691406 2.269531 -5.078125 2.5625 -5.453125 2.875 C -5.609375 3.007812 -5.753906 3.160156 -5.890625 3.328125 C -6.140625 3.640625 -6.132812 3.894531 -5.875 4.09375 C -5.8125 4.144531 -5.742188 4.1875 -5.671875 4.21875 C -5.359375 4.394531 -5.023438 4.519531 -4.671875 4.59375 C -4.316406 4.664062 -3.953125 4.671875 -3.578125 4.609375 C -3.023438 4.515625 -2.597656 4.210938 -2.296875 3.703125 C -2.085938 3.359375 -1.921875 3 -1.796875 2.625 C -1.628906 2.019531 -1.457031 1.414062 -1.28125 0.8125 C -1.207031 0.5625 -1.128906 0.3125 -1.046875 0.0625 Z M -1.046875 0.0625 "></path></g></g><g transform="translate(65.705035, 15.166645)"><g><path d="M -0.015625 -0.859375 C -0.328125 -0.804688 -0.507812 -0.9375 -0.5625 -1.25 C -0.625 -1.632812 -0.476562 -2.359375 -0.125 -3.421875 C -0.113281 -3.472656 -0.0820312 -3.5 -0.03125 -3.5 C 0.15625 -3.53125 0.265625 -3.460938 0.296875 -3.296875 C 0.304688 -3.242188 0.300781 -3.179688 0.28125 -3.109375 C 0.28125 -3.078125 0.179688 -2.628906 -0.015625 -1.765625 C -0.046875 -1.617188 -0.0546875 -1.515625 -0.046875 -1.453125 C -0.0351562 -1.378906 0.00390625 -1.347656 0.078125 -1.359375 C 0.296875 -1.398438 0.804688 -2.070312 1.609375 -3.375 C 1.722656 -3.550781 1.84375 -3.648438 1.96875 -3.671875 C 2.144531 -3.703125 2.242188 -3.648438 2.265625 -3.515625 C 2.273438 -3.460938 2.25 -3.265625 2.1875 -2.921875 C 2.113281 -2.441406 2.082031 -2.171875 2.09375 -2.109375 C 2.113281 -2.003906 2.15625 -1.957031 2.21875 -1.96875 C 2.394531 -1.988281 2.859375 -2.378906 3.609375 -3.140625 C 3.648438 -3.179688 3.691406 -3.207031 3.734375 -3.21875 C 3.804688 -3.226562 3.851562 -3.164062 3.875 -3.03125 C 3.875 -3 3.859375 -2.972656 3.828125 -2.953125 C 3.460938 -2.492188 3.132812 -2.140625 2.84375 -1.890625 C 2.582031 -1.648438 2.34375 -1.515625 2.125 -1.484375 L 2.046875 -1.46875 C 1.710938 -1.488281 1.507812 -1.71875 1.4375 -2.15625 C 1.132812 -1.800781 0.882812 -1.503906 0.6875 -1.265625 C 0.488281 -1.035156 0.253906 -0.898438 -0.015625 -0.859375 Z M -0.015625 -0.859375 "></path></g></g><g transform="translate(69.632336, 14.528758)"><g><path d="M 3.390625 -2.984375 C 3.453125 -2.929688 3.40625 -2.804688 3.25 -2.609375 C 3.101562 -2.410156 2.9375 -2.238281 2.75 -2.09375 C 2.570312 -1.945312 2.363281 -1.796875 2.125 -1.640625 C 1.957031 -1.535156 1.769531 -1.476562 1.5625 -1.46875 C 1.363281 -1.46875 1.25 -1.570312 1.21875 -1.78125 C 1.1875 -1.988281 1.203125 -2.207031 1.265625 -2.4375 C 1.335938 -2.675781 1.34375 -2.796875 1.28125 -2.796875 C 1.226562 -2.796875 1.117188 -2.722656 0.953125 -2.578125 C 0.535156 -2.203125 0.164062 -1.789062 -0.15625 -1.34375 C -0.238281 -1.195312 -0.363281 -1.101562 -0.53125 -1.0625 C -0.613281 -1.050781 -0.675781 -1.066406 -0.71875 -1.109375 C -0.769531 -1.160156 -0.785156 -1.21875 -0.765625 -1.28125 C -0.566406 -1.84375 -0.363281 -2.40625 -0.15625 -2.96875 C -0.113281 -3.070312 -0.03125 -3.144531 0.09375 -3.1875 C 0.144531 -3.207031 0.195312 -3.195312 0.25 -3.15625 C 0.300781 -3.125 0.332031 -3.085938 0.34375 -3.046875 C 0.34375 -2.992188 0.332031 -2.929688 0.3125 -2.859375 C 0.289062 -2.816406 0.273438 -2.769531 0.265625 -2.71875 C 0.265625 -2.675781 0.265625 -2.640625 0.265625 -2.609375 C 0.273438 -2.585938 0.300781 -2.585938 0.34375 -2.609375 C 0.382812 -2.640625 0.425781 -2.675781 0.46875 -2.71875 C 0.582031 -2.800781 0.6875 -2.890625 0.78125 -2.984375 C 0.875 -3.046875 0.972656 -3.109375 1.078125 -3.171875 C 1.179688 -3.234375 1.289062 -3.28125 1.40625 -3.3125 C 1.582031 -3.363281 1.722656 -3.34375 1.828125 -3.25 C 1.929688 -3.164062 1.960938 -3.03125 1.921875 -2.84375 C 1.890625 -2.675781 1.847656 -2.507812 1.796875 -2.34375 C 1.734375 -2.1875 1.738281 -2.078125 1.8125 -2.015625 C 1.882812 -1.953125 2.140625 -2.078125 2.578125 -2.390625 L 2.890625 -2.671875 C 3.191406 -2.941406 3.359375 -3.046875 3.390625 -2.984375 Z M 3.390625 -2.984375 "></path></g></g></g><g clip-path="url(#8eec84d5ba)"><g clip-path="url(#cba9f30c6e)"><path fill="#ffffff" d="M 74.578125 10.933594 L 75.699219 10.933594 L 75.699219 12.054688 L 74.578125 12.054688 Z M 74.578125 10.933594 " fill-opacity="1" fill-rule="nonzero"></path></g></g></svg>