<svg xmlns="http://www.w3.org/2000/svg" xmlns:xlink="http://www.w3.org/1999/xlink" width="122" viewBox="0 0 91.5 30.000001" height="40" preserveAspectRatio="xMidYMid meet"><defs><g></g><clipPath id="f6ea643c97"><path d="M 41.820312 4.085938 L 55.542969 4.085938 L 55.542969 17.804688 L 41.820312 17.804688 Z M 41.820312 4.085938 " clip-rule="nonzero"></path></clipPath><clipPath id="b5e4574193"><path d="M 48.679688 4.085938 C 44.894531 4.085938 41.820312 7.15625 41.820312 10.945312 C 41.820312 14.734375 44.894531 17.804688 48.679688 17.804688 C 52.46875 17.804688 55.542969 14.734375 55.542969 10.945312 C 55.542969 7.15625 52.46875 4.085938 48.679688 4.085938 Z M 48.679688 4.085938 " clip-rule="nonzero"></path></clipPath><clipPath id="5a767f8802"><path d="M 41.820312 0.65625 L 48.679688 0.65625 L 48.679688 7.515625 L 41.820312 7.515625 Z M 41.820312 0.65625 " clip-rule="nonzero"></path></clipPath><clipPath id="67b06f75d8"><path d="M 45.25 0.65625 C 43.355469 0.65625 41.820312 2.191406 41.820312 4.085938 C 41.820312 5.980469 43.355469 7.515625 45.25 7.515625 C 47.144531 7.515625 48.679688 5.980469 48.679688 4.085938 C 48.679688 2.191406 47.144531 0.65625 45.25 0.65625 Z M 45.25 0.65625 " clip-rule="nonzero"></path></clipPath><clipPath id="4a57af750f"><path d="M 37.761719 0 L 56.933594 0 L 56.933594 19.023438 L 37.761719 19.023438 Z M 37.761719 0 " clip-rule="nonzero"></path></clipPath></defs><g clip-path="url(#f6ea643c97)"><g clip-path="url(#b5e4574193)"><path fill="#fab713" d="M 41.820312 4.085938 L 55.542969 4.085938 L 55.542969 17.804688 L 41.820312 17.804688 Z M 41.820312 4.085938 " fill-opacity="1" fill-rule="nonzero"></path></g></g><g clip-path="url(#5a767f8802)"><g clip-path="url(#67b06f75d8)"><path fill="#ffffff" d="M 41.820312 0.65625 L 48.679688 0.65625 L 48.679688 7.515625 L 41.820312 7.515625 Z M 41.820312 0.65625 " fill-opacity="1" fill-rule="nonzero"></path></g></g><g clip-path="url(#4a57af750f)"><path fill="#333632" d="M 50.015625 10.863281 C 50.015625 10.125 49.449219 9.5625 48.742188 9.5625 C 48.039062 9.5625 47.4375 10.125 47.4375 10.863281 C 47.4375 11.566406 48.039062 12.128906 48.742188 12.128906 C 49.449219 12.128906 50.015625 11.566406 50.015625 10.863281 Z M 52.097656 14.234375 C 51.816406 14.515625 51.359375 14.515625 51.074219 14.234375 C 50.789062 13.957031 50.789062 13.460938 51.074219 13.183594 C 51.390625 12.902344 51.640625 12.515625 51.78125 12.128906 C 51.957031 11.742188 52.0625 11.285156 52.0625 10.863281 C 52.0625 10.40625 51.957031 9.984375 51.816406 9.597656 C 51.640625 9.175781 51.390625 8.824219 51.074219 8.507812 C 50.789062 8.226562 50.789062 7.769531 51.074219 7.488281 C 51.390625 7.207031 51.851562 7.207031 52.132812 7.488281 C 52.558594 7.910156 52.910156 8.4375 53.15625 9.035156 C 53.40625 9.597656 53.507812 10.195312 53.507812 10.863281 C 53.507812 11.496094 53.40625 12.128906 53.15625 12.691406 C 52.910156 13.253906 52.558594 13.78125 52.097656 14.234375 Z M 54.570312 16.589844 C 54.253906 16.871094 53.792969 16.871094 53.507812 16.589844 C 53.226562 16.308594 53.226562 15.851562 53.507812 15.570312 C 54.109375 14.9375 54.605469 14.199219 54.960938 13.394531 C 55.273438 12.621094 55.453125 11.742188 55.453125 10.863281 C 55.453125 9.949219 55.277344 9.070312 54.960938 8.296875 C 54.605469 7.488281 54.109375 6.75 53.476562 6.117188 C 53.195312 5.835938 53.195312 5.378906 53.507812 5.097656 C 53.792969 4.816406 54.253906 4.816406 54.535156 5.097656 C 55.277344 5.835938 55.914062 6.75 56.300781 7.734375 C 56.726562 8.683594 56.933594 9.738281 56.933594 10.863281 C 56.933594 11.953125 56.726562 13.007812 56.300781 13.957031 C 55.914062 14.9375 55.3125 15.851562 54.570312 16.589844 Z M 47.683594 4.078125 C 47.683594 3.378906 47.402344 2.710938 46.90625 2.253906 C 46.449219 1.761719 45.777344 1.480469 45.070312 1.480469 C 44.328125 1.480469 43.695312 1.761719 43.199219 2.253906 C 42.742188 2.710938 42.421875 3.378906 42.421875 4.078125 C 42.421875 4.816406 42.703125 5.449219 43.164062 5.90625 C 43.199219 5.941406 43.234375 5.976562 43.269531 6.011719 C 43.730469 6.433594 44.363281 6.714844 45.070312 6.714844 C 45.777344 6.714844 46.449219 6.433594 46.90625 5.941406 C 47.402344 5.484375 47.683594 4.816406 47.683594 4.078125 Z M 41.011719 4.816406 L 38.503906 4.816406 C 38.078125 4.816406 37.761719 4.503906 37.761719 4.078125 C 37.761719 3.691406 38.078125 3.339844 38.503906 3.339844 L 41.011719 3.339844 C 41.1875 2.535156 41.574219 1.796875 42.140625 1.199219 C 42.917969 0.460938 43.941406 0.00390625 45.070312 0.00390625 C 46.199219 0.00390625 47.226562 0.460938 47.964844 1.199219 C 48.710938 1.9375 49.167969 2.953125 49.167969 4.078125 C 49.167969 5.238281 48.710938 6.257812 47.964844 6.996094 C 47.226562 7.734375 46.199219 8.191406 45.070312 8.191406 C 44.257812 8.191406 43.515625 7.945312 42.882812 7.558594 C 42.667969 7.945312 42.492188 8.367188 42.351562 8.789062 C 42.140625 9.421875 42 10.125 42 10.863281 C 42 12.691406 42.777344 14.375 43.976562 15.570312 C 45.210938 16.800781 46.871094 17.539062 48.742188 17.539062 C 49.132812 17.539062 49.484375 17.855469 49.484375 18.277344 C 49.484375 18.664062 49.132812 19.015625 48.742188 19.015625 C 46.484375 19.015625 44.4375 18.101562 42.953125 16.625 C 41.46875 15.148438 40.550781 13.109375 40.550781 10.863281 C 40.550781 9.984375 40.691406 9.105469 40.941406 8.332031 C 41.152344 7.699219 41.433594 7.101562 41.785156 6.539062 C 41.398438 6.046875 41.152344 5.449219 41.011719 4.816406 Z M 46.238281 4.078125 C 46.238281 3.449219 45.707031 2.921875 45.070312 2.921875 C 44.398438 2.921875 43.871094 3.449219 43.871094 4.078125 C 43.871094 4.746094 44.398438 5.273438 45.070312 5.273438 C 45.707031 5.273438 46.238281 4.746094 46.238281 4.078125 Z M 46.238281 4.078125 " fill-opacity="1" fill-rule="evenodd"></path></g><g fill="#333632" fill-opacity="1"><g transform="translate(26.871571, 26.684472)"><g><path d="M 5.15625 -5.765625 C 5.15625 -5.566406 5.085938 -5.410156 4.953125 -5.296875 C 4.828125 -5.191406 4.632812 -5.140625 4.375 -5.140625 C 4.226562 -5.140625 4.085938 -5.140625 3.953125 -5.140625 C 3.816406 -5.140625 3.675781 -5.140625 3.53125 -5.140625 L 3.53125 -3.1875 C 3.53125 -2.789062 3.53125 -2.390625 3.53125 -1.984375 C 3.53125 -1.585938 3.53125 -1.1875 3.53125 -0.78125 C 3.539062 -0.53125 3.476562 -0.335938 3.34375 -0.203125 C 3.207031 -0.0664062 3.015625 0 2.765625 0 L 2.59375 0 C 2.070312 0 1.8125 -0.257812 1.8125 -0.78125 C 1.820312 -1.175781 1.828125 -1.578125 1.828125 -1.984375 C 1.828125 -2.390625 1.828125 -2.789062 1.828125 -3.1875 C 1.828125 -3.519531 1.828125 -3.847656 1.828125 -4.171875 C 1.828125 -4.503906 1.828125 -4.828125 1.828125 -5.140625 C 1.691406 -5.140625 1.554688 -5.140625 1.421875 -5.140625 C 1.296875 -5.140625 1.160156 -5.140625 1.015625 -5.140625 C 0.765625 -5.140625 0.570312 -5.191406 0.4375 -5.296875 C 0.300781 -5.410156 0.234375 -5.566406 0.234375 -5.765625 C 0.234375 -6.171875 0.492188 -6.375 1.015625 -6.375 L 4.375 -6.375 C 4.894531 -6.375 5.15625 -6.171875 5.15625 -5.765625 Z M 5.15625 -5.765625 "></path></g></g></g><g fill="#333632" fill-opacity="1"><g transform="translate(32.260227, 26.684472)"><g><path d="M 5.703125 -3.1875 C 5.703125 -2.789062 5.703125 -2.390625 5.703125 -1.984375 C 5.703125 -1.585938 5.703125 -1.1875 5.703125 -0.78125 C 5.710938 -0.53125 5.648438 -0.335938 5.515625 -0.203125 C 5.378906 -0.0664062 5.1875 0 4.9375 0 L 4.765625 0 C 4.503906 0 4.304688 -0.0664062 4.171875 -0.203125 C 4.035156 -0.335938 3.972656 -0.53125 3.984375 -0.78125 C 3.992188 -1.070312 4 -1.359375 4 -1.640625 C 4 -1.929688 4 -2.21875 4 -2.5 L 2.40625 -2.5 C 2.40625 -2.21875 2.40625 -1.929688 2.40625 -1.640625 C 2.40625 -1.359375 2.40625 -1.070312 2.40625 -0.78125 C 2.414062 -0.53125 2.351562 -0.335938 2.21875 -0.203125 C 2.082031 -0.0664062 1.890625 0 1.640625 0 L 1.46875 0 C 1.21875 0 1.023438 -0.0664062 0.890625 -0.203125 C 0.753906 -0.335938 0.691406 -0.53125 0.703125 -0.78125 C 0.703125 -1.1875 0.703125 -1.585938 0.703125 -1.984375 C 0.703125 -2.390625 0.703125 -2.789062 0.703125 -3.1875 C 0.703125 -3.59375 0.703125 -3.992188 0.703125 -4.390625 C 0.703125 -4.796875 0.703125 -5.195312 0.703125 -5.59375 C 0.691406 -5.84375 0.753906 -6.035156 0.890625 -6.171875 C 1.023438 -6.304688 1.21875 -6.375 1.46875 -6.375 L 1.640625 -6.375 C 1.890625 -6.375 2.082031 -6.304688 2.21875 -6.171875 C 2.351562 -6.035156 2.414062 -5.84375 2.40625 -5.59375 C 2.40625 -5.289062 2.40625 -4.988281 2.40625 -4.6875 C 2.40625 -4.382812 2.40625 -4.078125 2.40625 -3.765625 L 4 -3.765625 C 4 -4.078125 4 -4.382812 4 -4.6875 C 4 -4.988281 3.992188 -5.289062 3.984375 -5.59375 C 3.972656 -5.84375 4.035156 -6.035156 4.171875 -6.171875 C 4.304688 -6.304688 4.503906 -6.375 4.765625 -6.375 L 4.9375 -6.375 C 5.1875 -6.375 5.378906 -6.304688 5.515625 -6.171875 C 5.648438 -6.035156 5.710938 -5.84375 5.703125 -5.59375 C 5.703125 -5.195312 5.703125 -4.796875 5.703125 -4.390625 C 5.703125 -3.992188 5.703125 -3.59375 5.703125 -3.1875 Z M 5.703125 -3.1875 "></path></g></g></g><g fill="#333632" fill-opacity="1"><g transform="translate(38.660407, 26.684472)"><g><path d="M 2.40625 -1.21875 C 2.675781 -1.226562 2.945312 -1.234375 3.21875 -1.234375 C 3.488281 -1.234375 3.753906 -1.238281 4.015625 -1.25 C 4.535156 -1.25 4.796875 -1.039062 4.796875 -0.625 C 4.796875 -0.207031 4.535156 0 4.015625 0 L 1.46875 0 C 1.21875 0 1.023438 -0.0664062 0.890625 -0.203125 C 0.753906 -0.335938 0.691406 -0.53125 0.703125 -0.78125 C 0.703125 -1.1875 0.703125 -1.585938 0.703125 -1.984375 C 0.703125 -2.390625 0.703125 -2.789062 0.703125 -3.1875 C 0.703125 -3.59375 0.703125 -3.992188 0.703125 -4.390625 C 0.703125 -4.796875 0.703125 -5.195312 0.703125 -5.59375 C 0.691406 -5.84375 0.753906 -6.035156 0.890625 -6.171875 C 1.023438 -6.304688 1.21875 -6.375 1.46875 -6.375 L 3.921875 -6.375 C 4.441406 -6.375 4.703125 -6.171875 4.703125 -5.765625 C 4.703125 -5.347656 4.441406 -5.140625 3.921875 -5.140625 C 3.671875 -5.140625 3.414062 -5.140625 3.15625 -5.140625 C 2.90625 -5.140625 2.65625 -5.144531 2.40625 -5.15625 L 2.40625 -3.75 C 2.601562 -3.75 2.796875 -3.75 2.984375 -3.75 C 3.179688 -3.75 3.367188 -3.753906 3.546875 -3.765625 C 4.066406 -3.765625 4.328125 -3.554688 4.328125 -3.140625 C 4.328125 -2.722656 4.066406 -2.515625 3.546875 -2.515625 C 3.367188 -2.523438 3.179688 -2.53125 2.984375 -2.53125 C 2.796875 -2.53125 2.601562 -2.535156 2.40625 -2.546875 Z M 2.40625 -1.21875 "></path></g></g></g><g fill="#333632" fill-opacity="1"><g transform="translate(43.855954, 26.684472)"><g></g></g></g><g fill="#333632" fill-opacity="1"><g transform="translate(46.154869, 26.684472)"><g><path d="M 1.46875 0 C 0.945312 0 0.6875 -0.257812 0.6875 -0.78125 C 0.695312 -1.195312 0.703125 -1.785156 0.703125 -2.546875 C 0.703125 -3.316406 0.703125 -4.320312 0.703125 -5.5625 C 0.703125 -6.101562 0.960938 -6.375 1.484375 -6.375 L 3.140625 -6.375 C 3.722656 -6.375 4.1875 -6.316406 4.53125 -6.203125 C 4.875 -6.085938 5.117188 -5.921875 5.265625 -5.703125 C 5.421875 -5.492188 5.5 -5.238281 5.5 -4.9375 C 5.5 -4.519531 5.394531 -4.171875 5.1875 -3.890625 C 4.988281 -3.617188 4.726562 -3.429688 4.40625 -3.328125 L 4.40625 -3.296875 C 4.84375 -3.253906 5.160156 -3.101562 5.359375 -2.84375 C 5.566406 -2.59375 5.671875 -2.285156 5.671875 -1.921875 C 5.671875 -1.554688 5.582031 -1.226562 5.40625 -0.9375 C 5.226562 -0.65625 4.96875 -0.425781 4.625 -0.25 C 4.28125 -0.0820312 3.847656 0 3.328125 0 Z M 2.328125 -3.8125 L 2.609375 -3.8125 C 3.085938 -3.8125 3.414062 -3.894531 3.59375 -4.0625 C 3.769531 -4.226562 3.859375 -4.421875 3.859375 -4.640625 C 3.859375 -4.867188 3.773438 -5.03125 3.609375 -5.125 C 3.441406 -5.21875 3.191406 -5.265625 2.859375 -5.265625 L 2.34375 -5.265625 C 2.332031 -5.078125 2.328125 -4.867188 2.328125 -4.640625 C 2.328125 -4.421875 2.328125 -4.144531 2.328125 -3.8125 Z M 2.34375 -1.09375 L 2.859375 -1.09375 C 3.242188 -1.09375 3.539062 -1.175781 3.75 -1.34375 C 3.96875 -1.507812 4.078125 -1.75 4.078125 -2.0625 C 4.078125 -2.332031 3.988281 -2.546875 3.8125 -2.703125 C 3.632812 -2.867188 3.363281 -2.953125 3 -2.953125 L 2.328125 -2.953125 L 2.328125 -2.25 C 2.328125 -2.0625 2.328125 -1.867188 2.328125 -1.671875 C 2.328125 -1.484375 2.332031 -1.289062 2.34375 -1.09375 Z M 2.34375 -1.09375 "></path></g></g></g><g fill="#333632" fill-opacity="1"><g transform="translate(52.2332, 26.684472)"><g><path d="M 1.46875 0 C 0.945312 0 0.6875 -0.257812 0.6875 -0.78125 L 0.6875 -5.59375 C 0.6875 -6.113281 0.945312 -6.375 1.46875 -6.375 L 1.640625 -6.375 C 2.160156 -6.375 2.421875 -6.113281 2.421875 -5.59375 L 2.421875 -0.78125 C 2.421875 -0.257812 2.160156 0 1.640625 0 Z M 1.46875 0 "></path></g></g></g><g fill="#333632" fill-opacity="1"><g transform="translate(55.341334, 26.684472)"><g><path d="M 1.46875 0 C 0.945312 0 0.6875 -0.257812 0.6875 -0.78125 C 0.695312 -1.175781 0.703125 -1.578125 0.703125 -1.984375 C 0.703125 -2.390625 0.703125 -2.789062 0.703125 -3.1875 C 0.703125 -3.59375 0.703125 -3.992188 0.703125 -4.390625 C 0.703125 -4.796875 0.695312 -5.195312 0.6875 -5.59375 C 0.6875 -6.113281 0.945312 -6.375 1.46875 -6.375 L 3.0625 -6.375 C 3.988281 -6.375 4.660156 -6.222656 5.078125 -5.921875 C 5.503906 -5.617188 5.71875 -5.132812 5.71875 -4.46875 C 5.71875 -4.050781 5.601562 -3.695312 5.375 -3.40625 C 5.15625 -3.113281 4.851562 -2.914062 4.46875 -2.8125 L 4.46875 -2.78125 C 4.769531 -2.6875 5.019531 -2.488281 5.21875 -2.1875 C 5.414062 -1.882812 5.578125 -1.453125 5.703125 -0.890625 C 5.765625 -0.609375 5.726562 -0.390625 5.59375 -0.234375 C 5.46875 -0.078125 5.269531 0 5 0 L 4.703125 0 C 4.222656 0 3.945312 -0.25 3.875 -0.75 C 3.832031 -1.039062 3.769531 -1.300781 3.6875 -1.53125 C 3.613281 -1.769531 3.5 -1.957031 3.34375 -2.09375 C 3.195312 -2.226562 3 -2.296875 2.75 -2.296875 L 2.40625 -2.296875 C 2.40625 -2.046875 2.40625 -1.789062 2.40625 -1.53125 C 2.40625 -1.28125 2.410156 -1.03125 2.421875 -0.78125 C 2.421875 -0.257812 2.160156 0 1.640625 0 Z M 2.40625 -3.3125 L 2.71875 -3.3125 C 3.15625 -3.3125 3.46875 -3.382812 3.65625 -3.53125 C 3.851562 -3.6875 3.953125 -3.941406 3.953125 -4.296875 C 3.953125 -4.585938 3.863281 -4.796875 3.6875 -4.921875 C 3.519531 -5.046875 3.242188 -5.109375 2.859375 -5.109375 L 2.421875 -5.109375 C 2.410156 -4.878906 2.40625 -4.628906 2.40625 -4.359375 C 2.40625 -4.097656 2.40625 -3.75 2.40625 -3.3125 Z M 2.40625 -3.3125 "></path></g></g></g><g fill="#333632" fill-opacity="1"><g transform="translate(61.612773, 26.684472)"><g><path d="M 2.78125 0.015625 L 1.46875 0 C 0.945312 0 0.6875 -0.253906 0.6875 -0.765625 C 0.6875 -0.972656 0.6875 -1.207031 0.6875 -1.46875 C 0.695312 -1.738281 0.703125 -2.054688 0.703125 -2.421875 C 0.703125 -2.796875 0.703125 -3.238281 0.703125 -3.75 C 0.703125 -4.257812 0.703125 -4.863281 0.703125 -5.5625 C 0.703125 -6.101562 0.960938 -6.375 1.484375 -6.375 L 2.78125 -6.375 C 3.488281 -6.375 4.054688 -6.269531 4.484375 -6.0625 C 4.921875 -5.863281 5.238281 -5.535156 5.4375 -5.078125 C 5.644531 -4.628906 5.75 -4.03125 5.75 -3.28125 C 5.75 -2.15625 5.515625 -1.328125 5.046875 -0.796875 C 4.585938 -0.265625 3.832031 0.00390625 2.78125 0.015625 Z M 2.421875 -1.265625 L 2.75 -1.265625 C 3.226562 -1.265625 3.5625 -1.429688 3.75 -1.765625 C 3.945312 -2.097656 4.046875 -2.570312 4.046875 -3.1875 C 4.046875 -3.664062 4.003906 -4.039062 3.921875 -4.3125 C 3.847656 -4.59375 3.71875 -4.796875 3.53125 -4.921875 C 3.34375 -5.046875 3.082031 -5.109375 2.75 -5.109375 L 2.421875 -5.109375 C 2.421875 -4.898438 2.414062 -4.671875 2.40625 -4.421875 C 2.40625 -4.179688 2.40625 -3.890625 2.40625 -3.546875 C 2.40625 -3.210938 2.40625 -2.78125 2.40625 -2.25 C 2.40625 -2.082031 2.40625 -1.914062 2.40625 -1.75 C 2.40625 -1.59375 2.410156 -1.429688 2.421875 -1.265625 Z M 2.421875 -1.265625 "></path></g></g></g></svg>