<svg xmlns="http://www.w3.org/2000/svg" xmlns:xlink="http://www.w3.org/1999/xlink" width="122" viewBox="0 0 91.5 30.000001" height="40" preserveAspectRatio="xMidYMid meet"><defs><g></g><clipPath id="cb8adc32ab"><path d="M 13.390625 11 L 33 11 L 33 16.53125 L 13.390625 16.53125 Z M 13.390625 11 " clip-rule="nonzero"></path></clipPath><clipPath id="7c2f0ba109"><path d="M 14 2.742188 L 72.90625 2.742188 L 72.90625 15 L 14 15 Z M 14 2.742188 " clip-rule="nonzero"></path></clipPath><clipPath id="f648750400"><path d="M 36.707031 7.296875 L 68.644531 7.296875 L 68.644531 14.554688 L 36.707031 14.554688 Z M 36.707031 7.296875 " clip-rule="nonzero"></path></clipPath><clipPath id="dd34ad97c1"><path d="M 13.390625 20 L 33.714844 20 L 33.714844 24 L 13.390625 24 Z M 13.390625 20 " clip-rule="nonzero"></path></clipPath></defs><g clip-path="url(#cb8adc32ab)"><path fill="#000000" d="M 32.953125 15.375 C 25.890625 15.949219 21.070312 15.265625 18.25 14.585938 C 18.890625 14.585938 19.53125 14.566406 20.148438 14.535156 C 20.738281 14.503906 21.324219 14.460938 21.90625 14.40625 C 22.394531 14.363281 23.296875 14.269531 23.839844 14.199219 C 22.75 14.019531 21.671875 13.792969 20.613281 13.542969 C 19.675781 13.324219 18.75 13.082031 17.855469 12.796875 C 17.136719 12.570312 16.484375 12.269531 15.824219 11.988281 C 15.269531 11.75 14.480469 11.339844 13.867188 11.695312 C 13.390625 11.976562 13.386719 12.546875 13.425781 12.925781 C 13.542969 13.992188 15.113281 14.625 15.9375 15.007812 C 16.949219 15.476562 18.019531 15.792969 19.105469 16.011719 C 21.339844 16.460938 23.640625 16.511719 25.910156 16.382812 C 27.71875 16.277344 29.515625 16.054688 31.300781 15.722656 C 31.835938 15.621094 32.394531 15.5 32.953125 15.375 Z M 32.953125 15.375 " fill-opacity="1" fill-rule="nonzero"></path></g><g clip-path="url(#7c2f0ba109)"><path fill="#000000" d="M 72.214844 9.984375 C 71.878906 9.824219 71.535156 9.675781 71.183594 9.539062 C 70.765625 9.371094 70.339844 9.21875 69.90625 9.078125 C 68.835938 8.734375 67.746094 8.464844 66.640625 8.265625 C 65.515625 8.066406 64.382812 7.925781 63.242188 7.839844 C 62.953125 7.820312 62.667969 7.796875 62.382812 7.785156 L 61.953125 7.761719 L 61.523438 7.746094 C 61.378906 7.738281 61.234375 7.734375 61.089844 7.730469 L 60.660156 7.722656 C 60.375 7.714844 60.089844 7.714844 59.800781 7.714844 C 59.65625 7.710938 59.515625 7.710938 59.371094 7.714844 L 58.941406 7.714844 C 58.65625 7.71875 58.371094 7.726562 58.082031 7.730469 L 57.226562 7.757812 C 56.941406 7.769531 56.65625 7.78125 56.371094 7.792969 C 55.800781 7.820312 55.234375 7.851562 54.664062 7.882812 C 54.382812 7.902344 54.097656 7.917969 53.816406 7.9375 L 52.964844 7.996094 C 50.703125 8.152344 48.449219 8.34375 46.203125 8.539062 C 43.957031 8.730469 41.71875 8.929688 39.480469 9.089844 C 38.363281 9.175781 37.242188 9.25 36.128906 9.3125 C 35.011719 9.375 33.894531 9.425781 32.777344 9.460938 C 31.664062 9.492188 30.550781 9.519531 29.4375 9.511719 C 29.296875 9.511719 29.160156 9.515625 29.019531 9.511719 L 28.605469 9.507812 C 28.324219 9.503906 28.046875 9.503906 27.769531 9.496094 L 26.9375 9.476562 L 26.109375 9.445312 C 25.234375 9.40625 24.359375 9.355469 23.492188 9.289062 C 23.78125 9.171875 24.0625 9.054688 24.34375 8.929688 C 25.8125 8.292969 27.183594 7.585938 28.542969 6.914062 C 29.902344 6.242188 31.257812 5.605469 32.675781 5.105469 C 32.855469 5.042969 33.03125 4.980469 33.210938 4.925781 C 33.300781 4.898438 33.386719 4.867188 33.480469 4.839844 L 33.75 4.761719 C 33.933594 4.707031 34.113281 4.652344 34.296875 4.609375 L 34.574219 4.539062 C 34.667969 4.515625 34.757812 4.488281 34.851562 4.46875 L 35.414062 4.34375 L 35.980469 4.234375 C 36.03125 4.226562 36.078125 4.214844 36.125 4.207031 L 36.269531 4.1875 L 36.554688 4.140625 C 36.652344 4.125 36.746094 4.109375 36.84375 4.097656 L 37.132812 4.058594 L 37.421875 4.023438 C 37.519531 4.011719 37.617188 4.003906 37.714844 3.992188 L 38.007812 3.964844 L 38.152344 3.949219 L 38.300781 3.9375 C 38.496094 3.925781 38.691406 3.90625 38.890625 3.894531 L 39.480469 3.867188 C 40.269531 3.839844 41.0625 3.847656 41.859375 3.882812 C 42.058594 3.890625 42.257812 3.898438 42.457031 3.910156 L 43.050781 3.953125 C 43.449219 3.988281 43.847656 4.023438 44.242188 4.070312 C 45.035156 4.160156 45.828125 4.273438 46.613281 4.410156 C 48.1875 4.683594 49.742188 5.039062 51.277344 5.457031 C 52.8125 5.871094 54.320312 6.351562 55.816406 6.863281 C 55.117188 6.535156 54.40625 6.222656 53.683594 5.925781 C 52.960938 5.628906 52.226562 5.347656 51.480469 5.082031 C 49.964844 4.539062 48.425781 4.082031 46.863281 3.707031 C 45.25 3.324219 43.621094 3.050781 41.976562 2.894531 C 41.140625 2.816406 40.300781 2.777344 39.453125 2.765625 C 38.609375 2.757812 37.757812 2.792969 36.914062 2.867188 L 36.597656 2.898438 C 36.488281 2.90625 36.386719 2.921875 36.28125 2.933594 L 35.964844 2.972656 L 35.804688 2.988281 C 35.753906 2.996094 35.699219 3.003906 35.648438 3.011719 L 35.019531 3.109375 L 34.394531 3.222656 C 34.289062 3.242188 34.1875 3.265625 34.082031 3.285156 L 33.773438 3.355469 C 33.566406 3.398438 33.363281 3.449219 33.160156 3.503906 L 32.855469 3.582031 C 32.753906 3.605469 32.652344 3.636719 32.554688 3.664062 C 32.351562 3.722656 32.152344 3.785156 31.953125 3.84375 C 31.855469 3.875 31.757812 3.910156 31.660156 3.941406 C 31.5625 3.972656 31.464844 4.003906 31.367188 4.039062 C 31.175781 4.105469 30.980469 4.171875 30.789062 4.246094 L 30.503906 4.351562 L 30.222656 4.460938 C 30.03125 4.53125 29.847656 4.609375 29.660156 4.683594 C 28.921875 4.988281 28.203125 5.3125 27.496094 5.636719 L 25.402344 6.613281 C 24.710938 6.933594 24.019531 7.242188 23.324219 7.53125 C 22.628906 7.816406 21.929688 8.078125 21.21875 8.308594 C 20.503906 8.53125 19.785156 8.714844 19.050781 8.855469 L 14.359375 9.753906 L 19.105469 10.480469 C 20.242188 10.652344 21.386719 10.796875 22.535156 10.90625 C 23.683594 11.015625 24.835938 11.089844 25.984375 11.140625 C 28.289062 11.238281 30.59375 11.226562 32.878906 11.132812 C 37.457031 10.953125 41.972656 10.476562 46.449219 9.972656 C 47.152344 9.890625 47.851562 9.8125 48.554688 9.730469 C 47.578125 9.9375 46.609375 10.152344 45.640625 10.375 L 42.300781 11.15625 C 41.1875 11.421875 40.078125 11.675781 38.964844 11.917969 L 38.128906 12.101562 C 37.851562 12.160156 37.570312 12.21875 37.292969 12.273438 L 36.039062 12.53125 L 35.625 12.609375 C 34.519531 12.808594 33.398438 12.953125 32.269531 13.050781 C 30.003906 13.234375 27.738281 13.246094 25.472656 13.089844 C 23.191406 12.933594 20.929688 12.625 18.691406 12.164062 C 20.871094 12.867188 23.125 13.351562 25.410156 13.664062 C 27.710938 13.96875 30.019531 14.074219 32.332031 13.972656 C 33.496094 13.917969 34.652344 13.804688 35.800781 13.632812 L 36.234375 13.5625 L 36.660156 13.488281 C 36.941406 13.441406 37.226562 13.390625 37.507812 13.335938 C 37.792969 13.285156 38.074219 13.230469 38.355469 13.175781 L 39.203125 13.011719 C 40.328125 12.785156 41.449219 12.539062 42.570312 12.289062 L 45.914062 11.523438 C 47.027344 11.265625 48.140625 11.011719 49.253906 10.777344 C 50.363281 10.535156 51.480469 10.316406 52.597656 10.117188 C 53.714844 9.917969 54.835938 9.75 55.960938 9.605469 L 56.804688 9.507812 L 57.652344 9.417969 L 58.5 9.34375 L 59.347656 9.28125 L 60.199219 9.230469 L 61.050781 9.1875 C 61.621094 9.164062 62.191406 9.148438 62.757812 9.132812 C 63.898438 9.105469 65.035156 9.097656 66.171875 9.140625 C 67.855469 9.199219 69.539062 9.371094 71.191406 9.734375 C 71.773438 9.90625 72.34375 10.105469 72.902344 10.324219 C 72.679688 10.207031 72.449219 10.09375 72.214844 9.984375 Z M 72.214844 9.984375 " fill-opacity="1" fill-rule="nonzero"></path></g><path fill="#000000" d="M 58.414062 15.882812 C 58.554688 15.152344 58.824219 14.472656 59.21875 13.839844 C 59.613281 13.199219 60.105469 12.640625 60.691406 12.167969 C 61.285156 11.691406 61.941406 11.328125 62.65625 11.082031 C 62.835938 11.019531 63.019531 10.972656 63.199219 10.917969 C 63.382812 10.878906 63.566406 10.839844 63.75 10.804688 C 63.9375 10.777344 64.125 10.757812 64.3125 10.734375 L 64.59375 10.71875 C 64.6875 10.714844 64.78125 10.71875 64.875 10.714844 C 65.253906 10.71875 65.628906 10.753906 66 10.816406 C 66.371094 10.886719 66.734375 10.984375 67.09375 11.109375 C 67.804688 11.367188 68.453125 11.738281 69.042969 12.226562 C 69.621094 12.703125 70.109375 13.265625 70.496094 13.917969 C 70.878906 14.550781 71.136719 15.238281 71.269531 15.972656 C 71.121094 15.644531 70.957031 15.328125 70.769531 15.019531 C 70.585938 14.71875 70.382812 14.433594 70.160156 14.160156 C 69.722656 13.621094 69.21875 13.15625 68.648438 12.765625 C 68.089844 12.378906 67.488281 12.085938 66.847656 11.882812 C 66.203125 11.679688 65.546875 11.574219 64.871094 11.570312 C 64.199219 11.566406 63.539062 11.660156 62.890625 11.855469 C 62.246094 12.050781 61.640625 12.335938 61.078125 12.714844 C 60.503906 13.097656 59.996094 13.554688 59.550781 14.085938 C 59.09375 14.636719 58.714844 15.234375 58.414062 15.882812 Z M 58.414062 15.882812 " fill-opacity="1" fill-rule="nonzero"></path><g clip-path="url(#f648750400)"><path fill="#ffffff" d="M 36.753906 14.351562 C 37.683594 10.6875 42.070312 10.242188 48.820312 10.863281 C 47.453125 10.296875 45.925781 10.308594 44.289062 10.132812 C 49.839844 7.402344 55.332031 9.164062 58.605469 11.605469 C 63.949219 11.042969 66.804688 12.183594 68.414062 14.175781 C 67.617188 11.832031 64.324219 10.75 59.058594 10.660156 C 53.902344 7.394531 48.605469 7.296875 43.214844 9.371094 C 41.707031 9.824219 40.242188 10.324219 38.269531 10.230469 C 38.335938 10.40625 38.441406 10.558594 38.609375 10.660156 C 37.054688 11.667969 36.710938 12.964844 36.753906 14.351562 Z M 36.753906 14.351562 " fill-opacity="1" fill-rule="evenodd"></path></g><g clip-path="url(#dd34ad97c1)"><path fill="#000000" d="M 13.398438 20 C 19.578125 23.105469 24.734375 23.550781 31.203125 21.039062 C 31.949219 20.761719 32.964844 20.320312 33.703125 20 C 33.347656 20.296875 32.984375 20.578125 32.605469 20.839844 C 26.589844 25.082031 18.996094 24.972656 13.398438 20 Z M 13.398438 20 " fill-opacity="1" fill-rule="nonzero"></path></g><g fill="#000000" fill-opacity="1"><g transform="translate(36.269828, 21.997999)"><g><path d="M 0.828125 -0.234375 C 0.804688 -0.0976562 0.78125 -0.015625 0.75 0.015625 C 0.71875 0.0546875 0.65625 0.078125 0.5625 0.078125 C 0.476562 0.078125 0.421875 0.0664062 0.390625 0.046875 C 0.359375 0.0234375 0.34375 -0.00390625 0.34375 -0.046875 C 0.34375 -0.0859375 0.347656 -0.148438 0.359375 -0.234375 L 0.9375 -5.109375 C 0.957031 -5.234375 1.046875 -5.296875 1.203125 -5.296875 L 1.34375 -5.296875 C 1.46875 -5.296875 1.550781 -5.242188 1.59375 -5.140625 L 3.296875 -0.84375 L 3.796875 -4.984375 C 3.804688 -5.097656 3.816406 -5.171875 3.828125 -5.203125 C 3.847656 -5.242188 3.875 -5.269531 3.90625 -5.28125 C 3.945312 -5.289062 4 -5.296875 4.0625 -5.296875 C 4.132812 -5.296875 4.1875 -5.285156 4.21875 -5.265625 C 4.25 -5.242188 4.265625 -5.207031 4.265625 -5.15625 C 4.265625 -5.113281 4.265625 -5.054688 4.265625 -4.984375 L 3.671875 -0.109375 C 3.648438 0.015625 3.566406 0.078125 3.421875 0.078125 L 3.3125 0.078125 C 3.175781 0.078125 3.085938 0.0234375 3.046875 -0.078125 L 1.328125 -4.421875 Z M 0.828125 -0.234375 "></path></g></g></g><g fill="#000000" fill-opacity="1"><g transform="translate(40.890186, 21.997999)"><g><path d="M 3.84375 -4.703125 C 3.96875 -4.515625 4.054688 -4.300781 4.109375 -4.0625 C 4.171875 -3.832031 4.203125 -3.582031 4.203125 -3.3125 C 4.203125 -3.050781 4.1875 -2.796875 4.15625 -2.546875 C 4.125 -2.296875 4.070312 -2.039062 4 -1.78125 C 3.925781 -1.53125 3.828125 -1.289062 3.703125 -1.0625 C 3.578125 -0.84375 3.429688 -0.644531 3.265625 -0.46875 C 3.109375 -0.300781 2.914062 -0.164062 2.6875 -0.0625 C 2.457031 0.03125 2.195312 0.078125 1.90625 0.078125 C 1.625 0.078125 1.367188 0.0234375 1.140625 -0.078125 C 0.921875 -0.179688 0.75 -0.328125 0.625 -0.515625 C 0.375 -0.878906 0.25 -1.359375 0.25 -1.953125 C 0.25 -2.578125 0.359375 -3.164062 0.578125 -3.71875 C 0.691406 -4.019531 0.832031 -4.285156 1 -4.515625 C 1.164062 -4.742188 1.378906 -4.929688 1.640625 -5.078125 C 1.910156 -5.222656 2.203125 -5.296875 2.515625 -5.296875 C 2.828125 -5.296875 3.09375 -5.242188 3.3125 -5.140625 C 3.539062 -5.035156 3.71875 -4.890625 3.84375 -4.703125 Z M 2 -0.296875 C 2.238281 -0.296875 2.460938 -0.367188 2.671875 -0.515625 C 2.878906 -0.660156 3.046875 -0.84375 3.171875 -1.0625 C 3.304688 -1.28125 3.414062 -1.53125 3.5 -1.8125 C 3.644531 -2.3125 3.71875 -2.8125 3.71875 -3.3125 C 3.71875 -3.75 3.628906 -4.117188 3.453125 -4.421875 C 3.359375 -4.578125 3.226562 -4.695312 3.0625 -4.78125 C 2.894531 -4.875 2.691406 -4.921875 2.453125 -4.921875 C 2.222656 -4.921875 2.003906 -4.847656 1.796875 -4.703125 C 1.585938 -4.554688 1.414062 -4.375 1.28125 -4.15625 C 1.15625 -3.9375 1.050781 -3.691406 0.96875 -3.421875 C 0.820312 -2.921875 0.75 -2.421875 0.75 -1.921875 C 0.75 -1.484375 0.835938 -1.113281 1.015625 -0.8125 C 1.203125 -0.46875 1.53125 -0.296875 2 -0.296875 Z M 2 -0.296875 "></path></g></g></g><g fill="#000000" fill-opacity="1"><g transform="translate(45.35248, 21.997999)"><g><path d="M 0.578125 0.078125 C 0.421875 0.078125 0.34375 0.03125 0.34375 -0.0625 L 0.34375 -0.09375 L 0.953125 -5.0625 C 0.972656 -5.144531 1.03125 -5.191406 1.125 -5.203125 C 1.425781 -5.265625 1.820312 -5.296875 2.3125 -5.296875 C 2.800781 -5.296875 3.1875 -5.195312 3.46875 -5 C 3.75 -4.800781 3.890625 -4.507812 3.890625 -4.125 C 3.890625 -3.789062 3.773438 -3.503906 3.546875 -3.265625 C 3.316406 -3.023438 3 -2.863281 2.59375 -2.78125 C 2.863281 -2.664062 3.070312 -2.445312 3.21875 -2.125 C 3.289062 -1.96875 3.359375 -1.789062 3.421875 -1.59375 C 3.484375 -1.394531 3.519531 -1.273438 3.53125 -1.234375 L 3.921875 -0.125 C 3.921875 -0.113281 3.921875 -0.0859375 3.921875 -0.046875 C 3.921875 -0.015625 3.894531 0.0078125 3.84375 0.03125 C 3.800781 0.0625 3.742188 0.078125 3.671875 0.078125 C 3.546875 0.078125 3.472656 0.0351562 3.453125 -0.046875 L 3.015625 -1.296875 C 2.910156 -1.617188 2.8125 -1.875 2.71875 -2.0625 C 2.632812 -2.25 2.53125 -2.378906 2.40625 -2.453125 C 2.289062 -2.535156 2.09375 -2.578125 1.8125 -2.578125 L 1.109375 -2.578125 L 0.8125 -0.078125 C 0.800781 -0.015625 0.773438 0.0234375 0.734375 0.046875 C 0.703125 0.0664062 0.648438 0.078125 0.578125 0.078125 Z M 1.875 -2.96875 C 2.195312 -2.96875 2.519531 -3.054688 2.84375 -3.234375 C 3.007812 -3.316406 3.144531 -3.429688 3.25 -3.578125 C 3.351562 -3.734375 3.40625 -3.910156 3.40625 -4.109375 C 3.40625 -4.359375 3.296875 -4.554688 3.078125 -4.703125 C 2.867188 -4.847656 2.601562 -4.921875 2.28125 -4.921875 C 1.96875 -4.921875 1.671875 -4.898438 1.390625 -4.859375 L 1.171875 -2.96875 Z M 1.875 -2.96875 "></path></g></g></g><g fill="#000000" fill-opacity="1"><g transform="translate(49.601994, 21.997999)"><g><path d="M 4.4375 -3.265625 C 4.4375 -2.316406 4.242188 -1.535156 3.859375 -0.921875 C 3.660156 -0.597656 3.382812 -0.347656 3.03125 -0.171875 C 2.6875 -0.00390625 2.265625 0.078125 1.765625 0.078125 C 1.265625 0.078125 0.867188 0.0625 0.578125 0.03125 C 0.421875 0.0078125 0.34375 -0.046875 0.34375 -0.140625 C 0.34375 -0.203125 0.347656 -0.257812 0.359375 -0.3125 L 0.921875 -5.09375 C 0.929688 -5.125 0.953125 -5.15625 0.984375 -5.1875 C 1.023438 -5.21875 1.0625 -5.234375 1.09375 -5.234375 C 1.5625 -5.273438 2 -5.296875 2.40625 -5.296875 C 3.082031 -5.296875 3.585938 -5.117188 3.921875 -4.765625 C 4.265625 -4.410156 4.4375 -3.910156 4.4375 -3.265625 Z M 3.953125 -3.328125 C 3.953125 -3.804688 3.8125 -4.191406 3.53125 -4.484375 C 3.257812 -4.773438 2.890625 -4.921875 2.421875 -4.921875 C 1.953125 -4.921875 1.601562 -4.898438 1.375 -4.859375 L 0.84375 -0.375 C 1.101562 -0.34375 1.421875 -0.328125 1.796875 -0.328125 C 2.179688 -0.328125 2.515625 -0.410156 2.796875 -0.578125 C 3.085938 -0.753906 3.316406 -0.988281 3.484375 -1.28125 C 3.796875 -1.851562 3.953125 -2.535156 3.953125 -3.328125 Z M 3.953125 -3.328125 "></path></g></g></g><g fill="#f61414" fill-opacity="1"><g transform="translate(55.26024, 22.15841)"><g><path d="M 2.0625 0 L 0.90625 0 L 0.8125 -5.125 L 1.796875 -5.125 L 1.8125 -1.515625 L 1.90625 -1.515625 L 3.59375 -5.125 L 4.453125 -5.125 L 4.65625 -1.515625 L 4.734375 -1.515625 L 6.265625 -5.125 L 7.25 -5.125 L 5.015625 0 L 3.875 0 L 3.6875 -3.3125 L 3.609375 -3.3125 Z M 2.0625 0 "></path></g></g></g><g fill="#f61414" fill-opacity="1"><g transform="translate(61.970601, 22.15841)"><g><path d="M 1.265625 0 L 0.25 0 L 1.34375 -5.125 L 2.359375 -5.125 Z M 1.265625 0 "></path></g></g></g><g fill="#f61414" fill-opacity="1"><g transform="translate(64.316074, 22.15841)"><g><path d="M 1.234375 0 L 0.25 0 L 1.34375 -5.125 L 2.5 -5.125 L 3.84375 -1.71875 L 3.9375 -1.734375 L 4.65625 -5.125 L 5.625 -5.125 L 4.546875 0 L 3.5 0 L 2.09375 -3.640625 L 2 -3.625 Z M 1.234375 0 "></path></g></g></g><g fill="#f61414" fill-opacity="1"><g transform="translate(69.932584, 22.15841)"><g><path d="M 3.140625 -5.125 C 3.597656 -5.125 3.984375 -5.046875 4.296875 -4.890625 C 4.617188 -4.734375 4.859375 -4.507812 5.015625 -4.21875 C 5.179688 -3.925781 5.265625 -3.578125 5.265625 -3.171875 C 5.265625 -2.941406 5.234375 -2.679688 5.171875 -2.390625 C 5.003906 -1.609375 4.671875 -1.015625 4.171875 -0.609375 C 3.671875 -0.203125 2.984375 0 2.109375 0 L 0.25 0 L 1.34375 -5.125 Z M 4.171875 -2.5625 C 4.210938 -2.769531 4.234375 -2.960938 4.234375 -3.140625 C 4.234375 -3.515625 4.125 -3.796875 3.90625 -3.984375 C 3.6875 -4.179688 3.367188 -4.28125 2.953125 -4.28125 L 2.171875 -4.28125 L 1.453125 -0.859375 L 2.21875 -0.859375 C 2.738281 -0.859375 3.160156 -0.992188 3.484375 -1.265625 C 3.804688 -1.535156 4.035156 -1.96875 4.171875 -2.5625 Z M 4.171875 -2.5625 "></path></g></g></g><g fill="#000000" fill-opacity="1"><g transform="translate(41.597509, 25.795406)"><g><path d="M 0.765625 -1.515625 C 0.867188 -1.515625 0.957031 -1.492188 1.03125 -1.453125 C 1.113281 -1.421875 1.171875 -1.367188 1.203125 -1.296875 C 1.242188 -1.234375 1.265625 -1.15625 1.265625 -1.0625 C 1.265625 -0.96875 1.242188 -0.882812 1.203125 -0.8125 C 1.171875 -0.738281 1.113281 -0.679688 1.03125 -0.640625 C 0.957031 -0.609375 0.867188 -0.59375 0.765625 -0.59375 L 0.40625 -0.59375 L 0.40625 0 L 0.234375 0 L 0.234375 -1.515625 Z M 0.765625 -0.75 C 0.972656 -0.75 1.078125 -0.851562 1.078125 -1.0625 C 1.078125 -1.257812 0.972656 -1.359375 0.765625 -1.359375 L 0.40625 -1.359375 L 0.40625 -0.75 Z M 0.765625 -0.75 "></path></g></g></g><g fill="#000000" fill-opacity="1"><g transform="translate(43.749219, 25.795406)"><g><path d="M 0.40625 -0.71875 L 0.40625 -0.140625 L 1.1875 -0.140625 L 1.1875 0 L 0.234375 0 L 0.234375 -1.515625 L 1.171875 -1.515625 L 1.171875 -1.375 L 0.40625 -1.375 L 0.40625 -0.859375 L 1.078125 -0.859375 L 1.078125 -0.71875 Z M 0.40625 -0.71875 "></path></g></g></g><g fill="#000000" fill-opacity="1"><g transform="translate(45.799275, 25.795406)"><g><path d="M 0.234375 0 L 0.234375 -1.515625 L 0.78125 -1.515625 C 0.882812 -1.515625 0.96875 -1.5 1.03125 -1.46875 C 1.101562 -1.4375 1.15625 -1.390625 1.1875 -1.328125 C 1.226562 -1.265625 1.25 -1.191406 1.25 -1.109375 C 1.25 -1.015625 1.222656 -0.9375 1.171875 -0.875 C 1.128906 -0.8125 1.054688 -0.765625 0.953125 -0.734375 L 0.953125 -0.71875 C 1.003906 -0.695312 1.046875 -0.664062 1.078125 -0.625 C 1.109375 -0.582031 1.132812 -0.519531 1.15625 -0.4375 L 1.296875 0 L 1.109375 0 L 0.96875 -0.46875 C 0.945312 -0.519531 0.925781 -0.5625 0.90625 -0.59375 C 0.882812 -0.625 0.851562 -0.644531 0.8125 -0.65625 C 0.78125 -0.675781 0.734375 -0.6875 0.671875 -0.6875 L 0.40625 -0.6875 L 0.40625 0 Z M 0.78125 -0.828125 C 0.875 -0.828125 0.941406 -0.847656 0.984375 -0.890625 C 1.035156 -0.941406 1.0625 -1.007812 1.0625 -1.09375 C 1.0625 -1.1875 1.035156 -1.253906 0.984375 -1.296875 C 0.941406 -1.335938 0.875 -1.359375 0.78125 -1.359375 L 0.40625 -1.359375 L 0.40625 -0.828125 Z M 0.78125 -0.828125 "></path></g></g></g><g fill="#000000" fill-opacity="1"><g transform="translate(47.972768, 25.795406)"><g><path d="M 1.125 -1.515625 L 1.125 -1.375 L 0.40625 -1.375 L 0.40625 -0.8125 L 1.046875 -0.8125 L 1.046875 -0.671875 L 0.40625 -0.671875 L 0.40625 0 L 0.234375 0 L 0.234375 -1.515625 Z M 1.125 -1.515625 "></path></g></g></g><g fill="#000000" fill-opacity="1"><g transform="translate(49.943991, 25.795406)"><g><path d="M 0.828125 0.015625 C 0.703125 0.015625 0.585938 -0.0078125 0.484375 -0.0625 C 0.378906 -0.113281 0.296875 -0.195312 0.234375 -0.3125 C 0.179688 -0.4375 0.15625 -0.585938 0.15625 -0.765625 C 0.15625 -0.929688 0.179688 -1.070312 0.234375 -1.1875 C 0.296875 -1.3125 0.378906 -1.398438 0.484375 -1.453125 C 0.585938 -1.503906 0.703125 -1.53125 0.828125 -1.53125 C 0.960938 -1.53125 1.082031 -1.503906 1.1875 -1.453125 C 1.289062 -1.398438 1.367188 -1.3125 1.421875 -1.1875 C 1.484375 -1.070312 1.515625 -0.929688 1.515625 -0.765625 C 1.515625 -0.585938 1.484375 -0.4375 1.421875 -0.3125 C 1.367188 -0.195312 1.289062 -0.113281 1.1875 -0.0625 C 1.082031 -0.0078125 0.960938 0.015625 0.828125 0.015625 Z M 0.828125 -0.140625 C 0.984375 -0.140625 1.101562 -0.1875 1.1875 -0.28125 C 1.28125 -0.382812 1.328125 -0.546875 1.328125 -0.765625 C 1.328125 -0.972656 1.28125 -1.125 1.1875 -1.21875 C 1.101562 -1.320312 0.984375 -1.375 0.828125 -1.375 C 0.503906 -1.375 0.34375 -1.171875 0.34375 -0.765625 C 0.34375 -0.347656 0.503906 -0.140625 0.828125 -0.140625 Z M 0.828125 -0.140625 "></path></g></g></g><g fill="#000000" fill-opacity="1"><g transform="translate(52.376804, 25.795406)"><g><path d="M 0.234375 0 L 0.234375 -1.515625 L 0.78125 -1.515625 C 0.882812 -1.515625 0.96875 -1.5 1.03125 -1.46875 C 1.101562 -1.4375 1.15625 -1.390625 1.1875 -1.328125 C 1.226562 -1.265625 1.25 -1.191406 1.25 -1.109375 C 1.25 -1.015625 1.222656 -0.9375 1.171875 -0.875 C 1.128906 -0.8125 1.054688 -0.765625 0.953125 -0.734375 L 0.953125 -0.71875 C 1.003906 -0.695312 1.046875 -0.664062 1.078125 -0.625 C 1.109375 -0.582031 1.132812 -0.519531 1.15625 -0.4375 L 1.296875 0 L 1.109375 0 L 0.96875 -0.46875 C 0.945312 -0.519531 0.925781 -0.5625 0.90625 -0.59375 C 0.882812 -0.625 0.851562 -0.644531 0.8125 -0.65625 C 0.78125 -0.675781 0.734375 -0.6875 0.671875 -0.6875 L 0.40625 -0.6875 L 0.40625 0 Z M 0.78125 -0.828125 C 0.875 -0.828125 0.941406 -0.847656 0.984375 -0.890625 C 1.035156 -0.941406 1.0625 -1.007812 1.0625 -1.09375 C 1.0625 -1.1875 1.035156 -1.253906 0.984375 -1.296875 C 0.941406 -1.335938 0.875 -1.359375 0.78125 -1.359375 L 0.40625 -1.359375 L 0.40625 -0.828125 Z M 0.78125 -0.828125 "></path></g></g></g><g fill="#000000" fill-opacity="1"><g transform="translate(54.550297, 25.795406)"><g><path d="M 0.390625 0 L 0.234375 0 L 0.234375 -1.515625 L 0.5 -1.515625 L 0.953125 -0.234375 L 0.96875 -0.234375 L 1.4375 -1.515625 L 1.6875 -1.515625 L 1.6875 0 L 1.515625 0 L 1.515625 -1.234375 L 1.5 -1.234375 L 1.046875 0 L 0.875 0 L 0.421875 -1.234375 L 0.390625 -1.234375 Z M 0.390625 0 "></path></g></g></g><g fill="#000000" fill-opacity="1"><g transform="translate(57.239319, 25.795406)"><g><path d="M 1.359375 0 L 1.171875 0 L 1.03125 -0.421875 L 0.390625 -0.421875 L 0.25 0 L 0.0625 0 L 0.59375 -1.515625 L 0.84375 -1.515625 Z M 0.703125 -1.328125 L 0.4375 -0.5625 L 0.984375 -0.5625 L 0.71875 -1.328125 Z M 0.703125 -1.328125 "></path></g></g></g><g fill="#000000" fill-opacity="1"><g transform="translate(59.433557, 25.795406)"><g><path d="M 0.40625 0 L 0.234375 0 L 0.234375 -1.515625 L 0.453125 -1.515625 L 1.1875 -0.359375 L 1.21875 -0.359375 L 1.21875 -1.515625 L 1.390625 -1.515625 L 1.390625 0 L 1.203125 0 L 0.421875 -1.234375 L 0.40625 -1.234375 Z M 0.40625 0 "></path></g></g></g><g fill="#000000" fill-opacity="1"><g transform="translate(61.819693, 25.795406)"><g><path d="M 0.84375 0.015625 C 0.707031 0.015625 0.585938 -0.0078125 0.484375 -0.0625 C 0.378906 -0.125 0.296875 -0.210938 0.234375 -0.328125 C 0.179688 -0.453125 0.15625 -0.597656 0.15625 -0.765625 C 0.15625 -0.921875 0.179688 -1.054688 0.234375 -1.171875 C 0.296875 -1.296875 0.378906 -1.382812 0.484375 -1.4375 C 0.585938 -1.5 0.707031 -1.53125 0.84375 -1.53125 C 0.976562 -1.53125 1.09375 -1.503906 1.1875 -1.453125 C 1.28125 -1.398438 1.347656 -1.320312 1.390625 -1.21875 L 1.28125 -1.140625 L 1.25 -1.140625 C 1.207031 -1.222656 1.15625 -1.28125 1.09375 -1.3125 C 1.03125 -1.351562 0.945312 -1.375 0.84375 -1.375 C 0.738281 -1.375 0.648438 -1.351562 0.578125 -1.3125 C 0.503906 -1.269531 0.445312 -1.203125 0.40625 -1.109375 C 0.363281 -1.015625 0.34375 -0.898438 0.34375 -0.765625 C 0.34375 -0.617188 0.363281 -0.5 0.40625 -0.40625 C 0.445312 -0.3125 0.503906 -0.242188 0.578125 -0.203125 C 0.648438 -0.160156 0.738281 -0.140625 0.84375 -0.140625 C 0.945312 -0.140625 1.035156 -0.160156 1.109375 -0.203125 C 1.179688 -0.253906 1.234375 -0.335938 1.265625 -0.453125 L 1.296875 -0.453125 L 1.40625 -0.390625 C 1.375 -0.253906 1.304688 -0.148438 1.203125 -0.078125 C 1.109375 -0.015625 0.988281 0.015625 0.84375 0.015625 Z M 0.84375 0.015625 "></path></g></g></g><g fill="#000000" fill-opacity="1"><g transform="translate(64.076168, 25.795406)"><g><path d="M 0.40625 -0.71875 L 0.40625 -0.140625 L 1.1875 -0.140625 L 1.1875 0 L 0.234375 0 L 0.234375 -1.515625 L 1.171875 -1.515625 L 1.171875 -1.375 L 0.40625 -1.375 L 0.40625 -0.859375 L 1.078125 -0.859375 L 1.078125 -0.71875 Z M 0.40625 -0.71875 "></path></g></g></g></svg>