<svg xmlns="http://www.w3.org/2000/svg" width="59.434" height="59.927" viewBox="0 0 59.434 59.927"><path d="M266.807,379.139h48.608V427.75H304.633V398.383l-.4-.184c-1.282,1.323-2.539,2.672-3.854,3.96-.846.829-1.828,1.52-2.662,2.36-1.974,1.99-3.862,4.066-5.848,6.044-1.77,1.764-3.669,3.4-5.43,5.172-2.082,2.095-4.043,4.311-6.124,6.407-1.726,1.738-3.6,3.335-5.321,5.074-2.115,2.132-4.133,4.358-6.218,6.519-1.227,1.272-2.532,2.47-3.747,3.752-.658.694-1.143.828-1.863.042-1.945-2.123-3.978-4.168-5.92-6.3a1.182,1.182,0,0,1,.049-1.149c2.513-2.625,5.09-5.191,7.628-7.792,1.887-1.934,3.706-3.936,5.624-5.839,1.883-1.868,3.9-3.6,5.774-5.479,2.048-2.055,3.959-4.247,6-6.31,1.828-1.848,3.788-3.566,5.622-5.409,2.011-2.022,3.92-4.147,5.923-6.177.911-.923,1.945-1.726,2.922-2.584l-.2-.449h-29.78Z" transform="translate(-256.481 -378.639)" fill="none" stroke="#fff" stroke-width="1"></path></svg>