<svg xmlns="http://www.w3.org/2000/svg" xmlns:xlink="http://www.w3.org/1999/xlink" width="122" viewBox="0 0 91.5 30.000001" height="40" preserveAspectRatio="xMidYMid meet"><defs><g></g><clipPath id="94e31d8d6c"><path d="M 3 10 L 22 10 L 22 19 L 3 19 Z M 3 10 " clip-rule="nonzero"></path></clipPath><clipPath id="02f3f6b2d5"><path d="M 12.324219 3.421875 L 23.617188 14.714844 L 12.324219 26.003906 L 1.035156 14.714844 Z M 12.324219 3.421875 " clip-rule="nonzero"></path></clipPath><clipPath id="cfae340343"><path d="M 12.324219 3.421875 L 23.617188 14.714844 L 12.324219 26.003906 L 1.035156 14.714844 Z M 12.324219 3.421875 " clip-rule="nonzero"></path></clipPath></defs><g clip-path="url(#94e31d8d6c)"><g clip-path="url(#02f3f6b2d5)"><g clip-path="url(#cfae340343)"><path fill="#ffffff" d="M 17.273438 18.46875 L 13.316406 18.46875 C 11.128906 18.46875 9.359375 16.699219 9.359375 14.511719 C 9.359375 14.167969 9.417969 13.839844 9.496094 13.523438 L 11.335938 13.523438 C 11.425781 13.523438 11.503906 13.550781 11.585938 13.574219 C 11.429688 13.855469 11.335938 14.171875 11.335938 14.511719 C 11.335938 15.605469 12.226562 16.492188 13.316406 16.492188 L 17.273438 16.492188 C 18.363281 16.492188 19.25 15.605469 19.25 14.511719 C 19.25 13.421875 18.363281 12.535156 17.273438 12.535156 L 15.863281 12.535156 C 15.515625 11.742188 14.960938 11.066406 14.273438 10.554688 L 17.273438 10.554688 C 19.457031 10.554688 21.230469 12.328125 21.230469 14.511719 C 21.230469 16.699219 19.457031 18.46875 17.273438 18.46875 Z M 8.789062 16.492188 L 7.378906 16.492188 C 6.289062 16.492188 5.402344 15.605469 5.402344 14.511719 C 5.402344 13.421875 6.289062 12.535156 7.378906 12.535156 L 11.335938 12.535156 C 12.429688 12.535156 13.316406 13.421875 13.316406 14.511719 C 13.316406 14.855469 13.222656 15.171875 13.066406 15.453125 C 13.148438 15.472656 13.226562 15.503906 13.316406 15.503906 L 15.152344 15.503906 C 15.238281 15.183594 15.292969 14.855469 15.292969 14.511719 C 15.292969 12.328125 13.523438 10.554688 11.335938 10.554688 L 7.378906 10.554688 C 5.195312 10.554688 3.421875 12.328125 3.421875 14.511719 C 3.421875 16.699219 5.195312 18.46875 7.378906 18.46875 L 10.378906 18.46875 C 9.691406 17.960938 9.136719 17.285156 8.789062 16.492188 Z M 8.789062 16.492188 " fill-opacity="1" fill-rule="nonzero"></path></g></g></g><g fill="#ffffff" fill-opacity="1"><g transform="translate(23.420723, 17.861066)"><g><path d="M 4.625 0.09375 C 7 0.09375 8.640625 -1.03125 8.890625 -3.0625 L 6.890625 -3.0625 C 6.671875 -1.984375 5.84375 -1.5 4.625 -1.5 C 3.21875 -1.5 2.328125 -2.140625 2.328125 -3.640625 C 2.328125 -5.125 3.21875 -5.765625 4.625 -5.765625 C 5.6875 -5.765625 6.453125 -5.40625 6.765625 -4.609375 L 8.828125 -4.609375 C 8.421875 -6.390625 6.84375 -7.359375 4.625 -7.359375 C 2.046875 -7.359375 0.34375 -6.03125 0.34375 -3.640625 C 0.34375 -1.25 2.046875 0.09375 4.625 0.09375 Z M 4.625 0.09375 "></path></g></g></g><g fill="#ffffff" fill-opacity="1"><g transform="translate(32.588878, 17.861066)"><g><path d="M 4.625 0.09375 C 7.21875 0.09375 8.921875 -1.25 8.921875 -3.640625 C 8.921875 -6.03125 7.21875 -7.359375 4.625 -7.359375 C 2.046875 -7.359375 0.34375 -6.03125 0.34375 -3.640625 C 0.34375 -1.25 2.046875 0.09375 4.625 0.09375 Z M 4.625 -1.5 C 3.21875 -1.5 2.328125 -2.140625 2.328125 -3.640625 C 2.328125 -5.125 3.21875 -5.765625 4.625 -5.765625 C 6.046875 -5.765625 6.9375 -5.125 6.9375 -3.640625 C 6.9375 -2.140625 6.046875 -1.5 4.625 -1.5 Z M 4.625 -1.5 "></path></g></g></g><g fill="#ffffff" fill-opacity="1"><g transform="translate(41.852734, 17.861066)"><g><path d="M 6.328125 -7.265625 L 6.328125 -2.484375 L 3.609375 -7.265625 L 0.828125 -7.265625 L 0.828125 0 L 2.875 0 L 2.875 -4.828125 L 5.625 0 L 8.375 0 L 8.375 -7.265625 Z M 6.328125 -7.265625 "></path></g></g></g><g fill="#ffffff" fill-opacity="1"><g transform="translate(51.063954, 17.861066)"><g><path d="M 6.328125 -7.265625 L 6.328125 -2.484375 L 3.609375 -7.265625 L 0.828125 -7.265625 L 0.828125 0 L 2.875 0 L 2.875 -4.828125 L 5.625 0 L 8.375 0 L 8.375 -7.265625 Z M 6.328125 -7.265625 "></path></g></g></g><g fill="#ffffff" fill-opacity="1"><g transform="translate(60.275175, 17.861066)"><g><path d="M 2.90625 -1.65625 L 2.90625 -3.015625 L 5.390625 -3.015625 L 5.390625 -4.453125 L 2.90625 -4.453125 L 2.90625 -5.625 L 7.078125 -5.625 L 7.078125 -7.265625 L 0.828125 -7.265625 L 0.828125 0 L 7.3125 0 L 7.3125 -1.65625 Z M 2.90625 -1.65625 "></path></g></g></g><g fill="#ffffff" fill-opacity="1"><g transform="translate(67.959964, 17.861066)"><g><path d="M 4.625 0.09375 C 7 0.09375 8.640625 -1.03125 8.890625 -3.0625 L 6.890625 -3.0625 C 6.671875 -1.984375 5.84375 -1.5 4.625 -1.5 C 3.21875 -1.5 2.328125 -2.140625 2.328125 -3.640625 C 2.328125 -5.125 3.21875 -5.765625 4.625 -5.765625 C 5.6875 -5.765625 6.453125 -5.40625 6.765625 -4.609375 L 8.828125 -4.609375 C 8.421875 -6.390625 6.84375 -7.359375 4.625 -7.359375 C 2.046875 -7.359375 0.34375 -6.03125 0.34375 -3.640625 C 0.34375 -1.25 2.046875 0.09375 4.625 0.09375 Z M 4.625 0.09375 "></path></g></g></g><g fill="#ffffff" fill-opacity="1"><g transform="translate(77.128119, 17.861066)"><g><path d="M 7.046875 -7.265625 L 0.171875 -7.265625 L 0.171875 -5.625 L 2.578125 -5.625 L 2.578125 0 L 4.625 0 L 4.625 -5.625 L 7.046875 -5.625 Z M 7.046875 -7.265625 "></path></g></g></g></svg>