<svg xmlns="http://www.w3.org/2000/svg" xmlns:xlink="http://www.w3.org/1999/xlink" width="122" viewBox="0 0 91.5 30.000001" height="40" preserveAspectRatio="xMidYMid meet"><defs><g></g><clipPath id="adbf26b48a"><path d="M 4.136719 7.925781 L 17.453125 7.925781 L 17.453125 21.242188 L 4.136719 21.242188 Z M 4.136719 7.925781 " clip-rule="nonzero"></path></clipPath><clipPath id="bb279bc66b"><path d="M 10.792969 7.925781 C 7.117188 7.925781 4.136719 10.90625 4.136719 14.582031 C 4.136719 18.261719 7.117188 21.242188 10.792969 21.242188 C 14.472656 21.242188 17.453125 18.261719 17.453125 14.582031 C 17.453125 10.90625 14.472656 7.925781 10.792969 7.925781 Z M 10.792969 7.925781 " clip-rule="nonzero"></path></clipPath><clipPath id="87d21cf135"><path d="M 17.777344 7.925781 L 32.96875 7.925781 L 32.96875 21.242188 L 17.777344 21.242188 Z M 17.777344 7.925781 " clip-rule="nonzero"></path></clipPath><clipPath id="8066b470d1"><path d="M 17.777344 7.925781 L 26.296875 7.925781 L 32.957031 14.582031 L 26.296875 21.242188 L 17.777344 21.242188 L 24.4375 14.582031 Z M 17.777344 7.925781 " clip-rule="nonzero"></path></clipPath></defs><g clip-path="url(#adbf26b48a)"><g clip-path="url(#bb279bc66b)"><path fill="#ffffff" d="M 4.136719 7.925781 L 17.453125 7.925781 L 17.453125 21.242188 L 4.136719 21.242188 Z M 4.136719 7.925781 " fill-opacity="1" fill-rule="nonzero"></path></g></g><g clip-path="url(#87d21cf135)"><g clip-path="url(#8066b470d1)"><path fill="#ffffff" d="M 17.777344 7.925781 L 32.96875 7.925781 L 32.96875 21.242188 L 17.777344 21.242188 Z M 17.777344 7.925781 " fill-opacity="1" fill-rule="nonzero"></path></g></g><g fill="#ffffff" fill-opacity="1"><g transform="translate(33.666123, 21.076784)"><g><path d="M 4.46875 0 L 4.46875 -8.265625 L 10.828125 0 L 13.515625 0 L 13.515625 -13.3125 L 10.421875 -13.3125 L 10.421875 -5.046875 L 4.078125 -13.3125 L 1.359375 -13.3125 L 1.359375 0 Z M 4.46875 0 "></path></g></g></g><g fill="#ffffff" fill-opacity="1"><g transform="translate(48.547578, 21.076784)"><g><path d="M 10.828125 0 L 10.828125 -2.765625 L 4.46875 -2.765625 L 4.46875 -5.46875 L 9.859375 -5.46875 L 9.859375 -8.046875 L 4.46875 -8.046875 L 4.46875 -10.5625 L 10.75 -10.5625 L 10.75 -13.3125 L 1.359375 -13.3125 L 1.359375 0 Z M 10.828125 0 "></path></g></g></g><g fill="#ffffff" fill-opacity="1"><g transform="translate(59.96322, 21.076784)"><g><path d="M 3.765625 0 L 6.921875 -4.859375 L 10.078125 0 L 13.734375 0 L 8.859375 -6.984375 L 13.25 -13.3125 L 9.609375 -13.3125 L 6.921875 -9.15625 L 4.234375 -13.3125 L 0.59375 -13.3125 L 4.984375 -6.984375 L 0.125 0 Z M 3.765625 0 "></path></g></g></g><g fill="#ffffff" fill-opacity="1"><g transform="translate(73.816682, 21.076784)"><g><path d="M 7.171875 0 L 7.171875 -10.546875 L 10.890625 -10.546875 L 10.890625 -13.3125 L 0.359375 -13.3125 L 0.359375 -10.546875 L 4.09375 -10.546875 L 4.09375 0 Z M 7.171875 0 "></path></g></g></g></svg>