<svg xmlns="http://www.w3.org/2000/svg" xmlns:xlink="http://www.w3.org/1999/xlink" width="52" viewBox="0 0 39 38.999999" height="52" preserveAspectRatio="xMidYMid meet"><defs><g></g><clipPath id="4b47b8f334"><path d="M 1.53125 1.574219 L 37.53125 1.574219 L 37.53125 37.574219 L 1.53125 37.574219 Z M 1.53125 1.574219 " clip-rule="nonzero"></path></clipPath></defs><g clip-path="url(#4b47b8f334)"><path fill="#ffffff" d="M 37.453125 20.042969 C 37.410156 17.824219 37.460938 15.609375 37.417969 13.398438 C 37.390625 13.105469 37.332031 12.519531 37.296875 12.226562 C 36.460938 6.859375 31.78125 2.3125 26.351562 1.816406 C 21.867188 1.589844 17.339844 1.601562 12.847656 1.804688 C 6.609375 2.382812 1.53125 8.21875 1.738281 14.472656 C 1.753906 15.789062 1.796875 17.105469 1.753906 18.425781 C 1.773438 19.878906 1.78125 21.332031 1.761719 22.78125 C 1.746094 24.613281 1.730469 26.46875 2.1875 28.253906 C 3.570312 33.183594 8.105469 36.996094 13.234375 37.398438 C 17.410156 37.304688 21.59375 37.324219 25.78125 37.410156 C 27.445312 37.167969 29.140625 36.859375 30.644531 36.050781 C 34.277344 34.183594 36.753906 30.542969 37.425781 26.539062 C 37.453125 24.371094 37.417969 22.210938 37.453125 20.042969 Z M 32.015625 9.585938 C 32.445312 9.992188 32.71875 10.539062 32.882812 11.101562 C 32.453125 11.324219 32.003906 11.488281 31.558594 11.667969 C 31.609375 10.960938 31.851562 10.28125 32.015625 9.585938 Z M 28.027344 6.230469 C 29.070312 6.746094 30.171875 7.261719 30.972656 8.125 C 30.371094 9.480469 30.027344 10.929688 29.84375 12.398438 C 28.304688 13.5625 26.832031 14.808594 25.34375 16.046875 C 26.339844 12.8125 27.582031 9.605469 28.027344 6.230469 Z M 26.300781 6.953125 C 26.101562 8.769531 25.550781 10.539062 24.9375 12.253906 C 24.164062 11.667969 23.941406 10.601562 23.484375 9.792969 C 24.105469 8.699219 25.101562 7.898438 25.972656 7.019531 C 26.050781 6.996094 26.222656 6.96875 26.300781 6.953125 Z M 25.207031 5.664062 C 24.371094 6.324219 23.605469 7.097656 22.910156 7.890625 C 22.53125 7.226562 22.582031 6.394531 22.519531 5.652344 C 23.414062 5.636719 24.3125 5.601562 25.207031 5.664062 Z M 16.675781 5.660156 C 16.644531 6.425781 16.507812 7.191406 16.265625 7.917969 C 15.515625 7.160156 14.714844 6.445312 13.992188 5.660156 C 14.886719 5.652344 15.78125 5.601562 16.675781 5.660156 Z M 15.664062 9.65625 C 15.371094 10.582031 14.980469 11.625 14.242188 12.246094 C 13.519531 10.574219 13.097656 8.75 12.898438 6.9375 C 14.050781 7.574219 14.855469 8.648438 15.664062 9.65625 Z M 11.050781 6.273438 C 11.523438 9.308594 12.746094 12.855469 13.847656 16.046875 C 12.339844 14.902344 11 13.542969 9.363281 12.582031 C 9.15625 11.058594 8.792969 9.558594 8.199219 8.132812 C 9.0625 7.382812 10.042969 6.78125 11.050781 6.273438 Z M 6.890625 9.816406 C 7.519531 9.921875 7.488281 11.082031 7.632812 11.667969 C 7.203125 11.46875 6.761719 11.308594 6.296875 11.253906 C 6.417969 10.75 6.566406 10.230469 6.890625 9.816406 Z M 5.730469 12.648438 C 6.496094 12.898438 7.269531 13.164062 7.960938 13.585938 C 8.054688 15.59375 8.40625 17.617188 7.960938 19.613281 C 7.054688 19.308594 6.503906 18.277344 5.765625 17.660156 C 5.695312 15.996094 5.714844 14.320312 5.730469 12.648438 Z M 5.738281 19.957031 C 7.289062 21.058594 8.691406 22.46875 10.480469 23.191406 C 10.910156 23.597656 11.882812 23.707031 11.789062 24.457031 C 9.742188 24.441406 7.804688 25.609375 5.730469 25.660156 C 5.714844 23.757812 5.714844 21.859375 5.738281 19.957031 Z M 16.316406 31.738281 C 16.308594 31.859375 16.300781 32.117188 16.296875 32.238281 C 15.957031 32.65625 15.980469 33.542969 15.371094 33.585938 C 14.671875 33.542969 13.984375 33.441406 13.285156 33.398438 C 13.148438 33.390625 12.882812 33.371094 12.746094 33.363281 C 12.175781 33.207031 11.601562 33.039062 11.039062 32.839844 C 10.609375 32.691406 10.1875 32.503906 9.855469 32.175781 C 8.089844 31.117188 6.445312 29.300781 6.117188 27.191406 C 8.707031 26.765625 11.265625 26.125 13.683594 25.101562 C 16.652344 25.410156 17.992188 29.457031 16.316406 31.738281 Z M 9.863281 21.144531 C 9.628906 20.953125 9.214844 20.757812 9.347656 20.386719 C 9.886719 18.542969 9.628906 16.601562 9.707031 14.707031 C 13.089844 17.210938 16.238281 20.5 17.640625 24.515625 C 14.855469 24.0625 12.28125 22.554688 9.863281 21.144531 Z M 17.839844 21.324219 C 16.417969 19.085938 15.78125 16.460938 14.863281 14 C 15.671875 13.347656 16.023438 11.988281 16.816406 11.515625 C 17.546875 13.175781 18.132812 14.945312 18.191406 16.773438 C 18.191406 17.785156 18.175781 18.792969 18.191406 19.800781 C 18.15625 20.328125 18.449219 21.082031 17.839844 21.324219 Z M 18.710938 12.089844 C 18.371094 10.808594 16.917969 9.664062 17.78125 8.285156 C 18.027344 7.417969 18.097656 6.511719 18.40625 5.664062 C 19.199219 5.652344 19.992188 5.585938 20.789062 5.671875 C 20.988281 6.953125 21.28125 8.210938 21.738281 9.429688 C 20.78125 11.132812 19.886719 12.933594 19.648438 14.90625 C 19.140625 14.128906 19.171875 12.96875 18.710938 12.089844 Z M 21.042969 21.324219 C 20.59375 18.019531 20.714844 14.5 22.382812 11.523438 C 23.175781 12.105469 23.476562 13.371094 24.347656 13.984375 C 23.597656 15.929688 22.898438 17.890625 22.1875 19.851562 C 21.773438 20.265625 21.746094 21.289062 21.042969 21.324219 Z M 29.515625 14.707031 C 29.371094 16.710938 29.300781 18.734375 29.84375 20.714844 C 27.339844 22.425781 24.578125 23.941406 21.574219 24.527344 C 22.847656 20.457031 26.167969 17.210938 29.515625 14.707031 Z M 29.742188 31.851562 C 29.679688 31.9375 29.535156 32.117188 29.472656 32.203125 C 29.21875 32.316406 28.976562 32.433594 28.734375 32.554688 C 28.285156 32.769531 27.832031 32.96875 27.367188 33.15625 C 27.097656 33.199219 26.550781 33.269531 26.28125 33.304688 C 26.136719 33.328125 25.851562 33.363281 25.714844 33.382812 C 25.429688 33.417969 24.855469 33.5 24.578125 33.535156 C 23.535156 33.664062 23.003906 32.78125 22.867188 31.847656 L 22.753906 31.882812 C 22.101562 30.195312 21.710938 28.164062 22.941406 26.625 C 23.742188 25.867188 24.828125 24.585938 26.058594 25.328125 C 28.328125 26.160156 30.6875 26.796875 33.097656 27.195312 C 32.71875 29.054688 31.359375 30.996094 29.742188 31.851562 Z M 33.460938 25.652344 C 31.410156 25.457031 29.421875 24.863281 27.453125 24.269531 C 27.445312 24.191406 27.441406 24.050781 27.433594 23.96875 C 29.601562 22.925781 31.546875 21.46875 33.332031 19.863281 C 33.640625 21.28125 33.414062 23.8125 33.460938 25.652344 Z M 33.46875 16.78125 C 33.707031 18.167969 32.074219 18.8125 31.238281 19.59375 C 30.871094 17.65625 30.859375 15.550781 31.257812 13.597656 C 31.847656 13.21875 32.476562 12.898438 33.140625 12.691406 C 33.90625 13.503906 33.269531 15.609375 33.46875 16.78125 Z M 33.46875 16.78125 " fill-opacity="1" fill-rule="nonzero"></path></g><g fill="#ffffff" fill-opacity="1"><g transform="translate(18.323076, 35.368895)"><g><path d="M 0.171875 0 L 0.015625 0 L 0.015625 -0.046875 L 0.125 -0.1875 L 0.015625 -0.1875 L 0.015625 -0.234375 L 0.171875 -0.234375 L 0.171875 -0.1875 L 0.0625 -0.046875 L 0.171875 -0.046875 Z M 0.171875 0 "></path></g></g></g><g fill="#ffffff" fill-opacity="1"><g transform="translate(18.51008, 35.368895)"><g><path d="M 0.09375 0 L 0.046875 0 L 0 -0.171875 L 0.046875 -0.171875 L 0.0625 -0.0625 L 0.078125 -0.0625 L 0.109375 -0.171875 L 0.140625 -0.171875 L 0.1875 -0.0625 L 0.203125 -0.171875 L 0.25 -0.171875 L 0.203125 0 L 0.15625 0 L 0.125 -0.109375 Z M 0.09375 0 "></path></g></g></g><g fill="#ffffff" fill-opacity="1"><g transform="translate(18.762707, 35.368895)"><g><path d="M 0.046875 -0.203125 C 0.0351562 -0.203125 0.0234375 -0.203125 0.015625 -0.203125 C 0.015625 -0.203125 0.015625 -0.207031 0.015625 -0.21875 C 0.015625 -0.226562 0.015625 -0.234375 0.015625 -0.234375 C 0.0234375 -0.242188 0.0351562 -0.25 0.046875 -0.25 C 0.0546875 -0.25 0.0625 -0.242188 0.0625 -0.234375 C 0.0625 -0.234375 0.0625 -0.226562 0.0625 -0.21875 C 0.0703125 -0.21875 0.078125 -0.21875 0.078125 -0.21875 C 0.078125 -0.207031 0.0703125 -0.203125 0.0625 -0.203125 C 0.0625 -0.203125 0.0546875 -0.203125 0.046875 -0.203125 Z M 0.03125 0 L 0.03125 -0.171875 L 0.0625 -0.171875 L 0.0625 0 Z M 0.03125 0 "></path></g></g></g><g fill="#ffffff" fill-opacity="1"><g transform="translate(18.855739, 35.368895)"><g><path d="M 0.078125 0 C 0.0664062 0 0.0546875 0 0.046875 0 C 0.0351562 0 0.0234375 0 0.015625 0 C 0.015625 -0.0078125 0.015625 -0.0195312 0.015625 -0.03125 L 0.03125 -0.0625 C 0.0390625 -0.0507812 0.046875 -0.0390625 0.046875 -0.03125 C 0.0546875 -0.03125 0.0664062 -0.03125 0.078125 -0.03125 C 0.0859375 -0.03125 0.09375 -0.03125 0.09375 -0.03125 C 0.101562 -0.0390625 0.109375 -0.046875 0.109375 -0.046875 C 0.109375 -0.0546875 0.101562 -0.0625 0.09375 -0.0625 C 0.09375 -0.0625 0.0859375 -0.0625 0.078125 -0.0625 L 0.0625 -0.078125 C 0.0507812 -0.078125 0.0390625 -0.0820312 0.03125 -0.09375 C 0.0195312 -0.101562 0.015625 -0.113281 0.015625 -0.125 C 0.015625 -0.132812 0.015625 -0.144531 0.015625 -0.15625 C 0.0234375 -0.164062 0.0351562 -0.171875 0.046875 -0.171875 C 0.0546875 -0.171875 0.0664062 -0.171875 0.078125 -0.171875 C 0.0976562 -0.171875 0.113281 -0.164062 0.125 -0.15625 C 0.132812 -0.15625 0.140625 -0.15625 0.140625 -0.15625 L 0.125 -0.125 L 0.109375 -0.125 C 0.109375 -0.132812 0.101562 -0.140625 0.09375 -0.140625 C 0.09375 -0.140625 0.0859375 -0.140625 0.078125 -0.140625 C 0.0664062 -0.140625 0.0625 -0.132812 0.0625 -0.125 C 0.0625 -0.125 0.0625 -0.117188 0.0625 -0.109375 C 0.0625 -0.109375 0.0664062 -0.109375 0.078125 -0.109375 L 0.09375 -0.109375 C 0.113281 -0.0976562 0.128906 -0.0859375 0.140625 -0.078125 C 0.148438 -0.078125 0.15625 -0.0664062 0.15625 -0.046875 C 0.15625 -0.0351562 0.148438 -0.0234375 0.140625 -0.015625 C 0.128906 -0.015625 0.117188 -0.0078125 0.109375 0 C 0.0976562 0 0.0859375 0 0.078125 0 Z M 0.078125 0 "></path></g></g></g><g fill="#ffffff" fill-opacity="1"><g transform="translate(19.015022, 35.368895)"><g><path d="M 0.09375 0 C 0.0820312 0 0.0664062 0 0.046875 0 C 0.0351562 -0.0078125 0.0234375 -0.0195312 0.015625 -0.03125 C 0.015625 -0.0507812 0.015625 -0.0664062 0.015625 -0.078125 C 0.015625 -0.0976562 0.015625 -0.113281 0.015625 -0.125 C 0.0234375 -0.144531 0.0351562 -0.15625 0.046875 -0.15625 C 0.0664062 -0.164062 0.0820312 -0.171875 0.09375 -0.171875 C 0.132812 -0.171875 0.160156 -0.160156 0.171875 -0.140625 L 0.140625 -0.109375 C 0.128906 -0.117188 0.117188 -0.125 0.109375 -0.125 C 0.109375 -0.132812 0.101562 -0.140625 0.09375 -0.140625 C 0.0820312 -0.140625 0.0703125 -0.132812 0.0625 -0.125 C 0.0625 -0.113281 0.0625 -0.0976562 0.0625 -0.078125 C 0.0625 -0.0664062 0.0625 -0.0546875 0.0625 -0.046875 C 0.0703125 -0.0351562 0.0820312 -0.03125 0.09375 -0.03125 C 0.101562 -0.03125 0.113281 -0.03125 0.125 -0.03125 C 0.132812 -0.0390625 0.140625 -0.0507812 0.140625 -0.0625 L 0.171875 -0.046875 C 0.171875 -0.0351562 0.160156 -0.0234375 0.140625 -0.015625 C 0.128906 -0.00390625 0.113281 0 0.09375 0 Z M 0.09375 0 "></path></g></g></g><g fill="#ffffff" fill-opacity="1"><g transform="translate(19.193098, 35.368895)"><g><path d="M 0.03125 0 L 0.03125 -0.234375 L 0.0625 -0.234375 L 0.0625 -0.15625 C 0.0703125 -0.15625 0.0820312 -0.15625 0.09375 -0.15625 C 0.101562 -0.164062 0.113281 -0.171875 0.125 -0.171875 C 0.164062 -0.171875 0.1875 -0.148438 0.1875 -0.109375 L 0.1875 0 L 0.140625 0 L 0.140625 -0.109375 C 0.140625 -0.117188 0.132812 -0.125 0.125 -0.125 C 0.125 -0.132812 0.117188 -0.140625 0.109375 -0.140625 C 0.0976562 -0.140625 0.0859375 -0.132812 0.078125 -0.125 C 0.0664062 -0.113281 0.0625 -0.101562 0.0625 -0.09375 L 0.0625 0 Z M 0.03125 0 "></path></g></g></g><g fill="#ffffff" fill-opacity="1"><g transform="translate(19.395451, 35.368895)"><g><path d="M 0.171875 -0.078125 L 0.0625 -0.078125 C 0.0625 -0.0664062 0.0625 -0.0546875 0.0625 -0.046875 C 0.0703125 -0.0351562 0.0820312 -0.03125 0.09375 -0.03125 C 0.101562 -0.03125 0.113281 -0.03125 0.125 -0.03125 C 0.132812 -0.0390625 0.140625 -0.0507812 0.140625 -0.0625 L 0.171875 -0.03125 C 0.171875 -0.0195312 0.160156 -0.0078125 0.140625 0 C 0.128906 0 0.113281 0 0.09375 0 C 0.0820312 0 0.0664062 0 0.046875 0 C 0.0351562 -0.0078125 0.0234375 -0.0195312 0.015625 -0.03125 C 0.015625 -0.0507812 0.015625 -0.0664062 0.015625 -0.078125 C 0.015625 -0.0976562 0.0195312 -0.113281 0.03125 -0.125 C 0.0390625 -0.144531 0.0507812 -0.15625 0.0625 -0.15625 C 0.0703125 -0.164062 0.0820312 -0.171875 0.09375 -0.171875 C 0.125 -0.171875 0.144531 -0.164062 0.15625 -0.15625 C 0.164062 -0.144531 0.171875 -0.125 0.171875 -0.09375 C 0.171875 -0.0820312 0.171875 -0.078125 0.171875 -0.078125 Z M 0.140625 -0.109375 C 0.140625 -0.117188 0.132812 -0.125 0.125 -0.125 C 0.113281 -0.132812 0.101562 -0.140625 0.09375 -0.140625 C 0.0703125 -0.140625 0.0625 -0.128906 0.0625 -0.109375 Z M 0.140625 -0.109375 "></path></g></g></g><g fill="#ffffff" fill-opacity="1"><g transform="translate(19.583238, 35.368895)"><g><path d="M 0.03125 0 L 0.03125 -0.171875 L 0.0625 -0.171875 L 0.0625 -0.140625 C 0.0703125 -0.160156 0.09375 -0.171875 0.125 -0.171875 C 0.144531 -0.171875 0.160156 -0.164062 0.171875 -0.15625 C 0.179688 -0.144531 0.1875 -0.128906 0.1875 -0.109375 L 0.1875 0 L 0.140625 0 L 0.140625 -0.109375 C 0.140625 -0.117188 0.132812 -0.125 0.125 -0.125 C 0.125 -0.132812 0.117188 -0.140625 0.109375 -0.140625 C 0.0976562 -0.140625 0.0859375 -0.132812 0.078125 -0.125 C 0.0664062 -0.113281 0.0625 -0.101562 0.0625 -0.09375 L 0.0625 0 Z M 0.03125 0 "></path></g></g></g><g fill="#ffffff" fill-opacity="1"><g transform="translate(19.78559, 35.368895)"><g><path d="M 0.078125 0 C 0.0546875 0 0.0390625 -0.00390625 0.03125 -0.015625 C 0.0195312 -0.0234375 0.015625 -0.0390625 0.015625 -0.0625 L 0.015625 -0.171875 L 0.0625 -0.171875 L 0.0625 -0.0625 C 0.0625 -0.0507812 0.0625 -0.0390625 0.0625 -0.03125 C 0.0703125 -0.03125 0.0820312 -0.03125 0.09375 -0.03125 C 0.101562 -0.03125 0.109375 -0.0351562 0.109375 -0.046875 C 0.117188 -0.0546875 0.125 -0.0664062 0.125 -0.078125 L 0.125 -0.171875 L 0.171875 -0.171875 L 0.171875 0 L 0.140625 0 L 0.140625 -0.03125 L 0.125 -0.03125 C 0.125 -0.0195312 0.117188 -0.0078125 0.109375 0 C 0.0976562 0 0.0859375 0 0.078125 0 Z M 0.0625 -0.203125 C 0.0625 -0.203125 0.0546875 -0.203125 0.046875 -0.203125 C 0.046875 -0.203125 0.046875 -0.207031 0.046875 -0.21875 C 0.0546875 -0.226562 0.0625 -0.234375 0.0625 -0.234375 C 0.0703125 -0.234375 0.078125 -0.226562 0.078125 -0.21875 C 0.0859375 -0.21875 0.09375 -0.21875 0.09375 -0.21875 C 0.09375 -0.207031 0.0859375 -0.203125 0.078125 -0.203125 C 0.078125 -0.203125 0.0703125 -0.203125 0.0625 -0.203125 Z M 0.125 -0.203125 C 0.125 -0.203125 0.117188 -0.203125 0.109375 -0.203125 C 0.109375 -0.203125 0.109375 -0.207031 0.109375 -0.21875 C 0.117188 -0.226562 0.125 -0.234375 0.125 -0.234375 C 0.132812 -0.234375 0.140625 -0.226562 0.140625 -0.21875 C 0.148438 -0.21875 0.15625 -0.21875 0.15625 -0.21875 C 0.15625 -0.207031 0.148438 -0.203125 0.140625 -0.203125 C 0.140625 -0.203125 0.132812 -0.203125 0.125 -0.203125 Z M 0.125 -0.203125 "></path></g></g></g><g fill="#ffffff" fill-opacity="1"><g transform="translate(19.985437, 35.368895)"><g><path d="M 0.125 0 C 0.101562 0 0.0820312 -0.00390625 0.0625 -0.015625 L 0.0625 0 L 0.03125 0 L 0.03125 -0.234375 L 0.0625 -0.234375 L 0.0625 -0.15625 C 0.0703125 -0.164062 0.0820312 -0.171875 0.09375 -0.171875 C 0.101562 -0.171875 0.113281 -0.171875 0.125 -0.171875 C 0.132812 -0.171875 0.144531 -0.164062 0.15625 -0.15625 C 0.164062 -0.15625 0.171875 -0.144531 0.171875 -0.125 C 0.179688 -0.113281 0.1875 -0.0976562 0.1875 -0.078125 C 0.1875 -0.0664062 0.179688 -0.0507812 0.171875 -0.03125 C 0.171875 -0.0195312 0.164062 -0.0078125 0.15625 0 C 0.144531 0 0.132812 0 0.125 0 Z M 0.109375 -0.03125 C 0.117188 -0.03125 0.125 -0.0351562 0.125 -0.046875 C 0.132812 -0.0546875 0.140625 -0.0664062 0.140625 -0.078125 C 0.140625 -0.0976562 0.132812 -0.113281 0.125 -0.125 C 0.125 -0.132812 0.117188 -0.140625 0.109375 -0.140625 C 0.0976562 -0.140625 0.0859375 -0.132812 0.078125 -0.125 C 0.0664062 -0.113281 0.0625 -0.0976562 0.0625 -0.078125 C 0.0625 -0.0664062 0.0664062 -0.0546875 0.078125 -0.046875 C 0.0859375 -0.0351562 0.0976562 -0.03125 0.109375 -0.03125 Z M 0.109375 -0.03125 "></path></g></g></g><g fill="#ffffff" fill-opacity="1"><g transform="translate(20.192331, 35.368895)"><g><path d="M 0.171875 -0.078125 L 0.0625 -0.078125 C 0.0625 -0.0664062 0.0625 -0.0546875 0.0625 -0.046875 C 0.0703125 -0.0351562 0.0820312 -0.03125 0.09375 -0.03125 C 0.101562 -0.03125 0.113281 -0.03125 0.125 -0.03125 C 0.132812 -0.0390625 0.140625 -0.0507812 0.140625 -0.0625 L 0.171875 -0.03125 C 0.171875 -0.0195312 0.160156 -0.0078125 0.140625 0 C 0.128906 0 0.113281 0 0.09375 0 C 0.0820312 0 0.0664062 0 0.046875 0 C 0.0351562 -0.0078125 0.0234375 -0.0195312 0.015625 -0.03125 C 0.015625 -0.0507812 0.015625 -0.0664062 0.015625 -0.078125 C 0.015625 -0.0976562 0.0195312 -0.113281 0.03125 -0.125 C 0.0390625 -0.144531 0.0507812 -0.15625 0.0625 -0.15625 C 0.0703125 -0.164062 0.0820312 -0.171875 0.09375 -0.171875 C 0.125 -0.171875 0.144531 -0.164062 0.15625 -0.15625 C 0.164062 -0.144531 0.171875 -0.125 0.171875 -0.09375 C 0.171875 -0.0820312 0.171875 -0.078125 0.171875 -0.078125 Z M 0.140625 -0.109375 C 0.140625 -0.117188 0.132812 -0.125 0.125 -0.125 C 0.113281 -0.132812 0.101562 -0.140625 0.09375 -0.140625 C 0.0703125 -0.140625 0.0625 -0.128906 0.0625 -0.109375 Z M 0.140625 -0.109375 "></path></g></g></g><g fill="#ffffff" fill-opacity="1"><g transform="translate(20.380119, 35.368895)"><g><path d="M 0.03125 0 L 0.03125 -0.171875 L 0.0625 -0.171875 L 0.0625 -0.140625 C 0.0703125 -0.148438 0.078125 -0.15625 0.078125 -0.15625 C 0.0859375 -0.164062 0.0976562 -0.171875 0.109375 -0.171875 C 0.117188 -0.171875 0.128906 -0.171875 0.140625 -0.171875 L 0.125 -0.125 C 0.125 -0.132812 0.117188 -0.140625 0.109375 -0.140625 C 0.0859375 -0.140625 0.0703125 -0.132812 0.0625 -0.125 C 0.0625 -0.113281 0.0625 -0.0976562 0.0625 -0.078125 L 0.0625 0 Z M 0.03125 0 "></path></g></g></g><g fill="#ffffff" fill-opacity="1"><g transform="translate(20.515595, 35.368895)"><g><path d="M 0.078125 0 C 0.0664062 0 0.0546875 0 0.046875 0 C 0.0351562 0 0.0234375 0 0.015625 0 C 0.015625 -0.0078125 0.015625 -0.0195312 0.015625 -0.03125 L 0.03125 -0.0625 C 0.0390625 -0.0507812 0.046875 -0.0390625 0.046875 -0.03125 C 0.0546875 -0.03125 0.0664062 -0.03125 0.078125 -0.03125 C 0.0859375 -0.03125 0.09375 -0.03125 0.09375 -0.03125 C 0.101562 -0.0390625 0.109375 -0.046875 0.109375 -0.046875 C 0.109375 -0.0546875 0.101562 -0.0625 0.09375 -0.0625 C 0.09375 -0.0625 0.0859375 -0.0625 0.078125 -0.0625 L 0.0625 -0.078125 C 0.0507812 -0.078125 0.0390625 -0.0820312 0.03125 -0.09375 C 0.0195312 -0.101562 0.015625 -0.113281 0.015625 -0.125 C 0.015625 -0.132812 0.015625 -0.144531 0.015625 -0.15625 C 0.0234375 -0.164062 0.0351562 -0.171875 0.046875 -0.171875 C 0.0546875 -0.171875 0.0664062 -0.171875 0.078125 -0.171875 C 0.0976562 -0.171875 0.113281 -0.164062 0.125 -0.15625 C 0.132812 -0.15625 0.140625 -0.15625 0.140625 -0.15625 L 0.125 -0.125 L 0.109375 -0.125 C 0.109375 -0.132812 0.101562 -0.140625 0.09375 -0.140625 C 0.09375 -0.140625 0.0859375 -0.140625 0.078125 -0.140625 C 0.0664062 -0.140625 0.0625 -0.132812 0.0625 -0.125 C 0.0625 -0.125 0.0625 -0.117188 0.0625 -0.109375 C 0.0625 -0.109375 0.0664062 -0.109375 0.078125 -0.109375 L 0.09375 -0.109375 C 0.113281 -0.0976562 0.128906 -0.0859375 0.140625 -0.078125 C 0.148438 -0.078125 0.15625 -0.0664062 0.15625 -0.046875 C 0.15625 -0.0351562 0.148438 -0.0234375 0.140625 -0.015625 C 0.128906 -0.015625 0.117188 -0.0078125 0.109375 0 C 0.0976562 0 0.0859375 0 0.078125 0 Z M 0.078125 0 "></path></g></g></g><g fill="#ffffff" fill-opacity="1"><g transform="translate(19.065237, 35.7903)"><g><path d="M 0.09375 0 C 0.0820312 0 0.0664062 0 0.046875 0 C 0.0351562 -0.0078125 0.0234375 -0.0195312 0.015625 -0.03125 C 0.015625 -0.0507812 0.015625 -0.0664062 0.015625 -0.078125 C 0.015625 -0.0976562 0.015625 -0.113281 0.015625 -0.125 C 0.0234375 -0.144531 0.0351562 -0.15625 0.046875 -0.15625 C 0.0664062 -0.164062 0.0820312 -0.171875 0.09375 -0.171875 C 0.132812 -0.171875 0.160156 -0.160156 0.171875 -0.140625 L 0.140625 -0.109375 C 0.128906 -0.117188 0.117188 -0.125 0.109375 -0.125 C 0.109375 -0.132812 0.101562 -0.140625 0.09375 -0.140625 C 0.0820312 -0.140625 0.0703125 -0.132812 0.0625 -0.125 C 0.0625 -0.113281 0.0625 -0.0976562 0.0625 -0.078125 C 0.0625 -0.0664062 0.0625 -0.0546875 0.0625 -0.046875 C 0.0703125 -0.0351562 0.0820312 -0.03125 0.09375 -0.03125 C 0.101562 -0.03125 0.113281 -0.03125 0.125 -0.03125 C 0.132812 -0.0390625 0.140625 -0.0507812 0.140625 -0.0625 L 0.171875 -0.046875 C 0.171875 -0.0351562 0.160156 -0.0234375 0.140625 -0.015625 C 0.128906 -0.00390625 0.113281 0 0.09375 0 Z M 0.09375 0 "></path></g></g></g><g fill="#ffffff" fill-opacity="1"><g transform="translate(19.243314, 35.7903)"><g><path d="M 0.03125 0 L 0.03125 -0.234375 L 0.0625 -0.234375 L 0.0625 -0.15625 C 0.0703125 -0.15625 0.0820312 -0.15625 0.09375 -0.15625 C 0.101562 -0.164062 0.113281 -0.171875 0.125 -0.171875 C 0.164062 -0.171875 0.1875 -0.148438 0.1875 -0.109375 L 0.1875 0 L 0.140625 0 L 0.140625 -0.109375 C 0.140625 -0.117188 0.132812 -0.125 0.125 -0.125 C 0.125 -0.132812 0.117188 -0.140625 0.109375 -0.140625 C 0.0976562 -0.140625 0.0859375 -0.132812 0.078125 -0.125 C 0.0664062 -0.113281 0.0625 -0.101562 0.0625 -0.09375 L 0.0625 0 Z M 0.03125 0 "></path></g></g></g><g fill="#ffffff" fill-opacity="1"><g transform="translate(19.445666, 35.7903)"><g><path d="M 0.03125 0 L 0.03125 -0.171875 L 0.0625 -0.171875 L 0.0625 -0.140625 C 0.0703125 -0.148438 0.078125 -0.15625 0.078125 -0.15625 C 0.0859375 -0.164062 0.0976562 -0.171875 0.109375 -0.171875 C 0.117188 -0.171875 0.128906 -0.171875 0.140625 -0.171875 L 0.125 -0.125 C 0.125 -0.132812 0.117188 -0.140625 0.109375 -0.140625 C 0.0859375 -0.140625 0.0703125 -0.132812 0.0625 -0.125 C 0.0625 -0.113281 0.0625 -0.0976562 0.0625 -0.078125 L 0.0625 0 Z M 0.03125 0 "></path></g></g></g><g fill="#ffffff" fill-opacity="1"><g transform="translate(19.581143, 35.7903)"><g><path d="M 0.046875 -0.203125 C 0.0351562 -0.203125 0.0234375 -0.203125 0.015625 -0.203125 C 0.015625 -0.203125 0.015625 -0.207031 0.015625 -0.21875 C 0.015625 -0.226562 0.015625 -0.234375 0.015625 -0.234375 C 0.0234375 -0.242188 0.0351562 -0.25 0.046875 -0.25 C 0.0546875 -0.25 0.0625 -0.242188 0.0625 -0.234375 C 0.0625 -0.234375 0.0625 -0.226562 0.0625 -0.21875 C 0.0703125 -0.21875 0.078125 -0.21875 0.078125 -0.21875 C 0.078125 -0.207031 0.0703125 -0.203125 0.0625 -0.203125 C 0.0625 -0.203125 0.0546875 -0.203125 0.046875 -0.203125 Z M 0.03125 0 L 0.03125 -0.171875 L 0.0625 -0.171875 L 0.0625 0 Z M 0.03125 0 "></path></g></g></g><g fill="#ffffff" fill-opacity="1"><g transform="translate(19.674175, 35.7903)"><g><path d="M 0.03125 0 L 0.03125 -0.140625 L 0 -0.140625 L 0 -0.171875 L 0.03125 -0.171875 C 0.03125 -0.179688 0.03125 -0.191406 0.03125 -0.203125 C 0.03125 -0.203125 0.03125 -0.207031 0.03125 -0.21875 C 0.0390625 -0.226562 0.046875 -0.234375 0.046875 -0.234375 C 0.0546875 -0.242188 0.0703125 -0.25 0.09375 -0.25 C 0.113281 -0.25 0.128906 -0.242188 0.140625 -0.234375 L 0.125 -0.203125 C 0.113281 -0.203125 0.101562 -0.203125 0.09375 -0.203125 C 0.0820312 -0.203125 0.0703125 -0.203125 0.0625 -0.203125 C 0.0625 -0.203125 0.0625 -0.195312 0.0625 -0.1875 C 0.0625 -0.1875 0.0625 -0.179688 0.0625 -0.171875 C 0.0625 -0.171875 0.0664062 -0.171875 0.078125 -0.171875 L 0.125 -0.171875 L 0.125 -0.140625 L 0.078125 -0.140625 L 0.078125 0 Z M 0.03125 0 "></path></g></g></g><g fill="#ffffff" fill-opacity="1"><g transform="translate(19.798844, 35.7903)"><g><path d="M 0.125 -0.046875 L 0.125 -0.015625 C 0.125 -0.00390625 0.117188 0 0.109375 0 C 0.0976562 0 0.09375 0 0.09375 0 C 0.0703125 0 0.0546875 -0.00390625 0.046875 -0.015625 C 0.0351562 -0.0234375 0.03125 -0.0390625 0.03125 -0.0625 L 0.03125 -0.140625 L 0 -0.140625 L 0 -0.171875 L 0.03125 -0.171875 L 0.03125 -0.203125 L 0.078125 -0.21875 L 0.078125 -0.171875 L 0.125 -0.171875 L 0.125 -0.140625 L 0.078125 -0.140625 L 0.078125 -0.0625 C 0.078125 -0.0507812 0.078125 -0.0390625 0.078125 -0.03125 C 0.078125 -0.03125 0.0820312 -0.03125 0.09375 -0.03125 C 0.101562 -0.03125 0.109375 -0.0351562 0.109375 -0.046875 Z M 0.125 -0.046875 "></path></g></g></g><g fill="#ffffff" fill-opacity="1"><g transform="translate(18.625961, 36.211704)"><g><path d="M 0.03125 0 L 0.03125 -0.234375 L 0.0625 -0.234375 L 0.0625 -0.15625 C 0.0703125 -0.15625 0.0820312 -0.15625 0.09375 -0.15625 C 0.101562 -0.164062 0.113281 -0.171875 0.125 -0.171875 C 0.164062 -0.171875 0.1875 -0.148438 0.1875 -0.109375 L 0.1875 0 L 0.140625 0 L 0.140625 -0.109375 C 0.140625 -0.117188 0.132812 -0.125 0.125 -0.125 C 0.125 -0.132812 0.117188 -0.140625 0.109375 -0.140625 C 0.0976562 -0.140625 0.0859375 -0.132812 0.078125 -0.125 C 0.0664062 -0.113281 0.0625 -0.101562 0.0625 -0.09375 L 0.0625 0 Z M 0.03125 0 "></path></g></g></g><g fill="#ffffff" fill-opacity="1"><g transform="translate(18.828313, 36.211704)"><g><path d="M 0.046875 -0.203125 C 0.0351562 -0.203125 0.0234375 -0.203125 0.015625 -0.203125 C 0.015625 -0.203125 0.015625 -0.207031 0.015625 -0.21875 C 0.015625 -0.226562 0.015625 -0.234375 0.015625 -0.234375 C 0.0234375 -0.242188 0.0351562 -0.25 0.046875 -0.25 C 0.0546875 -0.25 0.0625 -0.242188 0.0625 -0.234375 C 0.0625 -0.234375 0.0625 -0.226562 0.0625 -0.21875 C 0.0703125 -0.21875 0.078125 -0.21875 0.078125 -0.21875 C 0.078125 -0.207031 0.0703125 -0.203125 0.0625 -0.203125 C 0.0625 -0.203125 0.0546875 -0.203125 0.046875 -0.203125 Z M 0.03125 0 L 0.03125 -0.171875 L 0.0625 -0.171875 L 0.0625 0 Z M 0.03125 0 "></path></g></g></g><g fill="#ffffff" fill-opacity="1"><g transform="translate(18.921345, 36.211704)"><g><path d="M 0.03125 0 L 0.03125 -0.171875 L 0.0625 -0.171875 L 0.0625 -0.140625 C 0.0703125 -0.160156 0.09375 -0.171875 0.125 -0.171875 C 0.144531 -0.171875 0.160156 -0.164062 0.171875 -0.15625 C 0.179688 -0.144531 0.1875 -0.128906 0.1875 -0.109375 L 0.1875 0 L 0.140625 0 L 0.140625 -0.109375 C 0.140625 -0.117188 0.132812 -0.125 0.125 -0.125 C 0.125 -0.132812 0.117188 -0.140625 0.109375 -0.140625 C 0.0976562 -0.140625 0.0859375 -0.132812 0.078125 -0.125 C 0.0664062 -0.113281 0.0625 -0.101562 0.0625 -0.09375 L 0.0625 0 Z M 0.03125 0 "></path></g></g></g><g fill="#ffffff" fill-opacity="1"><g transform="translate(19.123697, 36.211704)"><g><path d="M 0.140625 0 L 0.015625 0 L 0.015625 -0.03125 L 0.09375 -0.140625 L 0.015625 -0.140625 L 0.015625 -0.171875 L 0.140625 -0.171875 L 0.140625 -0.140625 L 0.0625 -0.046875 L 0.0625 -0.03125 L 0.140625 -0.03125 Z M 0.140625 0 "></path></g></g></g><g fill="#ffffff" fill-opacity="1"><g transform="translate(19.277811, 36.211704)"><g><path d="M 0.078125 0 C 0.0546875 0 0.0390625 -0.00390625 0.03125 -0.015625 C 0.0195312 -0.0234375 0.015625 -0.0390625 0.015625 -0.0625 L 0.015625 -0.171875 L 0.0625 -0.171875 L 0.0625 -0.0625 C 0.0625 -0.0507812 0.0625 -0.0390625 0.0625 -0.03125 C 0.0703125 -0.03125 0.0820312 -0.03125 0.09375 -0.03125 C 0.101562 -0.03125 0.109375 -0.0351562 0.109375 -0.046875 C 0.117188 -0.0546875 0.125 -0.0664062 0.125 -0.078125 L 0.125 -0.171875 L 0.171875 -0.171875 L 0.171875 0 L 0.140625 0 L 0.140625 -0.03125 L 0.125 -0.03125 C 0.125 -0.0195312 0.117188 -0.0078125 0.109375 0 C 0.0976562 0 0.0859375 0 0.078125 0 Z M 0.078125 0 "></path></g></g></g><g fill="#ffffff" fill-opacity="1"><g transform="translate(19.477657, 36.211704)"><g><path d="M 0.03125 0 L 0.03125 -0.140625 L 0 -0.140625 L 0 -0.171875 L 0.03125 -0.171875 C 0.03125 -0.179688 0.03125 -0.191406 0.03125 -0.203125 C 0.03125 -0.203125 0.03125 -0.207031 0.03125 -0.21875 C 0.0390625 -0.226562 0.046875 -0.234375 0.046875 -0.234375 C 0.0546875 -0.242188 0.0703125 -0.25 0.09375 -0.25 C 0.113281 -0.25 0.128906 -0.242188 0.140625 -0.234375 L 0.125 -0.203125 C 0.113281 -0.203125 0.101562 -0.203125 0.09375 -0.203125 C 0.0820312 -0.203125 0.0703125 -0.203125 0.0625 -0.203125 C 0.0625 -0.203125 0.0625 -0.195312 0.0625 -0.1875 C 0.0625 -0.1875 0.0625 -0.179688 0.0625 -0.171875 C 0.0625 -0.171875 0.0664062 -0.171875 0.078125 -0.171875 L 0.125 -0.171875 L 0.125 -0.140625 L 0.078125 -0.140625 L 0.078125 0 Z M 0.03125 0 "></path></g></g></g><g fill="#ffffff" fill-opacity="1"><g transform="translate(19.602326, 36.211704)"><g><path d="M 0.078125 0 C 0.0546875 0 0.0390625 -0.00390625 0.03125 -0.015625 C 0.0195312 -0.0234375 0.015625 -0.0390625 0.015625 -0.0625 L 0.015625 -0.171875 L 0.0625 -0.171875 L 0.0625 -0.0625 C 0.0625 -0.0507812 0.0625 -0.0390625 0.0625 -0.03125 C 0.0703125 -0.03125 0.0820312 -0.03125 0.09375 -0.03125 C 0.101562 -0.03125 0.109375 -0.0351562 0.109375 -0.046875 C 0.117188 -0.0546875 0.125 -0.0664062 0.125 -0.078125 L 0.125 -0.171875 L 0.171875 -0.171875 L 0.171875 0 L 0.140625 0 L 0.140625 -0.03125 L 0.125 -0.03125 C 0.125 -0.0195312 0.117188 -0.0078125 0.109375 0 C 0.0976562 0 0.0859375 0 0.078125 0 Z M 0.0625 -0.203125 C 0.0625 -0.203125 0.0546875 -0.203125 0.046875 -0.203125 C 0.046875 -0.203125 0.046875 -0.207031 0.046875 -0.21875 C 0.0546875 -0.226562 0.0625 -0.234375 0.0625 -0.234375 C 0.0703125 -0.234375 0.078125 -0.226562 0.078125 -0.21875 C 0.0859375 -0.21875 0.09375 -0.21875 0.09375 -0.21875 C 0.09375 -0.207031 0.0859375 -0.203125 0.078125 -0.203125 C 0.078125 -0.203125 0.0703125 -0.203125 0.0625 -0.203125 Z M 0.125 -0.203125 C 0.125 -0.203125 0.117188 -0.203125 0.109375 -0.203125 C 0.109375 -0.203125 0.109375 -0.207031 0.109375 -0.21875 C 0.117188 -0.226562 0.125 -0.234375 0.125 -0.234375 C 0.132812 -0.234375 0.140625 -0.226562 0.140625 -0.21875 C 0.148438 -0.21875 0.15625 -0.21875 0.15625 -0.21875 C 0.15625 -0.207031 0.148438 -0.203125 0.140625 -0.203125 C 0.140625 -0.203125 0.132812 -0.203125 0.125 -0.203125 Z M 0.125 -0.203125 "></path></g></g></g><g fill="#ffffff" fill-opacity="1"><g transform="translate(19.802173, 36.211704)"><g><path d="M 0.09375 0.078125 C 0.0625 0.078125 0.0351562 0.0703125 0.015625 0.0625 C 0.00390625 0.0507812 0 0.0390625 0 0.03125 C 0 0.0195312 0.00390625 0.0078125 0.015625 0 C 0.0234375 0 0.0351562 -0.00390625 0.046875 -0.015625 C 0.0351562 -0.015625 0.03125 -0.015625 0.03125 -0.015625 C 0.03125 -0.0234375 0.03125 -0.0351562 0.03125 -0.046875 C 0.03125 -0.0546875 0.0351562 -0.0625 0.046875 -0.0625 C 0.0351562 -0.0703125 0.0234375 -0.078125 0.015625 -0.078125 C 0.015625 -0.0859375 0.015625 -0.101562 0.015625 -0.125 C 0.015625 -0.132812 0.0195312 -0.140625 0.03125 -0.140625 C 0.0390625 -0.148438 0.046875 -0.15625 0.046875 -0.15625 C 0.0546875 -0.164062 0.0703125 -0.171875 0.09375 -0.171875 C 0.101562 -0.171875 0.113281 -0.171875 0.125 -0.171875 C 0.125 -0.179688 0.128906 -0.191406 0.140625 -0.203125 L 0.171875 -0.1875 C 0.171875 -0.175781 0.164062 -0.164062 0.15625 -0.15625 C 0.15625 -0.15625 0.148438 -0.15625 0.140625 -0.15625 C 0.148438 -0.144531 0.15625 -0.128906 0.15625 -0.109375 C 0.15625 -0.0976562 0.148438 -0.0859375 0.140625 -0.078125 C 0.140625 -0.078125 0.132812 -0.0703125 0.125 -0.0625 C 0.113281 -0.0625 0.101562 -0.0625 0.09375 -0.0625 L 0.078125 -0.0625 C 0.0664062 -0.0625 0.0625 -0.0625 0.0625 -0.0625 C 0.0625 -0.0625 0.0625 -0.0546875 0.0625 -0.046875 C 0.0625 -0.046875 0.0625 -0.0390625 0.0625 -0.03125 C 0.0625 -0.03125 0.0664062 -0.03125 0.078125 -0.03125 L 0.125 -0.03125 C 0.15625 -0.03125 0.171875 -0.015625 0.171875 0.015625 C 0.171875 0.0234375 0.164062 0.0351562 0.15625 0.046875 C 0.15625 0.0546875 0.148438 0.0625 0.140625 0.0625 C 0.128906 0.0703125 0.113281 0.078125 0.09375 0.078125 Z M 0.09375 -0.09375 C 0.101562 -0.101562 0.109375 -0.109375 0.109375 -0.109375 C 0.109375 -0.117188 0.101562 -0.125 0.09375 -0.125 C 0.09375 -0.132812 0.09375 -0.140625 0.09375 -0.140625 C 0.0820312 -0.140625 0.0703125 -0.132812 0.0625 -0.125 C 0.0625 -0.125 0.0625 -0.117188 0.0625 -0.109375 C 0.0625 -0.109375 0.0625 -0.101562 0.0625 -0.09375 C 0.0703125 -0.09375 0.0820312 -0.09375 0.09375 -0.09375 Z M 0.09375 0.046875 C 0.101562 0.046875 0.109375 0.0390625 0.109375 0.03125 C 0.117188 0.03125 0.125 0.0234375 0.125 0.015625 C 0.125 0.015625 0.125 0.0078125 0.125 0 C 0.125 0 0.117188 0 0.109375 0 L 0.078125 0 C 0.078125 0 0.0703125 0 0.0625 0 C 0.0625 0 0.0546875 0 0.046875 0 C 0.046875 0.0078125 0.046875 0.015625 0.046875 0.015625 C 0.046875 0.0234375 0.046875 0.03125 0.046875 0.03125 C 0.0546875 0.0390625 0.0703125 0.046875 0.09375 0.046875 Z M 0.09375 0.046875 "></path></g></g></g><g fill="#ffffff" fill-opacity="1"><g transform="translate(19.981816, 36.211704)"><g><path d="M 0.171875 -0.078125 L 0.0625 -0.078125 C 0.0625 -0.0664062 0.0625 -0.0546875 0.0625 -0.046875 C 0.0703125 -0.0351562 0.0820312 -0.03125 0.09375 -0.03125 C 0.101562 -0.03125 0.113281 -0.03125 0.125 -0.03125 C 0.132812 -0.0390625 0.140625 -0.0507812 0.140625 -0.0625 L 0.171875 -0.03125 C 0.171875 -0.0195312 0.160156 -0.0078125 0.140625 0 C 0.128906 0 0.113281 0 0.09375 0 C 0.0820312 0 0.0664062 0 0.046875 0 C 0.0351562 -0.0078125 0.0234375 -0.0195312 0.015625 -0.03125 C 0.015625 -0.0507812 0.015625 -0.0664062 0.015625 -0.078125 C 0.015625 -0.0976562 0.0195312 -0.113281 0.03125 -0.125 C 0.0390625 -0.144531 0.0507812 -0.15625 0.0625 -0.15625 C 0.0703125 -0.164062 0.0820312 -0.171875 0.09375 -0.171875 C 0.125 -0.171875 0.144531 -0.164062 0.15625 -0.15625 C 0.164062 -0.144531 0.171875 -0.125 0.171875 -0.09375 C 0.171875 -0.0820312 0.171875 -0.078125 0.171875 -0.078125 Z M 0.140625 -0.109375 C 0.140625 -0.117188 0.132812 -0.125 0.125 -0.125 C 0.113281 -0.132812 0.101562 -0.140625 0.09375 -0.140625 C 0.0703125 -0.140625 0.0625 -0.128906 0.0625 -0.109375 Z M 0.140625 -0.109375 "></path></g></g></g><g fill="#ffffff" fill-opacity="1"><g transform="translate(20.169603, 36.211704)"><g><path d="M 0.03125 0 L 0.03125 -0.171875 L 0.0625 -0.171875 L 0.0625 -0.140625 C 0.0703125 -0.160156 0.09375 -0.171875 0.125 -0.171875 C 0.144531 -0.171875 0.160156 -0.164062 0.171875 -0.15625 C 0.179688 -0.144531 0.1875 -0.128906 0.1875 -0.109375 L 0.1875 0 L 0.140625 0 L 0.140625 -0.109375 C 0.140625 -0.117188 0.132812 -0.125 0.125 -0.125 C 0.125 -0.132812 0.117188 -0.140625 0.109375 -0.140625 C 0.0976562 -0.140625 0.0859375 -0.132812 0.078125 -0.125 C 0.0664062 -0.113281 0.0625 -0.101562 0.0625 -0.09375 L 0.0625 0 Z M 0.03125 0 "></path></g></g></g></svg>