<svg xmlns="http://www.w3.org/2000/svg" width="36.993" height="36.396" viewBox="0 0 36.993 36.396"><g transform="translate(-1 -2)"><path d="M33.53,21A12.53,12.53,0,1,0,46.06,33.53,12.53,12.53,0,0,0,33.53,21Zm5.483,18.013a7.757,7.757,0,0,1-13.126-4.218l-.286.286a.6.6,0,1,1-.847-.841l1.193-1.193a.6.6,0,0,1,.847,0l1.193,1.193a.6.6,0,0,1-.823.859,6.563,6.563,0,0,0,11.008,3.073.6.6,0,0,1,.841.841Zm3.294-6.253-1.193,1.193a.6.6,0,0,1-.847,0L39.073,32.76a.6.6,0,0,1,.805-.871,6.563,6.563,0,0,0-10.99-2.983.6.6,0,0,1-.841-.841,7.757,7.757,0,0,1,13.126,4.177l.292-.3a.6.6,0,0,1,.841.817Z" transform="translate(-8.067 -7.664)" fill="#c4a2fc"></path><path d="M30.833,3.79A1.79,1.79,0,0,0,29.043,2H2.79A1.79,1.79,0,0,0,1,3.79V8.563a1.79,1.79,0,0,0,.465,1.193A1.79,1.79,0,0,0,1,10.95v4.773a1.79,1.79,0,0,0,.465,1.193A1.79,1.79,0,0,0,1,18.11v4.773a1.79,1.79,0,0,0,1.79,1.79H29.043a1.79,1.79,0,0,0,1.79-1.79V18.11a1.79,1.79,0,0,0-.465-1.193,1.79,1.79,0,0,0,.465-1.193V10.95a1.79,1.79,0,0,0-.465-1.193,1.79,1.79,0,0,0,.465-1.193Zm-28.639,0a.6.6,0,0,1,.6-.6H29.043a.6.6,0,0,1,.6.6V8.563a.6.6,0,0,1-.6.6H2.79a.6.6,0,0,1-.6-.6ZM29.639,15.723a.6.6,0,0,1-.6.6H2.79a.6.6,0,0,1-.6-.6V10.95a.6.6,0,0,1,.6-.6H29.043a.6.6,0,0,1,.6.6Zm0,7.16a.6.6,0,0,1-.6.6H2.79a.6.6,0,0,1-.6-.6V18.11a.6.6,0,0,1,.6-.6H29.043a.6.6,0,0,1,.6.6ZM6.37,5.58H18.3a.6.6,0,0,1,0,1.193H6.37a.6.6,0,0,1,0-1.193Zm18.5,1.193V5.58a.6.6,0,1,1,1.193,0V6.773a.6.6,0,1,1-1.193,0Zm-2.387,0V5.58a.6.6,0,0,1,1.193,0V6.773a.6.6,0,0,1-1.193,0ZM18.3,13.933H6.37a.6.6,0,0,1,0-1.193H18.3a.6.6,0,0,1,0,1.193ZM26.06,12.74v1.193a.6.6,0,1,1-1.193,0V12.74a.6.6,0,1,1,1.193,0Zm-2.387,0v1.193a.6.6,0,0,1-1.193,0V12.74a.6.6,0,0,1,1.193,0ZM18.3,21.093H6.37a.6.6,0,0,1,0-1.193H18.3a.6.6,0,0,1,0,1.193ZM26.06,19.9v1.193a.6.6,0,1,1-1.193,0V19.9a.6.6,0,1,1,1.193,0Zm-2.387,0v1.193a.6.6,0,1,1-1.193,0V19.9a.6.6,0,0,1,1.193,0Z" transform="translate(0 0)" fill="#151a6a"></path></g></svg>