<svg xmlns="http://www.w3.org/2000/svg" xmlns:xlink="http://www.w3.org/1999/xlink" width="98" viewBox="0 0 73.5 32.249999" height="43" preserveAspectRatio="xMidYMid meet"><defs><clipPath id="16a6806905"><path d="M 4.675781 3.703125 L 68.441406 3.703125 L 68.441406 27.890625 L 4.675781 27.890625 Z M 4.675781 3.703125 " clip-rule="nonzero"></path></clipPath></defs><g clip-path="url(#16a6806905)"><path fill="#000000" d="M 68.128906 19.566406 C 68.265625 19.222656 68.4375 18.796875 68.4375 18.308594 C 68.441406 17.695312 68.140625 17.148438 67.671875 16.875 C 67.625 16.84375 67.578125 16.8125 67.53125 16.785156 C 67.488281 16.75 67.441406 16.71875 67.394531 16.691406 C 67.347656 16.660156 67.300781 16.628906 67.253906 16.601562 C 67.210938 16.566406 67.164062 16.535156 67.117188 16.507812 C 67.070312 16.472656 67.023438 16.445312 66.976562 16.417969 C 66.933594 16.382812 66.886719 16.351562 66.839844 16.324219 C 66.792969 16.289062 66.746094 16.261719 66.699219 16.234375 C 66.65625 16.199219 66.609375 16.167969 66.5625 16.140625 C 66.765625 15.734375 67.039062 15.003906 66.574219 14.378906 C 66.460938 14.226562 66.320312 14.109375 66.167969 14.019531 C 66.121094 13.984375 66.074219 13.953125 66.027344 13.925781 C 65.984375 13.894531 65.9375 13.863281 65.890625 13.835938 C 65.886719 13.832031 65.886719 13.832031 65.882812 13.832031 C 66.382812 12.8125 66.507812 11.65625 66.15625 10.621094 C 65.898438 9.851562 65.394531 9.214844 64.761719 8.8125 C 64.714844 8.78125 64.671875 8.753906 64.625 8.722656 C 64.578125 8.691406 64.53125 8.660156 64.484375 8.628906 C 64.441406 8.597656 64.394531 8.570312 64.347656 8.539062 C 64.300781 8.507812 64.253906 8.476562 64.207031 8.445312 C 64.160156 8.414062 64.117188 8.382812 64.070312 8.355469 C 64.023438 8.324219 63.976562 8.292969 63.929688 8.261719 C 63.886719 8.230469 63.839844 8.199219 63.792969 8.171875 C 63.746094 8.140625 63.699219 8.109375 63.652344 8.078125 C 63.605469 8.046875 63.5625 8.015625 63.515625 7.988281 C 63.46875 7.957031 63.421875 7.925781 63.375 7.894531 C 63.328125 7.863281 63.285156 7.832031 63.238281 7.804688 C 63.191406 7.773438 63.144531 7.742188 63.097656 7.710938 C 63.050781 7.679688 63.007812 7.648438 62.960938 7.621094 C 62.914062 7.589844 62.867188 7.558594 62.820312 7.527344 C 62.773438 7.496094 62.730469 7.464844 62.683594 7.4375 C 62.636719 7.40625 62.589844 7.375 62.542969 7.34375 C 62.496094 7.3125 62.453125 7.28125 62.40625 7.253906 C 62.359375 7.222656 62.3125 7.191406 62.265625 7.160156 C 62.21875 7.128906 62.175781 7.097656 62.128906 7.070312 C 62.082031 7.039062 62.035156 7.007812 61.988281 6.976562 C 61.773438 6.824219 61.546875 6.699219 61.304688 6.609375 C 59.773438 6.042969 57.808594 6.449219 56.636719 7.574219 C 55.824219 8.351562 55.089844 9.28125 54.402344 10.40625 C 54.253906 10.328125 54.105469 10.25 53.960938 10.171875 L 47.484375 6.683594 C 45.980469 5.875 44.425781 5.035156 42.742188 4.488281 C 40.792969 3.851562 38.972656 3.710938 37.339844 4.078125 C 35.359375 4.519531 33.695312 5.757812 32.890625 7.386719 C 32.097656 8.988281 32.230469 10.945312 33.160156 12.324219 C 33.117188 12.296875 33.074219 12.269531 33.03125 12.242188 C 32.984375 12.210938 32.941406 12.179688 32.894531 12.148438 C 32.847656 12.117188 32.800781 12.085938 32.753906 12.058594 C 32.707031 12.027344 32.664062 11.996094 32.617188 11.964844 C 32.570312 11.933594 32.523438 11.902344 32.476562 11.875 C 32.429688 11.84375 32.386719 11.8125 32.339844 11.78125 C 32.292969 11.75 32.246094 11.71875 32.199219 11.691406 C 32.152344 11.660156 32.109375 11.628906 32.0625 11.597656 C 32.015625 11.566406 31.96875 11.535156 31.921875 11.507812 C 31.875 11.476562 31.832031 11.445312 31.785156 11.414062 C 31.738281 11.382812 31.691406 11.351562 31.644531 11.324219 C 31.597656 11.292969 31.554688 11.261719 31.507812 11.230469 C 31.460938 11.199219 31.414062 11.167969 31.367188 11.140625 C 31.320312 11.109375 31.277344 11.078125 31.230469 11.046875 C 31.183594 11.015625 31.136719 10.984375 31.089844 10.957031 C 31.042969 10.925781 31 10.894531 30.953125 10.863281 C 30.90625 10.832031 30.859375 10.800781 30.8125 10.773438 C 30.765625 10.742188 30.722656 10.710938 30.675781 10.679688 C 30.628906 10.648438 30.582031 10.617188 30.535156 10.589844 C 29.78125 10.078125 28.9375 9.828125 28.140625 9.886719 C 27.539062 9.933594 26.984375 10.164062 26.542969 10.519531 C 26.074219 10.097656 25.570312 9.714844 25.03125 9.378906 C 25.03125 9.378906 25.027344 9.378906 25.027344 9.378906 C 24.980469 9.351562 24.9375 9.316406 24.890625 9.289062 C 24.84375 9.257812 24.800781 9.226562 24.753906 9.195312 C 24.75 9.195312 24.75 9.195312 24.75 9.195312 C 24.703125 9.167969 24.660156 9.132812 24.613281 9.105469 C 24.566406 9.074219 24.523438 9.042969 24.476562 9.011719 C 24.472656 9.011719 24.472656 9.011719 24.472656 9.011719 C 24.425781 8.984375 24.382812 8.949219 24.335938 8.921875 C 24.289062 8.890625 24.246094 8.859375 24.195312 8.828125 C 24.148438 8.800781 24.105469 8.765625 24.058594 8.738281 C 24.011719 8.707031 23.964844 8.675781 23.917969 8.644531 C 23.871094 8.617188 23.828125 8.582031 23.78125 8.554688 C 23.734375 8.523438 23.6875 8.492188 23.640625 8.460938 C 23.59375 8.433594 23.550781 8.398438 23.503906 8.371094 C 23.457031 8.339844 23.410156 8.308594 23.363281 8.277344 C 23.316406 8.25 23.273438 8.214844 23.226562 8.1875 C 23.179688 8.15625 23.132812 8.125 23.085938 8.09375 C 23.039062 8.066406 22.996094 8.03125 22.949219 8.003906 C 22.902344 7.972656 22.855469 7.941406 22.808594 7.910156 C 22.761719 7.878906 22.71875 7.847656 22.671875 7.820312 C 22.625 7.789062 22.578125 7.757812 22.53125 7.726562 C 22.484375 7.695312 22.441406 7.664062 22.394531 7.636719 C 22.394531 7.636719 22.394531 7.636719 22.390625 7.636719 C 22.347656 7.605469 22.300781 7.574219 22.253906 7.542969 C 22.207031 7.511719 22.164062 7.480469 22.117188 7.453125 C 19.351562 5.746094 15.878906 5.378906 12.820312 6.46875 C 11.554688 6.921875 10.523438 7.5625 9.75 8.375 C 8.820312 9.355469 8.28125 10.613281 8.273438 11.832031 C 8.261719 13.226562 8.972656 14.570312 10.085938 15.246094 C 10.097656 15.253906 10.109375 15.257812 10.121094 15.261719 C 10.15625 15.285156 10.1875 15.316406 10.222656 15.335938 C 10.234375 15.34375 10.246094 15.347656 10.257812 15.355469 C 10.292969 15.378906 10.328125 15.40625 10.363281 15.429688 C 10.375 15.4375 10.386719 15.441406 10.398438 15.445312 C 10.433594 15.46875 10.464844 15.5 10.5 15.519531 C 10.511719 15.527344 10.523438 15.53125 10.535156 15.539062 C 10.570312 15.5625 10.601562 15.589844 10.640625 15.613281 C 10.652344 15.621094 10.664062 15.625 10.675781 15.628906 C 10.710938 15.652344 10.742188 15.683594 10.777344 15.703125 C 10.789062 15.710938 10.800781 15.714844 10.8125 15.722656 C 10.847656 15.746094 10.882812 15.773438 10.917969 15.796875 C 10.929688 15.804688 10.941406 15.808594 10.953125 15.8125 C 10.988281 15.835938 11.019531 15.867188 11.054688 15.886719 C 11.066406 15.894531 11.078125 15.898438 11.089844 15.90625 C 11.125 15.929688 11.160156 15.957031 11.195312 15.980469 C 11.207031 15.988281 11.21875 15.992188 11.230469 15.996094 C 11.265625 16.019531 11.296875 16.050781 11.332031 16.070312 C 11.34375 16.078125 11.355469 16.082031 11.367188 16.089844 C 11.402344 16.113281 11.4375 16.140625 11.472656 16.164062 C 11.484375 16.171875 11.496094 16.175781 11.507812 16.179688 C 11.542969 16.203125 11.574219 16.234375 11.609375 16.253906 C 11.621094 16.261719 11.632812 16.265625 11.644531 16.273438 C 11.679688 16.296875 11.714844 16.324219 11.75 16.347656 C 11.761719 16.355469 11.773438 16.359375 11.785156 16.363281 C 11.820312 16.386719 11.851562 16.417969 11.886719 16.4375 C 11.898438 16.445312 11.910156 16.449219 11.921875 16.457031 C 11.957031 16.480469 11.992188 16.507812 12.027344 16.53125 C 12.039062 16.539062 12.050781 16.542969 12.0625 16.546875 C 12.097656 16.570312 12.128906 16.601562 12.164062 16.621094 C 12.175781 16.628906 12.1875 16.632812 12.199219 16.640625 C 12.234375 16.664062 12.269531 16.691406 12.304688 16.714844 C 12.316406 16.722656 12.328125 16.726562 12.339844 16.730469 C 12.375 16.753906 12.40625 16.785156 12.441406 16.804688 C 12.453125 16.8125 12.464844 16.816406 12.476562 16.824219 C 12.511719 16.847656 12.546875 16.875 12.582031 16.898438 C 12.59375 16.90625 12.605469 16.910156 12.617188 16.914062 C 12.652344 16.9375 12.683594 16.96875 12.71875 16.988281 C 12.730469 16.996094 12.742188 17 12.753906 17.007812 C 12.789062 17.03125 12.824219 17.058594 12.859375 17.082031 C 12.871094 17.089844 12.882812 17.09375 12.894531 17.097656 C 12.929688 17.121094 12.960938 17.152344 12.996094 17.171875 C 13.117188 17.246094 13.242188 17.304688 13.371094 17.363281 L 13.265625 17.582031 C 12.507812 17.359375 11.839844 17.21875 11.199219 17.148438 C 9.632812 16.972656 8.203125 17.222656 7.0625 17.878906 C 5.664062 18.679688 4.765625 20.085938 4.71875 21.546875 C 4.675781 23.011719 5.519531 24.421875 6.816406 25.230469 C 6.859375 25.261719 6.90625 25.292969 6.953125 25.324219 C 7 25.355469 7.042969 25.386719 7.09375 25.414062 C 7.136719 25.445312 7.183594 25.476562 7.230469 25.507812 C 7.277344 25.539062 7.324219 25.570312 7.371094 25.597656 C 7.414062 25.628906 7.460938 25.660156 7.507812 25.691406 C 7.554688 25.722656 7.601562 25.753906 7.648438 25.78125 C 7.691406 25.8125 7.738281 25.84375 7.785156 25.875 C 7.832031 25.90625 7.878906 25.9375 7.925781 25.96875 C 7.96875 25.996094 8.015625 26.027344 8.0625 26.058594 C 8.109375 26.089844 8.15625 26.121094 8.203125 26.152344 C 8.246094 26.179688 8.292969 26.214844 8.339844 26.242188 C 8.386719 26.273438 8.433594 26.304688 8.480469 26.335938 C 8.527344 26.367188 8.570312 26.394531 8.617188 26.425781 C 8.664062 26.457031 8.710938 26.488281 8.757812 26.519531 C 8.804688 26.550781 8.847656 26.582031 8.894531 26.609375 C 8.941406 26.640625 8.988281 26.671875 9.035156 26.703125 C 9.082031 26.734375 9.125 26.765625 9.171875 26.792969 C 9.21875 26.824219 9.265625 26.855469 9.3125 26.886719 C 9.359375 26.917969 9.402344 26.949219 9.449219 26.976562 C 9.496094 27.007812 9.542969 27.039062 9.589844 27.070312 C 10.035156 27.371094 10.539062 27.601562 11.082031 27.738281 C 11.480469 27.835938 11.890625 27.882812 12.304688 27.882812 C 13.6875 27.882812 15.128906 27.351562 16.332031 26.363281 C 16.699219 26.058594 17.054688 25.710938 17.382812 25.320312 C 18.550781 25.925781 19.664062 26.320312 20.773438 26.527344 C 22.753906 26.898438 24.699219 26.632812 26.25 25.773438 C 26.914062 25.402344 27.519531 24.914062 28.046875 24.335938 C 28.0625 24.347656 28.082031 24.355469 28.097656 24.367188 C 28.140625 24.398438 28.1875 24.429688 28.238281 24.457031 C 28.28125 24.492188 28.328125 24.519531 28.375 24.550781 C 28.417969 24.582031 28.464844 24.613281 28.515625 24.640625 C 28.558594 24.675781 28.605469 24.703125 28.652344 24.734375 C 28.695312 24.765625 28.742188 24.796875 28.792969 24.824219 C 28.835938 24.859375 28.882812 24.886719 28.929688 24.917969 C 28.972656 24.949219 29.019531 24.980469 29.070312 25.007812 C 29.113281 25.042969 29.160156 25.070312 29.207031 25.101562 C 29.25 25.132812 29.300781 25.164062 29.347656 25.191406 C 29.699219 25.457031 30.140625 25.605469 30.589844 25.605469 C 30.792969 25.605469 31 25.574219 31.199219 25.511719 C 31.71875 25.347656 32.125 24.9375 32.390625 24.335938 C 32.433594 24.363281 32.476562 24.390625 32.519531 24.417969 C 32.566406 24.453125 32.613281 24.480469 32.660156 24.511719 C 32.703125 24.542969 32.75 24.574219 32.796875 24.601562 C 32.84375 24.636719 32.890625 24.664062 32.9375 24.695312 C 32.980469 24.726562 33.027344 24.757812 33.074219 24.785156 C 33.121094 24.820312 33.167969 24.847656 33.214844 24.878906 C 33.257812 24.910156 33.304688 24.941406 33.351562 24.96875 C 33.398438 25.003906 33.445312 25.03125 33.492188 25.0625 C 33.910156 25.363281 34.398438 25.570312 34.910156 25.648438 C 35.066406 25.671875 35.226562 25.683594 35.382812 25.683594 C 36.335938 25.683594 37.285156 25.253906 37.910156 24.542969 C 37.929688 24.550781 37.945312 24.5625 37.964844 24.570312 C 38.011719 24.601562 38.054688 24.636719 38.105469 24.664062 C 38.152344 24.695312 38.195312 24.726562 38.242188 24.753906 C 38.289062 24.785156 38.332031 24.820312 38.382812 24.847656 C 38.429688 24.878906 38.472656 24.910156 38.519531 24.9375 C 38.566406 24.96875 38.609375 25.003906 38.660156 25.03125 C 38.707031 25.0625 38.75 25.09375 38.796875 25.121094 C 38.84375 25.152344 38.886719 25.1875 38.9375 25.214844 C 39.363281 25.5 39.886719 25.65625 40.429688 25.65625 C 40.734375 25.65625 41.039062 25.613281 41.335938 25.515625 C 42.078125 25.277344 42.773438 24.753906 43.34375 23.996094 C 43.402344 23.914062 43.453125 23.835938 43.507812 23.757812 C 43.550781 23.789062 43.59375 23.8125 43.640625 23.84375 C 43.683594 23.875 43.730469 23.90625 43.777344 23.933594 C 43.824219 23.96875 43.871094 23.996094 43.917969 24.027344 C 43.960938 24.0625 44.007812 24.089844 44.054688 24.117188 C 44.101562 24.152344 44.148438 24.179688 44.195312 24.210938 C 44.238281 24.246094 44.285156 24.273438 44.332031 24.300781 C 44.378906 24.335938 44.425781 24.363281 44.472656 24.394531 C 44.515625 24.429688 44.5625 24.457031 44.609375 24.484375 C 44.65625 24.519531 44.703125 24.546875 44.75 24.578125 C 44.792969 24.613281 44.839844 24.640625 44.886719 24.667969 C 44.933594 24.703125 44.980469 24.730469 45.027344 24.761719 C 45.070312 24.796875 45.117188 24.824219 45.164062 24.851562 C 45.210938 24.886719 45.257812 24.914062 45.304688 24.945312 C 45.347656 24.980469 45.394531 25.007812 45.441406 25.039062 C 45.539062 25.109375 45.644531 25.179688 45.75 25.238281 C 46.183594 25.484375 46.679688 25.601562 47.191406 25.601562 C 47.953125 25.601562 48.742188 25.335938 49.402344 24.820312 C 49.601562 24.664062 49.789062 24.480469 49.964844 24.28125 C 49.96875 24.285156 49.96875 24.285156 49.972656 24.285156 C 50.015625 24.320312 50.066406 24.347656 50.109375 24.378906 C 50.15625 24.410156 50.203125 24.4375 50.25 24.46875 C 50.292969 24.503906 50.34375 24.53125 50.386719 24.5625 C 50.433594 24.59375 50.480469 24.621094 50.527344 24.652344 C 50.570312 24.6875 50.621094 24.714844 50.667969 24.746094 C 50.710938 24.777344 50.757812 24.804688 50.804688 24.835938 C 50.847656 24.871094 50.898438 24.898438 50.945312 24.929688 C 50.988281 24.960938 51.035156 24.988281 51.082031 25.019531 C 51.328125 25.214844 51.617188 25.359375 51.945312 25.445312 C 52.179688 25.507812 52.429688 25.539062 52.679688 25.539062 C 53.25 25.539062 53.828125 25.382812 54.304688 25.089844 C 54.960938 24.675781 55.4375 24.09375 55.8125 23.488281 C 55.828125 23.496094 55.84375 23.507812 55.859375 23.515625 C 55.90625 23.550781 55.953125 23.578125 56 23.609375 C 56.042969 23.640625 56.089844 23.667969 56.136719 23.699219 C 56.183594 23.734375 56.230469 23.761719 56.277344 23.792969 C 56.320312 23.824219 56.371094 23.851562 56.414062 23.882812 C 56.460938 23.917969 56.507812 23.945312 56.554688 23.976562 C 56.597656 24.007812 56.644531 24.035156 56.691406 24.066406 C 56.738281 24.101562 56.785156 24.128906 56.832031 24.160156 C 56.875 24.191406 56.925781 24.21875 56.96875 24.25 C 57.015625 24.285156 57.0625 24.3125 57.109375 24.34375 C 57.152344 24.375 57.203125 24.402344 57.246094 24.433594 C 57.292969 24.46875 57.339844 24.496094 57.386719 24.527344 C 57.429688 24.558594 57.480469 24.585938 57.523438 24.617188 C 57.570312 24.652344 57.617188 24.679688 57.664062 24.710938 C 57.707031 24.742188 57.757812 24.769531 57.800781 24.800781 C 58.421875 25.265625 59.179688 25.542969 59.957031 25.542969 C 60.007812 25.542969 60.054688 25.539062 60.105469 25.539062 C 61.078125 25.496094 61.992188 25.011719 62.632812 24.292969 C 62.65625 24.308594 62.679688 24.320312 62.703125 24.332031 C 62.75 24.367188 62.796875 24.394531 62.84375 24.425781 C 62.886719 24.457031 62.933594 24.488281 62.980469 24.515625 C 63.027344 24.550781 63.074219 24.578125 63.121094 24.609375 C 63.164062 24.640625 63.210938 24.671875 63.257812 24.699219 C 63.304688 24.734375 63.351562 24.761719 63.398438 24.792969 C 63.441406 24.824219 63.488281 24.855469 63.535156 24.882812 C 63.582031 24.917969 63.628906 24.945312 63.675781 24.976562 C 63.71875 25.007812 63.765625 25.039062 63.8125 25.066406 C 64.230469 25.367188 64.773438 25.539062 65.378906 25.542969 C 65.378906 25.542969 65.382812 25.542969 65.386719 25.542969 C 65.980469 25.542969 66.519531 25.390625 66.945312 25.109375 C 67.5 24.742188 67.851562 24.15625 67.882812 23.542969 C 67.898438 23.265625 67.746094 23.019531 67.507812 22.894531 C 67.464844 22.855469 67.417969 22.828125 67.367188 22.800781 C 67.328125 22.765625 67.28125 22.738281 67.230469 22.710938 C 67.1875 22.671875 67.140625 22.644531 67.089844 22.617188 C 67.050781 22.582031 67.003906 22.550781 66.953125 22.527344 C 66.949219 22.523438 66.949219 22.519531 66.945312 22.519531 Z M 52.285156 14.359375 C 52.242188 14.320312 52.195312 14.289062 52.148438 14.265625 C 52.050781 14.183594 51.9375 14.128906 51.8125 14.105469 C 51.195312 14 50.398438 13.960938 49.453125 14 C 49.15625 14.011719 48.898438 14.207031 48.8125 14.492188 C 48.800781 14.527344 48.792969 14.5625 48.78125 14.597656 C 48.738281 14.566406 48.695312 14.539062 48.652344 14.511719 C 48.605469 14.476562 48.558594 14.445312 48.511719 14.417969 C 48.464844 14.386719 48.421875 14.355469 48.375 14.328125 C 48.328125 14.292969 48.28125 14.261719 48.234375 14.234375 C 48.1875 14.203125 48.140625 14.171875 48.097656 14.144531 C 48.050781 14.109375 48.003906 14.078125 47.957031 14.050781 C 47.910156 14.015625 47.867188 13.988281 47.820312 13.960938 C 47.53125 13.75 47.230469 13.648438 46.984375 13.605469 C 45.824219 13.40625 44.480469 14.199219 43.609375 15.003906 C 43.566406 14.972656 43.519531 14.945312 43.476562 14.917969 C 43.429688 14.882812 43.382812 14.855469 43.335938 14.824219 C 43.292969 14.792969 43.246094 14.761719 43.199219 14.734375 C 43.152344 14.699219 43.105469 14.671875 43.058594 14.640625 C 43.015625 14.609375 42.96875 14.578125 42.921875 14.550781 C 42.875 14.515625 42.828125 14.488281 42.78125 14.457031 C 42.738281 14.425781 42.691406 14.394531 42.644531 14.367188 C 42.597656 14.332031 42.550781 14.304688 42.503906 14.273438 C 42.460938 14.242188 42.414062 14.210938 42.367188 14.183594 C 42.328125 14.15625 42.292969 14.132812 42.253906 14.105469 C 42.222656 14.046875 42.1875 13.984375 42.136719 13.929688 C 41.839844 13.632812 41.816406 12.765625 42.09375 12.300781 C 42.371094 11.839844 42.921875 11.5 43.597656 11.371094 C 44.296875 11.234375 45.046875 11.324219 45.753906 11.4375 C 47.933594 11.789062 50.042969 12.460938 52.023438 13.433594 C 52.242188 13.542969 52.460938 13.65625 52.679688 13.769531 C 52.582031 13.984375 52.484375 14.203125 52.390625 14.421875 C 52.355469 14.398438 52.324219 14.375 52.285156 14.359375 Z M 52.285156 14.359375 " fill-opacity="1" fill-rule="nonzero"></path></g><path fill="#ff5542" d="M 21.75 8.046875 C 19.183594 6.464844 15.894531 6.117188 13.054688 7.128906 C 12.011719 7.5 11.015625 8.054688 10.253906 8.859375 C 9.492188 9.660156 8.980469 10.730469 8.96875 11.835938 C 8.960938 12.945312 9.503906 14.074219 10.449219 14.648438 C 11.367188 15.207031 12.613281 15.175781 13.503906 14.566406 C 14.394531 13.960938 14.878906 12.8125 14.695312 11.75 C 13.921875 11.671875 13.273438 10.828125 13.46875 10.074219 C 13.667969 9.316406 14.355469 8.777344 15.085938 8.507812 C 16.21875 8.089844 17.492188 8.230469 18.585938 8.761719 C 17.949219 9.390625 17.507812 10.265625 17.117188 11.09375 C 15.957031 13.539062 14.796875 15.984375 13.636719 18.433594 C 12.816406 18.160156 11.980469 17.941406 11.121094 17.84375 C 9.851562 17.699219 8.519531 17.851562 7.410156 18.484375 C 6.300781 19.121094 5.457031 20.289062 5.417969 21.566406 C 5.367188 23.230469 6.726562 24.734375 8.335938 25.128906 C 9.949219 25.523438 11.691406 24.945312 12.976562 23.894531 C 13.472656 23.488281 13.90625 23.015625 14.289062 22.503906 C 15.449219 23.152344 16.683594 23.667969 17.988281 23.914062 C 19.679688 24.230469 21.492188 24.066406 22.996094 23.234375 C 24.320312 22.5 25.347656 21.269531 25.933594 19.871094 C 26.515625 18.472656 26.675781 16.914062 26.484375 15.410156 C 26.109375 12.414062 24.316406 9.628906 21.75 8.046875 Z M 12.152344 21.203125 C 11.753906 21.691406 11.214844 22.085938 10.59375 22.183594 C 10.167969 22.25 9.636719 22.101562 9.523438 21.683594 C 9.445312 21.398438 9.601562 21.089844 9.84375 20.921875 C 10.085938 20.753906 10.394531 20.710938 10.6875 20.726562 C 11.210938 20.753906 11.695312 20.941406 12.160156 21.195312 C 12.15625 21.199219 12.15625 21.199219 12.152344 21.203125 Z M 21.414062 17.289062 C 20.929688 18.332031 20.023438 19.210938 18.910156 19.503906 C 17.945312 19.757812 16.953125 19.566406 15.988281 19.261719 C 16.503906 17.898438 16.886719 16.484375 17.363281 15.105469 C 18.023438 13.214844 18.867188 11.386719 19.875 9.652344 C 21.03125 10.75 21.683594 12.320312 21.867188 13.90625 C 22 15.050781 21.902344 16.246094 21.414062 17.289062 Z M 21.414062 17.289062 " fill-opacity="1" fill-rule="nonzero"></path><path fill="#ff5542" d="M 30.003906 16.210938 C 30.339844 15.703125 30.464844 14.605469 29.765625 14.335938 C 29.195312 14.113281 28.289062 14.5 28.03125 15.03125 C 27.78125 15.550781 27.980469 16.246094 28.472656 16.546875 C 28.964844 16.84375 29.683594 16.6875 30.003906 16.210938 Z M 30.003906 16.210938 " fill-opacity="1" fill-rule="nonzero"></path><path fill="#ff5542" d="M 29.585938 17.40625 C 28.976562 17.769531 28.109375 17.617188 27.664062 17.066406 C 27.320312 18.195312 26.921875 19.359375 26.582031 20.488281 C 26.394531 21.105469 26.21875 21.808594 26.542969 22.363281 C 26.835938 22.875 27.515625 23.09375 28.078125 22.914062 C 28.636719 22.738281 28.914062 22.097656 29.035156 21.523438 C 28.855469 21.53125 28.707031 21.363281 28.671875 21.1875 C 28.636719 21.007812 28.6875 20.828125 28.738281 20.652344 C 29.042969 19.597656 29.277344 18.464844 29.585938 17.40625 Z M 29.585938 17.40625 " fill-opacity="1" fill-rule="nonzero"></path><path fill="#ff5542" d="M 33.945312 18.15625 C 33.808594 17.988281 33.679688 17.808594 33.574219 17.617188 C 33.585938 17.621094 33.59375 17.625 33.605469 17.628906 C 34.558594 18 35.777344 17.523438 36.183594 16.582031 C 36.59375 15.640625 36.070312 14.394531 35.097656 14.066406 C 34.523438 13.875 33.886719 13.988281 33.320312 14.210938 C 33.105469 14.296875 32.898438 14.402344 32.699219 14.523438 C 32.554688 14.285156 32.417969 14.042969 32.277344 13.804688 C 31.816406 13.007812 31.339844 12.210938 30.667969 11.582031 C 30 10.957031 29.105469 10.511719 28.191406 10.582031 C 27.277344 10.652344 26.386719 11.335938 26.269531 12.246094 C 26.148438 13.15625 27.070312 14.15625 27.96875 13.980469 C 27.941406 13.710938 28.148438 13.457031 28.402344 13.359375 C 28.65625 13.265625 28.941406 13.300781 29.203125 13.375 C 30.167969 13.65625 30.902344 14.441406 31.460938 15.277344 C 31.519531 15.367188 31.582031 15.457031 31.640625 15.550781 C 31.628906 15.570312 31.613281 15.59375 31.601562 15.613281 C 31.234375 16.273438 31.1875 17.136719 31.597656 17.765625 C 31.855469 18.15625 32.253906 18.425781 32.589844 18.75 C 32.925781 19.070312 33.222656 19.503906 33.167969 19.96875 C 33.125 20.308594 32.875 20.621094 32.542969 20.695312 C 32.210938 20.773438 31.828125 20.582031 31.71875 20.257812 C 31.613281 19.933594 31.832031 19.53125 32.167969 19.480469 C 31.804688 18.871094 30.777344 18.8125 30.289062 19.324219 C 29.796875 19.832031 29.75 20.648438 30 21.3125 C 30.332031 22.203125 31.164062 22.886719 32.105469 23.027344 C 33.042969 23.171875 34.046875 22.761719 34.605469 21.996094 C 35.167969 21.226562 35.253906 20.136719 34.804688 19.296875 C 34.582031 18.875 34.242188 18.527344 33.945312 18.15625 Z M 33.984375 15.726562 C 34.148438 15.671875 34.34375 15.675781 34.480469 15.78125 C 34.621094 15.886719 34.671875 16.105469 34.5625 16.238281 C 34.378906 16.457031 34.027344 16.273438 33.828125 16.066406 C 33.777344 16.015625 33.730469 15.960938 33.679688 15.90625 C 33.769531 15.824219 33.871094 15.761719 33.984375 15.726562 Z M 33.984375 15.726562 " fill-opacity="1" fill-rule="nonzero"></path><path fill="#ff5542" d="M 39.417969 18.199219 C 39.878906 18.425781 40.433594 18.375 40.917969 18.207031 C 41.511719 18.003906 42.054688 17.617188 42.371094 17.074219 C 42.683594 16.53125 42.738281 15.824219 42.433594 15.273438 C 42.0625 14.613281 41.253906 14.300781 40.5 14.304688 C 39.253906 14.3125 38.089844 15.039062 37.316406 16.015625 C 36.542969 16.988281 36.109375 18.191406 35.796875 19.398438 C 35.65625 19.941406 35.539062 20.496094 35.570312 21.054688 C 35.601562 21.613281 35.800781 22.183594 36.214844 22.5625 C 36.734375 23.042969 37.535156 23.140625 38.210938 22.921875 C 38.886719 22.707031 39.445312 22.214844 39.875 21.648438 C 40.269531 21.117188 40.578125 20.425781 40.339844 19.808594 C 40.074219 20.066406 39.777344 20.289062 39.4375 20.445312 C 39.101562 20.597656 38.675781 20.621094 38.375 20.402344 C 38.152344 20.242188 38.023438 19.972656 37.976562 19.703125 C 37.929688 19.429688 37.953125 19.152344 37.976562 18.878906 C 38.035156 18.207031 38.335938 17.378906 38.832031 16.921875 C 38.648438 17.402344 38.960938 17.96875 39.417969 18.199219 Z M 39.417969 18.199219 " fill-opacity="1" fill-rule="nonzero"></path><path fill="#ff5542" d="M 47.898438 15.140625 C 47.039062 13.363281 44.890625 14.710938 43.929688 15.660156 C 43.15625 16.425781 42.605469 17.398438 42.25 18.429688 C 41.992188 19.175781 41.832031 19.980469 41.949219 20.765625 C 42.0625 21.546875 42.488281 22.3125 43.179688 22.703125 C 44.074219 23.207031 45.25 22.976562 46.0625 22.34375 C 46.871094 21.710938 47.363281 20.753906 47.679688 19.773438 C 48.027344 18.691406 48.1875 17.546875 48.148438 16.414062 C 48.136719 15.976562 48.089844 15.535156 47.898438 15.140625 Z M 46.453125 17.261719 C 46.351562 17.6875 46.128906 18.078125 45.871094 18.433594 C 45.71875 18.644531 45.542969 18.851562 45.304688 18.957031 C 45.066406 19.058594 44.753906 19.027344 44.59375 18.824219 C 44.433594 18.613281 44.480469 18.316406 44.539062 18.058594 C 44.652344 17.578125 44.773438 17.085938 45.046875 16.671875 C 45.230469 16.394531 45.839844 15.769531 46.238281 15.957031 C 46.613281 16.132812 46.527344 16.945312 46.453125 17.261719 Z M 46.453125 17.261719 " fill-opacity="1" fill-rule="nonzero"></path><path fill="#ff5542" d="M 62.585938 8.914062 C 62.335938 8.183594 61.789062 7.535156 61.0625 7.265625 C 59.777344 6.792969 58.109375 7.128906 57.121094 8.078125 C 56.128906 9.027344 55.347656 10.128906 54.671875 11.324219 C 54.316406 11.152344 53.96875 10.96875 53.628906 10.785156 C 51.472656 9.625 49.3125 8.460938 47.15625 7.300781 C 45.65625 6.492188 44.144531 5.679688 42.527344 5.152344 C 40.90625 4.621094 39.15625 4.386719 37.492188 4.757812 C 35.832031 5.132812 34.269531 6.167969 33.515625 7.695312 C 32.757812 9.222656 32.945312 11.242188 34.152344 12.445312 C 35.359375 13.648438 37.570312 13.746094 38.730469 12.496094 C 38.160156 11.929688 38.167969 10.703125 38.582031 10.011719 C 38.996094 9.324219 39.765625 8.90625 40.554688 8.753906 C 41.34375 8.601562 42.15625 8.691406 42.949219 8.816406 C 45.191406 9.183594 47.378906 9.878906 49.417969 10.878906 C 50.714844 11.515625 51.949219 12.269531 53.25 12.898438 C 53.414062 12.976562 53.578125 13.050781 53.742188 13.125 C 52.671875 15.382812 51.757812 17.863281 50.417969 20.265625 C 50.769531 18.453125 51.34375 16.605469 51.695312 14.792969 C 51.011719 14.675781 50.171875 14.671875 49.480469 14.695312 C 48.925781 16.507812 48.476562 18.347656 48.128906 20.210938 C 48.011719 20.84375 47.914062 21.535156 48.21875 22.101562 C 48.726562 23.035156 50.121094 23.128906 51.019531 22.566406 C 51.921875 22.007812 52.445312 21.011719 52.925781 20.066406 C 53.964844 18.015625 55.003906 15.964844 56.042969 13.917969 C 56.484375 14.015625 56.929688 14.082031 57.382812 14.105469 C 58.824219 14.183594 60.332031 13.800781 61.410156 12.839844 C 62.492188 11.875 63.050781 10.285156 62.585938 8.914062 Z M 58.28125 12.03125 C 57.84375 12.121094 57.410156 12.128906 56.980469 12.078125 C 57.054688 11.925781 57.132812 11.773438 57.207031 11.621094 C 57.429688 11.1875 57.671875 10.730469 58.09375 10.484375 C 58.515625 10.238281 59.167969 10.328125 59.34375 10.785156 C 59.570312 11.367188 58.890625 11.902344 58.28125 12.03125 Z M 58.28125 12.03125 " fill-opacity="1" fill-rule="nonzero"></path><path fill="#ff5542" d="M 57.480469 14.800781 C 56.394531 15.203125 55.609375 16.15625 55.023438 17.148438 C 54.363281 18.269531 53.875 19.617188 54.257812 20.863281 C 54.632812 22.082031 55.886719 22.96875 57.160156 22.914062 C 58.433594 22.855469 59.609375 21.859375 59.871094 20.613281 C 59.378906 20.84375 58.628906 21.039062 58.085938 21.089844 C 57.773438 21.121094 57.449219 21.117188 57.148438 21.011719 C 56.851562 20.910156 56.578125 20.695312 56.464844 20.398438 C 56.355469 20.105469 56.421875 19.78125 56.679688 19.597656 C 57.289062 20.078125 58.183594 20.085938 58.875 19.738281 C 59.570312 19.390625 60.070312 18.734375 60.378906 18.023438 C 60.6875 17.3125 60.816406 16.472656 60.480469 15.777344 C 59.976562 14.738281 58.5625 14.402344 57.480469 14.800781 Z M 57.828125 18.46875 C 57.71875 18.566406 57.597656 18.660156 57.453125 18.699219 C 57.3125 18.738281 57.140625 18.707031 57.046875 18.589844 C 56.941406 18.457031 56.972656 18.265625 57.011719 18.097656 C 57.128906 17.597656 57.300781 17.097656 57.636719 16.710938 C 57.972656 16.316406 59.058594 15.804688 59.03125 16.722656 C 59.015625 17.316406 58.242188 18.105469 57.828125 18.46875 Z M 57.828125 18.46875 " fill-opacity="1" fill-rule="nonzero"></path><path fill="#ff5542" d="M 64.566406 17.378906 C 64.695312 17.058594 64.828125 16.726562 64.828125 16.378906 C 64.828125 16.03125 64.667969 15.664062 64.355469 15.519531 C 63.886719 15.300781 63.230469 15.628906 62.867188 15.261719 C 62.5625 14.957031 62.738281 14.445312 62.941406 14.066406 C 63.140625 13.691406 63.355469 13.207031 63.101562 12.863281 C 62.84375 12.519531 62.410156 12.53125 62.082031 12.800781 C 61.617188 13.183594 61.132812 13.589844 60.910156 14.148438 C 60.683594 14.703125 60.824219 15.457031 61.367188 15.71875 C 61.578125 15.824219 61.832031 15.839844 62.027344 15.972656 C 62.320312 16.167969 62.410156 16.570312 62.34375 16.914062 C 62.277344 17.257812 62.085938 17.5625 61.917969 17.867188 C 61.433594 18.734375 61.078125 19.667969 60.867188 20.636719 C 60.75 21.160156 60.683594 21.746094 60.960938 22.207031 C 61.261719 22.703125 61.886719 22.914062 62.46875 22.914062 C 62.882812 22.917969 63.304688 22.828125 63.648438 22.597656 C 63.996094 22.371094 64.25 21.992188 64.273438 21.578125 C 64.101562 21.828125 63.273438 21.730469 63.167969 21.441406 C 63.066406 21.15625 63.179688 20.839844 63.292969 20.558594 C 63.71875 19.5 64.144531 18.4375 64.566406 17.378906 Z M 64.566406 17.378906 " fill-opacity="1" fill-rule="nonzero"></path></svg>