<svg xmlns="http://www.w3.org/2000/svg" width="814.814" height="688.498" viewBox="0 0 814.814 688.498"><g transform="translate(-17.64 -53.728)" opacity="0.147"><g transform="translate(17.795 53.899)"><line y2="129.288" transform="translate(376.33 148.248)" fill="none" stroke="#fff" stroke-linecap="round" stroke-linejoin="round" stroke-width="0.5"></line><path d="M184.219,237.784l84.3,8.22,139.788-17.852" transform="translate(107.808 77.612)" fill="none" stroke="#fff" stroke-linecap="round" stroke-linejoin="round" stroke-width="0.5"></path><line y2="179.919" transform="translate(376.33 323.616)" fill="none" stroke="#fff" stroke-linecap="round" stroke-linejoin="round" stroke-width="0.5"></line><line x1="22.876" y1="2.542" transform="translate(376.33 464.072)" fill="none" stroke="#fff" stroke-linecap="round" stroke-linejoin="round" stroke-width="0.5"></line><path d="M309,151.1,130.589,219.78V444.609L309,473.308" transform="translate(67.332 19.463)" fill="none" stroke="#fff" stroke-linecap="round" stroke-linejoin="round" stroke-width="0.5"></path><path d="M311.927,564.839l199.732-52.652V219.743l-199.732-115.6Z" transform="translate(204.191 -15.982)" fill="none" stroke="#fff" stroke-linecap="round" stroke-linejoin="round" stroke-width="0.5"></path><path d="M523.345,311.243,323.613,339.286l-27.169-3.019" transform="translate(192.505 140.322)" fill="none" stroke="#fff" stroke-linecap="round" stroke-linejoin="round" stroke-width="0.5"></path><path d="M234.2,168.159l-4.5-6.125,144.289-63.1L579.88,220.246l-6.161,3.426-199.732-115.6Z" transform="translate(142.132 -19.911)" fill="none" stroke="#fff" stroke-linecap="round" stroke-linejoin="round" stroke-width="0.5"></path><line y2="9.135" transform="translate(516.118 79.022)" fill="none" stroke="#fff" stroke-linecap="round" stroke-linejoin="round" stroke-width="0.5"></line><path d="M408.311,222.511l-73.519-18.194L184.219,235.206v20.566L334.493,232.8l73.817,13.335Z" transform="translate(107.808 59.624)" fill="none" stroke="#fff" stroke-linecap="round" stroke-linejoin="round" stroke-width="0.5"></path><line x1="0.298" y2="28.487" transform="translate(442.301 263.941)" fill="none" stroke="#fff" stroke-linecap="round" stroke-linejoin="round" stroke-width="0.5"></line><line x1="178.409" y1="16.677" transform="translate(197.921 441.074)" fill="none" stroke="#fff" stroke-linecap="round" stroke-linejoin="round" stroke-width="0.5"></line><path d="M232.263,340.86" transform="translate(144.067 162.674)" fill="none" stroke="#fff" stroke-linecap="round" stroke-linejoin="round" stroke-width="0.5"></path><path d="M232.263,138.385" transform="translate(144.067 9.864)" fill="none" stroke="#fff" stroke-linecap="round" stroke-linejoin="round" stroke-width="0.5"></path><path d="M335.043,419.636V253.183L245.3,258.406v145.55Z" transform="translate(153.906 96.503)" fill="none" stroke="#fff" stroke-linecap="round" stroke-linejoin="round" stroke-width="0.5"></path><path d="M360.532,446.451,299.09,462.169l-87.564-21.863v-14.63l27.984-4.189V408.175l35.013-5.463V259.357l86.01-5.3" transform="translate(128.417 97.166)" fill="none" stroke="#fff" stroke-linecap="round" stroke-linejoin="round" stroke-width="0.5"></path><path d="M227.474,341.889l90.86,17.129,30.163-6.33v27.478l27.169,5.239" transform="translate(140.453 163.451)" fill="none" stroke="#fff" stroke-linecap="round" stroke-linejoin="round" stroke-width="0.5"></path><path d="M318.334,353.293V367.67l-90.86-18.194" transform="translate(140.453 169.177)" fill="none" stroke="#fff" stroke-linecap="round" stroke-linejoin="round" stroke-width="0.5"></path><path d="M330.37,365.868l-31.28,5.488-87.564-19.493" transform="translate(128.417 170.979)" fill="none" stroke="#fff" stroke-linecap="round" stroke-linejoin="round" stroke-width="0.5"></path><line y2="37.608" transform="translate(427.507 532.589)" fill="none" stroke="#fff" stroke-linecap="round" stroke-linejoin="round" stroke-width="0.5"></line><line x2="3.733" y2="1.613" transform="translate(399.206 354.91)" fill="none" stroke="#fff" stroke-linecap="round" stroke-linejoin="round" stroke-width="0.5"></line><path d="M253,263.895l64.664-2.549v23.222H253Z" transform="translate(159.718 102.664)" fill="none" stroke="#fff" stroke-linecap="round" stroke-linejoin="round" stroke-width="0.5"></path><path d="M253,281.531v18.69l64.664,1.917V282.2Z" transform="translate(159.718 117.898)" fill="none" stroke="#fff" stroke-linecap="round" stroke-linejoin="round" stroke-width="0.5"></path><path d="M281.253,232.614c0,2.465-11.916,4.464-26.615,4.464s-26.616-2-26.616-4.464,11.916-4.462,26.616-4.462S281.253,230.151,281.253,232.614Z" transform="translate(140.866 77.612)" fill="none" stroke="#fff" stroke-linecap="round" stroke-linejoin="round" stroke-width="0.5"></path><path d="M299.291,279.847l17.294-.516v23.946l-17.294-.5Z" transform="translate(194.654 116.238)" fill="none" stroke="#fff" stroke-linecap="round" stroke-linejoin="round" stroke-width="0.5"></path><path d="M301.412,281.864v5.516l10.086-.2v-5.656Z" transform="translate(196.255 117.892)" fill="none" stroke="#fff" stroke-linecap="round" stroke-linejoin="round" stroke-width="0.5"></path><line x1="10.302" transform="translate(497.666 408.805)" fill="none" stroke="#fff" stroke-linecap="round" stroke-linejoin="round" stroke-width="0.5"></line><line x1="10.086" transform="translate(497.666 412.152)" fill="none" stroke="#fff" stroke-linecap="round" stroke-linejoin="round" stroke-width="0.5"></line><line x1="10.086" y1="0.184" transform="translate(497.666 415.1)" fill="none" stroke="#fff" stroke-linecap="round" stroke-linejoin="round" stroke-width="0.5"></line><path d="M344.944,247.758V346.1l105.005-6.659V262.5Z" transform="translate(229.109 92.409)" fill="none" stroke="#fff" stroke-linecap="round" stroke-linejoin="round" stroke-width="0.5"></path><path d="M344.944,338.28l99.883-5.378V255.75" transform="translate(229.109 98.44)" fill="none" stroke="#fff" stroke-linecap="round" stroke-linejoin="round" stroke-width="0.5"></path><line x2="5.122" y2="0.512" transform="translate(673.936 431.342)" fill="none" stroke="#fff" stroke-linecap="round" stroke-linejoin="round" stroke-width="0.5"></line><line y2="85.484" transform="translate(631.042 348.168)" fill="none" stroke="#fff" stroke-linecap="round" stroke-linejoin="round" stroke-width="0.5"></line><line y1="85.015" transform="translate(633.511 348.503)" fill="none" stroke="#fff" stroke-linecap="round" stroke-linejoin="round" stroke-width="0.5"></line><path d="M449.949,283.8,344.944,258.008V154.3l105.005,48.493Z" transform="translate(229.109 21.873)" fill="none" stroke="#fff" stroke-linecap="round" stroke-linejoin="round" stroke-width="0.5"></path><path d="M444.827,280.014V201.542l-99.883-43.9" transform="translate(229.109 24.398)" fill="none" stroke="#fff" stroke-linecap="round" stroke-linejoin="round" stroke-width="0.5"></path><line y1="1.276" x2="5.122" transform="translate(673.936 224.664)" fill="none" stroke="#fff" stroke-linecap="round" stroke-linejoin="round" stroke-width="0.5"></line><line y1="86.311" transform="translate(633.511 208.173)" fill="none" stroke="#fff" stroke-linecap="round" stroke-linejoin="round" stroke-width="0.5"></line><line y1="86.789" transform="translate(631.042 207.089)" fill="none" stroke="#fff" stroke-linecap="round" stroke-linejoin="round" stroke-width="0.5"></line><path d="M359.555,131.342V117.949l-80.79-44.212-70.524,41.856v8.586l26.25,10.341v75.695" transform="translate(125.937 -38.927)" fill="none" stroke="#fff" stroke-linecap="round" stroke-linejoin="round" stroke-width="0.5"></path><path d="M229.962,182.981V106.337l-6.761,3.58" transform="translate(137.227 -14.324)" fill="none" stroke="#fff" stroke-linecap="round" stroke-linejoin="round" stroke-width="0.5"></path><line x2="52.102" y2="22.67" transform="translate(367.189 92.013)" fill="none" stroke="#fff" stroke-linecap="round" stroke-linejoin="round" stroke-width="0.5"></line><path d="M256.746,149.5V92.9l9.29-4.862v57.4" transform="translate(162.545 -28.135)" fill="none" stroke="#fff" stroke-linecap="round" stroke-linejoin="round" stroke-width="0.5"></path><path d="M302.643,93.779,278.792,80.427l-70.551,38.7" transform="translate(125.937 -33.878)" fill="none" stroke="#fff" stroke-linecap="round" stroke-linejoin="round" stroke-width="0.5"></path><line x2="0.027" y2="11.74" transform="translate(404.702 34.81)" fill="none" stroke="#fff" stroke-linecap="round" stroke-linejoin="round" stroke-width="0.5"></line><path d="M257.665,254.859v75.058L144.2,325v-59.59Z" transform="translate(77.607 97.768)" fill="none" stroke="#fff" stroke-linecap="round" stroke-linejoin="round" stroke-width="0.5"></path><path d="M144.2,264.811l3.851,1,109.611-10.154" transform="translate(77.607 98.371)" fill="none" stroke="#fff" stroke-linecap="round" stroke-linejoin="round" stroke-width="0.5"></path><line y2="58.756" transform="translate(225.662 364.182)" fill="none" stroke="#fff" stroke-linecap="round" stroke-linejoin="round" stroke-width="0.5"></line><line y2="65.544" transform="translate(275.596 359.556)" fill="none" stroke="#fff" stroke-linecap="round" stroke-linejoin="round" stroke-width="0.5"></line><line y2="65.182" transform="translate(272.936 359.803)" fill="none" stroke="#fff" stroke-linecap="round" stroke-linejoin="round" stroke-width="0.5"></line><path d="M144.2,267.149V212.807l113.462-39.595v68.825Z" transform="translate(77.607 36.148)" fill="none" stroke="#fff" stroke-linecap="round" stroke-linejoin="round" stroke-width="0.5"></path><line y1="58.145" transform="translate(275.596 233.247)" fill="none" stroke="#fff" stroke-linecap="round" stroke-linejoin="round" stroke-width="0.5"></line><line y1="57.826" transform="translate(272.936 234.155)" fill="none" stroke="#fff" stroke-linecap="round" stroke-linejoin="round" stroke-width="0.5"></line><path d="M256.239,175.225,146.094,212.8v52.1" transform="translate(79.034 37.667)" fill="none" stroke="#fff" stroke-linecap="round" stroke-linejoin="round" stroke-width="0.5"></path><path d="M311.008,147.989,127.925,219.222l4.673,2.91" transform="translate(65.322 17.112)" fill="none" stroke="#fff" stroke-linecap="round" stroke-linejoin="round" stroke-width="0.5"></path><line x2="3.317" y2="1.508" transform="translate(221.811 248.955)" fill="none" stroke="#fff" stroke-linecap="round" stroke-linejoin="round" stroke-width="0.5"></line><g transform="translate(398.339 143.257)"><path d="M244.806,158.938v80.834l33.852-7.628V146.13Z" transform="translate(-244.806 -127.548)" fill="none" stroke="#fff" stroke-linecap="round" stroke-linejoin="round" stroke-width="0.5"></path><path d="M312.369,135.54l-41.607,14.985v87.8l41.607-8.619Z" transform="translate(-225.216 -135.54)" fill="none" stroke="#fff" stroke-linecap="round" stroke-linejoin="round" stroke-width="0.5"></path></g><path d="M247.5,236.232V159.455l29.124-9.931" transform="translate(155.567 18.27)" fill="none" stroke="#fff" stroke-linecap="round" stroke-linejoin="round" stroke-width="0.5"></path><line x2="4.728" y2="3.077" transform="translate(398.339 174.647)" fill="none" stroke="#fff" stroke-linecap="round" stroke-linejoin="round" stroke-width="0.5"></line><path d="M270.762,147.79l6.719,3.311,34.888-11.937" transform="translate(173.123 10.452)" fill="none" stroke="#fff" stroke-linecap="round" stroke-linejoin="round" stroke-width="0.5"></path><line y2="83.001" transform="translate(450.604 161.554)" fill="none" stroke="#fff" stroke-linecap="round" stroke-linejoin="round" stroke-width="0.5"></line><path d="M722.008,350.5l86.577,7.33v16.493L513.91,504.117,33.214,345.11V331.891l170.865-13.52" transform="translate(-6.158 145.701)" fill="none" stroke="#fff" stroke-linecap="round" stroke-linejoin="round" stroke-width="0.5"></path><path d="M808.585,352.018,513.91,466.5l-480.7-140.42" transform="translate(-6.158 151.517)" fill="none" stroke="#fff" stroke-linecap="round" stroke-linejoin="round" stroke-width="0.5"></path><line y2="31.806" transform="translate(507.752 618.012)" fill="none" stroke="#fff" stroke-linecap="round" stroke-linejoin="round" stroke-width="0.5"></line><line y2="458.38" transform="translate(715.85 127.115)" fill="none" stroke="#fff" stroke-linecap="round" stroke-linejoin="round" stroke-width="0.25"></line><line x2="98.644" y2="8.336" transform="translate(715.85 496.205)" fill="none" stroke="#fff" stroke-linecap="round" stroke-linejoin="round" stroke-width="0.25"></line><line y2="39.817" transform="translate(802.427 492.771)" fill="none" stroke="#fff" stroke-linecap="round" stroke-linejoin="round" stroke-width="0.25"></line><line y1="142.91" x2="367.543" transform="translate(446.951 498.741)" fill="none" stroke="#fff" stroke-linecap="round" stroke-linejoin="round" stroke-width="0.25"></line><line y1="161.838" x2="367.543" transform="translate(446.951 514.753)" fill="none" stroke="#fff" stroke-linecap="round" stroke-linejoin="round" stroke-width="0.25"></line><line x2="568.68" y2="166.121" transform="translate(0 469.689)" fill="none" stroke="#fff" stroke-linecap="round" stroke-linejoin="round" stroke-width="0.25"></line><line x2="562.481" y2="186.06" transform="translate(2.388 482.652)" fill="none" stroke="#fff" stroke-linecap="round" stroke-linejoin="round" stroke-width="0.25"></line><line x2="478.969" y2="119.59" transform="translate(56.151 466.615)" fill="none" stroke="#fff" stroke-linecap="round" stroke-linejoin="round" stroke-width="0.25"></line><line y1="22.754" x2="88.945" transform="translate(414.741 539.847)" fill="none" stroke="#fff" stroke-linecap="round" stroke-linejoin="round" stroke-width="0.25"></line><line x2="273.797" y2="60.951" transform="translate(261.323 505.34)" fill="none" stroke="#fff" stroke-linecap="round" stroke-linejoin="round" stroke-width="0.25"></line><line y2="26.196" transform="translate(339.943 516.139)" fill="none" stroke="#fff" stroke-linecap="round" stroke-linejoin="round" stroke-width="0.25"></line><line y1="1.76" x2="11.758" transform="translate(328.184 522.842)" fill="none" stroke="#fff" stroke-linecap="round" stroke-linejoin="round" stroke-width="0.25"></line><line x1="11.758" y2="2.375" transform="translate(328.184 537.472)" fill="none" stroke="#fff" stroke-linecap="round" stroke-linejoin="round" stroke-width="0.25"></line><line x1="12.765" y2="2.24" transform="translate(414.741 542.335)" fill="none" stroke="#fff" stroke-linecap="round" stroke-linejoin="round" stroke-width="0.25"></line><line y2="95.85" transform="translate(507.752 592.352)" fill="none" stroke="#fff" stroke-linecap="round" stroke-linejoin="round" stroke-width="0.25"></line><line x2="292.193" y2="41.025" transform="translate(502.593 330.133)" fill="none" stroke="#fff" stroke-linecap="round" stroke-linejoin="round" stroke-width="0.25"></line><line y1="17.607" x2="277.65" transform="translate(502.593 425.438)" fill="none" stroke="#fff" stroke-linecap="round" stroke-linejoin="round" stroke-width="0.25"></line><line x2="401.543" y2="236.592" transform="translate(382.256 0.149)" fill="none" stroke="#fff" stroke-linecap="round" stroke-linejoin="round" stroke-width="0.25"></line><line y1="145.63" x2="333.004" transform="translate(363.808)" fill="none" stroke="#fff" stroke-linecap="round" stroke-linejoin="round" stroke-width="0.25"></line><line x1="525.79" y2="138.604" transform="translate(258.01 478.293)" fill="none" stroke="#fff" stroke-linecap="round" stroke-linejoin="round" stroke-width="0.25"></line><line y1="39.45" x2="280.982" transform="translate(502.817 442.026)" fill="none" stroke="#fff" stroke-linecap="round" stroke-linejoin="round" stroke-width="0.25"></line><line x2="36.747" y2="4.084" transform="translate(493.188 477.06)" fill="none" stroke="#fff" stroke-linecap="round" stroke-linejoin="round" stroke-width="0.25"></line><line x2="7.729" y2="0.859" transform="translate(369.424 463.305)" fill="none" stroke="#fff" stroke-linecap="round" stroke-linejoin="round" stroke-width="0.25"></line><line x2="410.664" y2="77.42" transform="translate(121.007 458.79)" fill="none" stroke="#fff" stroke-linecap="round" stroke-linejoin="round" stroke-width="0.25"></line><line x1="15.843" y2="3.325" transform="translate(446.951 521.628)" fill="none" stroke="#fff" stroke-linecap="round" stroke-linejoin="round" stroke-width="0.25"></line><line x1="27.732" y2="4.327" transform="translate(360.036 502.244)" fill="none" stroke="#fff" stroke-linecap="round" stroke-linejoin="round" stroke-width="0.25"></line><line x2="325.013" y2="150.095" transform="translate(458.787 122.94)" fill="none" stroke="#fff" stroke-linecap="round" stroke-linejoin="round" stroke-width="0.25"></line><line x2="12.067" y2="1.31" transform="translate(802.427 520.028)" fill="none" stroke="#fff" stroke-linecap="round" stroke-linejoin="round" stroke-width="0.25"></line><line x2="232.447" y2="44.824" transform="translate(497.2 545.208)" fill="none" stroke="#fff" stroke-linecap="round" stroke-linejoin="round" stroke-width="0.25"></line><line y1="20.89" x2="163.57" transform="translate(368.1 303.777)" fill="none" stroke="#fff" stroke-linecap="round" stroke-linejoin="round" stroke-width="0.25"></line><line x2="118.953" y2="21.489" transform="translate(412.718 287.084)" fill="none" stroke="#fff" stroke-linecap="round" stroke-linejoin="round" stroke-width="0.25"></line><line x2="66.63" y2="16.489" transform="translate(412.718 256.546)" fill="none" stroke="#fff" stroke-linecap="round" stroke-linejoin="round" stroke-width="0.25"></line><line y1="46.366" x2="226.02" transform="translate(267.168 253.563)" fill="none" stroke="#fff" stroke-linecap="round" stroke-linejoin="round" stroke-width="0.25"></line><line x1="226.02" y2="34.544" transform="translate(267.168 284.651)" fill="none" stroke="#fff" stroke-linecap="round" stroke-linejoin="round" stroke-width="0.25"></line><line x1="73.349" y1="7.152" transform="translate(284.787 314.69)" fill="none" stroke="#fff" stroke-linecap="round" stroke-linejoin="round" stroke-width="0.25"></line><line x1="7.238" y1="1.05" transform="translate(284.789 293.779)" fill="none" stroke="#fff" stroke-linecap="round" stroke-linejoin="round" stroke-width="0.25"></line><line y1="9.52" x2="163.57" transform="translate(368.1 347.2)" fill="none" stroke="#fff" stroke-linecap="round" stroke-linejoin="round" stroke-width="0.25"></line><line x2="160.51" y2="28.044" transform="translate(369.424 495.256)" fill="none" stroke="#fff" stroke-linecap="round" stroke-linejoin="round" stroke-width="0.25"></line><line y1="119.938" x2="333.004" transform="translate(363.808 67.146)" fill="none" stroke="#fff" stroke-linecap="round" stroke-linejoin="round" stroke-width="0.25"></line><line y1="78.753" x2="380.16" transform="translate(363.808 183.882)" fill="none" stroke="#fff" stroke-linecap="round" stroke-linejoin="round" stroke-width="0.25"></line><line x2="108.988" y2="60.245" transform="translate(390.005 26.686)" fill="none" stroke="#fff" stroke-linecap="round" stroke-linejoin="round" stroke-width="0.25"></line><line y1="98.37" x2="167.389" transform="translate(285.361 6.364)" fill="none" stroke="#fff" stroke-linecap="round" stroke-linejoin="round" stroke-width="0.25"></line><line y1="98.69" x2="179.902" transform="translate(284.787 13.657)" fill="none" stroke="#fff" stroke-linecap="round" stroke-linejoin="round" stroke-width="0.25"></line><line x1="131.401" y1="51.764" transform="translate(225.127 42.293)" fill="none" stroke="#fff" stroke-linecap="round" stroke-linejoin="round" stroke-width="0.25"></line><line x1="103.531" y1="43.785" transform="translate(230.647 32.881)" fill="none" stroke="#fff" stroke-linecap="round" stroke-linejoin="round" stroke-width="0.25"></line><line x2="389.71" y2="95.71" transform="translate(412.718 240.259)" fill="none" stroke="#fff" stroke-linecap="round" stroke-linejoin="round" stroke-width="0.25"></line><line y1="27.079" x2="291.1" transform="translate(85.23 348.808)" fill="none" stroke="#fff" stroke-linecap="round" stroke-linejoin="round" stroke-width="0.25"></line><line x2="268.449" y2="11.626" transform="translate(107.882 417.837)" fill="none" stroke="#fff" stroke-linecap="round" stroke-linejoin="round" stroke-width="0.25"></line><line x1="135.001" y1="13.876" transform="translate(106.458 431.268)" fill="none" stroke="#fff" stroke-linecap="round" stroke-linejoin="round" stroke-width="0.25"></line><line x1="155.084" y1="24.947" transform="translate(107.882 449.588)" fill="none" stroke="#fff" stroke-linecap="round" stroke-linejoin="round" stroke-width="0.25"></line><line x1="264.89" y2="103.063" transform="translate(98.918 169.972)" fill="none" stroke="#fff" stroke-linecap="round" stroke-linejoin="round" stroke-width="0.25"></line><line x1="62.819" y2="24.181" transform="translate(189.415 218.336)" fill="none" stroke="#fff" stroke-linecap="round" stroke-linejoin="round" stroke-width="0.25"></line><line y1="100.237" x2="287.236" transform="translate(89.094 195.032)" fill="none" stroke="#fff" stroke-linecap="round" stroke-linejoin="round" stroke-width="0.25"></line><line y1="63.573" x2="287.236" transform="translate(89.094 269.097)" fill="none" stroke="#fff" stroke-linecap="round" stroke-linejoin="round" stroke-width="0.25"></line><line x1="279.733" y2="95.417" transform="translate(96.598 198.887)" fill="none" stroke="#fff" stroke-linecap="round" stroke-linejoin="round" stroke-width="0.25"></line><line y2="44" transform="translate(442.301 256.328)" fill="none" stroke="#fff" stroke-linecap="round" stroke-linejoin="round" stroke-width="0.25"></line><line y2="29.663" transform="translate(292.027 290.317)" fill="none" stroke="#fff" stroke-linecap="round" stroke-linejoin="round" stroke-width="0.25"></line><line y1="21.961" transform="translate(399.206 346.612)" fill="none" stroke="#fff" stroke-linecap="round" stroke-linejoin="round" stroke-width="0.25"></line><line y1="22.924" transform="translate(488.949 340.166)" fill="none" stroke="#fff" stroke-linecap="round" stroke-linejoin="round" stroke-width="0.25"></line><line x2="430.978" y2="249.448" transform="translate(363.808)" fill="none" stroke="#fff" stroke-linecap="round" stroke-linejoin="round" stroke-width="0.25"></line><line y1="90.025" x2="209.421" transform="translate(506.429 2.297)" fill="none" stroke="#fff" stroke-linecap="round" stroke-linejoin="round" stroke-width="0.25"></line><line x1="36.895" y2="15.86" transform="translate(363.808 137.77)" fill="none" stroke="#fff" stroke-linecap="round" stroke-linejoin="round" stroke-width="0.25"></line><line y2="302.315" transform="translate(197.921 183.882)" fill="none" stroke="#fff" stroke-linecap="round" stroke-linejoin="round" stroke-width="0.25"></line><line y2="16.83" transform="translate(334.178 72.696)" fill="none" stroke="#fff" stroke-linecap="round" stroke-linejoin="round" stroke-width="0.25"></line><line y2="27.875" transform="translate(404.702 26.686)" fill="none" stroke="#fff" stroke-linecap="round" stroke-linejoin="round" stroke-width="0.25"></line><line x1="59.719" y2="4.726" transform="translate(0 475.008)" fill="none" stroke="#fff" stroke-linecap="round" stroke-linejoin="round" stroke-width="0.25"></line><line x1="27.056" y2="1.959" transform="translate(0 490.812)" fill="none" stroke="#fff" stroke-linecap="round" stroke-linejoin="round" stroke-width="0.25"></line><line y2="127.734" transform="translate(516.118 548.856)" fill="none" stroke="#fff" stroke-linecap="round" stroke-linejoin="round" stroke-width="0.25"></line><line y1="79.022" transform="translate(516.118)" fill="none" stroke="#fff" stroke-linecap="round" stroke-linejoin="round" stroke-width="0.25"></line><line y1="112.951" transform="translate(376.33 40.68)" fill="none" stroke="#fff" stroke-linecap="round" stroke-linejoin="round" stroke-width="0.25"></line></g><line y2="39.524" transform="translate(44.851 519.928)" fill="none" stroke="#fff" stroke-linecap="round" stroke-linejoin="round" stroke-width="0.25"></line></g></svg>