<svg xmlns="http://www.w3.org/2000/svg" xmlns:xlink="http://www.w3.org/1999/xlink" width="20.486" height="20.486" viewBox="0 0 20.486 20.486"><defs><clipPath id="a"><path d="M0-682.665H20.486v20.486H0Z"></path></clipPath></defs><g transform="translate(0 682.665)" clip-path="url(#a)"><g transform="translate(0.6 -682.065)"><path d="M-623.38-311.69a9.671,9.671,0,0,1-9.643,9.643,9.671,9.671,0,0,1-9.643-9.643,9.671,9.671,0,0,1,9.643-9.643A9.671,9.671,0,0,1-623.38-311.69Z" transform="translate(642.665 321.333)" fill="none" stroke="currentColor" stroke-miterlimit="10" stroke-width="1"></path></g><g transform="translate(5.442 -682.065)"><path d="M-310.4-311.69c0,5.3-2.15,9.643-4.8,9.643s-4.8-4.339-4.8-9.643,2.15-9.643,4.8-9.643S-310.4-316.993-310.4-311.69Z" transform="translate(319.999 321.333)" fill="none" stroke="currentColor" stroke-miterlimit="10" stroke-width="1"></path></g><g transform="translate(10.243 -682.065)"><path d="M0,0V19.285" fill="none" stroke="currentColor" stroke-miterlimit="10" stroke-width="1"></path></g><g transform="translate(0.6 -672.422)"><path d="M0,0H19.285" fill="none" stroke="currentColor" stroke-miterlimit="10" stroke-width="1"></path></g><g transform="translate(1.925 -667.621)"><path d="M-537.743,0h-16.636" transform="translate(554.379)" fill="none" stroke="currentColor" stroke-miterlimit="10" stroke-width="1"></path></g><g transform="translate(1.925 -677.263)"><path d="M0,0H16.636" fill="none" stroke="currentColor" stroke-miterlimit="10" stroke-width="1"></path></g></g></svg>