<svg xmlns="http://www.w3.org/2000/svg" width="50" height="50" viewBox="0 0 50 50"><defs xmlns="http://www.w3.org/2000/svg"><linearGradient gradientUnits="userSpaceOnUse" id="grad713131" x1="0%" y1="0%" x2="0%" y2="100%"><stop offset="0%" stop-color="#f42958"></stop><stop offset="100%" stop-color="#f42958"></stop></linearGradient></defs><path d="M0-46.875A24.07,24.07,0,0,0-9.717-44.9a25.5,25.5,0,0,0-7.935,5.371,25.5,25.5,0,0,0-5.371,7.935A24.07,24.07,0,0,0-25-21.875a24.07,24.07,0,0,0,1.978,9.717,25.5,25.5,0,0,0,5.371,7.935A25.5,25.5,0,0,0-9.717,1.147,24.07,24.07,0,0,0,0,3.125,24.07,24.07,0,0,0,9.717,1.147a25.5,25.5,0,0,0,7.935-5.371,25.5,25.5,0,0,0,5.371-7.935A24.07,24.07,0,0,0,25-21.875a24.07,24.07,0,0,0-1.978-9.717,25.5,25.5,0,0,0-5.371-7.935A25.5,25.5,0,0,0,9.717-44.9,24.07,24.07,0,0,0,0-46.875Zm0,47.9A22.579,22.579,0,0,1-8.96-.757,22.879,22.879,0,0,1-16.235-5.64a22.879,22.879,0,0,1-4.883-7.275,22.579,22.579,0,0,1-1.782-8.96,22.579,22.579,0,0,1,1.782-8.96,22.88,22.88,0,0,1,4.883-7.275A22.879,22.879,0,0,1-8.96-42.993,22.579,22.579,0,0,1,0-44.775a22.579,22.579,0,0,1,8.96,1.782,22.879,22.879,0,0,1,7.275,4.883,22.88,22.88,0,0,1,4.883,7.275,22.579,22.579,0,0,1,1.782,8.96,22.579,22.579,0,0,1-1.782,8.96A22.879,22.879,0,0,1,16.235-5.64,22.879,22.879,0,0,1,8.96-.757,22.579,22.579,0,0,1,0,1.025ZM-2.1-29.15a5.046,5.046,0,0,0-1.514-3.711,4.988,4.988,0,0,0-3.662-1.514,5.046,5.046,0,0,0-3.711,1.514A5.046,5.046,0,0,0-12.5-29.15a4.988,4.988,0,0,0,1.514,3.662,5.046,5.046,0,0,0,3.711,1.514,4.988,4.988,0,0,0,3.662-1.514A4.988,4.988,0,0,0-2.1-29.15Zm-5.176,3.125a2.966,2.966,0,0,1-2.2-.952A3.029,3.029,0,0,1-10.4-29.15a3,3,0,0,1,.928-2.2,3,3,0,0,1,2.2-.928,3.029,3.029,0,0,1,2.173.928,2.966,2.966,0,0,1,.952,2.2A2.992,2.992,0,0,1-5.1-26.978,2.992,2.992,0,0,1-7.275-26.025Zm14.551,6.25a4.988,4.988,0,0,0-3.662,1.514A4.988,4.988,0,0,0,2.1-14.6a5.046,5.046,0,0,0,1.514,3.711A4.988,4.988,0,0,0,7.275-9.375a5.046,5.046,0,0,0,3.711-1.514A5.046,5.046,0,0,0,12.5-14.6a4.988,4.988,0,0,0-1.514-3.662A5.046,5.046,0,0,0,7.275-19.775Zm0,8.3A3.029,3.029,0,0,1,5.1-12.4a2.966,2.966,0,0,1-.952-2.2A2.992,2.992,0,0,1,5.1-16.772a2.992,2.992,0,0,1,2.173-.952,2.966,2.966,0,0,1,2.2.952A3.029,3.029,0,0,1,10.4-14.6a3,3,0,0,1-.928,2.2A3,3,0,0,1,7.275-11.475ZM-3.369-17.041l14.6-14.6L9.766-33.105l-14.6,14.6Zm-6.3,6.3,2.051-2.051-1.465-1.465-2.051,2.051Z" transform="translate(25 46.875)" fill="#0f144e"></path></svg>