<svg xmlns="http://www.w3.org/2000/svg" width="50" height="50" viewBox="0 0 50 50"><style>#ld_icon_box_5fe2f33bdd658:hover .iconbox-icon-container defs stop:first-child{stop-color:rgb(255, 204, 34);}#ld_icon_box_5fe2f33bdd658:hover .iconbox-icon-container defs stop:last-child{stop-color:rgb(255, 204, 34);}</style><defs xmlns="http://www.w3.org/2000/svg"><linearGradient gradientUnits="userSpaceOnUse" id="grad696340" x1="0%" y1="0%" x2="0%" y2="100%"><stop offset="0%" stop-color="#f42958"></stop><stop offset="100%" stop-color="#f42958"></stop></linearGradient></defs><path d="M20.85-36.475a4,4,0,0,1,2.93,1.221A4.053,4.053,0,0,1,25-32.275v18.75a4,4,0,0,1-1.221,2.93,4,4,0,0,1-2.93,1.221H6.25v8.35A4,4,0,0,1,5.029,1.9,4,4,0,0,1,2.1,3.125H-20.85A4,4,0,0,1-23.779,1.9,4,4,0,0,1-25-1.025v-41.7a4,4,0,0,1,1.221-2.93,4,4,0,0,1,2.93-1.221H2.1a4,4,0,0,1,2.93,1.221,4,4,0,0,1,1.221,2.93v2.1H4.15v-2.1a2.013,2.013,0,0,0-.562-1.489A2.013,2.013,0,0,0,2.1-44.775H-20.85a2.013,2.013,0,0,0-1.489.562,2.013,2.013,0,0,0-.562,1.489v37.5H4.15v-4.15H-12.5A4,4,0,0,1-15.43-10.6a4,4,0,0,1-1.221-2.93v-18.75a4.053,4.053,0,0,1,1.221-2.979,4,4,0,0,1,2.93-1.221ZM4.15-3.125H-22.9v2.1A2.013,2.013,0,0,0-22.339.464a2.013,2.013,0,0,0,1.489.562H2.1A2.013,2.013,0,0,0,3.589.464,2.013,2.013,0,0,0,4.15-1.025ZM22.9-32.275a2.078,2.078,0,0,0-.562-1.538,2.013,2.013,0,0,0-1.489-.562H-12.5a2.1,2.1,0,0,0-1.514.562,2.03,2.03,0,0,0-.586,1.538v18.75a1.967,1.967,0,0,0,.586,1.489,2.1,2.1,0,0,0,1.514.562H20.85a2.013,2.013,0,0,0,1.489-.562,2.013,2.013,0,0,0,.562-1.489ZM-12.5-42.725h6.25v2.1H-12.5Zm29.15,12.5a2.03,2.03,0,0,1,1.538.586,2.1,2.1,0,0,1,.562,1.514v2.1a2.013,2.013,0,0,1-.562,1.489,2.078,2.078,0,0,1-1.538.562H12.5a2.1,2.1,0,0,1-1.514-.562,1.967,1.967,0,0,1-.586-1.489v-2.1a2.048,2.048,0,0,1,.586-1.514,2.048,2.048,0,0,1,1.514-.586Zm0,2.1H12.5v2.1h4.15Zm-12.5,10.4h14.6v2.1H4.15Zm-12.5,0H0v2.1H-8.35Z" transform="translate(25 46.875)" fill="#0f144e"></path></svg>