<svg xmlns="http://www.w3.org/2000/svg" width="36.836" height="37.439" viewBox="0 0 36.836 37.439"><g transform="translate(-1.5 -1.001)"><path d="M41.429,40.95a1.211,1.211,0,0,0,0,2.356,1.211,1.211,0,0,0,0-2.356Z" transform="translate(-15.449 -15.826)" fill="#c4a2fc"></path><ellipse cx="0.929" cy="1.178" rx="0.929" ry="1.178" transform="translate(31.646 30.016)" fill="#c4a2fc"></ellipse><path d="M45.635,31H26.312A1.814,1.814,0,0,0,24.5,32.812v5.435a.6.6,0,0,0,.6.6,1.812,1.812,0,1,1,0,3.623.6.6,0,0,0-.6.6v5.435a1.814,1.814,0,0,0,1.812,1.812H45.635a1.814,1.814,0,0,0,1.812-1.812V43.077a.6.6,0,0,0-.6-.6,1.812,1.812,0,0,1,0-3.623.6.6,0,0,0,.6-.6V32.812A1.814,1.814,0,0,0,45.635,31ZM31.142,48.512a.6.6,0,0,1-1.208,0V47.3a.6.6,0,0,1,1.208,0Zm0-3.623a.6.6,0,0,1-1.208,0V43.681a.6.6,0,0,1,1.208,0Zm0-3.623a.6.6,0,1,1-1.208,0V40.058a.6.6,0,0,1,1.208,0Zm0-3.623a.6.6,0,0,1-1.208,0V36.435a.6.6,0,1,1,1.208,0Zm0-3.623a.6.6,0,0,1-1.208,0V32.812a.6.6,0,0,1,1.208,0Zm1.812,4.167A2.275,2.275,0,0,1,35.091,35.8a2.4,2.4,0,0,1,0,4.771,2.274,2.274,0,0,1-2.137-2.385Zm3.39,7.043a.6.6,0,0,1-.323-.79l3.47-8.269a.6.6,0,0,1,1.113.467l-3.47,8.269A.6.6,0,0,1,36.344,45.23Zm5.343.232a2.4,2.4,0,1,1,2.137-2.385,2.274,2.274,0,0,1-2.137,2.385Z" transform="translate(-9.111 -11.884)" fill="#c4a2fc"></path><g transform="translate(1.5 1.001)"><path d="M3.915,26.967H22.031a2.418,2.418,0,0,0,2.415-2.415V1.6a.6.6,0,0,0-.939-.5l-1.477.984L20.555,1.1a.6.6,0,0,0-.67,0l-1.477.984L16.931,1.1a.6.6,0,0,0-.67,0l-1.477.984L13.308,1.1a.6.6,0,0,0-.67,0l-1.477.984L9.685,1.1a.6.6,0,0,0-.67,0l-1.477.984L6.062,1.1a.6.6,0,0,0-.939.5V18.794l-1.208.8-1.477-.984a.6.6,0,0,0-.939.5v5.435a2.418,2.418,0,0,0,2.415,2.415Zm2.415-2.415V2.733l.873.582a.6.6,0,0,0,.67,0L9.35,2.331l1.477.984a.6.6,0,0,0,.67,0l1.477-.984,1.477.984a.6.6,0,0,0,.67,0L16.6,2.331l1.477.984a.6.6,0,0,0,.67,0l1.477-.984,1.477.984a.6.6,0,0,0,.67,0l.873-.582V24.552a1.209,1.209,0,0,1-1.208,1.208H6.007a2.4,2.4,0,0,0,.324-1.208ZM2.708,20.245l.873.582a.6.6,0,0,0,.67,0l.873-.582v4.307a1.208,1.208,0,1,1-2.415,0Z" transform="translate(-1.5 -1.001)" fill="#151a6a"></path><path d="M17.1,10.209H24.35A.6.6,0,0,0,24.35,9H17.1a.6.6,0,0,0,0,1.208Z" transform="translate(-7.442 -4.17)" fill="#151a6a"></path><path d="M14.1,16.209h5.435a.6.6,0,0,0,0-1.208H14.1a.6.6,0,1,0,0,1.208Z" transform="translate(-6.254 -6.547)" fill="#151a6a"></path><path d="M30.915,15H29.1a.6.6,0,1,0,0,1.208h1.812a.6.6,0,1,0,0-1.208Z" transform="translate(-12.196 -6.547)" fill="#151a6a"></path><path d="M14.1,22.209h5.435a.6.6,0,0,0,0-1.208H14.1a.6.6,0,0,0,0,1.208Z" transform="translate(-6.254 -8.924)" fill="#151a6a"></path><path d="M30.915,21H29.1a.6.6,0,0,0,0,1.208h1.812a.6.6,0,1,0,0-1.208Z" transform="translate(-12.196 -8.924)" fill="#151a6a"></path><path d="M20.142,27.605a.6.6,0,0,0-.6-.6H14.1a.6.6,0,1,0,0,1.208h5.435a.6.6,0,0,0,.6-.6Z" transform="translate(-6.254 -11.301)" fill="#151a6a"></path><path d="M30.915,27H29.1a.6.6,0,1,0,0,1.208h1.812a.6.6,0,1,0,0-1.208Z" transform="translate(-12.196 -11.301)" fill="#151a6a"></path><path d="M23.935,36H19.1a.6.6,0,1,0,0,1.208h4.831a.6.6,0,0,0,0-1.208Z" transform="translate(-8.234 -14.866)" fill="#151a6a"></path></g></g></svg>