<svg xmlns="http://www.w3.org/2000/svg" width="154.927" height="26.983" viewBox="0 0 154.927 26.983"><path d="M703.5,516.869c.808,1.5,1.533,2.858,2.276,4.21s1.5,2.686,2.562,4.593c.991-1.553,1.734-2.516,2.264-3.585,1.844-3.72,3.561-7.5,5.439-11.2a18.688,18.688,0,0,1,2.626-3.911c2.571-2.9,6.385-2.963,8.474.349,2.866,4.544,5.085,9.494,7.614,14.253.645,1.214,1.413,2.362,2.527,4.207,1.642-3.08,3-5.506,4.243-7.992,1.26-2.529,2.164-5.27,3.671-7.633a13.794,13.794,0,0,1,4.717-4.865c2.622-1.371,5.6.438,7.54,4.1,2.175,4.11,4.138,8.333,6.221,12.492.544,1.088,1.192,2.123,2.1,3.72,1.01-1.569,1.81-2.6,2.381-3.741,1.669-3.34,3.188-6.756,4.885-10.081a26.579,26.579,0,0,1,2.914-4.622c2.426-3.006,6.209-3.163,8.506-.07a64.655,64.655,0,0,1,4.92,8.622c1.16,2.2,2.093,4.524,3.216,6.747a30.7,30.7,0,0,0,2.068,3.031c1.041-1.726,1.925-2.994,2.607-4.362,1.889-3.792,3.546-7.707,5.583-11.414,1.3-2.365,2.811-4.8,6.157-4.732,3.406.067,4.939,2.547,6.27,5.02,2.007,3.726,3.7,7.62,5.573,11.419.615,1.246,1.378,2.419,2.378,4.152a40.1,40.1,0,0,0,2.37-3.627c1.742-3.489,3.378-7.031,5.08-10.541a22.719,22.719,0,0,1,1.558-2.841c3.274-4.836,7.43-4.954,10.736-.169,1.541,2.23,5.976,12.3,7.3,14.677" transform="translate(-699.438 -501.797)" fill="none" stroke="#ff7374" stroke-linecap="round" stroke-linejoin="round" stroke-width="6"></path></svg>