<svg xmlns="http://www.w3.org/2000/svg" width="80" height="64" viewBox="0 0 80 64"><g transform="translate(-302 -4525)"><path d="M-19.375-37.912l-5.412,1.15-.025,17.8c0,3.287,2.475,5.412,5.762,5.412a8.632,8.632,0,0,0,3.9-.737v-4.225c-.713.287-4.213,1.312-4.213-1.963v-7.9h4.213V-33.1h-4.213Zm11.137,6.45L-8.575-33.1h-4.8v19.15h5.537V-26.837A3.952,3.952,0,0,1-3.6-28v-5.1A3.794,3.794,0,0,0-8.238-31.462ZM3.3-40.5l-5.575,1.188v4.525L3.3-35.975ZM-34.387-27.462c0-.862.725-1.2,1.887-1.213a12.437,12.437,0,0,1,5.525,1.425v-5.225a14.815,14.815,0,0,0-5.513-1.013c-4.5,0-7.5,2.35-7.5,6.275,0,6.15,8.437,5.15,8.437,7.8,0,1.025-.887,1.362-2.125,1.362a14,14,0,0,1-6.075-1.775v5a15.383,15.383,0,0,0,6.062,1.262c4.613,0,7.787-1.975,7.787-5.975C-25.9-26.15-34.387-24.962-34.387-27.462ZM40-23.3c0-5.687-2.75-10.175-8.025-10.175s-8.487,4.487-8.487,10.137c0,6.687,3.787,9.775,9.187,9.775A12.434,12.434,0,0,0,38.825-15v-4.175a11.74,11.74,0,0,1-5.45,1.225c-2.162,0-4.062-.763-4.312-3.363H39.925C39.95-21.6,40-22.762,40-23.3ZM29.012-25.4c0-2.5,1.538-3.55,2.925-3.55,1.363,0,2.812,1.05,2.812,3.55ZM14.9-33.475a6.256,6.256,0,0,0-4.35,1.737l-.288-1.375H5.375v25.6l5.55-1.175.012-6.275a6.219,6.219,0,0,0,3.925,1.4c3.975,0,7.6-2.9,7.6-9.95C22.475-29.962,18.8-33.475,14.9-33.475ZM13.575-18.162a3.333,3.333,0,0,1-2.612-1.05l-.037-8.25a3.33,3.33,0,0,1,2.65-1.1C15.6-28.562,17-26.287,17-23.387,17.012-20.4,15.637-18.162,13.575-18.162ZM-2.263-13.95H3.312V-33.1H-2.263Z" transform="translate(342 4581)" fill="#fff"></path><path d="M0,0H80V64H0Z" transform="translate(302 4525)" fill="rgba(255,255,255,0)"></path></g></svg>