<svg xmlns="http://www.w3.org/2000/svg" width="101.762" height="11.9" viewBox="0 0 101.762 11.9"><path d="M17.782-11.9l-2.6,8.177L12.342-11.9h-3.2L6.307-3.723,3.706-11.9H.153L4.5,0H7.922L10.71-8.279,13.481,0h3.451l4.335-11.9ZM40.715-3.842V-6.477H25.806v2.635Zm12.9-8.058H46.971V0h6.647c4.573,0,7.48-2.21,7.48-5.95S58.191-11.9,53.618-11.9Zm-.272,9.146H50.439V-9.146h2.907c2.55,0,4.216,1.088,4.216,3.2S55.9-2.754,53.346-2.754ZM81.583-3.842V-6.477H66.674v2.635ZM98.226,0h3.689L95.761-11.9H91.97L85.816,0h3.638l1.122-2.278H97.1Zm-6.46-4.743L93.84-8.959,95.9-4.743Z" transform="translate(-0.153 11.9)" fill="#1c1c1c"></path></svg>