<svg xmlns="http://www.w3.org/2000/svg" width="120.341" height="9.698" viewBox="0 0 120.341 9.698"><path d="M-49.848-9.1l-3.445,4.368L-56.712-9.1h-2.9V0h2.561V-5.811l3.627,4.446h.13l3.627-4.446V0h2.639V-9.1Zm19.1,9.1h2.821l-4.706-9.1h-2.9L-40.241,0h2.782l.858-1.742h4.992Zm-4.94-3.627,1.586-3.224,1.573,3.224Zm19.11-2.145c-1.625-.13-2.678-.208-2.678-.819,0-.65,1.287-.819,2.353-.819A6.247,6.247,0,0,1-13.253-6.4l1.339-1.651A8.76,8.76,0,0,0-16.906-9.4c-2.886,0-4.992,1.066-4.992,3.016,0,2.028,2.457,2.626,5.161,2.86,1.872.156,2.6.351,2.6.936s-.78.884-2.34.884A6.673,6.673,0,0,1-20.871-3.12l-1.391,1.638A9.036,9.036,0,0,0-16.529.3c3.3,0,5.031-1.274,5.031-3.146C-11.5-4.94-13.6-5.525-16.581-5.772ZM1.177.3c3.6,0,5.941-1.768,5.941-4.849S4.778-9.4,1.177-9.4-4.751-7.631-4.751-4.55-2.424.3,1.177.3Zm0-2.158c-2,0-3.237-.975-3.237-2.691S-.812-7.241,1.177-7.241s3.237.975,3.237,2.691S3.179-1.859,1.177-1.859ZM22.7-9.1v5.564L17.31-9.1H14.5V0h2.561V-5.98L22.939,0h2.327V-9.1ZM43.972,0,41.295-3.094a2.945,2.945,0,0,0,2.392-2.9c0-2.08-1.807-3.107-4.134-3.107H33.17V0h2.639V-2.873h2.678L40.892,0ZM35.8-4.8V-7.085h3.562c.949,0,1.638.26,1.638,1.144S40.306-4.8,39.358-4.8ZM49.524-9.1,53.8-3.068V0h2.652V-3.068L60.729-9.1H57.778L55.139-5.174,52.487-9.1Z" transform="translate(59.612 9.399)"></path></svg>