<svg xmlns="http://www.w3.org/2000/svg" xmlns:xlink="http://www.w3.org/1999/xlink" width="122" viewBox="0 0 91.5 30.000001" height="40" preserveAspectRatio="xMidYMid meet"><defs><g></g><clipPath id="011cf3ffbe"><path d="M 36.707031 8 L 68.644531 8 L 68.644531 14.554688 L 36.707031 14.554688 Z M 36.707031 8 " clip-rule="nonzero"></path></clipPath><clipPath id="9a97df0280"><path d="M 13.390625 11 L 34 11 L 34 16.53125 L 13.390625 16.53125 Z M 13.390625 11 " clip-rule="nonzero"></path></clipPath><clipPath id="b61bc02150"><path d="M 14 2.742188 L 72.90625 2.742188 L 72.90625 14 L 14 14 Z M 14 2.742188 " clip-rule="nonzero"></path></clipPath><clipPath id="d8f251dfd5"><path d="M 13.390625 20 L 33.714844 20 L 33.714844 24 L 13.390625 24 Z M 13.390625 20 " clip-rule="nonzero"></path></clipPath></defs><g clip-path="url(#011cf3ffbe)"><path fill="#000000" d="M 36.753906 14.554688 C 37.6875 10.785156 42.109375 10.328125 48.90625 10.964844 C 47.53125 10.382812 45.992188 10.394531 44.34375 10.214844 C 49.933594 7.40625 55.464844 9.214844 58.761719 11.730469 C 64.144531 11.152344 67.019531 12.324219 68.640625 14.375 C 67.835938 11.964844 64.519531 10.851562 59.21875 10.757812 C 54.023438 7.398438 48.691406 7.296875 43.261719 9.429688 C 41.742188 9.898438 40.269531 10.410156 38.277344 10.316406 C 38.347656 10.496094 38.453125 10.65625 38.621094 10.757812 C 37.058594 11.796875 36.710938 13.128906 36.753906 14.554688 Z M 36.753906 14.554688 " fill-opacity="1" fill-rule="evenodd"></path></g><g clip-path="url(#9a97df0280)"><path fill="#ffffff" d="M 33.058594 15.207031 C 25.960938 15.773438 21.113281 15.101562 18.277344 14.429688 C 18.921875 14.429688 19.5625 14.414062 20.1875 14.378906 C 20.777344 14.347656 21.367188 14.304688 21.953125 14.253906 C 22.445312 14.210938 23.351562 14.121094 23.898438 14.046875 C 22.800781 13.871094 21.71875 13.648438 20.65625 13.402344 C 19.710938 13.183594 18.777344 12.945312 17.878906 12.664062 C 17.15625 12.441406 16.503906 12.144531 15.835938 11.867188 C 15.28125 11.632812 14.484375 11.226562 13.871094 11.578125 C 13.390625 11.851562 13.386719 12.417969 13.429688 12.789062 C 13.542969 13.84375 15.121094 14.46875 15.953125 14.847656 C 16.96875 15.308594 18.046875 15.621094 19.136719 15.835938 C 21.382812 16.28125 23.699219 16.332031 25.976562 16.203125 C 27.796875 16.097656 29.605469 15.878906 31.398438 15.550781 C 31.9375 15.453125 32.5 15.332031 33.058594 15.207031 Z M 33.058594 15.207031 " fill-opacity="1" fill-rule="nonzero"></path></g><g clip-path="url(#b61bc02150)"><path fill="#ffffff" d="M 72.539062 9.886719 C 72.203125 9.730469 71.855469 9.585938 71.503906 9.449219 C 71.082031 9.285156 70.65625 9.132812 70.21875 8.996094 C 69.144531 8.65625 68.046875 8.390625 66.933594 8.191406 C 65.800781 7.996094 64.664062 7.855469 63.515625 7.773438 C 63.230469 7.753906 62.941406 7.730469 62.652344 7.71875 L 62.21875 7.695312 L 61.789062 7.679688 C 61.644531 7.671875 61.5 7.667969 61.355469 7.664062 L 60.921875 7.65625 C 60.632812 7.648438 60.347656 7.648438 60.058594 7.648438 C 59.914062 7.644531 59.769531 7.648438 59.625 7.648438 L 59.191406 7.652344 C 58.90625 7.652344 58.617188 7.660156 58.332031 7.664062 L 57.46875 7.691406 C 57.183594 7.703125 56.894531 7.714844 56.609375 7.726562 C 56.035156 7.753906 55.464844 7.785156 54.894531 7.816406 C 54.609375 7.832031 54.324219 7.851562 54.039062 7.871094 L 53.183594 7.925781 C 50.910156 8.082031 48.644531 8.269531 46.386719 8.460938 C 44.125 8.652344 41.875 8.847656 39.625 9.007812 C 38.5 9.089844 37.375 9.164062 36.253906 9.226562 C 35.128906 9.285156 34.007812 9.339844 32.886719 9.371094 C 31.765625 9.40625 30.644531 9.429688 29.527344 9.421875 C 29.386719 9.421875 29.246094 9.425781 29.105469 9.421875 L 28.6875 9.417969 C 28.410156 9.414062 28.128906 9.414062 27.851562 9.40625 L 27.011719 9.386719 L 26.179688 9.355469 C 25.296875 9.320312 24.421875 9.265625 23.546875 9.203125 C 23.835938 9.085938 24.121094 8.96875 24.40625 8.851562 C 25.882812 8.222656 27.257812 7.523438 28.625 6.859375 C 29.996094 6.195312 31.355469 5.566406 32.78125 5.074219 C 32.960938 5.015625 33.140625 4.953125 33.320312 4.894531 C 33.410156 4.867188 33.5 4.839844 33.589844 4.8125 L 33.863281 4.734375 C 34.046875 4.683594 34.226562 4.628906 34.414062 4.582031 L 34.691406 4.511719 C 34.785156 4.492188 34.878906 4.464844 34.972656 4.445312 L 35.535156 4.320312 L 36.105469 4.214844 C 36.15625 4.207031 36.203125 4.195312 36.25 4.1875 L 36.394531 4.167969 L 36.683594 4.121094 C 36.78125 4.109375 36.875 4.089844 36.972656 4.078125 L 37.265625 4.042969 L 37.554688 4.003906 C 37.652344 3.992188 37.75 3.984375 37.847656 3.976562 L 38.144531 3.949219 L 38.289062 3.933594 L 38.4375 3.921875 C 38.636719 3.910156 38.832031 3.894531 39.03125 3.878906 L 39.625 3.851562 C 40.417969 3.824219 41.21875 3.832031 42.015625 3.867188 C 42.214844 3.875 42.417969 3.882812 42.617188 3.894531 L 43.214844 3.9375 C 43.617188 3.972656 44.015625 4.007812 44.414062 4.054688 C 45.210938 4.144531 46.007812 4.253906 46.796875 4.386719 C 48.378906 4.660156 49.945312 5.007812 51.484375 5.421875 C 53.027344 5.832031 54.542969 6.304688 56.050781 6.808594 C 55.347656 6.488281 54.632812 6.179688 53.90625 5.886719 C 53.179688 5.589844 52.4375 5.3125 51.6875 5.050781 C 50.167969 4.515625 48.617188 4.0625 47.046875 3.695312 C 45.425781 3.316406 43.789062 3.046875 42.132812 2.894531 C 41.296875 2.816406 40.449219 2.773438 39.597656 2.765625 C 38.75 2.757812 37.894531 2.792969 37.042969 2.867188 L 36.722656 2.894531 C 36.617188 2.902344 36.511719 2.917969 36.40625 2.929688 L 36.089844 2.96875 L 35.929688 2.988281 C 35.875 2.992188 35.824219 3 35.769531 3.007812 L 35.136719 3.101562 L 34.511719 3.214844 C 34.40625 3.234375 34.300781 3.257812 34.199219 3.277344 L 33.886719 3.347656 C 33.679688 3.386719 33.476562 3.441406 33.269531 3.492188 L 32.964844 3.570312 C 32.859375 3.597656 32.761719 3.625 32.660156 3.652344 C 32.457031 3.707031 32.257812 3.769531 32.058594 3.832031 C 31.957031 3.859375 31.859375 3.894531 31.761719 3.925781 C 31.664062 3.957031 31.5625 3.988281 31.464844 4.023438 C 31.273438 4.089844 31.078125 4.152344 30.886719 4.226562 L 30.597656 4.328125 L 30.3125 4.4375 C 30.125 4.507812 29.9375 4.585938 29.75 4.660156 C 29.007812 4.960938 28.285156 5.277344 27.574219 5.597656 L 25.46875 6.5625 C 24.773438 6.878906 24.078125 7.183594 23.382812 7.46875 C 22.683594 7.75 21.976562 8.007812 21.261719 8.234375 C 20.542969 8.457031 19.820312 8.636719 19.082031 8.777344 L 14.367188 9.664062 L 19.136719 10.378906 C 20.28125 10.550781 21.429688 10.691406 22.585938 10.800781 C 23.738281 10.910156 24.898438 10.980469 26.054688 11.03125 C 28.371094 11.125 30.6875 11.113281 32.988281 11.023438 C 37.59375 10.84375 42.132812 10.375 46.632812 9.875 C 47.339844 9.796875 48.042969 9.71875 48.75 9.640625 C 47.769531 9.84375 46.792969 10.054688 45.816406 10.273438 L 42.457031 11.046875 C 41.339844 11.304688 40.222656 11.558594 39.105469 11.796875 L 38.265625 11.976562 C 37.984375 12.035156 37.707031 12.09375 37.425781 12.148438 L 36.582031 12.316406 L 36.164062 12.402344 L 35.746094 12.480469 C 34.632812 12.675781 33.507812 12.820312 32.375 12.914062 C 30.097656 13.097656 27.816406 13.109375 25.539062 12.953125 C 23.246094 12.800781 20.972656 12.496094 18.71875 12.042969 C 20.910156 12.734375 23.179688 13.210938 25.476562 13.519531 C 27.789062 13.820312 30.109375 13.925781 32.4375 13.824219 C 33.605469 13.773438 34.769531 13.660156 35.925781 13.488281 L 36.359375 13.417969 L 36.789062 13.347656 C 37.074219 13.300781 37.355469 13.25 37.640625 13.195312 C 37.925781 13.144531 38.210938 13.09375 38.492188 13.039062 L 39.34375 12.875 C 40.476562 12.652344 41.605469 12.410156 42.730469 12.164062 L 46.09375 11.40625 C 47.214844 11.152344 48.332031 10.902344 49.449219 10.671875 C 50.570312 10.433594 51.691406 10.214844 52.8125 10.019531 C 53.9375 9.824219 55.066406 9.65625 56.195312 9.515625 L 57.046875 9.417969 L 57.894531 9.332031 L 58.75 9.257812 L 59.601562 9.195312 L 60.457031 9.144531 L 61.3125 9.105469 C 61.886719 9.082031 62.460938 9.0625 63.03125 9.046875 C 64.175781 9.019531 65.320312 9.015625 66.460938 9.058594 C 68.15625 9.113281 69.847656 9.285156 71.507812 9.640625 C 72.09375 9.8125 72.667969 10.007812 73.230469 10.222656 C 73.007812 10.109375 72.777344 9.996094 72.539062 9.886719 Z M 72.539062 9.886719 " fill-opacity="1" fill-rule="nonzero"></path></g><path fill="#ffffff" d="M 58.660156 15.710938 C 58.804688 14.988281 59.074219 14.316406 59.46875 13.695312 C 59.871094 13.058594 60.367188 12.511719 60.953125 12.046875 C 61.550781 11.574219 62.210938 11.21875 62.929688 10.972656 C 63.109375 10.910156 63.292969 10.863281 63.472656 10.8125 C 63.65625 10.769531 63.84375 10.734375 64.03125 10.695312 C 64.21875 10.671875 64.40625 10.652344 64.59375 10.628906 L 64.875 10.613281 C 64.972656 10.609375 65.066406 10.613281 65.160156 10.609375 C 65.539062 10.613281 65.917969 10.648438 66.292969 10.710938 C 66.664062 10.777344 67.03125 10.875 67.386719 11 C 68.105469 11.253906 68.757812 11.621094 69.347656 12.101562 C 69.933594 12.570312 70.421875 13.128906 70.8125 13.769531 C 71.199219 14.398438 71.457031 15.074219 71.589844 15.800781 C 71.441406 15.476562 71.273438 15.160156 71.085938 14.859375 C 70.902344 14.5625 70.699219 14.277344 70.472656 14.007812 C 70.035156 13.476562 69.527344 13.019531 68.953125 12.632812 C 68.394531 12.253906 67.789062 11.964844 67.140625 11.761719 C 66.496094 11.5625 65.832031 11.460938 65.15625 11.453125 C 64.480469 11.449219 63.816406 11.542969 63.164062 11.734375 C 62.515625 11.929688 61.910156 12.210938 61.34375 12.582031 C 60.765625 12.960938 60.253906 13.414062 59.804688 13.9375 C 59.34375 14.480469 58.964844 15.070312 58.660156 15.710938 Z M 58.660156 15.710938 " fill-opacity="1" fill-rule="nonzero"></path><g clip-path="url(#d8f251dfd5)"><path fill="#ffffff" d="M 13.398438 20.273438 C 19.558594 23.210938 24.695312 23.632812 31.144531 21.257812 C 31.886719 20.992188 32.898438 20.574219 33.636719 20.273438 C 33.28125 20.550781 32.917969 20.820312 32.542969 21.066406 C 26.546875 25.082031 18.976562 24.980469 13.398438 20.273438 Z M 13.398438 20.273438 " fill-opacity="1" fill-rule="nonzero"></path></g><g fill="#ffffff" fill-opacity="1"><g transform="translate(36.269828, 21.997999)"><g><path d="M 0.828125 -0.234375 C 0.804688 -0.0976562 0.78125 -0.015625 0.75 0.015625 C 0.71875 0.0546875 0.65625 0.078125 0.5625 0.078125 C 0.476562 0.078125 0.421875 0.0664062 0.390625 0.046875 C 0.359375 0.0234375 0.34375 -0.00390625 0.34375 -0.046875 C 0.34375 -0.0859375 0.347656 -0.148438 0.359375 -0.234375 L 0.9375 -5.109375 C 0.957031 -5.234375 1.046875 -5.296875 1.203125 -5.296875 L 1.34375 -5.296875 C 1.46875 -5.296875 1.550781 -5.242188 1.59375 -5.140625 L 3.296875 -0.84375 L 3.796875 -4.984375 C 3.804688 -5.097656 3.816406 -5.171875 3.828125 -5.203125 C 3.847656 -5.242188 3.875 -5.269531 3.90625 -5.28125 C 3.945312 -5.289062 4 -5.296875 4.0625 -5.296875 C 4.132812 -5.296875 4.1875 -5.285156 4.21875 -5.265625 C 4.25 -5.242188 4.265625 -5.207031 4.265625 -5.15625 C 4.265625 -5.113281 4.265625 -5.054688 4.265625 -4.984375 L 3.671875 -0.109375 C 3.648438 0.015625 3.566406 0.078125 3.421875 0.078125 L 3.3125 0.078125 C 3.175781 0.078125 3.085938 0.0234375 3.046875 -0.078125 L 1.328125 -4.421875 Z M 0.828125 -0.234375 "></path></g></g></g><g fill="#ffffff" fill-opacity="1"><g transform="translate(40.890186, 21.997999)"><g><path d="M 3.84375 -4.703125 C 3.96875 -4.515625 4.054688 -4.300781 4.109375 -4.0625 C 4.171875 -3.832031 4.203125 -3.582031 4.203125 -3.3125 C 4.203125 -3.050781 4.1875 -2.796875 4.15625 -2.546875 C 4.125 -2.296875 4.070312 -2.039062 4 -1.78125 C 3.925781 -1.53125 3.828125 -1.289062 3.703125 -1.0625 C 3.578125 -0.84375 3.429688 -0.644531 3.265625 -0.46875 C 3.109375 -0.300781 2.914062 -0.164062 2.6875 -0.0625 C 2.457031 0.03125 2.195312 0.078125 1.90625 0.078125 C 1.625 0.078125 1.367188 0.0234375 1.140625 -0.078125 C 0.921875 -0.179688 0.75 -0.328125 0.625 -0.515625 C 0.375 -0.878906 0.25 -1.359375 0.25 -1.953125 C 0.25 -2.578125 0.359375 -3.164062 0.578125 -3.71875 C 0.691406 -4.019531 0.832031 -4.285156 1 -4.515625 C 1.164062 -4.742188 1.378906 -4.929688 1.640625 -5.078125 C 1.910156 -5.222656 2.203125 -5.296875 2.515625 -5.296875 C 2.828125 -5.296875 3.09375 -5.242188 3.3125 -5.140625 C 3.539062 -5.035156 3.71875 -4.890625 3.84375 -4.703125 Z M 2 -0.296875 C 2.238281 -0.296875 2.460938 -0.367188 2.671875 -0.515625 C 2.878906 -0.660156 3.046875 -0.84375 3.171875 -1.0625 C 3.304688 -1.28125 3.414062 -1.53125 3.5 -1.8125 C 3.644531 -2.3125 3.71875 -2.8125 3.71875 -3.3125 C 3.71875 -3.75 3.628906 -4.117188 3.453125 -4.421875 C 3.359375 -4.578125 3.226562 -4.695312 3.0625 -4.78125 C 2.894531 -4.875 2.691406 -4.921875 2.453125 -4.921875 C 2.222656 -4.921875 2.003906 -4.847656 1.796875 -4.703125 C 1.585938 -4.554688 1.414062 -4.375 1.28125 -4.15625 C 1.15625 -3.9375 1.050781 -3.691406 0.96875 -3.421875 C 0.820312 -2.921875 0.75 -2.421875 0.75 -1.921875 C 0.75 -1.484375 0.835938 -1.113281 1.015625 -0.8125 C 1.203125 -0.46875 1.53125 -0.296875 2 -0.296875 Z M 2 -0.296875 "></path></g></g></g><g fill="#ffffff" fill-opacity="1"><g transform="translate(45.35248, 21.997999)"><g><path d="M 0.578125 0.078125 C 0.421875 0.078125 0.34375 0.03125 0.34375 -0.0625 L 0.34375 -0.09375 L 0.953125 -5.0625 C 0.972656 -5.144531 1.03125 -5.191406 1.125 -5.203125 C 1.425781 -5.265625 1.820312 -5.296875 2.3125 -5.296875 C 2.800781 -5.296875 3.1875 -5.195312 3.46875 -5 C 3.75 -4.800781 3.890625 -4.507812 3.890625 -4.125 C 3.890625 -3.789062 3.773438 -3.503906 3.546875 -3.265625 C 3.316406 -3.023438 3 -2.863281 2.59375 -2.78125 C 2.863281 -2.664062 3.070312 -2.445312 3.21875 -2.125 C 3.289062 -1.96875 3.359375 -1.789062 3.421875 -1.59375 C 3.484375 -1.394531 3.519531 -1.273438 3.53125 -1.234375 L 3.921875 -0.125 C 3.921875 -0.113281 3.921875 -0.0859375 3.921875 -0.046875 C 3.921875 -0.015625 3.894531 0.0078125 3.84375 0.03125 C 3.800781 0.0625 3.742188 0.078125 3.671875 0.078125 C 3.546875 0.078125 3.472656 0.0351562 3.453125 -0.046875 L 3.015625 -1.296875 C 2.910156 -1.617188 2.8125 -1.875 2.71875 -2.0625 C 2.632812 -2.25 2.53125 -2.378906 2.40625 -2.453125 C 2.289062 -2.535156 2.09375 -2.578125 1.8125 -2.578125 L 1.109375 -2.578125 L 0.8125 -0.078125 C 0.800781 -0.015625 0.773438 0.0234375 0.734375 0.046875 C 0.703125 0.0664062 0.648438 0.078125 0.578125 0.078125 Z M 1.875 -2.96875 C 2.195312 -2.96875 2.519531 -3.054688 2.84375 -3.234375 C 3.007812 -3.316406 3.144531 -3.429688 3.25 -3.578125 C 3.351562 -3.734375 3.40625 -3.910156 3.40625 -4.109375 C 3.40625 -4.359375 3.296875 -4.554688 3.078125 -4.703125 C 2.867188 -4.847656 2.601562 -4.921875 2.28125 -4.921875 C 1.96875 -4.921875 1.671875 -4.898438 1.390625 -4.859375 L 1.171875 -2.96875 Z M 1.875 -2.96875 "></path></g></g></g><g fill="#ffffff" fill-opacity="1"><g transform="translate(49.601994, 21.997999)"><g><path d="M 4.4375 -3.265625 C 4.4375 -2.316406 4.242188 -1.535156 3.859375 -0.921875 C 3.660156 -0.597656 3.382812 -0.347656 3.03125 -0.171875 C 2.6875 -0.00390625 2.265625 0.078125 1.765625 0.078125 C 1.265625 0.078125 0.867188 0.0625 0.578125 0.03125 C 0.421875 0.0078125 0.34375 -0.046875 0.34375 -0.140625 C 0.34375 -0.203125 0.347656 -0.257812 0.359375 -0.3125 L 0.921875 -5.09375 C 0.929688 -5.125 0.953125 -5.15625 0.984375 -5.1875 C 1.023438 -5.21875 1.0625 -5.234375 1.09375 -5.234375 C 1.5625 -5.273438 2 -5.296875 2.40625 -5.296875 C 3.082031 -5.296875 3.585938 -5.117188 3.921875 -4.765625 C 4.265625 -4.410156 4.4375 -3.910156 4.4375 -3.265625 Z M 3.953125 -3.328125 C 3.953125 -3.804688 3.8125 -4.191406 3.53125 -4.484375 C 3.257812 -4.773438 2.890625 -4.921875 2.421875 -4.921875 C 1.953125 -4.921875 1.601562 -4.898438 1.375 -4.859375 L 0.84375 -0.375 C 1.101562 -0.34375 1.421875 -0.328125 1.796875 -0.328125 C 2.179688 -0.328125 2.515625 -0.410156 2.796875 -0.578125 C 3.085938 -0.753906 3.316406 -0.988281 3.484375 -1.28125 C 3.796875 -1.851562 3.953125 -2.535156 3.953125 -3.328125 Z M 3.953125 -3.328125 "></path></g></g></g><g fill="#f61414" fill-opacity="1"><g transform="translate(55.26024, 22.15841)"><g><path d="M 2.0625 0 L 0.90625 0 L 0.8125 -5.125 L 1.796875 -5.125 L 1.8125 -1.515625 L 1.90625 -1.515625 L 3.59375 -5.125 L 4.453125 -5.125 L 4.65625 -1.515625 L 4.734375 -1.515625 L 6.265625 -5.125 L 7.25 -5.125 L 5.015625 0 L 3.875 0 L 3.6875 -3.3125 L 3.609375 -3.3125 Z M 2.0625 0 "></path></g></g></g><g fill="#f61414" fill-opacity="1"><g transform="translate(61.970601, 22.15841)"><g><path d="M 1.265625 0 L 0.25 0 L 1.34375 -5.125 L 2.359375 -5.125 Z M 1.265625 0 "></path></g></g></g><g fill="#f61414" fill-opacity="1"><g transform="translate(64.316074, 22.15841)"><g><path d="M 1.234375 0 L 0.25 0 L 1.34375 -5.125 L 2.5 -5.125 L 3.84375 -1.71875 L 3.9375 -1.734375 L 4.65625 -5.125 L 5.625 -5.125 L 4.546875 0 L 3.5 0 L 2.09375 -3.640625 L 2 -3.625 Z M 1.234375 0 "></path></g></g></g><g fill="#f61414" fill-opacity="1"><g transform="translate(69.932584, 22.15841)"><g><path d="M 3.140625 -5.125 C 3.597656 -5.125 3.984375 -5.046875 4.296875 -4.890625 C 4.617188 -4.734375 4.859375 -4.507812 5.015625 -4.21875 C 5.179688 -3.925781 5.265625 -3.578125 5.265625 -3.171875 C 5.265625 -2.941406 5.234375 -2.679688 5.171875 -2.390625 C 5.003906 -1.609375 4.671875 -1.015625 4.171875 -0.609375 C 3.671875 -0.203125 2.984375 0 2.109375 0 L 0.25 0 L 1.34375 -5.125 Z M 4.171875 -2.5625 C 4.210938 -2.769531 4.234375 -2.960938 4.234375 -3.140625 C 4.234375 -3.515625 4.125 -3.796875 3.90625 -3.984375 C 3.6875 -4.179688 3.367188 -4.28125 2.953125 -4.28125 L 2.171875 -4.28125 L 1.453125 -0.859375 L 2.21875 -0.859375 C 2.738281 -0.859375 3.160156 -0.992188 3.484375 -1.265625 C 3.804688 -1.535156 4.035156 -1.96875 4.171875 -2.5625 Z M 4.171875 -2.5625 "></path></g></g></g><g fill="#ffffff" fill-opacity="1"><g transform="translate(41.597509, 25.795406)"><g><path d="M 0.765625 -1.515625 C 0.867188 -1.515625 0.957031 -1.492188 1.03125 -1.453125 C 1.113281 -1.421875 1.171875 -1.367188 1.203125 -1.296875 C 1.242188 -1.234375 1.265625 -1.15625 1.265625 -1.0625 C 1.265625 -0.96875 1.242188 -0.882812 1.203125 -0.8125 C 1.171875 -0.738281 1.113281 -0.679688 1.03125 -0.640625 C 0.957031 -0.609375 0.867188 -0.59375 0.765625 -0.59375 L 0.40625 -0.59375 L 0.40625 0 L 0.234375 0 L 0.234375 -1.515625 Z M 0.765625 -0.75 C 0.972656 -0.75 1.078125 -0.851562 1.078125 -1.0625 C 1.078125 -1.257812 0.972656 -1.359375 0.765625 -1.359375 L 0.40625 -1.359375 L 0.40625 -0.75 Z M 0.765625 -0.75 "></path></g></g></g><g fill="#ffffff" fill-opacity="1"><g transform="translate(43.749219, 25.795406)"><g><path d="M 0.40625 -0.71875 L 0.40625 -0.140625 L 1.1875 -0.140625 L 1.1875 0 L 0.234375 0 L 0.234375 -1.515625 L 1.171875 -1.515625 L 1.171875 -1.375 L 0.40625 -1.375 L 0.40625 -0.859375 L 1.078125 -0.859375 L 1.078125 -0.71875 Z M 0.40625 -0.71875 "></path></g></g></g><g fill="#ffffff" fill-opacity="1"><g transform="translate(45.799275, 25.795406)"><g><path d="M 0.234375 0 L 0.234375 -1.515625 L 0.78125 -1.515625 C 0.882812 -1.515625 0.96875 -1.5 1.03125 -1.46875 C 1.101562 -1.4375 1.15625 -1.390625 1.1875 -1.328125 C 1.226562 -1.265625 1.25 -1.191406 1.25 -1.109375 C 1.25 -1.015625 1.222656 -0.9375 1.171875 -0.875 C 1.128906 -0.8125 1.054688 -0.765625 0.953125 -0.734375 L 0.953125 -0.71875 C 1.003906 -0.695312 1.046875 -0.664062 1.078125 -0.625 C 1.109375 -0.582031 1.132812 -0.519531 1.15625 -0.4375 L 1.296875 0 L 1.109375 0 L 0.96875 -0.46875 C 0.945312 -0.519531 0.925781 -0.5625 0.90625 -0.59375 C 0.882812 -0.625 0.851562 -0.644531 0.8125 -0.65625 C 0.78125 -0.675781 0.734375 -0.6875 0.671875 -0.6875 L 0.40625 -0.6875 L 0.40625 0 Z M 0.78125 -0.828125 C 0.875 -0.828125 0.941406 -0.847656 0.984375 -0.890625 C 1.035156 -0.941406 1.0625 -1.007812 1.0625 -1.09375 C 1.0625 -1.1875 1.035156 -1.253906 0.984375 -1.296875 C 0.941406 -1.335938 0.875 -1.359375 0.78125 -1.359375 L 0.40625 -1.359375 L 0.40625 -0.828125 Z M 0.78125 -0.828125 "></path></g></g></g><g fill="#ffffff" fill-opacity="1"><g transform="translate(47.972768, 25.795406)"><g><path d="M 1.125 -1.515625 L 1.125 -1.375 L 0.40625 -1.375 L 0.40625 -0.8125 L 1.046875 -0.8125 L 1.046875 -0.671875 L 0.40625 -0.671875 L 0.40625 0 L 0.234375 0 L 0.234375 -1.515625 Z M 1.125 -1.515625 "></path></g></g></g><g fill="#ffffff" fill-opacity="1"><g transform="translate(49.943991, 25.795406)"><g><path d="M 0.828125 0.015625 C 0.703125 0.015625 0.585938 -0.0078125 0.484375 -0.0625 C 0.378906 -0.113281 0.296875 -0.195312 0.234375 -0.3125 C 0.179688 -0.4375 0.15625 -0.585938 0.15625 -0.765625 C 0.15625 -0.929688 0.179688 -1.070312 0.234375 -1.1875 C 0.296875 -1.3125 0.378906 -1.398438 0.484375 -1.453125 C 0.585938 -1.503906 0.703125 -1.53125 0.828125 -1.53125 C 0.960938 -1.53125 1.082031 -1.503906 1.1875 -1.453125 C 1.289062 -1.398438 1.367188 -1.3125 1.421875 -1.1875 C 1.484375 -1.070312 1.515625 -0.929688 1.515625 -0.765625 C 1.515625 -0.585938 1.484375 -0.4375 1.421875 -0.3125 C 1.367188 -0.195312 1.289062 -0.113281 1.1875 -0.0625 C 1.082031 -0.0078125 0.960938 0.015625 0.828125 0.015625 Z M 0.828125 -0.140625 C 0.984375 -0.140625 1.101562 -0.1875 1.1875 -0.28125 C 1.28125 -0.382812 1.328125 -0.546875 1.328125 -0.765625 C 1.328125 -0.972656 1.28125 -1.125 1.1875 -1.21875 C 1.101562 -1.320312 0.984375 -1.375 0.828125 -1.375 C 0.503906 -1.375 0.34375 -1.171875 0.34375 -0.765625 C 0.34375 -0.347656 0.503906 -0.140625 0.828125 -0.140625 Z M 0.828125 -0.140625 "></path></g></g></g><g fill="#ffffff" fill-opacity="1"><g transform="translate(52.376804, 25.795406)"><g><path d="M 0.234375 0 L 0.234375 -1.515625 L 0.78125 -1.515625 C 0.882812 -1.515625 0.96875 -1.5 1.03125 -1.46875 C 1.101562 -1.4375 1.15625 -1.390625 1.1875 -1.328125 C 1.226562 -1.265625 1.25 -1.191406 1.25 -1.109375 C 1.25 -1.015625 1.222656 -0.9375 1.171875 -0.875 C 1.128906 -0.8125 1.054688 -0.765625 0.953125 -0.734375 L 0.953125 -0.71875 C 1.003906 -0.695312 1.046875 -0.664062 1.078125 -0.625 C 1.109375 -0.582031 1.132812 -0.519531 1.15625 -0.4375 L 1.296875 0 L 1.109375 0 L 0.96875 -0.46875 C 0.945312 -0.519531 0.925781 -0.5625 0.90625 -0.59375 C 0.882812 -0.625 0.851562 -0.644531 0.8125 -0.65625 C 0.78125 -0.675781 0.734375 -0.6875 0.671875 -0.6875 L 0.40625 -0.6875 L 0.40625 0 Z M 0.78125 -0.828125 C 0.875 -0.828125 0.941406 -0.847656 0.984375 -0.890625 C 1.035156 -0.941406 1.0625 -1.007812 1.0625 -1.09375 C 1.0625 -1.1875 1.035156 -1.253906 0.984375 -1.296875 C 0.941406 -1.335938 0.875 -1.359375 0.78125 -1.359375 L 0.40625 -1.359375 L 0.40625 -0.828125 Z M 0.78125 -0.828125 "></path></g></g></g><g fill="#ffffff" fill-opacity="1"><g transform="translate(54.550297, 25.795406)"><g><path d="M 0.390625 0 L 0.234375 0 L 0.234375 -1.515625 L 0.5 -1.515625 L 0.953125 -0.234375 L 0.96875 -0.234375 L 1.4375 -1.515625 L 1.6875 -1.515625 L 1.6875 0 L 1.515625 0 L 1.515625 -1.234375 L 1.5 -1.234375 L 1.046875 0 L 0.875 0 L 0.421875 -1.234375 L 0.390625 -1.234375 Z M 0.390625 0 "></path></g></g></g><g fill="#ffffff" fill-opacity="1"><g transform="translate(57.239319, 25.795406)"><g><path d="M 1.359375 0 L 1.171875 0 L 1.03125 -0.421875 L 0.390625 -0.421875 L 0.25 0 L 0.0625 0 L 0.59375 -1.515625 L 0.84375 -1.515625 Z M 0.703125 -1.328125 L 0.4375 -0.5625 L 0.984375 -0.5625 L 0.71875 -1.328125 Z M 0.703125 -1.328125 "></path></g></g></g><g fill="#ffffff" fill-opacity="1"><g transform="translate(59.433557, 25.795406)"><g><path d="M 0.40625 0 L 0.234375 0 L 0.234375 -1.515625 L 0.453125 -1.515625 L 1.1875 -0.359375 L 1.21875 -0.359375 L 1.21875 -1.515625 L 1.390625 -1.515625 L 1.390625 0 L 1.203125 0 L 0.421875 -1.234375 L 0.40625 -1.234375 Z M 0.40625 0 "></path></g></g></g><g fill="#ffffff" fill-opacity="1"><g transform="translate(61.819693, 25.795406)"><g><path d="M 0.84375 0.015625 C 0.707031 0.015625 0.585938 -0.0078125 0.484375 -0.0625 C 0.378906 -0.125 0.296875 -0.210938 0.234375 -0.328125 C 0.179688 -0.453125 0.15625 -0.597656 0.15625 -0.765625 C 0.15625 -0.921875 0.179688 -1.054688 0.234375 -1.171875 C 0.296875 -1.296875 0.378906 -1.382812 0.484375 -1.4375 C 0.585938 -1.5 0.707031 -1.53125 0.84375 -1.53125 C 0.976562 -1.53125 1.09375 -1.503906 1.1875 -1.453125 C 1.28125 -1.398438 1.347656 -1.320312 1.390625 -1.21875 L 1.28125 -1.140625 L 1.25 -1.140625 C 1.207031 -1.222656 1.15625 -1.28125 1.09375 -1.3125 C 1.03125 -1.351562 0.945312 -1.375 0.84375 -1.375 C 0.738281 -1.375 0.648438 -1.351562 0.578125 -1.3125 C 0.503906 -1.269531 0.445312 -1.203125 0.40625 -1.109375 C 0.363281 -1.015625 0.34375 -0.898438 0.34375 -0.765625 C 0.34375 -0.617188 0.363281 -0.5 0.40625 -0.40625 C 0.445312 -0.3125 0.503906 -0.242188 0.578125 -0.203125 C 0.648438 -0.160156 0.738281 -0.140625 0.84375 -0.140625 C 0.945312 -0.140625 1.035156 -0.160156 1.109375 -0.203125 C 1.179688 -0.253906 1.234375 -0.335938 1.265625 -0.453125 L 1.296875 -0.453125 L 1.40625 -0.390625 C 1.375 -0.253906 1.304688 -0.148438 1.203125 -0.078125 C 1.109375 -0.015625 0.988281 0.015625 0.84375 0.015625 Z M 0.84375 0.015625 "></path></g></g></g><g fill="#ffffff" fill-opacity="1"><g transform="translate(64.076168, 25.795406)"><g><path d="M 0.40625 -0.71875 L 0.40625 -0.140625 L 1.1875 -0.140625 L 1.1875 0 L 0.234375 0 L 0.234375 -1.515625 L 1.171875 -1.515625 L 1.171875 -1.375 L 0.40625 -1.375 L 0.40625 -0.859375 L 1.078125 -0.859375 L 1.078125 -0.71875 Z M 0.40625 -0.71875 "></path></g></g></g></svg>