<svg xmlns="http://www.w3.org/2000/svg" xmlns:xlink="http://www.w3.org/1999/xlink" width="500" viewBox="0 0 375 374.999991" height="500" preserveAspectRatio="xMidYMid meet"><defs><g></g><clipPath id="25eae52de7"><path d="M 63.449219 111.6875 L 309 111.6875 L 309 147 L 63.449219 147 Z M 63.449219 111.6875 " clip-rule="nonzero"></path></clipPath><clipPath id="9106c85317"><path d="M 229 142 L 311.546875 142 L 311.546875 161.9375 L 229 161.9375 Z M 229 142 " clip-rule="nonzero"></path></clipPath></defs><g clip-path="url(#25eae52de7)"><path fill="#f7f8fd" d="M 288.871094 136.742188 C 285.808594 136.164062 282.78125 135.40625 279.800781 134.480469 C 276.824219 133.542969 273.882812 132.472656 270.96875 131.292969 C 268.0625 130.105469 265.167969 128.839844 262.273438 127.523438 L 253.511719 123.515625 C 250.554688 122.171875 247.546875 120.851562 244.445312 119.597656 C 243.664062 119.289062 242.894531 118.972656 242.101562 118.675781 L 240.917969 118.226562 L 239.71875 117.789062 C 238.925781 117.496094 238.105469 117.226562 237.300781 116.941406 C 236.898438 116.804688 236.484375 116.675781 236.074219 116.539062 C 235.664062 116.410156 235.257812 116.269531 234.839844 116.148438 C 234.007812 115.894531 233.183594 115.636719 232.335938 115.410156 C 231.914062 115.292969 231.496094 115.171875 231.070312 115.058594 L 229.789062 114.738281 C 228.9375 114.527344 228.085938 114.304688 227.21875 114.128906 L 225.925781 113.851562 C 225.492188 113.761719 225.0625 113.660156 224.625 113.589844 L 222.011719 113.121094 L 219.375 112.726562 C 219.15625 112.695312 218.9375 112.660156 218.71875 112.632812 L 218.054688 112.554688 L 216.730469 112.398438 C 216.289062 112.351562 215.851562 112.289062 215.40625 112.253906 L 214.078125 112.136719 C 210.535156 111.824219 206.980469 111.683594 203.4375 111.71875 C 199.898438 111.753906 196.371094 111.925781 192.882812 112.242188 C 185.898438 112.871094 179.0625 114.054688 172.421875 115.582031 C 165.785156 117.132812 159.335938 119.035156 153.089844 121.226562 C 149.964844 122.320312 146.882812 123.472656 143.863281 124.703125 C 140.835938 125.925781 137.859375 127.210938 134.933594 128.550781 C 141.199219 126.457031 147.511719 124.476562 153.9375 122.777344 C 160.351562 121.054688 166.871094 119.601562 173.457031 118.46875 C 176.75 117.902344 180.066406 117.449219 183.386719 117.074219 C 185.042969 116.878906 186.710938 116.738281 188.371094 116.59375 L 190.871094 116.421875 C 191.703125 116.367188 192.535156 116.339844 193.367188 116.296875 C 196.695312 116.160156 200.023438 116.128906 203.328125 116.242188 L 205.804688 116.355469 C 206.628906 116.40625 207.449219 116.472656 208.269531 116.53125 L 208.882812 116.578125 L 209.496094 116.636719 L 210.71875 116.753906 C 211.125 116.796875 211.535156 116.828125 211.941406 116.875 L 213.15625 117.03125 L 214.371094 117.183594 C 214.777344 117.226562 215.175781 117.304688 215.578125 117.363281 L 216.78125 117.550781 L 217.382812 117.640625 C 217.582031 117.671875 217.777344 117.714844 217.976562 117.75 L 220.355469 118.195312 L 222.703125 118.710938 C 223.097656 118.789062 223.480469 118.894531 223.867188 118.992188 L 225.027344 119.28125 C 225.804688 119.464844 226.558594 119.691406 227.320312 119.910156 L 228.457031 120.234375 C 228.835938 120.34375 229.210938 120.46875 229.582031 120.585938 C 230.335938 120.816406 231.074219 121.078125 231.820312 121.328125 C 237.757812 123.378906 243.433594 126.003906 249.128906 128.761719 C 254.824219 131.519531 260.554688 134.429688 266.703125 137.050781 C 267.878906 137.550781 269.074219 138.039062 270.28125 138.511719 C 266.640625 138.792969 262.984375 139.003906 259.320312 139.160156 L 255.84375 139.285156 L 252.359375 139.371094 C 251.199219 139.40625 250.035156 139.40625 248.871094 139.421875 L 247.128906 139.441406 C 246.546875 139.445312 245.964844 139.441406 245.382812 139.441406 C 240.726562 139.460938 236.0625 139.363281 231.390625 139.222656 C 226.722656 139.085938 222.046875 138.871094 217.371094 138.613281 C 212.695312 138.351562 208.015625 138.054688 203.332031 137.707031 C 193.960938 137.039062 184.582031 136.226562 175.175781 135.433594 C 165.769531 134.640625 156.335938 133.847656 146.863281 133.207031 L 143.308594 132.972656 C 142.125 132.894531 140.9375 132.820312 139.75 132.75 C 137.375 132.609375 134.992188 132.488281 132.609375 132.378906 C 131.417969 132.324219 130.21875 132.28125 129.027344 132.234375 L 125.4375 132.121094 C 124.238281 132.097656 123.042969 132.070312 121.84375 132.058594 L 120.042969 132.046875 C 119.445312 132.042969 118.84375 132.039062 118.242188 132.046875 C 117.042969 132.054688 115.84375 132.050781 114.640625 132.078125 L 112.839844 132.113281 C 112.238281 132.128906 111.636719 132.152344 111.039062 132.171875 L 109.238281 132.242188 L 107.4375 132.335938 C 106.238281 132.390625 105.039062 132.484375 103.839844 132.566406 C 99.050781 132.914062 94.289062 133.496094 89.601562 134.316406 C 84.917969 135.152344 80.332031 136.253906 75.925781 137.660156 C 71.519531 139.0625 67.289062 140.753906 63.382812 142.773438 C 71.824219 139.523438 80.929688 137.488281 90.15625 136.480469 C 99.402344 135.453125 108.773438 135.433594 118.09375 135.855469 C 118.675781 135.878906 119.261719 135.910156 119.84375 135.945312 L 121.59375 136.046875 C 122.757812 136.113281 123.925781 136.203125 125.089844 136.273438 L 128.585938 136.535156 C 129.753906 136.632812 130.917969 136.722656 132.082031 136.828125 C 134.414062 137.039062 136.746094 137.257812 139.082031 137.496094 C 141.414062 137.722656 143.753906 137.96875 146.089844 138.210938 C 155.429688 139.207031 164.773438 140.277344 174.148438 141.324219 C 192.890625 143.40625 211.792969 145.359375 230.964844 146.101562 C 240.546875 146.476562 250.1875 146.527344 259.835938 146.132812 C 264.65625 145.917969 269.480469 145.621094 274.285156 145.167969 C 279.09375 144.714844 283.882812 144.128906 288.644531 143.414062 L 308.511719 140.433594 Z M 288.871094 136.742188 " fill-opacity="1" fill-rule="nonzero"></path></g><g clip-path="url(#9106c85317)"><path fill="#ff1616" d="M 236.144531 157.074219 C 243.550781 158.691406 251.058594 159.886719 258.609375 160.578125 C 268.074219 161.445312 277.71875 161.566406 287.128906 160.046875 C 291.703125 159.308594 296.238281 158.167969 300.523438 156.390625 C 304.042969 154.933594 310.699219 152.566406 311.332031 148.195312 C 311.558594 146.644531 311.617188 144.300781 309.667969 143.089844 C 307.15625 141.53125 303.789062 143.105469 301.4375 143.996094 C 298.628906 145.066406 295.863281 146.199219 292.832031 147.03125 C 289.042969 148.066406 285.128906 148.929688 281.171875 149.695312 C 276.710938 150.558594 272.171875 151.335938 267.582031 151.914062 C 269.847656 152.289062 273.609375 152.796875 275.640625 153.050781 C 278.074219 153.351562 280.519531 153.617188 282.976562 153.832031 C 285.5625 154.054688 288.234375 154.222656 290.90625 154.3125 C 279.011719 156.699219 258.746094 158.792969 229.28125 155.410156 C 231.59375 156.003906 233.910156 156.582031 236.144531 157.074219 Z M 236.144531 157.074219 " fill-opacity="1" fill-rule="nonzero"></path></g><g fill="#f7f8fd" fill-opacity="1"><g transform="translate(93.589064, 211.025305)"><g><path d="M 24.015625 -25.125 C 24.140625 -25.125 24.3125 -25.066406 24.53125 -24.953125 C 24.757812 -24.835938 24.875 -24.535156 24.875 -24.046875 L 24.875 -3.90625 C 24.875 -2.414062 24.660156 -1.398438 24.234375 -0.859375 C 23.804688 -0.265625 23.144531 0.03125 22.25 0.03125 L 20.03125 0.03125 C 19.625 0.03125 19.273438 0 18.984375 -0.0625 C 18.847656 -0.101562 18.707031 -0.148438 18.5625 -0.203125 C 18.425781 -0.253906 18.296875 -0.316406 18.171875 -0.390625 C 17.921875 -0.535156 17.695312 -0.757812 17.5 -1.0625 C 17.394531 -1.207031 17.28125 -1.367188 17.15625 -1.546875 C 17.039062 -1.734375 16.921875 -1.945312 16.796875 -2.1875 L 7.140625 -19.328125 C 7.117188 -19.367188 7.097656 -19.394531 7.078125 -19.40625 C 7.054688 -19.414062 7.046875 -19.421875 7.046875 -19.421875 L 6.890625 -19.421875 C 6.890625 -19.421875 6.890625 -19.414062 6.890625 -19.40625 C 6.890625 -19.394531 6.890625 -19.378906 6.890625 -19.359375 L 6.890625 -1.03125 C 6.890625 -0.5625 6.78125 -0.265625 6.5625 -0.140625 C 6.351562 -0.0234375 6.175781 0.03125 6.03125 0.03125 L 3.328125 0.03125 C 3.179688 0.03125 2.992188 -0.0234375 2.765625 -0.140625 C 2.546875 -0.265625 2.4375 -0.5625 2.4375 -1.03125 L 2.4375 -21.1875 C 2.4375 -22.664062 2.648438 -23.691406 3.078125 -24.265625 C 3.523438 -24.835938 4.1875 -25.125 5.0625 -25.125 L 7.34375 -25.125 C 7.550781 -25.125 7.742188 -25.117188 7.921875 -25.109375 C 8.109375 -25.097656 8.269531 -25.082031 8.40625 -25.0625 C 8.738281 -25 9.023438 -24.875 9.265625 -24.6875 C 9.472656 -24.550781 9.6875 -24.316406 9.90625 -23.984375 C 10.007812 -23.847656 10.113281 -23.6875 10.21875 -23.5 C 10.332031 -23.320312 10.453125 -23.117188 10.578125 -22.890625 L 20.21875 -5.765625 C 20.226562 -5.703125 20.253906 -5.671875 20.296875 -5.671875 L 20.453125 -5.671875 C 20.453125 -5.691406 20.453125 -5.703125 20.453125 -5.703125 C 20.453125 -5.703125 20.453125 -5.710938 20.453125 -5.734375 L 20.453125 -24.046875 C 20.453125 -24.535156 20.554688 -24.835938 20.765625 -24.953125 C 20.984375 -25.066406 21.164062 -25.125 21.3125 -25.125 Z M 24.015625 -25.125 "></path></g></g></g><g fill="#f7f8fd" fill-opacity="1"><g transform="translate(120.890713, 211.025305)"><g><path d="M 23.203125 -22.890625 C 23.785156 -22.160156 24.222656 -21.164062 24.515625 -19.90625 C 24.628906 -19.3125 24.722656 -18.648438 24.796875 -17.921875 C 24.867188 -17.191406 24.90625 -16.410156 24.90625 -15.578125 L 24.90625 -9.546875 C 24.90625 -8.691406 24.867188 -7.894531 24.796875 -7.15625 C 24.722656 -6.425781 24.628906 -5.769531 24.515625 -5.1875 C 24.222656 -3.945312 23.785156 -2.941406 23.203125 -2.171875 C 22.566406 -1.367188 21.773438 -0.804688 20.828125 -0.484375 C 19.847656 -0.140625 18.695312 0.03125 17.375 0.03125 L 9.9375 0.03125 C 8.59375 0.03125 7.457031 -0.140625 6.53125 -0.484375 C 5.570312 -0.804688 4.773438 -1.375 4.140625 -2.1875 C 3.535156 -2.988281 3.097656 -3.988281 2.828125 -5.1875 C 2.691406 -5.769531 2.59375 -6.425781 2.53125 -7.15625 C 2.46875 -7.894531 2.4375 -8.691406 2.4375 -9.546875 L 2.4375 -15.578125 C 2.4375 -17.328125 2.566406 -18.769531 2.828125 -19.90625 C 3.097656 -21.101562 3.535156 -22.097656 4.140625 -22.890625 C 4.773438 -23.660156 5.570312 -24.226562 6.53125 -24.59375 C 7.5 -24.945312 8.632812 -25.125 9.9375 -25.125 L 17.375 -25.125 C 18.695312 -25.125 19.847656 -24.945312 20.828125 -24.59375 C 21.773438 -24.226562 22.566406 -23.660156 23.203125 -22.890625 Z M 20.359375 -16.09375 C 20.359375 -16.539062 20.347656 -16.953125 20.328125 -17.328125 C 20.304688 -17.703125 20.269531 -18.046875 20.21875 -18.359375 C 20.132812 -18.921875 19.957031 -19.375 19.6875 -19.71875 C 19.488281 -20.007812 19.1875 -20.234375 18.78125 -20.390625 C 18.570312 -20.453125 18.34375 -20.503906 18.09375 -20.546875 C 17.84375 -20.585938 17.550781 -20.609375 17.21875 -20.609375 L 10.09375 -20.609375 C 9.769531 -20.609375 9.476562 -20.585938 9.21875 -20.546875 C 8.96875 -20.503906 8.738281 -20.453125 8.53125 -20.390625 C 8.125 -20.234375 7.820312 -20.007812 7.625 -19.71875 C 7.5 -19.5625 7.394531 -19.363281 7.3125 -19.125 C 7.226562 -18.894531 7.160156 -18.640625 7.109375 -18.359375 C 7.066406 -18.046875 7.03125 -17.703125 7 -17.328125 C 6.96875 -16.953125 6.953125 -16.539062 6.953125 -16.09375 L 6.953125 -9 C 6.953125 -8.550781 6.96875 -8.132812 7 -7.75 C 7.03125 -7.375 7.066406 -7.035156 7.109375 -6.734375 C 7.160156 -6.472656 7.226562 -6.222656 7.3125 -5.984375 C 7.394531 -5.753906 7.5 -5.554688 7.625 -5.390625 C 7.820312 -5.066406 8.125 -4.84375 8.53125 -4.71875 C 8.894531 -4.582031 9.414062 -4.515625 10.09375 -4.515625 L 17.21875 -4.515625 C 17.894531 -4.515625 18.414062 -4.582031 18.78125 -4.71875 C 19.1875 -4.84375 19.488281 -5.066406 19.6875 -5.390625 C 19.9375 -5.703125 20.113281 -6.148438 20.21875 -6.734375 C 20.269531 -7.035156 20.304688 -7.375 20.328125 -7.75 C 20.347656 -8.132812 20.359375 -8.550781 20.359375 -9 Z M 20.359375 -16.09375 "></path></g></g></g><g fill="#f7f8fd" fill-opacity="1"><g transform="translate(148.222833, 211.025305)"><g><path d="M 23.234375 -17.828125 L 23.234375 -17.65625 C 23.234375 -17.675781 23.234375 -17.691406 23.234375 -17.703125 C 23.234375 -17.710938 23.234375 -17.722656 23.234375 -17.734375 C 23.234375 -17.753906 23.234375 -17.769531 23.234375 -17.78125 C 23.234375 -17.789062 23.234375 -17.804688 23.234375 -17.828125 Z M 23.8125 -1.3125 C 23.925781 -1.144531 23.96875 -0.898438 23.9375 -0.578125 C 23.875 -0.171875 23.640625 0.03125 23.234375 0.03125 L 19.875 0.03125 C 19.613281 0.03125 19.398438 -0.03125 19.234375 -0.15625 C 19.171875 -0.195312 19.113281 -0.253906 19.0625 -0.328125 C 19.007812 -0.410156 18.957031 -0.492188 18.90625 -0.578125 L 13.375 -10.359375 L 6.953125 -10.359375 L 6.953125 -1.03125 C 6.953125 -0.5625 6.84375 -0.265625 6.625 -0.140625 C 6.414062 -0.0234375 6.238281 0.03125 6.09375 0.03125 L 3.328125 0.03125 C 3.179688 0.03125 2.992188 -0.0234375 2.765625 -0.140625 C 2.546875 -0.265625 2.4375 -0.5625 2.4375 -1.03125 L 2.4375 -13.84375 C 2.4375 -14.3125 2.546875 -14.597656 2.765625 -14.703125 C 2.992188 -14.816406 3.179688 -14.875 3.328125 -14.875 L 16.578125 -14.875 C 17.347656 -14.875 17.890625 -15.097656 18.203125 -15.546875 C 18.523438 -15.992188 18.6875 -16.722656 18.6875 -17.734375 C 18.6875 -18.753906 18.523438 -19.488281 18.203125 -19.9375 C 17.890625 -20.382812 17.347656 -20.609375 16.578125 -20.609375 L 3.328125 -20.609375 C 3.179688 -20.609375 2.992188 -20.660156 2.765625 -20.765625 C 2.546875 -20.878906 2.4375 -21.171875 2.4375 -21.640625 L 2.4375 -24.046875 C 2.4375 -24.535156 2.546875 -24.835938 2.765625 -24.953125 C 2.992188 -25.066406 3.179688 -25.125 3.328125 -25.125 L 17.375 -25.125 C 19.46875 -25.125 20.972656 -24.472656 21.890625 -23.171875 C 22.765625 -21.910156 23.210938 -20.097656 23.234375 -17.734375 C 23.210938 -15.378906 22.765625 -13.570312 21.890625 -12.3125 C 21.117188 -11.257812 19.976562 -10.640625 18.46875 -10.453125 Z M 23.8125 -1.3125 "></path></g></g></g><g fill="#f7f8fd" fill-opacity="1"><g transform="translate(174.610334, 211.025305)"><g><path d="M 39.265625 -25.484375 C 39.503906 -25.484375 39.671875 -25.429688 39.765625 -25.328125 C 39.859375 -25.234375 39.914062 -25.132812 39.9375 -25.03125 C 40 -24.820312 39.976562 -24.578125 39.875 -24.296875 L 33.078125 -3.203125 C 32.628906 -2.085938 32.179688 -1.332031 31.734375 -0.9375 C 31.671875 -0.90625 31.601562 -0.859375 31.53125 -0.796875 C 31.457031 -0.734375 31.375 -0.679688 31.28125 -0.640625 C 30.664062 -0.210938 29.960938 0 29.171875 0 C 28.335938 0 27.578125 -0.253906 26.890625 -0.765625 C 26.210938 -1.273438 25.765625 -1.925781 25.546875 -2.71875 C 25.523438 -2.769531 25.492188 -2.835938 25.453125 -2.921875 C 25.410156 -3.003906 25.367188 -3.085938 25.328125 -3.171875 L 21.125 -17.21875 L 16.609375 -3.203125 C 16.390625 -2.628906 16.164062 -2.160156 15.9375 -1.796875 C 15.71875 -1.429688 15.492188 -1.144531 15.265625 -0.9375 C 15.191406 -0.90625 15.125 -0.859375 15.0625 -0.796875 C 15 -0.734375 14.914062 -0.679688 14.8125 -0.640625 C 14.207031 -0.210938 13.507812 0 12.71875 0 C 11.882812 0 11.125 -0.253906 10.4375 -0.765625 C 9.757812 -1.273438 9.304688 -1.925781 9.078125 -2.71875 C 9.054688 -2.769531 9.023438 -2.835938 8.984375 -2.921875 C 8.953125 -3.003906 8.914062 -3.085938 8.875 -3.171875 L 2.5625 -24.296875 C 2.457031 -24.535156 2.4375 -24.78125 2.5 -25.03125 C 2.519531 -25.113281 2.570312 -25.207031 2.65625 -25.3125 C 2.738281 -25.425781 2.898438 -25.484375 3.140625 -25.484375 L 6.40625 -25.484375 C 6.832031 -25.484375 7.125 -25.257812 7.28125 -24.8125 L 12.625 -6.5 C 12.625 -6.476562 12.628906 -6.460938 12.640625 -6.453125 C 12.648438 -6.441406 12.65625 -6.4375 12.65625 -6.4375 L 12.765625 -6.46875 C 12.765625 -6.46875 12.765625 -6.472656 12.765625 -6.484375 C 12.765625 -6.492188 12.773438 -6.507812 12.796875 -6.53125 L 18.5625 -24.8125 C 18.75 -25.257812 19.046875 -25.484375 19.453125 -25.484375 L 22.890625 -25.484375 C 23.296875 -25.484375 23.582031 -25.257812 23.75 -24.8125 L 29.078125 -6.5 C 29.078125 -6.476562 29.082031 -6.460938 29.09375 -6.453125 C 29.101562 -6.441406 29.109375 -6.4375 29.109375 -6.4375 L 29.234375 -6.46875 C 29.234375 -6.46875 29.234375 -6.472656 29.234375 -6.484375 C 29.234375 -6.492188 29.242188 -6.507812 29.265625 -6.53125 L 35.03125 -24.8125 C 35.207031 -25.257812 35.5 -25.484375 35.90625 -25.484375 Z M 39.265625 -25.484375 "></path></g></g></g><g fill="#f7f8fd" fill-opacity="1"><g transform="translate(217.025882, 211.025305)"><g><path d="M 6.09375 -25.125 C 6.21875 -25.125 6.390625 -25.0625 6.609375 -24.9375 C 6.835938 -24.8125 6.953125 -24.515625 6.953125 -24.046875 L 6.953125 -1.03125 C 6.953125 -0.5625 6.835938 -0.265625 6.609375 -0.140625 C 6.390625 -0.0234375 6.21875 0.03125 6.09375 0.03125 L 3.296875 0.03125 C 3.171875 0.03125 2.992188 -0.0234375 2.765625 -0.140625 C 2.546875 -0.265625 2.4375 -0.5625 2.4375 -1.03125 L 2.4375 -24.046875 C 2.4375 -24.515625 2.546875 -24.8125 2.765625 -24.9375 C 2.992188 -25.0625 3.171875 -25.125 3.296875 -25.125 Z M 6.09375 -25.125 "></path></g></g></g><g fill="#f7f8fd" fill-opacity="1"><g transform="translate(226.41024, 211.025305)"><g><path d="M 24.015625 -25.125 C 24.140625 -25.125 24.3125 -25.066406 24.53125 -24.953125 C 24.757812 -24.835938 24.875 -24.535156 24.875 -24.046875 L 24.875 -3.90625 C 24.875 -2.414062 24.660156 -1.398438 24.234375 -0.859375 C 23.804688 -0.265625 23.144531 0.03125 22.25 0.03125 L 20.03125 0.03125 C 19.625 0.03125 19.273438 0 18.984375 -0.0625 C 18.847656 -0.101562 18.707031 -0.148438 18.5625 -0.203125 C 18.425781 -0.253906 18.296875 -0.316406 18.171875 -0.390625 C 17.921875 -0.535156 17.695312 -0.757812 17.5 -1.0625 C 17.394531 -1.207031 17.28125 -1.367188 17.15625 -1.546875 C 17.039062 -1.734375 16.921875 -1.945312 16.796875 -2.1875 L 7.140625 -19.328125 C 7.117188 -19.367188 7.097656 -19.394531 7.078125 -19.40625 C 7.054688 -19.414062 7.046875 -19.421875 7.046875 -19.421875 L 6.890625 -19.421875 C 6.890625 -19.421875 6.890625 -19.414062 6.890625 -19.40625 C 6.890625 -19.394531 6.890625 -19.378906 6.890625 -19.359375 L 6.890625 -1.03125 C 6.890625 -0.5625 6.78125 -0.265625 6.5625 -0.140625 C 6.351562 -0.0234375 6.175781 0.03125 6.03125 0.03125 L 3.328125 0.03125 C 3.179688 0.03125 2.992188 -0.0234375 2.765625 -0.140625 C 2.546875 -0.265625 2.4375 -0.5625 2.4375 -1.03125 L 2.4375 -21.1875 C 2.4375 -22.664062 2.648438 -23.691406 3.078125 -24.265625 C 3.523438 -24.835938 4.1875 -25.125 5.0625 -25.125 L 7.34375 -25.125 C 7.550781 -25.125 7.742188 -25.117188 7.921875 -25.109375 C 8.109375 -25.097656 8.269531 -25.082031 8.40625 -25.0625 C 8.738281 -25 9.023438 -24.875 9.265625 -24.6875 C 9.472656 -24.550781 9.6875 -24.316406 9.90625 -23.984375 C 10.007812 -23.847656 10.113281 -23.6875 10.21875 -23.5 C 10.332031 -23.320312 10.453125 -23.117188 10.578125 -22.890625 L 20.21875 -5.765625 C 20.226562 -5.703125 20.253906 -5.671875 20.296875 -5.671875 L 20.453125 -5.671875 C 20.453125 -5.691406 20.453125 -5.703125 20.453125 -5.703125 C 20.453125 -5.703125 20.453125 -5.710938 20.453125 -5.734375 L 20.453125 -24.046875 C 20.453125 -24.535156 20.554688 -24.835938 20.765625 -24.953125 C 20.984375 -25.066406 21.164062 -25.125 21.3125 -25.125 Z M 24.015625 -25.125 "></path></g></g></g><g fill="#f7f8fd" fill-opacity="1"><g transform="translate(253.711894, 211.025305)"><g><path d="M 23.265625 -19.453125 C 23.566406 -18.171875 23.71875 -16.664062 23.71875 -14.9375 L 23.71875 -10.15625 C 23.71875 -8.425781 23.566406 -6.921875 23.265625 -5.640625 C 23.117188 -5.003906 22.914062 -4.414062 22.65625 -3.875 C 22.40625 -3.34375 22.117188 -2.875 21.796875 -2.46875 C 21.128906 -1.613281 20.265625 -0.984375 19.203125 -0.578125 C 18.171875 -0.171875 16.941406 0.03125 15.515625 0.03125 L 5.09375 0.03125 C 4.625 0.03125 4.179688 -0.0820312 3.765625 -0.3125 C 3.347656 -0.550781 3.019531 -0.875 2.78125 -1.28125 C 2.613281 -1.5625 2.5 -1.875 2.4375 -2.21875 L 2.46875 -23.046875 C 2.507812 -23.171875 2.554688 -23.296875 2.609375 -23.421875 C 2.660156 -23.554688 2.71875 -23.6875 2.78125 -23.8125 C 3.257812 -24.601562 3.957031 -25.03125 4.875 -25.09375 L 4.875 -25.125 L 15.515625 -25.125 C 16.921875 -25.125 18.148438 -24.921875 19.203125 -24.515625 C 20.242188 -24.109375 21.109375 -23.488281 21.796875 -22.65625 C 22.117188 -22.226562 22.40625 -21.75 22.65625 -21.21875 C 22.914062 -20.6875 23.117188 -20.097656 23.265625 -19.453125 Z M 6.921875 -4.671875 C 6.921875 -4.609375 6.925781 -4.566406 6.9375 -4.546875 C 6.945312 -4.523438 6.953125 -4.515625 6.953125 -4.515625 L 15.421875 -4.515625 C 15.765625 -4.515625 16.085938 -4.535156 16.390625 -4.578125 C 16.703125 -4.617188 16.976562 -4.675781 17.21875 -4.75 C 17.6875 -4.9375 18.066406 -5.210938 18.359375 -5.578125 C 18.660156 -5.984375 18.867188 -6.507812 18.984375 -7.15625 C 19.046875 -7.507812 19.097656 -7.894531 19.140625 -8.3125 C 19.179688 -8.726562 19.203125 -9.1875 19.203125 -9.6875 L 19.203125 -15.390625 C 19.203125 -15.898438 19.179688 -16.367188 19.140625 -16.796875 C 19.097656 -17.222656 19.046875 -17.609375 18.984375 -17.953125 C 18.867188 -18.609375 18.660156 -19.128906 18.359375 -19.515625 C 18.109375 -19.878906 17.726562 -20.148438 17.21875 -20.328125 C 16.726562 -20.515625 16.128906 -20.609375 15.421875 -20.609375 L 6.984375 -20.609375 C 6.941406 -20.609375 6.921875 -20.546875 6.921875 -20.421875 Z M 6.921875 -4.671875 "></path></g></g></g><g fill="#f7f8fd" fill-opacity="1"><g transform="translate(40.53229, 253.005601)"><g><path d="M 17.375 -25.125 C 19.445312 -25.125 20.941406 -24.472656 21.859375 -23.171875 C 22.753906 -21.953125 23.203125 -20.113281 23.203125 -17.65625 L 23.203125 -17.828125 C 23.203125 -15.410156 22.753906 -13.570312 21.859375 -12.3125 C 20.941406 -11.03125 19.445312 -10.390625 17.375 -10.390625 L 6.953125 -10.359375 L 6.953125 -1.03125 C 6.953125 -0.5625 6.835938 -0.265625 6.609375 -0.140625 C 6.390625 -0.0234375 6.21875 0.03125 6.09375 0.03125 L 3.296875 0.03125 C 3.171875 0.03125 2.992188 -0.0234375 2.765625 -0.140625 C 2.546875 -0.265625 2.4375 -0.5625 2.4375 -1.03125 L 2.4375 -13.84375 C 2.4375 -14.3125 2.546875 -14.597656 2.765625 -14.703125 C 2.992188 -14.816406 3.171875 -14.875 3.296875 -14.875 L 16.578125 -14.875 C 17.347656 -14.875 17.890625 -15.097656 18.203125 -15.546875 C 18.523438 -15.992188 18.6875 -16.722656 18.6875 -17.734375 C 18.6875 -18.753906 18.523438 -19.488281 18.203125 -19.9375 C 17.890625 -20.382812 17.347656 -20.609375 16.578125 -20.609375 L 3.296875 -20.609375 C 3.171875 -20.609375 2.992188 -20.660156 2.765625 -20.765625 C 2.546875 -20.878906 2.4375 -21.171875 2.4375 -21.640625 L 2.4375 -24.046875 C 2.4375 -24.535156 2.546875 -24.835938 2.765625 -24.953125 C 2.992188 -25.066406 3.171875 -25.125 3.296875 -25.125 Z M 17.375 -25.125 "></path></g></g></g><g fill="#f7f8fd" fill-opacity="1"><g transform="translate(66.158009, 253.005601)"><g><path d="M 20.765625 -5.453125 C 20.898438 -5.453125 21.078125 -5.394531 21.296875 -5.28125 C 21.523438 -5.175781 21.640625 -4.890625 21.640625 -4.421875 L 21.640625 -1.0625 C 21.640625 -0.59375 21.523438 -0.300781 21.296875 -0.1875 C 21.078125 -0.0820312 20.898438 -0.03125 20.765625 -0.03125 L 9.9375 -0.03125 C 9.269531 -0.03125 8.648438 -0.0703125 8.078125 -0.15625 C 7.503906 -0.238281 6.988281 -0.367188 6.53125 -0.546875 C 5.53125 -0.890625 4.734375 -1.445312 4.140625 -2.21875 C 3.535156 -3.019531 3.097656 -4.019531 2.828125 -5.21875 C 2.734375 -5.71875 2.648438 -6.269531 2.578125 -6.875 C 2.503906 -7.488281 2.457031 -8.15625 2.4375 -8.875 L 2.4375 -9.015625 L 2.5 -12.859375 C 2.5625 -13.085938 2.671875 -13.34375 2.828125 -13.625 C 3.273438 -14.414062 3.96875 -14.84375 4.90625 -14.90625 L 20.640625 -14.9375 C 20.765625 -14.9375 20.9375 -14.878906 21.15625 -14.765625 C 21.375 -14.660156 21.484375 -14.375 21.484375 -13.90625 L 21.484375 -11.5 C 21.484375 -11.03125 21.375 -10.734375 21.15625 -10.609375 C 20.9375 -10.484375 20.765625 -10.421875 20.640625 -10.421875 L 7.015625 -10.421875 C 7.015625 -10.421875 7.007812 -10.304688 7 -10.078125 C 6.988281 -9.859375 6.976562 -9.609375 6.96875 -9.328125 C 6.957031 -9.046875 6.953125 -8.789062 6.953125 -8.5625 C 6.953125 -8.34375 6.953125 -8.234375 6.953125 -8.234375 C 6.972656 -8.148438 6.984375 -8.0625 6.984375 -7.96875 C 6.984375 -7.875 6.992188 -7.789062 7.015625 -7.71875 C 7.097656 -7.144531 7.269531 -6.6875 7.53125 -6.34375 C 7.769531 -6.039062 8.070312 -5.816406 8.4375 -5.671875 C 8.664062 -5.609375 8.90625 -5.554688 9.15625 -5.515625 C 9.414062 -5.472656 9.707031 -5.453125 10.03125 -5.453125 Z M 5.125 -14.65625 Z M 20.796875 -25.1875 C 20.910156 -25.1875 21.078125 -25.125 21.296875 -25 C 21.523438 -24.875 21.640625 -24.578125 21.640625 -24.109375 L 21.640625 -21.703125 C 21.640625 -21.234375 21.523438 -20.9375 21.296875 -20.8125 C 21.078125 -20.695312 20.910156 -20.640625 20.796875 -20.640625 L 3.265625 -20.671875 C 3.140625 -20.671875 2.96875 -20.722656 2.75 -20.828125 C 2.539062 -20.941406 2.4375 -21.234375 2.4375 -21.703125 L 2.4375 -24.078125 C 2.4375 -24.566406 2.539062 -24.875 2.75 -25 C 2.96875 -25.125 3.140625 -25.1875 3.265625 -25.1875 Z M 20.796875 -25.1875 "></path></g></g></g><g fill="#f7f8fd" fill-opacity="1"><g transform="translate(90.229678, 253.005601)"><g><path d="M 23.234375 -17.828125 L 23.234375 -17.65625 C 23.234375 -17.675781 23.234375 -17.691406 23.234375 -17.703125 C 23.234375 -17.710938 23.234375 -17.722656 23.234375 -17.734375 C 23.234375 -17.753906 23.234375 -17.769531 23.234375 -17.78125 C 23.234375 -17.789062 23.234375 -17.804688 23.234375 -17.828125 Z M 23.8125 -1.3125 C 23.925781 -1.144531 23.96875 -0.898438 23.9375 -0.578125 C 23.875 -0.171875 23.640625 0.03125 23.234375 0.03125 L 19.875 0.03125 C 19.613281 0.03125 19.398438 -0.03125 19.234375 -0.15625 C 19.171875 -0.195312 19.113281 -0.253906 19.0625 -0.328125 C 19.007812 -0.410156 18.957031 -0.492188 18.90625 -0.578125 L 13.375 -10.359375 L 6.953125 -10.359375 L 6.953125 -1.03125 C 6.953125 -0.5625 6.84375 -0.265625 6.625 -0.140625 C 6.414062 -0.0234375 6.238281 0.03125 6.09375 0.03125 L 3.328125 0.03125 C 3.179688 0.03125 2.992188 -0.0234375 2.765625 -0.140625 C 2.546875 -0.265625 2.4375 -0.5625 2.4375 -1.03125 L 2.4375 -13.84375 C 2.4375 -14.3125 2.546875 -14.597656 2.765625 -14.703125 C 2.992188 -14.816406 3.179688 -14.875 3.328125 -14.875 L 16.578125 -14.875 C 17.347656 -14.875 17.890625 -15.097656 18.203125 -15.546875 C 18.523438 -15.992188 18.6875 -16.722656 18.6875 -17.734375 C 18.6875 -18.753906 18.523438 -19.488281 18.203125 -19.9375 C 17.890625 -20.382812 17.347656 -20.609375 16.578125 -20.609375 L 3.328125 -20.609375 C 3.179688 -20.609375 2.992188 -20.660156 2.765625 -20.765625 C 2.546875 -20.878906 2.4375 -21.171875 2.4375 -21.640625 L 2.4375 -24.046875 C 2.4375 -24.535156 2.546875 -24.835938 2.765625 -24.953125 C 2.992188 -25.066406 3.179688 -25.125 3.328125 -25.125 L 17.375 -25.125 C 19.46875 -25.125 20.972656 -24.472656 21.890625 -23.171875 C 22.765625 -21.910156 23.210938 -20.097656 23.234375 -17.734375 C 23.210938 -15.378906 22.765625 -13.570312 21.890625 -12.3125 C 21.117188 -11.257812 19.976562 -10.640625 18.46875 -10.453125 Z M 23.8125 -1.3125 "></path></g></g></g><g fill="#f7f8fd" fill-opacity="1"><g transform="translate(116.61718, 253.005601)"><g><path d="M 20.796875 -25.125 C 20.910156 -25.125 21.078125 -25.066406 21.296875 -24.953125 C 21.523438 -24.835938 21.640625 -24.535156 21.640625 -24.046875 L 21.640625 -21.640625 C 21.640625 -21.171875 21.523438 -20.878906 21.296875 -20.765625 C 21.078125 -20.660156 20.910156 -20.609375 20.796875 -20.609375 L 3.265625 -20.609375 C 3.140625 -20.609375 2.96875 -20.664062 2.75 -20.78125 C 2.539062 -20.90625 2.4375 -21.203125 2.4375 -21.671875 L 2.4375 -24.015625 C 2.4375 -24.503906 2.539062 -24.8125 2.75 -24.9375 C 2.96875 -25.0625 3.140625 -25.125 3.265625 -25.125 Z M 20.640625 -14.90625 C 20.765625 -14.90625 20.9375 -14.84375 21.15625 -14.71875 C 21.375 -14.601562 21.484375 -14.3125 21.484375 -13.84375 L 21.484375 -11.4375 C 21.484375 -10.96875 21.375 -10.675781 21.15625 -10.5625 C 20.9375 -10.445312 20.765625 -10.390625 20.640625 -10.390625 L 7.015625 -10.390625 C 7.015625 -10.390625 7.007812 -10.164062 7 -9.71875 C 6.988281 -9.269531 6.984375 -8.691406 6.984375 -7.984375 C 6.984375 -7.273438 6.976562 -6.519531 6.96875 -5.71875 C 6.957031 -4.914062 6.953125 -4.15625 6.953125 -3.4375 C 6.953125 -2.726562 6.953125 -2.148438 6.953125 -1.703125 C 6.953125 -1.253906 6.953125 -1.03125 6.953125 -1.03125 C 6.953125 -0.5625 6.835938 -0.265625 6.609375 -0.140625 C 6.390625 -0.0234375 6.21875 0.03125 6.09375 0.03125 L 3.296875 0.03125 C 3.171875 0.03125 2.992188 -0.0234375 2.765625 -0.140625 C 2.546875 -0.265625 2.4375 -0.5625 2.4375 -1.03125 L 2.5 -12.796875 C 2.539062 -12.941406 2.585938 -13.078125 2.640625 -13.203125 C 2.691406 -13.335938 2.742188 -13.46875 2.796875 -13.59375 C 3.285156 -14.382812 3.988281 -14.8125 4.90625 -14.875 Z M 20.640625 -14.90625 "></path></g></g></g><g fill="#f7f8fd" fill-opacity="1"><g transform="translate(140.688848, 253.005601)"><g><path d="M 23.203125 -22.890625 C 23.785156 -22.160156 24.222656 -21.164062 24.515625 -19.90625 C 24.628906 -19.3125 24.722656 -18.648438 24.796875 -17.921875 C 24.867188 -17.191406 24.90625 -16.410156 24.90625 -15.578125 L 24.90625 -9.546875 C 24.90625 -8.691406 24.867188 -7.894531 24.796875 -7.15625 C 24.722656 -6.425781 24.628906 -5.769531 24.515625 -5.1875 C 24.222656 -3.945312 23.785156 -2.941406 23.203125 -2.171875 C 22.566406 -1.367188 21.773438 -0.804688 20.828125 -0.484375 C 19.847656 -0.140625 18.695312 0.03125 17.375 0.03125 L 9.9375 0.03125 C 8.59375 0.03125 7.457031 -0.140625 6.53125 -0.484375 C 5.570312 -0.804688 4.773438 -1.375 4.140625 -2.1875 C 3.535156 -2.988281 3.097656 -3.988281 2.828125 -5.1875 C 2.691406 -5.769531 2.59375 -6.425781 2.53125 -7.15625 C 2.46875 -7.894531 2.4375 -8.691406 2.4375 -9.546875 L 2.4375 -15.578125 C 2.4375 -17.328125 2.566406 -18.769531 2.828125 -19.90625 C 3.097656 -21.101562 3.535156 -22.097656 4.140625 -22.890625 C 4.773438 -23.660156 5.570312 -24.226562 6.53125 -24.59375 C 7.5 -24.945312 8.632812 -25.125 9.9375 -25.125 L 17.375 -25.125 C 18.695312 -25.125 19.847656 -24.945312 20.828125 -24.59375 C 21.773438 -24.226562 22.566406 -23.660156 23.203125 -22.890625 Z M 20.359375 -16.09375 C 20.359375 -16.539062 20.347656 -16.953125 20.328125 -17.328125 C 20.304688 -17.703125 20.269531 -18.046875 20.21875 -18.359375 C 20.132812 -18.921875 19.957031 -19.375 19.6875 -19.71875 C 19.488281 -20.007812 19.1875 -20.234375 18.78125 -20.390625 C 18.570312 -20.453125 18.34375 -20.503906 18.09375 -20.546875 C 17.84375 -20.585938 17.550781 -20.609375 17.21875 -20.609375 L 10.09375 -20.609375 C 9.769531 -20.609375 9.476562 -20.585938 9.21875 -20.546875 C 8.96875 -20.503906 8.738281 -20.453125 8.53125 -20.390625 C 8.125 -20.234375 7.820312 -20.007812 7.625 -19.71875 C 7.5 -19.5625 7.394531 -19.363281 7.3125 -19.125 C 7.226562 -18.894531 7.160156 -18.640625 7.109375 -18.359375 C 7.066406 -18.046875 7.03125 -17.703125 7 -17.328125 C 6.96875 -16.953125 6.953125 -16.539062 6.953125 -16.09375 L 6.953125 -9 C 6.953125 -8.550781 6.96875 -8.132812 7 -7.75 C 7.03125 -7.375 7.066406 -7.035156 7.109375 -6.734375 C 7.160156 -6.472656 7.226562 -6.222656 7.3125 -5.984375 C 7.394531 -5.753906 7.5 -5.554688 7.625 -5.390625 C 7.820312 -5.066406 8.125 -4.84375 8.53125 -4.71875 C 8.894531 -4.582031 9.414062 -4.515625 10.09375 -4.515625 L 17.21875 -4.515625 C 17.894531 -4.515625 18.414062 -4.582031 18.78125 -4.71875 C 19.1875 -4.84375 19.488281 -5.066406 19.6875 -5.390625 C 19.9375 -5.703125 20.113281 -6.148438 20.21875 -6.734375 C 20.269531 -7.035156 20.304688 -7.375 20.328125 -7.75 C 20.347656 -8.132812 20.359375 -8.550781 20.359375 -9 Z M 20.359375 -16.09375 "></path></g></g></g><g fill="#f7f8fd" fill-opacity="1"><g transform="translate(168.020966, 253.005601)"><g><path d="M 23.234375 -17.828125 L 23.234375 -17.65625 C 23.234375 -17.675781 23.234375 -17.691406 23.234375 -17.703125 C 23.234375 -17.710938 23.234375 -17.722656 23.234375 -17.734375 C 23.234375 -17.753906 23.234375 -17.769531 23.234375 -17.78125 C 23.234375 -17.789062 23.234375 -17.804688 23.234375 -17.828125 Z M 23.8125 -1.3125 C 23.925781 -1.144531 23.96875 -0.898438 23.9375 -0.578125 C 23.875 -0.171875 23.640625 0.03125 23.234375 0.03125 L 19.875 0.03125 C 19.613281 0.03125 19.398438 -0.03125 19.234375 -0.15625 C 19.171875 -0.195312 19.113281 -0.253906 19.0625 -0.328125 C 19.007812 -0.410156 18.957031 -0.492188 18.90625 -0.578125 L 13.375 -10.359375 L 6.953125 -10.359375 L 6.953125 -1.03125 C 6.953125 -0.5625 6.84375 -0.265625 6.625 -0.140625 C 6.414062 -0.0234375 6.238281 0.03125 6.09375 0.03125 L 3.328125 0.03125 C 3.179688 0.03125 2.992188 -0.0234375 2.765625 -0.140625 C 2.546875 -0.265625 2.4375 -0.5625 2.4375 -1.03125 L 2.4375 -13.84375 C 2.4375 -14.3125 2.546875 -14.597656 2.765625 -14.703125 C 2.992188 -14.816406 3.179688 -14.875 3.328125 -14.875 L 16.578125 -14.875 C 17.347656 -14.875 17.890625 -15.097656 18.203125 -15.546875 C 18.523438 -15.992188 18.6875 -16.722656 18.6875 -17.734375 C 18.6875 -18.753906 18.523438 -19.488281 18.203125 -19.9375 C 17.890625 -20.382812 17.347656 -20.609375 16.578125 -20.609375 L 3.328125 -20.609375 C 3.179688 -20.609375 2.992188 -20.660156 2.765625 -20.765625 C 2.546875 -20.878906 2.4375 -21.171875 2.4375 -21.640625 L 2.4375 -24.046875 C 2.4375 -24.535156 2.546875 -24.835938 2.765625 -24.953125 C 2.992188 -25.066406 3.179688 -25.125 3.328125 -25.125 L 17.375 -25.125 C 19.46875 -25.125 20.972656 -24.472656 21.890625 -23.171875 C 22.765625 -21.910156 23.210938 -20.097656 23.234375 -17.734375 C 23.210938 -15.378906 22.765625 -13.570312 21.890625 -12.3125 C 21.117188 -11.257812 19.976562 -10.640625 18.46875 -10.453125 Z M 23.8125 -1.3125 "></path></g></g></g><g fill="#f7f8fd" fill-opacity="1"><g transform="translate(194.408471, 253.005601)"><g><path d="M 27.890625 -25.125 C 28.910156 -25.125 29.601562 -24.796875 29.96875 -24.140625 C 30.289062 -23.578125 30.453125 -22.59375 30.453125 -21.1875 L 30.453125 -1.03125 C 30.453125 -0.5625 30.335938 -0.265625 30.109375 -0.140625 C 29.890625 -0.0234375 29.707031 0.03125 29.5625 0.03125 L 26.953125 0.03125 C 26.828125 0.03125 26.648438 -0.0234375 26.421875 -0.140625 C 26.203125 -0.265625 26.09375 -0.5625 26.09375 -1.03125 L 26.09375 -19.359375 C 26.09375 -19.378906 26.09375 -19.394531 26.09375 -19.40625 C 26.09375 -19.414062 26.09375 -19.421875 26.09375 -19.421875 L 25.9375 -19.421875 C 25.894531 -19.421875 25.875 -19.398438 25.875 -19.359375 L 20.640625 -6.4375 C 20.429688 -5.800781 20.21875 -5.25 20 -4.78125 C 19.894531 -4.5625 19.773438 -4.359375 19.640625 -4.171875 C 19.515625 -3.992188 19.390625 -3.820312 19.265625 -3.65625 C 18.960938 -3.332031 18.640625 -3.109375 18.296875 -2.984375 C 17.960938 -2.859375 17.554688 -2.796875 17.078125 -2.796875 L 15.828125 -2.796875 C 15.378906 -2.796875 14.972656 -2.859375 14.609375 -2.984375 C 14.421875 -3.046875 14.25 -3.132812 14.09375 -3.25 C 13.945312 -3.375 13.789062 -3.507812 13.625 -3.65625 C 13.363281 -3.976562 13.117188 -4.351562 12.890625 -4.78125 C 12.691406 -5.25 12.476562 -5.800781 12.25 -6.4375 L 7.046875 -19.328125 C 7.023438 -19.390625 6.992188 -19.421875 6.953125 -19.421875 L 6.796875 -19.421875 C 6.796875 -19.421875 6.796875 -19.414062 6.796875 -19.40625 C 6.796875 -19.394531 6.796875 -19.378906 6.796875 -19.359375 L 6.796875 -1.03125 C 6.796875 -0.5625 6.6875 -0.265625 6.46875 -0.140625 C 6.257812 -0.0234375 6.082031 0.03125 5.9375 0.03125 L 3.328125 0.03125 C 3.179688 0.03125 2.992188 -0.0234375 2.765625 -0.140625 C 2.546875 -0.265625 2.4375 -0.5625 2.4375 -1.03125 L 2.4375 -21.1875 C 2.4375 -22.59375 2.597656 -23.578125 2.921875 -24.140625 C 3.285156 -24.796875 3.988281 -25.125 5.03125 -25.125 L 7.828125 -25.125 C 8.273438 -25.125 8.632812 -25.082031 8.90625 -25 C 9.25 -24.894531 9.53125 -24.742188 9.75 -24.546875 C 9.851562 -24.421875 9.960938 -24.285156 10.078125 -24.140625 C 10.191406 -24.003906 10.285156 -23.84375 10.359375 -23.65625 C 10.441406 -23.46875 10.53125 -23.257812 10.625 -23.03125 C 10.71875 -22.800781 10.804688 -22.539062 10.890625 -22.25 L 16.25 -8.78125 C 16.269531 -8.71875 16.289062 -8.679688 16.3125 -8.671875 C 16.332031 -8.660156 16.34375 -8.65625 16.34375 -8.65625 L 16.640625 -8.65625 C 16.679688 -8.65625 16.710938 -8.695312 16.734375 -8.78125 L 22.125 -22.25 C 22.226562 -22.539062 22.320312 -22.800781 22.40625 -23.03125 C 22.488281 -23.257812 22.570312 -23.46875 22.65625 -23.65625 C 22.75 -23.84375 22.847656 -24.003906 22.953125 -24.140625 C 23.054688 -24.285156 23.160156 -24.421875 23.265625 -24.546875 C 23.503906 -24.765625 23.773438 -24.914062 24.078125 -25 C 24.347656 -25.082031 24.707031 -25.125 25.15625 -25.125 Z M 27.890625 -25.125 "></path></g></g></g><g fill="#f7f8fd" fill-opacity="1"><g transform="translate(227.28642, 253.005601)"><g><path d="M 18.78125 -22.28125 L 27.34375 -1.15625 C 27.46875 -0.875 27.5 -0.628906 27.4375 -0.421875 C 27.414062 -0.347656 27.359375 -0.253906 27.265625 -0.140625 C 27.171875 -0.0234375 27.003906 0.03125 26.765625 0.03125 L 23.5 0.03125 C 23.070312 0.03125 22.78125 -0.191406 22.625 -0.640625 L 15.0625 -19.515625 C 15.039062 -19.554688 15.03125 -19.578125 15.03125 -19.578125 L 14.90625 -19.578125 C 14.90625 -19.578125 14.898438 -19.570312 14.890625 -19.5625 C 14.878906 -19.550781 14.863281 -19.523438 14.84375 -19.484375 L 10.9375 -9.609375 L 14.71875 -9.609375 C 15.144531 -9.609375 15.441406 -9.40625 15.609375 -9 L 16.703125 -6.28125 C 16.804688 -5.9375 16.765625 -5.640625 16.578125 -5.390625 C 16.421875 -5.109375 16.160156 -4.96875 15.796875 -4.96875 L 9.109375 -4.96875 L 7.375 -0.609375 C 7.21875 -0.179688 6.9375 0.03125 6.53125 0.03125 L 3.171875 0.03125 C 2.921875 0.03125 2.75 -0.0234375 2.65625 -0.140625 C 2.570312 -0.253906 2.519531 -0.347656 2.5 -0.421875 C 2.4375 -0.609375 2.457031 -0.851562 2.5625 -1.15625 L 11.0625 -22.28125 C 11.46875 -23.363281 11.914062 -24.109375 12.40625 -24.515625 C 12.46875 -24.554688 12.539062 -24.601562 12.625 -24.65625 C 12.707031 -24.71875 12.785156 -24.769531 12.859375 -24.8125 C 13.472656 -25.238281 14.175781 -25.453125 14.96875 -25.453125 C 15.800781 -25.453125 16.550781 -25.195312 17.21875 -24.6875 C 17.894531 -24.1875 18.351562 -23.535156 18.59375 -22.734375 C 18.632812 -22.679688 18.671875 -22.613281 18.703125 -22.53125 C 18.734375 -22.445312 18.757812 -22.363281 18.78125 -22.28125 Z M 18.78125 -22.28125 "></path></g></g></g><g fill="#f7f8fd" fill-opacity="1"><g transform="translate(257.20864, 253.005601)"><g><path d="M 24.015625 -25.125 C 24.140625 -25.125 24.3125 -25.066406 24.53125 -24.953125 C 24.757812 -24.835938 24.875 -24.535156 24.875 -24.046875 L 24.875 -3.90625 C 24.875 -2.414062 24.660156 -1.398438 24.234375 -0.859375 C 23.804688 -0.265625 23.144531 0.03125 22.25 0.03125 L 20.03125 0.03125 C 19.625 0.03125 19.273438 0 18.984375 -0.0625 C 18.847656 -0.101562 18.707031 -0.148438 18.5625 -0.203125 C 18.425781 -0.253906 18.296875 -0.316406 18.171875 -0.390625 C 17.921875 -0.535156 17.695312 -0.757812 17.5 -1.0625 C 17.394531 -1.207031 17.28125 -1.367188 17.15625 -1.546875 C 17.039062 -1.734375 16.921875 -1.945312 16.796875 -2.1875 L 7.140625 -19.328125 C 7.117188 -19.367188 7.097656 -19.394531 7.078125 -19.40625 C 7.054688 -19.414062 7.046875 -19.421875 7.046875 -19.421875 L 6.890625 -19.421875 C 6.890625 -19.421875 6.890625 -19.414062 6.890625 -19.40625 C 6.890625 -19.394531 6.890625 -19.378906 6.890625 -19.359375 L 6.890625 -1.03125 C 6.890625 -0.5625 6.78125 -0.265625 6.5625 -0.140625 C 6.351562 -0.0234375 6.175781 0.03125 6.03125 0.03125 L 3.328125 0.03125 C 3.179688 0.03125 2.992188 -0.0234375 2.765625 -0.140625 C 2.546875 -0.265625 2.4375 -0.5625 2.4375 -1.03125 L 2.4375 -21.1875 C 2.4375 -22.664062 2.648438 -23.691406 3.078125 -24.265625 C 3.523438 -24.835938 4.1875 -25.125 5.0625 -25.125 L 7.34375 -25.125 C 7.550781 -25.125 7.742188 -25.117188 7.921875 -25.109375 C 8.109375 -25.097656 8.269531 -25.082031 8.40625 -25.0625 C 8.738281 -25 9.023438 -24.875 9.265625 -24.6875 C 9.472656 -24.550781 9.6875 -24.316406 9.90625 -23.984375 C 10.007812 -23.847656 10.113281 -23.6875 10.21875 -23.5 C 10.332031 -23.320312 10.453125 -23.117188 10.578125 -22.890625 L 20.21875 -5.765625 C 20.226562 -5.703125 20.253906 -5.671875 20.296875 -5.671875 L 20.453125 -5.671875 C 20.453125 -5.691406 20.453125 -5.703125 20.453125 -5.703125 C 20.453125 -5.703125 20.453125 -5.710938 20.453125 -5.734375 L 20.453125 -24.046875 C 20.453125 -24.535156 20.554688 -24.835938 20.765625 -24.953125 C 20.984375 -25.066406 21.164062 -25.125 21.3125 -25.125 Z M 24.015625 -25.125 "></path></g></g></g><g fill="#f7f8fd" fill-opacity="1"><g transform="translate(284.510295, 253.005601)"><g><path d="M 21.0625 -25.125 C 21.1875 -25.125 21.359375 -25.0625 21.578125 -24.9375 C 21.804688 -24.8125 21.921875 -24.515625 21.921875 -24.046875 L 21.921875 -21.703125 C 21.921875 -21.210938 21.804688 -20.90625 21.578125 -20.78125 C 21.359375 -20.664062 21.1875 -20.609375 21.0625 -20.609375 L 10.125 -20.609375 C 9.425781 -20.609375 8.894531 -20.535156 8.53125 -20.390625 C 8.164062 -20.273438 7.863281 -20.050781 7.625 -19.71875 C 7.394531 -19.414062 7.222656 -18.96875 7.109375 -18.375 C 7.066406 -18.09375 7.03125 -17.765625 7 -17.390625 C 6.96875 -17.015625 6.953125 -16.59375 6.953125 -16.125 L 6.953125 -9.015625 C 6.953125 -8.578125 6.96875 -8.160156 7 -7.765625 C 7.03125 -7.378906 7.066406 -7.035156 7.109375 -6.734375 C 7.160156 -6.453125 7.226562 -6.195312 7.3125 -5.96875 C 7.394531 -5.75 7.5 -5.554688 7.625 -5.390625 C 7.863281 -5.066406 8.164062 -4.84375 8.53125 -4.71875 C 8.894531 -4.582031 9.425781 -4.515625 10.125 -4.515625 L 21.0625 -4.515625 C 21.1875 -4.515625 21.359375 -4.453125 21.578125 -4.328125 C 21.804688 -4.203125 21.921875 -3.90625 21.921875 -3.4375 L 21.921875 -1.03125 C 21.921875 -0.5625 21.804688 -0.265625 21.578125 -0.140625 C 21.359375 -0.0234375 21.1875 0.03125 21.0625 0.03125 L 9.96875 0.03125 C 8.644531 0.03125 7.5 -0.140625 6.53125 -0.484375 C 5.59375 -0.804688 4.804688 -1.367188 4.171875 -2.171875 C 3.546875 -2.984375 3.097656 -3.976562 2.828125 -5.15625 C 2.691406 -5.757812 2.59375 -6.425781 2.53125 -7.15625 C 2.46875 -7.894531 2.4375 -8.691406 2.4375 -9.546875 L 2.4375 -15.578125 C 2.4375 -16.410156 2.46875 -17.191406 2.53125 -17.921875 C 2.59375 -18.648438 2.691406 -19.3125 2.828125 -19.90625 C 3.097656 -21.125 3.546875 -22.117188 4.171875 -22.890625 C 4.765625 -23.660156 5.550781 -24.226562 6.53125 -24.59375 C 7.5 -24.945312 8.644531 -25.125 9.96875 -25.125 Z M 21.0625 -25.125 "></path></g></g></g><g fill="#f7f8fd" fill-opacity="1"><g transform="translate(308.856207, 253.005601)"><g><path d="M 20.765625 -5.453125 C 20.898438 -5.453125 21.078125 -5.394531 21.296875 -5.28125 C 21.523438 -5.175781 21.640625 -4.890625 21.640625 -4.421875 L 21.640625 -1.0625 C 21.640625 -0.59375 21.523438 -0.300781 21.296875 -0.1875 C 21.078125 -0.0820312 20.898438 -0.03125 20.765625 -0.03125 L 9.9375 -0.03125 C 9.269531 -0.03125 8.648438 -0.0703125 8.078125 -0.15625 C 7.503906 -0.238281 6.988281 -0.367188 6.53125 -0.546875 C 5.53125 -0.890625 4.734375 -1.445312 4.140625 -2.21875 C 3.535156 -3.019531 3.097656 -4.019531 2.828125 -5.21875 C 2.734375 -5.71875 2.648438 -6.269531 2.578125 -6.875 C 2.503906 -7.488281 2.457031 -8.15625 2.4375 -8.875 L 2.4375 -9.015625 L 2.5 -12.859375 C 2.5625 -13.085938 2.671875 -13.34375 2.828125 -13.625 C 3.273438 -14.414062 3.96875 -14.84375 4.90625 -14.90625 L 20.640625 -14.9375 C 20.765625 -14.9375 20.9375 -14.878906 21.15625 -14.765625 C 21.375 -14.660156 21.484375 -14.375 21.484375 -13.90625 L 21.484375 -11.5 C 21.484375 -11.03125 21.375 -10.734375 21.15625 -10.609375 C 20.9375 -10.484375 20.765625 -10.421875 20.640625 -10.421875 L 7.015625 -10.421875 C 7.015625 -10.421875 7.007812 -10.304688 7 -10.078125 C 6.988281 -9.859375 6.976562 -9.609375 6.96875 -9.328125 C 6.957031 -9.046875 6.953125 -8.789062 6.953125 -8.5625 C 6.953125 -8.34375 6.953125 -8.234375 6.953125 -8.234375 C 6.972656 -8.148438 6.984375 -8.0625 6.984375 -7.96875 C 6.984375 -7.875 6.992188 -7.789062 7.015625 -7.71875 C 7.097656 -7.144531 7.269531 -6.6875 7.53125 -6.34375 C 7.769531 -6.039062 8.070312 -5.816406 8.4375 -5.671875 C 8.664062 -5.609375 8.90625 -5.554688 9.15625 -5.515625 C 9.414062 -5.472656 9.707031 -5.453125 10.03125 -5.453125 Z M 5.125 -14.65625 Z M 20.796875 -25.1875 C 20.910156 -25.1875 21.078125 -25.125 21.296875 -25 C 21.523438 -24.875 21.640625 -24.578125 21.640625 -24.109375 L 21.640625 -21.703125 C 21.640625 -21.234375 21.523438 -20.9375 21.296875 -20.8125 C 21.078125 -20.695312 20.910156 -20.640625 20.796875 -20.640625 L 3.265625 -20.671875 C 3.140625 -20.671875 2.96875 -20.722656 2.75 -20.828125 C 2.539062 -20.941406 2.4375 -21.234375 2.4375 -21.703125 L 2.4375 -24.078125 C 2.4375 -24.566406 2.539062 -24.875 2.75 -25 C 2.96875 -25.125 3.140625 -25.1875 3.265625 -25.1875 Z M 20.796875 -25.1875 "></path></g></g></g></svg>