<svg xmlns="http://www.w3.org/2000/svg" width="92.5" height="13.095" viewBox="0 0 92.5 13.095"><path d="M-11.852-21.217h8.484l3.223-4.365H-8.629Zm-34.4-2.645v.925h11.823l.679-.925Zm24.989-1.72c-1.257,0-.867-.52-.665-.795.4-.549,1.1-1.5,1.5-2.038s.4-.853-.4-.853H-28.2l-5.94,8.065h14.468A10.251,10.251,0,0,0-11.4-25.582Zm45.889-1,5.68-7.718h-8.99l-5.68,7.718Zm-57.1,1H-46.25v.925h13.094Zm16.043-3.844c-.4.549-1.084,1.5-1.489,2.052-.2.289-.593.795.665.795h6.591s1.055-1.445,1.951-2.659c1.214-1.648.1-5.059-4.22-5.059h-17.04l-2.948,4.018h16.1C-16.014-30.279-16.029-29.961-16.433-29.426ZM-46.25-21.217h10.565l.679-.925H-46.25Zm46.683,0H8.917l3.223-4.365H3.656C3.642-25.582.433-21.217.433-21.217Zm32.086.014H46.25v-.925H33.2Zm3.223-4.379-.679.925H46.25v-.925Zm-1.951,2.645H46.25v-.925H34.471ZM10.059-34.3,6.807-29.875H3.021L6.273-34.3H-2.211l-5.68,7.718H12.863l5.68-7.718ZM14.9-25.582s-.621.853-.925,1.257c-1.07,1.445-.13,3.122,3.353,3.122H30.958l3.223-4.379Z" transform="translate(46.25 34.297)" fill="#99a2ab"></path></svg>