<svg xmlns="http://www.w3.org/2000/svg" width="26" height="26" viewBox="0 0 26 26"><g transform="translate(0 1)"><rect width="26" height="26" rx="13" transform="translate(0 -1)" fill="#fff"></rect><path d="M6.8-18.117a4.833,4.833,0,0,1,1.419-3.564,8.279,8.279,0,0,1,.957-.825,4.692,4.692,0,0,1,.792-.5l.264-.132.66.66a8.672,8.672,0,0,0-1.419,1.089,2.847,2.847,0,0,0-.924,2.145,1.759,1.759,0,0,1,.4-.033,1.717,1.717,0,0,1,1.271.561,1.833,1.833,0,0,1,.545,1.32,1.763,1.763,0,0,1-.545,1.32,1.847,1.847,0,0,1-1.337.528,1.961,1.961,0,0,1-1.485-.627A2.75,2.75,0,0,1,6.8-18.117Zm-5.214,0A4.833,4.833,0,0,1,3-21.681a8.279,8.279,0,0,1,.957-.825,4.691,4.691,0,0,1,.792-.5l.264-.132.66.66a8.672,8.672,0,0,0-1.419,1.089,2.847,2.847,0,0,0-.924,2.145,1.759,1.759,0,0,1,.4-.033A1.717,1.717,0,0,1,5-18.711a1.833,1.833,0,0,1,.544,1.32A1.763,1.763,0,0,1,5-16.071a1.847,1.847,0,0,1-1.337.528,1.961,1.961,0,0,1-1.485-.627A2.75,2.75,0,0,1,1.584-18.117Z" transform="translate(7 31)" fill="#191b1d"></path></g></svg>