<svg xmlns="http://www.w3.org/2000/svg" width="36.993" height="36.99" viewBox="0 0 36.993 36.99"><g transform="translate(-1 -1.005)"><path d="M33.53,21A12.53,12.53,0,1,0,46.06,33.53,12.53,12.53,0,0,0,33.53,21Zm4.785,13.094-7.928,4.324a.6.6,0,0,1-.882-.524V29.246a.6.6,0,0,1,.882-.524l7.928,4.325a.6.6,0,0,1,0,1.048Z" transform="translate(-8.067 -8.065)" fill="#c4a2fc"></path><g transform="translate(1 1.005)"><path d="M19.205,1.241,8.578,7.315l-5.934.495A1.8,1.8,0,0,0,1,9.594v6.157a1.8,1.8,0,0,0,1.641,1.783l5.923.494,10.586,6.552a1.79,1.79,0,0,0,2.732-1.521V2.792a1.79,1.79,0,0,0-2.678-1.551ZM2.193,15.75V9.594A.6.6,0,0,1,2.74,9l5.419-.45V16.8L2.74,16.344A.6.6,0,0,1,2.193,15.75Zm18.5,7.309a.6.6,0,0,1-.91.507L9.353,17.112V8.245L19.795,2.278a.6.6,0,0,1,.895.514Z" transform="translate(-1 -1.005)" fill="#151a6a"></path><path d="M39.33,14.6a.6.6,0,0,0-.267.8,5.747,5.747,0,0,1,0,5.456.6.6,0,0,0,1.068.534,6.963,6.963,0,0,0,0-6.524A.6.6,0,0,0,39.33,14.6Z" transform="translate(-16.327 -6.463)" fill="#151a6a"></path><path d="M45.936,11.1a.6.6,0,1,0-1.067.533,10.484,10.484,0,0,1,0,9.949.6.6,0,1,0,1.067.533,11.754,11.754,0,0,0,0-11.015Z" transform="translate(-18.669 -4.945)" fill="#151a6a"></path></g></g></svg>