<svg xmlns="http://www.w3.org/2000/svg" width="39.638" height="39.638" viewBox="0 0 39.638 39.638"><rect width="39.638" height="39.638" fill="none"></rect><path d="M24.494,9.848a30.811,30.811,0,0,1,2.96,3.554s-6.757,9.91-14.864,9.91q-.77,0-1.494-.065Z" transform="translate(7.23 6.417)"></path><path d="M22,6.817l-4.137,4.137A4.955,4.955,0,0,0,12.91,15.91L7.173,21.646A18.035,18.035,0,0,1,3,15.91S7.054,6,17.864,6A11.478,11.478,0,0,1,22,6.817Z" transform="translate(1.955 3.91)"></path><rect width="31.38" height="3.303" transform="translate(8.423 30.447) rotate(-45)" opacity="0.3"></rect></svg>