<svg xmlns="http://www.w3.org/2000/svg" width="40.472" height="40.472" viewBox="0 0 40.472 40.472"><rect width="40.472" height="40.472" fill="none"></rect><path d="M10.529,8h6.745A2.529,2.529,0,0,1,19.8,10.529v1.686a2.529,2.529,0,0,1-2.529,2.529H10.529A2.529,2.529,0,0,1,8,12.216V10.529A2.529,2.529,0,0,1,10.529,8ZM25.706,28.236h6.745a2.529,2.529,0,0,1,2.529,2.529v1.686a2.529,2.529,0,0,1-2.529,2.529H25.706a2.529,2.529,0,0,1-2.529-2.529V30.765A2.529,2.529,0,0,1,25.706,28.236Z" transform="translate(-1.255 -1.255)" fill-rule="evenodd"></path><path d="M10.529,18.118h6.745A2.529,2.529,0,0,1,19.8,20.647v11.8a2.529,2.529,0,0,1-2.529,2.529H10.529A2.529,2.529,0,0,1,8,32.452v-11.8A2.529,2.529,0,0,1,10.529,18.118ZM25.706,8h6.745a2.529,2.529,0,0,1,2.529,2.529v11.8a2.529,2.529,0,0,1-2.529,2.529H25.706a2.529,2.529,0,0,1-2.529-2.529v-11.8A2.529,2.529,0,0,1,25.706,8Z" transform="translate(-1.255 -1.255)" fill-rule="evenodd" opacity="0.3"></path></svg>