<svg xmlns="http://www.w3.org/2000/svg" width="36.897" height="39.442" viewBox="0 0 36.897 39.442"><g transform="translate(-5 -1)"><path d="M37.984,34.1c-3.391-8.136-15.5-5.961-15.9,2.805a7,7,0,0,0,1.908,13.735h14a8.27,8.27,0,1,0,0-16.54Zm-2.093,6.177L30.8,45.365a.636.636,0,0,1-.9,0l-2.545-2.545a.639.639,0,0,1,.9-.9l2.093,2.1,4.638-4.644a.639.639,0,0,1,.9.9Z" transform="translate(-4.357 -10.198)" fill="#c4a2fc"></path><path d="M22.176,1H6.908A1.908,1.908,0,0,0,5,2.908V30.9a1.908,1.908,0,0,0,1.908,1.908H22.176A1.908,1.908,0,0,0,24.085,30.9V2.908A1.908,1.908,0,0,0,22.176,1ZM18.359,8.634a2.545,2.545,0,0,0-2.545,2.545v7a1.272,1.272,0,1,1-2.545,0V16.268a2.545,2.545,0,1,0-5.089,0v3.817a1.272,1.272,0,0,1-1.272,1.272H6.272V6.089h16.54v7.634h-.636A1.272,1.272,0,0,1,20.9,12.451V11.178A2.545,2.545,0,0,0,18.359,8.634Zm-12.087,14h.636a2.545,2.545,0,0,0,2.545-2.545V16.268a1.272,1.272,0,1,1,2.545,0v1.908a2.545,2.545,0,1,0,5.089,0v-7a1.272,1.272,0,1,1,2.545,0v1.272A2.545,2.545,0,0,0,22.176,15h.636V26.446H6.272ZM6.908,2.272H22.176a.636.636,0,0,1,.636.636V4.817H6.272V2.908A.636.636,0,0,1,6.908,2.272ZM22.176,31.535H6.908a.636.636,0,0,1-.636-.636V27.718h16.54V30.9A.636.636,0,0,1,22.176,31.535ZM20.9,25.174H17.087a.636.636,0,1,1,0-1.272H20.9a.636.636,0,1,1,0,1.272Zm0-2.545H18.359a.636.636,0,0,1,0-1.272H20.9a.636.636,0,1,1,0,1.272ZM12,9.906H9.453a.636.636,0,1,1,0-1.272H12a.636.636,0,0,1,0,1.272Zm5.089,20.357H12a.636.636,0,0,1,0-1.272h5.089a.636.636,0,0,1,0,1.272Z" transform="translate(0)" fill="#151a6a"></path></g></svg>