<svg xmlns="http://www.w3.org/2000/svg" xmlns:xlink="http://www.w3.org/1999/xlink" width="52" viewBox="0 0 39 38.999999" height="52" preserveAspectRatio="xMidYMid meet"><defs><g></g><clipPath id="3bb47a6526"><path d="M 15.203125 11.382812 L 25.878906 11.382812 L 25.878906 22.058594 L 15.203125 22.058594 Z M 15.203125 11.382812 " clip-rule="nonzero"></path></clipPath><clipPath id="767605ca5e"><path d="M 20.542969 11.382812 C 17.59375 11.382812 15.203125 13.773438 15.203125 16.722656 C 15.203125 19.671875 17.59375 22.058594 20.542969 22.058594 C 23.488281 22.058594 25.878906 19.671875 25.878906 16.722656 C 25.878906 13.773438 23.488281 11.382812 20.542969 11.382812 Z M 20.542969 11.382812 " clip-rule="nonzero"></path></clipPath><clipPath id="665e79cf39"><path d="M 15.203125 8.714844 L 20.542969 8.714844 L 20.542969 14.054688 L 15.203125 14.054688 Z M 15.203125 8.714844 " clip-rule="nonzero"></path></clipPath><clipPath id="d24d3dd751"><path d="M 17.871094 8.714844 C 16.398438 8.714844 15.203125 9.910156 15.203125 11.382812 C 15.203125 12.859375 16.398438 14.054688 17.871094 14.054688 C 19.347656 14.054688 20.542969 12.859375 20.542969 11.382812 C 20.542969 9.910156 19.347656 8.714844 17.871094 8.714844 Z M 17.871094 8.714844 " clip-rule="nonzero"></path></clipPath><clipPath id="3d6486396b"><path d="M 12.042969 8.203125 L 26.964844 8.203125 L 26.964844 23.003906 L 12.042969 23.003906 Z M 12.042969 8.203125 " clip-rule="nonzero"></path></clipPath></defs><g clip-path="url(#3bb47a6526)"><g clip-path="url(#767605ca5e)"><path fill="#000000" d="M 15.203125 11.382812 L 25.878906 11.382812 L 25.878906 22.058594 L 15.203125 22.058594 Z M 15.203125 11.382812 " fill-opacity="1" fill-rule="nonzero"></path></g></g><g clip-path="url(#665e79cf39)"><g clip-path="url(#d24d3dd751)"><path fill="#000000" d="M 15.203125 8.714844 L 20.542969 8.714844 L 20.542969 14.054688 L 15.203125 14.054688 Z M 15.203125 8.714844 " fill-opacity="1" fill-rule="nonzero"></path></g></g><g clip-path="url(#3d6486396b)"><path fill="#fab713" d="M 21.574219 16.667969 C 21.574219 16.089844 21.132812 15.652344 20.585938 15.652344 C 20.035156 15.652344 19.570312 16.089844 19.570312 16.667969 C 19.570312 17.214844 20.035156 17.652344 20.585938 17.652344 C 21.132812 17.652344 21.574219 17.214844 21.574219 16.667969 Z M 23.191406 19.292969 C 22.972656 19.515625 22.617188 19.515625 22.394531 19.292969 C 22.175781 19.074219 22.175781 18.691406 22.394531 18.472656 C 22.644531 18.253906 22.835938 17.953125 22.945312 17.652344 C 23.082031 17.351562 23.164062 16.996094 23.164062 16.667969 C 23.164062 16.3125 23.082031 15.984375 22.972656 15.679688 C 22.835938 15.351562 22.644531 15.078125 22.394531 14.832031 C 22.175781 14.613281 22.175781 14.257812 22.394531 14.039062 C 22.644531 13.820312 23 13.820312 23.222656 14.039062 C 23.550781 14.367188 23.824219 14.777344 24.015625 15.242188 C 24.210938 15.679688 24.289062 16.148438 24.289062 16.667969 C 24.289062 17.160156 24.210938 17.652344 24.015625 18.089844 C 23.824219 18.527344 23.550781 18.9375 23.191406 19.292969 Z M 25.117188 21.128906 C 24.867188 21.347656 24.511719 21.347656 24.289062 21.128906 C 24.070312 20.910156 24.070312 20.554688 24.289062 20.335938 C 24.757812 19.84375 25.140625 19.265625 25.417969 18.636719 C 25.664062 18.035156 25.804688 17.351562 25.804688 16.667969 C 25.804688 15.953125 25.664062 15.269531 25.417969 14.667969 C 25.140625 14.039062 24.757812 13.464844 24.265625 12.96875 C 24.046875 12.75 24.046875 12.394531 24.289062 12.175781 C 24.511719 11.957031 24.867188 11.957031 25.089844 12.175781 C 25.664062 12.75 26.160156 13.464844 26.460938 14.230469 C 26.792969 14.96875 26.953125 15.789062 26.953125 16.667969 C 26.953125 17.515625 26.792969 18.335938 26.460938 19.074219 C 26.160156 19.84375 25.691406 20.554688 25.117188 21.128906 Z M 19.761719 11.382812 C 19.761719 10.835938 19.542969 10.316406 19.15625 9.960938 C 18.800781 9.578125 18.277344 9.359375 17.730469 9.359375 C 17.152344 9.359375 16.65625 9.578125 16.273438 9.960938 C 15.917969 10.316406 15.667969 10.835938 15.667969 11.382812 C 15.667969 11.957031 15.886719 12.449219 16.246094 12.804688 C 16.273438 12.832031 16.300781 12.863281 16.328125 12.886719 C 16.683594 13.214844 17.179688 13.4375 17.730469 13.4375 C 18.277344 13.4375 18.800781 13.214844 19.15625 12.832031 C 19.542969 12.476562 19.761719 11.957031 19.761719 11.382812 Z M 14.570312 11.957031 L 12.621094 11.957031 C 12.292969 11.957031 12.042969 11.710938 12.042969 11.382812 C 12.042969 11.082031 12.292969 10.808594 12.621094 10.808594 L 14.570312 10.808594 C 14.707031 10.179688 15.011719 9.601562 15.449219 9.136719 C 16.054688 8.5625 16.851562 8.207031 17.730469 8.207031 C 18.605469 8.207031 19.402344 8.5625 19.980469 9.136719 C 20.558594 9.714844 20.914062 10.507812 20.914062 11.382812 C 20.914062 12.285156 20.558594 13.082031 19.980469 13.65625 C 19.402344 14.230469 18.605469 14.585938 17.730469 14.585938 C 17.097656 14.585938 16.519531 14.394531 16.027344 14.09375 C 15.863281 14.394531 15.722656 14.722656 15.613281 15.050781 C 15.449219 15.542969 15.339844 16.089844 15.339844 16.667969 C 15.339844 18.089844 15.945312 19.402344 16.878906 20.335938 C 17.839844 21.292969 19.128906 21.867188 20.585938 21.867188 C 20.886719 21.867188 21.160156 22.113281 21.160156 22.441406 C 21.160156 22.746094 20.886719 23.019531 20.585938 23.019531 C 18.828125 23.019531 17.234375 22.304688 16.082031 21.15625 C 14.925781 20.007812 14.214844 18.417969 14.214844 16.667969 C 14.214844 15.984375 14.324219 15.296875 14.515625 14.695312 C 14.679688 14.203125 14.902344 13.738281 15.175781 13.300781 C 14.871094 12.917969 14.679688 12.449219 14.570312 11.957031 Z M 18.636719 11.382812 C 18.636719 10.890625 18.222656 10.480469 17.730469 10.480469 C 17.207031 10.480469 16.796875 10.890625 16.796875 11.382812 C 16.796875 11.902344 17.207031 12.3125 17.730469 12.3125 C 18.222656 12.3125 18.636719 11.902344 18.636719 11.382812 Z M 18.636719 11.382812 " fill-opacity="1" fill-rule="evenodd"></path></g><g fill="#ffffff" fill-opacity="1"><g transform="translate(3.571008, 28.968345)"><g><path d="M 4.015625 -4.484375 C 4.015625 -4.328125 3.960938 -4.207031 3.859375 -4.125 C 3.753906 -4.039062 3.601562 -4 3.40625 -4 C 3.289062 -4 3.175781 -4 3.0625 -4 C 2.957031 -4 2.851562 -4 2.75 -4 L 2.75 -2.484375 C 2.75 -2.171875 2.75 -1.859375 2.75 -1.546875 C 2.75 -1.234375 2.75 -0.921875 2.75 -0.609375 C 2.75 -0.410156 2.695312 -0.257812 2.59375 -0.15625 C 2.488281 -0.0507812 2.335938 0 2.140625 0 L 2.015625 0 C 1.609375 0 1.40625 -0.203125 1.40625 -0.609375 C 1.414062 -0.921875 1.421875 -1.234375 1.421875 -1.546875 C 1.421875 -1.859375 1.421875 -2.171875 1.421875 -2.484375 C 1.421875 -2.734375 1.421875 -2.984375 1.421875 -3.234375 C 1.421875 -3.492188 1.421875 -3.75 1.421875 -4 C 1.316406 -4 1.210938 -4 1.109375 -4 C 1.003906 -4 0.898438 -4 0.796875 -4 C 0.597656 -4 0.441406 -4.039062 0.328125 -4.125 C 0.222656 -4.207031 0.171875 -4.328125 0.171875 -4.484375 C 0.171875 -4.796875 0.375 -4.953125 0.78125 -4.953125 L 3.40625 -4.953125 C 3.8125 -4.953125 4.015625 -4.796875 4.015625 -4.484375 Z M 4.015625 -4.484375 "></path></g></g></g><g fill="#ffffff" fill-opacity="1"><g transform="translate(7.763993, 28.968345)"><g><path d="M 4.4375 -2.484375 C 4.425781 -2.171875 4.421875 -1.859375 4.421875 -1.546875 C 4.429688 -1.234375 4.4375 -0.921875 4.4375 -0.609375 C 4.4375 -0.410156 4.382812 -0.257812 4.28125 -0.15625 C 4.175781 -0.0507812 4.023438 0 3.828125 0 L 3.703125 0 C 3.503906 0 3.351562 -0.0507812 3.25 -0.15625 C 3.144531 -0.257812 3.09375 -0.410156 3.09375 -0.609375 C 3.101562 -0.828125 3.109375 -1.050781 3.109375 -1.28125 C 3.109375 -1.507812 3.109375 -1.734375 3.109375 -1.953125 L 1.875 -1.953125 C 1.875 -1.734375 1.875 -1.507812 1.875 -1.28125 C 1.875 -1.050781 1.875 -0.828125 1.875 -0.609375 C 1.875 -0.410156 1.820312 -0.257812 1.71875 -0.15625 C 1.613281 -0.0507812 1.46875 0 1.28125 0 L 1.140625 0 C 0.953125 0 0.800781 -0.0507812 0.6875 -0.15625 C 0.582031 -0.257812 0.535156 -0.410156 0.546875 -0.609375 C 0.546875 -0.921875 0.546875 -1.234375 0.546875 -1.546875 C 0.546875 -1.859375 0.546875 -2.171875 0.546875 -2.484375 C 0.546875 -2.796875 0.546875 -3.109375 0.546875 -3.421875 C 0.546875 -3.734375 0.546875 -4.039062 0.546875 -4.34375 C 0.535156 -4.539062 0.582031 -4.691406 0.6875 -4.796875 C 0.800781 -4.898438 0.953125 -4.953125 1.140625 -4.953125 L 1.28125 -4.953125 C 1.46875 -4.953125 1.613281 -4.898438 1.71875 -4.796875 C 1.820312 -4.691406 1.875 -4.539062 1.875 -4.34375 C 1.875 -4.113281 1.875 -3.878906 1.875 -3.640625 C 1.875 -3.410156 1.875 -3.175781 1.875 -2.9375 L 3.109375 -2.9375 C 3.109375 -3.175781 3.109375 -3.410156 3.109375 -3.640625 C 3.109375 -3.878906 3.101562 -4.113281 3.09375 -4.34375 C 3.09375 -4.539062 3.144531 -4.691406 3.25 -4.796875 C 3.351562 -4.898438 3.503906 -4.953125 3.703125 -4.953125 L 3.828125 -4.953125 C 4.023438 -4.953125 4.175781 -4.898438 4.28125 -4.796875 C 4.382812 -4.691406 4.4375 -4.539062 4.4375 -4.34375 C 4.4375 -4.039062 4.4375 -3.734375 4.4375 -3.421875 C 4.4375 -3.109375 4.4375 -2.796875 4.4375 -2.484375 Z M 4.4375 -2.484375 "></path></g></g></g><g fill="#ffffff" fill-opacity="1"><g transform="translate(12.74406, 28.968345)"><g><path d="M 1.875 -0.953125 C 2.082031 -0.953125 2.289062 -0.953125 2.5 -0.953125 C 2.707031 -0.953125 2.914062 -0.957031 3.125 -0.96875 C 3.53125 -0.96875 3.734375 -0.804688 3.734375 -0.484375 C 3.734375 -0.160156 3.53125 0 3.125 0 L 1.140625 0 C 0.953125 0 0.800781 -0.0507812 0.6875 -0.15625 C 0.582031 -0.257812 0.535156 -0.410156 0.546875 -0.609375 C 0.546875 -0.921875 0.546875 -1.234375 0.546875 -1.546875 C 0.546875 -1.859375 0.546875 -2.171875 0.546875 -2.484375 C 0.546875 -2.796875 0.546875 -3.109375 0.546875 -3.421875 C 0.546875 -3.734375 0.546875 -4.039062 0.546875 -4.34375 C 0.535156 -4.539062 0.582031 -4.691406 0.6875 -4.796875 C 0.800781 -4.898438 0.953125 -4.953125 1.140625 -4.953125 L 3.046875 -4.953125 C 3.453125 -4.953125 3.65625 -4.796875 3.65625 -4.484375 C 3.65625 -4.160156 3.453125 -4 3.046875 -4 C 2.859375 -4 2.664062 -4 2.46875 -4 C 2.269531 -4 2.070312 -4 1.875 -4 L 1.875 -2.90625 C 2.03125 -2.914062 2.179688 -2.921875 2.328125 -2.921875 C 2.472656 -2.921875 2.617188 -2.921875 2.765625 -2.921875 C 3.171875 -2.921875 3.375 -2.765625 3.375 -2.453125 C 3.375 -2.117188 3.171875 -1.953125 2.765625 -1.953125 C 2.617188 -1.960938 2.472656 -1.96875 2.328125 -1.96875 C 2.179688 -1.96875 2.03125 -1.96875 1.875 -1.96875 Z M 1.875 -0.953125 "></path></g></g></g><g fill="#ffffff" fill-opacity="1"><g transform="translate(16.786785, 28.968345)"><g></g></g></g><g fill="#ffffff" fill-opacity="1"><g transform="translate(18.575602, 28.968345)"><g><path d="M 1.140625 0 C 0.734375 0 0.53125 -0.203125 0.53125 -0.609375 C 0.539062 -0.929688 0.546875 -1.390625 0.546875 -1.984375 C 0.546875 -2.585938 0.546875 -3.367188 0.546875 -4.328125 C 0.546875 -4.742188 0.75 -4.953125 1.15625 -4.953125 L 2.453125 -4.953125 C 2.898438 -4.953125 3.253906 -4.90625 3.515625 -4.8125 C 3.785156 -4.726562 3.976562 -4.601562 4.09375 -4.4375 C 4.207031 -4.269531 4.265625 -4.066406 4.265625 -3.828125 C 4.265625 -3.515625 4.1875 -3.25 4.03125 -3.03125 C 3.882812 -2.820312 3.679688 -2.675781 3.421875 -2.59375 L 3.421875 -2.5625 C 3.765625 -2.53125 4.015625 -2.414062 4.171875 -2.21875 C 4.328125 -2.019531 4.40625 -1.773438 4.40625 -1.484375 C 4.40625 -1.210938 4.335938 -0.960938 4.203125 -0.734375 C 4.066406 -0.515625 3.863281 -0.335938 3.59375 -0.203125 C 3.332031 -0.0664062 3 0 2.59375 0 Z M 1.8125 -2.96875 L 2.03125 -2.96875 C 2.394531 -2.96875 2.644531 -3.03125 2.78125 -3.15625 C 2.925781 -3.28125 3 -3.429688 3 -3.609375 C 3 -3.785156 2.929688 -3.910156 2.796875 -3.984375 C 2.671875 -4.054688 2.476562 -4.09375 2.21875 -4.09375 L 1.8125 -4.09375 C 1.8125 -3.945312 1.8125 -3.785156 1.8125 -3.609375 C 1.8125 -3.429688 1.8125 -3.21875 1.8125 -2.96875 Z M 1.8125 -0.859375 L 2.21875 -0.859375 C 2.519531 -0.859375 2.753906 -0.921875 2.921875 -1.046875 C 3.085938 -1.179688 3.171875 -1.367188 3.171875 -1.609375 C 3.171875 -1.816406 3.097656 -1.984375 2.953125 -2.109375 C 2.816406 -2.234375 2.609375 -2.296875 2.328125 -2.296875 L 1.8125 -2.296875 L 1.8125 -1.75 C 1.8125 -1.601562 1.8125 -1.453125 1.8125 -1.296875 C 1.8125 -1.148438 1.8125 -1.003906 1.8125 -0.859375 Z M 1.8125 -0.859375 "></path></g></g></g><g fill="#ffffff" fill-opacity="1"><g transform="translate(23.305232, 28.968345)"><g><path d="M 1.140625 0 C 0.734375 0 0.53125 -0.203125 0.53125 -0.609375 L 0.53125 -4.34375 C 0.53125 -4.75 0.734375 -4.953125 1.140625 -4.953125 L 1.28125 -4.953125 C 1.675781 -4.953125 1.875 -4.75 1.875 -4.34375 L 1.875 -0.609375 C 1.875 -0.203125 1.675781 0 1.28125 0 Z M 1.140625 0 "></path></g></g></g><g fill="#ffffff" fill-opacity="1"><g transform="translate(25.723713, 28.968345)"><g><path d="M 1.140625 0 C 0.734375 0 0.53125 -0.203125 0.53125 -0.609375 C 0.539062 -0.921875 0.546875 -1.234375 0.546875 -1.546875 C 0.546875 -1.859375 0.546875 -2.171875 0.546875 -2.484375 C 0.546875 -2.796875 0.546875 -3.109375 0.546875 -3.421875 C 0.546875 -3.734375 0.539062 -4.039062 0.53125 -4.34375 C 0.53125 -4.75 0.734375 -4.953125 1.140625 -4.953125 L 2.375 -4.953125 C 3.101562 -4.953125 3.628906 -4.835938 3.953125 -4.609375 C 4.285156 -4.378906 4.453125 -4 4.453125 -3.46875 C 4.453125 -3.144531 4.363281 -2.867188 4.1875 -2.640625 C 4.007812 -2.410156 3.769531 -2.257812 3.46875 -2.1875 L 3.46875 -2.15625 C 3.707031 -2.082031 3.898438 -1.929688 4.046875 -1.703125 C 4.203125 -1.472656 4.332031 -1.132812 4.4375 -0.6875 C 4.488281 -0.46875 4.460938 -0.296875 4.359375 -0.171875 C 4.253906 -0.0546875 4.097656 0 3.890625 0 L 3.65625 0 C 3.28125 0 3.066406 -0.191406 3.015625 -0.578125 C 2.984375 -0.804688 2.9375 -1.007812 2.875 -1.1875 C 2.8125 -1.375 2.722656 -1.519531 2.609375 -1.625 C 2.492188 -1.726562 2.335938 -1.78125 2.140625 -1.78125 L 1.875 -1.78125 C 1.875 -1.59375 1.875 -1.398438 1.875 -1.203125 C 1.875 -1.003906 1.875 -0.804688 1.875 -0.609375 C 1.875 -0.203125 1.675781 0 1.28125 0 Z M 1.875 -2.578125 L 2.125 -2.578125 C 2.457031 -2.578125 2.695312 -2.632812 2.84375 -2.75 C 2.988281 -2.875 3.0625 -3.070312 3.0625 -3.34375 C 3.0625 -3.5625 2.992188 -3.71875 2.859375 -3.8125 C 2.734375 -3.914062 2.519531 -3.96875 2.21875 -3.96875 L 1.875 -3.96875 C 1.875 -3.789062 1.875 -3.597656 1.875 -3.390625 C 1.875 -3.179688 1.875 -2.910156 1.875 -2.578125 Z M 1.875 -2.578125 "></path></g></g></g><g fill="#ffffff" fill-opacity="1"><g transform="translate(30.603605, 28.968345)"><g><path d="M 2.171875 0 L 1.140625 0 C 0.734375 0 0.53125 -0.195312 0.53125 -0.59375 C 0.53125 -0.757812 0.53125 -0.941406 0.53125 -1.140625 C 0.539062 -1.347656 0.546875 -1.59375 0.546875 -1.875 C 0.546875 -2.164062 0.546875 -2.507812 0.546875 -2.90625 C 0.546875 -3.300781 0.546875 -3.773438 0.546875 -4.328125 C 0.546875 -4.742188 0.75 -4.953125 1.15625 -4.953125 L 2.171875 -4.953125 C 2.710938 -4.953125 3.148438 -4.875 3.484375 -4.71875 C 3.828125 -4.5625 4.078125 -4.304688 4.234375 -3.953125 C 4.390625 -3.597656 4.46875 -3.128906 4.46875 -2.546875 C 4.46875 -1.679688 4.285156 -1.039062 3.921875 -0.625 C 3.566406 -0.207031 2.984375 0 2.171875 0 Z M 1.875 -0.984375 L 2.140625 -0.984375 C 2.515625 -0.984375 2.773438 -1.113281 2.921875 -1.375 C 3.066406 -1.632812 3.140625 -2.003906 3.140625 -2.484375 C 3.140625 -2.847656 3.109375 -3.140625 3.046875 -3.359375 C 2.992188 -3.578125 2.894531 -3.734375 2.75 -3.828125 C 2.601562 -3.921875 2.398438 -3.96875 2.140625 -3.96875 L 1.875 -3.96875 C 1.875 -3.8125 1.875 -3.632812 1.875 -3.4375 C 1.875 -3.25 1.875 -3.023438 1.875 -2.765625 C 1.875 -2.503906 1.875 -2.164062 1.875 -1.75 C 1.875 -1.625 1.875 -1.492188 1.875 -1.359375 C 1.875 -1.234375 1.875 -1.109375 1.875 -0.984375 Z M 1.875 -0.984375 "></path></g></g></g></svg>