<svg xmlns="http://www.w3.org/2000/svg" xmlns:xlink="http://www.w3.org/1999/xlink" width="52" viewBox="0 0 39 38.999999" height="52" preserveAspectRatio="xMidYMid meet"><defs><g></g><clipPath id="9724982efd"><path d="M 20.390625 29.613281 L 25.027344 29.613281 L 25.027344 30.714844 L 20.390625 30.714844 Z M 20.390625 29.613281 " clip-rule="nonzero"></path></clipPath><clipPath id="9f917587c4"><path d="M 20.390625 22.238281 L 25.027344 22.238281 L 25.027344 23.335938 L 20.390625 23.335938 Z M 20.390625 22.238281 " clip-rule="nonzero"></path></clipPath><clipPath id="79884d8ea9"><path d="M 20.390625 14.859375 L 25.027344 14.859375 L 25.027344 15.960938 L 20.390625 15.960938 Z M 20.390625 14.859375 " clip-rule="nonzero"></path></clipPath><clipPath id="0c44816dec"><path d="M 20.390625 27.15625 L 25.027344 27.15625 L 25.027344 28.253906 L 20.390625 28.253906 Z M 20.390625 27.15625 " clip-rule="nonzero"></path></clipPath><clipPath id="a0657dae1a"><path d="M 20.390625 19.777344 L 25.027344 19.777344 L 25.027344 20.878906 L 20.390625 20.878906 Z M 20.390625 19.777344 " clip-rule="nonzero"></path></clipPath><clipPath id="3c231ea203"><path d="M 20.390625 12.402344 L 25.027344 12.402344 L 25.027344 13.5 L 20.390625 13.5 Z M 20.390625 12.402344 " clip-rule="nonzero"></path></clipPath><clipPath id="cc05a7f048"><path d="M 20.390625 24.695312 L 25.027344 24.695312 L 25.027344 25.796875 L 20.390625 25.796875 Z M 20.390625 24.695312 " clip-rule="nonzero"></path></clipPath><clipPath id="907c741232"><path d="M 20.390625 17.320312 L 25.027344 17.320312 L 25.027344 18.417969 L 20.390625 18.417969 Z M 20.390625 17.320312 " clip-rule="nonzero"></path></clipPath><clipPath id="78aa890d1b"><path d="M 20.390625 9.941406 L 25.027344 9.941406 L 25.027344 11.042969 L 20.390625 11.042969 Z M 20.390625 9.941406 " clip-rule="nonzero"></path></clipPath></defs><g clip-path="url(#9724982efd)"><path fill="#ffffff" d="M 20.390625 29.613281 L 25.027344 29.613281 L 25.027344 30.714844 L 20.390625 30.714844 Z M 20.390625 29.613281 " fill-opacity="1" fill-rule="nonzero"></path></g><g clip-path="url(#9f917587c4)"><path fill="#ffffff" d="M 20.390625 22.238281 L 25.027344 22.238281 L 25.027344 23.335938 L 20.390625 23.335938 Z M 20.390625 22.238281 " fill-opacity="1" fill-rule="nonzero"></path></g><g clip-path="url(#79884d8ea9)"><path fill="#ffffff" d="M 20.390625 14.859375 L 25.027344 14.859375 L 25.027344 15.960938 L 20.390625 15.960938 Z M 20.390625 14.859375 " fill-opacity="1" fill-rule="nonzero"></path></g><g clip-path="url(#0c44816dec)"><path fill="#ffffff" d="M 20.390625 27.15625 L 25.027344 27.15625 L 25.027344 28.253906 L 20.390625 28.253906 Z M 20.390625 27.15625 " fill-opacity="1" fill-rule="nonzero"></path></g><g clip-path="url(#a0657dae1a)"><path fill="#ffffff" d="M 20.390625 19.777344 L 25.027344 19.777344 L 25.027344 20.878906 L 20.390625 20.878906 Z M 20.390625 19.777344 " fill-opacity="1" fill-rule="nonzero"></path></g><g clip-path="url(#3c231ea203)"><path fill="#ffffff" d="M 20.390625 12.402344 L 25.027344 12.402344 L 25.027344 13.5 L 20.390625 13.5 Z M 20.390625 12.402344 " fill-opacity="1" fill-rule="nonzero"></path></g><g clip-path="url(#cc05a7f048)"><path fill="#ffffff" d="M 20.390625 24.695312 L 25.027344 24.695312 L 25.027344 25.796875 L 20.390625 25.796875 Z M 20.390625 24.695312 " fill-opacity="1" fill-rule="nonzero"></path></g><g clip-path="url(#907c741232)"><path fill="#ffffff" d="M 20.390625 17.320312 L 25.027344 17.320312 L 25.027344 18.417969 L 20.390625 18.417969 Z M 20.390625 17.320312 " fill-opacity="1" fill-rule="nonzero"></path></g><g clip-path="url(#78aa890d1b)"><path fill="#ffffff" d="M 20.390625 9.941406 L 25.027344 9.941406 L 25.027344 11.042969 L 20.390625 11.042969 Z M 20.390625 9.941406 " fill-opacity="1" fill-rule="nonzero"></path></g><g fill="#ffffff" fill-opacity="1"><g transform="translate(8.326793, 16.04146)"><g><path d="M 4.9375 -6.109375 L 4.9375 -4.921875 L 3.3125 -4.921875 L 3.3125 0 L 1.828125 0 L 1.828125 -4.921875 L 0.203125 -4.921875 L 0.203125 -6.109375 Z M 4.9375 -6.109375 "></path></g></g></g><g fill="#ffffff" fill-opacity="1"><g transform="translate(13.471502, 16.04146)"><g><path d="M 5.828125 -6.109375 L 5.828125 0 L 4.34375 0 L 4.34375 -2.515625 L 2.03125 -2.515625 L 2.03125 0 L 0.546875 0 L 0.546875 -6.109375 L 2.03125 -6.109375 L 2.03125 -3.71875 L 4.34375 -3.71875 L 4.34375 -6.109375 Z M 5.828125 -6.109375 "></path></g></g></g><g fill="#ffffff" fill-opacity="1"><g transform="translate(2.037372, 23.568484)"><g><path d="M 4.375 -3.234375 C 4.738281 -3.160156 5.03125 -2.976562 5.25 -2.6875 C 5.476562 -2.40625 5.59375 -2.082031 5.59375 -1.71875 C 5.59375 -1.1875 5.40625 -0.765625 5.03125 -0.453125 C 4.664062 -0.148438 4.15625 0 3.5 0 L 0.5625 0 L 0.5625 -6.3125 L 3.390625 -6.3125 C 4.035156 -6.3125 4.535156 -6.160156 4.890625 -5.859375 C 5.253906 -5.566406 5.4375 -5.171875 5.4375 -4.671875 C 5.4375 -4.296875 5.335938 -3.984375 5.140625 -3.734375 C 4.953125 -3.492188 4.695312 -3.328125 4.375 -3.234375 Z M 2.09375 -3.75 L 3.09375 -3.75 C 3.351562 -3.75 3.546875 -3.804688 3.671875 -3.921875 C 3.804688 -4.035156 3.875 -4.195312 3.875 -4.40625 C 3.875 -4.625 3.804688 -4.789062 3.671875 -4.90625 C 3.546875 -5.019531 3.351562 -5.078125 3.09375 -5.078125 L 2.09375 -5.078125 Z M 3.21875 -1.234375 C 3.476562 -1.234375 3.675781 -1.289062 3.8125 -1.40625 C 3.957031 -1.53125 4.03125 -1.703125 4.03125 -1.921875 C 4.03125 -2.140625 3.957031 -2.3125 3.8125 -2.4375 C 3.664062 -2.5625 3.460938 -2.625 3.203125 -2.625 L 2.09375 -2.625 L 2.09375 -1.234375 Z M 3.21875 -1.234375 "></path></g></g></g><g fill="#ffffff" fill-opacity="1"><g transform="translate(7.702733, 23.568484)"><g><path d="M 4.484375 -1.109375 L 2.125 -1.109375 L 1.75 0 L 0.140625 0 L 2.421875 -6.3125 L 4.203125 -6.3125 L 6.484375 0 L 4.859375 0 Z M 4.09375 -2.296875 L 3.3125 -4.609375 L 2.53125 -2.296875 Z M 4.09375 -2.296875 "></path></g></g></g><g fill="#ffffff" fill-opacity="1"><g transform="translate(14.068412, 23.568484)"><g><path d="M 2.84375 0.0625 C 2.375 0.0625 1.957031 -0.0078125 1.59375 -0.15625 C 1.226562 -0.3125 0.9375 -0.535156 0.71875 -0.828125 C 0.5 -1.117188 0.382812 -1.472656 0.375 -1.890625 L 2.015625 -1.890625 C 2.035156 -1.648438 2.113281 -1.46875 2.25 -1.34375 C 2.394531 -1.226562 2.578125 -1.171875 2.796875 -1.171875 C 3.023438 -1.171875 3.203125 -1.222656 3.328125 -1.328125 C 3.460938 -1.429688 3.53125 -1.578125 3.53125 -1.765625 C 3.53125 -1.921875 3.476562 -2.046875 3.375 -2.140625 C 3.269531 -2.242188 3.140625 -2.328125 2.984375 -2.390625 C 2.835938 -2.460938 2.617188 -2.539062 2.328125 -2.625 C 1.921875 -2.75 1.585938 -2.875 1.328125 -3 C 1.078125 -3.125 0.859375 -3.304688 0.671875 -3.546875 C 0.484375 -3.796875 0.390625 -4.117188 0.390625 -4.515625 C 0.390625 -5.109375 0.601562 -5.566406 1.03125 -5.890625 C 1.457031 -6.222656 2.007812 -6.390625 2.6875 -6.390625 C 3.382812 -6.390625 3.945312 -6.222656 4.375 -5.890625 C 4.800781 -5.566406 5.03125 -5.109375 5.0625 -4.515625 L 3.390625 -4.515625 C 3.378906 -4.710938 3.304688 -4.867188 3.171875 -4.984375 C 3.035156 -5.109375 2.859375 -5.171875 2.640625 -5.171875 C 2.453125 -5.171875 2.300781 -5.117188 2.1875 -5.015625 C 2.070312 -4.921875 2.015625 -4.78125 2.015625 -4.59375 C 2.015625 -4.382812 2.109375 -4.222656 2.296875 -4.109375 C 2.492188 -3.992188 2.796875 -3.875 3.203125 -3.75 C 3.609375 -3.613281 3.9375 -3.476562 4.1875 -3.34375 C 4.445312 -3.21875 4.671875 -3.035156 4.859375 -2.796875 C 5.046875 -2.554688 5.140625 -2.25 5.140625 -1.875 C 5.140625 -1.519531 5.046875 -1.191406 4.859375 -0.890625 C 4.679688 -0.597656 4.414062 -0.363281 4.0625 -0.1875 C 3.71875 -0.0195312 3.3125 0.0625 2.84375 0.0625 Z M 2.84375 0.0625 "></path></g></g></g><g fill="#ffffff" fill-opacity="1"><g transform="translate(11.819175, 30.802016)"><g><path d="M 7.5625 -6.203125 L 7.5625 0 L 6.0625 0 L 6.0625 -3.71875 L 4.671875 0 L 3.453125 0 L 2.0625 -3.71875 L 2.0625 0 L 0.546875 0 L 0.546875 -6.203125 L 2.328125 -6.203125 L 4.0625 -1.90625 L 5.796875 -6.203125 Z M 7.5625 -6.203125 "></path></g></g></g><g fill="#ffffff" fill-opacity="1"><g transform="translate(25.571146, 30.748024)"><g><path d="M 6.09375 0 L 4.578125 0 L 2.0625 -3.828125 L 2.0625 0 L 0.546875 0 L 0.546875 -6.203125 L 2.0625 -6.203125 L 4.578125 -2.359375 L 4.578125 -6.203125 L 6.09375 -6.203125 Z M 6.09375 0 "></path></g></g></g><g fill="#ffffff" fill-opacity="1"><g transform="translate(31.809314, 30.748024)"><g><path d="M 5 -6.203125 L 5 -4.984375 L 3.359375 -4.984375 L 3.359375 0 L 1.859375 0 L 1.859375 -4.984375 L 0.21875 -4.984375 L 0.21875 -6.203125 Z M 5 -6.203125 "></path></g></g></g></svg>