<svg xmlns="http://www.w3.org/2000/svg" xmlns:xlink="http://www.w3.org/1999/xlink" width="122" viewBox="0 0 91.5 30.000001" height="40" preserveAspectRatio="xMidYMid meet"><defs><g></g><clipPath id="ea1f7d1fd4"><path d="M 36.046875 10.558594 L 42.914062 10.558594 L 42.914062 22.324219 L 36.046875 22.324219 Z M 36.046875 10.558594 " clip-rule="nonzero"></path></clipPath><clipPath id="cd7a6bc2c7"><path d="M 37 8 L 42 8 L 42 23 L 37 23 Z M 37 8 " clip-rule="nonzero"></path></clipPath><clipPath id="4f59d8dbc9"><path d="M 34.726562 10.265625 L 40.90625 8.148438 L 45.132812 20.511719 L 38.953125 22.625 Z M 34.726562 10.265625 " clip-rule="nonzero"></path></clipPath><clipPath id="4cd1b0f2ea"><path d="M 34.726562 10.265625 L 40.90625 8.148438 L 45.132812 20.511719 L 38.953125 22.625 Z M 34.726562 10.265625 " clip-rule="nonzero"></path></clipPath><clipPath id="6992fa3e5c"><path d="M 37 9 L 40 9 L 40 23 L 37 23 Z M 37 9 " clip-rule="nonzero"></path></clipPath><clipPath id="6dd40f368d"><path d="M 34.726562 10.265625 L 40.90625 8.148438 L 45.132812 20.511719 L 38.953125 22.625 Z M 34.726562 10.265625 " clip-rule="nonzero"></path></clipPath><clipPath id="5de1a66c4f"><path d="M 34.726562 10.265625 L 40.90625 8.148438 L 45.132812 20.511719 L 38.953125 22.625 Z M 34.726562 10.265625 " clip-rule="nonzero"></path></clipPath></defs><g fill="#ffffff" fill-opacity="1"><g transform="translate(5.038472, 22.323316)"><g><path d="M 9.515625 -0.484375 C 9.160156 -0.265625 8.726562 -0.0976562 8.21875 0.015625 C 7.71875 0.140625 7.1875 0.203125 6.625 0.203125 C 5.082031 0.203125 3.894531 -0.175781 3.0625 -0.9375 C 2.226562 -1.695312 1.8125 -2.828125 1.8125 -4.328125 L 1.8125 -8.3125 L 0.09375 -8.3125 L 0.09375 -11.40625 L 1.8125 -11.40625 L 1.8125 -14.5 L 5.96875 -14.5 L 5.96875 -11.40625 L 8.671875 -11.40625 L 8.671875 -8.3125 L 5.96875 -8.3125 L 5.96875 -4.375 C 5.96875 -3.945312 6.078125 -3.613281 6.296875 -3.375 C 6.523438 -3.132812 6.832031 -3.015625 7.21875 -3.015625 C 7.695312 -3.015625 8.117188 -3.140625 8.484375 -3.390625 Z M 9.515625 -0.484375 "></path></g></g></g><g fill="#ffffff" fill-opacity="1"><g transform="translate(12.580221, 22.323316)"><g><path d="M 9.046875 -12.046875 C 10.515625 -12.046875 11.695312 -11.609375 12.59375 -10.734375 C 13.5 -9.859375 13.953125 -8.539062 13.953125 -6.78125 L 13.953125 0 L 9.796875 0 L 9.796875 -6.09375 C 9.796875 -7.71875 9.144531 -8.53125 7.84375 -8.53125 C 7.132812 -8.53125 6.5625 -8.296875 6.125 -7.828125 C 5.695312 -7.359375 5.484375 -6.660156 5.484375 -5.734375 L 5.484375 0 L 1.328125 0 L 1.328125 -16.21875 L 5.484375 -16.21875 L 5.484375 -10.75 C 5.941406 -11.175781 6.472656 -11.5 7.078125 -11.71875 C 7.691406 -11.9375 8.347656 -12.046875 9.046875 -12.046875 Z M 9.046875 -12.046875 "></path></g></g></g><g fill="#ffffff" fill-opacity="1"><g transform="translate(25.565151, 22.323316)"><g><path d="M 13.796875 -11.84375 L 13.796875 0 L 9.84375 0 L 9.84375 -1.265625 C 9.40625 -0.785156 8.878906 -0.421875 8.265625 -0.171875 C 7.648438 0.078125 7 0.203125 6.3125 0.203125 C 4.78125 0.203125 3.5625 -0.25 2.65625 -1.15625 C 1.75 -2.0625 1.296875 -3.414062 1.296875 -5.21875 L 1.296875 -11.84375 L 5.4375 -11.84375 L 5.4375 -5.90625 C 5.4375 -5.007812 5.601562 -4.359375 5.9375 -3.953125 C 6.28125 -3.546875 6.769531 -3.34375 7.40625 -3.34375 C 8.0625 -3.34375 8.597656 -3.570312 9.015625 -4.03125 C 9.429688 -4.488281 9.640625 -5.191406 9.640625 -6.140625 L 9.640625 -11.84375 Z M 13.796875 -11.84375 "></path></g></g></g><g fill="#ffffff" fill-opacity="1"><g transform="translate(38.462639, 22.323316)"><g><path d="M 9.046875 -12.046875 C 10.515625 -12.046875 11.695312 -11.609375 12.59375 -10.734375 C 13.5 -9.859375 13.953125 -8.539062 13.953125 -6.78125 L 13.953125 0 L 9.796875 0 L 9.796875 -6.09375 C 9.796875 -7.71875 9.144531 -8.53125 7.84375 -8.53125 C 7.132812 -8.53125 6.5625 -8.296875 6.125 -7.828125 C 5.695312 -7.359375 5.484375 -6.660156 5.484375 -5.734375 L 5.484375 0 L 1.328125 0 L 1.328125 -11.84375 L 5.296875 -11.84375 L 5.296875 -10.5625 C 5.753906 -11.039062 6.300781 -11.40625 6.9375 -11.65625 C 7.582031 -11.914062 8.285156 -12.046875 9.046875 -12.046875 Z M 9.046875 -12.046875 "></path></g></g></g><g fill="#ffffff" fill-opacity="1"><g transform="translate(51.447571, 22.323316)"><g><path d="M 13.921875 -16.21875 L 13.921875 0 L 9.96875 0 L 9.96875 -1.1875 C 9.195312 -0.257812 8.039062 0.203125 6.5 0.203125 C 5.414062 0.203125 4.425781 -0.046875 3.53125 -0.546875 C 2.644531 -1.054688 1.941406 -1.773438 1.421875 -2.703125 C 0.910156 -3.640625 0.65625 -4.722656 0.65625 -5.953125 C 0.65625 -7.171875 0.910156 -8.242188 1.421875 -9.171875 C 1.941406 -10.097656 2.644531 -10.804688 3.53125 -11.296875 C 4.425781 -11.796875 5.414062 -12.046875 6.5 -12.046875 C 7.90625 -12.046875 8.992188 -11.640625 9.765625 -10.828125 L 9.765625 -16.21875 Z M 7.359375 -3.109375 C 8.078125 -3.109375 8.671875 -3.359375 9.140625 -3.859375 C 9.609375 -4.359375 9.84375 -5.054688 9.84375 -5.953125 C 9.84375 -6.816406 9.609375 -7.5 9.140625 -8 C 8.679688 -8.5 8.085938 -8.75 7.359375 -8.75 C 6.640625 -8.75 6.046875 -8.5 5.578125 -8 C 5.109375 -7.5 4.875 -6.816406 4.875 -5.953125 C 4.875 -5.054688 5.109375 -4.359375 5.578125 -3.859375 C 6.046875 -3.359375 6.640625 -3.109375 7.359375 -3.109375 Z M 7.359375 -3.109375 "></path></g></g></g><g fill="#ffffff" fill-opacity="1"><g transform="translate(64.476223, 22.323316)"><g><path d="M 13.4375 -5.90625 C 13.4375 -5.875 13.414062 -5.53125 13.375 -4.875 L 4.765625 -4.875 C 4.941406 -4.257812 5.28125 -3.785156 5.78125 -3.453125 C 6.28125 -3.128906 6.910156 -2.96875 7.671875 -2.96875 C 8.242188 -2.96875 8.734375 -3.046875 9.140625 -3.203125 C 9.554688 -3.367188 9.976562 -3.632812 10.40625 -4 L 12.59375 -1.734375 C 11.4375 -0.441406 9.753906 0.203125 7.546875 0.203125 C 6.160156 0.203125 4.941406 -0.0546875 3.890625 -0.578125 C 2.835938 -1.109375 2.023438 -1.835938 1.453125 -2.765625 C 0.878906 -3.703125 0.59375 -4.765625 0.59375 -5.953125 C 0.59375 -7.109375 0.867188 -8.148438 1.421875 -9.078125 C 1.984375 -10.003906 2.757812 -10.726562 3.75 -11.25 C 4.75 -11.78125 5.867188 -12.046875 7.109375 -12.046875 C 8.285156 -12.046875 9.351562 -11.800781 10.3125 -11.3125 C 11.28125 -10.820312 12.039062 -10.113281 12.59375 -9.1875 C 13.15625 -8.257812 13.4375 -7.164062 13.4375 -5.90625 Z M 7.125 -9.09375 C 6.488281 -9.09375 5.953125 -8.910156 5.515625 -8.546875 C 5.085938 -8.179688 4.816406 -7.6875 4.703125 -7.0625 L 9.546875 -7.0625 C 9.429688 -7.6875 9.160156 -8.179688 8.734375 -8.546875 C 8.304688 -8.910156 7.769531 -9.09375 7.125 -9.09375 Z M 7.125 -9.09375 "></path></g></g></g><g fill="#ffffff" fill-opacity="1"><g transform="translate(76.280705, 22.323316)"><g><path d="M 5.296875 -10.421875 C 5.710938 -10.960938 6.257812 -11.367188 6.9375 -11.640625 C 7.613281 -11.910156 8.390625 -12.046875 9.265625 -12.046875 L 9.265625 -8.3125 C 8.890625 -8.351562 8.578125 -8.375 8.328125 -8.375 C 7.441406 -8.375 6.742188 -8.128906 6.234375 -7.640625 C 5.734375 -7.160156 5.484375 -6.425781 5.484375 -5.4375 L 5.484375 0 L 1.328125 0 L 1.328125 -11.84375 L 5.296875 -11.84375 Z M 5.296875 -10.421875 "></path></g></g></g><g clip-path="url(#ea1f7d1fd4)"><path fill="#ffffff" d="M 36.046875 10.558594 L 42.914062 10.558594 L 42.914062 22.316406 L 36.046875 22.316406 Z M 36.046875 10.558594 " fill-opacity="1" fill-rule="nonzero"></path></g><g clip-path="url(#cd7a6bc2c7)"><g clip-path="url(#4f59d8dbc9)"><g clip-path="url(#4cd1b0f2ea)"><path fill="#000000" d="M 37.769531 9.222656 L 40.859375 8.164062 L 39.828125 13.160156 L 41.640625 12.539062 L 38.851562 22.3125 L 39.210938 15.351562 L 37.269531 16.125 Z M 37.769531 9.222656 " fill-opacity="1" fill-rule="nonzero"></path></g></g></g><g clip-path="url(#6992fa3e5c)"><g clip-path="url(#6dd40f368d)"><g clip-path="url(#5de1a66c4f)"><path fill="#ffffff" d="M 37.769531 9.222656 L 38.300781 9.042969 L 37.269531 16.125 Z M 38.851562 22.3125 L 39.582031 15.222656 L 39.210938 15.351562 Z M 38.851562 22.3125 " fill-opacity="1" fill-rule="nonzero"></path></g></g></g></svg>