<svg xmlns="http://www.w3.org/2000/svg" width="34.394" height="34.394" viewBox="0 0 34.394 34.394"><g transform="translate(-1 -1)"><g transform="translate(9.876 9.876)"><path d="M40.3,30.65a.555.555,0,0,0-.555-.555A10.552,10.552,0,0,1,29.2,19.555a.555.555,0,1,0-1.11,0A10.552,10.552,0,0,1,17.555,30.1a.555.555,0,0,0,0,1.11A10.552,10.552,0,0,1,28.1,41.745a.555.555,0,0,0,1.11,0A10.552,10.552,0,0,1,39.745,31.2a.555.555,0,0,0,.555-.555Z" transform="translate(-17 -17.89)" fill="#c4a2fc"></path><path d="M55.321,50.883a3.332,3.332,0,0,1-3.329-3.329.555.555,0,1,0-1.109,0,3.332,3.332,0,0,1-3.328,3.329.555.555,0,1,0,0,1.109,3.332,3.332,0,0,1,3.328,3.329.555.555,0,0,0,1.109,0,3.332,3.332,0,0,1,3.329-3.329.555.555,0,1,0,0-1.11Z" transform="translate(-30.357 -30.357)" fill="#c4a2fc"></path><path d="M47.555,21.993a3.332,3.332,0,0,1,3.329,3.329.555.555,0,1,0,1.109,0,3.332,3.332,0,0,1,3.329-3.328.555.555,0,1,0,0-1.11,3.332,3.332,0,0,1-3.329-3.329.555.555,0,1,0-1.109,0,3.332,3.332,0,0,1-3.328,3.329.555.555,0,1,0,0,1.11Z" transform="translate(-30.357 -17)" fill="#c4a2fc"></path></g><path d="M24.42,25.955a11.76,11.76,0,0,0-8.459-9.02,6.936,6.936,0,0,0,3.9-6.226V7.934a6.934,6.934,0,1,0-13.869,0v2.774a6.936,6.936,0,0,0,3.9,6.226,11.76,11.76,0,0,0-8.459,9.02l-.424,2.119a.555.555,0,0,0,.544.664H24.3a.555.555,0,0,0,.544-.664ZM7.1,7.934a5.822,5.822,0,1,1,11.642-.159,10.644,10.644,0,0,1-3.459-2.594.573.573,0,0,0-.833,0A10.537,10.537,0,0,1,7.1,8.737Zm0,2.774v-.86a11.642,11.642,0,0,0,7.767-3.485,11.732,11.732,0,0,0,3.883,2.628v1.717a5.825,5.825,0,0,1-11.65,0ZM2.231,27.628l.291-1.456a10.611,10.611,0,0,1,20.809,0l.291,1.456Z" transform="translate(0 0)" fill="#151a6a"></path><path d="M13.578,38.186l-2.544,2.862-1.065-1.2a.555.555,0,1,0-.829.737l1.479,1.664a.555.555,0,0,0,.829,0l2.959-3.328a.555.555,0,1,0-.829-.737Z" transform="translate(-3.562 -16.474)" fill="#151a6a"></path></g></svg>