<svg xmlns="http://www.w3.org/2000/svg" xmlns:xlink="http://www.w3.org/1999/xlink" width="500" viewBox="0 0 375 374.999991" height="500" preserveAspectRatio="xMidYMid meet"><defs><g></g><clipPath id="248aa188da"><path d="M 287.066406 188.25 L 291.136719 188.25 L 291.136719 192.320312 L 287.066406 192.320312 Z M 287.066406 188.25 " clip-rule="nonzero"></path></clipPath><clipPath id="cdb8ae5bf0"><path d="M 289.101562 188.25 C 287.976562 188.25 287.066406 189.160156 287.066406 190.285156 C 287.066406 191.40625 287.976562 192.320312 289.101562 192.320312 C 290.226562 192.320312 291.136719 191.40625 291.136719 190.285156 C 291.136719 189.160156 290.226562 188.25 289.101562 188.25 Z M 289.101562 188.25 " clip-rule="nonzero"></path></clipPath></defs><g fill="#000000" fill-opacity="1"><g transform="translate(87.411423, 230.82057)"><g><path d="M 115.96875 -42.875 C 115.132812 -42.65625 114.273438 -42.441406 113.390625 -42.234375 C 112.585938 -42.015625 111.78125 -41.804688 110.96875 -41.609375 C 105.175781 -40.023438 99.429688 -38.273438 93.734375 -36.359375 C 87.179688 -34.203125 80.675781 -31.84375 74.21875 -29.28125 C 73.101562 -28.832031 72.097656 -28.1875 71.203125 -27.34375 C 64.085938 -20.726562 56.628906 -14.601562 48.828125 -8.96875 C 41.035156 -3.34375 32.945312 1.867188 24.5625 6.671875 C 20.914062 8.828125 17.15625 10.757812 13.28125 12.46875 C 11.5 13.25 9.65625 13.859375 7.75 14.296875 C 7.488281 14.367188 7.234375 14.425781 6.984375 14.46875 C 6.117188 14.644531 5.269531 14.644531 4.4375 14.46875 C 3.113281 14.125 2.597656 13.285156 2.890625 11.953125 C 3.128906 11.003906 3.5625 10.128906 4.1875 9.328125 C 5.394531 7.671875 6.796875 6.191406 8.390625 4.890625 C 12.304688 1.640625 16.421875 -1.332031 20.734375 -4.03125 C 24.992188 -6.75 29.347656 -9.316406 33.796875 -11.734375 C 33.910156 -11.773438 34.015625 -11.835938 34.109375 -11.921875 C 34.242188 -12.015625 34.398438 -12.101562 34.578125 -12.1875 C 35.222656 -12.488281 35.609375 -13.019531 35.734375 -13.78125 C 35.960938 -14.914062 36.210938 -16.046875 36.484375 -17.171875 C 36.515625 -17.359375 36.554688 -17.554688 36.609375 -17.765625 C 37.179688 -20.304688 37.765625 -22.863281 38.359375 -25.4375 C 39.492188 -30.3125 40.617188 -35.1875 41.734375 -40.0625 C 42.484375 -43.144531 42.976562 -46.269531 43.21875 -49.4375 C 43.21875 -49.726562 43.265625 -50.023438 43.359375 -50.328125 C 43.535156 -50.679688 43.816406 -50.835938 44.203125 -50.796875 C 44.347656 -50.878906 44.519531 -50.910156 44.71875 -50.890625 C 44.875 -50.890625 45.007812 -50.847656 45.125 -50.765625 C 45.238281 -50.679688 45.304688 -50.5625 45.328125 -50.40625 C 45.429688 -49.9375 45.476562 -49.488281 45.46875 -49.0625 C 45.351562 -46.269531 44.953125 -43.515625 44.265625 -40.796875 C 43.128906 -35.898438 41.976562 -31 40.8125 -26.09375 C 40.351562 -24.070312 39.890625 -22.0625 39.421875 -20.0625 C 39.316406 -19.675781 39.222656 -19.289062 39.140625 -18.90625 C 38.859375 -17.6875 38.570312 -16.457031 38.28125 -15.21875 C 38.269531 -15.164062 38.265625 -15.125 38.265625 -15.09375 C 38.203125 -14.957031 38.175781 -14.832031 38.1875 -14.71875 C 38.195312 -14.601562 38.269531 -14.5 38.40625 -14.40625 C 38.4375 -14.382812 38.484375 -14.367188 38.546875 -14.359375 C 38.585938 -14.390625 38.640625 -14.421875 38.703125 -14.453125 C 38.734375 -14.453125 38.757812 -14.457031 38.78125 -14.46875 C 39.925781 -15.050781 41.046875 -15.628906 42.140625 -16.203125 C 44.128906 -17.210938 46.09375 -18.222656 48.03125 -19.234375 C 55 -22.679688 62.082031 -25.859375 69.28125 -28.765625 C 70.132812 -29.097656 70.890625 -29.582031 71.546875 -30.21875 C 73.398438 -32.0625 75.222656 -33.9375 77.015625 -35.84375 C 78.816406 -37.757812 80.515625 -39.75 82.109375 -41.8125 C 83.867188 -43.988281 85.40625 -46.335938 86.71875 -48.859375 C 87.5 -50.316406 88.019531 -51.875 88.28125 -53.53125 C 88.570312 -56.0625 87.78125 -58.117188 85.90625 -59.703125 C 85.21875 -60.296875 84.46875 -60.773438 83.65625 -61.140625 C 82.84375 -61.503906 82 -61.800781 81.125 -62.03125 C 78.164062 -62.769531 75.160156 -63.0625 72.109375 -62.90625 C 69.429688 -62.8125 66.773438 -62.550781 64.140625 -62.125 C 61.742188 -61.726562 59.375 -61.238281 57.03125 -60.65625 C 50.96875 -59.1875 45.046875 -57.269531 39.265625 -54.90625 C 35.316406 -53.34375 31.484375 -51.582031 27.765625 -49.625 C 24.054688 -47.664062 20.503906 -45.378906 17.109375 -42.765625 C 15.847656 -41.828125 14.640625 -40.832031 13.484375 -39.78125 C 12.335938 -38.738281 11.269531 -37.628906 10.28125 -36.453125 C 9.519531 -35.484375 8.832031 -34.476562 8.21875 -33.4375 C 7.75 -32.738281 7.453125 -31.960938 7.328125 -31.109375 C 7.117188 -29.796875 7.5625 -28.769531 8.65625 -28.03125 C 9.320312 -27.570312 10.0625 -27.265625 10.875 -27.109375 C 12.257812 -26.773438 13.65625 -26.675781 15.0625 -26.8125 C 15.8125 -26.863281 16.578125 -26.941406 17.359375 -27.046875 C 18.378906 -27.171875 19.40625 -27.285156 20.4375 -27.390625 C 21.269531 -27.484375 22.085938 -27.539062 22.890625 -27.5625 C 22.992188 -27.5625 23.085938 -27.53125 23.171875 -27.46875 C 23.253906 -27.40625 23.328125 -27.320312 23.390625 -27.21875 C 23.453125 -27.007812 23.425781 -26.863281 23.3125 -26.78125 C 23.195312 -26.695312 23.070312 -26.65625 22.9375 -26.65625 L 22.71875 -26.625 C 22.644531 -26.613281 22.566406 -26.597656 22.484375 -26.578125 C 21.734375 -26.492188 21.007812 -26.394531 20.3125 -26.28125 C 20.070312 -26.238281 19.835938 -26.203125 19.609375 -26.171875 C 19.253906 -26.109375 18.882812 -26.046875 18.5 -25.984375 L 18.453125 -25.984375 C 17.421875 -25.816406 16.390625 -25.671875 15.359375 -25.546875 C 14.335938 -25.429688 13.300781 -25.398438 12.25 -25.453125 C 11.070312 -25.515625 9.898438 -25.710938 8.734375 -26.046875 C 8.109375 -26.234375 7.507812 -26.484375 6.9375 -26.796875 C 5.207031 -27.828125 4.566406 -29.359375 5.015625 -31.390625 C 5.347656 -32.722656 5.9375 -33.941406 6.78125 -35.046875 C 7.851562 -36.617188 9.070312 -38.066406 10.4375 -39.390625 C 14.195312 -42.960938 18.316406 -46.023438 22.796875 -48.578125 C 26.390625 -50.679688 30.082031 -52.554688 33.875 -54.203125 C 37.664062 -55.859375 41.535156 -57.34375 45.484375 -58.65625 C 51.546875 -60.769531 57.726562 -62.351562 64.03125 -63.40625 C 64.226562 -63.4375 64.429688 -63.46875 64.640625 -63.5 C 67.035156 -63.882812 69.441406 -64.144531 71.859375 -64.28125 C 74.273438 -64.425781 76.691406 -64.363281 79.109375 -64.09375 C 81.097656 -63.863281 83.035156 -63.390625 84.921875 -62.671875 C 85.890625 -62.285156 86.789062 -61.78125 87.625 -61.15625 C 90.363281 -59.101562 91.390625 -56.34375 90.703125 -52.875 C 90.378906 -51.34375 89.832031 -49.875 89.0625 -48.46875 C 87.65625 -45.820312 86.023438 -43.347656 84.171875 -41.046875 C 81.878906 -38.191406 79.457031 -35.457031 76.90625 -32.84375 C 76.832031 -32.757812 76.738281 -32.6875 76.625 -32.625 C 76.488281 -32.476562 76.351562 -32.332031 76.21875 -32.1875 C 76.09375 -32.039062 76.023438 -31.847656 76.015625 -31.609375 C 76.128906 -31.535156 76.222656 -31.507812 76.296875 -31.53125 C 76.421875 -31.582031 76.539062 -31.625 76.65625 -31.65625 C 76.78125 -31.75 76.90625 -31.8125 77.03125 -31.84375 C 84.28125 -34.59375 91.609375 -37.078125 99.015625 -39.296875 C 102.578125 -40.335938 106.132812 -41.34375 109.6875 -42.3125 C 110.914062 -42.644531 112.132812 -42.976562 113.34375 -43.3125 C 113.757812 -43.4375 114.195312 -43.535156 114.65625 -43.609375 C 115.082031 -43.710938 115.515625 -43.742188 115.953125 -43.703125 C 116.015625 -43.679688 116.078125 -43.644531 116.140625 -43.59375 C 116.210938 -43.539062 116.25 -43.488281 116.25 -43.4375 C 116.300781 -43.28125 116.289062 -43.15625 116.21875 -43.0625 C 116.15625 -42.976562 116.070312 -42.914062 115.96875 -42.875 Z M 33.890625 -0.953125 C 33.890625 -0.953125 33.898438 -0.953125 33.921875 -0.953125 C 34.097656 -1.066406 34.253906 -1.195312 34.390625 -1.34375 C 34.535156 -1.5 34.617188 -1.691406 34.640625 -1.921875 C 34.585938 -1.910156 34.554688 -1.90625 34.546875 -1.90625 C 34.023438 -1.800781 33.679688 -1.8125 33.515625 -1.9375 C 33.359375 -2.070312 33.300781 -2.363281 33.34375 -2.8125 C 33.375 -3.113281 33.4375 -3.410156 33.53125 -3.703125 C 33.539062 -3.785156 33.554688 -3.847656 33.578125 -3.890625 C 33.691406 -4.441406 33.800781 -4.972656 33.90625 -5.484375 C 34.175781 -6.660156 34.429688 -7.84375 34.671875 -9.03125 C 34.679688 -9.070312 34.703125 -9.140625 34.734375 -9.234375 C 34.785156 -9.421875 34.8125 -9.597656 34.8125 -9.765625 C 34.8125 -9.941406 34.742188 -10.109375 34.609375 -10.265625 C 34.578125 -10.265625 34.550781 -10.265625 34.53125 -10.265625 C 34.414062 -10.210938 34.3125 -10.148438 34.21875 -10.078125 C 34.144531 -10.046875 34.082031 -10.007812 34.03125 -9.96875 C 30.988281 -8.289062 27.992188 -6.539062 25.046875 -4.71875 C 22.109375 -2.894531 19.226562 -0.972656 16.40625 1.046875 C 14.09375 2.640625 11.890625 4.367188 9.796875 6.234375 C 8.578125 7.265625 7.5 8.429688 6.5625 9.734375 C 6.039062 10.378906 5.6875 11.117188 5.5 11.953125 C 5.445312 12.222656 5.492188 12.46875 5.640625 12.6875 C 5.785156 12.90625 6.019531 13.023438 6.34375 13.046875 C 6.664062 13.085938 7.007812 13.082031 7.375 13.03125 C 7.75 12.96875 8.125 12.867188 8.5 12.734375 C 10.894531 11.890625 13.238281 10.882812 15.53125 9.71875 C 20.507812 7.1875 25.367188 4.4375 30.109375 1.46875 C 31.378906 0.6875 32.640625 -0.117188 33.890625 -0.953125 Z M 66.1875 -25.265625 C 66.207031 -25.328125 66.238281 -25.375 66.28125 -25.40625 C 66.363281 -25.457031 66.425781 -25.53125 66.46875 -25.625 C 66.507812 -25.71875 66.484375 -25.835938 66.390625 -25.984375 C 66.265625 -25.929688 66.128906 -25.867188 65.984375 -25.796875 C 65.160156 -25.410156 64.34375 -25.050781 63.53125 -24.71875 C 61.320312 -23.738281 59.125 -22.742188 56.9375 -21.734375 C 50.863281 -18.910156 44.867188 -15.914062 38.953125 -12.75 C 38.441406 -12.476562 38.023438 -12.160156 37.703125 -11.796875 C 37.390625 -11.441406 37.203125 -10.957031 37.140625 -10.34375 C 37.097656 -10.0625 37.035156 -9.769531 36.953125 -9.46875 C 36.890625 -9.320312 36.847656 -9.1875 36.828125 -9.0625 C 36.722656 -8.65625 36.546875 -8.082031 36.296875 -7.34375 C 36.054688 -6.59375 35.820312 -5.804688 35.59375 -4.984375 C 35.363281 -4.160156 35.222656 -3.460938 35.171875 -2.890625 C 35.117188 -2.328125 35.222656 -2.023438 35.484375 -1.984375 C 35.828125 -2.117188 36.140625 -2.3125 36.421875 -2.5625 C 36.554688 -2.664062 36.703125 -2.769531 36.859375 -2.875 C 43.242188 -7.019531 49.441406 -11.472656 55.453125 -16.234375 C 57.804688 -18.160156 60.144531 -20.109375 62.46875 -22.078125 C 63.476562 -22.941406 64.488281 -23.800781 65.5 -24.65625 C 65.519531 -24.6875 65.539062 -24.707031 65.5625 -24.71875 C 65.800781 -24.875 66.007812 -25.054688 66.1875 -25.265625 Z M 66.1875 -25.265625 "></path></g></g><g transform="translate(163.94556, 218.38961)"><g><path d="M 11.15625 -10.875 C 11.457031 -10.769531 11.535156 -10.398438 11.390625 -9.765625 C 11.140625 -9.265625 10.851562 -8.789062 10.53125 -8.34375 C 10.207031 -7.90625 9.835938 -7.492188 9.421875 -7.109375 C 9.390625 -7.109375 9.378906 -7.097656 9.390625 -7.078125 C 9.128906 -6.828125 8.835938 -6.597656 8.515625 -6.390625 C 5.921875 -4.941406 4.421875 -5.296875 4.015625 -7.453125 C 3.046875 -6.296875 2.390625 -5.578125 2.046875 -5.296875 C 1.222656 -4.609375 0.269531 -4.210938 -0.8125 -4.109375 C -1.601562 -4.003906 -2.175781 -4.144531 -2.53125 -4.53125 C -2.882812 -4.925781 -2.957031 -5.523438 -2.75 -6.328125 C -2.425781 -7.578125 -1.863281 -8.734375 -1.0625 -9.796875 C -0.132812 -10.992188 0.953125 -12.007812 2.203125 -12.84375 C 2.859375 -13.320312 3.582031 -13.582031 4.375 -13.625 C 5.175781 -13.707031 5.722656 -13.34375 6.015625 -12.53125 C 6.117188 -12.28125 6.09375 -12.039062 5.9375 -11.8125 C 5.71875 -11.539062 5.429688 -11.4375 5.078125 -11.5 C 5.054688 -11.5 5.019531 -11.5 4.96875 -11.5 C 4.925781 -11.507812 4.890625 -11.523438 4.859375 -11.546875 C 4.460938 -11.960938 4.097656 -12.101562 3.765625 -11.96875 C 3.429688 -11.832031 3.09375 -11.613281 2.75 -11.3125 C 1.132812 -9.988281 0.0507812 -8.328125 -0.5 -6.328125 C -0.539062 -6.234375 -0.554688 -6.132812 -0.546875 -6.03125 C -0.546875 -5.9375 -0.503906 -5.863281 -0.421875 -5.8125 C -0.210938 -5.78125 0.0078125 -5.832031 0.25 -5.96875 C 0.488281 -6.113281 0.71875 -6.300781 0.9375 -6.53125 C 1.164062 -6.769531 1.359375 -6.960938 1.515625 -7.109375 C 1.535156 -7.148438 1.546875 -7.171875 1.546875 -7.171875 C 2.273438 -8.015625 2.984375 -8.875 3.671875 -9.75 C 3.960938 -10.1875 4.378906 -10.472656 4.921875 -10.609375 C 5.679688 -10.734375 6.046875 -10.445312 6.015625 -9.75 C 5.992188 -9.476562 5.960938 -9.207031 5.921875 -8.9375 C 5.796875 -7.789062 5.890625 -7.144531 6.203125 -7 C 6.515625 -6.851562 6.9375 -6.921875 7.46875 -7.203125 C 8.007812 -7.492188 8.523438 -7.953125 9.015625 -8.578125 C 9.503906 -9.210938 9.910156 -9.78125 10.234375 -10.28125 C 10.554688 -10.789062 10.863281 -10.988281 11.15625 -10.875 Z M 11.15625 -10.875 "></path></g></g><g transform="translate(175.449104, 216.521161)"><g><path d="M 6.59375 -12 C 6.625 -11.1875 6.332031 -10.609375 5.71875 -10.265625 C 5.113281 -9.921875 4.851562 -10.203125 4.9375 -11.109375 C 5.019531 -12.023438 4.585938 -12.1875 3.640625 -11.59375 C 2.691406 -11 1.945312 -10.3125 1.40625 -9.53125 C 0.550781 -8.332031 -0.171875 -7.066406 -0.765625 -5.734375 C -0.835938 -5.609375 -0.890625 -5.507812 -0.921875 -5.4375 C -1.097656 -5.070312 -1.273438 -4.710938 -1.453125 -4.359375 C -1.566406 -4.128906 -1.722656 -3.972656 -1.921875 -3.890625 C -2.117188 -3.816406 -2.320312 -3.773438 -2.53125 -3.765625 C -2.738281 -3.765625 -2.90625 -3.816406 -3.03125 -3.921875 C -3.15625 -4.023438 -3.1875 -4.171875 -3.125 -4.359375 C -3.050781 -4.703125 -2.953125 -5.046875 -2.828125 -5.390625 C -2.109375 -7.492188 -1.367188 -9.601562 -0.609375 -11.71875 C -0.585938 -11.738281 -0.582031 -11.765625 -0.59375 -11.796875 C -0.476562 -12.128906 -0.34375 -12.441406 -0.1875 -12.734375 C 0.0078125 -13.015625 0.257812 -13.15625 0.5625 -13.15625 C 0.863281 -13.15625 1.09375 -13.015625 1.25 -12.734375 C 1.445312 -12.347656 1.597656 -12.132812 1.703125 -12.09375 C 1.804688 -12.050781 2.003906 -12.125 2.296875 -12.3125 C 2.960938 -12.6875 3.613281 -12.976562 4.25 -13.1875 C 4.894531 -13.394531 5.441406 -13.453125 5.890625 -13.359375 C 6.335938 -13.265625 6.570312 -12.8125 6.59375 -12 Z M 6.59375 -12 "></path></g></g><g transform="translate(184.124477, 215.112075)"><g><path d="M 11.15625 -10.875 C 11.457031 -10.769531 11.535156 -10.398438 11.390625 -9.765625 C 11.140625 -9.265625 10.851562 -8.789062 10.53125 -8.34375 C 10.207031 -7.90625 9.835938 -7.492188 9.421875 -7.109375 C 9.390625 -7.109375 9.378906 -7.097656 9.390625 -7.078125 C 9.128906 -6.828125 8.835938 -6.597656 8.515625 -6.390625 C 5.921875 -4.941406 4.421875 -5.296875 4.015625 -7.453125 C 3.046875 -6.296875 2.390625 -5.578125 2.046875 -5.296875 C 1.222656 -4.609375 0.269531 -4.210938 -0.8125 -4.109375 C -1.601562 -4.003906 -2.175781 -4.144531 -2.53125 -4.53125 C -2.882812 -4.925781 -2.957031 -5.523438 -2.75 -6.328125 C -2.425781 -7.578125 -1.863281 -8.734375 -1.0625 -9.796875 C -0.132812 -10.992188 0.953125 -12.007812 2.203125 -12.84375 C 2.859375 -13.320312 3.582031 -13.582031 4.375 -13.625 C 5.175781 -13.707031 5.722656 -13.34375 6.015625 -12.53125 C 6.117188 -12.28125 6.09375 -12.039062 5.9375 -11.8125 C 5.71875 -11.539062 5.429688 -11.4375 5.078125 -11.5 C 5.054688 -11.5 5.019531 -11.5 4.96875 -11.5 C 4.925781 -11.507812 4.890625 -11.523438 4.859375 -11.546875 C 4.460938 -11.960938 4.097656 -12.101562 3.765625 -11.96875 C 3.429688 -11.832031 3.09375 -11.613281 2.75 -11.3125 C 1.132812 -9.988281 0.0507812 -8.328125 -0.5 -6.328125 C -0.539062 -6.234375 -0.554688 -6.132812 -0.546875 -6.03125 C -0.546875 -5.9375 -0.503906 -5.863281 -0.421875 -5.8125 C -0.210938 -5.78125 0.0078125 -5.832031 0.25 -5.96875 C 0.488281 -6.113281 0.71875 -6.300781 0.9375 -6.53125 C 1.164062 -6.769531 1.359375 -6.960938 1.515625 -7.109375 C 1.535156 -7.148438 1.546875 -7.171875 1.546875 -7.171875 C 2.273438 -8.015625 2.984375 -8.875 3.671875 -9.75 C 3.960938 -10.1875 4.378906 -10.472656 4.921875 -10.609375 C 5.679688 -10.734375 6.046875 -10.445312 6.015625 -9.75 C 5.992188 -9.476562 5.960938 -9.207031 5.921875 -8.9375 C 5.796875 -7.789062 5.890625 -7.144531 6.203125 -7 C 6.515625 -6.851562 6.9375 -6.921875 7.46875 -7.203125 C 8.007812 -7.492188 8.523438 -7.953125 9.015625 -8.578125 C 9.503906 -9.210938 9.910156 -9.78125 10.234375 -10.28125 C 10.554688 -10.789062 10.863281 -10.988281 11.15625 -10.875 Z M 11.15625 -10.875 "></path></g></g><g transform="translate(195.628021, 213.243626)"><g><path d="M 5.6875 -8.4375 C 5.195312 -7.601562 4.578125 -6.8125 3.828125 -6.0625 C 3.085938 -5.3125 2.203125 -4.742188 1.171875 -4.359375 C 0.148438 -3.972656 -0.679688 -3.914062 -1.328125 -4.1875 C -1.984375 -4.457031 -2.234375 -5.257812 -2.078125 -6.59375 C -1.835938 -7.988281 -1.40625 -9.347656 -0.78125 -10.671875 C -0.632812 -10.960938 -0.398438 -11.1875 -0.078125 -11.34375 C 0.160156 -11.4375 0.390625 -11.425781 0.609375 -11.3125 C 0.828125 -11.195312 0.929688 -11.023438 0.921875 -10.796875 C 0.816406 -10.347656 0.691406 -9.898438 0.546875 -9.453125 C 0.410156 -9.003906 0.320312 -8.710938 0.28125 -8.578125 C -0.0195312 -7.765625 -0.179688 -6.941406 -0.203125 -6.109375 C -0.128906 -5.648438 0.488281 -5.722656 1.65625 -6.328125 C 2.820312 -6.929688 3.90625 -7.867188 4.90625 -9.140625 C 5.90625 -10.410156 6.410156 -10.816406 6.421875 -10.359375 C 6.429688 -9.910156 6.1875 -9.269531 5.6875 -8.4375 Z M 1.75 -13.75 C 1.6875 -13.6875 1.566406 -13.609375 1.390625 -13.515625 C 1.222656 -13.429688 1.039062 -13.351562 0.84375 -13.28125 C 0.65625 -13.21875 0.492188 -13.222656 0.359375 -13.296875 C 0.234375 -13.378906 0.203125 -13.566406 0.265625 -13.859375 C 0.378906 -14.367188 0.503906 -14.820312 0.640625 -15.21875 C 0.773438 -15.625 0.972656 -16.078125 1.234375 -16.578125 C 1.410156 -16.796875 1.617188 -16.929688 1.859375 -16.984375 C 2.097656 -17.035156 2.3125 -17.003906 2.5 -16.890625 C 2.6875 -16.785156 2.765625 -16.601562 2.734375 -16.34375 C 2.617188 -15.375 2.289062 -14.507812 1.75 -13.75 Z M 1.75 -13.75 "></path></g></g><g transform="translate(202.394811, 212.144539)"><g><path d="M 11.15625 -10.875 C 11.457031 -10.769531 11.535156 -10.398438 11.390625 -9.765625 C 11.140625 -9.265625 10.851562 -8.789062 10.53125 -8.34375 C 10.207031 -7.90625 9.835938 -7.492188 9.421875 -7.109375 C 9.390625 -7.109375 9.378906 -7.097656 9.390625 -7.078125 C 9.128906 -6.828125 8.835938 -6.597656 8.515625 -6.390625 C 5.921875 -4.941406 4.421875 -5.296875 4.015625 -7.453125 C 3.046875 -6.296875 2.390625 -5.578125 2.046875 -5.296875 C 1.222656 -4.609375 0.269531 -4.210938 -0.8125 -4.109375 C -1.601562 -4.003906 -2.175781 -4.144531 -2.53125 -4.53125 C -2.882812 -4.925781 -2.957031 -5.523438 -2.75 -6.328125 C -2.425781 -7.578125 -1.863281 -8.734375 -1.0625 -9.796875 C -0.132812 -10.992188 0.953125 -12.007812 2.203125 -12.84375 C 2.859375 -13.320312 3.582031 -13.582031 4.375 -13.625 C 5.175781 -13.707031 5.722656 -13.34375 6.015625 -12.53125 C 6.117188 -12.28125 6.09375 -12.039062 5.9375 -11.8125 C 5.71875 -11.539062 5.429688 -11.4375 5.078125 -11.5 C 5.054688 -11.5 5.019531 -11.5 4.96875 -11.5 C 4.925781 -11.507812 4.890625 -11.523438 4.859375 -11.546875 C 4.460938 -11.960938 4.097656 -12.101562 3.765625 -11.96875 C 3.429688 -11.832031 3.09375 -11.613281 2.75 -11.3125 C 1.132812 -9.988281 0.0507812 -8.328125 -0.5 -6.328125 C -0.539062 -6.234375 -0.554688 -6.132812 -0.546875 -6.03125 C -0.546875 -5.9375 -0.503906 -5.863281 -0.421875 -5.8125 C -0.210938 -5.78125 0.0078125 -5.832031 0.25 -5.96875 C 0.488281 -6.113281 0.71875 -6.300781 0.9375 -6.53125 C 1.164062 -6.769531 1.359375 -6.960938 1.515625 -7.109375 C 1.535156 -7.148438 1.546875 -7.171875 1.546875 -7.171875 C 2.273438 -8.015625 2.984375 -8.875 3.671875 -9.75 C 3.960938 -10.1875 4.378906 -10.472656 4.921875 -10.609375 C 5.679688 -10.734375 6.046875 -10.445312 6.015625 -9.75 C 5.992188 -9.476562 5.960938 -9.207031 5.921875 -8.9375 C 5.796875 -7.789062 5.890625 -7.144531 6.203125 -7 C 6.515625 -6.851562 6.9375 -6.921875 7.46875 -7.203125 C 8.007812 -7.492188 8.523438 -7.953125 9.015625 -8.578125 C 9.503906 -9.210938 9.910156 -9.78125 10.234375 -10.28125 C 10.554688 -10.789062 10.863281 -10.988281 11.15625 -10.875 Z M 11.15625 -10.875 "></path></g></g><g transform="translate(213.898355, 210.276091)"><g></g></g><g transform="translate(227.015519, 208.145552)"><g><path d="M 100.75 -2.015625 C 100.84375 -1.941406 100.898438 -1.832031 100.921875 -1.6875 L 100.9375 -1.578125 C 100.945312 -1.515625 100.957031 -1.460938 100.96875 -1.421875 C 100.9375 -1.253906 100.863281 -1.128906 100.75 -1.046875 C 100.632812 -0.972656 100.5 -0.925781 100.34375 -0.90625 C 100.28125 -0.894531 100.207031 -0.882812 100.125 -0.875 C 100.039062 -0.875 99.96875 -0.878906 99.90625 -0.890625 C 99.28125 -1.296875 98.617188 -1.53125 97.921875 -1.59375 C 97.234375 -1.65625 96.550781 -1.671875 95.875 -1.640625 C 95.46875 -1.628906 95.0625 -1.628906 94.65625 -1.640625 C 85.664062 -1.941406 76.695312 -1.84375 67.75 -1.34375 C 63.207031 -1.050781 58.660156 -0.691406 54.109375 -0.265625 C 50.609375 0.0546875 47.109375 0.46875 43.609375 0.96875 C 41.304688 1.3125 39.019531 1.617188 36.75 1.890625 C 35.0625 2.109375 33.367188 2.382812 31.671875 2.71875 C 31.128906 2.820312 30.609375 2.914062 30.109375 3 C 28.554688 3.28125 27.007812 3.550781 25.46875 3.8125 C 21.257812 4.5625 17.0625 5.351562 12.875 6.1875 C 9.28125 6.90625 5.707031 7.707031 2.15625 8.59375 C -1.394531 9.476562 -4.898438 10.53125 -8.359375 11.75 C -10.710938 12.53125 -12.976562 13.515625 -15.15625 14.703125 C -15.238281 14.734375 -15.320312 14.789062 -15.40625 14.875 C -15.644531 15.019531 -15.890625 15.144531 -16.140625 15.25 C -16.398438 15.351562 -16.6875 15.40625 -17 15.40625 C -17.351562 15.40625 -17.59375 15.253906 -17.71875 14.953125 C -17.757812 14.859375 -17.769531 14.75 -17.75 14.625 C -17.726562 14.507812 -17.6875 14.40625 -17.625 14.3125 C -17.21875 13.851562 -16.800781 13.425781 -16.375 13.03125 C -12.476562 9.195312 -8.707031 5.253906 -5.0625 1.203125 C 1.375 -5.804688 7.441406 -13.117188 13.140625 -20.734375 C 16.671875 -25.453125 20.273438 -30.113281 23.953125 -34.71875 C 26.285156 -37.644531 28.609375 -40.601562 30.921875 -43.59375 C 32.046875 -45.0625 33.15625 -46.546875 34.25 -48.046875 C 34.382812 -48.265625 34.515625 -48.460938 34.640625 -48.640625 C 34.722656 -48.691406 34.78125 -48.753906 34.8125 -48.828125 C 34.914062 -48.972656 35.015625 -49.117188 35.109375 -49.265625 C 35.210938 -49.421875 35.242188 -49.601562 35.203125 -49.8125 C 34.910156 -49.976562 34.625 -50.066406 34.34375 -50.078125 C 34.0625 -50.085938 33.765625 -50.066406 33.453125 -50.015625 C 33.316406 -49.992188 33.175781 -49.972656 33.03125 -49.953125 C 29.78125 -49.648438 26.546875 -49.273438 23.328125 -48.828125 C 20.117188 -48.390625 16.910156 -47.828125 13.703125 -47.140625 C 11.003906 -46.597656 8.3125 -45.988281 5.625 -45.3125 C 2.9375 -44.644531 0.28125 -43.851562 -2.34375 -42.9375 C -2.46875 -42.894531 -2.585938 -42.851562 -2.703125 -42.8125 C -3.179688 -42.644531 -3.632812 -42.453125 -4.0625 -42.234375 C -4.5 -42.023438 -4.898438 -41.734375 -5.265625 -41.359375 C -5.109375 -40.867188 -4.847656 -40.488281 -4.484375 -40.21875 C -4.128906 -39.945312 -3.734375 -39.71875 -3.296875 -39.53125 C -3.054688 -39.414062 -2.828125 -39.296875 -2.609375 -39.171875 C -1.316406 -38.441406 0.0546875 -37.878906 1.515625 -37.484375 C 1.566406 -37.472656 1.617188 -37.429688 1.671875 -37.359375 C 1.734375 -37.296875 1.773438 -37.238281 1.796875 -37.1875 C 1.828125 -37.019531 1.800781 -36.90625 1.71875 -36.84375 C 1.632812 -36.789062 1.546875 -36.738281 1.453125 -36.6875 C 0.859375 -36.457031 0.273438 -36.425781 -0.296875 -36.59375 C -1.421875 -36.9375 -2.507812 -37.34375 -3.5625 -37.8125 C -4.625 -38.28125 -5.628906 -38.859375 -6.578125 -39.546875 C -8.109375 -40.648438 -8.066406 -41.6875 -6.453125 -42.65625 C -5.578125 -43.195312 -4.644531 -43.648438 -3.65625 -44.015625 C -2.226562 -44.597656 -0.78125 -45.097656 0.6875 -45.515625 C 2.164062 -45.929688 3.640625 -46.335938 5.109375 -46.734375 C 5.253906 -46.753906 5.398438 -46.789062 5.546875 -46.84375 C 9.359375 -47.832031 13.203125 -48.65625 17.078125 -49.3125 C 20.960938 -49.96875 24.847656 -50.554688 28.734375 -51.078125 C 30.878906 -51.347656 33.039062 -51.546875 35.21875 -51.671875 C 35.769531 -51.703125 36.273438 -51.804688 36.734375 -51.984375 C 37.191406 -52.160156 37.597656 -52.488281 37.953125 -52.96875 C 38.035156 -53.113281 38.164062 -53.226562 38.34375 -53.3125 C 38.519531 -53.40625 38.691406 -53.5 38.859375 -53.59375 C 38.941406 -53.625 39.003906 -53.65625 39.046875 -53.6875 C 39.273438 -53.769531 39.476562 -53.757812 39.65625 -53.65625 C 39.832031 -53.5625 39.921875 -53.375 39.921875 -53.09375 C 39.941406 -52.800781 39.992188 -52.585938 40.078125 -52.453125 C 40.171875 -52.316406 40.363281 -52.257812 40.65625 -52.28125 C 40.78125 -52.269531 40.910156 -52.273438 41.046875 -52.296875 C 41.578125 -52.335938 42.117188 -52.332031 42.671875 -52.28125 C 43.003906 -52.257812 43.179688 -52.066406 43.203125 -51.703125 C 43.203125 -51.566406 43.160156 -51.453125 43.078125 -51.359375 C 43.003906 -51.273438 42.914062 -51.226562 42.8125 -51.21875 C 42.25 -51.070312 41.671875 -50.941406 41.078125 -50.828125 C 40.429688 -50.722656 39.921875 -50.640625 39.546875 -50.578125 C 39.085938 -50.515625 38.738281 -50.441406 38.5 -50.359375 C 38.269531 -50.285156 38.070312 -50.15625 37.90625 -49.96875 C 37.75 -49.789062 37.523438 -49.5 37.234375 -49.09375 C 37.023438 -48.789062 36.75 -48.410156 36.40625 -47.953125 C 33.6875 -44.265625 30.894531 -40.617188 28.03125 -37.015625 C 27.082031 -35.796875 26.128906 -34.585938 25.171875 -33.390625 C 21.015625 -28.003906 16.863281 -22.597656 12.71875 -17.171875 C 7.320312 -10.148438 1.628906 -3.414062 -4.359375 3.03125 C -5.710938 4.507812 -7.082031 5.976562 -8.46875 7.4375 C -9.289062 8.3125 -10.128906 9.1875 -10.984375 10.0625 C -11.023438 10.125 -11.082031 10.1875 -11.15625 10.25 C -11.28125 10.375 -11.394531 10.507812 -11.5 10.65625 C -11.601562 10.8125 -11.632812 11 -11.59375 11.21875 C -11.09375 11.0625 -10.578125 10.898438 -10.046875 10.734375 C -8.804688 10.335938 -7.554688 9.925781 -6.296875 9.5 C -2.328125 8.226562 1.710938 7.125 5.828125 6.1875 C 10.992188 5.050781 16.1875 3.992188 21.40625 3.015625 C 26.632812 2.046875 31.867188 1.15625 37.109375 0.34375 C 45.117188 -0.90625 53.148438 -1.820312 61.203125 -2.40625 C 73.242188 -3.257812 85.269531 -3.347656 97.28125 -2.671875 C 97.394531 -2.648438 97.503906 -2.640625 97.609375 -2.640625 C 98.335938 -2.628906 99.046875 -2.570312 99.734375 -2.46875 C 100.117188 -2.394531 100.457031 -2.242188 100.75 -2.015625 Z M 100.75 -2.015625 "></path></g></g><g transform="translate(247.784361, 204.772199)"><g><path d="M 1.390625 -15.328125 C 1.066406 -14.878906 0.757812 -14.640625 0.46875 -14.609375 C 0.175781 -14.578125 0.0390625 -14.890625 0.0625 -15.546875 C 0.09375 -16.515625 0.375 -17.4375 0.90625 -18.3125 C 1.019531 -18.457031 1.160156 -18.554688 1.328125 -18.609375 C 1.503906 -18.660156 1.679688 -18.671875 1.859375 -18.640625 C 1.953125 -18.585938 2.046875 -18.519531 2.140625 -18.4375 C 2.234375 -18.363281 2.285156 -18.285156 2.296875 -18.203125 C 2.316406 -17.148438 2.015625 -16.191406 1.390625 -15.328125 Z M 6.59375 -10.265625 C 6.675781 -10.273438 6.75 -10.269531 6.8125 -10.25 C 6.882812 -10.226562 6.941406 -10.1875 6.984375 -10.125 C 6.992188 -10.082031 6.988281 -10.019531 6.96875 -9.9375 C 6.957031 -9.863281 6.925781 -9.789062 6.875 -9.71875 C 6.625 -9.4375 6.359375 -9.175781 6.078125 -8.9375 C 5.554688 -8.5 5.03125 -8.050781 4.5 -7.59375 C 3.164062 -6.425781 1.804688 -5.3125 0.421875 -4.25 C -0.660156 -3.425781 -1.332031 -2.378906 -1.59375 -1.109375 C -2.21875 1.453125 -2.898438 4 -3.640625 6.53125 C -3.953125 7.707031 -4.3125 8.859375 -4.71875 9.984375 C -5.132812 11.117188 -5.644531 12.238281 -6.25 13.34375 C -7.414062 15.488281 -9.125 16.894531 -11.375 17.5625 C -13.207031 18.101562 -15.039062 18.285156 -16.875 18.109375 C -18.332031 17.960938 -19.726562 17.613281 -21.0625 17.0625 C -21.550781 16.832031 -22.015625 16.570312 -22.453125 16.28125 C -24.472656 14.96875 -24.546875 13.269531 -22.671875 11.1875 C -22.046875 10.519531 -21.378906 9.898438 -20.671875 9.328125 C -19.523438 8.410156 -18.363281 7.546875 -17.1875 6.734375 C -15.695312 5.679688 -14.210938 4.644531 -12.734375 3.625 C -10.265625 1.925781 -7.820312 0.234375 -5.40625 -1.453125 C -4.9375 -1.796875 -4.550781 -2.070312 -4.25 -2.28125 C -3.8125 -2.550781 -3.503906 -2.769531 -3.328125 -2.9375 C -3.160156 -3.113281 -3.023438 -3.3125 -2.921875 -3.53125 C -2.828125 -3.75 -2.726562 -4.097656 -2.625 -4.578125 C -2.5625 -4.953125 -2.429688 -5.453125 -2.234375 -6.078125 C -1.960938 -7.128906 -1.710938 -8.160156 -1.484375 -9.171875 C -1.316406 -9.910156 -1.15625 -10.640625 -1 -11.359375 C -0.875 -11.804688 -0.695312 -12.222656 -0.46875 -12.609375 C -0.25 -12.941406 0.0664062 -13.046875 0.484375 -12.921875 C 0.785156 -12.816406 0.925781 -12.597656 0.90625 -12.265625 C 0.851562 -11.953125 0.742188 -11.398438 0.578125 -10.609375 C 0.453125 -9.941406 0.328125 -9.242188 0.203125 -8.515625 C 0.078125 -7.785156 -0.015625 -7.160156 -0.078125 -6.640625 C -0.140625 -6.117188 -0.140625 -5.816406 -0.078125 -5.734375 C -0.00390625 -5.671875 0.148438 -5.71875 0.390625 -5.875 C 0.640625 -6.03125 1.046875 -6.320312 1.609375 -6.75 C 1.628906 -6.757812 1.640625 -6.765625 1.640625 -6.765625 C 2.535156 -7.453125 3.40625 -8.140625 4.25 -8.828125 C 4.582031 -9.078125 4.90625 -9.351562 5.21875 -9.65625 C 5.238281 -9.65625 5.25 -9.65625 5.25 -9.65625 C 5.457031 -9.820312 5.664062 -9.96875 5.875 -10.09375 C 6.09375 -10.21875 6.332031 -10.273438 6.59375 -10.265625 Z M -3.84375 0.203125 C -3.75 -0.0976562 -3.796875 -0.367188 -3.984375 -0.609375 C -4.285156 -0.578125 -4.546875 -0.445312 -4.765625 -0.21875 C -4.828125 -0.1875 -4.890625 -0.15625 -4.953125 -0.125 C -5.941406 0.5625 -6.925781 1.242188 -7.90625 1.921875 C -10.5 3.703125 -13.070312 5.476562 -15.625 7.25 C -17.03125 8.257812 -18.425781 9.328125 -19.8125 10.453125 C -20.394531 10.941406 -20.921875 11.476562 -21.390625 12.0625 C -22.316406 13.207031 -22.296875 14.15625 -21.328125 14.90625 C -21.109375 15.113281 -20.882812 15.28125 -20.65625 15.40625 C -19.476562 16.007812 -18.253906 16.429688 -16.984375 16.671875 C -15.710938 16.910156 -14.394531 16.9375 -13.03125 16.75 C -11.03125 16.414062 -9.46875 15.328125 -8.34375 13.484375 C -7.582031 12.222656 -6.984375 10.910156 -6.546875 9.546875 C -5.898438 7.359375 -5.269531 5.148438 -4.65625 2.921875 C -4.382812 2.015625 -4.113281 1.109375 -3.84375 0.203125 Z M -3.84375 0.203125 "></path></g></g><g transform="translate(254.846114, 203.625203)"><g><path d="M -0.0625 -3.125 C -1.164062 -2.945312 -1.8125 -3.4375 -2 -4.59375 C -2.226562 -5.988281 -1.71875 -8.609375 -0.46875 -12.453125 C -0.414062 -12.617188 -0.300781 -12.71875 -0.125 -12.75 C 0.601562 -12.863281 1.015625 -12.625 1.109375 -12.03125 C 1.140625 -11.832031 1.117188 -11.570312 1.046875 -11.25 C 1.015625 -11.15625 0.648438 -9.53125 -0.046875 -6.375 C -0.148438 -5.851562 -0.179688 -5.476562 -0.140625 -5.25 C -0.0976562 -4.988281 0.0390625 -4.878906 0.28125 -4.921875 C 1.125 -5.054688 2.992188 -7.519531 5.890625 -12.3125 C 6.253906 -12.945312 6.660156 -13.300781 7.109375 -13.375 C 7.773438 -13.476562 8.148438 -13.289062 8.234375 -12.8125 C 8.265625 -12.625 8.175781 -11.882812 7.96875 -10.59375 C 7.675781 -8.851562 7.550781 -7.859375 7.59375 -7.609375 C 7.65625 -7.222656 7.8125 -7.050781 8.0625 -7.09375 C 8.707031 -7.195312 10.382812 -8.628906 13.09375 -11.390625 C 13.25 -11.578125 13.382812 -11.679688 13.5 -11.703125 C 13.789062 -11.742188 13.972656 -11.523438 14.046875 -11.046875 C 14.066406 -10.910156 14.046875 -10.796875 13.984375 -10.703125 C 12.578125 -9.046875 11.363281 -7.757812 10.34375 -6.84375 C 9.40625 -6.007812 8.53125 -5.523438 7.71875 -5.390625 L 7.484375 -5.359375 C 6.253906 -5.410156 5.507812 -6.238281 5.25 -7.84375 C 4.15625 -6.519531 3.242188 -5.441406 2.515625 -4.609375 C 1.785156 -3.785156 0.925781 -3.289062 -0.0625 -3.125 Z M -0.0625 -3.125 "></path></g></g><g transform="translate(269.108426, 201.308665)"><g><path d="M 12.328125 -10.890625 C 12.554688 -10.691406 12.394531 -10.234375 11.84375 -9.515625 C 11.300781 -8.804688 10.695312 -8.179688 10.03125 -7.640625 C 9.375 -7.109375 8.597656 -6.550781 7.703125 -5.96875 C 7.117188 -5.582031 6.460938 -5.378906 5.734375 -5.359375 C 5.003906 -5.335938 4.570312 -5.710938 4.4375 -6.484375 C 4.3125 -7.265625 4.363281 -8.0625 4.59375 -8.875 C 4.820312 -9.726562 4.832031 -10.144531 4.625 -10.125 C 4.425781 -10.113281 4.039062 -9.859375 3.46875 -9.359375 C 1.988281 -8.003906 0.65625 -6.515625 -0.53125 -4.890625 C -0.84375 -4.367188 -1.289062 -4.03125 -1.875 -3.875 C -2.175781 -3.832031 -2.425781 -3.890625 -2.625 -4.046875 C -2.820312 -4.210938 -2.875 -4.414062 -2.78125 -4.65625 C -2.070312 -6.695312 -1.347656 -8.726562 -0.609375 -10.75 C -0.429688 -11.164062 -0.117188 -11.457031 0.328125 -11.625 C 0.515625 -11.6875 0.703125 -11.65625 0.890625 -11.53125 C 1.085938 -11.40625 1.203125 -11.242188 1.234375 -11.046875 C 1.242188 -10.847656 1.207031 -10.613281 1.125 -10.34375 C 1.082031 -10.1875 1.046875 -10.035156 1.015625 -9.890625 C 0.992188 -9.742188 1 -9.625 1.03125 -9.53125 C 1.0625 -9.4375 1.140625 -9.414062 1.265625 -9.46875 C 1.421875 -9.59375 1.570312 -9.722656 1.71875 -9.859375 C 2.125 -10.191406 2.507812 -10.507812 2.875 -10.8125 C 3.195312 -11.0625 3.539062 -11.300781 3.90625 -11.53125 C 4.28125 -11.757812 4.675781 -11.9375 5.09375 -12.0625 C 5.78125 -12.21875 6.296875 -12.140625 6.640625 -11.828125 C 6.992188 -11.523438 7.113281 -11.035156 7 -10.359375 C 6.851562 -9.742188 6.703125 -9.128906 6.546875 -8.515625 C 6.316406 -7.941406 6.328125 -7.53125 6.578125 -7.28125 C 6.828125 -7.039062 7.738281 -7.519531 9.3125 -8.71875 L 10.5 -9.671875 C 11.601562 -10.660156 12.210938 -11.066406 12.328125 -10.890625 Z M 12.328125 -10.890625 "></path></g></g></g><g clip-path="url(#248aa188da)"><g clip-path="url(#cdb8ae5bf0)"><path fill="#000000" d="M 287.066406 188.25 L 291.136719 188.25 L 291.136719 192.320312 L 287.066406 192.320312 Z M 287.066406 188.25 " fill-opacity="1" fill-rule="nonzero"></path></g></g></svg>