<svg xmlns="http://www.w3.org/2000/svg" xmlns:xlink="http://www.w3.org/1999/xlink" width="52" viewBox="0 0 39 38.999999" height="52" preserveAspectRatio="xMidYMid meet"><defs><g></g><clipPath id="13e67ba2d5"><path d="M 1.734375 4 L 36 4 L 36 37 L 1.734375 37 Z M 1.734375 4 " clip-rule="nonzero"></path></clipPath><clipPath id="7339208264"><path d="M 22 2 L 35 2 L 35 12 L 22 12 Z M 22 2 " clip-rule="nonzero"></path></clipPath><clipPath id="438513c969"><path d="M 23.082031 2.089844 L 34.273438 3.242188 L 33.351562 12.195312 L 22.160156 11.042969 Z M 23.082031 2.089844 " clip-rule="nonzero"></path></clipPath><clipPath id="f3548d7c1e"><path d="M 23.082031 2.089844 L 34.273438 3.242188 L 33.351562 12.195312 L 22.160156 11.042969 Z M 23.082031 2.089844 " clip-rule="nonzero"></path></clipPath></defs><g clip-path="url(#13e67ba2d5)"><path fill="#ff7f30" d="M 35.496094 24.289062 L 34.84375 26.339844 C 33.117188 30.375 30.207031 33.238281 26.113281 34.925781 C 21.992188 36.601562 17.609375 36.632812 12.960938 35.015625 C 8.574219 33.261719 5.40625 30.445312 3.453125 26.5625 C 2.828125 25.308594 2.382812 23.996094 2.113281 22.628906 L 1.855469 20.558594 C 1.773438 19.160156 1.902344 17.75 2.238281 16.328125 C 3.402344 11.996094 5.894531 8.753906 9.714844 6.609375 C 13.535156 4.464844 17.816406 3.898438 22.554688 4.917969 C 27.238281 6.15625 30.796875 8.59375 33.230469 12.238281 C 35.667969 15.882812 36.421875 19.898438 35.496094 24.289062 " fill-opacity="1" fill-rule="nonzero"></path></g><g clip-path="url(#7339208264)"><g clip-path="url(#438513c969)"><g clip-path="url(#f3548d7c1e)"><path fill="#1e1e1e" d="M 24.078125 10.894531 C 24.28125 10.875 24.683594 10.832031 25.089844 10.808594 C 25.496094 10.785156 25.90625 10.777344 26.320312 10.789062 C 26.734375 10.800781 27.152344 10.828125 27.46875 10.863281 C 27.78125 10.898438 27.988281 10.921875 28.1875 10.953125 C 28.386719 10.984375 28.582031 11.015625 28.769531 11.050781 C 28.957031 11.085938 29.136719 11.125 29.359375 11.171875 C 29.578125 11.222656 29.84375 11.28125 30.117188 11.351562 C 30.390625 11.417969 30.671875 11.492188 30.957031 11.574219 C 31.246094 11.652344 31.542969 11.742188 31.769531 11.804688 C 32 11.871094 32.105469 11.890625 32.199219 11.90625 C 32.296875 11.917969 32.390625 11.925781 32.527344 11.914062 C 32.664062 11.898438 32.945312 11.75 33.0625 11.261719 C 33.183594 10.773438 33.226562 10.285156 33.332031 9.699219 C 33.441406 9.113281 33.601562 8.433594 33.824219 7.660156 C 34.046875 6.886719 34.332031 6.019531 34.394531 5.222656 C 34.457031 4.429688 34.046875 4.339844 33.914062 4.402344 C 33.777344 4.464844 33.710938 4.515625 33.65625 4.570312 C 33.601562 4.628906 33.542969 4.691406 33.453125 4.792969 C 33.363281 4.894531 33.207031 5.082031 32.992188 5.335938 C 32.78125 5.585938 32.511719 5.90625 32.183594 6.296875 C 31.859375 6.6875 31.472656 7.144531 31.25 7.414062 C 31.023438 7.683594 31.003906 7.703125 30.996094 7.710938 C 30.988281 7.71875 31.003906 7.710938 31.050781 7.703125 C 31.097656 7.695312 31.179688 7.675781 31.203125 7.683594 C 31.230469 7.691406 31.222656 7.683594 31.183594 7.636719 C 31.144531 7.59375 31.089844 7.515625 31.019531 7.402344 C 30.949219 7.289062 30.875 7.148438 30.804688 7.011719 C 30.738281 6.878906 30.660156 6.695312 30.539062 6.398438 C 30.417969 6.101562 30.257812 5.691406 30.058594 5.167969 C 29.859375 4.644531 29.625 4.011719 29.476562 3.617188 C 29.328125 3.21875 29.292969 3.148438 29.253906 3.078125 C 29.210938 3.003906 29.152344 2.929688 29.066406 2.855469 C 28.980469 2.777344 28.84375 2.707031 28.722656 2.683594 C 28.601562 2.65625 28.347656 2.699219 28.203125 2.792969 C 28.0625 2.890625 27.984375 2.980469 27.933594 3.0625 C 27.882812 3.144531 27.839844 3.230469 27.457031 4.164062 C 27.074219 5.097656 26.40625 6.875 26.382812 6.933594 C 26.359375 6.992188 26.335938 7.042969 26.320312 7.074219 C 26.304688 7.105469 26.300781 7.113281 26.320312 7.09375 C 26.335938 7.074219 26.902344 6.898438 26.886719 6.878906 C 26.875 6.863281 26.664062 6.710938 26.34375 6.449219 C 26.019531 6.183594 25.597656 5.816406 25.074219 5.34375 C 24.550781 4.871094 23.921875 4.296875 23.847656 4.242188 C 23.773438 4.183594 23.691406 4.140625 23.574219 4.109375 C 23.457031 4.078125 23.296875 4.089844 23.152344 4.164062 C 23.007812 4.238281 22.820312 4.640625 22.859375 5.011719 C 22.898438 5.386719 22.992188 5.832031 23.136719 6.363281 C 23.277344 6.890625 23.472656 7.507812 23.664062 8 C 23.859375 8.496094 24.46875 8.320312 24.371094 7.984375 C 24.371094 7.984375 24.269531 7.285156 24.148438 6.707031 C 24.03125 6.128906 23.953125 5.652344 23.914062 5.28125 C 23.878906 4.914062 23.882812 4.65625 23.753906 4.875 C 23.625 5.09375 23.5 5.136719 23.398438 5.136719 C 23.292969 5.132812 23.234375 5.113281 23.210938 5.097656 C 23.1875 5.085938 23.164062 5.066406 23.722656 5.652344 C 24.277344 6.238281 24.75 6.71875 25.144531 7.089844 C 25.535156 7.464844 25.847656 7.738281 26.109375 7.921875 C 26.371094 8.105469 26.683594 8.214844 27.023438 8.066406 C 27.363281 7.917969 27.417969 7.84375 27.460938 7.769531 C 27.503906 7.695312 27.542969 7.621094 27.582031 7.535156 C 27.621094 7.453125 27.664062 7.351562 28.316406 5.566406 C 28.96875 3.78125 28.980469 3.75 28.988281 3.726562 C 28.996094 3.703125 28.992188 3.707031 28.949219 3.746094 C 28.90625 3.789062 28.773438 3.855469 28.617188 3.867188 C 28.460938 3.878906 28.410156 3.859375 28.335938 3.8125 C 28.261719 3.769531 28.230469 3.738281 28.222656 3.726562 C 28.21875 3.714844 28.222656 3.722656 28.234375 3.742188 C 28.246094 3.761719 28.558594 4.449219 28.820312 5.03125 C 29.085938 5.617188 29.304688 6.09375 29.476562 6.464844 C 29.648438 6.835938 29.777344 7.101562 29.863281 7.265625 C 29.949219 7.429688 30.050781 7.605469 30.148438 7.761719 C 30.246094 7.917969 30.34375 8.050781 30.441406 8.164062 C 30.535156 8.28125 30.640625 8.375 30.757812 8.445312 C 30.875 8.515625 30.988281 8.550781 31.117188 8.539062 C 31.25 8.523438 31.351562 8.488281 31.429688 8.441406 C 31.511719 8.394531 31.578125 8.339844 31.640625 8.28125 C 31.699219 8.21875 32.144531 7.734375 32.53125 7.320312 C 32.914062 6.902344 33.238281 6.554688 33.503906 6.273438 C 33.769531 5.988281 33.976562 5.773438 34.121094 5.628906 C 34.265625 5.480469 34.320312 5.421875 34.359375 5.386719 C 34.398438 5.351562 34.417969 5.335938 34.398438 5.351562 C 34.378906 5.363281 34.234375 5.414062 33.941406 5.054688 C 33.652344 4.695312 33.253906 5.605469 32.921875 6.453125 C 32.589844 7.300781 32.332031 8.078125 32.160156 8.78125 C 31.984375 9.488281 31.886719 10.125 31.863281 10.675781 C 31.84375 11.222656 32.066406 10.742188 32.238281 10.667969 C 32.410156 10.59375 32.4375 10.59375 32.410156 10.589844 C 32.386719 10.589844 32.328125 10.582031 32.261719 10.570312 C 32.195312 10.558594 31.890625 10.480469 31.582031 10.40625 C 31.269531 10.332031 30.96875 10.261719 30.671875 10.203125 C 30.378906 10.140625 30.089844 10.089844 29.808594 10.042969 C 29.527344 10 29.335938 9.972656 29.136719 9.949219 C 28.9375 9.925781 28.730469 9.902344 28.523438 9.882812 C 28.3125 9.867188 28.097656 9.851562 27.871094 9.835938 C 27.648438 9.824219 27.195312 9.816406 26.75 9.828125 C 26.304688 9.839844 25.863281 9.871094 25.433594 9.925781 C 25 9.976562 24.574219 10.046875 24.363281 10.097656 C 23.945312 10.1875 24.28125 10.859375 24.078125 10.894531 Z M 24.078125 10.894531 " fill-opacity="1" fill-rule="nonzero"></path></g></g></g><g fill="#1e1e1e" fill-opacity="1"><g transform="translate(2.863973, 18.739261)"><g><path d="M 8.265625 -6.25 L 9.078125 -5.359375 L 9 -1.046875 L 7.859375 -0.15625 L 0.3125 0.03125 L 0.421875 -12.546875 L 7.59375 -12.1875 L 8.515625 -11.015625 L 8.703125 -6.796875 Z M 5.671875 -7.453125 L 5.578125 -9.796875 L 3.453125 -10.125 L 3.5 -7.765625 Z M 6.015625 -5.109375 L 3.53125 -5.515625 L 3.515625 -2.53125 L 5.90625 -2.921875 Z M 6.015625 -5.109375 "></path></g></g></g><g fill="#1e1e1e" fill-opacity="1"><g transform="translate(1.888808, 32.637312)"><g><path d="M 9.125 -6.890625 L 10.03125 -5.921875 L 9.9375 -1.15625 L 8.6875 -0.171875 L 0.34375 0.03125 L 0.46875 -13.859375 L 8.390625 -13.453125 L 9.40625 -12.171875 L 9.609375 -7.5 Z M 6.265625 -8.234375 L 6.15625 -10.8125 L 3.8125 -11.171875 L 3.859375 -8.578125 Z M 6.65625 -5.640625 L 3.90625 -6.09375 L 3.875 -2.796875 L 6.53125 -3.21875 Z M 6.65625 -5.640625 "></path></g></g></g><g fill="#1e1e1e" fill-opacity="1"><g transform="translate(11.888716, 18.40147)"><g><path d="M 0.3125 -9.59375 L 2.953125 -9.671875 L 2.625 -0.25 L 0.25 0.015625 Z M 0.3125 -9.59375 "></path></g></g></g><g fill="#1e1e1e" fill-opacity="1"><g transform="translate(11.559384, 30.055384)"><g><path d="M 7.796875 -11.609375 L 8.484375 -10.875 L 8.375 -1.0625 L 7.84375 -0.03125 L 1.328125 0.015625 L 0.359375 -0.546875 L 0.296875 -10.84375 L 0.75 -11.5625 Z M 3.34375 -9.171875 L 3.421875 -2.46875 L 5.390625 -2.34375 L 5.421875 -9 Z M 3.34375 -9.171875 "></path></g></g></g><g fill="#1e1e1e" fill-opacity="1"><g transform="translate(14.915051, 18.363352)"><g><path d="M 4.46875 -6.109375 L 8.359375 -6.078125 L 8.421875 -1.125 L 7.875 -0.109375 L 1.328125 -0.015625 L 0.359375 -0.578125 L 0.296875 -10.828125 L 0.75 -11.515625 L 7.609375 -11.640625 L 8.484375 -10.921875 L 8.28125 -7.65625 L 5.578125 -7.65625 L 5.375 -9.1875 L 3.34375 -9.09375 L 3.421875 -2.5 L 5.40625 -2.359375 L 5.453125 -3.75 L 4.46875 -3.84375 Z M 4.46875 -6.109375 "></path></g></g></g><g fill="#1e1e1e" fill-opacity="1"><g transform="translate(22.624165, 17.619606)"><g><path d="M 0.96875 -6.234375 L 6.84375 -6.109375 L 6.84375 -3.90625 L 0.875 -3.96875 Z M 0.96875 -6.234375 "></path></g></g></g><g fill="#1e1e1e" fill-opacity="1"><g transform="translate(11.888716, 36.984173)"><g><path d="M 0.96875 -6.234375 L 6.84375 -6.109375 L 6.84375 -3.90625 L 0.875 -3.96875 Z M 0.96875 -6.234375 "></path></g></g></g><g fill="#1e1e1e" fill-opacity="1"><g transform="translate(27.199584, 37.75328)"><g><path d="M 1.265625 -8.125 L 8.9375 -7.96875 L 8.9375 -5.09375 L 1.140625 -5.171875 Z M 1.265625 -8.125 "></path></g></g></g><g fill="#1e1e1e" fill-opacity="1"><g transform="translate(20.328908, 32.497589)"><g><path d="M 7.328125 -2.75 L 7.671875 0.015625 L 0.296875 0.015625 L 0.390625 -11.640625 L 3.5 -11.453125 L 3.34375 -2.78125 Z M 7.328125 -2.75 "></path></g></g></g><g fill="#1e1e1e" fill-opacity="1"><g transform="translate(23.69875, 28.920955)"><g><path d="M 9.46875 -14.0625 L 10.875 -12.1875 L 10.5625 -1.890625 L 9.125 -0.1875 L 0.375 0.015625 L 0.484375 -14.796875 Z M 4.28125 -11.21875 L 4.421875 -3 L 7 -3.578125 L 7.125 -10.390625 Z M 4.28125 -11.21875 "></path></g></g></g></svg>