<svg xmlns="http://www.w3.org/2000/svg" width="1440" height="820" viewBox="0 0 1440 820" fill="none"><g clip-path="url(#clip0_1637_2298)"><rect width="1440" height="820" transform="translate(0.5)" fill="#D9D9D9"></rect><rect width="1440" height="820" transform="translate(0.5)" fill="#020203"></rect><rect width="1440" height="820" transform="translate(0.5)" fill="url(#paint0_radial_1637_2298)"></rect><rect width="1440" height="820" transform="translate(0.5)" fill="url(#paint1_linear_1637_2298)"></rect><rect width="1440" height="820" transform="translate(0.5)" fill="url(#paint2_radial_1637_2298)" fill-opacity="0.1"></rect><g opacity="0.1"><circle cx="49" r="2" fill="white"></circle><circle cx="113" r="2" fill="white"></circle><circle cx="177" r="2" fill="white"></circle><circle cx="241" r="2" fill="white"></circle><circle cx="305" r="2" fill="white"></circle><circle cx="369" r="2" fill="white"></circle><circle cx="433" r="2" fill="white"></circle><circle cx="497" r="2" fill="white"></circle><circle cx="561" r="2" fill="white"></circle><circle cx="625" r="2" fill="white"></circle><circle cx="689" r="2" fill="white"></circle><circle cx="753" r="2" fill="white"></circle><circle cx="817" r="2" fill="white"></circle><circle cx="881" r="2" fill="white"></circle><circle cx="945" r="2" fill="white"></circle><circle cx="1009" r="2" fill="white"></circle><circle cx="1073" r="2" fill="white"></circle><circle cx="1137" r="2" fill="white"></circle><circle cx="1201" r="2" fill="white"></circle><circle cx="1265" r="2" fill="white"></circle><circle cx="1329" r="2" fill="white"></circle><circle cx="1393" r="2" fill="white"></circle><circle cx="49" cy="64" r="2" fill="white"></circle><circle cx="113" cy="64" r="2" fill="white"></circle><circle cx="177" cy="64" r="2" fill="white"></circle><circle cx="241" cy="64" r="2" fill="white"></circle><circle cx="305" cy="64" r="2" fill="white"></circle><circle cx="369" cy="64" r="2" fill="white"></circle><circle cx="433" cy="64" r="2" fill="white"></circle><circle cx="497" cy="64" r="2" fill="white"></circle><circle cx="561" cy="64" r="2" fill="white"></circle><circle cx="625" cy="64" r="2" fill="white"></circle><circle cx="689" cy="64" r="2" fill="white"></circle><circle cx="753" cy="64" r="2" fill="white"></circle><circle cx="817" cy="64" r="2" fill="white"></circle><circle cx="881" cy="64" r="2" fill="white"></circle><circle cx="945" cy="64" r="2" fill="white"></circle><circle cx="1009" cy="64" r="2" fill="white"></circle><circle cx="1073" cy="64" r="2" fill="white"></circle><circle cx="1137" cy="64" r="2" fill="white"></circle><circle cx="1201" cy="64" r="2" fill="white"></circle><circle cx="1265" cy="64" r="2" fill="white"></circle><circle cx="1329" cy="64" r="2" fill="white"></circle><circle cx="1393" cy="64" r="2" fill="white"></circle><circle cx="49" cy="128" r="2" fill="white"></circle><circle cx="113" cy="128" r="2" fill="white"></circle><circle cx="177" cy="128" r="2" fill="white"></circle><circle cx="241" cy="128" r="2" fill="white"></circle><circle cx="305" cy="128" r="2" fill="white"></circle><circle cx="369" cy="128" r="2" fill="white"></circle><circle cx="433" cy="128" r="2" fill="white"></circle><circle cx="497" cy="128" r="2" fill="white"></circle><circle cx="561" cy="128" r="2" fill="white"></circle><circle cx="625" cy="128" r="2" fill="white"></circle><circle cx="689" cy="128" r="2" fill="white"></circle><circle cx="753" cy="128" r="2" fill="white"></circle><circle cx="817" cy="128" r="2" fill="white"></circle><circle cx="881" cy="128" r="2" fill="white"></circle><circle cx="945" cy="128" r="2" fill="white"></circle><circle cx="1009" cy="128" r="2" fill="white"></circle><circle cx="1073" cy="128" r="2" fill="white"></circle><circle cx="1137" cy="128" r="2" fill="white"></circle><circle cx="1201" cy="128" r="2" fill="white"></circle><circle cx="1265" cy="128" r="2" fill="white"></circle><circle cx="1329" cy="128" r="2" fill="white"></circle><circle cx="1393" cy="128" r="2" fill="white"></circle><circle cx="49" cy="192" r="2" fill="white"></circle><circle cx="113" cy="192" r="2" fill="white"></circle><circle cx="177" cy="192" r="2" fill="white"></circle><circle cx="241" cy="192" r="2" fill="white"></circle><circle cx="305" cy="192" r="2" fill="white"></circle><circle cx="369" cy="192" r="2" fill="white"></circle><circle cx="433" cy="192" r="2" fill="white"></circle><circle cx="497" cy="192" r="2" fill="white"></circle><circle cx="561" cy="192" r="2" fill="white"></circle><circle cx="625" cy="192" r="2" fill="white"></circle><circle cx="689" cy="192" r="2" fill="white"></circle><circle cx="753" cy="192" r="2" fill="white"></circle><circle cx="817" cy="192" r="2" fill="white"></circle><circle cx="881" cy="192" r="2" fill="white"></circle><circle cx="945" cy="192" r="2" fill="white"></circle><circle cx="1009" cy="192" r="2" fill="white"></circle><circle cx="1073" cy="192" r="2" fill="white"></circle><circle cx="1137" cy="192" r="2" fill="white"></circle><circle cx="1201" cy="192" r="2" fill="white"></circle><circle cx="1265" cy="192" r="2" fill="white"></circle><circle cx="1329" cy="192" r="2" fill="white"></circle><circle cx="1393" cy="192" r="2" fill="white"></circle><circle cx="49" cy="256" r="2" fill="white"></circle><circle cx="113" cy="256" r="2" fill="white"></circle><circle cx="177" cy="256" r="2" fill="white"></circle><circle cx="241" cy="256" r="2" fill="white"></circle><circle cx="305" cy="256" r="2" fill="white"></circle><circle cx="369" cy="256" r="2" fill="white"></circle><circle cx="433" cy="256" r="2" fill="white"></circle><circle cx="497" cy="256" r="2" fill="white"></circle><circle cx="561" cy="256" r="2" fill="white"></circle><circle cx="625" cy="256" r="2" fill="white"></circle><circle cx="689" cy="256" r="2" fill="white"></circle><circle cx="753" cy="256" r="2" fill="white"></circle><circle cx="817" cy="256" r="2" fill="white"></circle><circle cx="881" cy="256" r="2" fill="white"></circle><circle cx="945" cy="256" r="2" fill="white"></circle><circle cx="1009" cy="256" r="2" fill="white"></circle><circle cx="1073" cy="256" r="2" fill="white"></circle><circle cx="1137" cy="256" r="2" fill="white"></circle><circle cx="1201" cy="256" r="2" fill="white"></circle><circle cx="1265" cy="256" r="2" fill="white"></circle><circle cx="1329" cy="256" r="2" fill="white"></circle><circle cx="1393" cy="256" r="2" fill="white"></circle><circle cx="49" cy="320" r="2" fill="white"></circle><circle cx="113" cy="320" r="2" fill="white"></circle><circle cx="177" cy="320" r="2" fill="white"></circle><circle cx="241" cy="320" r="2" fill="white"></circle><circle cx="305" cy="320" r="2" fill="white"></circle><circle cx="369" cy="320" r="2" fill="white"></circle><circle cx="433" cy="320" r="2" fill="white"></circle><circle cx="497" cy="320" r="2" fill="white"></circle><circle cx="561" cy="320" r="2" fill="white"></circle><circle cx="625" cy="320" r="2" fill="white"></circle><circle cx="689" cy="320" r="2" fill="white"></circle><circle cx="753" cy="320" r="2" fill="white"></circle><circle cx="817" cy="320" r="2" fill="white"></circle><circle cx="881" cy="320" r="2" fill="white"></circle><circle cx="945" cy="320" r="2" fill="white"></circle><circle cx="1009" cy="320" r="2" fill="white"></circle><circle cx="1073" cy="320" r="2" fill="white"></circle><circle cx="1137" cy="320" r="2" fill="white"></circle><circle cx="1201" cy="320" r="2" fill="white"></circle><circle cx="1265" cy="320" r="2" fill="white"></circle><circle cx="1329" cy="320" r="2" fill="white"></circle><circle cx="1393" cy="320" r="2" fill="white"></circle><circle cx="49" cy="384" r="2" fill="white"></circle><circle cx="113" cy="384" r="2" fill="white"></circle><circle cx="177" cy="384" r="2" fill="white"></circle><circle cx="241" cy="384" r="2" fill="white"></circle><circle cx="305" cy="384" r="2" fill="white"></circle><circle cx="369" cy="384" r="2" fill="white"></circle><circle cx="433" cy="384" r="2" fill="white"></circle><circle cx="497" cy="384" r="2" fill="white"></circle><circle cx="561" cy="384" r="2" fill="white"></circle><circle cx="625" cy="384" r="2" fill="white"></circle><circle cx="689" cy="384" r="2" fill="white"></circle><circle cx="753" cy="384" r="2" fill="white"></circle><circle cx="817" cy="384" r="2" fill="white"></circle><circle cx="881" cy="384" r="2" fill="white"></circle><circle cx="945" cy="384" r="2" fill="white"></circle><circle cx="1009" cy="384" r="2" fill="white"></circle><circle cx="1073" cy="384" r="2" fill="white"></circle><circle cx="1137" cy="384" r="2" fill="white"></circle><circle cx="1201" cy="384" r="2" fill="white"></circle><circle cx="1265" cy="384" r="2" fill="white"></circle><circle cx="1329" cy="384" r="2" fill="white"></circle><circle cx="1393" cy="384" r="2" fill="white"></circle><circle cx="49" cy="448" r="2" fill="white"></circle><circle cx="113" cy="448" r="2" fill="white"></circle><circle cx="177" cy="448" r="2" fill="white"></circle><circle cx="241" cy="448" r="2" fill="white"></circle><circle cx="305" cy="448" r="2" fill="white"></circle><circle cx="369" cy="448" r="2" fill="white"></circle><circle cx="433" cy="448" r="2" fill="white"></circle><circle cx="497" cy="448" r="2" fill="white"></circle><circle cx="561" cy="448" r="2" fill="white"></circle><circle cx="625" cy="448" r="2" fill="white"></circle><circle cx="689" cy="448" r="2" fill="white"></circle><circle cx="753" cy="448" r="2" fill="white"></circle><circle cx="817" cy="448" r="2" fill="white"></circle><circle cx="881" cy="448" r="2" fill="white"></circle><circle cx="945" cy="448" r="2" fill="white"></circle><circle cx="1009" cy="448" r="2" fill="white"></circle><circle cx="1073" cy="448" r="2" fill="white"></circle><circle cx="1137" cy="448" r="2" fill="white"></circle><circle cx="1201" cy="448" r="2" fill="white"></circle><circle cx="1265" cy="448" r="2" fill="white"></circle><circle cx="1329" cy="448" r="2" fill="white"></circle><circle cx="1393" cy="448" r="2" fill="white"></circle><circle cx="49" cy="512" r="2" fill="white"></circle><circle cx="113" cy="512" r="2" fill="white"></circle><circle cx="177" cy="512" r="2" fill="white"></circle><circle cx="241" cy="512" r="2" fill="white"></circle><circle cx="305" cy="512" r="2" fill="white"></circle><circle cx="369" cy="512" r="2" fill="white"></circle><circle cx="433" cy="512" r="2" fill="white"></circle><circle cx="497" cy="512" r="2" fill="white"></circle><circle cx="561" cy="512" r="2" fill="white"></circle><circle cx="625" cy="512" r="2" fill="white"></circle><circle cx="689" cy="512" r="2" fill="white"></circle><circle cx="753" cy="512" r="2" fill="white"></circle><circle cx="817" cy="512" r="2" fill="white"></circle><circle cx="881" cy="512" r="2" fill="white"></circle><circle cx="945" cy="512" r="2" fill="white"></circle><circle cx="1009" cy="512" r="2" fill="white"></circle><circle cx="1073" cy="512" r="2" fill="white"></circle><circle cx="1137" cy="512" r="2" fill="white"></circle><circle cx="1201" cy="512" r="2" fill="white"></circle><circle cx="1265" cy="512" r="2" fill="white"></circle><circle cx="1329" cy="512" r="2" fill="white"></circle><circle cx="1393" cy="512" r="2" fill="white"></circle><circle cx="49" cy="576" r="2" fill="white"></circle><circle cx="113" cy="576" r="2" fill="white"></circle><circle cx="177" cy="576" r="2" fill="white"></circle><circle cx="241" cy="576" r="2" fill="white"></circle><circle cx="305" cy="576" r="2" fill="white"></circle><circle cx="369" cy="576" r="2" fill="white"></circle><circle cx="433" cy="576" r="2" fill="white"></circle><circle cx="497" cy="576" r="2" fill="white"></circle><circle cx="561" cy="576" r="2" fill="white"></circle><circle cx="625" cy="576" r="2" fill="white"></circle><circle cx="689" cy="576" r="2" fill="white"></circle><circle cx="753" cy="576" r="2" fill="white"></circle><circle cx="817" cy="576" r="2" fill="white"></circle><circle cx="881" cy="576" r="2" fill="white"></circle><circle cx="945" cy="576" r="2" fill="white"></circle><circle cx="1009" cy="576" r="2" fill="white"></circle><circle cx="1073" cy="576" r="2" fill="white"></circle><circle cx="1137" cy="576" r="2" fill="white"></circle><circle cx="1201" cy="576" r="2" fill="white"></circle><circle cx="1265" cy="576" r="2" fill="white"></circle><circle cx="1329" cy="576" r="2" fill="white"></circle><circle cx="1393" cy="576" r="2" fill="white"></circle><circle cx="49" cy="640" r="2" fill="white"></circle><circle cx="113" cy="640" r="2" fill="white"></circle><circle cx="177" cy="640" r="2" fill="white"></circle><circle cx="241" cy="640" r="2" fill="white"></circle><circle cx="305" cy="640" r="2" fill="white"></circle><circle cx="369" cy="640" r="2" fill="white"></circle><circle cx="433" cy="640" r="2" fill="white"></circle><circle cx="497" cy="640" r="2" fill="white"></circle><circle cx="561" cy="640" r="2" fill="white"></circle><circle cx="625" cy="640" r="2" fill="white"></circle><circle cx="689" cy="640" r="2" fill="white"></circle><circle cx="753" cy="640" r="2" fill="white"></circle><circle cx="817" cy="640" r="2" fill="white"></circle><circle cx="881" cy="640" r="2" fill="white"></circle><circle cx="945" cy="640" r="2" fill="white"></circle><circle cx="1009" cy="640" r="2" fill="white"></circle><circle cx="1073" cy="640" r="2" fill="white"></circle><circle cx="1137" cy="640" r="2" fill="white"></circle><circle cx="1201" cy="640" r="2" fill="white"></circle><circle cx="1265" cy="640" r="2" fill="white"></circle><circle cx="1329" cy="640" r="2" fill="white"></circle><circle cx="1393" cy="640" r="2" fill="white"></circle><circle cx="49" cy="704" r="2" fill="white"></circle><circle cx="113" cy="704" r="2" fill="white"></circle><circle cx="177" cy="704" r="2" fill="white"></circle><circle cx="241" cy="704" r="2" fill="white"></circle><circle cx="305" cy="704" r="2" fill="white"></circle><circle cx="369" cy="704" r="2" fill="white"></circle><circle cx="433" cy="704" r="2" fill="white"></circle><circle cx="497" cy="704" r="2" fill="white"></circle><circle cx="561" cy="704" r="2" fill="white"></circle><circle cx="625" cy="704" r="2" fill="white"></circle><circle cx="689" cy="704" r="2" fill="white"></circle><circle cx="753" cy="704" r="2" fill="white"></circle><circle cx="817" cy="704" r="2" fill="white"></circle><circle cx="881" cy="704" r="2" fill="white"></circle><circle cx="945" cy="704" r="2" fill="white"></circle><circle cx="1009" cy="704" r="2" fill="white"></circle><circle cx="1073" cy="704" r="2" fill="white"></circle><circle cx="1137" cy="704" r="2" fill="white"></circle><circle cx="1201" cy="704" r="2" fill="white"></circle><circle cx="1265" cy="704" r="2" fill="white"></circle><circle cx="1329" cy="704" r="2" fill="white"></circle><circle cx="1393" cy="704" r="2" fill="white"></circle><circle cx="49" cy="768" r="2" fill="white"></circle><circle cx="113" cy="768" r="2" fill="white"></circle><circle cx="177" cy="768" r="2" fill="white"></circle><circle cx="241" cy="768" r="2" fill="white"></circle><circle cx="305" cy="768" r="2" fill="white"></circle><circle cx="369" cy="768" r="2" fill="white"></circle><circle cx="433" cy="768" r="2" fill="white"></circle><circle cx="497" cy="768" r="2" fill="white"></circle><circle cx="561" cy="768" r="2" fill="white"></circle><circle cx="625" cy="768" r="2" fill="white"></circle><circle cx="689" cy="768" r="2" fill="white"></circle><circle cx="753" cy="768" r="2" fill="white"></circle><circle cx="817" cy="768" r="2" fill="white"></circle><circle cx="881" cy="768" r="2" fill="white"></circle><circle cx="945" cy="768" r="2" fill="white"></circle><circle cx="1009" cy="768" r="2" fill="white"></circle><circle cx="1073" cy="768" r="2" fill="white"></circle><circle cx="1137" cy="768" r="2" fill="white"></circle><circle cx="1201" cy="768" r="2" fill="white"></circle><circle cx="1265" cy="768" r="2" fill="white"></circle><circle cx="1329" cy="768" r="2" fill="white"></circle><circle cx="1393" cy="768" r="2" fill="white"></circle></g></g><defs><radialGradient id="paint0_radial_1637_2298" cx="0" cy="0" r="1" gradientUnits="userSpaceOnUse" gradientTransform="translate(720 403.304) rotate(90.475) scale(1712.82 2079.21)"><stop stop-color="#030304" stop-opacity="0"></stop><stop offset="1" stop-color="#879CC4"></stop></radialGradient><linearGradient id="paint1_linear_1637_2298" x1="720" y1="0" x2="843.518" y2="921.52" gradientUnits="userSpaceOnUse"><stop stop-color="#020203"></stop><stop offset="1" stop-opacity="0"></stop></linearGradient><radialGradient id="paint2_radial_1637_2298" cx="0" cy="0" r="1" gradientUnits="userSpaceOnUse" gradientTransform="translate(720 820) rotate(-90) scale(820 608.234)"><stop stop-color="#879CC4"></stop><stop offset="0.9999" stop-opacity="0"></stop><stop offset="1" stop-color="#40495C" stop-opacity="0"></stop></radialGradient><clipPath id="clip0_1637_2298"><rect width="1440" height="820" fill="white" transform="translate(0.5)"></rect></clipPath></defs></svg>