<svg xmlns="http://www.w3.org/2000/svg" width="1440" height="900" viewBox="0 0 1440 900" fill="none"><rect width="1440" height="900" transform="translate(0.5)" fill="#020203"></rect><rect width="1440" height="900" transform="translate(0.5)" fill="url(#paint0_radial_1637_2237)" fill-opacity="0.6"></rect><rect width="1440" height="900" transform="translate(0.5)" fill="url(#paint1_linear_1637_2237)" fill-opacity="0.8"></rect><path d="M976.649 0.293945C976.649 450.147 873.256 450.147 873.256 900" stroke="url(#paint2_linear_1637_2237)" stroke-miterlimit="10"></path><path d="M976.649 0.293945C976.649 450.147 873.256 450.147 873.256 900" stroke="url(#paint3_linear_1637_2237)" stroke-miterlimit="10"></path><path d="M1079.6 0.293945C1079.6 450.147 976.204 450.147 976.204 900" stroke="url(#paint4_linear_1637_2237)" stroke-miterlimit="10"></path><path d="M1182.55 0.293945C1182.55 450.147 1079.15 450.147 1079.15 900" stroke="url(#paint5_linear_1637_2237)" stroke-miterlimit="10"></path><path d="M1285.49 0.293945C1285.49 450.147 1182.1 450.147 1182.1 900" stroke="url(#paint6_linear_1637_2237)" stroke-miterlimit="10"></path><path d="M1388.44 0.293945C1388.44 450.147 1285.05 450.147 1285.05 900" stroke="url(#paint7_linear_1637_2237)" stroke-miterlimit="10"></path><path d="M876.846 0.293945C876.846 450.147 773.453 450.147 773.453 900" stroke="url(#paint8_linear_1637_2237)" stroke-miterlimit="10"></path><path d="M464.35 0.293945C464.35 450.147 567.743 450.147 567.743 900" stroke="url(#paint9_linear_1637_2237)" stroke-miterlimit="10"></path><path d="M464.35 0.293945C464.35 450.147 567.743 450.147 567.743 900" stroke="url(#paint10_linear_1637_2237)" stroke-miterlimit="10"></path><path d="M361.402 0.293945C361.402 450.147 464.795 450.147 464.795 900" stroke="url(#paint11_linear_1637_2237)" stroke-miterlimit="10"></path><path d="M258.453 0.293945C258.453 450.147 361.847 450.147 361.847 900" stroke="url(#paint12_linear_1637_2237)" stroke-miterlimit="10"></path><path d="M155.506 0.293945C155.506 450.147 258.899 450.147 258.899 900" stroke="url(#paint13_linear_1637_2237)" stroke-miterlimit="10"></path><path d="M52.5579 0.293945C52.5579 450.147 155.951 450.147 155.951 900" stroke="url(#paint14_linear_1637_2237)" stroke-miterlimit="10"></path><path d="M564.154 0.293945C564.154 450.147 667.547 450.147 667.547 900" stroke="url(#paint15_linear_1637_2237)" stroke-miterlimit="10"></path><defs><radialGradient id="paint0_radial_1637_2237" cx="0" cy="0" r="1" gradientUnits="userSpaceOnUse" gradientTransform="translate(1891 263.192) rotate(168.999) scale(2549.35 3189.88)"><stop stop-color="#879CC4"></stop><stop offset="0.9999" stop-opacity="0"></stop><stop offset="1" stop-color="#2C2CE1"></stop></radialGradient><linearGradient id="paint1_linear_1637_2237" x1="720" y1="0" x2="868.259" y2="1007.78" gradientUnits="userSpaceOnUse"><stop stop-opacity="0"></stop><stop offset="0.887367" stop-color="#020203"></stop></linearGradient><linearGradient id="paint2_linear_1637_2237" x1="924.952" y1="0.293945" x2="924.952" y2="900" gradientUnits="userSpaceOnUse"><stop offset="0.078125" stop-color="#0D0D0D"></stop><stop offset="0.489583" stop-color="#879DC4"></stop><stop offset="0.890625" stop-color="#0D0D0D"></stop></linearGradient><linearGradient id="paint3_linear_1637_2237" x1="924.952" y1="0.293945" x2="924.952" y2="900" gradientUnits="userSpaceOnUse"><stop offset="0.078125" stop-color="#0D0D0D"></stop><stop offset="0.489583" stop-color="#879DC4"></stop><stop offset="0.890625" stop-color="#0D0D0D"></stop></linearGradient><linearGradient id="paint4_linear_1637_2237" x1="1027.9" y1="0.293945" x2="1027.9" y2="900" gradientUnits="userSpaceOnUse"><stop offset="0.078125" stop-color="#0D0D0D"></stop><stop offset="0.489583" stop-color="#879DC4"></stop><stop offset="0.890625" stop-color="#0D0D0D"></stop></linearGradient><linearGradient id="paint5_linear_1637_2237" x1="1130.85" y1="0.293945" x2="1130.85" y2="900" gradientUnits="userSpaceOnUse"><stop offset="0.078125" stop-color="#0D0D0D"></stop><stop offset="0.489583" stop-color="#879DC4"></stop><stop offset="0.890625" stop-color="#0D0D0D"></stop></linearGradient><linearGradient id="paint6_linear_1637_2237" x1="1233.8" y1="0.293945" x2="1233.8" y2="900" gradientUnits="userSpaceOnUse"><stop offset="0.078125" stop-color="#0D0D0D"></stop><stop offset="0.489583" stop-color="#879DC4"></stop><stop offset="0.890625" stop-color="#0D0D0D"></stop></linearGradient><linearGradient id="paint7_linear_1637_2237" x1="1336.75" y1="0.293945" x2="1336.75" y2="900" gradientUnits="userSpaceOnUse"><stop offset="0.078125" stop-color="#0D0D0D"></stop><stop offset="0.489583" stop-color="#879DC4"></stop><stop offset="0.890625" stop-color="#0D0D0D"></stop></linearGradient><linearGradient id="paint8_linear_1637_2237" x1="825.15" y1="0.293945" x2="825.15" y2="900" gradientUnits="userSpaceOnUse"><stop offset="0.078125" stop-color="#0D0D0D"></stop><stop offset="0.489583" stop-color="#879DC4"></stop><stop offset="0.890625" stop-color="#0D0D0D"></stop></linearGradient><linearGradient id="paint9_linear_1637_2237" x1="516.047" y1="0.293945" x2="516.047" y2="900" gradientUnits="userSpaceOnUse"><stop offset="0.078125" stop-color="#0D0D0D"></stop><stop offset="0.489583" stop-color="#879DC4"></stop><stop offset="0.890625" stop-color="#0D0D0D"></stop></linearGradient><linearGradient id="paint10_linear_1637_2237" x1="516.047" y1="0.293945" x2="516.047" y2="900" gradientUnits="userSpaceOnUse"><stop offset="0.078125" stop-color="#0D0D0D"></stop><stop offset="0.489583" stop-color="#879DC4"></stop><stop offset="0.890625" stop-color="#0D0D0D"></stop></linearGradient><linearGradient id="paint11_linear_1637_2237" x1="413.098" y1="0.293945" x2="413.098" y2="900" gradientUnits="userSpaceOnUse"><stop offset="0.078125" stop-color="#0D0D0D"></stop><stop offset="0.489583" stop-color="#879DC4"></stop><stop offset="0.890625" stop-color="#0D0D0D"></stop></linearGradient><linearGradient id="paint12_linear_1637_2237" x1="310.15" y1="0.293945" x2="310.15" y2="900" gradientUnits="userSpaceOnUse"><stop offset="0.078125" stop-color="#0D0D0D"></stop><stop offset="0.489583" stop-color="#879DC4"></stop><stop offset="0.890625" stop-color="#0D0D0D"></stop></linearGradient><linearGradient id="paint13_linear_1637_2237" x1="207.203" y1="0.293945" x2="207.203" y2="900" gradientUnits="userSpaceOnUse"><stop offset="0.078125" stop-color="#0D0D0D"></stop><stop offset="0.489583" stop-color="#879DC4"></stop><stop offset="0.890625" stop-color="#0D0D0D"></stop></linearGradient><linearGradient id="paint14_linear_1637_2237" x1="104.255" y1="0.293945" x2="104.255" y2="900" gradientUnits="userSpaceOnUse"><stop offset="0.078125" stop-color="#0D0D0D"></stop><stop offset="0.489583" stop-color="#879DC4"></stop><stop offset="0.890625" stop-color="#0D0D0D"></stop></linearGradient><linearGradient id="paint15_linear_1637_2237" x1="615.85" y1="0.293945" x2="615.85" y2="900" gradientUnits="userSpaceOnUse"><stop offset="0.078125" stop-color="#0D0D0D"></stop><stop offset="0.489583" stop-color="#879DC4"></stop><stop offset="0.890625" stop-color="#0D0D0D"></stop></linearGradient></defs></svg>