<svg xmlns="http://www.w3.org/2000/svg" width="34.578" height="34.578" viewBox="0 0 34.578 34.578"><path d="M1922.288,3873.563a17.289,17.289,0,1,1,17.289-17.289A17.239,17.239,0,0,1,1922.288,3873.563Zm8.415-26.406c-.07,0-.141.071-.211.071l-12.623,4.208a.632.632,0,0,0-.42.421l-4.208,12.622a.258.258,0,0,0-.07.211.662.662,0,0,0,.7.7c.071,0,.14-.07.211-.07l12.623-4.208a.634.634,0,0,0,.421-.421l4.207-12.623a.255.255,0,0,0,.07-.21A.663.663,0,0,0,1930.7,3847.157Zm-8.1,11.317a2.515,2.515,0,1,1,2.515-2.515A2.515,2.515,0,0,1,1922.6,3858.474Z" transform="translate(-1904.999 -3838.985)" fill="#ffffff"></path></svg>