<svg xmlns="http://www.w3.org/2000/svg" width="37.171" height="37.172" viewBox="0 0 37.171 37.172"><path d="M2602.153,3857.568a3.684,3.684,0,0,0-2.223-3.291,3.953,3.953,0,0,1-2.462-5.953,3.552,3.552,0,0,0-4.658-4.658,3.947,3.947,0,0,1-5.948-2.461,3.553,3.553,0,0,0-6.589,0,3.947,3.947,0,0,1-5.948,2.461,3.551,3.551,0,0,0-4.658,4.658,3.957,3.957,0,0,1-2.461,5.953,3.549,3.549,0,0,0,0,6.584,3.951,3.951,0,0,1,2.461,5.948,3.551,3.551,0,0,0,4.658,4.659,3.95,3.95,0,0,1,5.948,2.465,3.554,3.554,0,0,0,6.589,0,3.947,3.947,0,0,1,5.948-2.465,3.552,3.552,0,0,0,4.658-4.659,3.948,3.948,0,0,1,2.462-5.948A3.692,3.692,0,0,0,2602.153,3857.568Zm-18.586,6.82a6.816,6.816,0,1,1,6.812-6.812A6.813,6.813,0,0,1,2583.568,3864.388Z" transform="translate(-2564.982 -3838.982)" fill="#ffffff"></path></svg>