<svg xmlns="http://www.w3.org/2000/svg" xmlns:xlink="http://www.w3.org/1999/xlink" width="122px" height="59px" viewBox="0 0 121 59"><g id="surface1"><path style=" stroke:none;fill-rule:nonzero;fill:rgb(0.784314%,45.882353%,33.333333%);fill-opacity:1;" d="M 38.628906 19.230469 C 37.441406 19.242188 36.246094 19.226562 35.0625 19.277344 C 34.492188 19.304688 33.9375 19.382812 33.378906 19.375 C 32.820312 19.367188 32.261719 19.277344 31.691406 19.277344 C 30.964844 19.277344 30.25 19.417969 29.527344 19.421875 C 28.964844 19.429688 28.414062 19.371094 27.839844 19.375 C 27.320312 19.382812 26.824219 19.292969 26.296875 19.277344 C 25.480469 19.257812 24.546875 19.292969 23.9375 19.277344 C 22.949219 19.257812 22.074219 19.03125 21.097656 18.988281 C 19.664062 18.925781 18.246094 18.769531 16.808594 18.652344 C 16.0625 18.589844 15.328125 18.492188 14.59375 18.460938 C 13.769531 18.421875 12.925781 18.484375 12.089844 18.460938 C 11.335938 18.4375 10.578125 18.300781 9.824219 18.21875 C 9.066406 18.136719 8.269531 18.007812 7.464844 17.976562 C 6.972656 17.957031 6.339844 17.878906 6.019531 17.785156 C 5.835938 17.730469 5.417969 17.722656 5.152344 17.734375 C 4.613281 17.765625 4.542969 18.1875 4.621094 18.554688 C 4.6875 18.859375 4.777344 18.929688 4.910156 19.089844 C 4.945312 19.125 4.925781 19.1875 4.960938 19.230469 C 5.261719 19.621094 5.988281 19.722656 6.792969 19.859375 C 7.441406 19.96875 7.996094 20.160156 8.523438 20.195312 C 10.316406 20.320312 12.121094 20.046875 13.773438 20.050781 C 15.160156 20.054688 16.511719 20.253906 17.871094 20.292969 C 18.535156 20.3125 19.230469 20.363281 19.890625 20.4375 C 20.550781 20.511719 21.179688 20.496094 21.820312 20.535156 C 23.132812 20.609375 24.445312 20.75 25.769531 20.773438 C 26.425781 20.785156 27.082031 20.746094 27.742188 20.773438 C 28.417969 20.804688 29.085938 20.949219 29.765625 20.964844 C 30.90625 21.003906 32.105469 20.933594 33.28125 20.917969 C 34.386719 20.90625 35.46875 21.117188 36.558594 21.113281 C 37.683594 21.109375 38.835938 20.980469 39.976562 20.964844 C 41.144531 20.953125 42.292969 20.972656 43.429688 20.878906 C 43.121094 20.316406 42.867188 19.738281 42.667969 19.144531 C 41.316406 19.183594 39.976562 19.214844 38.628906 19.230469 "></path><path style=" stroke:none;fill-rule:nonzero;fill:rgb(0.784314%,45.882353%,33.333333%);fill-opacity:1;" d="M 115.070312 19.808594 C 114.304688 19.945312 113.546875 19.953125 112.660156 20.003906 C 112.199219 20.03125 111.726562 20.15625 111.265625 20.195312 C 110.296875 20.277344 109.277344 20.246094 108.277344 20.246094 C 105.636719 20.246094 103.183594 20.566406 101.050781 20.484375 C 99.960938 20.445312 98.988281 20.59375 98.066406 20.582031 C 97.519531 20.574219 96.980469 20.445312 96.429688 20.4375 C 96.027344 20.429688 95.621094 20.515625 95.226562 20.53125 C 94.78125 20.554688 94.355469 20.46875 93.925781 20.484375 C 93.03125 20.519531 92.136719 20.632812 91.226562 20.632812 C 89.417969 20.632812 87.582031 20.730469 85.6875 20.726562 C 85.15625 20.722656 84.640625 20.675781 84.097656 20.679688 C 82.632812 20.6875 81.425781 20.527344 80.210938 20.421875 C 79.929688 20.996094 79.59375 21.554688 79.210938 22.09375 C 79.574219 22.140625 79.9375 22.1875 80.292969 22.222656 C 81.644531 22.34375 83.242188 22.578125 84.4375 22.460938 C 85.472656 22.363281 86.46875 22.304688 87.46875 22.269531 C 88.753906 22.226562 90.058594 22.277344 91.371094 22.222656 C 92.84375 22.160156 94.550781 22.125 96.1875 22.078125 C 97.296875 22.046875 98.25 21.980469 99.175781 22.03125 C 99.589844 22.050781 100.003906 22.164062 100.425781 22.175781 C 102.316406 22.207031 104.300781 21.972656 106.113281 22.03125 C 106.765625 22.050781 107.390625 22.203125 108.035156 22.222656 C 108.976562 22.25 109.972656 22.117188 110.929688 21.980469 C 111.910156 21.835938 112.90625 21.796875 113.867188 21.691406 C 114.710938 21.597656 115.675781 21.347656 116.511719 21.113281 C 117.257812 20.902344 118.292969 20.8125 118.441406 19.808594 C 117.511719 19.101562 116.085938 19.628906 115.070312 19.808594 "></path><path style=" stroke:none;fill-rule:nonzero;fill:rgb(0.784314%,45.882353%,33.333333%);fill-opacity:1;" d="M 0.433594 56.28125 C 0.0820312 56.074219 0.136719 55.570312 0.144531 55.269531 C 0.15625 54.898438 0.210938 54.5 0.238281 54.15625 C 0.351562 52.722656 0.339844 51.125 0.238281 49.425781 C 0.195312 48.660156 0.0546875 47.855469 0.046875 47.066406 C 0.0429688 46.421875 0.144531 45.75 0.191406 45.089844 C 0.300781 43.542969 -0.0078125 41.535156 0.0976562 40.070312 C 0.121094 39.710938 0.214844 39.371094 0.238281 39.011719 C 0.285156 38.332031 0.195312 37.652344 0.238281 36.984375 C 0.261719 36.628906 0.292969 36.277344 0.335938 35.921875 C 0.375 35.601562 0.5 35.285156 0.527344 34.957031 C 0.609375 34.09375 0.453125 33.210938 0.480469 32.351562 C 0.503906 31.6875 0.628906 30.9375 0.675781 30.132812 C 0.714844 29.410156 0.820312 28.6875 0.769531 27.964844 C 0.738281 27.515625 0.644531 27.089844 0.625 26.660156 C 0.5625 25.296875 0.632812 23.488281 0.625 21.882812 C 0.625 21.449219 0.507812 20.984375 0.480469 20.53125 C 0.46875 20.300781 0.503906 20.058594 0.480469 19.808594 C 0.457031 19.574219 0.355469 19.40625 0.382812 19.183594 C 0.410156 18.992188 0.570312 18.722656 0.722656 18.507812 C 0.851562 18.320312 1.039062 18.03125 1.15625 17.929688 C 1.394531 17.707031 1.777344 17.695312 1.925781 17.398438 C 1.964844 17.320312 2.125 17.257812 2.3125 17.300781 C 2.574219 17.359375 2.46875 17.546875 2.550781 17.976562 C 2.609375 18.257812 2.734375 18.523438 2.746094 18.75 C 2.765625 19.105469 2.628906 19.433594 2.601562 19.761719 C 2.488281 20.976562 2.566406 22.238281 2.550781 23.476562 C 2.546875 23.925781 2.433594 24.390625 2.503906 24.828125 C 2.554688 25.152344 2.800781 25.449219 2.839844 25.792969 C 3.011719 27.179688 2.898438 28.425781 2.792969 29.601562 C 2.699219 30.636719 2.550781 31.773438 2.503906 32.929688 C 2.480469 33.511719 2.597656 34.085938 2.601562 34.667969 C 2.605469 35.96875 2.320312 37.25 2.214844 38.574219 C 2.191406 38.839844 2.238281 39.128906 2.214844 39.394531 C 2.164062 39.953125 2.015625 40.5625 1.925781 41.136719 C 1.835938 41.707031 1.679688 42.320312 1.683594 42.871094 C 1.6875 43.117188 1.804688 43.375 1.828125 43.640625 C 1.851562 43.894531 1.808594 44.148438 1.828125 44.414062 C 1.894531 45.242188 2.054688 46.023438 2.023438 46.828125 C 1.992188 47.582031 1.824219 48.320312 1.828125 49.042969 C 1.832031 49.460938 1.960938 49.886719 1.972656 50.347656 C 1.996094 51 2.003906 51.722656 1.972656 52.421875 C 1.945312 53.09375 1.96875 53.777344 1.875 54.351562 C 1.753906 55.144531 1.546875 56.433594 0.433594 56.28125 "></path><path style=" stroke:none;fill-rule:nonzero;fill:rgb(0.784314%,45.882353%,33.333333%);fill-opacity:1;" d="M 119.113281 22.222656 C 120.644531 21.769531 120.542969 23.90625 120.660156 25.503906 C 120.722656 26.402344 120.613281 26.984375 120.660156 27.769531 C 120.726562 29.058594 120.988281 30.339844 120.992188 31.4375 C 121 31.980469 120.917969 32.472656 120.847656 33.027344 C 120.789062 33.542969 120.84375 34.121094 120.804688 34.714844 C 120.730469 35.699219 120.5 36.71875 120.414062 37.804688 C 120.335938 38.863281 120.183594 39.945312 120.175781 41.039062 C 120.167969 42.753906 120.175781 44.550781 120.078125 45.957031 C 119.980469 47.386719 119.953125 48.664062 120.03125 50.25 C 120.074219 51.113281 120.144531 52.050781 120.078125 52.953125 C 120.046875 53.394531 119.90625 53.863281 119.886719 54.304688 C 119.867188 54.769531 119.90625 55.183594 119.835938 55.65625 C 119.773438 56.125 119.601562 57.847656 119.019531 57.875 C 118.679688 57.890625 118.480469 57.613281 118.394531 57.199219 C 118.351562 57.007812 118.410156 56.835938 118.394531 56.617188 C 118.359375 56.257812 118.273438 55.863281 118.34375 55.414062 C 118.449219 54.765625 118.742188 54.34375 118.777344 53.578125 C 118.808594 52.941406 118.628906 52.214844 118.679688 51.457031 C 118.710938 51.058594 118.796875 50.679688 118.824219 50.300781 C 118.855469 49.917969 118.871094 49.546875 118.925781 49.1875 C 119.023438 48.472656 119.257812 47.730469 119.257812 47.019531 C 119.257812 46.054688 119.039062 45.054688 118.96875 43.980469 C 118.925781 43.269531 118.980469 42.550781 118.925781 41.808594 C 118.6875 38.78125 119.109375 35.839844 119.019531 32.980469 C 119.007812 32.613281 118.882812 32.261719 118.875 31.917969 C 118.867188 31.570312 118.976562 31.210938 118.96875 30.90625 C 118.960938 30.285156 118.792969 29.59375 118.730469 28.878906 C 118.675781 28.230469 118.578125 27.523438 118.585938 26.804688 C 118.59375 26.132812 118.675781 25.328125 118.636719 24.585938 C 118.585938 23.789062 118.28125 22.46875 119.113281 22.222656 "></path><path style=" stroke:none;fill-rule:nonzero;fill:rgb(0.784314%,45.882353%,33.333333%);fill-opacity:1;" d="M 16.28125 23.574219 C 16.5 23.273438 17.300781 23.027344 17.4375 23.574219 C 17.886719 24.054688 17.90625 25.476562 17.917969 26.273438 C 17.929688 27.011719 17.964844 27.773438 18.015625 28.492188 C 18.113281 29.972656 18.019531 31.335938 18.0625 32.882812 C 18.082031 33.640625 18.117188 34.402344 18.109375 35.152344 C 18.097656 35.917969 18.035156 36.652344 17.964844 37.417969 C 17.898438 38.183594 17.921875 38.949219 17.820312 39.683594 C 17.742188 40.25 17.652344 40.78125 17.578125 41.324219 C 17.554688 41.507812 17.605469 41.695312 17.578125 41.855469 C 17.464844 42.542969 17.222656 43.292969 17 43.929688 C 16.765625 44.625 16.5625 45.324219 16.328125 45.859375 C 16.136719 46.300781 15.796875 46.78125 15.507812 47.257812 C 14.660156 48.675781 13.878906 49.945312 12.328125 50.734375 C 12.101562 50.847656 11.855469 51.007812 11.605469 51.117188 C 11.113281 51.335938 10.546875 51.589844 10.015625 51.746094 C 9.25 51.976562 8.714844 51.929688 7.800781 51.699219 C 6.960938 51.484375 6.097656 51.097656 5.632812 50.539062 C 5.351562 50.199219 5.058594 49.570312 4.863281 49.042969 C 4.59375 48.3125 4.277344 46.503906 4.574219 45.472656 C 4.683594 45.105469 5.089844 44.523438 5.492188 44.511719 C 5.882812 44.496094 6.214844 44.933594 6.261719 45.378906 C 6.328125 46.035156 5.867188 46.640625 5.828125 47.355469 C 5.777344 48.296875 6.128906 48.851562 6.695312 49.425781 C 6.828125 49.566406 6.996094 49.738281 7.125 49.863281 C 7.546875 50.265625 7.703125 50.21875 8.429688 50.394531 C 9.015625 50.539062 9.144531 50.605469 9.777344 50.445312 C 10.34375 50.296875 10.535156 50.253906 10.980469 49.914062 C 11.847656 49.257812 12.710938 48.492188 13.339844 47.550781 C 13.714844 46.988281 14.152344 46.441406 14.449219 45.8125 C 14.558594 45.582031 14.574219 45.332031 14.691406 45.089844 C 14.792969 44.878906 14.972656 44.722656 15.078125 44.511719 C 15.175781 44.300781 15.230469 44.066406 15.316406 43.835938 C 15.976562 42.078125 16.410156 39.847656 16.519531 37.46875 C 16.636719 34.960938 16.605469 32.613281 16.421875 30.472656 C 16.320312 29.277344 16.449219 28.09375 16.375 26.949219 C 16.34375 26.460938 16.316406 25.925781 16.28125 25.457031 C 16.230469 24.871094 16.019531 24.1875 16.28125 23.574219 "></path><path style=" stroke:none;fill-rule:nonzero;fill:rgb(0.784314%,45.882353%,33.333333%);fill-opacity:1;" d="M 34.339844 23.765625 C 34.582031 24.644531 35.035156 25.222656 35.015625 26.273438 C 35.011719 26.578125 34.898438 26.886719 34.871094 27.191406 C 34.789062 28.15625 34.660156 28.824219 34.390625 29.699219 C 34.195312 30.332031 34.089844 30.972656 33.957031 31.628906 C 33.675781 33.007812 33.488281 34.382812 33.476562 35.921875 C 33.851562 35.867188 34.136719 35.496094 34.582031 35.34375 C 35.050781 35.179688 35.859375 35.074219 36.367188 35.199219 C 37.546875 35.488281 38.160156 36.167969 38.289062 37.511719 C 38.363281 38.238281 38.246094 39.179688 38.148438 40.023438 C 38.101562 40.414062 38.039062 40.785156 37.953125 41.179688 C 37.875 41.5625 37.855469 42.003906 37.761719 42.339844 C 37.613281 42.867188 37.253906 43.46875 37.039062 44.027344 C 36.789062 44.691406 36.484375 45.753906 35.546875 45.570312 C 35.007812 44.964844 35.535156 44.121094 35.929688 43.402344 C 36.277344 42.769531 36.625 42.007812 36.796875 41.277344 C 37.050781 40.214844 37.007812 39.210938 36.75 38.238281 C 36.546875 37.46875 36.332031 37.105469 35.351562 37.03125 C 35.082031 37.011719 34.703125 36.976562 34.4375 37.03125 C 33.921875 37.140625 33.664062 37.605469 33.234375 37.902344 C 33.050781 38.894531 33.226562 39.824219 33.28125 40.84375 C 33.304688 41.292969 33.265625 41.765625 33.28125 42.242188 C 33.308594 42.984375 33.714844 44.679688 32.851562 44.703125 C 32.300781 44.71875 32.132812 43.65625 31.984375 43.015625 C 31.917969 42.742188 31.816406 42.527344 31.789062 42.386719 C 31.535156 41.113281 31.59375 39.890625 31.5 38.722656 C 31.480469 38.484375 31.410156 38.332031 31.402344 38.191406 C 31.375 37.476562 31.585938 36.578125 31.5 36.066406 C 31.808594 35.183594 31.789062 34.28125 31.984375 33.414062 C 32.347656 31.785156 32.941406 30.214844 33.378906 28.589844 C 33.601562 27.769531 33.84375 26.894531 33.910156 26.03125 C 33.960938 25.328125 33.691406 24.738281 33.714844 24.007812 C 33.875 23.878906 33.984375 23.695312 34.339844 23.765625 "></path><path style=" stroke:none;fill-rule:nonzero;fill:rgb(0.784314%,45.882353%,33.333333%);fill-opacity:1;" d="M 88.242188 36.5 C 88.703125 36.179688 89.527344 35.851562 90.359375 35.585938 C 90.769531 35.453125 90.960938 35.359375 91.5625 35.441406 C 92.53125 35.566406 92.769531 36.175781 93.488281 36.644531 C 94.109375 37.511719 94.007812 39.375 93.730469 40.699219 C 93.550781 41.566406 93.417969 42.292969 93.105469 43.015625 C 92.769531 43.792969 92.480469 44.3125 91.949219 44.945312 C 91.667969 45.28125 91.277344 45.628906 90.988281 45.570312 C 90.390625 45.449219 90.65625 44.597656 90.839844 44.074219 C 91.046875 43.5 91.292969 43.035156 91.46875 42.628906 C 91.671875 42.152344 91.859375 41.632812 92.042969 41.136719 C 92.140625 40.875 92.191406 40.582031 92.285156 40.308594 C 92.449219 39.847656 92.757812 39.460938 92.722656 38.769531 C 92.703125 38.449219 92.546875 38 92.429688 37.660156 C 92.160156 36.886719 91.820312 36.589844 90.988281 36.695312 C 90.457031 36.757812 89.773438 37.003906 89.300781 37.226562 C 88.808594 37.457031 88.351562 37.746094 88 38.09375 C 88.050781 38.765625 87.902344 39.320312 87.902344 39.925781 C 87.902344 40.386719 88.046875 40.828125 88.097656 41.324219 C 88.164062 41.988281 88.070312 42.757812 88.097656 43.402344 C 88.113281 43.824219 88.25 44.804688 87.664062 44.898438 C 86.515625 45.078125 86.210938 42.324219 86.121094 41.277344 C 86.074219 40.742188 85.921875 40.226562 85.929688 39.734375 C 85.933594 39.558594 86.007812 39.320312 86.023438 39.058594 C 86.109375 37.820312 86.058594 36.765625 86.410156 35.679688 C 86.644531 34.953125 87.121094 34.117188 87.613281 33.171875 C 88.058594 32.316406 88.367188 31.34375 88.625 30.519531 C 88.902344 29.636719 89.113281 28.652344 89.25 27.433594 C 89.300781 27.003906 89.363281 26.363281 89.445312 25.792969 C 89.578125 24.847656 89.453125 23.996094 90.167969 23.910156 C 90.507812 23.871094 90.808594 24.121094 90.988281 24.199219 C 91.503906 25.0625 91.339844 26.542969 91.132812 27.480469 C 90.976562 28.164062 90.863281 28.726562 90.648438 29.363281 C 90.527344 29.722656 90.457031 30.09375 90.359375 30.472656 C 90.179688 31.160156 89.78125 31.753906 89.542969 32.402344 C 89.472656 32.585938 89.464844 32.804688 89.398438 32.980469 C 88.996094 34 88.351562 35.28125 88.242188 36.5 "></path><path style=" stroke:none;fill-rule:nonzero;fill:rgb(0.784314%,45.882353%,33.333333%);fill-opacity:1;" d="M 109.289062 40.746094 C 109.792969 40.839844 110.476562 40.464844 111.023438 40.601562 C 111.386719 41.429688 110.773438 41.910156 110.300781 42.339844 C 110.078125 42.542969 109.769531 42.769531 109.722656 42.964844 C 109.609375 43.449219 110.03125 44.230469 110.109375 44.796875 C 110.292969 46.226562 109.988281 47.921875 109.871094 49.335938 C 109.804688 50.050781 109.867188 50.78125 109.773438 51.3125 C 109.726562 51.578125 109.503906 52.265625 109.335938 52.566406 C 109.171875 52.871094 108.792969 53.207031 108.46875 53.578125 C 108.15625 53.9375 106.894531 55.003906 107.023438 53.578125 C 107.035156 53.5 107.25 52.980469 107.3125 52.808594 C 107.839844 51.414062 108.4375 50.59375 108.566406 48.753906 C 108.589844 48.433594 108.664062 48.101562 108.664062 47.839844 C 108.660156 47.5 108.488281 47.050781 108.46875 46.679688 C 108.460938 46.480469 108.527344 46.3125 108.519531 46.199219 C 108.480469 45.800781 108.316406 45.410156 108.277344 44.992188 C 108.242188 44.617188 108.238281 44.234375 108.085938 43.835938 C 107.492188 43.828125 106.871094 44.113281 106.59375 43.738281 C 106.125 43.109375 107.3125 41.894531 107.554688 41.566406 C 107.480469 39.691406 107.78125 38.164062 108.277344 36.792969 C 108.535156 36.074219 108.6875 35.308594 108.90625 34.523438 C 109.144531 33.65625 109.367188 32.429688 109.242188 31.195312 C 109.164062 30.449219 109.042969 29.816406 108.90625 29.070312 C 108.832031 28.691406 108.730469 28.234375 108.613281 27.867188 C 108.535156 27.621094 108.332031 27.371094 108.179688 27.046875 C 108.042969 26.75 107.992188 26.398438 107.890625 26.128906 C 107.785156 25.84375 107.421875 25.363281 107.460938 25.066406 C 107.492188 24.789062 108.023438 24.433594 108.46875 24.539062 C 108.660156 24.582031 108.863281 24.875 109.046875 25.117188 C 109.226562 25.351562 109.425781 25.570312 109.53125 25.792969 C 109.796875 26.359375 109.734375 27.121094 110.109375 27.480469 C 110.238281 28.257812 110.277344 28.921875 110.445312 29.601562 C 110.625 30.34375 110.917969 31.25 110.832031 32.351562 C 110.808594 32.632812 110.734375 32.933594 110.683594 33.21875 C 110.570312 33.914062 110.460938 34.644531 110.25 35.390625 C 110.195312 35.59375 110.066406 35.78125 110.011719 35.972656 C 109.949219 36.203125 109.972656 36.453125 109.914062 36.695312 C 109.8125 37.140625 109.652344 37.554688 109.578125 37.996094 C 109.421875 38.929688 109.351562 39.871094 109.289062 40.746094 "></path><path style=" stroke:none;fill-rule:nonzero;fill:rgb(0.784314%,45.882353%,33.333333%);fill-opacity:1;" d="M 22.589844 42.628906 C 23.054688 42.796875 23.132812 43.0625 23.503906 43.207031 C 23.929688 43.375 24.863281 43.441406 25.429688 43.257812 C 26.269531 42.976562 26.929688 41.617188 26.972656 40.457031 C 26.988281 40.03125 26.796875 39.5 26.78125 39.105469 C 26.761719 38.6875 26.773438 38.253906 26.636719 37.902344 C 26.335938 37.140625 25.117188 36.21875 25.238281 35.296875 C 25.28125 34.960938 25.597656 34.617188 25.867188 34.570312 C 26.3125 34.496094 26.65625 34.796875 26.925781 35.054688 C 27.5 35.609375 27.859375 36.03125 28.320312 36.792969 C 28.539062 37.148438 28.761719 37.5 28.851562 37.804688 C 29.082031 38.609375 29.054688 39.375 28.996094 40.167969 C 28.875 41.75 27.929688 43.386719 26.875 44.316406 C 26.265625 44.859375 25.757812 45.195312 24.757812 45.285156 C 24.15625 45.332031 23.847656 45.214844 23.359375 45.089844 C 22.589844 44.890625 22.136719 44.691406 21.625 44.222656 C 21.339844 43.957031 21.261719 43.871094 21.046875 43.5 C 20.605469 42.726562 20.328125 41.828125 20.375 40.410156 C 20.421875 38.9375 20.757812 37.511719 21.433594 36.453125 C 21.996094 35.574219 22.769531 34.78125 23.601562 33.996094 C 23.882812 33.726562 24.066406 33.394531 24.324219 33.414062 C 24.515625 33.429688 24.640625 33.363281 24.707031 33.65625 C 24.773438 33.941406 24.46875 34.101562 24.226562 34.378906 C 23.636719 35.046875 23.140625 35.769531 22.78125 36.550781 C 22.566406 37.023438 22.285156 37.613281 22.109375 38.285156 C 22.023438 38.605469 21.980469 38.957031 21.914062 39.300781 C 21.792969 39.929688 21.667969 40.300781 21.820312 40.84375 C 21.984375 41.429688 22.328125 42.113281 22.589844 42.628906 "></path><path style=" stroke:none;fill-rule:nonzero;fill:rgb(0.784314%,45.882353%,33.333333%);fill-opacity:1;" d="M 63.144531 37.273438 C 63.984375 36.988281 64.570312 36.15625 65.410156 36.164062 C 65.992188 36.167969 66.292969 36.433594 66.566406 36.984375 C 66.929688 37.730469 67.148438 39.007812 67.046875 40.265625 C 66.972656 41.195312 66.707031 42.097656 66.519531 42.917969 C 66.347656 43.636719 66.183594 45.066406 65.652344 45.183594 C 65.269531 45.269531 64.875 45.007812 64.6875 44.753906 C 64.804688 43.957031 64.996094 43.125 65.121094 42.242188 C 65.242188 41.390625 65.519531 40.503906 65.503906 39.683594 C 65.496094 38.964844 65.1875 38.351562 65.070312 37.660156 C 64.128906 37.699219 63.742188 38.289062 63.195312 38.722656 C 62.976562 40.488281 62.433594 42.179688 62.039062 43.835938 C 61.910156 44.363281 61.941406 45.011719 61.460938 45.332031 C 61.023438 45.316406 60.613281 45.277344 60.398438 45.039062 C 60.402344 43.949219 60.875 42.800781 61.171875 41.757812 C 61.355469 41.113281 61.59375 40.480469 61.652344 39.636719 C 61.707031 38.867188 61.613281 37.988281 61.554688 37.226562 C 61.511719 36.664062 61.25 36.085938 61.507812 35.585938 C 62.046875 35.417969 62.621094 35.589844 62.855469 36.019531 C 63.042969 36.355469 62.996094 36.882812 63.144531 37.273438 "></path><path style=" stroke:none;fill-rule:nonzero;fill:rgb(0.784314%,45.882353%,33.333333%);fill-opacity:1;" d="M 52.453125 36.117188 C 52.621094 36.574219 52.820312 37.003906 53.03125 37.417969 C 53.507812 37.390625 53.84375 37.015625 54.234375 36.839844 C 54.4375 36.746094 54.699219 36.730469 54.910156 36.644531 C 55.324219 36.480469 55.554688 36.339844 56.160156 36.257812 C 56.953125 36.15625 57.582031 36.402344 57.847656 37.175781 C 58.015625 37.667969 57.980469 38.28125 57.945312 38.816406 C 57.867188 39.957031 57.5 41.113281 57.21875 42.386719 C 57.054688 43.144531 56.714844 44.785156 56.066406 44.703125 C 55.460938 44.625 55.734375 43.511719 55.824219 42.964844 C 55.9375 42.265625 56.023438 41.613281 56.113281 40.890625 C 56.175781 40.394531 56.273438 39.886719 56.257812 39.394531 C 56.234375 38.71875 55.996094 37.992188 55.582031 37.902344 C 55.03125 37.777344 54.492188 38.316406 54.136719 38.527344 C 53.71875 38.78125 53.246094 38.984375 52.886719 39.300781 C 52.785156 39.613281 52.824219 39.949219 52.789062 40.3125 C 52.675781 41.460938 52.441406 42.753906 52.355469 43.835938 C 52.304688 44.472656 52.359375 45.046875 51.875 45.136719 C 51.246094 45.257812 50.925781 44.472656 50.863281 43.785156 C 50.808594 43.203125 50.957031 42.542969 51.054688 41.808594 C 51.234375 40.480469 51.601562 38.660156 51.488281 37.175781 C 51.449219 36.664062 51.1875 35.960938 51.488281 35.78125 C 51.894531 35.457031 52.109375 36.0625 52.453125 36.117188 "></path><path style=" stroke:none;fill-rule:nonzero;fill:rgb(0.784314%,45.882353%,33.333333%);fill-opacity:1;" d="M 82.703125 36.066406 C 82.796875 36.242188 82.648438 36.40625 82.605469 36.597656 C 82.574219 36.75 82.601562 36.953125 82.507812 37.082031 C 82.339844 37.304688 82.113281 37.210938 81.738281 37.320312 C 81.085938 37.511719 80.464844 38.015625 80.242188 38.722656 C 80.214844 38.816406 80.074219 39.195312 80.148438 39.394531 C 80.195312 39.535156 80.453125 39.625 80.675781 39.78125 C 81.191406 40.140625 81.84375 40.480469 82.507812 40.699219 C 82.742188 40.992188 82.945312 41.203125 83.230469 41.566406 C 83.382812 41.757812 83.574219 41.96875 83.613281 42.097656 C 83.699219 42.359375 83.652344 42.878906 83.519531 43.207031 C 83.445312 43.390625 83.175781 43.59375 82.894531 43.886719 C 82.507812 44.28125 82.199219 44.832031 81.644531 45.039062 C 81.289062 45.175781 80.707031 45.214844 80.386719 45.183594 C 80.222656 45.167969 80.085938 45.039062 79.859375 44.992188 C 79.609375 44.9375 79.4375 44.984375 79.234375 44.898438 C 79.03125 44.808594 78.765625 44.628906 78.5625 44.460938 C 78.316406 44.265625 78.121094 44.097656 78.222656 43.738281 C 78.550781 43.339844 78.929688 43.621094 79.28125 43.738281 C 79.445312 43.792969 79.675781 43.824219 79.859375 43.886719 C 80.214844 43.996094 80.53125 44.148438 81.015625 43.980469 C 81.347656 43.863281 82.039062 43.257812 82.121094 42.820312 C 82.3125 41.824219 81.394531 41.507812 80.726562 41.230469 C 80.378906 41.085938 79.929688 41 79.667969 40.796875 C 79.34375 40.546875 78.839844 40.046875 78.75 39.832031 C 78.378906 38.898438 78.894531 37.617188 79.425781 37.175781 C 79.671875 36.976562 80.101562 36.769531 80.535156 36.597656 C 81.292969 36.304688 81.835938 35.816406 82.703125 36.066406 "></path><path style=" stroke:none;fill-rule:nonzero;fill:rgb(0.784314%,45.882353%,33.333333%);fill-opacity:1;" d="M 101.4375 36.117188 C 101.402344 36.945312 100.660156 36.941406 100.183594 37.417969 C 99.90625 37.703125 99.503906 38.3125 99.128906 38.914062 C 98.589844 39.769531 98.078125 40.507812 97.96875 41.664062 C 97.953125 41.867188 97.945312 42.050781 97.96875 42.242188 C 98.023438 42.6875 98.246094 43.109375 98.5 43.402344 C 98.980469 43.949219 100.269531 44.613281 101.195312 43.980469 C 101.738281 43.609375 101.894531 42.929688 102.160156 42.144531 C 102.28125 41.785156 102.421875 41.414062 102.449219 41.085938 C 102.476562 40.78125 102.351562 40.457031 102.546875 40.214844 C 102.316406 39.773438 102.300781 39.429688 102.113281 38.867188 C 101.988281 38.484375 101.90625 38.328125 101.777344 37.851562 C 101.726562 37.679688 101.449219 37.398438 101.535156 37.128906 C 101.59375 36.945312 101.851562 36.851562 101.917969 36.839844 C 102.273438 36.78125 102.535156 37.058594 102.835938 37.371094 C 103.714844 38.273438 104.539062 39.480469 104.28125 41.371094 C 104.257812 41.546875 104.152344 41.78125 104.089844 42 C 104.015625 42.238281 104.003906 42.507812 103.945312 42.675781 C 103.800781 43.078125 103.34375 43.664062 103.027344 44.074219 C 102.714844 44.488281 102.265625 45.058594 101.917969 45.234375 C 101.625 45.386719 101.335938 45.367188 101.007812 45.472656 C 100.457031 45.648438 99.644531 46.035156 98.886719 45.8125 C 98.378906 45.664062 97.753906 45.308594 97.488281 45.039062 C 97.054688 44.605469 96.265625 43.171875 96.332031 42.050781 C 96.351562 41.765625 96.503906 41.355469 96.621094 40.988281 C 96.882812 40.171875 97.148438 39.699219 97.585938 39.058594 C 97.800781 38.746094 97.960938 38.386719 98.164062 38.144531 C 98.359375 37.902344 98.695312 37.664062 98.984375 37.417969 C 99.265625 37.175781 99.539062 36.871094 99.800781 36.695312 C 99.988281 36.566406 100.25 36.523438 100.425781 36.40625 C 100.71875 36.207031 101 35.71875 101.4375 36.117188 "></path><path style=" stroke:none;fill-rule:nonzero;fill:rgb(0.784314%,45.882353%,33.333333%);fill-opacity:1;" d="M 72.394531 39.976562 C 72.675781 39.085938 73.074219 38.3125 73.742188 37.804688 C 73.820312 37.792969 73.824219 37.847656 73.886719 37.851562 C 73.863281 38.40625 74.171875 38.625 74.222656 39.109375 C 73.8125 39.597656 73.136719 39.816406 72.394531 39.976562 M 75.476562 38.09375 C 75.324219 37.492188 75.117188 36.605469 74.660156 36.40625 C 74.488281 36.332031 73.933594 36.347656 73.886719 36.355469 C 73.777344 36.375 73.371094 36.558594 73.164062 36.695312 C 72.542969 37.105469 71.910156 37.949219 71.527344 38.722656 C 71.082031 39.621094 70.710938 40.460938 70.417969 41.519531 C 70.261719 42.09375 69.992188 42.730469 69.984375 43.304688 C 69.980469 43.703125 70.070312 44.257812 70.179688 44.511719 C 70.28125 44.753906 70.75 45.257812 70.949219 45.332031 C 71.078125 45.378906 71.226562 45.3125 71.382812 45.332031 C 71.554688 45.351562 71.703125 45.429688 71.863281 45.425781 C 72.683594 45.410156 73.285156 44.964844 73.789062 44.605469 C 74.167969 44.34375 74.515625 44.132812 74.707031 43.929688 C 74.90625 43.71875 75.167969 43.265625 75.140625 43.015625 C 75.125 42.890625 75.035156 42.585938 74.707031 42.53125 C 74.355469 42.472656 73.96875 42.84375 73.691406 43.0625 C 73.359375 43.324219 73.109375 43.632812 72.828125 43.738281 C 72.390625 43.902344 71.921875 43.898438 71.476562 43.546875 C 71.449219 42.875 71.628906 42.40625 71.769531 41.90625 C 72.542969 41.953125 73.015625 41.578125 73.597656 41.277344 C 74.023438 41.058594 74.40625 40.84375 74.660156 40.601562 C 74.8125 40.453125 75.027344 40.027344 75.1875 39.78125 C 75.226562 39.726562 75.296875 39.6875 75.332031 39.636719 C 75.671875 39.148438 75.640625 38.734375 75.476562 38.09375 "></path><path style=" stroke:none;fill-rule:nonzero;fill:rgb(0.784314%,45.882353%,33.333333%);fill-opacity:1;" d="M 46.046875 41.90625 C 45.949219 42.339844 45.980469 42.976562 45.804688 43.253906 C 45.699219 43.425781 44.984375 43.699219 44.648438 43.6875 C 44.164062 43.679688 43.265625 43.28125 43.109375 42.964844 C 42.925781 42.597656 43.0625 41.875 43.253906 41.519531 C 43.363281 41.316406 44.261719 40.476562 44.554688 40.363281 C 45.183594 40.109375 45.699219 39.925781 46.429688 39.929688 C 46.421875 40.6875 46.21875 41.140625 46.046875 41.90625 M 47.539062 37.464844 C 47.5 37.160156 47.542969 36.835938 47.492188 36.597656 C 47.394531 36.15625 46.953125 35.28125 46.71875 35.101562 C 46.417969 34.875 45.550781 34.71875 44.9375 34.667969 C 44.277344 34.613281 43.890625 34.878906 43.542969 35.054688 C 43.34375 35.152344 43.136719 35.195312 43.058594 35.246094 C 42.902344 35.359375 42.773438 35.679688 42.53125 35.921875 C 42.101562 36.355469 41.65625 36.664062 41.421875 37.273438 C 41.359375 37.4375 41.175781 38.027344 41.421875 38.238281 C 41.988281 38.722656 42.6875 37.578125 43.109375 37.128906 C 43.421875 36.796875 43.949219 36.414062 44.410156 36.257812 C 44.652344 36.179688 45.082031 36.050781 45.421875 36.117188 C 46.15625 36.257812 46.621094 37.601562 46.429688 38.480469 C 46.175781 38.484375 45.921875 38.394531 45.660156 38.382812 C 45.125 38.363281 43.972656 38.671875 43.640625 38.867188 C 43.570312 38.90625 43.554688 39.011719 43.445312 39.105469 C 43.367188 39.175781 43.234375 39.1875 43.15625 39.25 C 42.609375 39.691406 42.375 40.132812 42.050781 40.746094 C 41.945312 40.9375 41.785156 41.105469 41.710938 41.277344 C 41.664062 41.394531 41.667969 41.570312 41.613281 41.710938 C 41.5 42.03125 41.316406 42.480469 41.277344 42.871094 C 41.167969 44.011719 41.574219 44.5 42.289062 44.796875 C 42.441406 44.863281 42.671875 44.953125 42.820312 44.992188 C 43.800781 45.257812 44.453125 44.992188 45.035156 44.753906 C 45.328125 44.628906 45.609375 44.492188 45.855469 44.367188 C 46.199219 44.769531 46.140625 45.765625 46.867188 45.667969 C 47.265625 45.617188 47.289062 44.910156 47.300781 44.414062 C 47.308594 43.871094 47.414062 43.328125 47.445312 42.726562 C 47.476562 42.074219 47.441406 41.417969 47.492188 40.792969 C 47.542969 40.160156 47.648438 39.550781 47.683594 38.960938 C 47.722656 38.316406 47.601562 37.945312 47.539062 37.464844 "></path><path style=" stroke:none;fill-rule:nonzero;fill:rgb(0.784314%,45.882353%,33.333333%);fill-opacity:1;" d="M 116.707031 57.585938 C 116.113281 58.910156 114.347656 58.570312 112.566406 58.5 C 110.859375 58.4375 108.945312 58.3125 107.507812 58.453125 C 106.683594 58.53125 105.917969 58.726562 105.144531 58.789062 C 104.292969 58.863281 103.480469 58.832031 102.59375 58.789062 C 100.351562 58.683594 98.023438 58.570312 95.753906 58.453125 C 94.382812 58.378906 92.863281 58.484375 91.082031 58.5 C 88.765625 58.523438 86.269531 58.820312 83.859375 58.886719 C 83.074219 58.910156 82.289062 58.898438 81.496094 58.933594 C 80.714844 58.96875 79.921875 58.984375 79.136719 58.984375 C 75.863281 58.984375 72.546875 58.972656 69.214844 58.835938 C 68.433594 58.808594 67.628906 58.753906 66.855469 58.742188 C 66.054688 58.730469 65.277344 58.730469 64.492188 58.691406 C 61.355469 58.554688 58.269531 58.632812 55.199219 58.886719 C 53.589844 59.019531 51.933594 59.003906 50.332031 58.933594 C 49.796875 58.910156 49.285156 58.792969 48.746094 58.742188 C 48.1875 58.6875 47.613281 58.691406 47.058594 58.644531 C 46 58.554688 44.972656 58.308594 43.925781 58.257812 C 42.691406 58.203125 41.460938 58.363281 40.21875 58.308594 C 39.578125 58.277344 38.933594 58.171875 38.289062 58.164062 C 37.695312 58.15625 37.097656 58.238281 36.507812 58.210938 C 36.089844 58.191406 35.585938 58.039062 35.160156 58.015625 C 34.78125 58 34.363281 58.09375 33.957031 58.066406 C 33.496094 58.039062 33.066406 57.96875 32.609375 57.96875 C 31.710938 57.96875 30.796875 58.070312 29.910156 58.015625 C 29.425781 57.992188 28.949219 57.851562 28.464844 57.824219 C 27.007812 57.734375 25.53125 57.6875 24.035156 57.585938 C 23.058594 57.515625 22.050781 57.4375 21.046875 57.4375 C 20.042969 57.441406 19.011719 57.351562 18.015625 57.390625 C 16.714844 57.441406 15.402344 57.582031 14.113281 57.628906 C 12.765625 57.683594 11.429688 57.527344 10.113281 57.492188 C 9.609375 57.472656 9.113281 57.582031 8.621094 57.585938 C 8.125 57.585938 7.621094 57.539062 7.125 57.535156 C 6.199219 57.53125 5.292969 57.4375 4.382812 57.492188 C 3.984375 57.511719 3.542969 57.589844 3.179688 57.390625 C 3.050781 57.136719 3.199219 56.871094 3.273438 56.667969 C 3.351562 56.449219 3.421875 56.207031 3.5625 56.089844 C 3.777344 55.914062 4.722656 55.800781 5.152344 55.800781 C 5.808594 55.804688 6.453125 55.949219 7.128906 55.992188 C 7.792969 56.035156 8.46875 56.015625 9.152344 56.039062 C 10.449219 56.082031 11.769531 56.183594 13.101562 56.183594 C 15.800781 56.183594 18.511719 55.871094 21.191406 56.039062 C 21.875 56.085938 22.5625 56.101562 23.265625 56.136719 C 23.941406 56.171875 24.613281 56.277344 25.289062 56.28125 C 26.640625 56.289062 27.960938 56.164062 29.285156 56.28125 C 31.265625 56.460938 33.339844 56.339844 35.113281 56.378906 C 35.746094 56.394531 36.367188 56.511719 36.992188 56.523438 C 37.8125 56.535156 38.582031 56.40625 39.351562 56.425781 C 40.550781 56.460938 41.691406 56.691406 42.769531 56.765625 C 43.59375 56.816406 44.460938 56.707031 45.324219 56.714844 C 46.117188 56.726562 46.90625 56.828125 47.683594 56.8125 C 49.371094 56.78125 51.089844 56.808594 52.789062 56.910156 C 53.621094 56.957031 54.457031 56.914062 55.292969 56.957031 C 56.910156 57.042969 58.542969 57.003906 60.253906 57.003906 C 61.082031 57.003906 61.894531 56.898438 62.710938 56.910156 C 63.074219 56.914062 63.417969 57 63.769531 57.003906 C 64.894531 57.023438 66.007812 56.839844 67.140625 56.765625 C 69.363281 56.617188 71.601562 56.71875 74.078125 56.667969 C 74.792969 56.652344 75.515625 56.585938 76.199219 56.617188 C 78.527344 56.726562 80.765625 56.667969 83.039062 56.570312 C 84.445312 56.511719 85.824219 56.4375 87.375 56.476562 C 88.039062 56.492188 88.726562 56.503906 89.398438 56.523438 C 90.035156 56.542969 90.671875 56.660156 91.324219 56.667969 C 91.941406 56.675781 92.574219 56.691406 93.203125 56.667969 C 95.234375 56.589844 97.257812 56.835938 99.367188 56.8125 C 99.988281 56.804688 100.585938 56.640625 101.195312 56.617188 C 102.949219 56.5625 104.71875 56.722656 106.449219 56.71875 C 108.875 56.707031 110.683594 56.8125 113.191406 56.910156 C 114.605469 56.964844 115.816406 56.613281 116.707031 57.585938 "></path><path style=" stroke:none;fill-rule:nonzero;fill:rgb(0.784314%,45.882353%,33.333333%);fill-opacity:1;" d="M 61.425781 0.046875 C 59.964844 0.917969 59.785156 3.179688 58.917969 4.167969 C 57.890625 4.121094 57.683594 3.253906 56.773438 3.09375 C 56.707031 4.441406 57.214844 5.425781 57.847656 6.496094 C 56.238281 7.074219 55.175781 9.007812 54.269531 10.796875 C 56.042969 10.261719 56.769531 9.40625 57.847656 8.46875 C 57.757812 9.503906 56.59375 11.484375 57.667969 12.769531 C 58.28125 11.59375 58.980469 10.496094 59.636719 9.363281 C 60.648438 9.707031 61.699219 10.242188 62.320312 10.082031 C 61.664062 9.304688 61.855469 7.675781 61.066406 7.035156 C 62.246094 6.84375 62.8125 6.035156 63.75 5.601562 C 63.410156 4.925781 62.84375 5.6875 62.140625 5.0625 C 63.152344 4.285156 64.222656 3.566406 64.644531 2.195312 C 62.933594 2.21875 61.835938 3.800781 60.707031 3.808594 C 61.886719 3.132812 61.859375 1.453125 61.425781 0.046875 "></path><path style=" stroke:none;fill-rule:nonzero;fill:rgb(70.588235%,9.019608%,17.254902%);fill-opacity:1;" d="M 63.390625 21.726562 C 63.335938 20.816406 63.1875 20.480469 63.390625 19.933594 C 70.132812 21.035156 75.910156 21.472656 80.027344 17.425781 C 80.140625 15.613281 79.457031 13.605469 78.777344 12.769531 C 78.195312 12.050781 76.808594 10.042969 75.734375 8.648438 C 74.085938 6.5 72.25 4.679688 70.367188 3.09375 C 68.652344 2.71875 67.816406 1.789062 66.253906 1.660156 C 67.632812 0.246094 69.390625 2.277344 71.441406 2.375 C 71.738281 2.976562 72.28125 3.328125 73.054688 3.449219 C 75.019531 5.890625 76.984375 8.027344 79.136719 11.335938 C 79.054688 11.59375 78.976562 11.316406 78.777344 11.335938 C 79.695312 12.847656 81.269531 14.46875 80.746094 16.171875 C 81.398438 16.691406 80.410156 18.242188 79.851562 18.859375 C 76.507812 22.5625 68.269531 23.398438 63.390625 21.726562 "></path><path style=" stroke:none;fill-rule:nonzero;fill:rgb(0.784314%,45.882353%,33.333333%);fill-opacity:1;" d="M 48.363281 10.617188 C 48.808594 10.589844 48.917969 10.898438 49.257812 10.976562 C 49.464844 12.585938 50.023438 13.757812 50.691406 15.277344 C 52.027344 14.34375 52.789062 12.839844 54.984375 12.769531 C 54.691406 13.910156 52.867188 13.515625 53.015625 15.097656 C 53.363281 15.199219 54.96875 15.027344 55.878906 15.097656 C 54.046875 16.035156 53.070312 15.878906 51.226562 16.53125 C 50.789062 18.542969 49.566406 19.765625 48.363281 21.011719 C 47.871094 20.390625 48.375 19.238281 48.363281 18.503906 C 46.359375 19.09375 45.835938 20.179688 44.605469 21.367188 C 44.566406 19.773438 46.316406 18.425781 47.46875 17.425781 C 47.425781 16.964844 47.164062 17.671875 46.753906 17.425781 C 47.09375 16.046875 49.210938 16.0625 50.152344 15.8125 C 49.605469 14.558594 48.710938 12.074219 48.363281 10.617188 "></path><path style=" stroke:none;fill-rule:nonzero;fill:rgb(70.588235%,9.019608%,17.254902%);fill-opacity:1;" d="M 58.023438 15.636719 C 59.722656 15.425781 59.390625 17.253906 60.53125 17.605469 C 61.25 19.214844 61.800781 20.992188 62.320312 22.804688 C 62.023438 25.039062 61.59375 27.359375 60.707031 29.433594 C 59.445312 29.957031 58.96875 31.273438 57.847656 31.941406 C 52.816406 31.574219 46.089844 29.105469 45.320312 24.238281 C 44.996094 22.160156 45.640625 21.179688 47.113281 19.933594 C 47.527344 20.484375 47.171875 21.453125 46.933594 21.90625 C 47.214844 22.8125 47.101562 23.832031 47.46875 24.59375 C 48.761719 27.261719 55.667969 29.398438 58.5625 30.148438 C 59.023438 29.925781 59.953125 28.621094 59.996094 28.535156 C 60.074219 28.355469 59.96875 27.855469 60.171875 27.460938 C 62.515625 22.941406 60.792969 19.203125 58.023438 15.636719 "></path></g></svg>