<svg xmlns="http://www.w3.org/2000/svg" xmlns:xlink="http://www.w3.org/1999/xlink" xmlns:a="http://ns.adobe.com/AdobeSVGViewerExtensions/3.0/" x="0px" y="0px" width="1292px" height="629px" viewBox="-0.5 -0.5 1292 629" xml:space="preserve"><defs></defs><path fill="#027555" d="M411.969,204.517c-12.701,0.142-25.464-0.054-38.066,0.516c-6.113,0.291-12.036,1.122-18.001,1.026 c-5.971-0.095-11.924-1.026-18.004-1.026c-7.75,0-15.394,1.478-23.132,1.542c-6.001,0.054-11.888-0.563-17.999-0.516 c-5.559,0.065-10.861-0.86-16.461-1.026c-8.747-0.243-18.692,0.142-25.208,0c-10.548-0.225-19.876-2.622-30.343-3.079 c-15.296-0.7-30.426-2.367-45.778-3.601c-7.958-0.652-15.8-1.708-23.648-2.059c-8.806-0.392-17.814,0.279-26.745,0 c-8.044-0.249-16.153-1.691-24.171-2.574c-8.115-0.884-16.625-2.237-25.208-2.575c-5.273-0.202-12.009-1.033-15.43-2.047 c-1.958-0.581-6.439-0.676-9.25-0.527c-5.778,0.338-6.52,4.847-5.663,8.75c0.706,3.221,1.629,3.969,3.079,5.678 c0.365,0.403,0.167,1.067,0.531,1.518c3.207,4.182,10.975,5.232,19.541,6.703c6.944,1.169,12.861,3.204,18.509,3.571 c19.149,1.329,38.399-1.583,56.062-1.536c14.791,0.065,29.224,2.183,43.72,2.581c7.095,0.202,14.542,0.741,21.593,1.536 c7.03,0.795,13.736,0.635,20.575,1.033c14.033,0.83,28.053,2.301,42.181,2.574c7.011,0.13,14.032-0.291,21.079,0 c7.193,0.302,14.341,1.851,21.608,2.046c12.161,0.386,24.959-0.338,37.533-0.504c11.784-0.13,23.364,2.112,34.979,2.064 c12.04-0.053,24.322-1.417,36.512-1.56c12.449-0.131,24.74,0.065,36.858-0.932c-3.269-5.985-5.997-12.154-8.145-18.49 C440.684,204.012,426.36,204.368,411.969,204.517"></path><path fill="#027555" d="M1228.176,210.687c-8.175,1.465-16.277,1.524-25.71,2.058c-4.947,0.291-9.966,1.643-14.914,2.046 c-10.346,0.89-21.213,0.534-31.891,0.534c-28.202,0-54.386,3.446-77.153,2.575c-11.663-0.445-22.056,1.151-31.88,1.026 c-5.848-0.089-11.603-1.441-17.475-1.554c-4.284-0.065-8.649,0.848-12.861,1.026c-4.734,0.225-9.301-0.683-13.894-0.498 c-9.539,0.379-19.102,1.548-28.794,1.548c-19.314,0-38.915,1.079-59.167,1.032c-5.671-0.047-11.177-0.575-16.954-0.528 c-15.673,0.101-28.533-1.59-41.524-2.735c-3.014,6.134-6.573,12.072-10.679,17.82c3.892,0.493,7.784,1.015,11.58,1.376 c14.402,1.305,31.464,3.785,44.229,2.563c11.082-1.044,21.7-1.69,32.39-2.041c13.716-0.481,27.656,0.071,41.668-0.522 c15.695-0.676,33.919-1.05,51.419-1.554c11.841-0.326,22.008-1.015,31.892-0.504c4.449,0.22,8.862,1.447,13.358,1.542 c20.206,0.362,41.395-2.165,60.71-1.542c6.988,0.22,13.654,1.851,20.549,2.058c10.037,0.291,20.691-1.103,30.882-2.581 c10.5-1.518,21.13-1.951,31.37-3.078c9.029-1.003,19.303-3.672,28.261-6.17c7.949-2.225,18.995-3.209,20.584-13.898 C1254.242,203.152,1239.021,208.752,1228.176,210.687"></path><path fill="#027555" d="M4.111,599.526c-3.737-2.231-3.17-7.582-3.088-10.804c0.13-3.938,0.748-8.21,1.042-11.847 c1.195-15.305,1.056-32.329,0-50.429c-0.492-8.188-1.994-16.766-2.062-25.164c-0.047-6.869,1.053-14.048,1.545-21.065 c1.148-16.521-2.12-37.924-1.014-53.524c0.255-3.832,1.264-7.463,1.531-11.302c0.486-7.226-0.475-14.491,0-21.599 c0.249-3.81,0.558-7.547,1.021-11.313c0.43-3.423,1.744-6.785,2.064-10.292c0.845-9.22-0.807-18.645-0.51-27.769 c0.225-7.113,1.566-15.086,2.058-23.669c0.433-7.7,1.575-15.417,1.021-23.135c-0.351-4.758-1.329-9.314-1.549-13.905 c-0.673-14.505,0.086-33.808,0-50.91c-0.011-4.615-1.233-9.604-1.53-14.396c-0.152-2.474,0.249-5.048,0-7.718 c-0.25-2.521-1.344-4.313-1.033-6.674c0.261-2.046,1.999-4.912,3.595-7.202c1.402-2.005,3.402-5.06,4.629-6.181 c2.569-2.343,6.644-2.474,8.231-5.659c0.419-0.801,2.139-1.465,4.111-1.015c2.826,0.617,1.667,2.611,2.571,7.184 c0.6,3.025,1.932,5.825,2.07,8.24c0.196,3.826-1.228,7.291-1.554,10.796c-1.186,12.956-0.371,26.41-0.516,39.609 c-0.056,4.805-1.24,9.74-0.516,14.391c0.546,3.47,3.159,6.632,3.601,10.304c1.824,14.801,0.638,28.065-0.517,40.606 c-1.008,11.028-2.574,23.171-3.084,35.497c-0.255,6.199,1.008,12.322,1.032,18.509c0.054,13.853-2.978,27.514-4.114,41.649 c-0.231,2.841,0.267,5.907,0,8.756c-0.558,5.938-2.139,12.427-3.085,18.544c-0.955,6.092-2.619,12.629-2.574,18.495 c0.03,2.641,1.287,5.404,1.548,8.204c0.249,2.735-0.237,5.446,0,8.258c0.708,8.815,2.423,17.168,2.052,25.722 c-0.329,8.058-2.097,15.905-2.052,23.642c0.018,4.448,1.385,8.998,1.536,13.893c0.226,6.959,0.309,14.683,0,22.104 c-0.285,7.172-0.068,14.474-1.032,20.591C18.221,587.383,15.999,601.14,4.111,599.526"></path><path fill="#027555" d="M1271.374,236.414c16.337-4.811,15.257,17.933,16.479,34.976c0.677,9.605-0.475,15.81,0,24.174 c0.736,13.72,3.536,27.382,3.584,39.075c0.047,5.818-0.83,11.069-1.555,16.984c-0.641,5.493-0.036,11.65-0.485,17.993 c-0.76,10.476-3.239,21.337-4.142,32.923c-0.831,11.276-2.492,22.838-2.563,34.459c-0.072,18.301,0.011,37.474-1.033,52.44 c-1.056,15.238-1.328,28.859-0.51,45.796c0.451,9.199,1.233,19.161,0.51,28.807c-0.32,4.688-1.827,9.688-2.052,14.391 c-0.214,4.968,0.214,9.381-0.522,14.41c-0.699,5.001-2.526,23.372-8.731,23.646c-3.619,0.18-5.755-2.775-6.692-7.2 c-0.427-2.012,0.202-3.868,0-6.188c-0.355-3.844-1.293-8.051-0.51-12.824c1.127-6.917,4.248-11.433,4.615-19.56 c0.345-6.786-1.565-14.546-1.031-22.643c0.319-4.248,1.246-8.266,1.542-12.333c0.319-4.082,0.511-8.016,1.056-11.835 c1.044-7.623,3.583-15.556,3.583-23.111c0-10.292-2.36-20.946-3.097-32.413c-0.451-7.569,0.119-15.246-0.486-23.146 c-2.527-32.301,1.969-63.635,1.021-94.144c-0.131-3.897-1.46-7.628-1.556-11.3c-0.071-3.737,1.08-7.57,1.021-10.815 c-0.083-6.596-1.874-13.958-2.54-21.58c-0.616-6.946-1.66-14.469-1.542-22.115c0.083-7.16,0.961-15.767,0.51-23.669 C1265.738,253.136,1262.487,239.03,1271.374,236.414"></path><path fill="#027555" d="M173.337,250.806c2.337-3.186,10.886-5.82,12.336,0c4.834,5.154,5.006,20.282,5.146,28.806 c0.116,7.854,0.499,15.963,1.027,23.652c1.073,15.756,0.059,30.313,0.504,46.821c0.219,8.039,0.62,16.177,0.516,24.162 c-0.109,8.192-0.812,16.017-1.524,24.187c-0.736,8.161-0.493,16.325-1.56,24.148c-0.816,6.028-1.813,11.669-2.578,17.494 c-0.243,1.934,0.294,3.927,0,5.654c-1.24,7.33-3.826,15.326-6.163,22.113c-2.527,7.393-4.692,14.842-7.193,20.585 c-2.056,4.687-5.656,9.788-8.753,14.896c-9.063,15.107-17.381,28.634-33.946,37.045c-2.417,1.211-5.048,2.942-7.709,4.111 c-5.294,2.331-11.304,5.007-16.984,6.702c-8.181,2.434-13.893,1.946-23.643-0.526c-8.996-2.272-18.212-6.383-23.156-12.357 c-3.017-3.636-6.146-10.32-8.219-15.938c-2.895-7.818-6.261-27.093-3.085-38.062c1.142-3.938,5.505-10.139,9.774-10.263 c4.19-0.16,7.753,4.491,8.219,9.247c0.724,6.982-4.209,13.448-4.627,21.083c-0.543,10.044,3.206,15.952,9.262,22.08 c1.427,1.481,3.212,3.305,4.616,4.668c4.473,4.289,6.154,3.779,13.899,5.643c6.27,1.529,7.649,2.267,14.397,0.539 c6.068-1.578,8.08-2.058,12.867-5.666c9.251-6.975,18.467-15.145,25.197-25.192c3.995-5.979,8.643-11.829,11.832-18.526 c1.165-2.455,1.319-5.143,2.571-7.693c1.074-2.283,3.028-3.938,4.123-6.181c1.064-2.255,1.634-4.746,2.568-7.202 c7.03-18.722,11.666-42.503,12.849-67.898c1.234-26.706,0.928-51.746-1.032-74.579c-1.088-12.741,0.285-25.342-0.504-37.538 c-0.354-5.232-0.638-10.945-1.026-15.94C172.815,264.633,170.549,257.378,173.337,250.806"></path><path fill="#027555" d="M366.188,252.869c2.586,9.385,7.391,15.531,7.21,26.736c-0.056,3.263-1.263,6.52-1.542,9.788 c-0.869,10.281-2.254,17.417-5.158,26.724c-2.091,6.769-3.194,13.598-4.629,20.58c-2.993,14.692-4.992,29.352-5.137,45.783 c4.019-0.581,7.089-4.537,11.837-6.188c4.975-1.721,13.621-2.854,19.028-1.542c12.615,3.072,19.182,10.339,20.561,24.683 c0.759,7.72-0.499,17.744-1.537,26.762c-0.48,4.164-1.165,8.121-2.058,12.332c-0.857,4.088-1.065,8.763-2.044,12.346 c-1.583,5.646-5.448,12.03-7.727,18.009c-2.684,7.055-5.926,18.415-15.933,16.444c-5.746-6.466-0.113-15.47,4.107-23.117 c3.71-6.751,7.397-14.843,9.257-22.648c2.702-11.318,2.254-22.015-0.516-32.406c-2.174-8.192-4.446-12.078-14.914-12.845 c-2.88-0.226-6.955-0.6-9.767,0c-5.534,1.146-8.267,6.099-12.861,9.255c-1.96,10.601-0.065,20.482,0.504,31.375 c0.255,4.771-0.175,9.837,0,14.92c0.293,7.896,4.647,25.977-4.61,26.214c-5.875,0.166-7.661-11.143-9.256-17.976 c-0.7-2.94-1.762-5.201-2.068-6.71c-2.713-13.584-2.1-26.616-3.084-39.072c-0.213-2.517-0.967-4.137-1.038-5.654 c-0.317-7.623,1.967-17.221,1.038-22.637c3.286-9.414,3.072-19.049,5.152-28.284c3.885-17.395,10.235-34.1,14.901-51.45 c2.373-8.738,4.98-18.087,5.659-27.258c0.555-7.516-2.301-13.81-2.047-21.593C361.205,254.056,362.361,252.122,366.188,252.869"></path><path fill="#027555" d="M941.712,388.639c4.924-3.41,13.729-6.939,22.613-9.775c4.401-1.4,6.419-2.386,12.861-1.536 c10.32,1.341,12.86,7.824,20.571,12.859c6.62,9.226,5.529,29.109,2.575,43.198c-1.946,9.268-3.357,16.984-6.68,24.707 c-3.571,8.275-6.691,13.828-12.352,20.566c-3.001,3.572-7.154,7.31-10.273,6.668c-6.348-1.287-3.523-10.381-1.555-15.958 c2.184-6.127,4.829-11.086,6.703-15.404c2.185-5.084,4.152-10.606,6.146-15.922c1.031-2.753,1.578-5.891,2.574-8.792 c1.769-4.917,5.031-9.053,4.651-16.426c-0.189-3.417-1.839-8.193-3.107-11.829c-2.871-8.233-6.525-11.401-15.412-10.299 c-5.659,0.688-12.956,3.305-18.009,5.666c-5.256,2.449-10.109,5.547-13.883,9.267c0.535,7.136-1.043,13.067-1.043,19.54 c0,4.882,1.53,9.598,2.088,14.907c0.7,7.071-0.309,15.251,0,22.133c0.166,4.503,1.625,14.967-4.639,15.939 c-12.256,1.922-15.507-27.412-16.468-38.589c-0.499-5.706-2.123-11.218-2.052-16.462c0.035-1.881,0.842-4.413,1.021-7.194 c0.901-13.188,0.356-24.424,4.117-36.021c2.515-7.76,7.604-16.64,12.861-26.719c4.745-9.13,8.044-19.522,10.809-28.296 c2.954-9.414,5.185-19.896,6.667-32.911c0.534-4.568,1.21-11.396,2.064-17.477c1.412-10.095,0.106-19.16,7.712-20.068 c3.653-0.428,6.87,2.248,8.755,3.073c5.505,9.224,3.785,24.992,1.542,34.976c-1.661,7.309-2.859,13.307-5.149,20.075 c-1.293,3.827-2.041,7.807-3.097,11.822c-1.922,7.344-6.181,13.669-8.731,20.579c-0.724,1.975-0.795,4.288-1.543,6.151 C949.757,361.979,942.887,375.617,941.712,388.639"></path><path fill="#027555" d="M1166.458,433.913c5.375,0.996,12.671-3.032,18.508-1.555c3.893,8.845-2.681,13.929-7.711,18.515 c-2.373,2.188-5.671,4.603-6.158,6.68c-1.222,5.161,3.299,13.473,4.105,19.546c1.969,15.229-1.27,33.31-2.551,48.365 c-0.678,7.646-0.035,15.417-1.044,21.094c-0.498,2.802-2.849,10.162-4.64,13.354c-1.779,3.246-5.79,6.84-9.254,10.803 c-3.346,3.797-16.847,15.198-15.436,0c0.095-0.837,2.396-6.371,3.072-8.234c5.647-14.848,12.02-23.608,13.407-43.202 c0.237-3.44,1.008-6.978,1.008-9.775c-0.012-3.602-1.851-8.401-2.052-12.346c-0.107-2.144,0.617-3.938,0.51-5.132 c-0.391-4.225-2.146-8.424-2.563-12.849c-0.393-3.993-0.404-8.075-2.052-12.345c-6.359-0.078-12.98,2.947-15.935-1.04 c-4.995-6.697,7.665-19.641,10.274-23.135c-0.818-20.026,2.396-36.298,7.712-50.915c2.753-7.652,4.354-15.827,6.692-24.181 c2.573-9.235,4.946-22.311,3.583-35.485c-0.819-7.949-2.101-14.717-3.583-22.637c-0.783-4.075-1.863-8.923-3.109-12.866 c-0.83-2.593-2.99-5.273-4.615-8.732c-1.482-3.168-2.006-6.887-3.085-9.783c-1.14-3.055-5.029-8.15-4.627-11.306 c0.367-2.991,6.039-6.77,10.796-5.66c2.041,0.48,4.2,3.612,6.169,6.175c1.91,2.508,4.034,4.846,5.149,7.208 c2.847,6.056,2.183,14.184,6.169,17.986c1.399,8.288,1.792,15.395,3.607,22.631c1.921,7.907,5.054,17.564,4.116,29.329 c-0.236,2.989-1.021,6.188-1.565,9.242c-1.234,7.404-2.373,15.169-4.627,23.153c-0.594,2.136-1.993,4.157-2.563,6.182 c-0.676,2.475-0.415,5.148-1.032,7.699c-1.091,4.771-2.8,9.189-3.582,13.888C1167.881,414.538,1167.133,424.576,1166.458,433.913"></path><path fill="#027555" d="M240.708,453.964c4.956,1.791,5.796,4.639,9.755,6.175c4.556,1.763,14.501,2.491,20.582,0.517 c8.943-2.989,16.005-17.482,16.456-29.838c0.163-4.544-1.854-10.203-2.052-14.394c-0.214-4.479-0.08-9.109-1.537-12.859 c-3.197-8.121-16.233-17.95-14.925-27.78c0.472-3.56,3.826-7.213,6.701-7.711c4.754-0.831,8.453,2.407,11.303,5.153 c6.154,5.902,9.987,10.389,14.901,18.516c2.344,3.813,4.726,7.533,5.666,10.797c2.491,8.578,2.183,16.74,1.545,25.188 c-1.281,16.87-11.39,34.3-22.628,44.248c-6.525,5.783-11.95,9.367-22.628,10.293c-6.395,0.527-9.696-0.712-14.914-2.048 c-8.236-2.136-13.083-4.271-18.508-9.278c-3.079-2.822-3.9-3.741-6.178-7.698c-4.737-8.245-7.679-17.826-7.199-32.941 c0.498-15.685,4.09-30.889,11.312-42.172c6.001-9.373,14.267-17.837,23.145-26.219c3.022-2.867,4.95-6.396,7.706-6.17 c2.061,0.159,3.402-0.54,4.12,2.562c0.7,3.049-2.557,4.771-5.14,7.717c-6.291,7.107-11.618,14.808-15.436,23.154 c-2.29,5.018-5.294,11.324-7.189,18.49c-0.902,3.411-1.35,7.166-2.068,10.818c-1.311,6.723-2.631,10.68-1.026,16.456 C234.233,441.203,237.914,448.452,240.708,453.964"></path><path fill="#027555" d="M673.757,396.884c8.946-3.043,15.198-11.905,24.156-11.84c6.241,0.041,9.462,2.877,12.351,8.75 c3.903,7.938,6.212,21.563,5.144,34.958c-0.789,9.912-3.624,19.569-5.641,28.278c-1.815,7.7-3.571,22.928-9.272,24.18 c-4.075,0.913-8.275-1.863-10.298-4.598c1.287-8.465,3.304-17.363,4.645-26.754c1.281-9.112,4.26-18.557,4.1-27.271 c-0.113-7.682-3.375-14.202-4.621-21.6c-10.055,0.409-14.189,6.731-20.05,11.317c-2.332,18.835-8.104,36.882-12.352,54.523 c-1.353,5.635-1.008,12.527-6.175,15.951c-4.669-0.155-9.021-0.595-11.313-3.108c0.035-11.616,5.077-23.878,8.228-34.971 c1.975-6.899,4.502-13.619,5.154-22.632c0.582-8.209-0.415-17.564-1.032-25.709c-0.463-5.969-3.263-12.149-0.521-17.493 c5.777-1.792,11.881,0.046,14.392,4.627C672.636,387.097,672.173,392.689,673.757,396.884"></path><path fill="#027555" d="M559.576,384.528c1.804,4.893,3.903,9.479,6.169,13.897c5.078-0.29,8.685-4.317,12.861-6.176 c2.158-0.984,4.947-1.181,7.195-2.064c4.432-1.755,6.911-3.262,13.365-4.129c8.459-1.092,15.175,1.537,18.021,9.771 c1.793,5.257,1.412,11.799,1.015,17.507c-0.831,12.154-4.751,24.48-7.718,38.053c-1.769,8.08-5.398,25.569-12.34,24.679 c-6.441-0.801-3.511-12.7-2.574-18.509c1.21-7.456,2.142-14.402,3.091-22.102c0.646-5.329,1.703-10.72,1.542-15.953 c-0.25-7.225-2.807-14.973-7.208-15.938c-5.873-1.322-11.64,4.443-15.424,6.686c-4.49,2.705-9.527,4.854-13.359,8.229 c-1.104,3.356-0.664,6.923-1.044,10.778c-1.192,12.279-3.695,26.029-4.627,37.579c-0.559,6.799,0.047,12.893-5.143,13.858 c-6.697,1.281-10.114-7.061-10.791-14.394c-0.594-6.217,0.984-13.239,2.053-21.069c1.921-14.154,5.813-33.57,4.633-49.403 c-0.427-5.463-3.239-12.949,0-14.877C553.626,377.522,555.903,383.952,559.576,384.528"></path><path fill="#027555" d="M882.569,384.023c1.021,1.855-0.594,3.625-1.032,5.646c-0.356,1.608-0.036,3.796-1.044,5.144 c-1.779,2.401-4.212,1.4-8.223,2.579c-6.977,2.024-13.607,7.381-15.957,14.914c-0.284,1.009-1.791,5.056-1.021,7.19 c0.521,1.501,3.251,2.438,5.646,4.116c5.494,3.845,12.446,7.463,19.554,9.771c2.515,3.139,4.675,5.403,7.735,9.268 c1.603,2.046,3.666,4.275,4.082,5.641c0.901,2.794,0.392,8.34-1.021,11.841c-0.771,1.935-3.655,4.129-6.668,7.227 c-4.129,4.218-7.439,10.09-13.359,12.314c-3.797,1.441-9.989,1.881-13.407,1.536c-1.779-0.166-3.227-1.536-5.636-2.041 c-2.67-0.576-4.521-0.095-6.692-1.026c-2.135-0.92-4.993-2.853-7.177-4.649c-2.609-2.07-4.698-3.856-3.618-7.701 c3.5-4.233,7.545-1.239,11.306,0c1.745,0.595,4.235,0.921,6.182,1.567c3.796,1.174,7.154,2.787,12.327,1.021 c3.571-1.24,10.962-7.729,11.829-12.356c2.028-10.648-7.784-14.013-14.901-16.979c-3.726-1.536-8.519-2.442-11.318-4.62 c-3.44-2.658-8.84-7.997-9.776-10.273c-3.962-9.938,1.531-23.622,7.202-28.326c2.609-2.112,7.213-4.342,11.841-6.151 C867.501,386.545,873.338,381.324,882.569,384.023"></path><path fill="#027555" d="M1082.637,384.528c-0.392,8.839-8.316,8.785-13.395,13.897c-2.979,3.021-7.285,9.545-11.295,15.951 c-5.719,9.095-11.212,16.967-12.352,29.294c-0.202,2.158-0.261,4.146,0,6.188c0.559,4.728,2.932,9.248,5.659,12.351 c5.149,5.825,18.889,12.903,28.795,6.175c5.777-3.956,7.462-11.211,10.286-19.587c1.306-3.832,2.788-7.777,3.097-11.29 c0.272-3.244-1.056-6.709,1.045-9.271c-2.479-4.718-2.635-8.377-4.64-14.393c-1.341-4.069-2.219-5.725-3.606-10.797 c-0.511-1.845-3.5-4.858-2.574-7.7c0.64-1.979,3.38-2.983,4.104-3.097c3.773-0.641,6.562,2.35,9.789,5.66 c9.373,9.621,18.176,22.506,15.423,42.663c-0.261,1.862-1.364,4.378-2.041,6.704c-0.771,2.521-0.914,5.415-1.554,7.201 c-1.52,4.259-6.419,10.541-9.776,14.896c-3.356,4.408-8.15,10.488-11.841,12.362c-3.144,1.626-6.229,1.44-9.752,2.567 c-5.849,1.846-14.521,5.97-22.648,3.613c-5.411-1.596-12.078-5.398-14.901-8.245c-4.651-4.622-13.051-19.896-12.363-31.88 c0.202-3.019,1.839-7.415,3.098-11.319c2.8-8.707,5.636-13.726,10.286-20.57c2.302-3.347,4.034-7.149,6.182-9.754 c2.076-2.551,5.683-5.102,8.744-7.724c3.024-2.609,5.933-5.838,8.731-7.724c2.005-1.347,4.806-1.821,6.68-3.085 C1074.96,385.483,1077.961,380.315,1082.637,384.528"></path><path fill="#027555" d="M772.504,425.685c3.001-9.509,7.249-17.754,14.392-23.146c0.83-0.145,0.89,0.474,1.53,0.51 c-0.237,5.902,3.062,8.239,3.618,13.376C787.644,421.639,780.417,424,772.504,425.685 M805.404,405.629 c-1.625-6.441-3.845-15.893-8.72-18.017c-1.84-0.795-7.76-0.601-8.258-0.517c-1.14,0.185-5.48,2.153-7.693,3.601 c-6.626,4.391-13.4,13.395-17.5,21.618c-4.751,9.586-8.715,18.53-11.812,29.818c-1.696,6.142-4.555,12.916-4.632,19.025 c-0.077,4.247,0.919,10.19,2.052,12.885c1.109,2.58,6.093,7.932,8.229,8.738c1.389,0.516,2.967-0.202,4.627,0 c1.852,0.193,3.417,1.055,5.148,1.008c8.763-0.189,15.157-4.93,20.562-8.738c4.034-2.812,7.747-5.029,9.775-7.207 c2.137-2.266,4.937-7.089,4.627-9.753c-0.142-1.312-1.091-4.562-4.627-5.166c-3.736-0.604-7.848,3.334-10.808,5.677 c-3.548,2.775-6.246,6.068-9.254,7.185c-4.663,1.772-9.669,1.696-14.397-2.047c-0.291-7.143,1.607-12.125,3.092-17.494 c8.263,0.516,13.328-3.487,19.539-6.685c4.545-2.326,8.649-4.641,11.332-7.202c1.648-1.583,3.914-6.115,5.635-8.749 c0.416-0.564,1.175-0.991,1.554-1.538C807.492,416.876,807.147,412.438,805.404,405.629"></path><path fill="#027555" d="M491.161,446.245c-1.039,4.628-0.706,11.42-2.569,14.403c-1.139,1.82-8.755,4.722-12.339,4.609 c-5.184-0.09-14.771-4.343-16.456-7.701c-1.963-3.901-0.51-11.614,1.542-15.424c1.163-2.165,10.761-11.098,13.887-12.326 c6.745-2.687,12.227-4.668,20.052-4.633C495.176,433.26,493.017,438.083,491.161,446.245 M507.118,398.932 c-0.438-3.264,0.022-6.71-0.522-9.261c-1.015-4.705-5.741-14.054-8.228-15.934c-3.215-2.421-12.511-4.111-19.031-4.646 c-7.047-0.588-11.193,2.235-14.913,4.134c-2.101,1.038-4.325,1.473-5.138,2.029c-1.708,1.215-3.073,4.634-5.646,7.226 c-4.58,4.586-9.337,7.914-11.847,14.402c-0.688,1.751-2.64,8.009,0,10.274c6.033,5.148,13.501-7.048,18.003-11.804 c3.346-3.543,8.994-7.647,13.887-9.298c2.604-0.854,7.185-2.229,10.804-1.528c7.843,1.512,12.837,15.825,10.791,25.211 c-2.711,0.06-5.44-0.933-8.229-1.026c-5.735-0.207-18.034,3.05-21.581,5.132c-0.724,0.427-0.925,1.548-2.076,2.579 c-0.83,0.726-2.229,0.855-3.091,1.543c-5.831,4.669-8.346,9.402-11.811,15.946c-1.092,2.041-2.813,3.796-3.607,5.652 c-0.521,1.229-0.468,3.114-1.032,4.622c-1.239,3.393-3.19,8.19-3.606,12.355c-1.157,12.155,3.162,17.375,10.809,20.555 c1.632,0.678,4.093,1.667,5.659,2.077c10.494,2.834,17.452-0.013,23.658-2.563c3.144-1.322,6.133-2.782,8.744-4.129 c3.678,4.301,3.043,14.926,10.809,13.881c4.271-0.545,4.508-8.063,4.627-13.365c0.102-5.765,1.223-11.573,1.537-18.003 c0.343-6.93-0.042-13.941,0.51-20.58c0.57-6.768,1.68-13.264,2.06-19.533C509.069,407.972,507.788,404.045,507.118,398.932"></path><path fill="#027555" d="M1245.676,613.407c-6.336,14.146-25.2,10.507-44.241,9.782c-18.2-0.684-38.654-2-54.007-0.527 c-8.804,0.836-16.989,2.912-25.212,3.583c-9.1,0.794-17.772,0.456-27.24,0c-23.941-1.116-48.821-2.331-73.036-3.583 c-14.664-0.796-30.884,0.354-49.878,0.527c-24.761,0.214-51.407,3.388-77.153,4.1c-8.354,0.236-16.752,0.142-25.211,0.498 c-8.341,0.396-16.836,0.545-25.212,0.545c-34.93,0-70.367-0.112-105.942-1.561c-8.323-0.33-16.937-0.901-25.194-1.009 c-8.554-0.152-16.858-0.152-25.211-0.54c-33.492-1.477-66.438-0.622-99.257,2.065c-17.179,1.412-34.851,1.264-51.94,0.498 c-5.719-0.232-11.2-1.494-16.967-2.023c-5.949-0.586-12.065-0.552-17.998-1.05c-11.283-0.967-22.293-3.595-33.439-4.111 c-13.193-0.609-26.338,1.11-39.597,0.518c-6.831-0.32-13.736-1.437-20.582-1.536c-6.356-0.089-12.734,0.788-19.028,0.504 c-4.475-0.202-9.871-1.839-14.388-2.063c-4.062-0.186-8.513,0.8-12.867,0.516c-4.903-0.304-9.518-1.033-14.398-1.033 c-9.592,0-19.341,1.08-28.797,0.519c-5.17-0.291-10.281-1.758-15.43-2.06c-15.581-0.962-31.328-1.472-47.327-2.558 c-10.396-0.719-21.184-1.572-31.879-1.572c-10.746,0.06-21.747-0.89-32.396-0.492c-13.857,0.528-27.902,2.035-41.664,2.552 c-14.386,0.581-28.637-1.086-42.682-1.488c-5.405-0.189-10.708,0.988-15.958,1.002c-5.297,0-10.667-0.498-15.946-0.517 c-9.9-0.07-19.591-1.057-29.302-0.485c-4.265,0.207-8.949,1.062-12.866-1.063c-1.374-2.717,0.231-5.527,1.032-7.712 c0.839-2.319,1.575-4.905,3.073-6.169c2.284-1.88,12.393-3.091,16.993-3.066c6.979,0.019,13.861,1.584,21.071,2.04 c7.095,0.439,14.335,0.256,21.608,0.498c13.881,0.451,27.973,1.55,42.168,1.55c28.836,0,57.788-3.347,86.41-1.55 c7.282,0.477,14.635,0.653,22.119,1.039c7.228,0.367,14.427,1.507,21.604,1.555c14.454,0.06,28.557-1.265,42.676,0 c21.162,1.893,43.304,0.623,62.23,1.008c6.769,0.173,13.401,1.453,20.065,1.561c8.765,0.131,16.984-1.27,25.197-1.045 c12.796,0.381,24.993,2.854,36.513,3.608c8.773,0.575,18.057-0.624,27.264-0.505c8.459,0.112,16.913,1.191,25.2,1.021 c17.998-0.344,36.352-0.036,54.516,1.037c8.894,0.499,17.797,0.036,26.742,0.499c17.275,0.908,34.68,0.51,52.974,0.51 c8.834,0,17.494-1.126,26.232-1.009c3.855,0.036,7.521,0.975,11.313,1.009c12.002,0.186,23.9-1.755,35.99-2.562 c23.717-1.562,47.624-0.464,74.081-1.027c7.617-0.171,15.317-0.859,22.638-0.533c24.867,1.181,48.738,0.533,73.013-0.492 c15.008-0.642,29.768-1.425,46.294-1.025c7.107,0.166,14.439,0.302,21.604,0.516c6.822,0.196,13.597,1.46,20.573,1.536 c6.598,0.065,13.348,0.25,20.051,0c21.688-0.836,43.316,1.78,65.823,1.543c6.645-0.09,13.027-1.821,19.553-2.076 c18.698-0.574,37.621,1.098,56.06,1.057c25.924-0.089,45.25,1.008,72.016,2.058C1223.228,606.799,1236.16,603.038,1245.676,613.407"></path><path fill="#027555" d="M655.368,0c-15.602,9.29-17.5,33.41-26.754,43.922c-10.962-0.486-13.193-9.723-22.91-11.455 c-0.694,14.373,4.71,24.867,11.467,36.298c-17.167,6.17-28.515,26.766-38.215,45.844c18.954-5.689,26.725-14.813,38.215-24.838 c-0.955,11.034-13.377,32.158-1.928,45.85c6.572-12.517,14.012-24.204,21.022-36.293c10.804,3.655,22.044,9.344,28.653,7.641 c-6.988-8.281-4.936-25.639-13.377-32.467c12.605-2.052,18.633-10.672,28.664-15.275c-3.636-7.231-9.681,0.908-17.203-5.736 c10.827-8.299,22.246-15.981,26.76-30.574c-18.271,0.226-29.992,17.114-42.035,17.191C660.303,32.906,659.995,14.997,655.368,0"></path><path fill="#B4172C" d="M676.379,231.14c-0.587-9.699-2.171-13.293,0-19.107c71.98,11.722,133.651,16.379,177.646-26.742 c1.174-19.351-6.123-40.76-13.359-49.664c-6.241-7.67-21.012-29.044-32.484-43.939c-17.63-22.898-37.207-42.314-57.305-59.22 c-18.331-3.975-27.275-13.888-43.934-15.275c14.705-15.074,33.492,6.584,55.399,7.64c3.162,6.383,8.952,10.132,17.203,11.455 c21.006,26.007,41.97,48.81,64.939,84.052c-0.854,2.776-1.687-0.202-3.82,0c9.812,16.118,26.6,33.398,21,51.58 c7,5.523-3.583,22.067-9.527,28.659C816.438,240.032,728.481,248.948,676.379,231.14"></path><path fill="#027555" d="M515.915,112.699c4.758-0.291,5.92,2.995,9.551,3.82c2.219,17.161,8.187,29.649,15.281,45.861 c14.273-9.942,22.417-25.983,45.855-26.76c-3.114,12.178-22.591,7.99-21.013,24.838c3.696,1.074,20.834-0.766,30.563,0 c-19.576,9.996-29.976,8.34-49.669,15.281c-4.682,21.433-17.737,34.471-30.569,47.759c-5.255-6.632,0.131-18.905,0-26.748 c-21.403,6.324-27.003,17.868-40.125,30.557c-0.428-17.002,18.271-31.381,30.586-42.018c-0.476-4.917-3.287,2.616-7.653,0 c3.63-14.711,26.221-14.534,36.293-17.191C529.167,154.71,519.623,128.235,515.915,112.699"></path><path fill="#B4172C" d="M619.076,166.189c18.141-2.218,14.581,17.245,26.753,21c7.688,17.156,13.561,36.091,19.09,55.418 c-3.138,23.847-7.742,48.584-17.191,70.669c-13.495,5.601-18.597,19.617-30.557,26.755c-53.704-3.935-125.518-30.23-133.74-82.143 c-3.487-22.127,3.399-32.574,19.114-45.855c4.449,5.843,0.628,16.195-1.899,21.006c3.015,9.652,1.78,20.555,5.731,28.676 c13.786,28.427,87.522,51.188,118.429,59.197c4.924-2.355,14.854-16.284,15.293-17.18c0.866-1.916-0.291-7.268,1.894-11.461 C667.031,244.09,648.647,204.208,619.076,166.189"></path><rect fill="none" width="1291.424" height="628.356"></rect></svg>